<svg width="122" height="130" viewBox="0 0 122 130" fill="none" xmlns="http://www.w3.org/2000/svg">
<path d="M87.2163 0.506897C87.3465 0.506897 87.4786 0.508564 87.6087 0.515046C87.7317 0.518565 87.8566 0.52764 87.9795 0.534863C88.2092 0.551161 88.4353 0.576534 88.6615 0.603574C88.7754 0.621724 88.8874 0.632466 88.9996 0.652468C89.2745 0.697658 89.5423 0.753775 89.8099 0.81693C89.8551 0.829709 89.904 0.83508 89.951 0.847859C89.9599 0.849526 89.969 0.855082 89.9762 0.855082C90.3018 0.940091 90.6202 1.04121 90.933 1.15345C91.0236 1.18771 91.1102 1.22401 91.1989 1.26012C91.4232 1.34699 91.6438 1.44274 91.8609 1.54404C91.9098 1.56571 91.9622 1.58571 92.0127 1.60738C92.1466 1.67609 92.2787 1.74295 92.4107 1.81537C100.253 6.08008 108.094 10.3485 115.936 14.6115C115.757 14.5139 115.569 14.4271 115.382 14.3384C115.371 14.333 115.359 14.3293 115.348 14.3258C119.318 16.1797 122.011 20.3955 122 25.6407L121.855 103.669C121.841 111.399 115.977 118.54 108.815 119.545L36.5219 129.704C35.9559 129.784 35.3988 129.824 34.8508 129.824C32.882 129.824 31.0489 129.321 29.4556 128.422C29.4989 128.447 29.5406 128.482 29.5876 128.507C21.7453 124.24 13.9049 119.976 6.0626 115.709C2.41818 113.727 -0.0108148 109.674 3.62074e-05 104.691L0.144727 26.6624C0.144727 26.185 0.170049 25.7075 0.215265 25.2354C0.229733 25.0691 0.26229 24.9063 0.282185 24.7398C0.321974 24.4361 0.354529 24.1303 0.412406 23.8301C0.44858 23.6384 0.49922 23.4521 0.542629 23.2623C0.602313 22.9928 0.658382 22.7196 0.730726 22.4538C0.784986 22.2566 0.857332 22.0649 0.918826 21.8714C0.991171 21.6364 1.0599 21.3993 1.1431 21.1678C1.15033 21.1498 1.15938 21.1317 1.16661 21.11C1.2064 21.0033 1.25523 20.9002 1.29502 20.7935C1.4162 20.4877 1.541 20.1858 1.67845 19.8891C1.74537 19.7445 1.81953 19.6034 1.88825 19.4622C1.97145 19.2978 2.0456 19.1294 2.13243 18.9703C2.16678 18.9107 2.20477 18.8583 2.23912 18.7985C2.52671 18.2723 2.8396 17.7604 3.17963 17.272C3.18686 17.2594 3.1941 17.2485 3.20134 17.2377C3.23569 17.187 3.27729 17.1455 3.31166 17.0948C3.60466 16.6897 3.91393 16.2954 4.23948 15.9174C4.29014 15.8613 4.33174 15.7944 4.38237 15.7365C4.44386 15.6696 4.5144 15.61 4.57589 15.5429C4.87613 15.212 5.19083 14.8955 5.5164 14.5915C5.58692 14.5247 5.65023 14.4506 5.71896 14.3854C5.7479 14.3637 5.77683 14.3439 5.80215 14.3204C6.24709 13.9279 6.70828 13.5644 7.18757 13.2244C7.22736 13.1971 7.26355 13.161 7.30333 13.1338C7.46972 13.018 7.64698 12.9151 7.8206 12.8084C7.95806 12.7197 8.09189 12.6293 8.22935 12.5461C8.50427 12.385 8.78459 12.2385 9.06855 12.0957C9.16804 12.0468 9.26752 11.9872 9.36879 11.9401C9.38688 11.9311 9.40135 11.922 9.41944 11.9131C9.7667 11.7503 10.1212 11.6055 10.4829 11.4718C10.577 11.4373 10.6764 11.4047 10.7741 11.3723C11.0689 11.2691 11.3673 11.1788 11.6694 11.0973C11.7797 11.0684 11.89 11.0358 12.0022 11.0123C12.3928 10.9165 12.7907 10.835 13.1923 10.7772L85.4872 0.616353C85.8471 0.565607 86.2016 0.536715 86.5544 0.518565C86.6664 0.513194 86.7787 0.513194 86.8926 0.511342C87.0011 0.508564 87.1078 0.506897 87.2163 0.506897ZM87.2163 6.56402L87.0679 6.56587L87.0174 6.56754L86.88 6.56939C86.6899 6.57661 86.5109 6.58921 86.3301 6.61458L14.0351 16.7755C13.8506 16.8027 13.6462 16.846 13.4446 16.8959L13.346 16.9194L13.3369 16.9212L13.2122 16.9546C13.0856 16.989 12.9291 17.0351 12.7754 17.0894L12.7302 17.1057L12.6424 17.1346L12.5475 17.1663C12.4064 17.2187 12.2391 17.2848 12.0718 17.3607C11.947 17.4276 11.8394 17.4837 11.7336 17.5352C11.635 17.585 11.4939 17.6572 11.3493 17.7387L11.2561 17.7993L11.1051 17.8978L11.0508 17.933L10.9957 17.9665L10.8392 18.0625L10.8031 18.0841C10.7361 18.1338 10.6683 18.1817 10.6005 18.2288C10.6312 18.208 10.662 18.1864 10.6927 18.1645C10.3862 18.3816 10.1049 18.6042 9.83271 18.842C9.78116 18.8935 9.72962 18.944 9.67717 18.9929C9.44746 19.2091 9.24942 19.4063 9.06224 19.6134C9.01068 19.6693 8.96095 19.7219 8.91302 19.7715C8.87866 19.8123 8.84519 19.8521 8.81082 19.8919C8.61187 20.1243 8.41293 20.3775 8.21941 20.6451L8.10817 20.7989L8.09008 20.8215C7.90741 21.0909 7.72745 21.3867 7.55472 21.7023L7.52128 21.7647L7.48509 21.8262C7.46068 21.8695 7.43536 21.9121 7.41004 21.9536L7.29518 22.1933L7.22374 22.3362L7.17311 22.4385C7.08901 22.6202 7.01213 22.8083 6.93709 22.9982C6.90001 23.0923 6.86202 23.1863 6.82313 23.2795C6.80053 23.3473 6.77972 23.4188 6.75803 23.4901L6.70919 23.6503L6.58529 24.0283L6.55093 24.1303C6.54369 24.1611 6.5211 24.2787 6.49576 24.3954L6.45689 24.5698L6.38273 24.8863L6.3556 24.9976C6.34204 25.0782 6.3321 25.184 6.31852 25.2897L6.28778 25.5284C6.28053 25.5927 6.26155 25.7257 6.24075 25.8594L6.24979 25.7627C6.21634 26.11 6.20186 26.3967 6.20186 26.6624L6.05718 104.702C6.05175 107.272 7.13603 109.397 8.95643 110.388L20.1699 116.489L32.4253 123.155L32.4307 123.146C33.1606 123.557 33.9744 123.765 34.8508 123.765C35.1193 123.765 35.3969 123.745 35.6764 123.707L107.972 113.546C112.134 112.964 115.789 108.343 115.798 103.658L115.943 25.6297C115.948 22.9539 114.738 20.7264 112.785 19.8141C112.855 19.8475 112.926 19.8782 112.997 19.9082L99.3468 12.4837L89.5169 7.13649L89.441 7.09667C89.4265 7.09037 89.4119 7.08389 89.3975 7.07759L89.3488 7.05592L89.2999 7.03333C89.2058 6.98906 89.11 6.94647 89.0122 6.9085L88.9563 6.88683L88.8531 6.84516C88.7609 6.80997 88.6415 6.77015 88.5166 6.73496L88.4172 6.71237C88.2851 6.6807 88.1533 6.65162 88.0156 6.62903L88.0519 6.63458L87.9071 6.61365C87.7897 6.60013 87.6739 6.58569 87.5545 6.57754L87.4171 6.56939L87.2163 6.56402Z" fill="#F5F5F5"/>
<path d="M31.5229 78.8508C22.8866 78.8508 18.9999 74.5318 18.9999 68.9195L19.4321 68.4873H24.6138L25.0461 68.9195C25.0461 71.9419 26.7716 73.6691 31.9551 73.6691C35.8402 73.6691 37.9997 72.3742 37.9997 69.7824C37.9997 66.76 36.2724 65.8955 30.2261 65.0328C24.1815 64.1683 19.4321 62.0107 19.4321 55.9643C19.4321 51.6471 22.8866 47.7603 31.0906 47.7603C39.2946 47.7603 42.7491 51.6471 42.7491 56.827L42.3186 57.2592H37.1351L36.7047 56.827C36.7047 54.2371 35.4096 52.9421 30.6583 52.9421C26.7716 52.9421 25.4767 54.2371 25.4767 55.9643C25.4767 58.556 27.2039 59.4189 33.2501 60.2816C39.2946 61.1461 44.0442 63.736 44.0442 69.7824C44.0442 74.5318 40.5896 78.8508 31.5229 78.8508Z" fill="#F5F5F5"/>
<path d="M62.6099 66.3278H54.4059L53.9736 66.76V77.9862L53.5413 78.4185H48.3595L47.9291 77.9862V48.6229L48.3595 48.1925H62.6099C68.6561 48.1925 72.9734 51.2149 72.9734 57.2592C72.9734 63.3056 68.6561 66.3278 62.6099 66.3278ZM62.6099 53.3725H54.4059L53.9736 53.8048V60.7138L54.4059 61.1461H62.6099C65.2016 61.1461 66.927 60.2816 66.927 57.2592C66.927 54.237 65.2016 53.3725 62.6099 53.3725Z" fill="#F5F5F5"/>
</svg>
