<svg width="770" height="420" viewBox="0 0 770 420" fill="none" xmlns="http://www.w3.org/2000/svg">
<g clip-path="url(#clip0)">
<path d="M761.352 392.49C761.352 389.755 760.828 387.545 759.78 385.859C758.686 384.127 756.932 382.92 754.516 382.236L753.833 381.552L753.833 373.349L754.516 372.666C759.347 373.349 763.061 375.446 765.659 378.955C768.256 382.464 769.555 386.975 769.555 392.49C769.555 396.226 768.962 399.553 767.778 402.47C766.547 405.341 764.838 407.779 762.651 409.784C760.463 411.744 757.866 413.225 754.858 414.227C751.85 415.23 748.546 415.731 744.946 415.731C741.346 415.731 738.042 415.23 735.034 414.227C732.027 413.225 729.429 411.744 727.242 409.784C725.054 407.779 723.368 405.341 722.183 402.47C720.953 399.553 720.338 396.226 720.338 392.49C720.338 389.755 720.679 387.249 721.363 384.97C722.001 382.692 722.935 380.709 724.166 379.023C725.396 377.291 726.9 375.879 728.677 374.785C730.455 373.691 732.46 372.985 734.693 372.666L735.376 373.349L735.376 381.552L734.693 382.236C730.591 383.603 728.541 387.021 728.541 392.49C728.541 394.859 728.951 396.91 729.771 398.642C730.591 400.373 731.731 401.809 733.189 402.948C734.602 404.042 736.31 404.862 738.316 405.409C740.321 405.91 742.531 406.161 744.946 406.161C747.316 406.161 749.526 405.91 751.577 405.409C753.582 404.862 755.314 404.042 756.772 402.948C758.185 401.809 759.301 400.373 760.122 398.642C760.942 396.91 761.352 394.859 761.352 392.49ZM744.946 330.287C742.531 330.287 740.321 330.583 738.316 331.176C736.31 331.768 734.602 332.657 733.189 333.842C731.731 334.981 730.591 336.394 729.771 338.08C728.951 339.766 728.541 341.726 728.541 343.959C728.541 346.192 728.951 348.151 729.771 349.837C730.591 351.523 731.731 352.959 733.189 354.144C734.602 355.283 736.31 356.149 738.316 356.741C740.321 357.334 742.531 357.63 744.946 357.63C747.316 357.63 749.526 357.334 751.577 356.741C753.582 356.149 755.314 355.283 756.772 354.144C758.185 352.959 759.301 351.523 760.122 349.837C760.942 348.151 761.352 346.192 761.352 343.959C761.352 341.726 760.942 339.766 760.122 338.08C759.301 336.394 758.185 334.981 756.772 333.842C755.314 332.657 753.582 331.768 751.577 331.176C749.526 330.583 747.316 330.287 744.946 330.287ZM744.946 320.717C748.546 320.717 751.85 321.264 754.858 322.358C757.866 323.406 760.463 324.932 762.651 326.938C764.838 328.943 766.547 331.381 767.778 334.252C768.962 337.123 769.555 340.358 769.555 343.959C769.555 347.559 768.962 350.794 767.778 353.665C766.547 356.536 764.838 358.974 762.651 360.979C760.463 362.985 757.866 364.534 754.858 365.628C751.85 366.676 748.546 367.2 744.946 367.2C741.346 367.2 738.042 366.676 735.034 365.628C732.027 364.534 729.429 362.985 727.242 360.979C725.054 358.974 723.368 356.536 722.183 353.665C720.953 350.794 720.338 347.559 720.338 343.959C720.338 340.358 720.953 337.123 722.183 334.252C723.368 331.381 725.054 328.943 727.242 326.938C729.429 324.932 732.027 323.406 735.034 322.358C738.042 321.264 741.346 320.717 744.946 320.717ZM768.871 299.547L768.871 316.225L768.516 316.579L764.613 316.579L763.904 316.225L758.581 309.837C757.682 308.773 756.913 307.921 756.274 307.282C755.612 306.62 755.021 306.111 754.5 305.757C753.956 305.402 753.447 305.165 752.974 305.047C752.501 304.929 752.004 304.869 751.484 304.869C750.419 304.869 749.568 305.142 748.929 305.686C748.267 306.206 747.935 306.999 747.935 308.063C747.935 309.482 748.267 310.429 748.929 310.902C749.568 311.375 750.419 311.612 751.484 311.612L751.839 311.966L751.839 316.225L751.484 316.579C750.514 316.579 749.568 316.437 748.645 316.154C747.699 315.87 746.859 315.397 746.126 314.734C745.392 314.048 744.801 313.161 744.352 312.073C743.902 310.985 743.677 309.648 743.677 308.063C743.677 306.738 743.89 305.567 744.316 304.55C744.718 303.533 745.262 302.681 745.948 301.995C746.634 301.309 747.427 300.789 748.326 300.434C749.225 300.079 750.159 299.902 751.129 299.902C752.099 299.902 752.986 300.02 753.79 300.256C754.571 300.469 755.328 300.824 756.061 301.321C756.795 301.818 757.528 302.445 758.261 303.202C758.995 303.959 759.811 304.869 760.71 305.934L764.258 310.192L764.613 310.192L764.613 299.547L764.968 299.192L768.516 299.192L768.871 299.547ZM755.2 273.153L755.2 292.976L754.516 293.66L747.681 293.66L746.997 292.976L746.997 273.153L747.681 272.469L754.516 272.469L755.2 273.153ZM768.871 222.59L768.871 228.742L768.188 229.425L764.77 230.109L764.77 230.793C765.089 231.112 765.522 231.59 766.069 232.228C766.616 232.866 767.162 233.686 767.709 234.689C768.211 235.646 768.643 236.831 769.008 238.244C769.373 239.611 769.555 241.229 769.555 243.097C769.555 246.515 768.962 249.614 767.778 252.394C766.547 255.173 764.838 257.543 762.651 259.503C760.463 261.462 757.866 262.989 754.858 264.083C751.85 265.131 748.546 265.655 744.946 265.655C741.346 265.655 738.042 265.131 735.034 264.083C732.027 262.989 729.429 261.44 727.242 259.434C725.054 257.429 723.368 254.991 722.183 252.12C720.953 249.249 720.338 246.014 720.338 242.413C720.338 238.996 720.771 236.079 721.636 233.664C722.457 231.203 723.55 229.175 724.918 227.58C726.285 225.939 727.834 224.663 729.566 223.752C731.252 222.84 732.961 222.225 734.693 221.906L735.376 222.59L735.376 230.793L734.693 231.476C734.009 231.795 733.303 232.205 732.574 232.707C731.844 233.162 731.184 233.8 730.591 234.621C729.999 235.441 729.52 236.489 729.156 237.765C728.746 238.996 728.541 240.545 728.541 242.413C728.541 244.646 728.951 246.606 729.771 248.292C730.591 249.978 731.731 251.414 733.189 252.599C734.602 253.738 736.31 254.604 738.316 255.196C740.321 255.789 742.531 256.085 744.946 256.085C747.316 256.085 749.526 255.789 751.577 255.196C753.582 254.604 755.314 253.738 756.772 252.599C758.185 251.414 759.301 249.978 760.122 248.292C760.942 246.606 761.352 244.646 761.352 242.413C761.352 238.631 760.441 235.874 758.618 234.142C756.795 232.365 754.516 231.476 751.782 231.476L751.098 232.16L751.098 243.781L750.415 244.464L743.579 244.464L742.896 243.781L742.896 222.59L743.579 221.906L768.188 221.906L768.871 222.59ZM768.871 179.509L768.871 211.637L768.188 212.32L721.705 212.32L721.021 211.637L721.021 179.509L721.705 178.825L728.541 178.825L729.224 179.509L729.224 202.067L729.908 202.75L739.478 202.75L740.161 202.067L740.161 180.876L740.845 180.192L747.681 180.192L748.364 180.876L748.364 202.067L749.048 202.75L759.985 202.75L760.668 202.067L760.668 179.509L761.352 178.825L768.188 178.825L768.871 179.509ZM755.2 132.35C757.068 132.35 758.868 132.715 760.6 133.444C762.332 134.173 763.858 135.335 765.18 136.93C766.502 138.479 767.573 140.507 768.393 143.014C769.168 145.52 769.555 148.574 769.555 152.174C769.555 155.592 769.168 158.554 768.393 161.06C767.573 163.521 766.456 165.572 765.043 167.212C763.631 168.853 761.967 170.061 760.053 170.835C758.139 171.61 756.066 171.997 753.833 171.997L753.149 171.314L753.149 163.111L753.833 162.427C756.202 162.427 758.048 161.63 759.37 160.035C760.691 158.44 761.352 155.592 761.352 151.49C761.352 148.391 760.851 146.022 759.848 144.381C758.8 142.74 757.251 141.92 755.2 141.92C754.015 141.92 753.012 142.125 752.192 142.535C751.372 142.9 750.688 143.561 750.141 144.518C749.595 145.429 749.139 146.682 748.774 148.277C748.364 149.827 748 151.809 747.681 154.224C747.316 156.594 746.815 158.827 746.177 160.923C745.539 163.02 744.673 164.843 743.579 166.392C742.485 167.896 741.095 169.104 739.409 170.015C737.723 170.881 735.695 171.314 733.326 171.314C731.594 171.314 729.953 170.972 728.404 170.288C726.854 169.559 725.487 168.443 724.302 166.939C723.072 165.435 722.115 163.521 721.431 161.197C720.702 158.873 720.338 156.093 720.338 152.857C720.338 149.622 720.702 146.842 721.431 144.518C722.16 142.194 723.163 140.28 724.439 138.776C725.715 137.272 727.242 136.178 729.019 135.495C730.751 134.765 732.642 134.401 734.693 134.401L735.376 135.084L735.376 143.287L734.693 143.971C733.645 143.971 732.756 144.13 732.027 144.449C731.252 144.723 730.614 145.224 730.113 145.953C729.566 146.682 729.179 147.662 728.951 148.893C728.677 150.123 728.541 151.672 728.541 153.541C728.541 156.594 728.996 158.736 729.908 159.966C730.819 161.151 731.958 161.744 733.326 161.744C734.328 161.744 735.194 161.561 735.923 161.197C736.652 160.787 737.267 160.126 737.769 159.215C738.27 158.258 738.703 156.982 739.068 155.387C739.432 153.791 739.797 151.809 740.161 149.439C740.48 147.024 741.004 144.791 741.733 142.74C742.463 140.644 743.42 138.844 744.604 137.34C745.789 135.791 747.248 134.583 748.979 133.717C750.711 132.806 752.785 132.35 755.2 132.35ZM768.871 91.325L768.871 123.453L768.188 124.137L721.705 124.137L721.021 123.453L721.021 91.325L721.705 90.6414L728.541 90.6414L729.224 91.325L729.224 113.883L729.908 114.566L739.478 114.566L740.161 113.883L740.161 92.6921L740.845 92.0086L747.681 92.0086L748.364 92.6921L748.364 113.883L749.048 114.566L759.985 114.566L760.668 113.883L760.668 91.325L761.352 90.6414L768.188 90.6414L768.871 91.325ZM729.224 46.2172L729.224 59.8886L729.908 60.5722L768.188 60.5722L768.871 61.2558L768.871 69.4587L768.188 70.1422L729.908 70.1422L729.224 70.8258L729.224 84.4973L728.541 85.1809L721.705 85.1809L721.021 84.4973L721.021 46.2172L721.705 45.5336L728.541 45.5336L729.224 46.2172ZM768.871 5.87834L768.871 40.057L768.188 40.7406L760.668 40.7406L759.301 40.057L729.908 18.1827L729.224 18.1827L729.224 39.3734L728.541 40.057L721.705 40.057L721.021 39.3734L721.021 7.24549L721.705 6.56191L729.224 6.56191L730.591 7.24549L759.985 29.1198L760.668 29.1198L760.668 5.87834L761.352 5.19477L768.188 5.19477L768.871 5.87834Z" fill="#F5F5F5"/>
<path d="M470.128 403.942C470.128 409.41 468.692 413.398 465.821 415.904C462.996 418.411 459.191 419.664 454.406 419.664C451.671 419.664 449.347 419.231 447.433 418.365C445.519 417.499 443.97 416.383 442.785 415.015C441.6 413.648 440.734 412.122 440.187 410.435C439.641 408.704 439.367 406.995 439.367 405.309V404.625L440.051 403.942H448.254L448.937 404.625V405.309C448.937 407.04 449.325 408.499 450.099 409.684C450.92 410.868 452.355 411.461 454.406 411.461C455.272 411.461 456.069 411.37 456.798 411.187C457.573 410.96 458.234 410.595 458.781 410.094C459.327 409.592 459.76 408.909 460.079 408.043C460.398 407.132 460.558 405.992 460.558 404.625V371.814L461.241 371.13H469.444L470.128 371.814V403.942ZM516.63 418.98H510.477L509.794 418.297L506.376 409.41L505.009 408.727H487.92L486.552 409.41L483.135 418.297L482.451 418.98H476.299L475.615 418.297V411.461L491.337 371.814L492.021 371.13H500.907L501.591 371.814L517.313 411.461V418.297L516.63 418.98ZM496.806 383.434H496.122L489.97 399.84L490.654 400.524H502.275L502.958 399.84L496.806 383.434ZM574.744 418.98H540.565L539.882 418.297V410.777L540.565 409.41L562.44 380.016V379.333H541.249L540.565 378.649V371.814L541.249 371.13H573.377L574.06 371.814V379.333L573.377 380.7L551.503 410.094V410.777H574.744L575.428 411.461V418.297L574.744 418.98ZM622.602 400.524C622.602 406.721 620.962 411.461 617.68 414.742C614.399 418.023 609.66 419.664 603.462 419.664C597.264 419.664 592.525 418.023 589.244 414.742C585.963 411.461 584.322 406.721 584.322 400.524V371.814L585.006 371.13H593.209L593.892 371.814V400.524C593.892 403.942 594.621 406.63 596.08 408.59C597.583 410.504 600.044 411.461 603.462 411.461C606.88 411.461 609.318 410.504 610.776 408.59C612.28 406.63 613.032 403.942 613.032 400.524V371.814L613.716 371.13H621.919L622.602 371.814V400.524ZM684.105 418.98H675.902L675.219 418.297V391.637H674.535L663.598 418.297L662.914 418.98H655.395L654.711 418.297L643.774 391.637H643.091V418.297L642.407 418.98H634.204L633.521 418.297V371.814L634.204 371.13H644.458L645.141 371.814L658.813 405.309H659.496L673.168 371.814L673.851 371.13H684.105L684.789 371.814V418.297L684.105 418.98Z" fill="#F5F5F5"/>
</g>
<defs>
<clipPath id="clip0">
<rect width="770" height="420" fill="white"/>
</clipPath>
</defs>
</svg>
