<svg width="770" height="420" viewBox="0 0 770 420" fill="none" xmlns="http://www.w3.org/2000/svg">
<path d="M42.5605 50H37.6765L36.281 49.3023L20.9314 30.4641H20.2337L15.3497 35.348V49.3023L14.652 50H6.27941L5.5817 49.3023V1.85784L6.27941 1.16013H14.652L15.3497 1.85784V22.0915H16.0474L36.281 1.85784L37.6765 1.16013H41.165L41.8627 1.85784V8.83497L27.9085 22.7892V23.4869L43.2582 42.3252V49.3023L42.5605 50ZM82.3055 50H50.9085L50.2108 49.3023V1.85784L50.9085 1.16013H59.281L59.9787 1.85784V40.9297L60.6765 41.6275H82.3055L83.0032 42.3252V49.3023L82.3055 50ZM98.3229 50H89.9504L89.2527 49.3023V1.85784L89.9504 1.16013H98.3229L99.0207 1.85784V49.3023L98.3229 50ZM161.801 50H153.429L152.731 49.3023V22.0915H152.033L140.87 49.3023L140.172 50H132.497L131.8 49.3023L120.636 22.0915H119.938V49.3023L119.241 50H110.868L110.17 49.3023V1.85784L110.868 1.16013H121.334L122.032 1.85784L135.986 36.0458H136.684L150.638 1.85784L151.335 1.16013H161.801L162.499 1.85784V49.3023L161.801 50ZM211.35 50H205.07L204.373 49.3023L200.884 40.232L199.489 39.5343H182.046L180.65 40.232L177.162 49.3023L176.464 50H170.185L169.487 49.3023V42.3252L185.534 1.85784L186.232 1.16013H195.302L196 1.85784L212.047 42.3252V49.3023L211.35 50ZM191.116 13.719H190.418L184.139 30.4641L184.837 31.1618H196.698L197.395 30.4641L191.116 13.719ZM258.854 50H252.575L251.877 49.3023L251.179 45.8137H250.481C250.156 46.1393 249.667 46.5812 249.016 47.1394C248.365 47.6975 247.528 48.2557 246.505 48.8139C245.528 49.3255 244.318 49.7674 242.876 50.1395C241.481 50.5117 239.83 50.6977 237.923 50.6977C234.434 50.6977 231.271 50.093 228.434 48.8837C225.596 47.6278 223.178 45.8835 221.178 43.6508C219.177 41.4181 217.619 38.7668 216.503 35.6969C215.433 32.627 214.898 29.2547 214.898 25.5801C214.898 21.9054 215.433 18.5332 216.503 15.4632C217.619 12.3933 219.201 9.74199 221.247 7.50931C223.294 5.27663 225.782 3.55561 228.713 2.34624C231.643 1.09036 234.946 0.462417 238.62 0.462417C242.109 0.462417 245.086 0.904301 247.551 1.78807C250.063 2.62533 252.133 3.74167 253.761 5.13709C255.435 6.53252 256.738 8.114 257.668 9.88153C258.598 11.6026 259.226 13.3468 259.552 15.1144L258.854 15.8121H250.481L249.784 15.1144C249.458 14.4167 249.04 13.6957 248.528 12.9515C248.063 12.2072 247.412 11.5328 246.574 10.9281C245.737 10.3234 244.667 9.83502 243.365 9.46291C242.109 9.04428 240.527 8.83497 238.62 8.83497C236.341 8.83497 234.341 9.25359 232.62 10.0908C230.899 10.9281 229.434 12.091 228.224 13.5794C227.062 15.0213 226.178 16.7656 225.573 18.8123C224.968 20.8589 224.666 23.1148 224.666 25.5801C224.666 27.9988 224.968 30.2547 225.573 32.3479C226.178 34.3945 227.062 36.162 228.224 37.6505C229.434 39.0924 230.899 40.232 232.62 41.0693C234.341 41.9065 236.341 42.3252 238.62 42.3252C242.481 42.3252 245.295 41.3949 247.063 39.5343C248.877 37.6737 249.784 35.348 249.784 32.5572L249.086 31.8595H237.225L236.527 31.1618V24.1846L237.225 23.4869H258.854L259.552 24.1846V49.3023L258.854 50ZM302.826 50H270.034L269.336 49.3023V1.85784L270.034 1.16013H302.826L303.524 1.85784V8.83497L302.826 9.53268H279.802L279.104 10.2304V19.9984L279.802 20.6961H301.431L302.129 21.3938V28.3709L301.431 29.0686H279.802L279.104 29.7663V40.9297L279.802 41.6275H302.826L303.524 42.3252V49.3023L302.826 50ZM353.751 15.8121C353.751 17.7192 353.472 19.4635 352.914 21.0449C352.356 22.5799 351.588 23.9521 350.611 25.1614C349.635 26.3243 348.518 27.3011 347.262 28.0918C346.007 28.8361 344.681 29.3942 343.285 29.7663V30.4641L352.356 42.3252V49.3023L351.658 50H347.472L346.076 49.3023L332.122 31.1618L330.727 30.4641H323.749L323.052 31.1618V49.3023L322.354 50H313.981L313.284 49.3023V1.85784L313.981 1.16013H337.006C339.471 1.16013 341.727 1.46247 343.774 2.06716C345.82 2.67184 347.565 3.60212 349.007 4.85801C350.495 6.06737 351.658 7.57908 352.495 9.39314C353.332 11.2072 353.751 13.3468 353.751 15.8121ZM343.983 15.8121C343.983 13.3468 343.332 11.6956 342.03 10.8583C340.774 9.97456 339.099 9.53268 337.006 9.53268H323.749L323.052 10.2304V21.3938L323.749 22.0915H337.006C339.099 22.0915 340.774 21.6729 342.03 20.8356C343.332 19.9519 343.983 18.2773 343.983 15.8121ZM395.627 50H362.835L362.137 49.3023V1.85784L362.835 1.16013H395.627L396.325 1.85784V8.83497L395.627 9.53268H372.603L371.905 10.2304V19.9984L372.603 20.6961H394.232L394.93 21.3938V28.3709L394.232 29.0686H372.603L371.905 29.7663V40.9297L372.603 41.6275H395.627L396.325 42.3252V49.3023L395.627 50ZM427.016 42.3252C429.807 42.3252 432.063 41.7903 433.784 40.7204C435.552 39.6041 436.784 37.8133 437.482 35.348L438.18 34.6503H446.552L447.25 35.348C446.552 40.2785 444.413 44.0694 440.831 46.7208C437.249 49.3721 432.645 50.6977 427.016 50.6977C423.202 50.6977 419.807 50.093 416.83 48.8837C413.899 47.6278 411.411 45.8835 409.364 43.6508C407.364 41.4181 405.852 38.7668 404.829 35.6969C403.806 32.627 403.294 29.2547 403.294 25.5801C403.294 21.9054 403.806 18.5332 404.829 15.4632C405.852 12.3933 407.364 9.74199 409.364 7.50931C411.411 5.27663 413.899 3.55561 416.83 2.34624C419.807 1.09036 423.202 0.462417 427.016 0.462417C429.807 0.462417 432.365 0.811273 434.691 1.50898C437.017 2.16018 439.04 3.11372 440.761 4.36961C442.529 5.62549 443.971 7.16046 445.087 8.97451C446.203 10.7886 446.924 12.8352 447.25 15.1144L446.552 15.8121H438.18L437.482 15.1144C436.087 10.9281 432.598 8.83497 427.016 8.83497C424.598 8.83497 422.504 9.25359 420.737 10.0908C418.969 10.9281 417.504 12.091 416.341 13.5794C415.225 15.0213 414.388 16.7656 413.83 18.8123C413.318 20.8589 413.062 23.1148 413.062 25.5801C413.062 27.9988 413.318 30.2547 413.83 32.3479C414.388 34.3945 415.225 36.162 416.341 37.6505C417.504 39.0924 418.969 40.232 420.737 41.0693C422.504 41.9065 424.598 42.3252 427.016 42.3252ZM494.692 50H486.319L485.621 49.3023V29.7663L484.924 29.0686H466.086L465.388 29.7663V49.3023L464.69 50H456.318L455.62 49.3023V1.85784L456.318 1.16013H464.69L465.388 1.85784V19.9984L466.086 20.6961H484.924L485.621 19.9984V1.85784L486.319 1.16013H494.692L495.389 1.85784V49.3023L494.692 50ZM542.169 9.53268H528.215L527.517 10.2304V49.3023L526.819 50H518.447L517.749 49.3023V10.2304L517.051 9.53268H503.097L502.399 8.83497V1.85784L503.097 1.16013H542.169L542.867 1.85784V8.83497L542.169 9.53268ZM558.922 50H550.55L549.852 49.3023V1.85784L550.55 1.16013H558.922L559.62 1.85784V49.3023L558.922 50ZM611.935 50H605.655L604.958 49.3023L604.26 45.8137H603.562C603.237 46.1393 602.748 46.5812 602.097 47.1394C601.446 47.6975 600.608 48.2557 599.585 48.8139C598.608 49.3255 597.399 49.7674 595.957 50.1395C594.562 50.5117 592.91 50.6977 591.003 50.6977C587.515 50.6977 584.352 50.093 581.514 48.8837C578.677 47.6278 576.258 45.8835 574.258 43.6508C572.258 41.4181 570.7 38.7668 569.584 35.6969C568.514 32.627 567.979 29.2547 567.979 25.5801C567.979 21.9054 568.514 18.5332 569.584 15.4632C570.7 12.3933 572.281 9.74199 574.328 7.50931C576.375 5.27663 578.863 3.55561 581.793 2.34624C584.724 1.09036 588.026 0.462417 591.701 0.462417C595.19 0.462417 598.166 0.904301 600.632 1.78807C603.143 2.62533 605.213 3.74167 606.841 5.13709C608.516 6.53252 609.818 8.114 610.749 9.88153C611.679 11.6026 612.307 13.3468 612.632 15.1144L611.935 15.8121H603.562L602.864 15.1144C602.539 14.4167 602.12 13.6957 601.609 12.9515C601.143 12.2072 600.492 11.5328 599.655 10.9281C598.818 10.3234 597.748 9.83502 596.445 9.46291C595.19 9.04428 593.608 8.83497 591.701 8.83497C589.422 8.83497 587.422 9.25359 585.701 10.0908C583.98 10.9281 582.514 12.091 581.305 13.5794C580.142 15.0213 579.258 16.7656 578.654 18.8123C578.049 20.8589 577.747 23.1148 577.747 25.5801C577.747 27.9988 578.049 30.2547 578.654 32.3479C579.258 34.3945 580.142 36.162 581.305 37.6505C582.514 39.0924 583.98 40.232 585.701 41.0693C587.422 41.9065 589.422 42.3252 591.701 42.3252C595.562 42.3252 598.376 41.3949 600.143 39.5343C601.957 37.6737 602.864 35.348 602.864 32.5572L602.167 31.8595H590.306L589.608 31.1618V24.1846L590.306 23.4869H611.935L612.632 24.1846V49.3023L611.935 50ZM659.395 50H654.511L653.116 49.3023L637.766 30.4641H637.069L632.185 35.348V49.3023L631.487 50H623.114L622.417 49.3023V1.85784L623.114 1.16013H631.487L632.185 1.85784V22.0915H632.882L653.116 1.85784L654.511 1.16013H658L658.698 1.85784V8.83497L644.744 22.7892V23.4869L660.093 42.3252V49.3023L659.395 50ZM700.536 50H667.743L667.046 49.3023V1.85784L667.743 1.16013H700.536L701.234 1.85784V8.83497L700.536 9.53268H677.511L676.814 10.2304V19.9984L677.511 20.6961H699.141L699.838 21.3938V28.3709L699.141 29.0686H677.511L676.814 29.7663V40.9297L677.511 41.6275H700.536L701.234 42.3252V49.3023L700.536 50ZM720.064 50H711.691L710.994 49.3023V1.85784L711.691 1.16013H720.064L720.761 1.85784V49.3023L720.064 50ZM767.495 9.53268H753.54L752.843 10.2304V49.3023L752.145 50H743.772L743.075 49.3023V10.2304L742.377 9.53268H728.423L727.725 8.83497V1.85784L728.423 1.16013H767.495L768.192 1.85784V8.83497L767.495 9.53268Z" fill="#F5F5F5"/>
<path d="M34.6503 291.815C40.232 291.815 44.302 293.281 46.8603 296.211C49.4186 299.095 50.6977 302.979 50.6977 307.863C50.6977 310.654 50.2558 313.026 49.3721 314.979C48.4883 316.933 47.3487 318.515 45.9533 319.724C44.5578 320.933 42.9996 321.817 41.2786 322.375C39.5111 322.933 37.7668 323.212 36.0458 323.212L35.348 323.212L34.6503 322.515L34.6503 314.142L35.348 313.445L36.0458 313.445C37.8133 313.445 39.3017 313.049 40.5111 312.258C41.7205 311.421 42.3252 309.956 42.3252 307.863C42.3252 306.979 42.2321 306.165 42.0461 305.421C41.8135 304.63 41.4414 303.956 40.9297 303.397C40.4181 302.839 39.7204 302.397 38.8366 302.072C37.9063 301.746 36.7435 301.583 35.348 301.583L1.85784 301.583L1.16013 300.886L1.16013 292.513L1.85784 291.815L34.6503 291.815ZM50 244.352L50 250.631L49.3023 251.329L40.232 254.818L39.5343 256.213L39.5343 273.656L40.232 275.051L49.3023 278.54L50 279.238L50 285.517L49.3023 286.215L42.3252 286.215L1.85784 270.167L1.16013 269.47L1.16013 260.399L1.85784 259.702L42.3252 243.654L49.3023 243.654L50 244.352ZM13.719 264.586L13.719 265.283L30.4641 271.563L31.1618 270.865L31.1618 259.004L30.4641 258.306L13.719 264.586ZM50 185.035L50 219.921L49.3023 220.619L41.6275 220.619L40.232 219.921L10.2304 197.594L9.53268 197.594L9.53268 219.223L8.83497 219.921L1.85784 219.921L1.16013 219.223L1.16013 186.431L1.85784 185.733L9.53268 185.733L10.9281 186.431L40.9297 208.758L41.6275 208.758L41.6275 185.035L42.3252 184.338L49.3023 184.338L50 185.035ZM31.1618 136.187C37.4877 136.187 42.3252 137.862 45.6742 141.211C49.0232 144.56 50.6977 149.397 50.6977 155.723C50.6977 162.049 49.0232 166.887 45.6742 170.236C42.3252 173.585 37.4877 175.259 31.1618 175.259L1.85784 175.259L1.16013 174.562L1.16013 166.189L1.85784 165.491L31.1618 165.491C34.6503 165.491 37.3947 164.747 39.3948 163.259C41.3484 161.724 42.3252 159.212 42.3252 155.723C42.3252 152.235 41.3484 149.746 39.3948 148.258C37.3947 146.723 34.6503 145.955 31.1618 145.955L1.85784 145.955L1.16013 145.258L1.16013 136.885L1.85784 136.187L31.1618 136.187ZM15.8121 84.5758C17.7192 84.5758 19.4635 84.8549 21.0449 85.413C22.5799 85.9712 23.9521 86.7387 25.1614 87.7155C26.3243 88.6923 27.3011 89.8086 28.0918 91.0645C28.8361 92.3204 29.3942 93.646 29.7663 95.0415L30.4641 95.0415L42.3252 85.9712L49.3023 85.9712L50 86.6689L50 90.8552L49.3023 92.2506L31.1618 106.205L30.4641 107.6L30.4641 114.577L31.1618 115.275L49.3023 115.275L50 115.973L50 124.345L49.3023 125.043L1.85784 125.043L1.16013 124.345L1.16013 101.321C1.16013 98.8556 1.46247 96.5997 2.06716 94.5531C2.67184 92.5064 3.60213 90.7621 4.85801 89.3202C6.06738 87.8318 7.57909 86.6689 9.39314 85.8316C11.2072 84.9944 13.3468 84.5758 15.8121 84.5758ZM15.8121 94.3437C13.3468 94.3437 11.6956 94.9949 10.8583 96.2973C9.97456 97.5532 9.53268 99.2277 9.53268 101.321L9.53268 114.577L10.2304 115.275L21.3938 115.275L22.0915 114.577L22.0915 101.321C22.0915 99.2277 21.6729 97.5532 20.8356 96.2973C19.9519 94.9949 18.2773 94.3437 15.8121 94.3437Z" fill="#F5F5F5"/>
</svg>
