<svg width="274" height="61" viewBox="0 0 274 61" fill="none" xmlns="http://www.w3.org/2000/svg">
<path d="M82.686 14.3278H80.58V22.4818C80.58 23.4178 80.508 23.9218 80.292 24.2638C80.04 24.6778 79.572 24.8938 78.924 24.8938C78.204 24.8938 77.664 24.6058 77.412 24.0838C77.232 23.7598 77.178 23.3098 77.178 22.4458V22.1038H75.198V22.2838L75.18 22.5718C75.18 23.5258 75.324 24.3178 75.594 24.8758C76.152 26.0098 77.322 26.6218 78.978 26.6218C80.418 26.6218 81.462 26.1358 82.092 25.1998C82.542 24.5158 82.686 23.8498 82.686 22.4278V14.3278ZM86.3823 20.3398C86.5443 19.2238 87.0483 18.8278 88.3263 18.8278C89.4783 18.8278 90.1083 19.2238 90.1083 19.9618V20.1418V20.2858C90.1083 20.9158 89.8563 21.0418 88.0923 21.2578C86.0403 21.5098 85.7163 21.5998 85.0863 22.0858C84.5103 22.5178 84.2043 23.1838 84.2043 23.9938C84.2043 25.5778 85.3383 26.5858 87.1203 26.5858C88.4163 26.5858 89.3703 26.2618 90.1983 25.5418C90.3063 26.2438 90.7743 26.5858 91.6023 26.5858C91.9443 26.5858 92.2863 26.5318 92.8443 26.3878V25.0378C92.6463 25.0738 92.5563 25.0738 92.4303 25.0738C91.9803 25.0738 91.9263 24.9478 91.9263 23.8318L91.9983 19.8898C91.9983 18.2698 90.7383 17.4058 88.3803 17.4058C86.0223 17.4058 84.7443 18.3958 84.5823 20.3398H86.3823ZM90.0903 23.0218C90.0903 23.7778 90.0543 24.0118 89.9103 24.2638C89.5863 24.8218 88.6683 25.2178 87.7503 25.2178C86.7603 25.2178 86.1483 24.7138 86.1483 23.9038C86.1483 23.6158 86.2923 23.2198 86.4903 23.0218C86.7423 22.7338 87.1563 22.5898 88.0563 22.4638C89.4063 22.3018 89.6223 22.2478 90.0903 21.9958V23.0218ZM105.559 17.6398H98.4845V19.1698H102.283C102.517 19.1698 102.715 19.1698 103.147 19.1518C102.697 19.5298 102.499 19.7278 102.157 20.1058L98.1425 24.8758V26.3338H105.829V24.8038H101.689C101.473 24.8038 101.437 24.8038 100.537 24.8218C101.131 24.2278 101.257 24.1018 101.437 23.8858L105.559 18.9718V17.6398ZM114.702 17.6398H112.776V21.9058C112.776 22.8958 112.704 23.4178 112.506 23.8138C112.146 24.5518 111.462 24.9658 110.634 24.9658C110.004 24.9658 109.518 24.7498 109.248 24.3538C109.032 24.0298 108.978 23.6518 108.978 22.6078V17.6398H107.052V23.2198C107.052 24.3538 107.214 25.0198 107.61 25.5238C108.132 26.2078 108.978 26.5678 110.022 26.5678C111.264 26.5678 112.11 26.1178 112.902 25.0378V26.3338H114.702V17.6398ZM122.044 17.4598C121.882 17.4418 121.756 17.4418 121.702 17.4418C120.352 17.4418 119.434 18.0358 118.75 19.3678V17.6398H116.95V26.3338H118.876V22.8418C118.876 21.6718 118.966 21.0238 119.2 20.5558C119.578 19.7818 120.388 19.2598 121.234 19.2598C121.576 19.2598 121.738 19.2778 122.044 19.3138V17.4598ZM137.808 14.3278H135.144L130.716 18.8998C130.23 19.3858 130.14 19.4938 129.834 19.8718V14.3278H127.728V26.3338H129.834V22.2838L131.562 20.5918L135.504 26.3338H138.114L133.002 19.1158L137.808 14.3278ZM141.007 14.3278H139.081V26.3338H141.007V14.3278ZM145.191 14.3278H143.265V16.1458H145.191V14.3278ZM145.191 17.6398H143.265V26.3338H145.191V17.6398ZM149.23 17.6398H147.43V26.3338H149.356V21.6718C149.356 20.9518 149.41 20.4838 149.554 20.1418C149.86 19.4398 150.544 19.0078 151.336 19.0078C152.38 19.0078 152.776 19.5298 152.776 20.8978V26.3338H154.702V21.6718C154.702 20.8258 154.738 20.4298 154.882 20.1238C155.152 19.4218 155.8 19.0078 156.61 19.0078C157.24 19.0078 157.726 19.2598 157.942 19.6918C158.086 19.9258 158.14 20.3578 158.14 21.0058V26.3338H160.066V20.4118C160.066 19.5298 159.922 18.9898 159.598 18.5038C159.112 17.8018 158.23 17.4058 157.222 17.4058C156.016 17.4058 155.17 17.8558 154.414 18.8818C153.928 17.8738 153.172 17.4058 151.984 17.4058C150.814 17.4058 150.04 17.8018 149.23 18.8638V17.6398ZM163.796 20.3398C163.958 19.2238 164.462 18.8278 165.74 18.8278C166.892 18.8278 167.522 19.2238 167.522 19.9618V20.1418V20.2858C167.522 20.9158 167.27 21.0418 165.506 21.2578C163.454 21.5098 163.13 21.5998 162.5 22.0858C161.924 22.5178 161.618 23.1838 161.618 23.9938C161.618 25.5778 162.752 26.5858 164.534 26.5858C165.83 26.5858 166.784 26.2618 167.612 25.5418C167.72 26.2438 168.188 26.5858 169.016 26.5858C169.358 26.5858 169.7 26.5318 170.258 26.3878V25.0378C170.06 25.0738 169.97 25.0738 169.844 25.0738C169.394 25.0738 169.34 24.9478 169.34 23.8318L169.412 19.8898C169.412 18.2698 168.152 17.4058 165.794 17.4058C163.436 17.4058 162.158 18.3958 161.996 20.3398H163.796ZM167.504 23.0218C167.504 23.7778 167.468 24.0118 167.324 24.2638C167 24.8218 166.082 25.2178 165.164 25.2178C164.174 25.2178 163.562 24.7138 163.562 23.9038C163.562 23.6158 163.706 23.2198 163.904 23.0218C164.156 22.7338 164.57 22.5898 165.47 22.4638C166.82 22.3018 167.036 22.2478 167.504 21.9958V23.0218ZM179.679 17.6398H177.879V18.8638C177.195 17.8378 176.385 17.4058 175.179 17.4058C172.839 17.4058 171.291 19.2058 171.291 21.9238C171.291 24.5698 172.749 26.2438 175.053 26.2438C176.349 26.2438 177.213 25.7938 177.825 24.7858V25.8118C177.825 27.6118 177.141 28.3678 175.539 28.3678C174.315 28.3678 173.703 27.9718 173.523 27.0718H171.579C171.813 28.8538 173.109 29.7358 175.485 29.7358C177.231 29.7358 178.455 29.1958 179.103 28.1338C179.535 27.4498 179.679 26.7478 179.679 25.3258V17.6398ZM175.557 18.9358C176.943 18.9358 177.825 20.0518 177.825 21.7978C177.825 23.5798 176.925 24.7138 175.503 24.7138C174.081 24.7138 173.235 23.6338 173.235 21.7798C173.235 19.9978 174.117 18.9358 175.557 18.9358ZM187.822 23.6158C187.426 24.6958 186.832 25.1458 185.752 25.1458C184.258 25.1458 183.412 24.1918 183.34 22.4458H189.766C189.784 21.3658 189.658 20.5738 189.37 19.8718C188.74 18.3058 187.354 17.4058 185.644 17.4058C183.178 17.4058 181.432 19.3498 181.432 22.0858C181.432 24.7858 183.124 26.5678 185.716 26.5678C187.75 26.5678 189.208 25.4698 189.658 23.6158H187.822ZM183.376 21.1678C183.574 19.6378 184.348 18.8278 185.626 18.8278C186.904 18.8278 187.732 19.7098 187.858 21.1678H183.376ZM196.558 17.4598C196.396 17.4418 196.27 17.4418 196.216 17.4418C194.866 17.4418 193.948 18.0358 193.264 19.3678V17.6398H191.464V26.3338H193.39V22.8418C193.39 21.6718 193.48 21.0238 193.714 20.5558C194.092 19.7818 194.902 19.2598 195.748 19.2598C196.09 19.2598 196.252 19.2778 196.558 19.3138V17.4598ZM203.484 23.6158C203.088 24.6958 202.494 25.1458 201.414 25.1458C199.92 25.1458 199.074 24.1918 199.002 22.4458H205.428C205.446 21.3658 205.32 20.5738 205.032 19.8718C204.402 18.3058 203.016 17.4058 201.306 17.4058C198.84 17.4058 197.094 19.3498 197.094 22.0858C197.094 24.7858 198.786 26.5678 201.378 26.5678C203.412 26.5678 204.87 25.4698 205.32 23.6158H203.484ZM199.038 21.1678C199.236 19.6378 200.01 18.8278 201.288 18.8278C202.566 18.8278 203.394 19.7098 203.52 21.1678H199.038ZM212.994 23.0758C212.814 24.3358 212.058 25.0378 210.888 25.0378C209.43 25.0378 208.566 23.9038 208.566 21.9958C208.566 20.0878 209.466 18.9358 210.96 18.9358C212.022 18.9358 212.706 19.5118 212.922 20.5738H214.83C214.614 18.5758 213.174 17.4058 210.942 17.4058C208.296 17.4058 206.622 19.2238 206.622 22.0678C206.622 24.8218 208.278 26.5678 210.888 26.5678C213.12 26.5678 214.596 25.2718 214.884 23.0758H212.994ZM218.386 14.3278H216.46V26.3338H218.386V22.1758C218.386 21.0058 218.44 20.6278 218.62 20.1778C218.962 19.4398 219.628 19.0078 220.492 19.0078C221.122 19.0078 221.608 19.2058 221.896 19.6018C222.112 19.8898 222.184 20.2678 222.184 21.0598V26.3338H224.11V20.7718C224.11 19.7458 224.002 19.1518 223.714 18.6658C223.228 17.8558 222.31 17.4058 221.122 17.4058C219.898 17.4058 219.07 17.8378 218.368 18.8818C218.386 17.9638 218.386 17.9638 218.386 17.8198V14.3278ZM230.246 17.6398H228.5V15.0298H226.574V17.6398H225.115V19.0438H226.574V23.1838C226.574 24.8578 226.61 25.1998 226.844 25.5958C227.168 26.1898 227.78 26.4238 228.95 26.4238C229.436 26.4238 229.76 26.4058 230.246 26.3518V24.8398C229.976 24.8758 229.813 24.8938 229.652 24.8938C228.608 24.8938 228.5 24.7678 228.5 23.6158V19.0438H230.246V17.6398ZM233.767 14.3278H231.841V16.1458H233.767V14.3278ZM233.767 17.6398H231.841V26.3338H233.767V17.6398ZM243.927 17.6398H242.127V18.8638C241.443 17.8378 240.633 17.4058 239.427 17.4058C237.087 17.4058 235.539 19.2058 235.539 21.9238C235.539 24.5698 236.997 26.2438 239.301 26.2438C240.597 26.2438 241.461 25.7938 242.073 24.7858V25.8118C242.073 27.6118 241.389 28.3678 239.787 28.3678C238.563 28.3678 237.951 27.9718 237.771 27.0718H235.827C236.061 28.8538 237.357 29.7358 239.733 29.7358C241.479 29.7358 242.703 29.1958 243.351 28.1338C243.783 27.4498 243.927 26.7478 243.927 25.3258V17.6398ZM239.805 18.9358C241.191 18.9358 242.073 20.0518 242.073 21.7978C242.073 23.5798 241.173 24.7138 239.751 24.7138C238.329 24.7138 237.483 23.6338 237.483 21.7798C237.483 19.9978 238.365 18.9358 239.805 18.9358ZM253.942 17.6398H251.584L248.686 20.5198C248.56 20.6638 248.434 20.7898 248.092 21.1858C248.11 20.1058 248.11 20.0698 248.11 19.8718V14.3278H246.184V26.3338H248.11V23.2018L249.262 22.1218L251.908 26.3338H254.248L250.612 20.8258L253.942 17.6398ZM260.824 23.6158C260.428 24.6958 259.834 25.1458 258.754 25.1458C257.26 25.1458 256.414 24.1918 256.342 22.4458H262.768C262.786 21.3658 262.66 20.5738 262.372 19.8718C261.742 18.3058 260.356 17.4058 258.646 17.4058C256.18 17.4058 254.434 19.3498 254.434 22.0858C254.434 24.7858 256.126 26.5678 258.718 26.5678C260.752 26.5678 262.21 25.4698 262.66 23.6158H260.824ZM256.378 21.1678C256.576 19.6378 257.35 18.8278 258.628 18.8278C259.906 18.8278 260.734 19.7098 260.86 21.1678H256.378ZM266.41 14.3278H264.484V16.1458H266.41V14.3278ZM266.41 17.6398H264.484V26.3338H266.41V17.6398ZM272.591 17.6398H270.845V15.0298H268.919V17.6398H267.461V19.0438H268.919V23.1838C268.919 24.8578 268.955 25.1998 269.189 25.5958C269.513 26.1898 270.125 26.4238 271.295 26.4238C271.781 26.4238 272.105 26.4058 272.591 26.3518V24.8398C272.321 24.8758 272.159 24.8938 271.997 24.8938C270.953 24.8938 270.845 24.7678 270.845 23.6158V19.0438H272.591V17.6398Z" fill="#F5F5F5"/>
<path d="M82.686 35.3358H80.58V43.4898C80.58 44.4258 80.508 44.9298 80.292 45.2718C80.04 45.6858 79.572 45.9018 78.924 45.9018C78.204 45.9018 77.664 45.6138 77.412 45.0918C77.232 44.7678 77.178 44.3178 77.178 43.4538V43.1118H75.198V43.2918L75.18 43.5798C75.18 44.5338 75.324 45.3258 75.594 45.8838C76.152 47.0178 77.322 47.6298 78.978 47.6298C80.418 47.6298 81.462 47.1438 82.092 46.2078C82.542 45.5238 82.686 44.8578 82.686 43.4358V35.3358ZM86.3823 41.3478C86.5443 40.2318 87.0483 39.8358 88.3263 39.8358C89.4783 39.8358 90.1083 40.2318 90.1083 40.9698V41.1498V41.2938C90.1083 41.9238 89.8563 42.0498 88.0923 42.2658C86.0403 42.5178 85.7163 42.6078 85.0863 43.0938C84.5103 43.5258 84.2043 44.1918 84.2043 45.0018C84.2043 46.5858 85.3383 47.5938 87.1203 47.5938C88.4163 47.5938 89.3703 47.2698 90.1983 46.5498C90.3063 47.2518 90.7743 47.5938 91.6023 47.5938C91.9443 47.5938 92.2863 47.5398 92.8443 47.3958V46.0458C92.6463 46.0818 92.5563 46.0818 92.4303 46.0818C91.9803 46.0818 91.9263 45.9558 91.9263 44.8398L91.9983 40.8978C91.9983 39.2778 90.7383 38.4138 88.3803 38.4138C86.0223 38.4138 84.7443 39.4038 84.5823 41.3478H86.3823ZM90.0903 44.0298C90.0903 44.7858 90.0543 45.0198 89.9103 45.2718C89.5863 45.8298 88.6683 46.2258 87.7503 46.2258C86.7603 46.2258 86.1483 45.7218 86.1483 44.9118C86.1483 44.6238 86.2923 44.2278 86.4903 44.0298C86.7423 43.7418 87.1563 43.5978 88.0563 43.4718C89.4063 43.3098 89.6223 43.2558 90.0903 43.0038V44.0298ZM105.559 38.6478H98.4845V40.1778H102.283C102.517 40.1778 102.715 40.1778 103.147 40.1598C102.697 40.5378 102.499 40.7358 102.157 41.1138L98.1425 45.8838V47.3418H105.829V45.8118H101.689C101.473 45.8118 101.437 45.8118 100.537 45.8298C101.131 45.2358 101.257 45.1098 101.437 44.8938L105.559 39.9798V38.6478ZM114.702 38.6478H112.776V42.9138C112.776 43.9038 112.704 44.4258 112.506 44.8218C112.146 45.5598 111.462 45.9738 110.634 45.9738C110.004 45.9738 109.518 45.7578 109.248 45.3618C109.032 45.0378 108.978 44.6598 108.978 43.6158V38.6478H107.052V44.2278C107.052 45.3618 107.214 46.0278 107.61 46.5318C108.132 47.2158 108.978 47.5758 110.022 47.5758C111.264 47.5758 112.11 47.1258 112.902 46.0458V47.3418H114.702V38.6478ZM118.75 38.6478H116.95V47.3418H118.876V42.6798C118.876 41.9598 118.93 41.4918 119.074 41.1498C119.38 40.4478 120.064 40.0158 120.856 40.0158C121.9 40.0158 122.296 40.5378 122.296 41.9058V47.3418H124.222V42.6798C124.222 41.8338 124.258 41.4378 124.402 41.1318C124.672 40.4298 125.32 40.0158 126.13 40.0158C126.76 40.0158 127.246 40.2678 127.462 40.6998C127.606 40.9338 127.66 41.3658 127.66 42.0138V47.3418H129.586V41.4198C129.586 40.5378 129.442 39.9978 129.118 39.5118C128.632 38.8098 127.75 38.4138 126.742 38.4138C125.536 38.4138 124.69 38.8638 123.934 39.8898C123.448 38.8818 122.692 38.4138 121.504 38.4138C120.334 38.4138 119.56 38.8098 118.75 39.8718V38.6478ZM144.584 42.7518C144.332 44.7858 143.27 45.8478 141.506 45.8478C139.346 45.8478 137.96 44.1018 137.96 41.3298C137.96 40.2858 138.23 39.2058 138.68 38.4138C139.31 37.3518 140.246 36.8298 141.524 36.8298C143.108 36.8298 144.206 37.6938 144.494 39.1518H146.582C146.51 38.2518 146.15 37.4238 145.502 36.7038C144.512 35.5878 143.216 35.0478 141.56 35.0478C138.194 35.0478 135.854 37.6218 135.854 41.3298C135.854 45.1278 138.086 47.6298 141.452 47.6298C143.162 47.6298 144.44 47.0898 145.43 45.9558C146.168 45.0738 146.6 43.9758 146.672 42.7518H144.584ZM153.781 35.0478C152.071 35.0478 150.703 35.6058 149.569 36.7398C148.489 37.8378 147.931 39.4218 147.931 41.3478C147.931 45.0918 150.253 47.6298 153.691 47.6298C157.129 47.6298 159.451 45.0738 159.451 41.3298C159.451 37.6398 157.111 35.0478 153.781 35.0478ZM153.745 36.8298C155.905 36.8298 157.345 38.6298 157.345 41.3118C157.345 44.0658 155.923 45.8478 153.727 45.8478C151.477 45.8478 150.037 44.0838 150.037 41.3118C150.037 38.5578 151.477 36.8298 153.745 36.8298ZM168.932 45.6318H164.666L163.676 45.6498L163.154 45.6678C163.442 44.9658 164.252 44.2098 165.71 43.2738C166.988 42.4278 167.474 42.0498 167.924 41.5638C168.608 40.8438 168.95 39.9618 168.95 38.9718C168.95 36.8298 167.42 35.4078 165.116 35.4078C163.802 35.4078 162.722 35.8938 162.038 36.7758C161.408 37.5678 161.174 38.4498 161.174 39.8718H163.028C163.1 37.8378 163.694 37.0278 165.08 37.0278C166.268 37.0278 167.006 37.8018 167.006 39.0438C167.006 39.6198 166.808 40.1778 166.484 40.6098C166.178 40.9878 165.674 41.3658 164.396 42.2298C161.768 43.9578 160.958 45.1098 160.868 47.3418H168.932V45.6318ZM186.195 40.9518H181.047V42.5538H184.287C184.251 43.3278 184.143 43.7598 183.909 44.2278C183.369 45.2898 182.325 45.8658 181.011 45.8658C178.653 45.8658 177.195 44.1558 177.195 41.4018C177.195 38.5938 178.635 36.8298 180.957 36.8298C182.595 36.8298 183.747 37.7118 183.999 39.1518H186.051C185.817 36.7218 183.747 35.0478 180.975 35.0478C177.483 35.0478 175.089 37.6398 175.089 41.4378C175.089 45.1098 177.411 47.6298 180.795 47.6298C182.397 47.6298 183.567 47.0898 184.521 45.9198L184.845 47.3418H186.195V40.9518ZM194.238 44.6238C193.842 45.7038 193.248 46.1538 192.168 46.1538C190.674 46.1538 189.828 45.1998 189.756 43.4538H196.182C196.2 42.3738 196.074 41.5818 195.786 40.8798C195.156 39.3138 193.77 38.4138 192.06 38.4138C189.594 38.4138 187.848 40.3578 187.848 43.0938C187.848 45.7938 189.54 47.5758 192.132 47.5758C194.166 47.5758 195.624 46.4778 196.074 44.6238H194.238ZM189.792 42.1758C189.99 40.6458 190.764 39.8358 192.042 39.8358C193.32 39.8358 194.148 40.7178 194.274 42.1758H189.792ZM204.504 41.1678C204.432 40.3578 204.27 39.9258 203.892 39.4758C203.28 38.7738 202.254 38.4138 200.868 38.4138C198.636 38.4138 197.322 39.3678 197.322 40.9878C197.322 41.7978 197.7 42.4818 198.366 42.8418C198.87 43.1298 199.122 43.2018 200.85 43.6158C202.524 43.9938 202.938 44.2638 202.938 44.9118C202.938 45.6678 202.2 46.1538 201.066 46.1538C199.734 46.1538 199.086 45.6678 198.96 44.5518H197.124C197.232 46.5498 198.546 47.5758 201.03 47.5758C203.37 47.5758 204.828 46.4778 204.828 44.7318C204.828 44.0118 204.504 43.3458 203.964 42.9678C203.424 42.5898 202.74 42.3378 201.444 42.0678C199.572 41.6718 199.23 41.4738 199.23 40.8258C199.23 40.1958 199.806 39.8178 200.796 39.8178C201.984 39.8178 202.542 40.2138 202.668 41.1678H204.504ZM212.414 44.6238C212.018 45.7038 211.424 46.1538 210.344 46.1538C208.85 46.1538 208.004 45.1998 207.932 43.4538H214.358C214.376 42.3738 214.25 41.5818 213.962 40.8798C213.332 39.3138 211.946 38.4138 210.236 38.4138C207.77 38.4138 206.024 40.3578 206.024 43.0938C206.024 45.7938 207.716 47.5758 210.308 47.5758C212.342 47.5758 213.8 46.4778 214.25 44.6238H212.414ZM207.968 42.1758C208.166 40.6458 208.94 39.8358 210.218 39.8358C211.496 39.8358 212.324 40.7178 212.45 42.1758H207.968ZM219.927 38.6478H218.181V36.0378H216.255V38.6478H214.797V40.0518H216.255V44.1918C216.255 45.8658 216.291 46.2078 216.525 46.6038C216.849 47.1978 217.461 47.4318 218.631 47.4318C219.117 47.4318 219.441 47.4138 219.927 47.3598V45.8478C219.657 45.8838 219.495 45.9018 219.333 45.9018C218.289 45.9018 218.181 45.7758 218.181 44.6238V40.0518H219.927V38.6478ZM228.219 38.6478H221.145V40.1778H224.943C225.177 40.1778 225.375 40.1778 225.807 40.1598C225.357 40.5378 225.159 40.7358 224.817 41.1138L220.803 45.8838V47.3418H228.489V45.8118H224.349C224.133 45.8118 224.097 45.8118 223.197 45.8298C223.791 45.2358 223.917 45.1098 224.097 44.8938L228.219 39.9798V38.6478Z" fill="#F5F5F5"/>
<path d="M40.7486 0C40.8094 0 40.8711 0.000778771 40.932 0.00380732C40.9894 0.0054514 41.0477 0.00969137 41.1052 0.013066C41.2125 0.0206807 41.3181 0.0325353 41.4238 0.0451687C41.477 0.0536487 41.5294 0.0586674 41.5818 0.0680127C41.7102 0.089126 41.8353 0.115345 41.9604 0.144851C41.9815 0.150822 42.0043 0.153331 42.0263 0.159302C42.0305 0.160081 42.0347 0.162677 42.0381 0.162677C42.1902 0.202394 42.3389 0.249639 42.4851 0.302077C42.5274 0.318085 42.5679 0.335045 42.6093 0.351918C42.7141 0.392501 42.8172 0.437237 42.9186 0.484569C42.9414 0.494693 42.9659 0.504038 42.9896 0.514162C43.0521 0.546265 43.1138 0.577502 43.1755 0.611335C46.8395 2.60386 50.5027 4.59812 54.1667 6.58987C54.0831 6.54427 53.9951 6.50369 53.9081 6.46224C53.903 6.45973 53.8971 6.458 53.8921 6.45636C55.7469 7.32252 57.0051 9.29221 57 11.7428L56.9324 48.1987C56.9257 51.8103 54.1861 55.1464 50.8398 55.6163L17.0635 60.3628C16.7991 60.3999 16.5388 60.4185 16.2827 60.4185C15.3629 60.4185 14.5064 60.1836 13.762 59.7636C13.7823 59.7755 13.8017 59.7915 13.8237 59.8033C10.1597 57.8099 6.49653 55.8174 2.83253 53.824C1.12981 52.8978 -0.0050528 51.0041 1.69166e-05 48.6761L0.0676186 12.2202C0.0676186 11.9971 0.079449 11.7741 0.100574 11.5535C0.107334 11.4758 0.122545 11.3997 0.13184 11.3219C0.15043 11.18 0.165641 11.0372 0.192681 10.8969C0.209582 10.8074 0.233242 10.7203 0.253523 10.6316C0.281408 10.5057 0.307605 10.3781 0.341405 10.2539C0.366756 10.1618 0.400557 10.0722 0.429288 9.98177C0.463088 9.87196 0.495199 9.7612 0.53407 9.65304C0.53745 9.64465 0.541675 9.63617 0.545055 9.62604C0.563645 9.5762 0.586461 9.528 0.605052 9.47816C0.661668 9.3353 0.719974 9.19426 0.784196 9.05564C0.815462 8.98806 0.850108 8.92212 0.882217 8.85618C0.921087 8.77935 0.955733 8.70069 0.996299 8.62636C1.01235 8.5985 1.0301 8.57401 1.04615 8.54606C1.18051 8.30023 1.3267 8.06106 1.48557 7.83288C1.48894 7.82699 1.49232 7.82189 1.49571 7.81687C1.51176 7.79316 1.53119 7.77378 1.54725 7.75007C1.68414 7.56083 1.82864 7.37661 1.98074 7.2C2.00441 7.17378 2.02384 7.14254 2.0475 7.11546C2.07623 7.08422 2.10919 7.05636 2.13792 7.02503C2.27819 6.8704 2.42522 6.72252 2.57733 6.58053C2.61028 6.54929 2.63986 6.51468 2.67197 6.48422C2.6855 6.4741 2.69901 6.46484 2.71084 6.45385C2.91872 6.27049 3.1342 6.10063 3.35813 5.94176C3.37672 5.92904 3.39362 5.91217 3.41221 5.89945C3.48995 5.84537 3.57277 5.79726 3.65389 5.74742C3.71811 5.70597 3.78064 5.66374 3.84486 5.62489C3.97331 5.54961 4.10428 5.48116 4.23695 5.41445C4.28343 5.3916 4.32991 5.36374 4.37722 5.34176C4.38567 5.33752 4.39243 5.33328 4.40089 5.32913C4.56313 5.25307 4.72875 5.1854 4.89776 5.12293C4.9417 5.10683 4.98817 5.0916 5.0338 5.07646C5.17154 5.02826 5.31097 4.98604 5.45209 4.94796C5.50363 4.93447 5.55518 4.91924 5.60757 4.90825C5.7901 4.86351 5.976 4.82544 6.1636 4.79844L39.9408 0.0511395C40.1089 0.0274302 40.2745 0.0139315 40.4393 0.00545157C40.4917 0.0029422 40.5441 0.0029422 40.5973 0.0020769C40.6481 0.000778771 40.6979 0 40.7486 0ZM40.7486 2.82997L40.6793 2.83083L40.6557 2.83161L40.5915 2.83248C40.5027 2.83585 40.419 2.84174 40.3346 2.85359L6.55738 7.60089C6.47119 7.61361 6.37569 7.63386 6.28148 7.65714L6.23542 7.66813L6.2312 7.66899L6.17289 7.68457C6.11374 7.70066 6.04065 7.72221 5.96882 7.74756L5.9477 7.75517L5.90671 7.76867L5.86234 7.78347C5.79643 7.80796 5.71827 7.83885 5.64011 7.87433C5.5818 7.90556 5.53152 7.93178 5.48209 7.95584C5.43604 7.97911 5.37012 8.01286 5.30252 8.05093L5.25901 8.07923L5.18844 8.12526L5.1631 8.1417L5.13732 8.15737L5.06423 8.20219L5.04733 8.21231C5.01606 8.2355 4.98437 8.25791 4.95268 8.27989C4.96704 8.2702 4.98142 8.26008 4.99578 8.24987C4.85255 8.35128 4.72114 8.45529 4.59397 8.56639C4.56989 8.59045 4.54581 8.61407 4.5213 8.63692C4.41398 8.7379 4.32145 8.83005 4.234 8.92679C4.20991 8.95292 4.18667 8.9775 4.16428 9.00069C4.14823 9.01973 4.13259 9.03833 4.11653 9.05693C4.02358 9.16553 3.93063 9.28382 3.84021 9.40885L3.78824 9.48067L3.77979 9.49123C3.69445 9.61713 3.61036 9.75532 3.52967 9.90276L3.51404 9.93193L3.49713 9.96065C3.48573 9.9809 3.4739 10.0008 3.46207 10.0202L3.4084 10.1322L3.37503 10.199L3.35137 10.2467C3.31208 10.3316 3.27616 10.4195 3.2411 10.5082C3.22377 10.5522 3.20603 10.5961 3.18785 10.6397C3.1773 10.6713 3.16757 10.7047 3.15744 10.738L3.13462 10.8129L3.07673 10.9895L3.06068 11.0372C3.0573 11.0515 3.04674 11.1065 3.0349 11.161L3.01674 11.2425L2.9821 11.3904L2.96942 11.4424C2.96308 11.48 2.95844 11.5294 2.9521 11.5789L2.93773 11.6904C2.93435 11.7204 2.92548 11.7825 2.91576 11.845L2.91998 11.7999C2.90436 11.9621 2.89759 12.096 2.89759 12.2202L2.82999 48.6811C2.82746 49.8819 3.33405 50.8749 4.18456 51.338L9.42366 54.1882L15.1495 57.3029L15.152 57.2987C15.4931 57.4905 15.8733 57.5877 16.2827 57.5877C16.4082 57.5877 16.5379 57.5784 16.6685 57.5607L50.446 52.8133C52.3904 52.5412 54.0982 50.3822 54.1024 48.1936L54.17 11.7377C54.1726 10.4875 53.6072 9.44684 52.6947 9.02059C52.7276 9.03617 52.7605 9.05053 52.7935 9.06455L46.4161 5.59573L41.8235 3.09743L41.788 3.07883C41.7813 3.07589 41.7744 3.07286 41.7677 3.06992L41.7449 3.05979L41.7221 3.04923C41.6781 3.02855 41.6334 3.00865 41.5877 2.99091L41.5615 2.98079L41.5134 2.96132C41.4703 2.94488 41.4144 2.92628 41.3561 2.90983L41.3097 2.89928C41.248 2.88448 41.1864 2.8709 41.1221 2.86034L41.139 2.86294L41.0714 2.85316C41.0165 2.84684 40.9624 2.84009 40.9066 2.83628L40.8424 2.83248L40.7486 2.82997Z" fill="#F5F5F5"/>
<path d="M14.7279 36.6033C10.6929 36.6033 8.87695 34.5854 8.87695 31.9633L9.07891 31.7613H11.4999L11.7018 31.9633C11.7018 33.3754 12.508 34.1823 14.9298 34.1823C16.745 34.1823 17.7539 33.5773 17.7539 32.3664C17.7539 30.9543 16.9469 30.5504 14.122 30.1474C11.2979 29.7434 9.07891 28.7354 9.07891 25.9104C9.07891 23.8934 10.6929 22.0774 14.5259 22.0774C18.3589 22.0774 19.9729 23.8934 19.9729 26.3135L19.7718 26.5154H17.35L17.1489 26.3135C17.1489 25.1034 16.5438 24.4984 14.3239 24.4984C12.508 24.4984 11.903 25.1034 11.903 25.9104C11.903 27.1213 12.71 27.5245 15.5348 27.9275C18.3589 28.3314 20.578 29.5415 20.578 32.3664C20.578 34.5854 18.9639 36.6033 14.7279 36.6033Z" fill="#F5F5F5"/>
<path d="M29.2521 30.7524H25.4191L25.2171 30.9543V36.1994L25.0152 36.4013H22.5942L22.3931 36.1994V22.4805L22.5942 22.2794H29.2521C32.077 22.2794 34.0941 23.6914 34.0941 26.5154C34.0941 29.3404 32.077 30.7524 29.2521 30.7524ZM29.2521 24.6995H25.4191L25.2171 24.9015V28.1295L25.4191 28.3314H29.2521C30.463 28.3314 31.2692 27.9275 31.2692 26.5154C31.2692 25.1034 30.463 24.6995 29.2521 24.6995Z" fill="#F5F5F5"/>
</svg>
