<svg width="274" height="60" viewBox="0 0 274 60" fill="none" xmlns="http://www.w3.org/2000/svg">
<path d="M53.5173 6.41262C53.5241 6.41523 53.5292 6.41688 53.5326 6.41775C53.6209 6.45935 53.706 6.49929 53.7909 6.54524C50.1518 4.56672 46.5128 2.58654 42.8754 0.608105C42.8142 0.574078 42.753 0.543532 42.6901 0.512116C42.668 0.501063 42.6425 0.492535 42.6204 0.482353C42.5184 0.43562 42.4164 0.390541 42.3128 0.349726C42.2719 0.332756 42.2311 0.31657 42.1904 0.30134C42.0459 0.248603 41.8963 0.20187 41.7451 0.161925C41.7433 0.161925 41.7382 0.159402 41.7348 0.159402C41.7127 0.152614 41.689 0.150003 41.6686 0.145826C41.5445 0.115193 41.4204 0.0896942 41.2929 0.0693302C41.2419 0.0599315 41.1893 0.0540138 41.1365 0.0454853C41.0311 0.0335628 40.9257 0.0217273 40.8187 0.0131988C40.7626 0.0106751 40.7048 0.00554057 40.6487 0.00467031C40.5382 -0.00124742 40.426 -0.00124742 40.3156 0.00301683C40.2629 0.00388709 40.2119 0.00388708 40.1592 0.00554057C39.9943 0.0140691 39.8295 0.0285153 39.6646 0.0522732L6.12069 4.76644C5.93373 4.79281 5.75015 4.83023 5.56658 4.87435C5.51559 4.88628 5.4663 4.89985 5.41532 4.9143C5.27424 4.95259 5.13656 4.99419 4.99888 5.04179C4.95299 5.05798 4.9071 5.07242 4.8629 5.08774C4.69633 5.15057 4.53146 5.21863 4.36998 5.29338C4.36149 5.29678 4.35469 5.30104 4.34619 5.30609C4.2986 5.32741 4.25271 5.35543 4.20681 5.37841C4.07593 5.44376 3.94506 5.5126 3.81758 5.58744C3.75469 5.62564 3.6918 5.66646 3.62891 5.70727C3.54732 5.7574 3.46574 5.805 3.38755 5.85852C3.37056 5.8721 3.35356 5.88994 3.33486 5.90099C3.1122 6.05825 2.89803 6.22908 2.69237 6.40922C2.68047 6.42114 2.66687 6.43046 2.65328 6.43985C2.62098 6.4704 2.59209 6.5053 2.55979 6.53671C2.40852 6.67691 2.26234 6.82399 2.12296 6.97698C2.09407 7.00752 2.06177 7.03554 2.03288 7.06792C2.01078 7.0942 1.99039 7.12483 1.96659 7.15198C1.81532 7.32708 1.67254 7.50896 1.53656 7.69763C1.52127 7.72061 1.50087 7.74097 1.48557 7.76395C1.48047 7.76812 1.47877 7.77413 1.47537 7.77918C1.3173 8.00614 1.17282 8.24494 1.03854 8.48713C1.02325 8.51515 1.00455 8.53987 0.989253 8.56702C0.950161 8.64099 0.914463 8.71914 0.877068 8.7965C0.843076 8.86195 0.809082 8.92739 0.778487 8.99362C0.715598 9.13216 0.656107 9.27071 0.601716 9.41352C0.58132 9.46277 0.559224 9.51037 0.540527 9.55963C0.537128 9.57068 0.533728 9.57834 0.530329 9.58687C0.491235 9.69478 0.458941 9.80356 0.424946 9.91321C0.396051 10.0033 0.363757 10.0917 0.338261 10.1843C0.305967 10.3075 0.280471 10.4333 0.249875 10.5591C0.231179 10.6474 0.207382 10.7341 0.190385 10.8225C0.16489 10.962 0.147893 11.1039 0.130896 11.2441C0.120697 11.3206 0.107099 11.3979 0.0986005 11.4736C0.0782044 11.6937 0.0680059 11.9146 0.0663063 12.1365L1.7231e-05 48.3396C-0.00508159 50.6511 1.12183 52.5327 2.81305 53.4506C6.45044 55.4307 10.0896 57.4092 13.7286 59.3894C13.7048 59.3775 13.6862 59.3622 13.6657 59.3503C14.6125 59.8823 15.7377 60.1152 16.9445 59.9452L50.4867 55.2319C53.8079 54.7645 56.5309 51.4517 56.5377 47.8653L56.604 11.663C56.609 9.22824 55.3598 7.27269 53.5173 6.41262Z" fill="#E72B34"/>
<path d="M14.6269 36.3497C10.6189 36.3497 8.81558 34.3458 8.81558 31.7409L9.01617 31.5404H11.4203L11.6209 31.7409C11.6209 33.1432 12.4223 33.9446 14.8275 33.9446C16.6309 33.9446 17.6328 33.3438 17.6328 32.1413C17.6328 30.739 16.8305 30.3378 14.0252 29.9376C11.2198 29.5364 9.01617 28.5341 9.01617 25.7286C9.01617 23.7255 10.6189 21.9221 14.4263 21.9221C18.2336 21.9221 19.8365 23.7255 19.8365 26.1298L19.636 26.3303H17.2317L17.0311 26.1298C17.0311 24.9272 16.4303 24.3264 14.2258 24.3264C12.4223 24.3264 11.8215 24.9272 11.8215 25.7286C11.8215 26.9312 12.6229 27.3323 15.4283 27.7326C18.2336 28.1337 20.4374 29.3358 20.4374 32.1413C20.4374 34.3458 18.8346 36.3497 14.6269 36.3497Z" fill="#F5F5F5"/>
<path d="M29.0506 30.5384H25.2432L25.0427 30.739V35.9486L24.8421 36.1491H22.4379L22.2373 35.9486V22.3224L22.4379 22.1218H29.0506C31.856 22.1218 33.86 23.525 33.86 26.3303C33.86 29.1362 31.856 30.5384 29.0506 30.5384ZM29.0506 24.527H25.2432L25.0427 24.7267V27.9331L25.2432 28.1337H29.0506C30.2532 28.1337 31.0546 27.7326 31.0546 26.3303C31.0546 24.9272 30.2532 24.527 29.0506 24.527Z" fill="#F5F5F5"/>
<path d="M82.686 13.994H80.58V22.148C80.58 23.084 80.508 23.588 80.292 23.93C80.04 24.344 79.572 24.56 78.924 24.56C78.204 24.56 77.664 24.272 77.412 23.75C77.232 23.426 77.178 22.976 77.178 22.112V21.77H75.198V21.95L75.18 22.238C75.18 23.192 75.324 23.984 75.594 24.542C76.152 25.676 77.322 26.288 78.978 26.288C80.418 26.288 81.462 25.802 82.092 24.866C82.542 24.182 82.686 23.516 82.686 22.094V13.994ZM86.3823 20.006C86.5443 18.89 87.0483 18.494 88.3263 18.494C89.4783 18.494 90.1083 18.89 90.1083 19.628V19.808V19.952C90.1083 20.582 89.8563 20.708 88.0923 20.924C86.0403 21.176 85.7163 21.266 85.0863 21.752C84.5103 22.184 84.2043 22.85 84.2043 23.66C84.2043 25.244 85.3383 26.252 87.1203 26.252C88.4163 26.252 89.3703 25.928 90.1983 25.208C90.3063 25.91 90.7743 26.252 91.6023 26.252C91.9443 26.252 92.2863 26.198 92.8443 26.054V24.704C92.6463 24.74 92.5563 24.74 92.4303 24.74C91.9803 24.74 91.9263 24.614 91.9263 23.498L91.9983 19.556C91.9983 17.936 90.7383 17.072 88.3803 17.072C86.0223 17.072 84.7443 18.062 84.5823 20.006H86.3823ZM90.0903 22.688C90.0903 23.444 90.0543 23.678 89.9103 23.93C89.5863 24.488 88.6683 24.884 87.7503 24.884C86.7603 24.884 86.1483 24.38 86.1483 23.57C86.1483 23.282 86.2923 22.886 86.4903 22.688C86.7423 22.4 87.1563 22.256 88.0563 22.13C89.4063 21.968 89.6223 21.914 90.0903 21.662V22.688ZM105.559 17.306H98.4845V18.836H102.283C102.517 18.836 102.715 18.836 103.147 18.818C102.697 19.196 102.499 19.394 102.157 19.772L98.1425 24.542V26H105.829V24.47H101.689C101.473 24.47 101.437 24.47 100.537 24.488C101.131 23.894 101.257 23.768 101.437 23.552L105.559 18.638V17.306ZM114.702 17.306H112.776V21.572C112.776 22.562 112.704 23.084 112.506 23.48C112.146 24.218 111.462 24.632 110.634 24.632C110.004 24.632 109.518 24.416 109.248 24.02C109.032 23.696 108.978 23.318 108.978 22.274V17.306H107.052V22.886C107.052 24.02 107.214 24.686 107.61 25.19C108.132 25.874 108.978 26.234 110.022 26.234C111.264 26.234 112.11 25.784 112.902 24.704V26H114.702V17.306ZM122.044 17.126C121.882 17.108 121.756 17.108 121.702 17.108C120.352 17.108 119.434 17.702 118.75 19.034V17.306H116.95V26H118.876V22.508C118.876 21.338 118.966 20.69 119.2 20.222C119.578 19.448 120.388 18.926 121.234 18.926C121.576 18.926 121.738 18.944 122.044 18.98V17.126ZM137.808 13.994H135.144L130.716 18.566C130.23 19.052 130.14 19.16 129.834 19.538V13.994H127.728V26H129.834V21.95L131.562 20.258L135.504 26H138.114L133.002 18.782L137.808 13.994ZM141.007 13.994H139.081V26H141.007V13.994ZM145.191 13.994H143.265V15.812H145.191V13.994ZM145.191 17.306H143.265V26H145.191V17.306ZM149.23 17.306H147.43V26H149.356V21.338C149.356 20.618 149.41 20.15 149.554 19.808C149.86 19.106 150.544 18.674 151.336 18.674C152.38 18.674 152.776 19.196 152.776 20.564V26H154.702V21.338C154.702 20.492 154.738 20.096 154.882 19.79C155.152 19.088 155.8 18.674 156.61 18.674C157.24 18.674 157.726 18.926 157.942 19.358C158.086 19.592 158.14 20.024 158.14 20.672V26H160.066V20.078C160.066 19.196 159.922 18.656 159.598 18.17C159.112 17.468 158.23 17.072 157.222 17.072C156.016 17.072 155.17 17.522 154.414 18.548C153.928 17.54 153.172 17.072 151.984 17.072C150.814 17.072 150.04 17.468 149.23 18.53V17.306ZM163.796 20.006C163.958 18.89 164.462 18.494 165.74 18.494C166.892 18.494 167.522 18.89 167.522 19.628V19.808V19.952C167.522 20.582 167.27 20.708 165.506 20.924C163.454 21.176 163.13 21.266 162.5 21.752C161.924 22.184 161.618 22.85 161.618 23.66C161.618 25.244 162.752 26.252 164.534 26.252C165.83 26.252 166.784 25.928 167.612 25.208C167.72 25.91 168.188 26.252 169.016 26.252C169.358 26.252 169.7 26.198 170.258 26.054V24.704C170.06 24.74 169.97 24.74 169.844 24.74C169.394 24.74 169.34 24.614 169.34 23.498L169.412 19.556C169.412 17.936 168.152 17.072 165.794 17.072C163.436 17.072 162.158 18.062 161.996 20.006H163.796ZM167.504 22.688C167.504 23.444 167.468 23.678 167.324 23.93C167 24.488 166.082 24.884 165.164 24.884C164.174 24.884 163.562 24.38 163.562 23.57C163.562 23.282 163.706 22.886 163.904 22.688C164.156 22.4 164.57 22.256 165.47 22.13C166.82 21.968 167.036 21.914 167.504 21.662V22.688ZM179.679 17.306H177.879V18.53C177.195 17.504 176.385 17.072 175.179 17.072C172.839 17.072 171.291 18.872 171.291 21.59C171.291 24.236 172.749 25.91 175.053 25.91C176.349 25.91 177.213 25.46 177.825 24.452V25.478C177.825 27.278 177.141 28.034 175.539 28.034C174.315 28.034 173.703 27.638 173.523 26.738H171.579C171.813 28.52 173.109 29.402 175.485 29.402C177.231 29.402 178.455 28.862 179.103 27.8C179.535 27.116 179.679 26.414 179.679 24.992V17.306ZM175.557 18.602C176.943 18.602 177.825 19.718 177.825 21.464C177.825 23.246 176.925 24.38 175.503 24.38C174.081 24.38 173.235 23.3 173.235 21.446C173.235 19.664 174.117 18.602 175.557 18.602ZM187.822 23.282C187.426 24.362 186.832 24.812 185.752 24.812C184.258 24.812 183.412 23.858 183.34 22.112H189.766C189.784 21.032 189.658 20.24 189.37 19.538C188.74 17.972 187.354 17.072 185.644 17.072C183.178 17.072 181.432 19.016 181.432 21.752C181.432 24.452 183.124 26.234 185.716 26.234C187.75 26.234 189.208 25.136 189.658 23.282H187.822ZM183.376 20.834C183.574 19.304 184.348 18.494 185.626 18.494C186.904 18.494 187.732 19.376 187.858 20.834H183.376ZM196.558 17.126C196.396 17.108 196.27 17.108 196.216 17.108C194.866 17.108 193.948 17.702 193.264 19.034V17.306H191.464V26H193.39V22.508C193.39 21.338 193.48 20.69 193.714 20.222C194.092 19.448 194.902 18.926 195.748 18.926C196.09 18.926 196.252 18.944 196.558 18.98V17.126ZM203.484 23.282C203.088 24.362 202.494 24.812 201.414 24.812C199.92 24.812 199.074 23.858 199.002 22.112H205.428C205.446 21.032 205.32 20.24 205.032 19.538C204.402 17.972 203.016 17.072 201.306 17.072C198.84 17.072 197.094 19.016 197.094 21.752C197.094 24.452 198.786 26.234 201.378 26.234C203.412 26.234 204.87 25.136 205.32 23.282H203.484ZM199.038 20.834C199.236 19.304 200.01 18.494 201.288 18.494C202.566 18.494 203.394 19.376 203.52 20.834H199.038ZM212.994 22.742C212.814 24.002 212.058 24.704 210.888 24.704C209.43 24.704 208.566 23.57 208.566 21.662C208.566 19.754 209.466 18.602 210.96 18.602C212.022 18.602 212.706 19.178 212.922 20.24H214.83C214.614 18.242 213.174 17.072 210.942 17.072C208.296 17.072 206.622 18.89 206.622 21.734C206.622 24.488 208.278 26.234 210.888 26.234C213.12 26.234 214.596 24.938 214.884 22.742H212.994ZM218.386 13.994H216.46V26H218.386V21.842C218.386 20.672 218.44 20.294 218.62 19.844C218.962 19.106 219.628 18.674 220.492 18.674C221.122 18.674 221.608 18.872 221.896 19.268C222.112 19.556 222.184 19.934 222.184 20.726V26H224.11V20.438C224.11 19.412 224.002 18.818 223.714 18.332C223.228 17.522 222.31 17.072 221.122 17.072C219.898 17.072 219.07 17.504 218.368 18.548C218.386 17.63 218.386 17.63 218.386 17.486V13.994ZM230.246 17.306H228.5V14.696H226.574V17.306H225.115V18.71H226.574V22.85C226.574 24.524 226.61 24.866 226.844 25.262C227.168 25.856 227.78 26.09 228.95 26.09C229.436 26.09 229.76 26.072 230.246 26.018V24.506C229.976 24.542 229.813 24.56 229.652 24.56C228.608 24.56 228.5 24.434 228.5 23.282V18.71H230.246V17.306ZM233.767 13.994H231.841V15.812H233.767V13.994ZM233.767 17.306H231.841V26H233.767V17.306ZM243.927 17.306H242.127V18.53C241.443 17.504 240.633 17.072 239.427 17.072C237.087 17.072 235.539 18.872 235.539 21.59C235.539 24.236 236.997 25.91 239.301 25.91C240.597 25.91 241.461 25.46 242.073 24.452V25.478C242.073 27.278 241.389 28.034 239.787 28.034C238.563 28.034 237.951 27.638 237.771 26.738H235.827C236.061 28.52 237.357 29.402 239.733 29.402C241.479 29.402 242.703 28.862 243.351 27.8C243.783 27.116 243.927 26.414 243.927 24.992V17.306ZM239.805 18.602C241.191 18.602 242.073 19.718 242.073 21.464C242.073 23.246 241.173 24.38 239.751 24.38C238.329 24.38 237.483 23.3 237.483 21.446C237.483 19.664 238.365 18.602 239.805 18.602ZM253.942 17.306H251.584L248.686 20.186C248.56 20.33 248.434 20.456 248.092 20.852C248.11 19.772 248.11 19.736 248.11 19.538V13.994H246.184V26H248.11V22.868L249.262 21.788L251.908 26H254.248L250.612 20.492L253.942 17.306ZM260.824 23.282C260.428 24.362 259.834 24.812 258.754 24.812C257.26 24.812 256.414 23.858 256.342 22.112H262.768C262.786 21.032 262.66 20.24 262.372 19.538C261.742 17.972 260.356 17.072 258.646 17.072C256.18 17.072 254.434 19.016 254.434 21.752C254.434 24.452 256.126 26.234 258.718 26.234C260.752 26.234 262.21 25.136 262.66 23.282H260.824ZM256.378 20.834C256.576 19.304 257.35 18.494 258.628 18.494C259.906 18.494 260.734 19.376 260.86 20.834H256.378ZM266.41 13.994H264.484V15.812H266.41V13.994ZM266.41 17.306H264.484V26H266.41V17.306ZM272.591 17.306H270.845V14.696H268.919V17.306H267.461V18.71H268.919V22.85C268.919 24.524 268.955 24.866 269.189 25.262C269.513 25.856 270.125 26.09 271.295 26.09C271.781 26.09 272.105 26.072 272.591 26.018V24.506C272.321 24.542 272.159 24.56 271.997 24.56C270.953 24.56 270.845 24.434 270.845 23.282V18.71H272.591V17.306Z" fill="#232323"/>
<path d="M82.686 34.994H80.58V43.148C80.58 44.084 80.508 44.588 80.292 44.93C80.04 45.344 79.572 45.56 78.924 45.56C78.204 45.56 77.664 45.272 77.412 44.75C77.232 44.426 77.178 43.976 77.178 43.112V42.77H75.198V42.95L75.18 43.238C75.18 44.192 75.324 44.984 75.594 45.542C76.152 46.676 77.322 47.288 78.978 47.288C80.418 47.288 81.462 46.802 82.092 45.866C82.542 45.182 82.686 44.516 82.686 43.094V34.994ZM86.3823 41.006C86.5443 39.89 87.0483 39.494 88.3263 39.494C89.4783 39.494 90.1083 39.89 90.1083 40.628V40.808V40.952C90.1083 41.582 89.8563 41.708 88.0923 41.924C86.0403 42.176 85.7163 42.266 85.0863 42.752C84.5103 43.184 84.2043 43.85 84.2043 44.66C84.2043 46.244 85.3383 47.252 87.1203 47.252C88.4163 47.252 89.3703 46.928 90.1983 46.208C90.3063 46.91 90.7743 47.252 91.6023 47.252C91.9443 47.252 92.2863 47.198 92.8443 47.054V45.704C92.6463 45.74 92.5563 45.74 92.4303 45.74C91.9803 45.74 91.9263 45.614 91.9263 44.498L91.9983 40.556C91.9983 38.936 90.7383 38.072 88.3803 38.072C86.0223 38.072 84.7443 39.062 84.5823 41.006H86.3823ZM90.0903 43.688C90.0903 44.444 90.0543 44.678 89.9103 44.93C89.5863 45.488 88.6683 45.884 87.7503 45.884C86.7603 45.884 86.1483 45.38 86.1483 44.57C86.1483 44.282 86.2923 43.886 86.4903 43.688C86.7423 43.4 87.1563 43.256 88.0563 43.13C89.4063 42.968 89.6223 42.914 90.0903 42.662V43.688ZM105.559 38.306H98.4845V39.836H102.283C102.517 39.836 102.715 39.836 103.147 39.818C102.697 40.196 102.499 40.394 102.157 40.772L98.1425 45.542V47H105.829V45.47H101.689C101.473 45.47 101.437 45.47 100.537 45.488C101.131 44.894 101.257 44.768 101.437 44.552L105.559 39.638V38.306ZM114.702 38.306H112.776V42.572C112.776 43.562 112.704 44.084 112.506 44.48C112.146 45.218 111.462 45.632 110.634 45.632C110.004 45.632 109.518 45.416 109.248 45.02C109.032 44.696 108.978 44.318 108.978 43.274V38.306H107.052V43.886C107.052 45.02 107.214 45.686 107.61 46.19C108.132 46.874 108.978 47.234 110.022 47.234C111.264 47.234 112.11 46.784 112.902 45.704V47H114.702V38.306ZM118.75 38.306H116.95V47H118.876V42.338C118.876 41.618 118.93 41.15 119.074 40.808C119.38 40.106 120.064 39.674 120.856 39.674C121.9 39.674 122.296 40.196 122.296 41.564V47H124.222V42.338C124.222 41.492 124.258 41.096 124.402 40.79C124.672 40.088 125.32 39.674 126.13 39.674C126.76 39.674 127.246 39.926 127.462 40.358C127.606 40.592 127.66 41.024 127.66 41.672V47H129.586V41.078C129.586 40.196 129.442 39.656 129.118 39.17C128.632 38.468 127.75 38.072 126.742 38.072C125.536 38.072 124.69 38.522 123.934 39.548C123.448 38.54 122.692 38.072 121.504 38.072C120.334 38.072 119.56 38.468 118.75 39.53V38.306ZM144.584 42.41C144.332 44.444 143.27 45.506 141.506 45.506C139.346 45.506 137.96 43.76 137.96 40.988C137.96 39.944 138.23 38.864 138.68 38.072C139.31 37.01 140.246 36.488 141.524 36.488C143.108 36.488 144.206 37.352 144.494 38.81H146.582C146.51 37.91 146.15 37.082 145.502 36.362C144.512 35.246 143.216 34.706 141.56 34.706C138.194 34.706 135.854 37.28 135.854 40.988C135.854 44.786 138.086 47.288 141.452 47.288C143.162 47.288 144.44 46.748 145.43 45.614C146.168 44.732 146.6 43.634 146.672 42.41H144.584ZM153.781 34.706C152.071 34.706 150.703 35.264 149.569 36.398C148.489 37.496 147.931 39.08 147.931 41.006C147.931 44.75 150.253 47.288 153.691 47.288C157.129 47.288 159.451 44.732 159.451 40.988C159.451 37.298 157.111 34.706 153.781 34.706ZM153.745 36.488C155.905 36.488 157.345 38.288 157.345 40.97C157.345 43.724 155.923 45.506 153.727 45.506C151.477 45.506 150.037 43.742 150.037 40.97C150.037 38.216 151.477 36.488 153.745 36.488ZM168.932 45.29H164.666L163.676 45.308L163.154 45.326C163.442 44.624 164.252 43.868 165.71 42.932C166.988 42.086 167.474 41.708 167.924 41.222C168.608 40.502 168.95 39.62 168.95 38.63C168.95 36.488 167.42 35.066 165.116 35.066C163.802 35.066 162.722 35.552 162.038 36.434C161.408 37.226 161.174 38.108 161.174 39.53H163.028C163.1 37.496 163.694 36.686 165.08 36.686C166.268 36.686 167.006 37.46 167.006 38.702C167.006 39.278 166.808 39.836 166.484 40.268C166.178 40.646 165.674 41.024 164.396 41.888C161.768 43.616 160.958 44.768 160.868 47H168.932V45.29ZM186.195 40.61H181.047V42.212H184.287C184.251 42.986 184.143 43.418 183.909 43.886C183.369 44.948 182.325 45.524 181.011 45.524C178.653 45.524 177.195 43.814 177.195 41.06C177.195 38.252 178.635 36.488 180.957 36.488C182.595 36.488 183.747 37.37 183.999 38.81H186.051C185.817 36.38 183.747 34.706 180.975 34.706C177.483 34.706 175.089 37.298 175.089 41.096C175.089 44.768 177.411 47.288 180.795 47.288C182.397 47.288 183.567 46.748 184.521 45.578L184.845 47H186.195V40.61ZM194.238 44.282C193.842 45.362 193.248 45.812 192.168 45.812C190.674 45.812 189.828 44.858 189.756 43.112H196.182C196.2 42.032 196.074 41.24 195.786 40.538C195.156 38.972 193.77 38.072 192.06 38.072C189.594 38.072 187.848 40.016 187.848 42.752C187.848 45.452 189.54 47.234 192.132 47.234C194.166 47.234 195.624 46.136 196.074 44.282H194.238ZM189.792 41.834C189.99 40.304 190.764 39.494 192.042 39.494C193.32 39.494 194.148 40.376 194.274 41.834H189.792ZM204.504 40.826C204.432 40.016 204.27 39.584 203.892 39.134C203.28 38.432 202.254 38.072 200.868 38.072C198.636 38.072 197.322 39.026 197.322 40.646C197.322 41.456 197.7 42.14 198.366 42.5C198.87 42.788 199.122 42.86 200.85 43.274C202.524 43.652 202.938 43.922 202.938 44.57C202.938 45.326 202.2 45.812 201.066 45.812C199.734 45.812 199.086 45.326 198.96 44.21H197.124C197.232 46.208 198.546 47.234 201.03 47.234C203.37 47.234 204.828 46.136 204.828 44.39C204.828 43.67 204.504 43.004 203.964 42.626C203.424 42.248 202.74 41.996 201.444 41.726C199.572 41.33 199.23 41.132 199.23 40.484C199.23 39.854 199.806 39.476 200.796 39.476C201.984 39.476 202.542 39.872 202.668 40.826H204.504ZM212.414 44.282C212.018 45.362 211.424 45.812 210.344 45.812C208.85 45.812 208.004 44.858 207.932 43.112H214.358C214.376 42.032 214.25 41.24 213.962 40.538C213.332 38.972 211.946 38.072 210.236 38.072C207.77 38.072 206.024 40.016 206.024 42.752C206.024 45.452 207.716 47.234 210.308 47.234C212.342 47.234 213.8 46.136 214.25 44.282H212.414ZM207.968 41.834C208.166 40.304 208.94 39.494 210.218 39.494C211.496 39.494 212.324 40.376 212.45 41.834H207.968ZM219.927 38.306H218.181V35.696H216.255V38.306H214.797V39.71H216.255V43.85C216.255 45.524 216.291 45.866 216.525 46.262C216.849 46.856 217.461 47.09 218.631 47.09C219.117 47.09 219.441 47.072 219.927 47.018V45.506C219.657 45.542 219.495 45.56 219.333 45.56C218.289 45.56 218.181 45.434 218.181 44.282V39.71H219.927V38.306ZM228.219 38.306H221.145V39.836H224.943C225.177 39.836 225.375 39.836 225.807 39.818C225.357 40.196 225.159 40.394 224.817 40.772L220.803 45.542V47H228.489V45.47H224.349C224.133 45.47 224.097 45.47 223.197 45.488C223.791 44.894 223.917 44.768 224.097 44.552L228.219 39.638V38.306Z" fill="#232323"/>
</svg>
