<svg width="122" height="129" viewBox="0 0 122 129" fill="none" xmlns="http://www.w3.org/2000/svg">
<path d="M87.2007 6.08511C87.2525 6.08511 87.3041 6.08573 87.3553 6.08786L87.3787 6.08884L87.402 6.08963C87.433 6.09068 87.464 6.09249 87.4949 6.09495L87.5323 6.09791L87.5697 6.10041C87.6398 6.1051 87.7357 6.11527 87.8625 6.13153C87.908 6.13763 87.9537 6.14354 87.9994 6.14938L88.0309 6.15346C88.1449 6.17346 88.2471 6.19472 88.3422 6.21818L88.3775 6.22692L88.413 6.23523C88.4568 6.24548 88.4984 6.25476 88.538 6.26324C88.6226 6.28743 88.7094 6.31547 88.7975 6.34709L88.87 6.37716L88.9327 6.40299L88.996 6.42745C89.0879 6.46294 89.1786 6.50132 89.2728 6.54452C89.3284 6.57061 89.3806 6.59415 89.4291 6.61543C89.4498 6.6262 89.4648 6.63423 89.4755 6.64008L89.4848 6.64516L89.494 6.65019C97.2242 10.8455 104.954 15.0404 112.685 19.2357L112.676 19.2545L112.769 19.2998L112.804 19.3151C114.72 20.2298 115.905 22.4275 115.9 25.0624L115.756 102.899C115.746 107.551 112.107 112.141 107.966 112.721L35.6729 122.857C35.3967 122.895 35.1218 122.915 34.8558 122.915C33.9849 122.915 33.1759 122.708 32.4511 122.3L32.4449 122.311C26.0616 118.847 19.6793 115.383 13.2972 111.92L8.9772 109.575C7.17058 108.595 6.09498 106.488 6.10003 103.94L6.2443 26.109C6.24505 25.8501 6.25712 25.585 6.28077 25.3132L6.28294 25.2991C6.30077 25.1837 6.31796 25.0681 6.33281 24.9526L6.33287 24.9521C6.33339 24.9481 6.33391 24.944 6.33443 24.9399H6.33443L6.35829 24.7521C6.37287 24.6361 6.39231 24.4815 6.40323 24.4136C6.40998 24.3843 6.4172 24.3553 6.42418 24.3262C6.44777 24.2281 6.47106 24.13 6.49312 24.0315C6.5103 23.9557 6.52707 23.8799 6.54381 23.8042C6.56323 23.7163 6.58909 23.5992 6.60314 23.543C6.61368 23.5103 6.62487 23.4777 6.63578 23.445C6.66895 23.3459 6.7019 23.2466 6.73462 23.1434C6.76121 23.0594 6.78717 22.9751 6.81303 22.8909C6.82842 22.8408 6.84316 22.7906 6.85802 22.7437C6.89614 22.6538 6.93377 22.5635 6.97042 22.4709C7.06716 22.2263 7.14391 22.0436 7.21151 21.8971C7.23593 21.8455 7.26233 21.795 7.28781 21.7445L7.34417 21.6325C7.38573 21.5496 7.42614 21.4663 7.46611 21.383C7.5026 21.3218 7.54111 21.2551 7.58106 21.1827C7.76983 20.8407 7.94876 20.5467 8.12627 20.287C8.1756 20.223 8.22831 20.1523 8.2836 20.0745C8.45697 19.8347 8.65302 19.5876 8.87045 19.3351C8.89727 19.3039 8.92276 19.2737 8.94709 19.2444C8.98727 19.2029 9.03042 19.1573 9.07575 19.1081C9.27175 18.8944 9.47405 18.69 9.67701 18.5004C9.74542 18.4369 9.80709 18.377 9.8612 18.3232C10.1236 18.092 10.3985 17.8751 10.7007 17.6609C10.7476 17.628 10.7919 17.596 10.8337 17.5651C10.8393 17.5618 10.8448 17.5584 10.8503 17.5551C10.913 17.517 10.9756 17.4788 11.0381 17.4401L11.0786 17.415L11.1187 17.3893L11.2644 17.2951C11.2934 17.2763 11.3222 17.2573 11.3512 17.2388C11.4875 17.161 11.6605 17.0726 11.8146 16.9949C11.9077 16.9481 12.0003 16.8992 12.0923 16.8495C12.0952 16.8481 12.098 16.8467 12.1008 16.8453C12.233 16.7871 12.3919 16.7233 12.5827 16.6517L12.6511 16.6284L12.7523 16.594C12.9139 16.5387 13.0737 16.4894 13.2278 16.4472C13.2711 16.4361 13.3143 16.4247 13.3576 16.4133L13.4224 16.3963L13.4258 16.3955L13.4409 16.3919C13.6719 16.3359 13.8779 16.2948 14.053 16.2697L86.3361 6.13581C86.4833 6.11519 86.6413 6.10069 86.8282 6.09118L86.8793 6.09023C86.9343 6.08932 86.9894 6.08833 87.0326 6.08723C87.0888 6.08593 87.1449 6.08511 87.2007 6.08511ZM87.2007 0C87.0977 0 86.9943 0.00136183 86.8906 0.00376048C86.7785 0.00659244 86.6665 0.00659245 86.5543 0.0121326C86.2013 0.0289387 85.8455 0.0596725 85.4868 0.109967L13.1933 10.2453C12.7913 10.3026 12.3934 10.3837 12.0011 10.4787C11.889 10.5053 11.7797 10.536 11.669 10.564C11.3678 10.645 11.068 10.7373 10.7738 10.8379C10.6757 10.8715 10.5777 10.9036 10.4824 10.9385C10.1223 11.0727 9.76648 11.2152 9.419 11.3774C9.4008 11.3857 9.38539 11.3969 9.36718 11.4053C9.26631 11.4528 9.16824 11.5115 9.06736 11.5619C8.78435 11.7044 8.50416 11.8498 8.22957 12.0105C8.09085 12.0929 7.95776 12.1824 7.82045 12.2704C7.64673 12.378 7.47021 12.48 7.30208 12.5961C7.26288 12.624 7.22783 12.659 7.18859 12.6855C6.70806 13.0251 6.24573 13.3885 5.8016 13.7812C5.77498 13.8035 5.74696 13.8217 5.72034 13.8455C5.64889 13.9099 5.58724 13.9853 5.5158 14.051C5.19075 14.3542 4.87834 14.67 4.57573 14.9999C4.51406 15.0669 4.44404 15.1257 4.3824 15.1927C4.33195 15.2515 4.28991 15.3157 4.2395 15.3744C3.91445 15.7518 3.60341 16.1431 3.31201 16.5483C3.2784 16.5973 3.23637 16.6407 3.19993 16.6895C3.19294 16.7008 3.18731 16.7132 3.18032 16.7231C2.83847 17.2108 2.52746 17.7223 2.23742 18.2478C2.20521 18.3065 2.16601 18.3583 2.13236 18.417C2.0455 18.5777 1.97125 18.7454 1.88858 18.9103C1.81853 19.0501 1.74568 19.1913 1.67842 19.3352C1.54114 19.6315 1.41644 19.9333 1.29596 20.238C1.25393 20.3442 1.20631 20.4476 1.16567 20.5538C1.16005 20.5734 1.15023 20.5931 1.14324 20.6098C1.05917 20.8403 0.991945 21.0766 0.917669 21.3113C0.856027 21.5057 0.785978 21.6972 0.731333 21.8928C0.657079 22.1583 0.602466 22.4295 0.540801 22.7005C0.498768 22.8893 0.448343 23.0752 0.411934 23.268C0.355861 23.5671 0.322245 23.8703 0.283012 24.1736C0.262007 24.3386 0.229794 24.5035 0.21439 24.6683C0.169526 25.1408 0.145729 25.6159 0.144333 26.0912L2.96769e-05 103.928C-0.00979013 108.9 2.41817 112.943 6.06219 114.921C13.9013 119.175 21.7398 123.429 29.5802 127.683C29.5358 127.659 29.4972 127.627 29.4549 127.601C31.0503 128.498 32.8849 129 34.8558 129C35.4013 129 35.9571 128.962 36.5215 128.883L108.815 118.747C115.976 117.744 121.84 110.62 121.856 102.911L122 25.0736C122.01 19.8399 119.319 15.6369 115.352 13.7858C115.35 13.7852 115.349 13.7847 115.348 13.7841C115.349 13.7846 115.35 13.7852 115.352 13.7858C115.362 13.7903 115.372 13.793 115.382 13.7979C115.556 13.8812 115.728 13.9608 115.897 14.0513C108.067 9.80249 100.238 5.55386 92.4092 1.30493C92.279 1.23365 92.1444 1.16516 92.0113 1.0995C91.9623 1.07573 91.9091 1.05756 91.86 1.03379C91.6428 0.933172 91.4229 0.839516 91.1987 0.752901C91.1104 0.71655 91.0236 0.678837 90.9325 0.646664C90.6201 0.532069 90.3007 0.431434 89.9756 0.347574C89.9672 0.346181 89.9589 0.342003 89.9504 0.339217C89.9057 0.328029 89.8551 0.322411 89.8075 0.311253C89.5414 0.245561 89.2724 0.191042 88.9978 0.144926C88.8885 0.126773 88.7736 0.114192 88.6615 0.0988094C88.4346 0.0694683 88.2076 0.0443056 87.9778 0.0289387C87.8545 0.0191738 87.7312 0.0121326 87.6079 0.00798522C87.473 0.0023948 87.3372 0 87.2007 0ZM115.897 14.0513C115.91 14.0581 115.922 14.0651 115.935 14.0719C115.922 14.065 115.91 14.0581 115.897 14.0513ZM29.5802 127.683C29.5827 127.685 29.5853 127.686 29.5879 127.688C29.5855 127.686 29.5826 127.685 29.5802 127.683Z" fill="#F5F5F5"/>
<path fill-rule="evenodd" clip-rule="evenodd" d="M43.832 58.1255C43.832 52.4931 39.7985 49.6769 34.1525 49.6769H20.8457L20.4421 50.0795V77.4346L20.8457 77.8371H25.6847L26.0883 77.4346V66.975L26.4903 66.5725H34.1525C39.7985 66.5725 43.832 63.7577 43.832 58.1255ZM38.186 58.1255C38.186 60.9415 36.572 61.7453 34.1525 61.7453H26.4903L26.0883 61.3427V54.9067L26.4903 54.5043H34.1525C36.572 54.5043 38.186 55.3093 38.186 58.1255Z" fill="#F5F5F5"/>
<path fill-rule="evenodd" clip-rule="evenodd" d="M69.8347 69.791C69.8347 64.1588 65.3991 61.7452 59.7531 60.9414C54.1069 60.1364 52.4944 59.3314 52.4944 56.9178C52.4944 55.3092 53.7049 54.1016 57.3336 54.1016C61.7692 54.1016 62.9796 55.3092 62.9796 57.7228L63.3831 58.1254H68.2222L68.6257 57.7228C68.6257 52.8956 65.3991 49.2744 57.737 49.2744C50.0749 49.2744 46.8484 52.8956 46.8484 56.9178C46.8484 62.5502 51.284 64.5612 56.93 65.3662C62.5761 66.1712 64.1887 66.9749 64.1887 69.791C64.1887 72.2047 62.1726 73.4122 58.544 73.4122C53.7049 73.4122 52.091 71.8021 52.091 68.986L51.6874 68.585H46.8484L46.4448 68.986C46.4448 74.2158 50.0749 78.2395 58.1405 78.2395C66.6082 78.2395 69.8347 74.2158 69.8347 69.791Z" fill="#F5F5F5"/>
<path d="M86.6945 69.6959L86.6777 69.7058L86.6945 69.6988C86.6945 69.6959 86.6945 69.6959 86.6945 69.6959ZM100.934 61.6361L100.894 61.6193L100.933 61.6388C100.933 61.6388 100.933 61.6361 100.934 61.6361ZM98.3495 60.4844L98.358 60.5082L98.3537 60.4886L98.3495 60.4844ZM86.6945 69.6918L86.6777 69.6959H86.6945V69.6918ZM93.8172 66.5864L93.8102 66.5696L93.8145 66.5864C93.8172 66.5864 93.8172 66.5864 93.8172 66.5864ZM90.4016 61.7689V61.787L90.4058 61.7689C90.4043 61.7689 90.4016 61.7689 90.4016 61.7689ZM100.038 57.0826H100.021L100.036 57.0855L100.038 57.0826ZM100.689 65.3033L100.651 65.3257L100.691 65.3104L100.689 65.3033ZM89.0987 66.7428H89.1379L89.1 66.7415L89.0987 66.7428ZM101.411 64.9902L101.442 64.9609L101.411 64.9902ZM89.4629 55.632L89.4797 55.6403L89.4644 55.6306C89.4644 55.6306 89.4644 55.632 89.4629 55.632ZM101.411 61.8765L101.409 61.8792L101.449 61.8918L101.411 61.8765ZM87.182 71.046L87.1764 71.0306V71.0419L87.182 71.046ZM100.768 63.1538L100.785 63.1971L100.77 63.1538C100.77 63.1538 100.769 63.1538 100.768 63.1538ZM92.8561 70.3305L92.8716 70.3276H92.8547L92.8561 70.3305ZM86.7772 72.4911V72.5065L86.7828 72.4869L86.7772 72.4911ZM88.2188 66.5052L88.216 66.5039L88.1909 66.536L88.2216 66.5066C88.2188 66.5066 88.2188 66.5052 88.2188 66.5052ZM93.2134 52.8299H93.1951L93.2121 52.8326C93.2134 52.8299 93.2134 52.8299 93.2134 52.8299ZM94.0191 53.9731L94.0344 53.9815L94.0218 53.9675C94.0203 53.9702 94.0203 53.9716 94.0191 53.9731ZM88.0548 63.9505L88.0592 63.991V63.9505H88.0548ZM88.2174 62.9135L88.1992 62.954L88.2216 62.9176L88.2174 62.9135ZM86.4129 64.1391L86.4199 64.1825L86.4158 64.1391H86.4129ZM93.495 57.4881V57.5061L93.4979 57.4894L93.495 57.4881ZM86.4143 64.1364L86.3779 64.1139L86.4129 64.1391C86.4129 64.1377 86.4143 64.1377 86.4143 64.1364ZM96.849 52.5196L96.8463 52.5042V52.5196C96.8463 52.5196 96.8476 52.5196 96.849 52.5196ZM93.495 68.2606L93.502 68.2691L93.4979 68.2592C93.495 68.2606 93.495 68.2606 93.495 68.2606ZM96.8463 52.5196L96.8364 52.5378L96.8476 52.5223C96.8463 52.5209 96.8463 52.5209 96.8463 52.5196ZM91.5994 61.3873L91.6079 61.3704L91.5952 61.3818L91.5994 61.3873ZM93.977 66.9049L93.9938 66.9022H93.977V66.9049ZM92.7889 52.2401H92.7706L92.7932 52.2457L92.7889 52.2401ZM86.3611 65.1203L86.3288 65.1441L86.3653 65.1216C86.3638 65.1216 86.3638 65.1203 86.3611 65.1203ZM98.4574 52.5895V52.5727L98.4547 52.588C98.4547 52.588 98.456 52.5895 98.4574 52.5895ZM92.695 73.9265L92.7133 73.9335L92.6965 73.9222C92.695 73.9251 92.695 73.9251 92.695 73.9265ZM99.7323 65.3075L99.7715 65.2852L99.7295 65.3033L99.7323 65.3075ZM92.5381 73.3618L92.548 73.345L92.5354 73.3605L92.5381 73.3618ZM103.092 70.807L103.096 70.7916L103.089 70.807H103.092ZM102.373 64.7136H102.356L102.338 64.7037C101.999 64.3977 101.874 64.2216 101.907 64.0734C101.965 63.9338 102.156 63.9156 102.389 63.9156C102.855 63.9338 103.544 64.0637 103.711 63.991L103.762 64.0567C103.43 64.4717 102.862 64.6297 102.373 64.7136ZM103.072 70.807V70.7916H103.096C103.288 70.8322 103.563 70.7748 103.795 70.7748C103.912 70.7748 104.019 70.7916 104.101 70.842C104.178 70.8909 104.227 70.9901 104.227 71.1313V77.2905H101.61L101.634 77.2597C103.072 75.5169 102.915 73.1215 103.072 70.807ZM102.173 62.0986L102.19 62.0595L102.232 62.0847L103.594 63.0364L103.662 63.0881L103.586 63.1106C103.337 63.1971 103.053 63.2168 102.75 63.2168C102.449 63.2168 102.127 63.1971 101.807 63.1971H101.775L101.767 63.1608C101.691 62.8129 102.015 62.4173 102.173 62.0986ZM101.426 74.1585V74.1655C101.349 74.7216 101.184 75.2919 100.618 75.6092V75.6175C100.517 75.6468 100.408 75.6665 100.293 75.6832C100.265 75.6888 100.238 75.6902 100.209 75.6972C100.099 75.7098 99.9873 75.7168 99.8752 75.7181C99.8626 75.7181 99.8514 75.7195 99.8402 75.7195C99.808 75.7195 99.7771 75.7168 99.745 75.7154C99.7001 75.714 99.6566 75.7125 99.6118 75.7098C99.5669 75.7042 99.5249 75.6987 99.4801 75.6958C99.4325 75.6888 99.3849 75.6805 99.34 75.6706C99.2994 75.6636 99.2602 75.6553 99.2209 75.6468C99.172 75.633 99.1229 75.6134 99.0738 75.5979C99.043 75.5867 99.0094 75.577 98.98 75.5644C98.9043 75.5322 98.8301 75.496 98.7657 75.4512C96.6726 73.9265 98.0314 70.8126 97.3968 68.6645L97.3926 68.6688C97.3184 68.5513 97.1768 68.4339 97.0368 68.3794C96.8855 68.3193 96.737 68.3193 96.6277 68.4339L96.6249 68.4311L96.3125 68.9077C95.9986 70.8951 96.7117 73.039 95.9132 74.8881H95.9076V74.8978C95.7954 74.9676 95.6763 75.0319 95.5558 75.0864C95.5208 75.1019 95.4831 75.1158 95.4467 75.1312C95.3584 75.1647 95.2715 75.1969 95.1791 75.2234C95.1328 75.2374 95.0866 75.2471 95.0389 75.2556C94.9507 75.2737 94.861 75.2878 94.7685 75.2975C94.7209 75.3017 94.6718 75.3058 94.62 75.3087C94.5933 75.3087 94.5654 75.3157 94.5374 75.3157C94.4309 75.3157 94.3216 75.3087 94.2096 75.2919H94.1928V75.2779C94.5177 72.4156 92.8296 68.2536 95.9621 66.4885C97.3267 65.9224 99.2559 65.7659 100.461 66.645V66.6506C102.232 68.5779 101.268 71.6931 101.426 74.1585ZM99.3484 77.1185C99.1803 77.8481 98.3004 78.1625 97.6589 78.4868C97.5046 78.5316 97.3478 78.5651 97.1895 78.5944C97.1545 78.6014 97.118 78.607 97.0844 78.6111C96.807 78.6545 96.5254 78.681 96.2437 78.681C96.2172 78.681 96.1905 78.6768 96.1654 78.6768C95.9552 78.6727 95.7465 78.6615 95.5405 78.6363C95.5279 78.6349 95.5181 78.6349 95.5082 78.6335C95.2939 78.607 95.0824 78.5651 94.875 78.5161C94.8091 78.4994 94.7489 78.4839 94.6859 78.4672C94.5318 78.4252 94.3819 78.3777 94.2334 78.3275C94.1746 78.3079 94.1143 78.2856 94.0568 78.2632C93.8592 78.185 93.6687 78.1011 93.4867 78.0061L93.4614 77.9976L93.4867 77.9724C93.9588 77.5742 94.4436 77.1017 94.6018 76.5469V76.5386H94.6088C95.49 76.4547 96.3615 76.2982 96.8364 75.426L96.8519 75.4023L96.8687 75.426C97.3435 76.2982 98.3845 76.9354 99.3317 77.0947H99.3569L99.3484 77.1185ZM93.4362 76.3149V76.3205L93.4291 76.3304C93.2512 76.4477 93.0748 76.5609 92.8982 76.67C92.8547 76.6979 92.8127 76.7231 92.7706 76.7468C92.6348 76.8321 92.5004 76.9131 92.3631 76.9928C92.3055 77.0249 92.2453 77.0557 92.1865 77.0864C92.0659 77.1535 91.9469 77.2192 91.8236 77.2821C91.7536 77.3155 91.6835 77.3463 91.612 77.3785C91.5 77.433 91.3879 77.4847 91.2745 77.5337C91.196 77.5644 91.1175 77.5923 91.039 77.6217C90.9311 77.6636 90.8205 77.7028 90.7112 77.739C90.6257 77.7656 90.5389 77.7865 90.4548 77.8103C90.347 77.8383 90.2405 77.8677 90.1312 77.8886C90.0401 77.911 89.9477 77.9235 89.8524 77.9389C89.7473 77.9557 89.638 77.9724 89.5288 77.9809C89.4292 77.9906 89.3298 77.9949 89.2304 78.0005C89.1602 78.0018 89.0944 78.0102 89.0229 78.0102C88.9417 78.0102 88.8548 78.0088 88.7736 78.0061C88.4402 77.9222 88.2832 77.6832 88.1992 77.433C88.0745 77.1116 88.1824 76.902 88.3673 76.7468C88.5481 76.5958 88.8072 76.4981 89.0062 76.3792H89.0146C90.2952 75.9809 91.5729 75.419 93.0131 75.5002H93.0214L93.3438 75.6567C93.5217 75.8327 93.4362 76.1556 93.4362 76.3149ZM87.4174 75.6902H87.409C87.084 75.6092 86.8444 75.2849 86.7618 74.9635V74.9523C86.7618 74.5568 86.9271 74.15 87.409 73.9823H87.4174C88.9305 73.6707 90.3679 72.9467 92.0576 73.0221H92.0659V73.0292L92.548 73.345V73.3535C92.7048 73.5113 92.88 73.7503 92.7133 73.9335H92.7048V73.9418C91.0264 74.8125 89.3466 75.6902 87.4174 75.6902ZM86.7618 71.4387H86.7687L87.1694 71.0306H87.1764C89.0987 70.7916 90.934 70.5499 92.8547 70.3094H92.8632L92.8716 70.3276L93.0299 70.6422V70.6478C93.0299 71.2123 92.7133 71.7854 92.1388 72.0258C91.8727 72.1027 91.6008 72.1739 91.3262 72.2382C91.2519 72.2578 91.1763 72.2731 91.1022 72.2913C90.8611 72.3444 90.6174 72.3947 90.3708 72.4408C90.3273 72.4464 90.2825 72.4576 90.2376 72.4632C89.9546 72.5121 89.6688 72.547 89.3803 72.5778C89.3102 72.5848 89.2401 72.5889 89.1687 72.5931C88.9291 72.6127 88.6881 72.6239 88.4472 72.6282C88.4009 72.6282 88.3547 72.635 88.3099 72.635C88.2874 72.635 88.2665 72.6295 88.2441 72.6295C88.0774 72.6295 87.9105 72.6211 87.7425 72.6127C87.6668 72.6071 87.5883 72.6057 87.5113 72.6001C87.2661 72.5792 87.0223 72.5499 86.7772 72.5065H86.7687V72.4995C86.4367 72.1669 86.6034 71.7616 86.7618 71.4387ZM86.6777 69.6959C86.6034 69.197 87.1694 68.7246 87.5659 68.487C89.4868 67.4389 91.6485 67.0433 93.8102 66.5696L93.8271 66.5626L93.8354 66.5793L93.9938 66.8938V66.9022C94.0764 67.4654 93.9097 67.9475 93.502 68.2691V68.2774C91.6653 69.2319 89.7459 70.037 87.6585 70.2689C87.2507 70.2689 86.8444 70.1097 86.6777 69.7058V69.6959ZM87.0629 65.7826C87.0238 65.7603 86.9845 65.7365 86.9453 65.7128C86.9215 65.6989 86.8991 65.6863 86.8766 65.6709C86.8389 65.6471 86.8038 65.6206 86.7687 65.5954C86.7449 65.5787 86.7211 65.5591 86.6973 65.5409C86.6666 65.5172 86.637 65.4905 86.6076 65.4641C86.5852 65.4459 86.5628 65.4249 86.5417 65.4054C86.5138 65.3802 86.4914 65.3536 86.4661 65.3257C86.4508 65.3075 86.4311 65.2893 86.4143 65.2684C86.3793 65.2251 86.3499 65.1831 86.3288 65.1441L86.3204 65.1272V65.1203L86.4129 64.9274C86.469 64.8714 86.5684 64.8282 86.7072 64.852C87.0546 64.6925 87.5659 64.8547 87.8742 64.8547H87.9008L87.9092 64.8784C88.0745 65.2447 87.7173 65.5899 87.6415 65.8973L87.6346 65.914L87.6094 65.9224C87.5856 65.9266 87.5603 65.9322 87.5309 65.9322C87.5169 65.9322 87.5001 65.9253 87.4847 65.9253C87.4651 65.921 87.4427 65.9197 87.4216 65.914C87.3866 65.9099 87.3502 65.9001 87.3137 65.889C87.2913 65.8805 87.269 65.8735 87.2493 65.8652C87.2087 65.8498 87.1708 65.8344 87.1302 65.8148C87.1078 65.8022 87.0853 65.7939 87.0629 65.7826ZM86.3779 64.1139C86.504 63.9057 86.8206 63.6165 87.1582 63.4851C87.5015 63.3537 87.891 63.3928 88.0983 63.8582V63.991H88.0592L86.4199 64.1825L86.3288 64.1895L86.3779 64.1139ZM89.271 63.8904C89.264 63.8848 89.2555 63.8805 89.2486 63.8764C89.2066 63.8526 89.1658 63.8289 89.1281 63.7995C89.1169 63.7911 89.107 63.7842 89.0958 63.7743C89.0511 63.7408 89.0062 63.7073 88.9641 63.6654C88.7063 63.418 88.4654 63.1036 88.1992 62.954L88.1488 62.9274L88.1824 62.8883C88.5144 62.4816 88.9221 62.3153 89.3298 62.2329L89.3648 62.2244L89.3789 62.258C89.6114 62.8129 89.9365 63.2936 89.9365 63.8736V63.8987L89.9113 63.9057C89.8608 63.9323 89.8117 63.9462 89.7641 63.9575C89.7431 63.9644 89.7235 63.9658 89.7011 63.9672C89.6758 63.9714 89.6506 63.9742 89.6255 63.9757C89.6199 63.9757 89.6114 63.9757 89.6058 63.9757C89.5946 63.9757 89.5835 63.9742 89.5736 63.9742C89.5344 63.9714 89.4965 63.9672 89.4586 63.9575C89.4433 63.9561 89.4279 63.9519 89.4139 63.9491C89.3648 63.9338 89.3172 63.9127 89.271 63.8904ZM89.1379 66.7428V66.7946L89.0875 66.7847C88.7821 66.701 88.4485 66.7946 88.1909 66.536L88.167 66.5192L88.1754 66.4885L88.7988 64.7694L88.8072 64.7443H88.831L89.2975 64.6535L89.3466 64.6465V64.687C89.4292 65.3438 89.2135 66.1125 89.1379 66.7428ZM89.2304 56.5936L89.2555 56.6257C89.2486 56.6313 89.2401 56.6341 89.236 56.6397C89.0846 58.0638 89.3452 59.5662 90.3735 60.5222L90.3932 60.5082C90.7098 60.9065 91.2842 61.1302 91.6079 61.3704L91.6232 61.3775L91.6079 61.3942C91.5617 61.4432 91.5 61.4865 91.4327 61.5299C91.4188 61.5382 91.4089 61.5452 91.3963 61.5536C91.3291 61.5927 91.2562 61.6319 91.1778 61.6654C91.161 61.6696 91.1455 61.6766 91.1301 61.6836C91.0461 61.7158 90.9634 61.7423 90.8752 61.7604C90.8667 61.7633 90.8555 61.766 90.8471 61.7689C90.7574 61.787 90.6663 61.7995 90.5781 61.7995C90.5766 61.7995 90.5754 61.7995 90.5725 61.7995C90.5725 61.7995 90.5725 61.7995 90.5698 61.7995C90.5122 61.7995 90.4563 61.7939 90.4016 61.787C89.3648 61.7003 88.1557 61.1134 87.8335 60.068C87.4245 58.943 88.1824 57.2406 89.2304 56.5936ZM89.1155 54.6118C89.3466 53.7382 89.6717 52.7712 90.7603 52.3645H90.7686C91.2339 52.2722 91.7731 52.2401 91.9497 52.581L91.9568 52.5895L91.9497 52.6048C91.0684 53.319 90.2026 54.7628 89.4797 55.6403L89.4713 55.6488H89.4629C89.2793 55.6403 89.2066 55.4251 89.1561 55.1834C89.1155 54.9514 89.1155 54.7027 89.1155 54.6188V54.6118ZM96.2957 56.5936H96.3447L96.3054 56.6257C96.3013 56.6285 96.2984 56.6327 96.2957 56.6341C96.213 56.7095 96.129 56.7767 96.0393 56.8438C96.0085 56.8675 95.9762 56.8913 95.944 56.9136C95.8838 56.957 95.8248 56.9975 95.7619 57.038C95.7254 57.0632 95.6862 57.0841 95.6484 57.1078C95.5881 57.1456 95.5251 57.1791 95.4606 57.2113C95.4214 57.2336 95.3864 57.2532 95.3458 57.2714C95.2688 57.3092 95.1916 57.3412 95.1118 57.372C95.0837 57.3832 95.0572 57.3943 95.0292 57.4055C94.9213 57.4447 94.8091 57.4768 94.6971 57.502C94.6691 57.509 94.6411 57.5104 94.613 57.5174C94.5262 57.5327 94.4393 57.5468 94.3496 57.5565C94.3076 57.5606 94.2655 57.5621 94.2235 57.5635C94.1787 57.5649 94.1367 57.5732 94.0918 57.5732C94.0498 57.5732 94.0077 57.5677 93.9686 57.5635C93.9336 57.5635 93.8985 57.5621 93.8635 57.5593C93.743 57.548 93.6197 57.5313 93.495 57.5061H93.4867C92.272 57.1805 91.7998 55.7397 91.7157 54.6188V54.5713L91.7508 54.6048C93.0299 55.8808 94.4589 56.5936 96.2957 56.5936ZM92.2565 53.9311L92.6039 53.5748L92.6207 53.5496L92.6292 53.5748C92.7889 53.9646 93.3788 54.4455 93.935 54.6048C94.4169 54.7628 94.875 54.8186 95.4299 54.7347L95.4732 54.7277L95.4494 54.7696C95.2056 55.0939 94.6662 55.4335 94.3342 55.516H94.3258C93.6014 55.2757 92.7385 54.6048 92.2565 53.9578L92.2467 53.9493L92.2565 53.9311ZM94.0344 53.9815L94.0259 53.9983L94.0077 53.9898C93.6869 53.8235 93.121 53.1681 93.1951 52.8299V52.82H93.2036C93.3788 52.6454 94.2264 52.5727 94.4687 52.5727H94.4827V52.581C94.6509 52.9948 94.2767 53.6572 94.0344 53.9815ZM95.2491 50.4568C95.7296 50.3742 96.2957 50.4568 96.7776 50.6971H96.786C97.0283 50.9375 97.2021 51.2856 97.2847 51.6097V51.6335H97.2609C96.877 51.6252 96.4945 52.0305 96.0882 52.1897H96.0813C95.1062 52.1073 93.5846 51.2282 92.8058 52.2569L92.7706 52.2401C93.0214 51.3525 94.2837 50.5322 95.2491 50.4568ZM98.4574 52.5727H98.4671L99.3317 52.9681C100.146 53.6153 100.262 55.0185 100.343 55.8975L100.352 55.9213L100.319 55.9143C99.7968 55.7312 99.3149 55.0939 99.0738 54.6956C98.5162 53.9004 97.5607 53.0954 96.8364 52.5378L96.8126 52.514L96.8463 52.5042C97.2526 52.3407 98.0581 52.4888 98.4574 52.5727ZM95.5558 55.7159C95.7969 55.1499 96.3377 54.6118 96.5618 54.0317L96.737 53.4517L96.7552 53.4085L96.7776 53.4517C97.0186 53.9311 97.0942 55.0268 96.936 55.5901L96.9275 55.5971C96.6711 55.7647 95.888 55.7397 95.5728 55.7397H95.5405L95.5558 55.7159ZM95.1566 52.8704L95.1483 52.8382L95.1833 52.8452C95.4228 52.9291 95.8964 53.3344 95.8389 53.7314C95.6722 54.1212 95.1412 54.2805 94.7405 54.2805H94.7068L94.7167 54.2554C94.8834 53.857 95.2323 53.3344 95.1566 52.8704ZM92.1318 62.6646L92.2314 62.715C92.5704 62.8883 92.8127 63.2866 93.0452 63.608L93.0634 63.6262L93.0551 63.65C93.0046 63.7506 92.9052 63.759 92.8394 63.7423L92.6292 63.7506L92.5969 63.7673L92.5704 63.7254L92.1724 62.771L92.1318 62.6646ZM91.7396 64.5473C92.2061 64.5473 92.6894 64.3878 93.1868 64.5473L93.2204 64.564V64.5961C93.1378 65.0951 92.73 65.5731 92.3237 65.8973L92.2902 65.9224L92.2635 65.889C92.0156 65.5661 91.7731 65.0867 91.7003 64.5961L91.6905 64.5473H91.7396V64.5473ZM91.3836 66.4368L91.3571 66.462C91.3039 66.5011 91.245 66.536 91.1819 66.5696C91.1651 66.5793 91.1498 66.5864 91.1329 66.5947C91.0755 66.6213 91.0181 66.6477 90.9564 66.6702C90.9452 66.6729 90.934 66.6785 90.9214 66.6814C90.8512 66.7066 90.7785 66.726 90.7028 66.7415C90.6832 66.7428 90.6622 66.7471 90.6439 66.7498C90.5822 66.7582 90.5234 66.7652 90.4632 66.7665C90.4507 66.7665 90.4366 66.768 90.424 66.768C90.4155 66.768 90.4099 66.768 90.4016 66.768C90.3623 66.7665 90.3231 66.7638 90.2838 66.7582C90.2615 66.7541 90.2405 66.7541 90.2194 66.7498C90.1592 66.7386 90.1004 66.7247 90.0443 66.701L90.0037 66.6855L90.0192 66.645C90.2531 66.1125 90.0107 65.1524 90.4269 64.6465L90.4366 64.6297H90.8079L90.8191 64.6535L91.3753 66.413L91.3836 66.4368ZM90.7841 63.9156H90.7504L90.7421 63.8987C90.4114 63.4012 90.3358 62.7654 90.1774 62.2077L90.1606 62.1672L90.2111 62.1573C90.7098 62.0749 91.0082 62.3475 91.2254 62.6954C91.4327 63.0364 91.5729 63.4599 91.7661 63.6836L91.8166 63.7423L91.7396 63.7506L90.7841 63.9156ZM94.6873 60.8897C94.6592 60.8926 94.6326 60.8953 94.6047 60.8995C94.4197 60.9135 94.2334 60.9247 94.0456 60.9247C94.0302 60.9247 94.0162 60.9275 94.0008 60.9275C93.9742 60.9275 93.9462 60.9247 93.9209 60.9247C93.8536 60.9247 93.7864 60.9219 93.7192 60.9205C93.6687 60.9164 93.6169 60.9135 93.5664 60.9093C93.4979 60.9079 93.4291 60.8995 93.3606 60.8926C93.3129 60.8883 93.2639 60.8813 93.2148 60.8757C93.1448 60.866 93.0761 60.8548 93.0102 60.8436C92.964 60.8366 92.9193 60.8296 92.8758 60.8213C92.8044 60.8044 92.7356 60.7891 92.6685 60.7724C92.6265 60.7612 92.5844 60.7528 92.5451 60.7416C92.4751 60.7234 92.4064 60.6997 92.3392 60.6759C92.3041 60.6648 92.2678 60.6536 92.2326 60.6396C92.1612 60.6144 92.0941 60.585 92.0282 60.5543C91.9988 60.5417 91.968 60.5292 91.9398 60.5152C91.8684 60.4816 91.8013 60.4411 91.7354 60.4034C91.7157 60.3894 91.6919 60.3797 91.6723 60.3656C91.5868 60.3111 91.507 60.2552 91.4327 60.1909C90.1453 59.3888 90.0374 57.8137 90.277 56.4524C90.361 56.1282 90.4772 55.625 90.6845 55.3092L90.7015 55.2757L90.7197 55.3092C91.2745 56.4272 91.6822 57.8793 92.7973 58.7501C93.8354 59.5453 95.1145 60.1015 96.3125 60.4243L96.3615 60.4341L96.3195 60.4593C96.1779 60.5278 96.0197 60.5906 95.8515 60.6466C95.8389 60.6522 95.8263 60.6563 95.8136 60.6605C95.6498 60.7123 95.4788 60.7569 95.2967 60.7933C95.2757 60.7989 95.2547 60.8031 95.2323 60.8073C95.0572 60.8436 94.8737 60.8688 94.6873 60.8897ZM93.7683 61.6361V61.6193L93.7864 61.6094C93.977 61.4278 94.302 61.52 94.6172 61.52H94.6509L94.6592 61.5536C94.8176 62.9135 94.7335 64.5136 94.6592 65.8638V65.8973L94.6242 65.9057C94.4393 65.9685 94.2096 65.984 94.033 65.9532C93.9742 65.9421 93.9209 65.9266 93.876 65.9057L93.8509 65.889V65.8638L93.7683 61.6361ZM96.2536 64.4467V64.6297H96.213C95.9468 64.6297 95.549 64.3878 95.3723 64.0482L95.3332 63.9658L95.4228 63.991C95.5657 64.0245 95.8306 63.991 96.0308 64.0063C96.1303 64.0245 96.213 64.0414 96.2704 64.1238C96.3195 64.1992 96.3125 64.3054 96.2536 64.4467ZM96.0882 63.1763L96.0729 63.1971H95.2715L95.2911 63.1455C95.4564 62.5739 95.9383 61.9253 96.5212 61.759L96.5871 61.7367L96.5703 61.8024C96.4945 62.2818 96.4119 62.771 96.0882 63.1763ZM97.6448 59.4041H97.6351C97.4851 59.4264 97.3311 59.4377 97.1741 59.4404C97.1573 59.4404 97.1418 59.4446 97.125 59.4446C97.0466 59.4446 96.9639 59.4377 96.8855 59.432C96.8588 59.432 96.8322 59.432 96.8055 59.4293C96.6711 59.4181 96.5366 59.4026 96.4007 59.3776C96.3924 59.3762 96.3853 59.3747 96.3769 59.3733C96.2522 59.351 96.129 59.3258 96.0042 59.2937C95.9692 59.2839 95.9327 59.2727 95.8964 59.263C95.7997 59.2363 95.7072 59.2084 95.6119 59.1762C95.5713 59.1624 95.5293 59.1483 95.49 59.1357C95.4018 59.105 95.315 59.07 95.2295 59.0337C95.1889 59.0198 95.1483 59.0016 95.1089 58.9835C95.0222 58.943 94.9381 58.9038 94.854 58.8633C94.8204 58.8465 94.7867 58.8298 94.7546 58.8116C94.6411 58.7528 94.5318 58.6914 94.4295 58.6228C94.4281 58.6228 94.4266 58.6243 94.4253 58.6243C94.4225 58.6214 94.421 58.6201 94.4169 58.6172L94.3833 58.6005L94.4169 58.5823C95.9383 58.1113 97.9587 57.0002 98.0343 55.0995V55.059L98.0652 55.0842C98.7895 55.6488 98.9057 56.6089 98.9057 57.4881C98.7475 58.2105 98.5317 59.1636 97.6448 59.4041ZM97.0424 63.0197L97.0522 62.9763C97.1265 62.715 97.1517 62.2901 97.2609 61.9352C97.3702 61.576 97.593 61.2698 98.0511 61.2783H98.1016L98.0917 61.3216C98.0147 61.9687 97.7765 62.613 97.3702 63.1036L97.3435 63.1203L97.3184 63.1106L97.076 63.0364L97.0424 63.0197ZM97.0522 64.0734L97.0844 64.0637C97.4683 63.984 97.6924 64.2062 97.8438 64.4802C97.9923 64.7526 98.0917 65.0951 98.2416 65.2767L98.2921 65.3341L98.2164 65.3509C98.1408 65.3662 98.0623 65.3718 97.9894 65.3718C97.9726 65.3718 97.9573 65.369 97.9391 65.3676C97.9053 65.3662 97.8732 65.3649 97.8395 65.3593C97.7779 65.3536 97.7191 65.3438 97.6589 65.3285C97.6239 65.3215 97.5916 65.3116 97.558 65.3033C97.499 65.2866 97.4431 65.267 97.3884 65.246C97.359 65.2335 97.3296 65.2251 97.3015 65.2139C97.2232 65.1817 97.1474 65.1453 97.076 65.109L97.0522 65.0951V64.0734V64.0734ZM99.7785 65.3174L99.7632 65.3341L99.6062 65.5018L99.5866 65.5172L99.5628 65.5074L99.2391 65.4249H99.2223L99.214 65.3998C99.0542 65.0183 98.6479 64.6143 98.6479 64.1056V64.0832L98.6732 64.0734C98.9393 63.9505 99.1312 63.9338 99.2728 63.991C99.4228 64.0482 99.4969 64.1825 99.5557 64.339C99.6566 64.6465 99.6566 65.0699 99.7715 65.2852L99.7785 65.3174ZM99.3625 63.1763L99.3484 63.2042L99.3205 63.1971L98.6899 63.1203L98.6396 63.1106L98.6479 63.0616C98.8076 62.4326 98.8889 61.787 99.3793 61.2126L99.3905 61.1971H99.4129C99.5783 61.1971 99.7632 61.2378 99.8864 61.337C100.013 61.4361 100.062 61.6094 99.9285 61.8191C99.7715 62.2859 99.6862 62.7722 99.3625 63.1763ZM100.836 59.063H100.834C100.755 59.5495 100.325 59.9926 99.8458 60.2343C99.4296 60.4747 98.8314 60.4243 98.358 60.5082L98.3412 60.4747C98.3439 60.4718 98.3468 60.4691 98.3495 60.4677C98.3509 60.4677 98.3509 60.4677 98.3524 60.4677C99.3751 59.6654 99.8556 58.191 100.021 57.0826V57.0576L100.045 57.0646C100.609 57.3972 101 58.409 100.836 59.063ZM101.467 64.9945L101.442 65.0183C101.268 65.1943 100.943 65.267 100.703 65.3438L100.668 65.3593L100.651 65.3257C100.412 64.9204 100.245 64.3641 100.329 63.9421L100.336 63.9156L100.352 63.9057C100.81 63.7423 101.049 63.9421 101.167 64.2145C101.292 64.4802 101.334 64.8198 101.442 64.9609L101.467 64.9945ZM100.901 61.5927H100.934C101 61.5927 101.125 61.576 101.234 61.5927C101.349 61.6094 101.458 61.7003 101.449 61.8765V61.8918C101.283 62.3558 101.301 63.0127 100.785 63.1971H100.412V63.1608C100.329 62.5808 100.651 62.0916 100.894 61.6193L100.901 61.5927ZM106.516 63.1692C105.235 63.0895 104.356 62.1294 103.32 61.4111H103.312C103.079 61.063 102.464 60.8995 102.015 60.6815C101.783 60.5669 101.6 60.4411 101.526 60.2595C101.449 60.0847 101.491 59.8527 101.718 59.5536C102.033 58.5251 102.033 57.3412 101.161 56.553L101.151 56.5447V56.5292C101.634 55.0995 101.234 53.2701 99.962 52.2401H99.9537C99.7632 51.9662 99.4045 51.9102 99.0977 51.8082C98.7825 51.709 98.512 51.5622 98.5162 51.1205C98.1996 50.4078 97.4851 49.853 96.8463 49.6111C95.0907 49.1374 93.2709 49.7691 92.15 51.2771V51.2856H92.1388C91.1763 51.2856 90.0598 51.4518 89.3536 52.166H89.3466C88.2329 53.1094 87.8405 54.6188 88.2329 56.0471L88.2398 56.0652L88.2329 56.0708C87.1176 57.0254 86.6357 58.2105 86.5628 59.5621C86.4788 60.5152 87.1176 61.1455 87.2773 61.9505V61.9687L87.2661 61.9757C86.3162 62.8435 85.5219 64.1126 84.317 64.367L84.2595 64.5878C84.2736 64.6576 84.3115 64.7359 84.317 64.8142C85.6774 64.9902 86.3148 66.4242 87.1093 67.292L87.1288 67.3005L87.1093 67.3172C86.5432 67.8706 85.6732 68.2774 85.5975 69.0586V69.0671C85.3243 69.4976 85.5148 69.8622 85.6802 70.2005C85.837 70.5401 85.9604 70.8616 85.5121 71.1438C85.2808 71.6974 85.1996 72.4059 85.4392 72.9509C85.9548 73.2305 85.9814 73.5869 85.889 73.9573C85.7964 74.3332 85.5975 74.7216 85.6802 75.113V75.12C85.6802 75.9055 86.3121 76.5386 86.9439 76.86H86.9607V76.8782C86.878 77.5839 87.2773 78.3777 87.8335 78.7691C88.8548 79.5643 90.3679 79.0081 91.4915 78.7691H91.5084C91.6569 78.8683 91.8124 78.9633 91.9692 79.0542C92.0169 79.0836 92.0659 79.11 92.115 79.1381C92.2326 79.2009 92.3532 79.2639 92.4751 79.3253C92.5269 79.349 92.5816 79.3771 92.6333 79.4023C92.7833 79.4721 92.9361 79.5349 93.0901 79.6006C93.1139 79.6105 93.1363 79.6188 93.1587 79.6273C93.3367 79.6971 93.5161 79.7613 93.6967 79.8173C93.7542 79.8355 93.8102 79.8508 93.8663 79.8663C93.9994 79.9095 94.1353 79.9458 94.2711 79.9795C94.3328 79.9948 94.3959 80.0088 94.4589 80.0241C94.6103 80.0577 94.7643 80.0884 94.9157 80.1136C94.9577 80.122 94.9969 80.1303 95.0375 80.1373C95.228 80.1666 95.4214 80.1891 95.6119 80.2073C95.6693 80.21 95.7254 80.2142 95.7815 80.217C95.923 80.2282 96.0644 80.231 96.206 80.2338C96.2704 80.2352 96.3334 80.2352 96.398 80.2352C96.566 80.2323 96.7299 80.2253 96.8952 80.2142C96.9317 80.2086 96.9695 80.2086 97.006 80.2059C97.2006 80.1863 97.3968 80.1583 97.5901 80.1247C97.6448 80.1136 97.6953 80.101 97.7471 80.0927C97.897 80.0605 98.0441 80.0241 98.1898 79.9836C98.2445 79.9683 98.3004 79.9543 98.3551 79.9347C98.5456 79.8774 98.7334 79.8103 98.9169 79.732C100.525 77.9641 103.33 79.0863 105.474 78.6867V69.3871C104.605 69.1607 103.725 69.5548 102.924 69.2319H102.915V69.2152C102.915 68.1041 102.596 67.1509 102.114 66.1978L102.107 66.1811L102.122 66.1712C103.162 65.6905 104.12 65.1356 105.076 64.4159L105.079 64.4172C105.286 64.1335 105.783 64.0902 106.163 63.984C106.346 63.9338 106.505 63.8582 106.579 63.7352C106.653 63.6179 106.645 63.4459 106.516 63.1692ZM89.0173 76.3946L89.0146 76.3792V76.3946H89.0173ZM86.7772 74.9523L86.7618 74.9635L86.7772 74.9565C86.7772 74.9565 86.7772 74.9538 86.7772 74.9523ZM95.8935 74.881L95.9076 74.8978L95.8964 74.881C95.895 74.881 95.895 74.881 95.8935 74.881ZM100.611 75.5993L100.613 75.6036L100.618 75.6092L100.613 75.5993C100.613 75.5993 100.613 75.5993 100.611 75.5993ZM100.452 66.6618L100.461 66.645L100.45 66.6591C100.452 66.6591 100.452 66.6591 100.452 66.6618ZM96.8519 75.4359L96.8364 75.426L96.8505 75.4372C96.8519 75.4359 96.8519 75.4359 96.8519 75.4359ZM96.8546 75.4372L96.8687 75.426L96.8519 75.4359C96.8519 75.4359 96.8519 75.4359 96.8546 75.4372ZM99.3317 77.1129L99.3484 77.1185L99.3317 77.1116V77.1129ZM87.2578 61.9604L87.2661 61.9757L87.2605 61.9589C87.2578 61.9589 87.2578 61.9604 87.2578 61.9604ZM87.1008 67.3005L87.1093 67.292L87.1008 67.3005ZM87.0979 67.3032L87.1093 67.3172L87.1008 67.3005C87.0994 67.3019 87.0979 67.3032 87.0979 67.3032ZM98.931 79.746L98.9281 79.7405L98.931 79.746ZM101.411 74.1599L101.426 74.1655L101.414 74.1599H101.411ZM85.6647 75.12L85.6802 75.113L85.662 75.1158C85.662 75.1158 85.6647 75.1172 85.6647 75.12ZM91.4971 78.7845L91.5084 78.7691L91.4944 78.783L91.4971 78.7845ZM102.369 64.6716L102.338 64.7037L102.369 64.6744V64.6716ZM103.327 61.4027L103.312 61.4111L103.323 61.4041L103.327 61.4027ZM89.3354 52.1507L89.3466 52.166L89.3368 52.1492C89.3368 52.1507 89.3368 52.1507 89.3354 52.1507ZM87.2578 61.9561C87.2578 61.9561 87.2605 61.9575 87.2605 61.9589L87.2773 61.9505L87.2578 61.9561ZM99.9676 52.2288L99.962 52.2401L99.9705 52.2275L99.9676 52.2288ZM101.167 56.5348L101.161 56.553L101.17 56.5362C101.168 56.5362 101.167 56.5348 101.167 56.5348ZM103.571 63.0769L103.594 63.0364L103.57 63.0742L103.571 63.0769ZM97.3352 63.0769L97.3702 63.1036L97.3394 63.0769C97.3352 63.0769 97.3352 63.0769 97.3352 63.0769ZM97.0915 62.9918L97.0522 62.9763L97.09 62.9918H97.0915ZM97.3311 63.0769L97.3184 63.1106L97.3352 63.0769H97.3311ZM98.054 55.0995L98.0652 55.0842L98.0511 55.0995H98.054ZM98.208 65.3089L98.2416 65.2767L98.208 65.3048V65.3089ZM105.485 69.3718H105.491H105.486H105.485ZM99.2476 65.3858L99.2391 65.4249L99.2517 65.3843L99.2476 65.3858ZM99.8864 61.7939H99.892H99.8864ZM98.6899 63.0769C98.6899 63.0769 98.6899 63.0769 98.6899 63.0755L98.6479 63.0616L98.6899 63.0769ZM99.4129 61.2378L99.3793 61.2126L99.4129 61.2405C99.4129 61.2391 99.4129 61.2391 99.4129 61.2378ZM96.5324 61.7968L96.5703 61.8024L96.531 61.7926L96.5324 61.7968ZM98.6899 63.0769V63.1203L98.6928 63.0769H98.6899ZM96.3125 60.4411V60.4243L96.311 60.4369L96.3125 60.4411ZM90.0542 66.6618L90.0443 66.701L90.0569 66.6632C90.0569 66.6632 90.0556 66.6632 90.0542 66.6618ZM90.0542 66.6591L90.0192 66.645L90.0542 66.6618C90.0542 66.6603 90.0542 66.6603 90.0542 66.6591ZM95.5728 55.7172L95.5558 55.7159L95.5728 55.7229V55.7172ZM91.7367 63.7129L91.7396 63.7506V63.7086L91.7367 63.7129ZM93.893 65.8638L93.876 65.9057L93.8942 65.8652C93.893 65.8638 93.893 65.8638 93.893 65.8638ZM94.6144 65.8652L94.6242 65.9057L94.6172 65.8638C94.6159 65.8638 94.6144 65.8652 94.6144 65.8652ZM91.3347 66.4242L91.3571 66.462L91.3347 66.4242ZM95.1748 52.8634L95.1566 52.8704L95.1721 52.8675L95.1748 52.8634ZM96.5786 54.0359L96.5618 54.0317L96.5786 54.0373V54.0359ZM93.1798 64.5878L93.2204 64.5961L93.1798 64.5878ZM93.1798 64.5878L93.1868 64.5473L93.1756 64.5863L93.1798 64.5878ZM105.485 78.7035C105.486 78.7035 105.491 78.702 105.491 78.702H105.485V78.7035ZM96.6109 68.4185L96.6179 68.4242L96.6165 68.4158C96.6137 68.4158 96.6137 68.4172 96.6109 68.4185Z" fill="#F5F5F5"/>
<path d="M77.6004 89.9048C77.2927 89.9048 77.0432 89.656 77.0432 89.3489V40.6681C77.0432 40.361 77.2927 40.1122 77.6004 40.1122C77.9082 40.1122 78.1577 40.361 78.1577 40.6681V89.3489C78.1577 89.656 77.9082 89.9048 77.6004 89.9048Z" fill="#F5F5F5"/>
</svg>
