<svg width="770" height="420" viewBox="0 0 770 420" fill="none" xmlns="http://www.w3.org/2000/svg">
<g clip-path="url(#clip0)">
<path d="M46.7925 34.6503C46.7925 40.232 45.3273 44.302 42.3969 46.8603C39.513 49.4186 35.6291 50.6977 30.7451 50.6977C27.9542 50.6977 25.582 50.2558 23.6284 49.3721C21.6748 48.4883 20.0934 47.3487 18.884 45.9533C17.6746 44.5578 16.7908 42.9996 16.2327 41.2786C15.6745 39.5111 15.3954 37.7668 15.3954 36.0458V35.348L16.0931 34.6503H24.4657L25.1634 35.348V36.0458C25.1634 37.8133 25.5588 39.3017 26.3495 40.5111C27.1868 41.7205 28.652 42.3252 30.7451 42.3252C31.6289 42.3252 32.4429 42.2321 33.1871 42.0461C33.9778 41.8135 34.6523 41.4414 35.2105 40.9297C35.7686 40.4181 36.2105 39.7204 36.5361 38.8366C36.8617 37.9063 37.0245 36.7435 37.0245 35.348V1.85784L37.7222 1.16013H46.0948L46.7925 1.85784V34.6503ZM97.0142 31.1618C97.0142 37.4877 95.3396 42.3252 91.9906 45.6742C88.6416 49.0232 83.8041 50.6977 77.4782 50.6977C71.1523 50.6977 66.3148 49.0232 62.9658 45.6742C59.6168 42.3252 57.9423 37.4877 57.9423 31.1618V1.85784L58.64 1.16013H67.0125L67.7102 1.85784V31.1618C67.7102 34.6503 68.4545 37.3947 69.9429 39.3948C71.4779 41.3484 73.9896 42.3252 77.4782 42.3252C80.9668 42.3252 83.4553 41.3484 84.9437 39.3948C86.4787 37.3947 87.2462 34.6503 87.2462 31.1618V1.85784L87.9439 1.16013H96.3164L97.0142 1.85784V31.1618ZM145.835 36.0458C145.835 37.9528 145.463 39.7901 144.719 41.5577C143.974 43.3252 142.788 44.8834 141.16 46.2324C139.579 47.5813 137.509 48.6743 134.951 49.5116C132.392 50.3023 129.276 50.6977 125.601 50.6977C122.113 50.6977 119.089 50.3023 116.531 49.5116C114.019 48.6743 111.926 47.5347 110.252 46.0928C108.577 44.6509 107.344 42.9531 106.554 40.9995C105.763 39.0459 105.368 36.9295 105.368 34.6503L106.065 33.9526H114.438L115.136 34.6503C115.136 37.0691 115.95 38.9529 117.578 40.3018C119.206 41.6507 122.113 42.3252 126.299 42.3252C129.462 42.3252 131.881 41.8135 133.555 40.7902C135.23 39.7204 136.067 38.1389 136.067 36.0458C136.067 34.8364 135.858 33.8131 135.439 32.9758C135.067 32.1386 134.392 31.4408 133.416 30.8827C132.485 30.3245 131.206 29.8594 129.578 29.4873C127.997 29.0686 125.973 28.6965 123.508 28.3709C121.089 27.9988 118.81 27.4871 116.671 26.8359C114.531 26.1847 112.67 25.301 111.089 24.1846C109.554 23.0683 108.321 21.6496 107.391 19.9286C106.507 18.2076 106.065 16.1377 106.065 13.719C106.065 11.9514 106.414 10.2769 107.112 8.69543C107.856 7.11394 108.996 5.71852 110.531 4.50915C112.066 3.25327 114.019 2.27647 116.391 1.57876C118.764 0.834531 121.601 0.462417 124.904 0.462417C128.206 0.462417 131.043 0.834531 133.416 1.57876C135.788 2.32298 137.741 3.3463 139.276 4.64869C140.811 5.95109 141.928 7.50931 142.625 9.32337C143.37 11.0909 143.742 13.0212 143.742 15.1144L143.044 15.8121H134.672L133.974 15.1144C133.974 14.0446 133.811 13.1375 133.485 12.3933C133.206 11.6026 132.695 10.9514 131.95 10.4397C131.206 9.88153 130.206 9.48616 128.95 9.25359C127.694 8.97451 126.113 8.83497 124.206 8.83497C121.089 8.83497 118.903 9.30011 117.647 10.2304C116.438 11.1607 115.833 12.3235 115.833 13.719C115.833 14.7423 116.019 15.626 116.391 16.3703C116.81 17.1145 117.485 17.7424 118.415 18.2541C119.392 18.7657 120.694 19.2076 122.322 19.5797C123.95 19.9519 125.973 20.324 128.392 20.6961C130.857 21.0217 133.137 21.5566 135.23 22.3008C137.369 23.045 139.207 24.0218 140.742 25.2312C142.323 26.4406 143.556 27.929 144.44 29.6966C145.37 31.4641 145.835 33.5805 145.835 36.0458ZM189.12 9.53268H175.166L174.468 10.2304V49.3023L173.771 50H165.398L164.7 49.3023V10.2304L164.003 9.53268H150.048L149.351 8.83497V1.85784L150.048 1.16013H189.12L189.818 1.85784V8.83497L189.12 9.53268ZM205.874 50H197.501L196.803 49.3023V1.85784L197.501 1.16013H205.874L206.571 1.85784V49.3023L205.874 50ZM238.652 42.3252C241.443 42.3252 243.699 41.7903 245.42 40.7204C247.188 39.6041 248.42 37.8133 249.118 35.348L249.816 34.6503H258.188L258.886 35.348C258.188 40.2785 256.049 44.0694 252.467 46.7208C248.886 49.3721 244.281 50.6977 238.652 50.6977C234.838 50.6977 231.443 50.093 228.466 48.8837C225.535 47.6278 223.047 45.8835 221 43.6508C219 41.4181 217.489 38.7668 216.465 35.6969C215.442 32.627 214.93 29.2547 214.93 25.5801C214.93 21.9054 215.442 18.5332 216.465 15.4632C217.489 12.3933 219 9.74199 221 7.50931C223.047 5.27663 225.535 3.55561 228.466 2.34624C231.443 1.09036 234.838 0.462417 238.652 0.462417C241.443 0.462417 244.002 0.811273 246.327 1.50898C248.653 2.16018 250.676 3.11372 252.397 4.36961C254.165 5.62549 255.607 7.16046 256.723 8.97451C257.84 10.7886 258.561 12.8352 258.886 15.1144L258.188 15.8121H249.816L249.118 15.1144C247.723 10.9281 244.234 8.83497 238.652 8.83497C236.234 8.83497 234.141 9.25359 232.373 10.0908C230.606 10.9281 229.14 12.091 227.977 13.5794C226.861 15.0213 226.024 16.7656 225.466 18.8123C224.954 20.8589 224.698 23.1148 224.698 25.5801C224.698 27.9988 224.954 30.2547 225.466 32.3479C226.024 34.3945 226.861 36.162 227.977 37.6505C229.14 39.0924 230.606 40.232 232.373 41.0693C234.141 41.9065 236.234 42.3252 238.652 42.3252ZM300.746 50H267.954L267.256 49.3023V1.85784L267.954 1.16013H300.746L301.444 1.85784V8.83497L300.746 9.53268H277.722L277.024 10.2304V19.9984L277.722 20.6961H299.351L300.048 21.3938V28.3709L299.351 29.0686H277.722L277.024 29.7663V40.9297L277.722 41.6275H300.746L301.444 42.3252V49.3023L300.746 50ZM349.578 42.3252C352.369 42.3252 354.625 41.7903 356.346 40.7204C358.113 39.6041 359.346 37.8133 360.044 35.348L360.741 34.6503H369.114L369.812 35.348C369.114 40.2785 366.974 44.0694 363.393 46.7208C359.811 49.3721 355.206 50.6977 349.578 50.6977C345.764 50.6977 342.368 50.093 339.391 48.8837C336.461 47.6278 333.972 45.8835 331.926 43.6508C329.926 41.4181 328.414 38.7668 327.391 35.6969C326.367 32.627 325.856 29.2547 325.856 25.5801C325.856 21.9054 326.367 18.5332 327.391 15.4632C328.414 12.3933 329.926 9.74199 331.926 7.50931C333.972 5.27663 336.461 3.55561 339.391 2.34624C342.368 1.09036 345.764 0.462417 349.578 0.462417C352.369 0.462417 354.927 0.811273 357.253 1.50898C359.578 2.16018 361.602 3.11372 363.323 4.36961C365.09 5.62549 366.532 7.16046 367.649 8.97451C368.765 10.7886 369.486 12.8352 369.812 15.1144L369.114 15.8121H360.741L360.044 15.1144C358.648 10.9281 355.16 8.83497 349.578 8.83497C347.159 8.83497 345.066 9.25359 343.298 10.0908C341.531 10.9281 340.066 12.091 338.903 13.5794C337.787 15.0213 336.949 16.7656 336.391 18.8123C335.879 20.8589 335.624 23.1148 335.624 25.5801C335.624 27.9988 335.879 30.2547 336.391 32.3479C336.949 34.3945 337.787 36.162 338.903 37.6505C340.066 39.0924 341.531 40.232 343.298 41.0693C345.066 41.9065 347.159 42.3252 349.578 42.3252ZM410.276 50H378.879L378.181 49.3023V1.85784L378.879 1.16013H387.252L387.949 1.85784V40.9297L388.647 41.6275H410.276L410.974 42.3252V49.3023L410.276 50ZM426.294 50H417.921L417.223 49.3023V1.85784L417.921 1.16013H426.294L426.991 1.85784V49.3023L426.294 50ZM489.772 50H481.399L480.701 49.3023V22.0915H480.004L468.84 49.3023L468.143 50H460.468L459.77 49.3023L448.607 22.0915H447.909V49.3023L447.211 50H438.839L438.141 49.3023V1.85784L438.839 1.16013H449.304L450.002 1.85784L463.956 36.0458H464.654L478.608 1.85784L479.306 1.16013H489.772L490.469 1.85784V49.3023L489.772 50ZM539.32 50H533.041L532.343 49.3023L528.855 40.232L527.459 39.5343H510.016L508.621 40.232L505.132 49.3023L504.435 50H498.155L497.457 49.3023V42.3252L513.505 1.85784L514.203 1.16013H523.273L523.971 1.85784L540.018 42.3252V49.3023L539.32 50ZM519.087 13.719H518.389L512.109 30.4641L512.807 31.1618H524.668L525.366 30.4641L519.087 13.719ZM578.449 9.53268H564.495L563.797 10.2304V49.3023L563.1 50H554.727L554.029 49.3023V10.2304L553.332 9.53268H539.377L538.68 8.83497V1.85784L539.377 1.16013H578.449L579.147 1.85784V8.83497L578.449 9.53268ZM595.203 50H586.83L586.132 49.3023V1.85784L586.83 1.16013H595.203L595.9 1.85784V49.3023L595.203 50ZM604.259 25.5801C604.259 21.9054 604.771 18.5332 605.794 15.4632C606.818 12.3933 608.329 9.74199 610.329 7.50931C612.376 5.27663 614.864 3.55561 617.795 2.34624C620.772 1.09036 624.167 0.462417 627.981 0.462417C631.842 0.462417 635.238 1.09036 638.168 2.34624C641.098 3.55561 643.564 5.27663 645.564 7.50931C647.61 9.74199 649.145 12.3933 650.169 15.4632C651.192 18.5332 651.704 21.9054 651.704 25.5801C651.704 28.743 651.401 31.3943 650.797 33.534C650.238 35.6736 649.611 37.4412 648.913 38.8366V40.232L651.006 42.3252V49.3023L650.308 50H645.424L642.633 47.2092H641.936C640.168 48.279 638.098 49.1395 635.726 49.7907C633.354 50.3954 630.772 50.6977 627.981 50.6977C624.167 50.6977 620.772 50.093 617.795 48.8837C614.864 47.6278 612.376 45.8835 610.329 43.6508C608.329 41.4181 606.818 38.7668 605.794 35.6969C604.771 32.627 604.259 29.2547 604.259 25.5801ZM614.027 25.5801C614.027 27.9988 614.283 30.2547 614.795 32.3479C615.353 34.3945 616.19 36.162 617.306 37.6505C618.469 39.0924 619.935 40.232 621.702 41.0693C623.47 41.9065 625.563 42.3252 627.981 42.3252C629.749 42.3252 631.168 42.1856 632.238 41.9065C633.354 41.6275 634.261 41.3019 634.959 40.9297V39.5343L629.377 33.9526H622.4L621.702 33.2549V26.9755L622.4 26.2778H634.261L635.656 26.9755L640.54 31.8595H641.238C641.61 30.7897 641.819 29.7431 641.866 28.7198C641.912 27.6965 641.936 26.6499 641.936 25.5801C641.936 23.1148 641.657 20.8589 641.098 18.8123C640.587 16.7656 639.75 15.0213 638.587 13.5794C637.47 12.091 636.028 10.9281 634.261 10.0908C632.54 9.25359 630.447 8.83497 627.981 8.83497C625.563 8.83497 623.47 9.25359 621.702 10.0908C619.935 10.9281 618.469 12.091 617.306 13.5794C616.19 15.0213 615.353 16.7656 614.795 18.8123C614.283 20.8589 614.027 23.1148 614.027 25.5801ZM699.132 31.1618C699.132 37.4877 697.457 42.3252 694.108 45.6742C690.759 49.0232 685.922 50.6977 679.596 50.6977C673.27 50.6977 668.432 49.0232 665.083 45.6742C661.734 42.3252 660.06 37.4877 660.06 31.1618V1.85784L660.758 1.16013H669.13L669.828 1.85784V31.1618C669.828 34.6503 670.572 37.3947 672.061 39.3948C673.596 41.3484 676.107 42.3252 679.596 42.3252C683.084 42.3252 685.573 41.3484 687.061 39.3948C688.596 37.3947 689.364 34.6503 689.364 31.1618V1.85784L690.062 1.16013H698.434L699.132 1.85784V31.1618ZM743.766 50H710.974L710.276 49.3023V1.85784L710.974 1.16013H743.766L744.464 1.85784V8.83497L743.766 9.53268H720.742L720.044 10.2304V19.9984L720.742 20.6961H742.371L743.069 21.3938V28.3709L742.371 29.0686H720.742L720.044 29.7663V40.9297L720.742 41.6275H743.766L744.464 42.3252V49.3023L743.766 50Z" fill="#F5F5F5"/>
<path d="M38.5801 332.694C48.348 332.694 55.3252 337.578 55.3252 346.649C55.3252 355.719 48.348 360.603 38.5801 360.603C28.8121 360.603 21.835 355.719 21.835 346.649C21.835 337.578 28.8121 332.694 38.5801 332.694ZM38.5801 322.926C23.9281 322.926 13.4624 331.997 13.4624 346.649C13.4624 361.301 23.9281 370.371 38.5801 370.371C53.232 370.371 63.6977 361.301 63.6977 346.649C63.6977 331.997 53.232 322.926 38.5801 322.926ZM14.8578 275.498L14.1601 276.196L14.1601 284.569L14.8578 285.266L44.1618 285.266C51.1389 285.266 55.3252 288.057 55.3252 295.034C55.3252 302.011 51.1389 304.802 44.1618 304.802L14.8578 304.802L14.1601 305.5L14.1601 313.873L14.8578 314.57L44.1618 314.57C56.7206 314.57 63.6977 307.593 63.6977 295.034C63.6977 282.475 56.7206 275.498 44.1618 275.498L14.8578 275.498ZM62.3023 254.586L14.8578 254.586L14.1601 255.284L14.1601 263.656L14.8578 264.354L62.3023 264.354L63 263.656L63 255.284L62.3023 254.586ZM62.3023 186.938L55.3252 186.938L14.8578 202.985L14.1601 203.683L14.1601 212.753L14.8578 213.451L55.3252 229.498L62.3023 229.498L63 228.801L63 222.521L62.3023 221.824L53.232 218.335L52.5343 216.94L52.5343 199.497L53.232 198.101L62.3023 194.613L63 193.915L63 187.636L62.3023 186.938ZM43.4641 201.59L44.1618 202.288L44.1618 214.149L43.4641 214.846L26.719 208.567L26.719 207.869L43.4641 201.59ZM9.27614 200.892L7.88072 200.892L0.903594 207.869L0.205882 209.265L0.205882 216.242L0.903594 216.94L2.29902 216.94L9.27614 209.265L9.97385 207.869L9.97386 201.59L9.27614 200.892ZM62.3023 129.017L55.3252 129.017L54.6275 129.715L54.6275 151.344L53.9297 152.041L14.8578 152.041L14.1601 152.739L14.1601 161.112L14.8578 161.809L62.3023 161.809L63 161.112L63 129.715L62.3023 129.017ZM62.3023 83.0306L55.3252 83.0306L14.8578 99.078L14.1601 99.7757L14.1601 108.846L14.8578 109.544L55.3252 125.591L62.3023 125.591L63 124.893L63 118.614L62.3023 117.916L53.232 114.428L52.5343 113.032L52.5343 95.5894L53.232 94.194L62.3023 90.7054L63 90.0077L63 83.7283L62.3023 83.0306ZM43.4641 97.6825L44.1618 98.3803L44.1618 110.241L43.4641 110.939L26.719 104.66L26.719 103.962L43.4641 97.6825Z" fill="#F5F5F5"/>
</g>
<defs>
<clipPath id="clip0">
<rect width="770" height="420" fill="white"/>
</clipPath>
</defs>
</svg>
