<svg width="770" height="420" viewBox="0 0 770 420" fill="none" xmlns="http://www.w3.org/2000/svg">
<path d="M755.2 376.084C757.068 376.084 758.868 376.448 760.6 377.178C762.332 377.907 763.858 379.069 765.18 380.664C766.502 382.213 767.573 384.241 768.393 386.748C769.168 389.254 769.555 392.307 769.555 395.907C769.555 399.325 769.168 402.287 768.393 404.794C767.573 407.255 766.456 409.305 765.043 410.946C763.631 412.587 761.967 413.794 760.053 414.569C758.139 415.344 756.066 415.731 753.833 415.731L753.149 415.047L753.149 406.845L753.833 406.161C756.202 406.161 758.048 405.364 759.37 403.769C760.691 402.174 761.352 399.325 761.352 395.224C761.352 392.125 760.851 389.755 759.848 388.115C758.8 386.474 757.251 385.654 755.2 385.654C754.015 385.654 753.012 385.859 752.192 386.269C751.372 386.634 750.688 387.294 750.141 388.251C749.595 389.163 749.139 390.416 748.774 392.011C748.364 393.56 748 395.543 747.681 397.958C747.316 400.328 746.815 402.561 746.177 404.657C745.539 406.753 744.673 408.576 743.579 410.126C742.485 411.63 741.095 412.837 739.409 413.749C737.723 414.615 735.695 415.047 733.326 415.047C731.594 415.047 729.953 414.706 728.404 414.022C726.854 413.293 725.487 412.176 724.302 410.673C723.072 409.169 722.115 407.255 721.431 404.931C720.702 402.606 720.338 399.827 720.338 396.591C720.338 393.355 720.702 390.576 721.431 388.251C722.16 385.927 723.163 384.013 724.439 382.509C725.715 381.006 727.242 379.912 729.019 379.228C730.751 378.499 732.642 378.135 734.693 378.135L735.376 378.818L735.376 387.021L734.693 387.705C733.645 387.705 732.756 387.864 732.027 388.183C731.252 388.456 730.614 388.958 730.113 389.687C729.566 390.416 729.179 391.396 728.951 392.626C728.677 393.857 728.541 395.406 728.541 397.275C728.541 400.328 728.996 402.47 729.908 403.7C730.819 404.885 731.958 405.477 733.326 405.477C734.328 405.477 735.194 405.295 735.923 404.931C736.652 404.52 737.267 403.86 737.769 402.948C738.27 401.991 738.703 400.715 739.068 399.12C739.432 397.525 739.797 395.543 740.161 393.173C740.48 390.758 741.004 388.525 741.733 386.474C742.463 384.378 743.42 382.578 744.604 381.074C745.789 379.524 747.248 378.317 748.979 377.451C750.711 376.54 752.785 376.084 755.2 376.084ZM750.415 329.59C756.613 329.59 761.352 331.231 764.633 334.512C767.914 337.793 769.555 342.532 769.555 348.73C769.555 354.928 767.914 359.667 764.633 362.948C761.352 366.23 756.613 367.87 750.415 367.87L721.705 367.87L721.021 367.187L721.021 358.984L721.705 358.3L750.415 358.3C753.833 358.3 756.521 357.571 758.481 356.113C760.395 354.609 761.352 352.148 761.352 348.73C761.352 345.312 760.395 342.874 758.481 341.416C756.521 339.912 753.833 339.16 750.415 339.16L721.705 339.16L721.021 338.477L721.021 330.274L721.705 329.59L750.415 329.59ZM735.376 279.024C737.245 279.024 738.954 279.298 740.503 279.845C742.007 280.392 743.351 281.143 744.536 282.1C745.675 283.057 746.632 284.151 747.407 285.382C748.136 286.612 748.683 287.911 749.048 289.278L749.731 289.278L761.352 280.392L768.188 280.392L768.871 281.075L768.871 285.177L768.188 286.544L750.415 300.215L749.731 301.582L749.731 308.418L750.415 309.102L768.188 309.102L768.871 309.785L768.871 317.988L768.188 318.672L721.705 318.672L721.021 317.988L721.021 295.43C721.021 293.015 721.317 290.805 721.91 288.799C722.502 286.794 723.414 285.085 724.644 283.673C725.829 282.214 727.31 281.075 729.087 280.255C730.865 279.435 732.961 279.024 735.376 279.024ZM735.376 288.594C732.961 288.594 731.343 289.232 730.523 290.508C729.657 291.739 729.224 293.379 729.224 295.43L729.224 308.418L729.908 309.102L740.845 309.102L741.528 308.418L741.528 295.43C741.528 293.379 741.118 291.739 740.298 290.508C739.432 289.232 737.792 288.594 735.376 288.594ZM768.871 221.607L768.871 252.368L768.188 253.051L721.705 253.051L721.021 252.368L721.021 244.165L721.705 243.481L759.985 243.481L760.668 242.798L760.668 221.607L761.352 220.923L768.188 220.923L768.871 221.607ZM768.871 181.989L768.871 214.117L768.188 214.801L721.705 214.801L721.021 214.117L721.021 181.989L721.705 181.305L728.541 181.305L729.224 181.989L729.224 204.547L729.908 205.231L739.478 205.231L740.161 204.547L740.161 183.356L740.845 182.673L747.681 182.673L748.364 183.356L748.364 204.547L749.048 205.231L759.985 205.231L760.668 204.547L760.668 181.989L761.352 181.305L768.188 181.305L768.871 181.989ZM761.352 134.147C761.352 131.413 760.828 129.202 759.78 127.516C758.686 125.785 756.932 124.577 754.516 123.893L753.833 123.21L753.833 115.007L754.516 114.323C759.347 115.007 763.061 117.103 765.659 120.612C768.256 124.121 769.555 128.633 769.555 134.147C769.555 137.884 768.962 141.21 767.778 144.127C766.547 146.998 764.838 149.436 762.651 151.441C760.463 153.401 757.866 154.882 754.858 155.885C751.85 156.887 748.546 157.388 744.946 157.388C741.346 157.388 738.042 156.887 735.034 155.885C732.027 154.882 729.429 153.401 727.242 151.441C725.054 149.436 723.368 146.998 722.183 144.127C720.953 141.21 720.338 137.884 720.338 134.147C720.338 131.413 720.679 128.906 721.363 126.628C722.001 124.349 722.935 122.367 724.166 120.68C725.396 118.949 726.9 117.536 728.677 116.442C730.455 115.349 732.46 114.642 734.693 114.323L735.376 115.007L735.376 123.21L734.693 123.893C730.591 125.26 728.541 128.678 728.541 134.147C728.541 136.517 728.951 138.567 729.771 140.299C730.591 142.031 731.731 143.466 733.189 144.606C734.602 145.699 736.31 146.52 738.316 147.066C740.321 147.568 742.531 147.818 744.946 147.818C747.316 147.818 749.526 147.568 751.577 147.066C753.582 146.52 755.314 145.699 756.772 144.606C758.185 143.466 759.301 142.031 760.122 140.299C760.942 138.567 761.352 136.517 761.352 134.147ZM744.946 71.9444C742.531 71.9444 740.321 72.2406 738.316 72.833C736.31 73.4255 734.602 74.3141 733.189 75.499C731.731 76.6383 730.591 78.051 729.771 79.7371C728.951 81.4233 728.541 83.3829 728.541 85.6159C728.541 87.8489 728.951 89.8084 729.771 91.4946C730.591 93.1807 731.731 94.6162 733.189 95.8011C734.602 96.9404 736.31 97.8062 738.316 98.3987C740.321 98.9911 742.531 99.2873 744.946 99.2873C747.316 99.2873 749.526 98.9911 751.577 98.3987C753.582 97.8062 755.314 96.9404 756.772 95.8011C758.185 94.6162 759.301 93.1807 760.122 91.4946C760.942 89.8084 761.352 87.8489 761.352 85.6159C761.352 83.3829 760.942 81.4233 760.122 79.7371C759.301 78.051 758.185 76.6383 756.772 75.499C755.314 74.3141 753.582 73.4255 751.577 72.833C749.526 72.2406 747.316 71.9444 744.946 71.9444ZM744.946 62.3744C748.546 62.3744 751.85 62.9212 754.858 64.0149C757.866 65.0631 760.463 66.5897 762.651 68.5949C764.838 70.6 766.547 73.0381 767.778 75.9091C768.962 78.7801 769.555 82.0157 769.555 85.6159C769.555 89.216 768.962 92.4516 767.778 95.3226C766.547 98.1936 764.838 100.632 762.651 102.637C760.463 104.642 757.866 106.191 754.858 107.285C751.85 108.333 748.546 108.857 744.946 108.857C741.346 108.857 738.042 108.333 735.034 107.285C732.027 106.191 729.429 104.642 727.242 102.637C725.054 100.632 723.368 98.1936 722.183 95.3226C720.953 92.4516 720.338 89.216 720.338 85.6159C720.338 82.0157 720.953 78.7801 722.183 75.9091C723.368 73.0381 725.054 70.6 727.242 68.5949C729.429 66.5897 732.027 65.0631 735.034 64.0149C738.042 62.9212 741.346 62.3744 744.946 62.3744ZM768.871 24.1103L768.871 56.2382L768.188 56.9218L760.668 56.9218L759.301 56.2382L749.048 43.9339C747.316 41.8832 745.835 40.2426 744.604 39.0122C743.328 37.7362 742.189 36.7564 741.187 36.0728C740.138 35.3892 739.159 34.9335 738.247 34.7057C737.336 34.4778 736.379 34.3639 735.376 34.3639C733.326 34.3639 731.685 34.888 730.455 35.9361C729.179 36.9387 728.541 38.4653 728.541 40.516C728.541 43.2503 729.179 45.0732 730.455 45.9846C731.685 46.8961 733.326 47.3518 735.376 47.3518L736.06 48.0354L736.06 56.2382L735.376 56.9218C733.508 56.9218 731.685 56.6484 729.908 56.1015C728.085 55.5547 726.467 54.6432 725.054 53.3672C723.642 52.0456 722.502 50.3367 721.636 48.2404C720.771 46.1441 720.338 43.5693 720.338 40.516C720.338 37.964 720.748 35.7082 721.568 33.7487C722.343 31.7891 723.391 30.1485 724.713 28.8269C726.034 27.5054 727.561 26.5028 729.292 25.8192C731.024 25.1356 732.824 24.7939 734.693 24.7939C736.561 24.7939 738.27 25.0217 739.819 25.4774C741.323 25.8876 742.782 26.5711 744.194 27.5282C745.607 28.4852 747.02 29.6928 748.432 31.1511C749.845 32.6094 751.417 34.3639 753.149 36.4146L759.985 44.6175L760.668 44.6175L760.668 24.1103L761.352 23.4267L768.188 23.4267L768.871 24.1103Z" fill="#F5F5F5"/>
<path d="M317.9 395.055C317.9 392.64 317.604 390.43 317.011 388.424C316.419 386.419 315.53 384.71 314.345 383.298C313.206 381.839 311.793 380.7 310.107 379.88C308.421 379.059 306.461 378.649 304.228 378.649C301.995 378.649 300.036 379.059 298.35 379.88C296.663 380.7 295.228 381.839 294.043 383.298C292.904 384.71 292.038 386.419 291.446 388.424C290.853 390.43 290.557 392.64 290.557 395.055C290.557 397.425 290.853 399.635 291.446 401.686C292.038 403.691 292.904 405.423 294.043 406.881C295.228 408.294 296.663 409.41 298.35 410.23C300.036 411.051 301.995 411.461 304.228 411.461C306.461 411.461 308.421 411.051 310.107 410.23C311.793 409.41 313.206 408.294 314.345 406.881C315.53 405.423 316.419 403.691 317.011 401.686C317.604 399.635 317.9 397.425 317.9 395.055ZM327.47 395.055C327.47 398.655 326.923 401.959 325.829 404.967C324.781 407.975 323.254 410.572 321.249 412.76C319.244 414.947 316.806 416.656 313.935 417.886C311.064 419.071 307.829 419.664 304.228 419.664C300.628 419.664 297.393 419.071 294.522 417.886C291.651 416.656 289.213 414.947 287.207 412.76C285.202 410.572 283.653 407.975 282.559 404.967C281.511 401.959 280.987 398.655 280.987 395.055C280.987 391.455 281.511 388.151 282.559 385.143C283.653 382.135 285.202 379.538 287.207 377.35C289.213 375.163 291.651 373.477 294.522 372.292C297.393 371.062 300.628 370.446 304.228 370.446C307.829 370.446 311.064 371.062 313.935 372.292C316.806 373.477 319.244 375.163 321.249 377.35C323.254 379.538 324.781 382.135 325.829 385.143C326.923 388.151 327.47 391.455 327.47 395.055ZM373.937 400.524C373.937 406.721 372.296 411.461 369.015 414.742C365.734 418.023 360.994 419.664 354.797 419.664C348.599 419.664 343.86 418.023 340.578 414.742C337.297 411.461 335.657 406.721 335.657 400.524V371.814L336.34 371.13H344.543L345.227 371.814V400.524C345.227 403.941 345.956 406.63 347.414 408.59C348.918 410.504 351.379 411.461 354.797 411.461C358.215 411.461 360.653 410.504 362.111 408.59C363.615 406.63 364.367 403.941 364.367 400.524V371.814L365.05 371.13H373.253L373.937 371.814V400.524ZM393.742 418.98H385.539L384.855 418.297V371.814L385.539 371.13H393.742L394.425 371.814V418.297L393.742 418.98ZM460.019 418.98H453.867L453.183 418.297L449.765 409.41L448.398 408.727H431.309L429.942 409.41L426.524 418.297L425.84 418.98H419.688L419.005 418.297V411.461L434.727 371.814L435.41 371.13H444.297L444.98 371.814L460.703 411.461V418.297L460.019 418.98ZM440.195 383.434H439.512L433.36 399.84L434.043 400.524H445.664L446.348 399.84L440.195 383.434ZM446.348 367.029H440.195L438.828 366.345L431.309 359.509V358.142L431.992 357.459H438.828L440.195 358.142L447.031 364.978V366.345L446.348 367.029ZM516.766 418.98H486.005L485.322 418.297V371.814L486.005 371.13H494.208L494.892 371.814V410.094L495.575 410.777H516.766L517.45 411.461V418.297L516.766 418.98ZM561.821 418.98H555.669L554.985 418.297L551.567 409.41L550.2 408.727H533.111L531.743 409.41L528.326 418.297L527.642 418.98H521.49L520.806 418.297V411.461L536.528 371.814L537.212 371.13H546.098L546.782 371.814L562.504 411.461V418.297L561.821 418.98ZM541.997 383.434H541.313L535.161 399.84L535.845 400.524H547.466L548.149 399.84L541.997 383.434ZM618.568 418.98H587.807L587.124 418.297V371.814L587.807 371.13H596.01L596.694 371.814V410.094L597.377 410.777H618.568L619.252 411.461V418.297L618.568 418.98ZM658.218 395.055C658.218 392.64 657.922 390.43 657.329 388.424C656.737 386.419 655.848 384.71 654.663 383.298C653.524 381.839 652.111 380.7 650.425 379.88C648.739 379.059 646.779 378.649 644.546 378.649C642.313 378.649 640.354 379.059 638.668 379.88C636.982 380.7 635.546 381.839 634.361 383.298C633.222 384.71 632.356 386.419 631.764 388.424C631.171 390.43 630.875 392.64 630.875 395.055C630.875 397.425 631.171 399.635 631.764 401.686C632.356 403.691 633.222 405.423 634.361 406.881C635.546 408.294 636.982 409.41 638.668 410.23C640.354 411.051 642.313 411.461 644.546 411.461C646.779 411.461 648.739 411.051 650.425 410.23C652.111 409.41 653.524 408.294 654.663 406.881C655.848 405.423 656.737 403.691 657.329 401.686C657.922 399.635 658.218 397.425 658.218 395.055ZM667.788 395.055C667.788 398.655 667.241 401.959 666.147 404.967C665.099 407.975 663.573 410.572 661.567 412.76C659.562 414.947 657.124 416.656 654.253 417.886C651.382 419.071 648.147 419.664 644.546 419.664C640.946 419.664 637.711 419.071 634.84 417.886C631.969 416.656 629.531 414.947 627.525 412.76C625.52 410.572 623.971 407.975 622.877 404.967C621.829 401.959 621.305 398.655 621.305 395.055C621.305 391.455 621.829 388.151 622.877 385.143C623.971 382.135 625.52 379.538 627.525 377.35C629.531 375.163 631.969 373.477 634.84 372.292C637.711 371.062 640.946 370.446 644.546 370.446C648.147 370.446 651.382 371.062 654.253 372.292C657.124 373.477 659.562 375.163 661.567 377.35C663.573 379.538 665.099 382.135 666.147 385.143C667.241 388.151 667.788 391.455 667.788 395.055ZM684.861 418.98H676.658L675.975 418.297V371.814L676.658 371.13H684.861L685.545 371.814V418.297L684.861 418.98Z" fill="#F5F5F5"/>
</svg>
