<svg width="276" height="61" viewBox="0 0 276 61" fill="none" xmlns="http://www.w3.org/2000/svg">
<path d="M81.552 14.0398C79.842 14.0398 78.474 14.5978 77.34 15.7318C76.26 16.8298 75.702 18.4138 75.702 20.3398C75.702 24.0838 78.024 26.6218 81.462 26.6218C84.9 26.6218 87.222 24.0658 87.222 20.3218C87.222 16.6318 84.882 14.0398 81.552 14.0398ZM81.516 15.8218C83.676 15.8218 85.116 17.6218 85.116 20.3038C85.116 23.0578 83.694 24.8398 81.498 24.8398C79.248 24.8398 77.808 23.0758 77.808 20.3038C77.808 17.5498 79.248 15.8218 81.516 15.8218ZM96.6315 17.6398H94.7055V21.9058C94.7055 22.8958 94.6335 23.4178 94.4355 23.8138C94.0755 24.5518 93.3915 24.9658 92.5635 24.9658C91.9335 24.9658 91.4475 24.7498 91.1775 24.3538C90.9615 24.0298 90.9075 23.6518 90.9075 22.6078V17.6398H88.9815V23.2198C88.9815 24.3538 89.1435 25.0198 89.5395 25.5238C90.0615 26.2078 90.9075 26.5678 91.9515 26.5678C93.1935 26.5678 94.0395 26.1178 94.8315 25.0378V26.3338H96.6315V17.6398ZM100.824 14.3278H98.8977V16.1458H100.824V14.3278ZM100.824 17.6398H98.8977V26.3338H100.824V17.6398ZM109.093 20.3398C109.255 19.2238 109.759 18.8278 111.037 18.8278C112.189 18.8278 112.819 19.2238 112.819 19.9618V20.1418V20.2858C112.819 20.9158 112.567 21.0418 110.803 21.2578C108.751 21.5098 108.427 21.5998 107.797 22.0858C107.221 22.5178 106.915 23.1838 106.915 23.9938C106.915 25.5778 108.049 26.5858 109.831 26.5858C111.127 26.5858 112.081 26.2618 112.909 25.5418C113.017 26.2438 113.485 26.5858 114.313 26.5858C114.655 26.5858 114.997 26.5318 115.555 26.3878V25.0378C115.357 25.0738 115.267 25.0738 115.141 25.0738C114.691 25.0738 114.637 24.9478 114.637 23.8318L114.709 19.8898C114.709 18.2698 113.449 17.4058 111.091 17.4058C108.733 17.4058 107.455 18.3958 107.293 20.3398H109.093ZM112.801 23.0218C112.801 23.7778 112.765 24.0118 112.621 24.2638C112.297 24.8218 111.379 25.2178 110.461 25.2178C109.471 25.2178 108.859 24.7138 108.859 23.9038C108.859 23.6158 109.003 23.2198 109.201 23.0218C109.453 22.7338 109.867 22.5898 110.767 22.4638C112.117 22.3018 112.333 22.2478 112.801 21.9958V23.0218ZM109.075 13.8598L111.091 16.3978H112.351L111.163 13.8598H109.075ZM123.499 14.3278H121.573V26.3338H123.499V14.3278ZM127.269 20.3398C127.431 19.2238 127.935 18.8278 129.213 18.8278C130.365 18.8278 130.995 19.2238 130.995 19.9618V20.1418V20.2858C130.995 20.9158 130.743 21.0418 128.979 21.2578C126.927 21.5098 126.603 21.5998 125.973 22.0858C125.397 22.5178 125.091 23.1838 125.091 23.9938C125.091 25.5778 126.225 26.5858 128.007 26.5858C129.303 26.5858 130.257 26.2618 131.085 25.5418C131.193 26.2438 131.661 26.5858 132.489 26.5858C132.831 26.5858 133.173 26.5318 133.731 26.3878V25.0378C133.533 25.0738 133.443 25.0738 133.317 25.0738C132.867 25.0738 132.813 24.9478 132.813 23.8318L132.885 19.8898C132.885 18.2698 131.625 17.4058 129.267 17.4058C126.909 17.4058 125.631 18.3958 125.469 20.3398H127.269ZM130.977 23.0218C130.977 23.7778 130.941 24.0118 130.797 24.2638C130.473 24.8218 129.555 25.2178 128.637 25.2178C127.647 25.2178 127.035 24.7138 127.035 23.9038C127.035 23.6158 127.179 23.2198 127.377 23.0218C127.629 22.7338 128.043 22.5898 128.943 22.4638C130.293 22.3018 130.509 22.2478 130.977 21.9958V23.0218ZM141.675 17.6398H139.749V26.0998C139.749 27.5218 139.713 27.7378 139.497 27.9178C139.299 28.0798 138.885 28.1158 138.291 28.0618V29.6098C139.839 29.8078 140.865 29.5018 141.333 28.7098C141.603 28.2418 141.675 27.7918 141.675 26.4598V17.6398ZM141.675 14.3278H139.749V16.1458H141.675V14.3278ZM151.493 17.6398H149.567V21.9058C149.567 22.8958 149.495 23.4178 149.297 23.8138C148.937 24.5518 148.253 24.9658 147.425 24.9658C146.795 24.9658 146.309 24.7498 146.039 24.3538C145.823 24.0298 145.769 23.6518 145.769 22.6078V17.6398H143.843V23.2198C143.843 24.3538 144.005 25.0198 144.401 25.5238C144.923 26.2078 145.769 26.5678 146.813 26.5678C148.055 26.5678 148.901 26.1178 149.693 25.0378V26.3338H151.493V17.6398ZM160.365 20.1598C160.293 19.3498 160.131 18.9178 159.753 18.4678C159.141 17.7658 158.115 17.4058 156.729 17.4058C154.497 17.4058 153.183 18.3598 153.183 19.9798C153.183 20.7898 153.561 21.4738 154.227 21.8338C154.731 22.1218 154.983 22.1938 156.711 22.6078C158.385 22.9858 158.799 23.2558 158.799 23.9038C158.799 24.6598 158.061 25.1458 156.927 25.1458C155.595 25.1458 154.947 24.6598 154.821 23.5438H152.985C153.093 25.5418 154.407 26.5678 156.891 26.5678C159.231 26.5678 160.689 25.4698 160.689 23.7238C160.689 23.0038 160.365 22.3378 159.825 21.9598C159.285 21.5818 158.601 21.3298 157.305 21.0598C155.433 20.6638 155.091 20.4658 155.091 19.8178C155.091 19.1878 155.667 18.8098 156.657 18.8098C157.845 18.8098 158.403 19.2058 158.529 20.1598H160.365ZM166.367 17.6398H164.621V15.0298H162.695V17.6398H161.237V19.0438H162.695V23.1838C162.695 24.8578 162.731 25.1998 162.965 25.5958C163.289 26.1898 163.901 26.4238 165.071 26.4238C165.557 26.4238 165.881 26.4058 166.367 26.3518V24.8398C166.097 24.8758 165.935 24.8938 165.773 24.8938C164.729 24.8938 164.621 24.7678 164.621 23.6158V19.0438H166.367V17.6398ZM169.888 14.3278H167.962V16.1458H169.888V14.3278ZM169.888 17.6398H167.962V26.3338H169.888V17.6398ZM177.996 23.0758C177.816 24.3358 177.06 25.0378 175.89 25.0378C174.432 25.0378 173.568 23.9038 173.568 21.9958C173.568 20.0878 174.468 18.9358 175.962 18.9358C177.024 18.9358 177.708 19.5118 177.924 20.5738H179.832C179.616 18.5758 178.176 17.4058 175.944 17.4058C173.298 17.4058 171.624 19.2238 171.624 22.0678C171.624 24.8218 173.28 26.5678 175.89 26.5678C178.122 26.5678 179.598 25.2718 179.886 23.0758H177.996ZM187.348 23.6158C186.952 24.6958 186.358 25.1458 185.278 25.1458C183.784 25.1458 182.938 24.1918 182.866 22.4458H189.292C189.31 21.3658 189.184 20.5738 188.896 19.8718C188.266 18.3058 186.88 17.4058 185.17 17.4058C182.704 17.4058 180.958 19.3498 180.958 22.0858C180.958 24.7858 182.65 26.5678 185.242 26.5678C187.276 26.5678 188.734 25.4698 189.184 23.6158H187.348ZM182.902 21.1678C183.1 19.6378 183.874 18.8278 185.152 18.8278C186.43 18.8278 187.258 19.7098 187.384 21.1678H182.902ZM201.357 23.0758C201.177 24.3358 200.421 25.0378 199.251 25.0378C197.793 25.0378 196.929 23.9038 196.929 21.9958C196.929 20.0878 197.829 18.9358 199.323 18.9358C200.385 18.9358 201.069 19.5118 201.285 20.5738H203.193C202.977 18.5758 201.537 17.4058 199.305 17.4058C196.659 17.4058 194.985 19.2238 194.985 22.0678C194.985 24.8218 196.641 26.5678 199.251 26.5678C201.483 26.5678 202.959 25.2718 203.247 23.0758H201.357ZM206.767 14.3278H204.841V26.3338H206.767V14.3278ZM210.951 14.3278H209.025V16.1458H210.951V14.3278ZM210.951 17.6398H209.025V26.3338H210.951V17.6398ZM214.99 17.6398H213.19V26.3338H215.116V21.6718C215.116 20.9518 215.17 20.4838 215.314 20.1418C215.62 19.4398 216.304 19.0078 217.096 19.0078C218.14 19.0078 218.536 19.5298 218.536 20.8978V26.3338H220.462V21.6718C220.462 20.8258 220.498 20.4298 220.642 20.1238C220.912 19.4218 221.56 19.0078 222.37 19.0078C223 19.0078 223.486 19.2598 223.702 19.6918C223.846 19.9258 223.9 20.3578 223.9 21.0058V26.3338H225.826V20.4118C225.826 19.5298 225.682 18.9898 225.358 18.5038C224.872 17.8018 223.99 17.4058 222.982 17.4058C221.776 17.4058 220.93 17.8558 220.174 18.8818C219.688 17.8738 218.932 17.4058 217.744 17.4058C216.574 17.4058 215.8 17.8018 214.99 18.8638V17.6398ZM229.556 20.3398C229.718 19.2238 230.222 18.8278 231.5 18.8278C232.652 18.8278 233.282 19.2238 233.282 19.9618V20.1418V20.2858C233.282 20.9158 233.03 21.0418 231.266 21.2578C229.214 21.5098 228.89 21.5998 228.26 22.0858C227.684 22.5178 227.378 23.1838 227.378 23.9938C227.378 25.5778 228.512 26.5858 230.294 26.5858C231.59 26.5858 232.544 26.2618 233.372 25.5418C233.48 26.2438 233.948 26.5858 234.776 26.5858C235.118 26.5858 235.46 26.5318 236.018 26.3878V25.0378C235.82 25.0738 235.73 25.0738 235.604 25.0738C235.154 25.0738 235.1 24.9478 235.1 23.8318L235.172 19.8898C235.172 18.2698 233.912 17.4058 231.554 17.4058C229.196 17.4058 227.918 18.3958 227.756 20.3398H229.556ZM233.264 23.0218C233.264 23.7778 233.228 24.0118 233.084 24.2638C232.76 24.8218 231.842 25.2178 230.924 25.2178C229.934 25.2178 229.322 24.7138 229.322 23.9038C229.322 23.6158 229.466 23.2198 229.664 23.0218C229.916 22.7338 230.33 22.5898 231.23 22.4638C232.58 22.3018 232.796 22.2478 233.264 21.9958V23.0218ZM241.46 17.6398H239.714V15.0298H237.788V17.6398H236.33V19.0438H237.788V23.1838C237.788 24.8578 237.824 25.1998 238.058 25.5958C238.382 26.1898 238.994 26.4238 240.164 26.4238C240.65 26.4238 240.974 26.4058 241.46 26.3518V24.8398C241.19 24.8758 241.028 24.8938 240.866 24.8938C239.822 24.8938 239.714 24.7678 239.714 23.6158V19.0438H241.46V17.6398ZM244.982 14.3278H243.056V16.1458H244.982V14.3278ZM244.982 17.6398H243.056V26.3338H244.982V17.6398ZM255.357 17.6398H253.557V18.7918C252.945 17.8378 252.063 17.4058 250.713 17.4058C248.265 17.4058 246.753 19.1698 246.753 22.0318C246.753 24.8218 248.229 26.5678 250.605 26.5678C251.883 26.5678 252.765 26.1358 253.431 25.1638V29.5558H255.357V17.6398ZM251.109 18.9358C252.585 18.9358 253.503 20.0878 253.503 21.9418C253.503 23.8858 252.603 25.0378 251.073 25.0378C249.597 25.0378 248.697 23.9038 248.697 22.0498C248.697 20.0878 249.597 18.9358 251.109 18.9358ZM265.188 17.6398H263.262V21.9058C263.262 22.8958 263.19 23.4178 262.992 23.8138C262.632 24.5518 261.948 24.9658 261.12 24.9658C260.49 24.9658 260.004 24.7498 259.734 24.3538C259.518 24.0298 259.464 23.6518 259.464 22.6078V17.6398H257.538V23.2198C257.538 24.3538 257.7 25.0198 258.096 25.5238C258.618 26.2078 259.464 26.5678 260.508 26.5678C261.75 26.5678 262.596 26.1178 263.388 25.0378V26.3338H265.188V17.6398ZM273.322 23.6158C272.926 24.6958 272.332 25.1458 271.252 25.1458C269.758 25.1458 268.912 24.1918 268.84 22.4458H275.266C275.284 21.3658 275.158 20.5738 274.87 19.8718C274.24 18.3058 272.854 17.4058 271.144 17.4058C268.678 17.4058 266.932 19.3498 266.932 22.0858C266.932 24.7858 268.624 26.5678 271.216 26.5678C273.25 26.5678 274.708 25.4698 275.158 23.6158H273.322ZM268.876 21.1678C269.074 19.6378 269.848 18.8278 271.126 18.8278C272.404 18.8278 273.232 19.7098 273.358 21.1678H268.876Z" fill="#F5F5F5"/>
<path d="M81.552 35.0478C79.842 35.0478 78.474 35.6058 77.34 36.7398C76.26 37.8378 75.702 39.4218 75.702 41.3478C75.702 45.0918 78.024 47.6298 81.462 47.6298C84.9 47.6298 87.222 45.0738 87.222 41.3298C87.222 37.6398 84.882 35.0478 81.552 35.0478ZM81.516 36.8298C83.676 36.8298 85.116 38.6298 85.116 41.3118C85.116 44.0658 83.694 45.8478 81.498 45.8478C79.248 45.8478 77.808 44.0838 77.808 41.3118C77.808 38.5578 79.248 36.8298 81.516 36.8298ZM96.6315 38.6478H94.7055V42.9138C94.7055 43.9038 94.6335 44.4258 94.4355 44.8218C94.0755 45.5598 93.3915 45.9738 92.5635 45.9738C91.9335 45.9738 91.4475 45.7578 91.1775 45.3618C90.9615 45.0378 90.9075 44.6598 90.9075 43.6158V38.6478H88.9815V44.2278C88.9815 45.3618 89.1435 46.0278 89.5395 46.5318C90.0615 47.2158 90.9075 47.5758 91.9515 47.5758C93.1935 47.5758 94.0395 47.1258 94.8315 46.0458V47.3418H96.6315V38.6478ZM100.824 35.3358H98.8977V37.1538H100.824V35.3358ZM100.824 38.6478H98.8977V47.3418H100.824V38.6478ZM109.093 41.3478C109.255 40.2318 109.759 39.8358 111.037 39.8358C112.189 39.8358 112.819 40.2318 112.819 40.9698V41.1498V41.2938C112.819 41.9238 112.567 42.0498 110.803 42.2658C108.751 42.5178 108.427 42.6078 107.797 43.0938C107.221 43.5258 106.915 44.1918 106.915 45.0018C106.915 46.5858 108.049 47.5938 109.831 47.5938C111.127 47.5938 112.081 47.2698 112.909 46.5498C113.017 47.2518 113.485 47.5938 114.313 47.5938C114.655 47.5938 114.997 47.5398 115.555 47.3958V46.0458C115.357 46.0818 115.267 46.0818 115.141 46.0818C114.691 46.0818 114.637 45.9558 114.637 44.8398L114.709 40.8978C114.709 39.2778 113.449 38.4138 111.091 38.4138C108.733 38.4138 107.455 39.4038 107.293 41.3478H109.093ZM112.801 44.0298C112.801 44.7858 112.765 45.0198 112.621 45.2718C112.297 45.8298 111.379 46.2258 110.461 46.2258C109.471 46.2258 108.859 45.7218 108.859 44.9118C108.859 44.6238 109.003 44.2278 109.201 44.0298C109.453 43.7418 109.867 43.5978 110.767 43.4718C112.117 43.3098 112.333 43.2558 112.801 43.0038V44.0298ZM109.075 34.8678L111.091 37.4058H112.351L111.163 34.8678H109.075ZM123.499 35.3358H121.573V47.3418H123.499V35.3358ZM127.269 41.3478C127.431 40.2318 127.935 39.8358 129.213 39.8358C130.365 39.8358 130.995 40.2318 130.995 40.9698V41.1498V41.2938C130.995 41.9238 130.743 42.0498 128.979 42.2658C126.927 42.5178 126.603 42.6078 125.973 43.0938C125.397 43.5258 125.091 44.1918 125.091 45.0018C125.091 46.5858 126.225 47.5938 128.007 47.5938C129.303 47.5938 130.257 47.2698 131.085 46.5498C131.193 47.2518 131.661 47.5938 132.489 47.5938C132.831 47.5938 133.173 47.5398 133.731 47.3958V46.0458C133.533 46.0818 133.443 46.0818 133.317 46.0818C132.867 46.0818 132.813 45.9558 132.813 44.8398L132.885 40.8978C132.885 39.2778 131.625 38.4138 129.267 38.4138C126.909 38.4138 125.631 39.4038 125.469 41.3478H127.269ZM130.977 44.0298C130.977 44.7858 130.941 45.0198 130.797 45.2718C130.473 45.8298 129.555 46.2258 128.637 46.2258C127.647 46.2258 127.035 45.7218 127.035 44.9118C127.035 44.6238 127.179 44.2278 127.377 44.0298C127.629 43.7418 128.043 43.5978 128.943 43.4718C130.293 43.3098 130.509 43.2558 130.977 43.0038V44.0298ZM141.675 35.3358H139.749V47.3418H141.675V35.3358ZM147.875 38.4138C145.139 38.4138 143.411 40.1958 143.411 43.0038C143.411 45.7938 145.139 47.5758 147.821 47.5758C150.521 47.5758 152.195 45.8298 152.195 43.0038C152.195 40.2138 150.503 38.4138 147.875 38.4138ZM147.839 39.9438C149.315 39.9438 150.251 41.1138 150.251 42.9858C150.251 44.8938 149.351 46.0458 147.839 46.0458C146.273 46.0458 145.355 44.9118 145.355 43.0038C145.355 41.0958 146.291 39.9438 147.839 39.9438ZM155.861 35.3358H153.935V37.1538H155.861V35.3358ZM155.861 38.6478H153.935V47.3418H155.861V38.6478ZM169.224 41.1678C169.152 40.3578 168.99 39.9258 168.612 39.4758C168 38.7738 166.974 38.4138 165.588 38.4138C163.356 38.4138 162.042 39.3678 162.042 40.9878C162.042 41.7978 162.42 42.4818 163.086 42.8418C163.59 43.1298 163.842 43.2018 165.57 43.6158C167.244 43.9938 167.658 44.2638 167.658 44.9118C167.658 45.6678 166.92 46.1538 165.786 46.1538C164.454 46.1538 163.806 45.6678 163.68 44.5518H161.844C161.952 46.5498 163.266 47.5758 165.75 47.5758C168.09 47.5758 169.548 46.4778 169.548 44.7318C169.548 44.0118 169.224 43.3458 168.684 42.9678C168.144 42.5898 167.46 42.3378 166.164 42.0678C164.292 41.6718 163.95 41.4738 163.95 40.8258C163.95 40.1958 164.526 39.8178 165.516 39.8178C166.704 39.8178 167.262 40.2138 167.388 41.1678H169.224ZM178.827 38.6478H176.901V42.9138C176.901 43.9038 176.829 44.4258 176.631 44.8218C176.271 45.5598 175.587 45.9738 174.759 45.9738C174.129 45.9738 173.643 45.7578 173.373 45.3618C173.157 45.0378 173.103 44.6598 173.103 43.6158V38.6478H171.177V44.2278C171.177 45.3618 171.339 46.0278 171.735 46.5318C172.257 47.2158 173.103 47.5758 174.147 47.5758C175.389 47.5758 176.235 47.1258 177.027 46.0458V47.3418H178.827V38.6478ZM186.169 38.4678C186.007 38.4498 185.881 38.4498 185.827 38.4498C184.477 38.4498 183.559 39.0438 182.875 40.3758V38.6478H181.075V47.3418H183.001V43.8498C183.001 42.6798 183.091 42.0318 183.325 41.5638C183.703 40.7898 184.513 40.2678 185.359 40.2678C185.701 40.2678 185.863 40.2858 186.169 40.3218V38.4678ZM193.689 35.3358H191.763V47.3418H193.689V35.3358ZM201.815 44.6238C201.419 45.7038 200.825 46.1538 199.745 46.1538C198.251 46.1538 197.405 45.1998 197.333 43.4538H203.759C203.777 42.3738 203.651 41.5818 203.363 40.8798C202.733 39.3138 201.347 38.4138 199.637 38.4138C197.171 38.4138 195.425 40.3578 195.425 43.0938C195.425 45.7938 197.117 47.5758 199.709 47.5758C201.743 47.5758 203.201 46.4778 203.651 44.6238H201.815ZM197.369 42.1758C197.567 40.6458 198.341 39.8358 199.619 39.8358C200.897 39.8358 201.725 40.7178 201.851 42.1758H197.369ZM218.254 42.7518C218.002 44.7858 216.94 45.8478 215.176 45.8478C213.016 45.8478 211.63 44.1018 211.63 41.3298C211.63 40.2858 211.9 39.2058 212.35 38.4138C212.98 37.3518 213.916 36.8298 215.194 36.8298C216.778 36.8298 217.876 37.6938 218.164 39.1518H220.252C220.18 38.2518 219.82 37.4238 219.172 36.7038C218.182 35.5878 216.886 35.0478 215.23 35.0478C211.864 35.0478 209.524 37.6218 209.524 41.3298C209.524 45.1278 211.756 47.6298 215.122 47.6298C216.832 47.6298 218.11 47.0898 219.1 45.9558C219.838 45.0738 220.27 43.9758 220.342 42.7518H218.254ZM227.45 35.0478C225.74 35.0478 224.372 35.6058 223.238 36.7398C222.158 37.8378 221.6 39.4218 221.6 41.3478C221.6 45.0918 223.922 47.6298 227.36 47.6298C230.798 47.6298 233.12 45.0738 233.12 41.3298C233.12 37.6398 230.78 35.0478 227.45 35.0478ZM227.414 36.8298C229.574 36.8298 231.014 38.6298 231.014 41.3118C231.014 44.0658 229.592 45.8478 227.396 45.8478C225.146 45.8478 223.706 44.0838 223.706 41.3118C223.706 38.5578 225.146 36.8298 227.414 36.8298ZM242.602 45.6318H238.336L237.346 45.6498L236.824 45.6678C237.112 44.9658 237.922 44.2098 239.38 43.2738C240.658 42.4278 241.144 42.0498 241.594 41.5638C242.278 40.8438 242.62 39.9618 242.62 38.9718C242.62 36.8298 241.09 35.4078 238.786 35.4078C237.472 35.4078 236.392 35.8938 235.708 36.7758C235.078 37.5678 234.844 38.4498 234.844 39.8718H236.698C236.77 37.8378 237.364 37.0278 238.75 37.0278C239.938 37.0278 240.676 37.8018 240.676 39.0438C240.676 39.6198 240.478 40.1778 240.154 40.6098C239.848 40.9878 239.344 41.3658 238.066 42.2298C235.438 43.9578 234.628 45.1098 234.538 47.3418H242.602V45.6318Z" fill="#F5F5F5"/>
<g clip-path="url(#clip0)">
<path d="M40.4913 0C40.4046 0 40.4046 0 40.3179 0C40.2312 0 40.2312 0 40.1445 0C39.9711 0 39.7977 0 39.6243 0.0867052L6.15607 4.76879C5.98266 4.76879 5.80925 4.85549 5.63584 4.85549C5.54913 4.85549 5.54913 4.85549 5.46243 4.85549C5.28902 4.85549 5.20231 4.9422 5.0289 4.9422C4.9422 4.9422 4.9422 4.9422 4.85549 5.0289C4.68208 5.11561 4.50867 5.20231 4.33526 5.28902L4.24856 5.37572C4.07514 5.46243 3.98844 5.54913 3.81503 5.54913C3.72832 5.54913 3.72832 5.63584 3.64162 5.63584C3.55491 5.72254 3.46821 5.80925 3.3815 5.89595C3.3815 5.89595 3.3815 5.89595 3.2948 5.89595C3.12139 6.06936 2.86127 6.24278 2.68786 6.41619C2.60116 6.50289 2.60116 6.50289 2.60116 6.50289C2.42775 6.6763 2.25434 6.84971 2.08093 6.93642L1.99422 7.02312C1.99422 7.02312 1.99422 7.10983 1.90751 7.10983C1.82081 7.28324 1.6474 7.54335 1.56069 7.71676C1.56069 7.71676 1.56069 7.71676 1.47399 7.80347C1.30058 7.97688 1.21387 8.23699 1.04046 8.49711C1.04046 8.49711 1.04046 8.58382 0.953757 8.58382C0.953757 8.67052 0.867052 8.75723 0.867052 8.84393C0.867052 8.93064 0.780347 9.01734 0.780347 9.01734C0.693642 9.19075 0.693642 9.27746 0.606936 9.45087C0.606936 9.53757 0.606936 9.53757 0.520231 9.62428C0.520231 9.71098 0.433526 9.79769 0.433526 9.9711C0.433526 10.0578 0.346821 10.1445 0.346821 10.2312C0.346821 10.3179 0.260116 10.4913 0.260116 10.578C0.260116 10.6647 0.17341 10.7514 0.17341 10.8382C0.17341 11.0116 0.17341 11.0983 0.0867052 11.2717C0.0867052 11.3584 0.0867052 11.4451 0.0867052 11.5318C0.0867052 11.7919 0.0867052 11.9653 0.0867052 12.2254L0 48.2948C0 50.6358 1.12717 52.4566 2.77457 53.4104C6.41619 55.4046 10.0578 57.3988 13.6994 59.3064C13.6994 59.3064 13.6994 59.3064 13.6127 59.3064C14.3931 59.7399 15.1734 60 16.1272 60C16.3873 60 16.6474 60 16.9075 59.9133L50.4624 55.2312C53.7572 54.7977 56.5318 51.4162 56.5318 47.8613L56.6185 11.7052C56.6185 9.27746 55.4046 7.28324 53.4971 6.41619C53.5838 6.41619 53.6705 6.50289 53.7572 6.50289C50.1156 4.59538 46.474 2.60116 42.8324 0.606936C42.7457 0.606936 42.7457 0.520231 42.659 0.520231H42.5723C42.4856 0.433526 42.3988 0.433526 42.2254 0.346821C42.2254 0.346821 42.1387 0.346821 42.1387 0.260116C41.9653 0.17341 41.8786 0.17341 41.7052 0.0867052H41.6185C41.5318 0.0867052 41.3584 0 41.2717 0C41.185 0 41.185 0 41.0983 0C41.0116 0 40.9249 0 40.7514 0C40.6647 0 40.6647 0 40.578 0C40.578 0 40.4913 0 40.4913 0ZM40.4913 1.7341H40.578H40.6647C40.7514 1.7341 40.7514 1.7341 40.8382 1.7341C40.8382 1.7341 40.8382 1.7341 40.9249 1.7341C41.0116 1.7341 41.0983 1.7341 41.185 1.82081H41.2717C41.3584 1.82081 41.4451 1.90751 41.5318 1.90751C41.6185 1.90751 41.6185 1.99422 41.7052 1.99422H41.7919H41.8786C45.4335 3.90173 48.9884 5.89595 52.5434 7.80347C53.8439 8.41041 54.6243 9.79769 54.6243 11.4451L54.5376 47.6012C54.5376 50.289 52.4567 52.8902 50.0289 53.237L16.474 57.9191C16.3006 57.9191 16.1272 57.9191 15.9538 57.9191C15.3468 57.9191 14.8266 57.7457 14.3064 57.4856C11.3584 55.8382 8.3237 54.2775 5.37572 52.6301L3.46821 51.5896C2.51445 51.2428 1.7341 49.9422 1.7341 48.2948L1.82081 12.1387C1.82081 11.9653 1.82081 11.7919 1.82081 11.6185C1.82081 11.5318 1.82081 11.5318 1.82081 11.4451V11.3584C1.82081 11.2717 1.82081 11.185 1.82081 11.0983V11.0116V10.9249V10.8382C1.82081 10.7514 1.82081 10.6647 1.82081 10.6647V10.578V10.4913V10.4046C1.82081 10.3179 1.82081 10.3179 1.82081 10.3179C1.82081 10.3179 1.82081 10.2312 1.90751 10.2312C1.99422 10.0578 1.99422 9.9711 2.08093 9.88439C2.08093 9.88439 2.08092 9.79769 2.16763 9.79769V9.71098C2.16763 9.71098 2.16763 9.62428 2.25434 9.62428C2.25434 9.62428 2.25434 9.53757 2.34104 9.53757C2.42775 9.36416 2.60116 9.19075 2.68786 9.01734C2.68786 9.01734 2.68786 8.93064 2.77457 8.93064C2.86127 8.75723 2.94798 8.67052 3.12139 8.49711C3.12139 8.49711 3.12139 8.49711 3.20809 8.4104L3.2948 8.3237C3.55491 8.06358 3.64162 7.97688 3.72832 7.80347L3.81503 7.71676C3.98844 7.63006 4.16185 7.45665 4.33526 7.36994C4.33526 7.36994 4.42197 7.36994 4.42197 7.28324C4.42197 7.28324 4.42197 7.28324 4.50867 7.28324C4.50867 7.28324 4.59538 7.28324 4.59538 7.19653H4.68208C4.68208 7.19653 4.76879 7.19653 4.76879 7.10983C4.76879 7.02312 4.9422 7.02312 5.0289 6.93642C5.0289 6.93642 5.11561 6.93642 5.11561 6.84971C5.20231 6.84971 5.28902 6.76301 5.46243 6.6763C5.46243 6.6763 5.46243 6.6763 5.54913 6.6763C5.63584 6.6763 5.72254 6.5896 5.80925 6.5896C5.80925 6.5896 5.80925 6.5896 5.89595 6.5896C5.89595 6.5896 5.89595 6.5896 5.98266 6.5896C6.15607 6.5896 6.24278 6.50289 6.32948 6.50289L39.8844 1.82081C39.9711 1.82081 40.0578 1.82081 40.2312 1.82081C40.2312 1.82081 40.2312 1.82081 40.3179 1.82081H40.4046C40.4046 1.7341 40.4046 1.7341 40.4913 1.7341Z" fill="#F5F5F5"/>
<path d="M17.6879 27.052C17.6879 28.3526 16.9075 28.6994 15.7804 28.6994H12.2255L12.1388 28.526V25.4913L12.3122 25.3179H15.8671C16.9942 25.3179 17.6879 25.7515 17.6879 27.052ZM20.3757 27.052C20.3757 24.4509 18.4682 23.1503 15.8671 23.1503H9.71101L9.5376 23.3237V36.0694L9.71101 36.2428H11.9653L12.1388 36.0694V31.2139L12.3122 31.0405H15.8671C18.4682 30.9538 20.3757 29.6532 20.3757 27.052Z" fill="#F5F5F5"/>
<path d="M32.4278 32.4277C32.4278 29.8266 30.3469 28.6994 27.7457 28.3526C25.1445 28.0058 24.3642 27.5722 24.3642 26.4451C24.3642 25.6647 24.8844 25.1445 26.6185 25.1445C28.6995 25.1445 29.2197 25.6647 29.2197 26.7919L29.3931 26.9653H31.6474L31.8209 26.7919C31.8209 24.5376 30.3469 22.8902 26.7919 22.8902C23.237 22.8902 21.763 24.5376 21.763 26.4451C21.763 29.0462 23.844 30 26.4451 30.3468C29.0463 30.6936 29.8266 31.1272 29.8266 32.4277C29.8266 33.5549 28.8729 34.0751 27.2255 34.0751C24.9711 34.0751 24.1908 33.2948 24.1908 31.9942L24.0174 31.8208H21.763L21.5029 32.0809C21.5029 34.5087 23.1503 36.4162 26.9654 36.4162C30.8671 36.4162 32.4278 34.5087 32.4278 32.4277Z" fill="#F5F5F5"/>
<path d="M49.4222 29.3931C48.8152 29.3931 48.3817 28.8728 47.9482 28.6127C47.8615 28.4393 47.5147 28.3526 47.3412 28.2659C47.2545 28.1792 47.1678 28.1792 47.0811 28.0925C47.0811 28.0058 47.0811 27.9191 47.1678 27.7457C47.3412 27.2254 47.3412 26.7052 46.9077 26.3584C47.1678 25.6647 46.9077 24.8844 46.3875 24.3642C46.3008 24.2775 46.1274 24.1908 45.954 24.1908C45.7806 24.1041 45.6938 24.1041 45.6938 23.8439C45.5204 23.4971 45.1736 23.237 44.9135 23.1503C44.1332 22.8902 43.2661 23.237 42.7459 23.9306C42.3123 23.9306 41.7921 24.0173 41.4453 24.3642C40.9251 24.7977 40.7516 25.4913 40.9251 26.185C40.4048 26.6185 40.1447 27.1387 40.1447 27.8324C40.1447 28.2659 40.4048 28.526 40.4915 28.9595C40.058 29.3931 39.7112 29.9133 39.1042 30.0867V30.1734V30.2601C39.7112 30.3468 40.058 31.0405 40.4048 31.3873C40.1447 31.6474 39.7112 31.8208 39.7112 32.1676C39.6245 32.341 39.7112 32.5145 39.7112 32.6879C39.7979 32.8613 39.8846 33.0347 39.6245 33.1214C39.5378 33.3815 39.4511 33.7283 39.6245 33.9884C39.8846 34.1619 39.8846 34.2486 39.7979 34.422C39.7979 34.5954 39.6245 34.7688 39.7112 34.9422C39.7112 35.289 39.9713 35.6358 40.3181 35.7226C40.3181 36.0694 40.4915 36.4162 40.7516 36.5896C41.1852 36.9364 41.9655 36.6763 42.4858 36.5896C42.5725 36.6763 42.6592 36.6763 42.6592 36.763H42.7459C42.8326 36.763 42.8326 36.8497 42.9193 36.8497H43.006C43.0927 36.8497 43.1794 36.9364 43.1794 36.9364C43.2661 36.9364 43.3528 37.0231 43.4395 37.0231H43.5262C43.6129 37.0231 43.6129 37.0231 43.6996 37.1098H43.7863C43.873 37.1098 43.9597 37.1098 43.9597 37.1098C43.9597 37.1098 43.9597 37.1098 44.0464 37.1098C44.1332 37.1098 44.2199 37.1098 44.3066 37.1098H44.3933C44.48 37.1098 44.5667 37.1098 44.5667 37.1098H44.6534C44.7401 37.1098 44.8268 37.1098 44.9135 37.1098C44.9135 37.1098 44.9135 37.1098 45.0002 37.1098C45.0869 37.1098 45.1736 37.1098 45.2603 37.1098H45.347C45.4337 37.1098 45.5204 37.1098 45.5204 37.0231H45.6071C45.6938 37.0231 45.7806 36.9364 45.8673 36.9364C46.6476 36.1561 47.9482 36.6763 48.9019 36.4162V32.0809C48.4684 31.9942 48.1216 32.1676 47.6881 31.9942C47.6881 31.474 47.5147 31.0405 47.3412 30.6069C47.8615 30.3468 48.295 30.0867 48.7285 29.8266C48.8152 29.6532 49.0753 29.6532 49.2488 29.6532C49.3355 29.6532 49.4222 29.5665 49.4222 29.5665C49.5089 29.5665 49.5089 29.4798 49.4222 29.3931ZM46.821 28.6127C46.9077 28.6127 46.9077 28.6127 46.9944 28.6127C47.0811 28.6127 47.0811 28.6994 47.0811 28.7861C46.9944 28.9595 46.9944 29.3064 46.7343 29.3931H46.5609C46.5609 29.133 46.6476 28.8728 46.821 28.6127ZM47.0811 30.2601C46.9944 30.3468 46.821 30.3468 46.7343 30.3468C46.6476 30.1734 46.5609 29.9133 46.5609 29.7399C46.7343 29.6532 46.9077 29.7399 46.9077 29.9133C46.9944 30 46.9944 30.1734 47.0811 30.2601ZM46.7343 27.4856C46.7343 27.7457 46.4742 27.9191 46.3008 28.0058C46.1274 28.0925 45.8673 28.0925 45.6071 28.0925C46.0407 27.7457 46.3008 27.052 46.3875 26.5318C46.6476 26.7052 46.821 27.1387 46.7343 27.4856ZM46.1274 29.3931H45.7805C45.8673 29.133 45.8673 28.7861 46.1274 28.526C46.2141 28.526 46.3008 28.526 46.3875 28.6127C46.4742 28.6994 46.4742 28.6994 46.3875 28.8728C46.3008 28.9595 46.2141 29.2197 46.1274 29.3931ZM46.3008 30.3468L46.2141 30.4335H46.0407C45.954 30.2601 45.7805 30.0867 45.7805 29.8266C45.8673 29.7399 45.954 29.7399 46.0407 29.8266C46.1274 29.8266 46.1274 29.9133 46.2141 30C46.2141 30.0867 46.2141 30.2601 46.3008 30.3468ZM45.0002 29.8266C45.1736 29.8266 45.2603 29.9133 45.347 30C45.4337 30.0867 45.4337 30.2601 45.5204 30.3468H45.4337C45.4337 30.3468 45.4337 30.3468 45.347 30.3468H45.2603C45.2603 30.3468 45.2603 30.3468 45.1736 30.3468H45.0869C45.0869 30.3468 45.0002 30.3468 45.0002 30.2601V29.8266V29.8266ZM45.0002 29.3064C45.0002 29.133 45.0869 28.9595 45.0869 28.7861C45.1736 28.6127 45.2603 28.4393 45.4337 28.4393C45.4337 28.6994 45.2603 29.0462 45.0869 29.3064H45.0002ZM45.2603 27.659C45.1736 27.659 45.0869 27.659 45.0002 27.659H44.9135C44.8268 27.659 44.8268 27.659 44.7401 27.659C44.6534 27.659 44.6534 27.659 44.5667 27.659C44.5667 27.659 44.5667 27.659 44.48 27.659C44.3933 27.659 44.3933 27.659 44.3066 27.659C44.3066 27.659 44.3066 27.659 44.2199 27.659C44.2199 27.659 44.1332 27.659 44.1332 27.5723C44.1332 27.5723 44.1332 27.5723 44.0464 27.5723C44.0464 27.5723 43.9597 27.5723 43.9597 27.4856C43.9597 27.4856 43.9597 27.4856 43.873 27.4856C43.7863 27.4856 43.7863 27.3989 43.6996 27.3989C44.3933 27.1387 45.347 26.7052 45.347 25.7515C45.6938 26.0116 45.6938 26.4451 45.6938 26.8786C45.7806 27.052 45.6938 27.4856 45.2603 27.659ZM44.5667 29.3931H44.2199C44.3066 29.133 44.48 28.7861 44.8268 28.7861C44.7401 28.9595 44.7401 29.2197 44.5667 29.3931ZM44.6534 30C44.48 30.0867 44.3066 30 44.2199 29.8266C44.3066 29.8266 44.3933 29.8266 44.48 29.8266C44.5667 29.8266 44.5667 29.8266 44.5667 29.9133C44.6534 29.8266 44.6534 29.9133 44.6534 30ZM43.5262 28.6994C43.6129 28.6127 43.7863 28.6127 43.9597 28.6127C44.0464 29.2197 43.9597 30 43.9597 30.6069C43.873 30.6069 43.7863 30.6069 43.6996 30.6069H43.6129L43.5262 28.6994ZM43.9597 28.3526C43.873 28.3526 43.873 28.3526 43.9597 28.3526C43.873 28.3526 43.7863 28.3526 43.6996 28.3526H43.6129H43.5262H43.4395H43.3528H43.2661C43.2661 28.3526 43.2661 28.3526 43.1794 28.3526H43.0927C43.0927 28.3526 43.0927 28.3526 43.006 28.3526H42.9193C42.9193 28.3526 42.9193 28.3526 42.8326 28.3526H42.7459C42.7459 28.3526 42.6592 28.3526 42.6592 28.2659L42.5725 28.1792C41.9655 27.8324 41.9655 27.052 42.0522 26.4451C42.0522 26.2717 42.1389 26.0983 42.2256 25.9249C42.4858 26.4451 42.6592 27.1387 43.1794 27.4856C43.6996 27.8324 44.2199 28.0925 44.8268 28.2659C44.7401 28.2659 44.6534 28.3526 44.6534 28.3526C44.5667 28.3526 44.48 28.4393 44.3933 28.4393C44.1332 28.2659 44.0464 28.2659 43.9597 28.3526ZM42.1389 29.7399C41.9655 29.4798 41.9655 29.2197 41.8788 28.9595C42.1389 28.9595 42.2256 29.0463 42.3123 29.2197C42.399 29.3931 42.4858 29.5665 42.5725 29.6532L42.1389 29.7399ZM42.399 30.8671L42.3123 30.9538H42.2256H42.1389H42.0522C42.0522 30.9538 42.0522 30.9538 41.9655 30.9538H41.8788C41.9655 30.6936 41.8788 30.2601 42.0522 30H42.2256L42.399 30.8671ZM42.5725 30C42.7459 30 43.006 29.9133 43.2661 30C43.2661 30.2601 43.006 30.4335 42.8326 30.6069C42.6592 30.5202 42.5725 30.2601 42.5725 30ZM42.7459 29.133C42.9193 29.2197 43.0927 29.3931 43.1794 29.5665C43.1794 29.6532 43.0927 29.6532 43.0927 29.5665H43.006L42.7459 29.133ZM44.1332 24.6243C44.2199 24.6243 44.48 24.7977 44.48 25.0578C44.3933 25.2312 44.1332 25.3179 43.9597 25.3179C44.0464 25.0578 44.2199 24.7977 44.1332 24.6243ZM44.3066 25.9249C44.3933 25.6647 44.6534 25.4046 44.7401 25.1445L44.8268 24.8844C44.9135 25.1445 45.0002 25.578 44.9135 25.8382C44.8268 25.9249 44.48 25.9249 44.3066 25.9249ZM45.6938 24.4509L46.1274 24.6243C46.4742 24.8844 46.5609 25.578 46.5609 26.0116C46.3008 25.9249 46.1274 25.6647 45.954 25.4046C45.6938 25.0578 45.2603 24.6243 44.9135 24.3642C45.0869 24.3642 45.5204 24.4509 45.6938 24.4509ZM44.2199 23.4971C44.48 23.4971 44.7401 23.4971 44.9135 23.5838C45.0002 23.6705 45.0869 23.8439 45.1736 24.0173C45.0002 24.0173 44.8268 24.1908 44.6534 24.2775C44.2199 24.2775 43.5262 23.8439 43.0927 24.2775C43.1794 23.8439 43.6996 23.4971 44.2199 23.4971ZM43.6129 25.1445C43.4395 25.0578 43.1794 24.7977 43.2661 24.6243C43.3528 24.5376 43.6996 24.5376 43.873 24.5376C43.873 24.6243 43.6996 24.9711 43.6129 25.1445ZM42.8326 25.0578L43.006 24.8844C43.0927 25.0578 43.3528 25.3179 43.6129 25.4046C43.873 25.4913 44.0464 25.4913 44.3066 25.4913C44.2199 25.6647 43.9597 25.8382 43.7863 25.8382C43.4395 25.6647 43.006 25.4046 42.8326 25.0578ZM44.6534 26.3584C44.6534 26.4451 44.5667 26.4451 44.5667 26.4451C44.5667 26.4451 44.5667 26.4451 44.48 26.4451C44.48 26.4451 44.3933 26.4451 44.3933 26.5318C44.3933 26.5318 44.3933 26.5318 44.3066 26.5318C44.3066 26.5318 44.2199 26.5318 44.2199 26.6185C44.2199 26.6185 44.2199 26.6185 44.1332 26.6185C44.1332 26.6185 44.0464 26.6185 44.0464 26.7052C43.9597 26.7052 43.9597 26.7052 43.873 26.7919H43.7863C43.7863 26.7919 43.7863 26.7919 43.6996 26.7919C43.6996 26.7919 43.6996 26.7919 43.6129 26.7919C43.6129 26.7919 43.6129 26.7919 43.5262 26.7919C43.5262 26.7919 43.5262 26.7919 43.4395 26.7919C43.3528 26.7919 43.3528 26.7919 43.2661 26.7919C42.6592 26.6185 42.4858 26.0116 42.4858 25.4913C43.1794 26.0116 43.7863 26.3584 44.6534 26.3584ZM41.3586 25.4046C41.4453 24.9711 41.6187 24.5376 42.1389 24.3642C42.3123 24.3642 42.5725 24.2775 42.6592 24.4509C42.2256 24.7977 41.8788 25.4913 41.532 25.8382C41.4453 25.8382 41.4453 25.7515 41.3586 25.6647C41.3586 25.578 41.3586 25.4046 41.3586 25.4046ZM41.3586 26.3584C41.2719 27.052 41.4453 27.7457 41.8788 28.1792C42.0522 28.3526 42.3123 28.4393 42.4858 28.6127C42.4858 28.6127 42.399 28.6127 42.399 28.6994C42.399 28.6994 42.3123 28.6994 42.3123 28.7861H42.2256H42.1389H42.0522C41.532 28.7861 41.0118 28.4393 40.8384 28.0058C40.5782 27.3989 40.9251 26.6185 41.3586 26.3584ZM41.3586 31.0405C41.1852 31.0405 41.0118 31.0405 40.9251 30.9538L41.1852 30.1734H41.3586C41.4453 30.3468 41.3586 30.7804 41.3586 31.0405ZM41.4453 29.7399C41.3586 29.6532 41.3586 29.6532 41.4453 29.7399C41.3586 29.6532 41.3586 29.6532 41.4453 29.7399C41.3586 29.6532 41.3586 29.6532 41.2719 29.6532C41.1852 29.5665 41.0118 29.3931 40.9251 29.3064C41.0985 29.133 41.2719 29.0463 41.4453 28.9595C41.532 29.2197 41.7054 29.4798 41.7054 29.7399H41.6187C41.6187 29.7399 41.6187 29.7399 41.532 29.7399C41.532 29.7399 41.4453 29.7399 41.4453 29.7399ZM40.058 29.8266C40.1447 29.7399 40.2314 29.5665 40.4048 29.5665C40.5782 29.4798 40.7516 29.5665 40.8384 29.7399V29.8266H40.058ZM40.4048 30.6069C40.4048 30.6069 40.3181 30.6069 40.4048 30.6069C40.3181 30.6069 40.3181 30.5202 40.3181 30.5202C40.3181 30.5202 40.3181 30.5202 40.2314 30.5202C40.2314 30.5202 40.2314 30.5202 40.2314 30.4335V30.3468C40.2314 30.3468 40.3181 30.2601 40.4048 30.3468C40.5782 30.2601 40.8384 30.3468 40.9251 30.3468C41.0118 30.5202 40.8384 30.6936 40.8384 30.7804C40.8384 30.7804 40.8384 30.7804 40.7516 30.7804C40.4915 30.6069 40.4915 30.6069 40.4048 30.6069C40.4048 30.6069 40.4915 30.6069 40.4048 30.6069ZM40.2314 32.4278C40.2314 32.1676 40.4915 31.9942 40.6649 31.9075C41.532 31.3873 42.5725 31.2139 43.5262 31.0405L43.6129 31.2139C43.6129 31.474 43.6129 31.7341 43.3528 31.8208C42.4858 32.2543 41.6187 32.6012 40.6649 32.7746C40.4915 32.6879 40.3181 32.6012 40.2314 32.4278ZM40.2314 33.2081L40.4048 33.0347C41.2719 32.948 42.1389 32.7746 43.006 32.6879L43.0927 32.8613C43.0927 33.1214 42.9193 33.3815 42.6592 33.4682C42.5725 33.4682 42.399 33.5549 42.3123 33.5549H42.2256C42.1389 33.5549 41.9655 33.6416 41.8788 33.6416C41.8788 33.6416 41.8788 33.6416 41.7921 33.6416C41.6187 33.6416 41.532 33.6416 41.3586 33.7283H41.2719C41.1852 33.7283 41.0118 33.7283 40.9251 33.7283H40.8384C40.7516 33.7283 40.6649 33.7283 40.5782 33.7283H40.4915C40.4048 33.7283 40.2314 33.7283 40.1447 33.6416C40.058 33.5549 40.1447 33.3815 40.2314 33.2081ZM40.5782 35.2023C40.4048 35.2023 40.3181 35.0289 40.2314 34.8555C40.2314 34.6821 40.3181 34.5087 40.4915 34.422C41.1852 34.2486 41.8788 33.9017 42.6592 33.9884L42.9193 34.1619C43.006 34.2486 43.0927 34.3353 43.006 34.422C42.2256 34.7688 41.4453 35.2023 40.5782 35.2023ZM43.3528 35.4624C43.2661 35.5491 43.1794 35.5491 43.0927 35.6358C43.0927 35.6358 43.0927 35.6358 43.006 35.6358C42.9193 35.6358 42.9193 35.7226 42.8326 35.7226H42.7459C42.6592 35.7226 42.6592 35.8093 42.5725 35.8093C42.5725 35.8093 42.4858 35.8093 42.4858 35.896C42.399 35.896 42.399 35.9827 42.3123 35.9827H42.2256C42.1389 35.9827 42.1389 35.9827 42.0522 36.0694H41.9655C41.8788 36.0694 41.8788 36.0694 41.7921 36.0694H41.7054C41.6187 36.0694 41.6187 36.0694 41.532 36.0694C41.4453 36.0694 41.4453 36.0694 41.3586 36.0694H41.2719H41.1852C41.0118 36.0694 40.9251 35.896 40.9251 35.8093C40.8384 35.6358 40.9251 35.5491 41.0118 35.4624C41.0985 35.3757 41.1852 35.3757 41.2719 35.289C41.8788 35.1156 42.4858 34.8555 43.0927 34.8555L43.2661 34.9422C43.3528 35.289 43.3528 35.3757 43.3528 35.4624ZM46.1274 35.896C46.0407 36.2428 45.6071 36.4162 45.347 36.5029C45.2603 36.5029 45.1736 36.5029 45.0869 36.5896C45.0869 36.5896 45.0869 36.5896 45.0002 36.5896C44.9135 36.5896 44.7401 36.5896 44.5667 36.5896C44.48 36.5896 44.3933 36.5896 44.3066 36.5896C44.2199 36.5896 44.1332 36.5896 44.0464 36.5029H43.9597C43.873 36.5029 43.7863 36.5029 43.7863 36.4162H43.6996C43.6129 36.4162 43.5262 36.3295 43.4395 36.3295C43.6996 36.1561 43.873 35.896 43.9597 35.6358C44.3933 35.6358 44.7401 35.5491 45.0002 35.1156C45.1736 35.4624 45.6071 35.8093 46.1274 35.896ZM47.0811 34.5087C47.0811 34.7688 46.9944 35.0289 46.7343 35.2023C46.6476 35.2023 46.6476 35.2023 46.5609 35.2023C46.4742 35.2023 46.4742 35.2023 46.3875 35.2023C46.3875 35.2023 46.3875 35.2023 46.3008 35.2023C46.3008 35.2023 46.3008 35.2023 46.2141 35.2023C46.2141 35.2023 46.2141 35.2023 46.1274 35.2023H46.0407C46.0407 35.2023 46.0407 35.2023 45.954 35.2023H45.8673C45.8673 35.2023 45.7805 35.2023 45.7805 35.1156C44.8268 34.422 45.4337 32.948 45.1736 31.9942C45.1736 31.9075 45.0869 31.9075 45.0002 31.8208C44.9135 31.8208 44.8268 31.8208 44.8268 31.8208L44.6534 32.0809C44.48 33.0347 44.8268 33.9884 44.48 34.8555C44.3933 34.8555 44.3933 34.9422 44.3066 34.9422C44.3066 34.9422 44.3066 34.9422 44.2199 34.9422H44.1332C44.1332 34.9422 44.1332 34.9422 44.0464 34.9422H43.9597H43.873C43.7863 34.9422 43.7863 34.9422 43.6996 34.9422C43.873 33.6416 43.0927 31.6474 44.48 30.8671C45.0869 30.6069 46.0407 30.5202 46.5609 30.9538C47.4279 31.9075 46.9944 33.3815 47.0811 34.5087ZM47.4279 28.8728L48.1216 29.3064C48.0349 29.3064 47.8615 29.3931 47.7748 29.3931C47.6014 29.3931 47.5147 29.3931 47.3412 29.3931C47.1678 29.2197 47.3412 29.0462 47.4279 28.8728ZM47.7748 32.948C47.8615 32.948 48.0349 32.948 48.1216 32.948C48.2083 32.948 48.2083 32.948 48.295 32.948C48.295 32.948 48.3817 33.0347 48.3817 33.1214V35.9827H47.1678C47.7748 35.1156 47.7748 33.9884 47.7748 32.948ZM47.5147 30.0867C47.3412 29.9133 47.2545 29.8266 47.3412 29.8266C47.3412 29.7399 47.428 29.7399 47.6014 29.7399C47.7748 29.7399 48.1216 29.8266 48.2083 29.7399C47.9482 30 47.6881 30.0867 47.5147 30.0867Z" fill="#F5F5F5"/>
<path d="M35.9825 41.7919C35.8091 41.7919 35.7224 41.7052 35.7224 41.5318V18.9017C35.7224 18.7283 35.8091 18.6416 35.9825 18.6416C36.1559 18.6416 36.2426 18.7283 36.2426 18.9017V41.5318C36.2426 41.7052 36.1559 41.7919 35.9825 41.7919Z" fill="#F5F5F5"/>
</g>
<defs>
<clipPath id="clip0">
<rect width="56.6185" height="60" fill="white"/>
</clipPath>
</defs>
</svg>
