<svg width="276" height="60" viewBox="0 0 276 60" fill="none" xmlns="http://www.w3.org/2000/svg">
<path d="M53.892 6.41119C53.8973 6.41379 53.9026 6.41505 53.9078 6.41765C53.9955 6.45925 54.0819 6.49893 54.1663 6.54505C50.502 4.5657 46.8384 2.58632 43.1748 0.606945C43.1139 0.573792 43.0511 0.541942 42.9889 0.511387C42.966 0.500339 42.9411 0.491888 42.9182 0.480833C42.8167 0.434033 42.714 0.390479 42.6092 0.350179C42.568 0.333278 42.5274 0.31573 42.4849 0.30078C42.3389 0.247473 42.1897 0.200673 42.0378 0.161669C42.0338 0.161021 42.03 0.15907 42.026 0.157767C42.0051 0.152563 41.9815 0.149965 41.9592 0.144761C41.8349 0.114214 41.7092 0.0888559 41.5809 0.0674137C41.5299 0.0589563 41.4762 0.0531045 41.4238 0.0459571C41.3178 0.0323029 41.2117 0.0206065 41.1044 0.0134519C41.0468 0.00891011 40.9891 0.00564952 40.9316 0.00370612C40.821 -0.000842879 40.709 -0.000842882 40.5964 0.00175552C40.5441 0.00305832 40.4917 0.00305832 40.4393 0.00564952C40.2744 0.0134519 40.1081 0.0277611 39.9406 0.0511539L6.1641 4.76526C5.97624 4.79192 5.79034 4.82962 5.60706 4.87382C5.5547 4.88617 5.50364 4.90047 5.45193 4.91347C5.3112 4.95117 5.17111 4.99408 5.03366 5.04088C4.98784 5.05648 4.94202 5.07143 4.89751 5.08768C4.72928 5.15008 4.56302 5.21639 4.40069 5.29179C4.39218 5.2957 4.38498 5.3009 4.37647 5.30479C4.32934 5.3269 4.28352 5.3542 4.23639 5.3776C4.10417 5.4439 3.97325 5.51151 3.84496 5.58627C3.78016 5.62461 3.71797 5.66622 3.65382 5.70718C3.57266 5.75722 3.49018 5.80468 3.41163 5.85863C3.3933 5.87163 3.37695 5.88789 3.35861 5.90024C3.1341 6.05819 2.91809 6.22721 2.71059 6.40986C2.69815 6.42025 2.68506 6.4287 2.67262 6.43975C2.63924 6.4697 2.61044 6.50478 2.57706 6.53533C2.42519 6.67635 2.27923 6.82326 2.13784 6.97669C2.10904 7.00784 2.07631 7.0352 2.04751 7.06635C2.02394 7.09371 2.0043 7.12359 1.98074 7.15089C1.82889 7.32642 1.68357 7.5084 1.54741 7.69691C1.53171 7.71968 1.51207 7.73985 1.49505 7.76255C1.49178 7.7678 1.48916 7.7736 1.48589 7.77819C1.32617 8.00504 1.18086 8.24294 1.04536 8.48736C1.03031 8.51465 1.01198 8.53875 0.99627 8.56604C0.955685 8.6408 0.920989 8.71881 0.882376 8.79549C0.849648 8.86053 0.815608 8.92616 0.784189 8.99312C0.720041 9.13091 0.661782 9.27129 0.605491 9.41301C0.585853 9.4624 0.563598 9.51053 0.544616 9.55992C0.541996 9.56903 0.537411 9.57816 0.534139 9.58594C0.494866 9.69318 0.463446 9.80308 0.42875 9.91224C0.399954 10.0026 0.367226 10.0917 0.341696 10.1827C0.307 10.3062 0.281476 10.4323 0.252677 10.5584C0.233035 10.6462 0.209475 10.7326 0.192457 10.8223C0.16627 10.9614 0.150564 11.1025 0.132234 11.2435C0.122413 11.3203 0.107359 11.397 0.100158 11.4736C0.0792119 11.6934 0.0680863 11.9144 0.0674304 12.1354L1.38436e-05 48.3388C-0.00457046 50.651 1.1298 52.5316 2.83234 53.4514C6.49597 55.4308 10.1596 57.4102 13.8238 59.3895C13.8016 59.3778 13.7826 59.3622 13.7617 59.3493C14.7134 59.8822 15.8471 60.115 17.0633 59.9453L50.8398 55.2312C54.1853 54.7645 56.9253 51.4512 56.9326 47.8656L57 11.6622C57.0045 9.22709 55.7464 7.27177 53.892 6.41119Z" fill="#E72B34"/>
<path fill-rule="evenodd" clip-rule="evenodd" d="M20.4789 27.0351C20.4789 24.4154 18.5944 23.1055 15.9565 23.1055H9.73937L9.55083 23.2928V36.0161L9.73937 36.2032H12.0002L12.1888 36.0161V31.1512L12.3766 30.9639H15.9565C18.5944 30.9639 20.4789 29.6547 20.4789 27.0351ZM17.841 27.0351C17.841 28.3449 17.0869 28.7187 15.9565 28.7187H12.3766L12.1888 28.5314V25.538L12.3766 25.3508H15.9565C17.0869 25.3508 17.841 25.7252 17.841 27.0351Z" fill="#F5F5F5"/>
<path fill-rule="evenodd" clip-rule="evenodd" d="M32.6277 32.4609C32.6277 29.8413 30.5553 28.7187 27.9174 28.3448C25.2795 27.9704 24.5261 27.596 24.5261 26.4734C24.5261 25.7252 25.0917 25.1635 26.787 25.1635C28.8594 25.1635 29.4249 25.7252 29.4249 26.8478L29.6134 27.0351H31.8743L32.0628 26.8478C32.0628 24.6026 30.5553 22.9183 26.9755 22.9183C23.3957 22.9183 21.8882 24.6026 21.8882 26.4734C21.8882 29.0931 23.9606 30.0285 26.5985 30.4029C29.2364 30.7773 29.9898 31.1511 29.9898 32.4609C29.9898 33.5836 29.0479 34.1452 27.3525 34.1452C25.0917 34.1452 24.3376 33.3963 24.3376 32.0865L24.1491 31.9H21.8882L21.6996 32.0865C21.6996 34.5189 23.3957 36.3905 27.164 36.3905C31.1202 36.3905 32.6277 34.5189 32.6277 32.4609Z" fill="#F5F5F5"/>
<path d="M40.5048 32.4167L40.497 32.4213L40.5048 32.418C40.5048 32.4167 40.5048 32.4167 40.5048 32.4167ZM47.1579 28.6679L47.1389 28.6602L47.1572 28.6692C47.1572 28.6692 47.1572 28.6679 47.1579 28.6679ZM45.9502 28.1323L45.9541 28.1434L45.9521 28.1342L45.9502 28.1323ZM40.5048 32.4148L40.497 32.4167H40.5048V32.4148ZM43.8326 30.9704L43.8293 30.9626L43.8314 30.9704C43.8326 30.9704 43.8326 30.9704 43.8326 30.9704ZM42.2368 28.7297V28.7382L42.2388 28.7297C42.2381 28.7297 42.2368 28.7297 42.2368 28.7297ZM46.739 26.5501H46.7311L46.7383 26.5514L46.739 26.5501ZM47.0433 30.3737L47.0256 30.384L47.0439 30.3769L47.0433 30.3737ZM41.6281 31.0432H41.6464L41.6287 31.0426L41.6281 31.0432ZM47.3804 30.228L47.3948 30.2144L47.3804 30.228ZM41.7983 25.8754L41.8061 25.8792L41.7989 25.8747C41.7989 25.8747 41.7989 25.8754 41.7983 25.8754ZM47.3804 28.7798L47.3798 28.781L47.3981 28.7869L47.3804 28.7798ZM40.7326 33.0447L40.73 33.0375V33.0428L40.7326 33.0447ZM47.08 29.3739L47.0878 29.394L47.0813 29.3739C47.0813 29.3739 47.0806 29.3739 47.08 29.3739ZM43.3836 32.7119L43.3908 32.7105H43.3829L43.3836 32.7119ZM40.5434 33.7168V33.724L40.546 33.7149L40.5434 33.7168ZM41.217 30.9327L41.2157 30.9321L41.2039 30.947L41.2183 30.9333C41.217 30.9333 41.217 30.9327 41.217 30.9327ZM43.5505 24.572H43.542L43.5499 24.5733C43.5505 24.572 43.5505 24.572 43.5505 24.572ZM43.9269 25.1038L43.9341 25.1077L43.9282 25.1012C43.9275 25.1024 43.9275 25.1031 43.9269 25.1038ZM41.1404 29.7444L41.1424 29.7633V29.7444H41.1404ZM41.2163 29.2621L41.2078 29.2809L41.2183 29.264L41.2163 29.2621ZM40.3732 29.8322L40.3765 29.8523L40.3746 29.8322H40.3732ZM43.6821 26.7387V26.747L43.6834 26.7392L43.6821 26.7387ZM40.3739 29.8309L40.3569 29.8204L40.3732 29.8322C40.3732 29.8315 40.3739 29.8315 40.3739 29.8309ZM45.2491 24.4277L45.2479 24.4205V24.4277C45.2479 24.4277 45.2485 24.4277 45.2491 24.4277ZM43.6821 31.7491L43.6854 31.7531L43.6834 31.7485C43.6821 31.7491 43.6821 31.7491 43.6821 31.7491ZM45.2479 24.4277L45.2432 24.4362L45.2485 24.429C45.2479 24.4283 45.2479 24.4283 45.2479 24.4277ZM42.7964 28.5523L42.8004 28.5444L42.7945 28.5497L42.7964 28.5523ZM43.9073 31.1186L43.9151 31.1173H43.9073V31.1186ZM43.3522 24.2977H43.3437L43.3542 24.3003L43.3522 24.2977ZM40.349 30.2885L40.334 30.2996L40.351 30.2891C40.3503 30.2891 40.3503 30.2885 40.349 30.2885ZM46.0006 24.4602V24.4524L45.9993 24.4596C45.9993 24.4596 45.9999 24.4602 46.0006 24.4602ZM43.3083 34.3844L43.3168 34.3877L43.309 34.3824C43.3083 34.3838 43.3083 34.3838 43.3083 34.3844ZM46.5963 30.3756L46.6146 30.3652L46.5949 30.3737L46.5963 30.3756ZM43.235 34.1218L43.2396 34.114L43.2337 34.1212L43.235 34.1218ZM48.1659 32.9335L48.1679 32.9263L48.1646 32.9335H48.1659ZM47.8301 30.0993H47.8223L47.8138 30.0948C47.6554 29.9524 47.5971 29.8705 47.6121 29.8016C47.6396 29.7366 47.7286 29.7282 47.8373 29.7282C48.0553 29.7366 48.3773 29.7971 48.4552 29.7633L48.4788 29.7938C48.3236 29.9869 48.0585 30.0603 47.8301 30.0993ZM48.1567 32.9335V32.9263H48.1679C48.2576 32.9452 48.3858 32.9185 48.4945 32.9185C48.5489 32.9185 48.5993 32.9263 48.6372 32.9498C48.6732 32.9725 48.6961 33.0187 48.6961 33.0844V35.9491H47.4734L47.4845 35.9348C48.1567 35.1242 48.0834 34.01 48.1567 32.9335ZM47.7365 28.8831L47.7444 28.8649L47.764 28.8766L48.4003 29.3193L48.4323 29.3433L48.397 29.3538C48.2805 29.394 48.1476 29.4032 48.0062 29.4032C47.8654 29.4032 47.7149 29.394 47.5657 29.394H47.5506L47.5467 29.3771C47.5113 29.2153 47.6625 29.0313 47.7365 28.8831ZM47.3876 34.4923V34.4956C47.3516 34.7543 47.2744 35.0195 47.01 35.1671V35.1709C46.9628 35.1846 46.9118 35.1937 46.8581 35.2015C46.845 35.2041 46.8325 35.2048 46.8188 35.208C46.7677 35.2139 46.7154 35.2171 46.663 35.2177C46.6571 35.2177 46.6519 35.2184 46.6467 35.2184C46.6316 35.2184 46.6172 35.2171 46.6022 35.2165C46.5812 35.2158 46.5609 35.2151 46.54 35.2139C46.519 35.2113 46.4993 35.2087 46.4784 35.2074C46.4562 35.2041 46.4339 35.2002 46.4129 35.1956C46.394 35.1924 46.3757 35.1885 46.3573 35.1846C46.3345 35.1781 46.3115 35.169 46.2886 35.1618C46.2742 35.1566 46.2585 35.1521 46.2448 35.1463C46.2094 35.1313 46.1747 35.1144 46.1446 35.0936C45.1667 34.3844 45.8016 32.9361 45.505 31.937L45.5031 31.939C45.4684 31.8843 45.4023 31.8298 45.3369 31.8044C45.2662 31.7764 45.1968 31.7764 45.1457 31.8298L45.1444 31.8284L44.9984 32.0501C44.8518 32.9745 45.185 33.9717 44.8119 34.8317H44.8093V34.8362C44.7569 34.8687 44.7012 34.8986 44.6449 34.9239C44.6286 34.9311 44.611 34.9376 44.5939 34.9448C44.5527 34.9603 44.5121 34.9753 44.4689 34.9876C44.4473 34.9942 44.4257 34.9987 44.4034 35.0026C44.3622 35.0111 44.3203 35.0176 44.2771 35.0221C44.2548 35.024 44.2319 35.026 44.2077 35.0273C44.1953 35.0273 44.1822 35.0306 44.1691 35.0306C44.1194 35.0306 44.0683 35.0273 44.016 35.0195H44.0081V35.013C44.1599 33.6817 43.3712 31.7459 44.8348 30.9249C45.4723 30.6616 46.3737 30.5888 46.9366 30.9977V31.0003C47.764 31.8967 47.3137 33.3456 47.3876 34.4923ZM46.4169 35.8691C46.3383 36.2084 45.9273 36.3547 45.6275 36.5055C45.5555 36.5263 45.4822 36.5419 45.4082 36.5556C45.3918 36.5588 45.3748 36.5614 45.3591 36.5633C45.2295 36.5835 45.0979 36.5958 44.9663 36.5958C44.9539 36.5958 44.9415 36.5939 44.9297 36.5939C44.8315 36.592 44.734 36.5868 44.6378 36.5751C44.6319 36.5744 44.6273 36.5744 44.6227 36.5737C44.5225 36.5614 44.4237 36.5419 44.3268 36.5191C44.2961 36.5114 44.2679 36.5042 44.2385 36.4964C44.1665 36.4769 44.0965 36.4548 44.0271 36.4314C43.9996 36.4223 43.9714 36.4119 43.9446 36.4015C43.8523 36.3651 43.7633 36.3261 43.6782 36.2819L43.6664 36.278L43.6782 36.2663C43.8988 36.081 44.1253 35.8613 44.1992 35.6032V35.5994H44.2025C44.6142 35.5604 45.0214 35.4875 45.2432 35.0819L45.2505 35.0708L45.2583 35.0819C45.4802 35.4875 45.9665 35.7839 46.4091 35.858H46.4208L46.4169 35.8691ZM43.6546 35.4953V35.4979L43.6513 35.5025C43.5682 35.5571 43.4858 35.6097 43.4032 35.6605C43.3829 35.6734 43.3633 35.6852 43.3437 35.6962C43.2802 35.7359 43.2174 35.7736 43.1532 35.8106C43.1264 35.8255 43.0982 35.8399 43.0707 35.8542C43.0144 35.8854 42.9588 35.9159 42.9012 35.9452C42.8685 35.9607 42.8357 35.975 42.8023 35.99C42.75 36.0154 42.6976 36.0394 42.6446 36.0622C42.608 36.0765 42.5713 36.0895 42.5346 36.1031C42.4842 36.1226 42.4325 36.1409 42.3815 36.1577C42.3415 36.1701 42.301 36.1798 42.2617 36.1908C42.2113 36.2039 42.1616 36.2175 42.1105 36.2273C42.0679 36.2377 42.0247 36.2435 41.9802 36.2507C41.9311 36.2585 41.88 36.2663 41.829 36.2702C41.7825 36.2747 41.7361 36.2767 41.6896 36.2793C41.6568 36.2799 41.6261 36.2838 41.5927 36.2838C41.5547 36.2838 41.5141 36.2832 41.4762 36.2819C41.3204 36.2429 41.2471 36.1317 41.2078 36.0154C41.1496 35.8659 41.2 35.7684 41.2864 35.6962C41.3708 35.626 41.4919 35.5805 41.5848 35.5252H41.5888C42.1871 35.34 42.784 35.0786 43.4569 35.1164H43.4608L43.6114 35.1892C43.6946 35.2711 43.6546 35.4212 43.6546 35.4953ZM40.8426 35.2048H40.8386C40.6868 35.1671 40.5749 35.0163 40.5363 34.8668V34.8616C40.5363 34.6776 40.6135 34.4884 40.8386 34.4104H40.8426C41.5495 34.2655 42.2211 33.9287 43.0105 33.9638H43.0144V33.9671L43.2396 34.114V34.1179C43.3129 34.1913 43.3947 34.3025 43.3168 34.3877H43.3129V34.3915C42.5287 34.7965 41.7439 35.2048 40.8426 35.2048ZM40.5363 33.2273H40.5395L40.7267 33.0375H40.73C41.6281 32.9263 42.4856 32.8139 43.3829 32.7021H43.3869L43.3908 32.7105L43.4648 32.8568V32.8594C43.4648 33.122 43.3168 33.3886 43.0485 33.5004C42.9241 33.5361 42.7971 33.5693 42.6688 33.5992C42.6341 33.6083 42.5988 33.6154 42.5641 33.6239C42.4515 33.6486 42.3376 33.672 42.2224 33.6934C42.2021 33.696 42.1812 33.7012 42.1602 33.7038C42.028 33.7266 41.8944 33.7428 41.7597 33.7571C41.7269 33.7604 41.6942 33.7623 41.6608 33.7642C41.5488 33.7734 41.4362 33.7786 41.3237 33.7806C41.3021 33.7806 41.2805 33.7837 41.2596 33.7837C41.249 33.7837 41.2392 33.7812 41.2288 33.7812C41.1509 33.7812 41.0729 33.7773 40.9945 33.7734C40.9591 33.7708 40.9224 33.7701 40.8864 33.7675C40.7719 33.7578 40.658 33.7441 40.5434 33.724H40.5395V33.7207C40.3844 33.566 40.4623 33.3775 40.5363 33.2273ZM40.497 32.4167C40.4623 32.1847 40.7267 31.9649 40.9119 31.8545C41.8094 31.3669 42.8194 31.1829 43.8293 30.9626L43.8373 30.9594L43.8411 30.9671L43.9151 31.1134V31.1173C43.9537 31.3792 43.8759 31.6035 43.6854 31.7531V31.7569C42.8272 32.2009 41.9304 32.5753 40.9552 32.6832C40.7647 32.6832 40.5749 32.6092 40.497 32.4213V32.4167ZM40.6769 30.5966C40.6586 30.5862 40.6403 30.5751 40.622 30.5641C40.6109 30.5576 40.6004 30.5518 40.5899 30.5446C40.5723 30.5335 40.5559 30.5212 40.5395 30.5095C40.5283 30.5017 40.5172 30.4926 40.5061 30.4842C40.4917 30.4731 40.4779 30.4607 40.4642 30.4484C40.4537 30.44 40.4433 30.4302 40.4334 30.4211C40.4204 30.4094 40.4099 30.397 40.3981 30.384C40.3909 30.3756 40.3818 30.3671 40.3739 30.3574C40.3576 30.3372 40.3438 30.3177 40.334 30.2996L40.33 30.2917V30.2885L40.3732 30.1988C40.3995 30.1728 40.4459 30.1527 40.5107 30.1637C40.6731 30.0896 40.9119 30.165 41.056 30.165H41.0684L41.0723 30.176C41.1496 30.3464 40.9827 30.5069 40.9473 30.6499L40.9441 30.6577L40.9323 30.6616C40.9211 30.6635 40.9093 30.6661 40.8956 30.6661C40.889 30.6661 40.8812 30.6629 40.874 30.6629C40.8648 30.661 40.8544 30.6604 40.8445 30.6577C40.8282 30.6558 40.8111 30.6512 40.7941 30.646C40.7837 30.6421 40.7732 30.6389 40.764 30.635C40.745 30.6278 40.7274 30.6207 40.7084 30.6116C40.6979 30.6057 40.6874 30.6018 40.6769 30.5966ZM40.3569 29.8204C40.4158 29.7236 40.5637 29.5891 40.7215 29.528C40.8819 29.4669 41.0638 29.485 41.1607 29.7015V29.7633H41.1424L40.3765 29.8523L40.334 29.8556L40.3569 29.8204ZM41.7086 29.7165C41.7053 29.7139 41.7013 29.7119 41.6981 29.7099C41.6785 29.6989 41.6594 29.6878 41.6418 29.6742C41.6366 29.6703 41.632 29.6671 41.6267 29.6625C41.6058 29.6469 41.5848 29.6313 41.5652 29.6118C41.4448 29.4967 41.3322 29.3505 41.2078 29.2809L41.1843 29.2686L41.2 29.2504C41.3551 29.0612 41.5456 28.9839 41.7361 28.9455L41.7524 28.9416L41.759 28.9572C41.8676 29.2153 42.0195 29.4389 42.0195 29.7087V29.7203L42.0077 29.7236C41.9841 29.736 41.9612 29.7424 41.939 29.7477C41.9292 29.7509 41.92 29.7516 41.9095 29.7522C41.8977 29.7541 41.8859 29.7555 41.8742 29.7561C41.8716 29.7561 41.8676 29.7561 41.865 29.7561C41.8598 29.7561 41.8546 29.7555 41.8499 29.7555C41.8316 29.7541 41.8139 29.7522 41.7962 29.7477C41.7891 29.747 41.7819 29.7451 41.7753 29.7438C41.7524 29.7366 41.7302 29.7269 41.7086 29.7165ZM41.6464 31.0432V31.0673L41.6228 31.0627C41.4801 31.0237 41.3243 31.0673 41.2039 30.947L41.1928 30.9392L41.1967 30.9249L41.488 30.1253L41.4919 30.1137H41.503L41.721 30.0714L41.7439 30.0681V30.087C41.7825 30.3925 41.6817 30.75 41.6464 31.0432ZM41.6896 26.3226L41.7013 26.3375C41.6981 26.3401 41.6942 26.3415 41.6922 26.3441C41.6215 27.0064 41.7432 27.7052 42.2237 28.1499L42.2329 28.1434C42.3808 28.3286 42.6492 28.4326 42.8004 28.5444L42.8076 28.5477L42.8004 28.5555C42.7788 28.5782 42.75 28.5984 42.7186 28.6186C42.7121 28.6224 42.7074 28.6257 42.7015 28.6296C42.6702 28.6478 42.6361 28.666 42.5994 28.6816C42.5916 28.6835 42.5844 28.6868 42.5772 28.69C42.5379 28.705 42.4993 28.7173 42.4581 28.7258C42.4541 28.7271 42.4489 28.7284 42.4449 28.7297C42.4031 28.7382 42.3605 28.744 42.3193 28.744C42.3186 28.744 42.318 28.744 42.3167 28.744C42.3167 28.744 42.3167 28.744 42.3154 28.744C42.2885 28.744 42.2624 28.7414 42.2368 28.7382C41.7524 28.6978 41.1875 28.4249 41.037 27.9386C40.8459 27.4153 41.2 26.6236 41.6896 26.3226ZM41.6359 25.4008C41.7439 24.9945 41.8958 24.5448 42.4044 24.3556H42.4083C42.6257 24.3126 42.8776 24.2977 42.9601 24.4563L42.9634 24.4602L42.9601 24.4673C42.5484 24.7996 42.1439 25.4711 41.8061 25.8792L41.8021 25.8832H41.7983C41.7125 25.8792 41.6785 25.7791 41.6549 25.6667C41.6359 25.5588 41.6359 25.4431 41.6359 25.4041V25.4008ZM44.9906 26.3226H45.0135L44.9952 26.3375C44.9932 26.3389 44.9919 26.3408 44.9906 26.3415C44.952 26.3765 44.9127 26.4078 44.8708 26.439C44.8564 26.45 44.8413 26.4611 44.8263 26.4715C44.7982 26.4916 44.7706 26.5105 44.7412 26.5293C44.7242 26.541 44.7059 26.5507 44.6882 26.5618C44.66 26.5794 44.6306 26.5949 44.6004 26.6099C44.5821 26.6203 44.5658 26.6294 44.5468 26.6379C44.5108 26.6554 44.4748 26.6704 44.4375 26.6847C44.4244 26.6899 44.412 26.6951 44.3989 26.7002C44.3485 26.7185 44.2961 26.7334 44.2437 26.7451C44.2306 26.7484 44.2176 26.749 44.2044 26.7523C44.1639 26.7594 44.1233 26.7659 44.0814 26.7705C44.0617 26.7724 44.0421 26.7731 44.0225 26.7737C44.0015 26.7744 43.9819 26.7783 43.9609 26.7783C43.9413 26.7783 43.9216 26.7757 43.9033 26.7737C43.887 26.7737 43.8706 26.7731 43.8543 26.7718C43.798 26.7665 43.7403 26.7588 43.6821 26.747H43.6782C43.1107 26.5956 42.8901 25.9254 42.8508 25.4041V25.382L42.8672 25.3976C43.4648 25.9911 44.1324 26.3226 44.9906 26.3226ZM43.1034 25.0843L43.2658 24.9185L43.2736 24.9068L43.2776 24.9185C43.3522 25.0998 43.6278 25.3235 43.8877 25.3976C44.1128 25.4711 44.3268 25.497 44.5861 25.458L44.6063 25.4548L44.5952 25.4743C44.4813 25.6251 44.2293 25.7831 44.0742 25.8214H44.0702C43.7318 25.7096 43.3286 25.3976 43.1034 25.0966L43.0989 25.0927L43.1034 25.0843ZM43.9341 25.1077L43.9302 25.1155L43.9216 25.1116C43.7718 25.0342 43.5073 24.7293 43.542 24.572V24.5675H43.5459C43.6278 24.4862 44.0238 24.4524 44.137 24.4524H44.1436V24.4563C44.2221 24.6487 44.0473 24.9569 43.9341 25.1077ZM44.5016 23.4683C44.7261 23.4299 44.9906 23.4683 45.2158 23.58H45.2197C45.3329 23.6919 45.4141 23.8538 45.4527 24.0045V24.0156H45.4416C45.2622 24.0117 45.0835 24.2002 44.8937 24.2743H44.8905C44.4349 24.236 43.724 23.8271 43.3601 24.3055L43.3437 24.2977C43.4608 23.8849 44.0506 23.5034 44.5016 23.4683ZM46.0006 24.4524H46.0051L46.4091 24.6364C46.7894 24.9374 46.8437 25.59 46.8817 25.9989L46.8856 26.0099L46.8705 26.0066C46.6264 25.9215 46.4012 25.6251 46.2886 25.4398C46.0281 25.0699 45.5817 24.6955 45.2432 24.4362L45.2321 24.4251L45.2479 24.4205C45.4377 24.3445 45.814 24.4134 46.0006 24.4524ZM44.6449 25.9144C44.7575 25.6511 45.0102 25.4008 45.1149 25.1311L45.1968 24.8613L45.2053 24.8412L45.2158 24.8613C45.3284 25.0843 45.3637 25.5939 45.2898 25.8559L45.2858 25.8591C45.166 25.9371 44.8001 25.9254 44.6529 25.9254H44.6378L44.6449 25.9144ZM44.4584 24.5909L44.4545 24.5759L44.4709 24.5792C44.5828 24.6182 44.8041 24.8067 44.7772 24.9913C44.6993 25.1727 44.4512 25.2467 44.264 25.2467H44.2483L44.2529 25.2351C44.3308 25.0498 44.4938 24.8067 44.4584 24.5909ZM43.0452 29.1463L43.0917 29.1698C43.2501 29.2504 43.3633 29.4356 43.472 29.5851L43.4805 29.5936L43.4766 29.6046C43.453 29.6514 43.4065 29.6554 43.3758 29.6476L43.2776 29.6514L43.2625 29.6592L43.2501 29.6397L43.0642 29.1958L43.0452 29.1463ZM42.8619 30.022C43.0799 30.022 43.3057 29.9478 43.5381 30.022L43.5538 30.0298V30.0447C43.5152 30.2768 43.3247 30.4991 43.1349 30.6499L43.1192 30.6616L43.1067 30.646C42.9909 30.4959 42.8776 30.2729 42.8436 30.0447L42.839 30.022H42.8619V30.022ZM42.6956 30.9008L42.6832 30.9126C42.6584 30.9307 42.6309 30.947 42.6014 30.9626C42.5935 30.9671 42.5864 30.9704 42.5785 30.9743C42.5517 30.9867 42.5248 30.999 42.496 31.0094C42.4908 31.0107 42.4856 31.0133 42.4797 31.0146C42.4469 31.0263 42.4129 31.0354 42.3775 31.0426C42.3684 31.0432 42.3585 31.0452 42.35 31.0464C42.3212 31.0504 42.2937 31.0536 42.2656 31.0542C42.2597 31.0542 42.2532 31.0549 42.2473 31.0549C42.2433 31.0549 42.2407 31.0549 42.2368 31.0549C42.2185 31.0542 42.2002 31.0529 42.1818 31.0504C42.1713 31.0484 42.1616 31.0484 42.1517 31.0464C42.1235 31.0412 42.0961 31.0348 42.0699 31.0237L42.0509 31.0165L42.0581 30.9977C42.1675 30.75 42.0542 30.3034 42.2486 30.0681L42.2532 30.0603H42.4266L42.4319 30.0714L42.6917 30.8898L42.6956 30.9008ZM42.4155 29.7282H42.3998L42.3959 29.7203C42.2414 29.489 42.2061 29.1932 42.1321 28.9338L42.1242 28.915L42.1478 28.9104C42.3808 28.872 42.5202 28.9988 42.6217 29.1607C42.7186 29.3193 42.784 29.5162 42.8743 29.6203L42.8979 29.6476L42.8619 29.6514L42.4155 29.7282ZM44.2392 28.3208C44.226 28.3221 44.2136 28.3234 44.2005 28.3253C44.1141 28.3319 44.0271 28.3371 43.9393 28.3371C43.9322 28.3371 43.9256 28.3384 43.9184 28.3384C43.906 28.3384 43.8929 28.3371 43.8811 28.3371C43.8497 28.3371 43.8182 28.3358 43.7868 28.3351C43.7633 28.3332 43.7391 28.3319 43.7155 28.3299C43.6834 28.3293 43.6513 28.3253 43.6193 28.3221C43.597 28.3202 43.5741 28.3169 43.5512 28.3143C43.5185 28.3098 43.4864 28.3046 43.4556 28.2994C43.434 28.2961 43.4131 28.2929 43.3928 28.289C43.3594 28.2811 43.3273 28.274 43.2959 28.2662C43.2763 28.261 43.2567 28.2571 43.2383 28.2519C43.2056 28.2435 43.1735 28.2324 43.1421 28.2214C43.1257 28.2162 43.1087 28.211 43.0923 28.2045C43.0589 28.1927 43.0276 28.1791 42.9968 28.1648C42.983 28.1589 42.9686 28.1531 42.9555 28.1466C42.9221 28.131 42.8908 28.1121 42.86 28.0946C42.8508 28.0881 42.8397 28.0836 42.8305 28.0771C42.7905 28.0517 42.7533 28.0257 42.7186 27.9958C42.117 27.6227 42.0666 26.8901 42.1786 26.2569C42.2179 26.1062 42.2721 25.8721 42.369 25.7252L42.3769 25.7096L42.3854 25.7252C42.6446 26.2452 42.8351 26.9206 43.3561 27.3256C43.8411 27.6955 44.4388 27.9542 44.9984 28.1044L45.0214 28.1089L45.0017 28.1206C44.9356 28.1525 44.8616 28.1817 44.7831 28.2077C44.7772 28.2103 44.7713 28.2123 44.7654 28.2142C44.6888 28.2383 44.6089 28.259 44.5239 28.276C44.514 28.2785 44.5042 28.2805 44.4938 28.2825C44.412 28.2994 44.3262 28.3111 44.2392 28.3208ZM43.8098 28.6679V28.6602L43.8182 28.6556C43.9073 28.5711 44.0591 28.614 44.2064 28.614H44.2221L44.226 28.6296C44.3 29.2621 44.2607 30.0064 44.226 30.6343V30.6499L44.2097 30.6538C44.1233 30.6831 44.016 30.6902 43.9334 30.6759C43.906 30.6707 43.8811 30.6635 43.8601 30.6538L43.8484 30.646V30.6343L43.8098 28.6679ZM44.971 29.9752V30.0603H44.952C44.8276 30.0603 44.6417 29.9478 44.5592 29.7899L44.5409 29.7516L44.5828 29.7633C44.6496 29.7788 44.7733 29.7633 44.8669 29.7704C44.9133 29.7788 44.952 29.7867 44.9788 29.825C45.0017 29.8601 44.9984 29.9095 44.971 29.9752ZM44.8937 29.3843L44.8865 29.394H44.5121L44.5213 29.37C44.5985 29.1041 44.8236 28.8025 45.096 28.7251L45.1267 28.7147L45.1189 28.7453C45.0835 28.9683 45.0449 29.1958 44.8937 29.3843ZM45.6209 27.6298H45.6164C45.5463 27.6402 45.4743 27.6455 45.401 27.6467C45.3932 27.6467 45.3859 27.6486 45.3781 27.6486C45.3414 27.6486 45.3028 27.6455 45.2662 27.6428C45.2537 27.6428 45.2413 27.6428 45.2288 27.6415C45.166 27.6363 45.1031 27.6291 45.0397 27.6175C45.0358 27.6168 45.0325 27.6162 45.0285 27.6155C44.9703 27.6051 44.9127 27.5934 44.8544 27.5785C44.838 27.5739 44.821 27.5687 44.8041 27.5642C44.7589 27.5518 44.7157 27.5388 44.6711 27.5238C44.6522 27.5174 44.6325 27.5109 44.6142 27.505C44.573 27.4907 44.5324 27.4745 44.4925 27.4575C44.4735 27.4511 44.4545 27.4426 44.4361 27.4342C44.3956 27.4153 44.3563 27.3971 44.317 27.3783C44.3014 27.3705 44.2856 27.3627 44.2706 27.3542C44.2176 27.3269 44.1665 27.2983 44.1187 27.2664C44.118 27.2664 44.1174 27.2671 44.1168 27.2671C44.1154 27.2658 44.1147 27.2652 44.1128 27.2638L44.0971 27.2561L44.1128 27.2476C44.8236 27.0285 45.7676 26.5117 45.8029 25.6277V25.6089L45.8173 25.6206C46.1558 25.8832 46.21 26.3297 46.21 26.7387C46.1361 27.0747 46.0353 27.518 45.6209 27.6298ZM45.3395 29.3115L45.344 29.2913C45.3788 29.1698 45.3906 28.9721 45.4416 28.8071C45.4926 28.64 45.5967 28.4976 45.8108 28.5015H45.8344L45.8297 28.5217C45.7937 28.8226 45.6825 29.1223 45.4926 29.3505L45.4802 29.3583L45.4684 29.3538L45.3552 29.3193L45.3395 29.3115ZM45.344 29.8016L45.3591 29.7971C45.5385 29.76 45.6432 29.8634 45.7139 29.9908C45.7833 30.1175 45.8297 30.2768 45.8998 30.3613L45.9234 30.388L45.888 30.3958C45.8527 30.4029 45.816 30.4055 45.7819 30.4055C45.7741 30.4055 45.7669 30.4042 45.7584 30.4035C45.7427 30.4029 45.7276 30.4023 45.7119 30.3997C45.6831 30.397 45.6557 30.3925 45.6275 30.3854C45.6112 30.3821 45.5961 30.3775 45.5804 30.3737C45.5528 30.3659 45.5267 30.3568 45.5012 30.347C45.4874 30.3412 45.4737 30.3372 45.4605 30.3321C45.4239 30.3171 45.3886 30.3002 45.3552 30.2833L45.344 30.2768V29.8016V29.8016ZM46.6178 30.3802L46.6107 30.388L46.5373 30.466L46.5282 30.4731L46.517 30.4686L46.3658 30.4302H46.358L46.3541 30.4185C46.2794 30.2411 46.0896 30.0532 46.0896 29.8166V29.8061L46.1014 29.8016C46.2257 29.7444 46.3154 29.7366 46.3816 29.7633C46.4516 29.7899 46.4863 29.8523 46.5138 29.9252C46.5609 30.0681 46.5609 30.2651 46.6146 30.3652L46.6178 30.3802ZM46.4235 29.3843L46.4169 29.3973L46.4038 29.394L46.1092 29.3583L46.0857 29.3538L46.0896 29.331C46.1642 29.0384 46.2022 28.7382 46.4313 28.471L46.4365 28.4638H46.447C46.5243 28.4638 46.6107 28.4827 46.6683 28.5288C46.7272 28.575 46.7501 28.6556 46.6879 28.7531C46.6146 28.9702 46.5747 29.1964 46.4235 29.3843ZM47.112 27.4712H47.1108C47.0741 27.6974 46.8732 27.9035 46.6493 28.016C46.4548 28.1278 46.1753 28.1044 45.9541 28.1434L45.9463 28.1278C45.9476 28.1264 45.9489 28.1252 45.9502 28.1245C45.9508 28.1245 45.9508 28.1245 45.9515 28.1245C46.4294 27.7514 46.6538 27.0656 46.7311 26.5501V26.5384L46.7422 26.5417C47.006 26.6964 47.1887 27.167 47.112 27.4712ZM47.4066 30.23L47.3948 30.2411C47.3137 30.3229 47.1618 30.3568 47.0498 30.3925L47.0335 30.3997L47.0256 30.384C46.9137 30.1955 46.8358 29.9368 46.8751 29.7405L46.8784 29.7282L46.8856 29.7236C47.0996 29.6476 47.2115 29.7405 47.2665 29.8672C47.3248 29.9908 47.3444 30.1487 47.3948 30.2144L47.4066 30.23ZM47.1421 28.6478H47.1579C47.1887 28.6478 47.2469 28.64 47.298 28.6478C47.3516 28.6556 47.4027 28.6978 47.3981 28.7798V28.7869C47.3208 29.0027 47.3293 29.3082 47.0878 29.394H46.9137V29.3771C46.8751 29.1073 47.0256 28.8798 47.1389 28.6602L47.1421 28.6478ZM49.7657 29.3811C49.1674 29.344 48.7563 28.8974 48.2726 28.5633H48.2687C48.16 28.4014 47.8727 28.3253 47.6625 28.224C47.5546 28.1706 47.4688 28.1121 47.4341 28.0277C47.3981 27.9464 47.4178 27.8385 47.5238 27.6994C47.6711 27.221 47.6711 26.6704 47.2639 26.3037L47.2593 26.2999V26.2927C47.4845 25.6277 47.298 24.7768 46.7036 24.2977H46.6997C46.6107 24.1703 46.4431 24.1443 46.2997 24.0968C46.1525 24.0507 46.0261 23.9824 46.0281 23.777C45.8801 23.4455 45.5463 23.1874 45.2479 23.0749C44.4276 22.8546 43.5774 23.1484 43.0537 23.8498V23.8538H43.0485C42.5988 23.8538 42.0771 23.9311 41.7472 24.2633H41.7439C41.2236 24.702 41.0402 25.4041 41.2236 26.0684L41.2268 26.0769L41.2236 26.0795C40.7025 26.5234 40.4773 27.0747 40.4433 27.7033C40.404 28.1466 40.7025 28.4398 40.7771 28.8142V28.8226L40.7719 28.8259C40.3281 29.2296 39.9569 29.8198 39.394 29.9381L39.3672 30.0408C39.3737 30.0733 39.3914 30.1097 39.394 30.1461C40.0296 30.228 40.3274 30.895 40.6986 31.2986L40.7077 31.3026L40.6986 31.3104C40.4341 31.5678 40.0276 31.7569 39.9923 32.1203V32.1242C39.8646 32.3245 39.9536 32.4941 40.0309 32.6514C40.1042 32.8094 40.1618 32.9589 39.9524 33.0901C39.8443 33.3476 39.8064 33.6772 39.9183 33.9307C40.1592 34.0607 40.1716 34.2265 40.1285 34.3987C40.0852 34.5736 39.9923 34.7543 40.0309 34.9363V34.9396C40.0309 35.3049 40.3261 35.5994 40.6213 35.7489H40.6292V35.7573C40.5905 36.0855 40.7771 36.4548 41.037 36.6368C41.5141 37.0067 42.2211 36.748 42.746 36.6368H42.7539C42.8233 36.683 42.896 36.7272 42.9692 36.7694C42.9915 36.7831 43.0144 36.7954 43.0373 36.8084C43.0923 36.8377 43.1486 36.8669 43.2056 36.8955C43.2298 36.9065 43.2553 36.9196 43.2795 36.9313C43.3496 36.9638 43.4209 36.993 43.4929 37.0236C43.5041 37.0282 43.5145 37.032 43.525 37.0359C43.6082 37.0684 43.6919 37.0983 43.7763 37.1243C43.8032 37.1328 43.8293 37.1399 43.8556 37.1471C43.9178 37.1672 43.9812 37.1841 44.0447 37.1998C44.0735 37.2069 44.103 37.2134 44.1324 37.2205C44.2032 37.2362 44.2751 37.2504 44.3459 37.2621C44.3655 37.2661 44.3838 37.2699 44.4028 37.2732C44.4918 37.2868 44.5821 37.2973 44.6711 37.3057C44.698 37.307 44.7242 37.3089 44.7504 37.3103C44.8165 37.3155 44.8826 37.3168 44.9487 37.318C44.9788 37.3187 45.0082 37.3187 45.0384 37.3187C45.1169 37.3174 45.1935 37.3141 45.2707 37.3089C45.2877 37.3063 45.3054 37.3063 45.3225 37.3051C45.4134 37.2959 45.505 37.283 45.5954 37.2673C45.6209 37.2621 45.6445 37.2563 45.6687 37.2524C45.7388 37.2374 45.8075 37.2205 45.8756 37.2017C45.9011 37.1946 45.9273 37.188 45.9528 37.1789C46.0418 37.1523 46.1295 37.1211 46.2153 37.0847C46.9667 36.2624 48.2772 36.7843 49.2787 36.5985V32.2731C48.8729 32.1678 48.4618 32.3511 48.0874 32.2009H48.0834V32.1931C48.0834 31.6763 47.9342 31.233 47.709 30.7897L47.7058 30.7819L47.7129 30.7773C48.1986 30.5537 48.6464 30.2956 49.0928 29.9609L49.0941 29.9615C49.191 29.8296 49.4234 29.8094 49.6007 29.76C49.6865 29.7366 49.7605 29.7015 49.7951 29.6443C49.8298 29.5897 49.8259 29.5097 49.7657 29.3811ZM41.5901 35.5324L41.5888 35.5252V35.5324H41.5901ZM40.5434 34.8616L40.5363 34.8668L40.5434 34.8635C40.5434 34.8635 40.5434 34.8622 40.5434 34.8616ZM44.8027 34.8284L44.8093 34.8362L44.8041 34.8284C44.8034 34.8284 44.8034 34.8284 44.8027 34.8284ZM47.0067 35.1625L47.0079 35.1645L47.01 35.1671L47.0079 35.1625C47.0079 35.1625 47.0079 35.1625 47.0067 35.1625ZM46.9327 31.0055L46.9366 30.9977L46.9314 31.0042C46.9327 31.0042 46.9327 31.0042 46.9327 31.0055ZM45.2505 35.0865L45.2432 35.0819L45.2498 35.0871C45.2505 35.0865 45.2505 35.0865 45.2505 35.0865ZM45.2517 35.0871L45.2583 35.0819L45.2505 35.0865C45.2505 35.0865 45.2505 35.0865 45.2517 35.0871ZM46.4091 35.8665L46.4169 35.8691L46.4091 35.8659V35.8665ZM40.768 28.8188L40.7719 28.8259L40.7692 28.8181C40.768 28.8181 40.768 28.8188 40.768 28.8188ZM40.6946 31.3026L40.6986 31.2986L40.6946 31.3026ZM40.6933 31.3038L40.6986 31.3104L40.6946 31.3026C40.694 31.3032 40.6933 31.3038 40.6933 31.3038ZM46.2218 37.0912L46.2205 37.0886L46.2218 37.0912ZM47.3804 34.493L47.3876 34.4956L47.3818 34.493H47.3804ZM40.0237 34.9396L40.0309 34.9363L40.0224 34.9376C40.0224 34.9376 40.0237 34.9382 40.0237 34.9396ZM42.7487 36.644L42.7539 36.6368L42.7474 36.6433L42.7487 36.644ZM47.8282 30.0798L47.8138 30.0948L47.8282 30.0811V30.0798ZM48.2759 28.5594L48.2687 28.5633L48.2739 28.5601L48.2759 28.5594ZM41.7387 24.2561L41.7439 24.2633L41.7393 24.2555C41.7393 24.2561 41.7393 24.2561 41.7387 24.2561ZM40.768 28.8168C40.768 28.8168 40.7692 28.8175 40.7692 28.8181L40.7771 28.8142L40.768 28.8168ZM46.7062 24.2925L46.7036 24.2977L46.7075 24.2919L46.7062 24.2925ZM47.2665 26.2953L47.2639 26.3037L47.2678 26.2959C47.2672 26.2959 47.2665 26.2953 47.2665 26.2953ZM48.3898 29.3381L48.4003 29.3193L48.3891 29.3369L48.3898 29.3381ZM45.4763 29.3381L45.4926 29.3505L45.4782 29.3381C45.4763 29.3381 45.4763 29.3381 45.4763 29.3381ZM45.3624 29.2985L45.344 29.2913L45.3617 29.2985H45.3624ZM45.4743 29.3381L45.4684 29.3538L45.4763 29.3381H45.4743ZM45.8121 25.6277L45.8173 25.6206L45.8108 25.6277H45.8121ZM45.8841 30.3763L45.8998 30.3613L45.8841 30.3743V30.3763ZM49.2839 32.2659H49.2866H49.2846H49.2839ZM46.3698 30.412L46.3658 30.4302L46.3717 30.4113L46.3698 30.412ZM46.6683 28.7414H46.6709H46.6683ZM46.1092 29.3381C46.1092 29.3381 46.1092 29.3381 46.1092 29.3375L46.0896 29.331L46.1092 29.3381ZM46.447 28.4827L46.4313 28.471L46.447 28.484C46.447 28.4833 46.447 28.4833 46.447 28.4827ZM45.1012 28.7427L45.1189 28.7453L45.1005 28.7408L45.1012 28.7427ZM46.1092 29.3381V29.3583L46.1106 29.3381H46.1092ZM44.9984 28.1121V28.1044L44.9978 28.1102L44.9984 28.1121ZM42.0745 31.0055L42.0699 31.0237L42.0758 31.0062C42.0758 31.0062 42.0752 31.0062 42.0745 31.0055ZM42.0745 31.0042L42.0581 30.9977L42.0745 31.0055C42.0745 31.0048 42.0745 31.0048 42.0745 31.0042ZM44.6529 25.915L44.6449 25.9144L44.6529 25.9176V25.915ZM42.8606 29.6339L42.8619 29.6514V29.6319L42.8606 29.6339ZM43.868 30.6343L43.8601 30.6538L43.8686 30.635C43.868 30.6343 43.868 30.6343 43.868 30.6343ZM44.2051 30.635L44.2097 30.6538L44.2064 30.6343C44.2058 30.6343 44.2051 30.635 44.2051 30.635ZM42.6728 30.895L42.6832 30.9126L42.6728 30.895ZM44.4669 24.5876L44.4584 24.5909L44.4656 24.5896L44.4669 24.5876ZM45.1228 25.133L45.1149 25.1311L45.1228 25.1337V25.133ZM43.5348 30.0408L43.5538 30.0447L43.5348 30.0408ZM43.5348 30.0408L43.5381 30.022L43.5329 30.0402L43.5348 30.0408ZM49.2839 36.6063C49.2846 36.6063 49.2866 36.6056 49.2866 36.6056H49.2839V36.6063ZM45.1379 31.8226L45.1411 31.8252L45.1405 31.8213C45.1392 31.8213 45.1392 31.822 45.1379 31.8226Z" fill="#F5F5F5"/>
<path d="M36.256 41.8162C36.1122 41.8162 35.9956 41.7005 35.9956 41.5577V18.9154C35.9956 18.7726 36.1122 18.6569 36.256 18.6569C36.3998 18.6569 36.5163 18.7726 36.5163 18.9154V41.5577C36.5163 41.7005 36.3998 41.8162 36.256 41.8162Z" fill="#F5F5F5"/>
<path d="M81.552 13.706C79.842 13.706 78.474 14.264 77.34 15.398C76.26 16.496 75.702 18.08 75.702 20.006C75.702 23.75 78.024 26.288 81.462 26.288C84.9 26.288 87.222 23.732 87.222 19.988C87.222 16.298 84.882 13.706 81.552 13.706ZM81.516 15.488C83.676 15.488 85.116 17.288 85.116 19.97C85.116 22.724 83.694 24.506 81.498 24.506C79.248 24.506 77.808 22.742 77.808 19.97C77.808 17.216 79.248 15.488 81.516 15.488ZM96.6315 17.306H94.7055V21.572C94.7055 22.562 94.6335 23.084 94.4355 23.48C94.0755 24.218 93.3915 24.632 92.5635 24.632C91.9335 24.632 91.4475 24.416 91.1775 24.02C90.9615 23.696 90.9075 23.318 90.9075 22.274V17.306H88.9815V22.886C88.9815 24.02 89.1435 24.686 89.5395 25.19C90.0615 25.874 90.9075 26.234 91.9515 26.234C93.1935 26.234 94.0395 25.784 94.8315 24.704V26H96.6315V17.306ZM100.824 13.994H98.8977V15.812H100.824V13.994ZM100.824 17.306H98.8977V26H100.824V17.306ZM109.093 20.006C109.255 18.89 109.759 18.494 111.037 18.494C112.189 18.494 112.819 18.89 112.819 19.628V19.808V19.952C112.819 20.582 112.567 20.708 110.803 20.924C108.751 21.176 108.427 21.266 107.797 21.752C107.221 22.184 106.915 22.85 106.915 23.66C106.915 25.244 108.049 26.252 109.831 26.252C111.127 26.252 112.081 25.928 112.909 25.208C113.017 25.91 113.485 26.252 114.313 26.252C114.655 26.252 114.997 26.198 115.555 26.054V24.704C115.357 24.74 115.267 24.74 115.141 24.74C114.691 24.74 114.637 24.614 114.637 23.498L114.709 19.556C114.709 17.936 113.449 17.072 111.091 17.072C108.733 17.072 107.455 18.062 107.293 20.006H109.093ZM112.801 22.688C112.801 23.444 112.765 23.678 112.621 23.93C112.297 24.488 111.379 24.884 110.461 24.884C109.471 24.884 108.859 24.38 108.859 23.57C108.859 23.282 109.003 22.886 109.201 22.688C109.453 22.4 109.867 22.256 110.767 22.13C112.117 21.968 112.333 21.914 112.801 21.662V22.688ZM109.075 13.526L111.091 16.064H112.351L111.163 13.526H109.075ZM123.499 13.994H121.573V26H123.499V13.994ZM127.269 20.006C127.431 18.89 127.935 18.494 129.213 18.494C130.365 18.494 130.995 18.89 130.995 19.628V19.808V19.952C130.995 20.582 130.743 20.708 128.979 20.924C126.927 21.176 126.603 21.266 125.973 21.752C125.397 22.184 125.091 22.85 125.091 23.66C125.091 25.244 126.225 26.252 128.007 26.252C129.303 26.252 130.257 25.928 131.085 25.208C131.193 25.91 131.661 26.252 132.489 26.252C132.831 26.252 133.173 26.198 133.731 26.054V24.704C133.533 24.74 133.443 24.74 133.317 24.74C132.867 24.74 132.813 24.614 132.813 23.498L132.885 19.556C132.885 17.936 131.625 17.072 129.267 17.072C126.909 17.072 125.631 18.062 125.469 20.006H127.269ZM130.977 22.688C130.977 23.444 130.941 23.678 130.797 23.93C130.473 24.488 129.555 24.884 128.637 24.884C127.647 24.884 127.035 24.38 127.035 23.57C127.035 23.282 127.179 22.886 127.377 22.688C127.629 22.4 128.043 22.256 128.943 22.13C130.293 21.968 130.509 21.914 130.977 21.662V22.688ZM141.675 17.306H139.749V25.766C139.749 27.188 139.713 27.404 139.497 27.584C139.299 27.746 138.885 27.782 138.291 27.728V29.276C139.839 29.474 140.865 29.168 141.333 28.376C141.603 27.908 141.675 27.458 141.675 26.126V17.306ZM141.675 13.994H139.749V15.812H141.675V13.994ZM151.493 17.306H149.567V21.572C149.567 22.562 149.495 23.084 149.297 23.48C148.937 24.218 148.253 24.632 147.425 24.632C146.795 24.632 146.309 24.416 146.039 24.02C145.823 23.696 145.769 23.318 145.769 22.274V17.306H143.843V22.886C143.843 24.02 144.005 24.686 144.401 25.19C144.923 25.874 145.769 26.234 146.813 26.234C148.055 26.234 148.901 25.784 149.693 24.704V26H151.493V17.306ZM160.365 19.826C160.293 19.016 160.131 18.584 159.753 18.134C159.141 17.432 158.115 17.072 156.729 17.072C154.497 17.072 153.183 18.026 153.183 19.646C153.183 20.456 153.561 21.14 154.227 21.5C154.731 21.788 154.983 21.86 156.711 22.274C158.385 22.652 158.799 22.922 158.799 23.57C158.799 24.326 158.061 24.812 156.927 24.812C155.595 24.812 154.947 24.326 154.821 23.21H152.985C153.093 25.208 154.407 26.234 156.891 26.234C159.231 26.234 160.689 25.136 160.689 23.39C160.689 22.67 160.365 22.004 159.825 21.626C159.285 21.248 158.601 20.996 157.305 20.726C155.433 20.33 155.091 20.132 155.091 19.484C155.091 18.854 155.667 18.476 156.657 18.476C157.845 18.476 158.403 18.872 158.529 19.826H160.365ZM166.367 17.306H164.621V14.696H162.695V17.306H161.237V18.71H162.695V22.85C162.695 24.524 162.731 24.866 162.965 25.262C163.289 25.856 163.901 26.09 165.071 26.09C165.557 26.09 165.881 26.072 166.367 26.018V24.506C166.097 24.542 165.935 24.56 165.773 24.56C164.729 24.56 164.621 24.434 164.621 23.282V18.71H166.367V17.306ZM169.888 13.994H167.962V15.812H169.888V13.994ZM169.888 17.306H167.962V26H169.888V17.306ZM177.996 22.742C177.816 24.002 177.06 24.704 175.89 24.704C174.432 24.704 173.568 23.57 173.568 21.662C173.568 19.754 174.468 18.602 175.962 18.602C177.024 18.602 177.708 19.178 177.924 20.24H179.832C179.616 18.242 178.176 17.072 175.944 17.072C173.298 17.072 171.624 18.89 171.624 21.734C171.624 24.488 173.28 26.234 175.89 26.234C178.122 26.234 179.598 24.938 179.886 22.742H177.996ZM187.348 23.282C186.952 24.362 186.358 24.812 185.278 24.812C183.784 24.812 182.938 23.858 182.866 22.112H189.292C189.31 21.032 189.184 20.24 188.896 19.538C188.266 17.972 186.88 17.072 185.17 17.072C182.704 17.072 180.958 19.016 180.958 21.752C180.958 24.452 182.65 26.234 185.242 26.234C187.276 26.234 188.734 25.136 189.184 23.282H187.348ZM182.902 20.834C183.1 19.304 183.874 18.494 185.152 18.494C186.43 18.494 187.258 19.376 187.384 20.834H182.902ZM201.357 22.742C201.177 24.002 200.421 24.704 199.251 24.704C197.793 24.704 196.929 23.57 196.929 21.662C196.929 19.754 197.829 18.602 199.323 18.602C200.385 18.602 201.069 19.178 201.285 20.24H203.193C202.977 18.242 201.537 17.072 199.305 17.072C196.659 17.072 194.985 18.89 194.985 21.734C194.985 24.488 196.641 26.234 199.251 26.234C201.483 26.234 202.959 24.938 203.247 22.742H201.357ZM206.767 13.994H204.841V26H206.767V13.994ZM210.951 13.994H209.025V15.812H210.951V13.994ZM210.951 17.306H209.025V26H210.951V17.306ZM214.99 17.306H213.19V26H215.116V21.338C215.116 20.618 215.17 20.15 215.314 19.808C215.62 19.106 216.304 18.674 217.096 18.674C218.14 18.674 218.536 19.196 218.536 20.564V26H220.462V21.338C220.462 20.492 220.498 20.096 220.642 19.79C220.912 19.088 221.56 18.674 222.37 18.674C223 18.674 223.486 18.926 223.702 19.358C223.846 19.592 223.9 20.024 223.9 20.672V26H225.826V20.078C225.826 19.196 225.682 18.656 225.358 18.17C224.872 17.468 223.99 17.072 222.982 17.072C221.776 17.072 220.93 17.522 220.174 18.548C219.688 17.54 218.932 17.072 217.744 17.072C216.574 17.072 215.8 17.468 214.99 18.53V17.306ZM229.556 20.006C229.718 18.89 230.222 18.494 231.5 18.494C232.652 18.494 233.282 18.89 233.282 19.628V19.808V19.952C233.282 20.582 233.03 20.708 231.266 20.924C229.214 21.176 228.89 21.266 228.26 21.752C227.684 22.184 227.378 22.85 227.378 23.66C227.378 25.244 228.512 26.252 230.294 26.252C231.59 26.252 232.544 25.928 233.372 25.208C233.48 25.91 233.948 26.252 234.776 26.252C235.118 26.252 235.46 26.198 236.018 26.054V24.704C235.82 24.74 235.73 24.74 235.604 24.74C235.154 24.74 235.1 24.614 235.1 23.498L235.172 19.556C235.172 17.936 233.912 17.072 231.554 17.072C229.196 17.072 227.918 18.062 227.756 20.006H229.556ZM233.264 22.688C233.264 23.444 233.228 23.678 233.084 23.93C232.76 24.488 231.842 24.884 230.924 24.884C229.934 24.884 229.322 24.38 229.322 23.57C229.322 23.282 229.466 22.886 229.664 22.688C229.916 22.4 230.33 22.256 231.23 22.13C232.58 21.968 232.796 21.914 233.264 21.662V22.688ZM241.46 17.306H239.714V14.696H237.788V17.306H236.33V18.71H237.788V22.85C237.788 24.524 237.824 24.866 238.058 25.262C238.382 25.856 238.994 26.09 240.164 26.09C240.65 26.09 240.974 26.072 241.46 26.018V24.506C241.19 24.542 241.028 24.56 240.866 24.56C239.822 24.56 239.714 24.434 239.714 23.282V18.71H241.46V17.306ZM244.982 13.994H243.056V15.812H244.982V13.994ZM244.982 17.306H243.056V26H244.982V17.306ZM255.357 17.306H253.557V18.458C252.945 17.504 252.063 17.072 250.713 17.072C248.265 17.072 246.753 18.836 246.753 21.698C246.753 24.488 248.229 26.234 250.605 26.234C251.883 26.234 252.765 25.802 253.431 24.83V29.222H255.357V17.306ZM251.109 18.602C252.585 18.602 253.503 19.754 253.503 21.608C253.503 23.552 252.603 24.704 251.073 24.704C249.597 24.704 248.697 23.57 248.697 21.716C248.697 19.754 249.597 18.602 251.109 18.602ZM265.188 17.306H263.262V21.572C263.262 22.562 263.19 23.084 262.992 23.48C262.632 24.218 261.948 24.632 261.12 24.632C260.49 24.632 260.004 24.416 259.734 24.02C259.518 23.696 259.464 23.318 259.464 22.274V17.306H257.538V22.886C257.538 24.02 257.7 24.686 258.096 25.19C258.618 25.874 259.464 26.234 260.508 26.234C261.75 26.234 262.596 25.784 263.388 24.704V26H265.188V17.306ZM273.322 23.282C272.926 24.362 272.332 24.812 271.252 24.812C269.758 24.812 268.912 23.858 268.84 22.112H275.266C275.284 21.032 275.158 20.24 274.87 19.538C274.24 17.972 272.854 17.072 271.144 17.072C268.678 17.072 266.932 19.016 266.932 21.752C266.932 24.452 268.624 26.234 271.216 26.234C273.25 26.234 274.708 25.136 275.158 23.282H273.322ZM268.876 20.834C269.074 19.304 269.848 18.494 271.126 18.494C272.404 18.494 273.232 19.376 273.358 20.834H268.876Z" fill="#232323"/>
<path d="M81.552 34.706C79.842 34.706 78.474 35.264 77.34 36.398C76.26 37.496 75.702 39.08 75.702 41.006C75.702 44.75 78.024 47.288 81.462 47.288C84.9 47.288 87.222 44.732 87.222 40.988C87.222 37.298 84.882 34.706 81.552 34.706ZM81.516 36.488C83.676 36.488 85.116 38.288 85.116 40.97C85.116 43.724 83.694 45.506 81.498 45.506C79.248 45.506 77.808 43.742 77.808 40.97C77.808 38.216 79.248 36.488 81.516 36.488ZM96.6315 38.306H94.7055V42.572C94.7055 43.562 94.6335 44.084 94.4355 44.48C94.0755 45.218 93.3915 45.632 92.5635 45.632C91.9335 45.632 91.4475 45.416 91.1775 45.02C90.9615 44.696 90.9075 44.318 90.9075 43.274V38.306H88.9815V43.886C88.9815 45.02 89.1435 45.686 89.5395 46.19C90.0615 46.874 90.9075 47.234 91.9515 47.234C93.1935 47.234 94.0395 46.784 94.8315 45.704V47H96.6315V38.306ZM100.824 34.994H98.8977V36.812H100.824V34.994ZM100.824 38.306H98.8977V47H100.824V38.306ZM109.093 41.006C109.255 39.89 109.759 39.494 111.037 39.494C112.189 39.494 112.819 39.89 112.819 40.628V40.808V40.952C112.819 41.582 112.567 41.708 110.803 41.924C108.751 42.176 108.427 42.266 107.797 42.752C107.221 43.184 106.915 43.85 106.915 44.66C106.915 46.244 108.049 47.252 109.831 47.252C111.127 47.252 112.081 46.928 112.909 46.208C113.017 46.91 113.485 47.252 114.313 47.252C114.655 47.252 114.997 47.198 115.555 47.054V45.704C115.357 45.74 115.267 45.74 115.141 45.74C114.691 45.74 114.637 45.614 114.637 44.498L114.709 40.556C114.709 38.936 113.449 38.072 111.091 38.072C108.733 38.072 107.455 39.062 107.293 41.006H109.093ZM112.801 43.688C112.801 44.444 112.765 44.678 112.621 44.93C112.297 45.488 111.379 45.884 110.461 45.884C109.471 45.884 108.859 45.38 108.859 44.57C108.859 44.282 109.003 43.886 109.201 43.688C109.453 43.4 109.867 43.256 110.767 43.13C112.117 42.968 112.333 42.914 112.801 42.662V43.688ZM109.075 34.526L111.091 37.064H112.351L111.163 34.526H109.075ZM123.499 34.994H121.573V47H123.499V34.994ZM127.269 41.006C127.431 39.89 127.935 39.494 129.213 39.494C130.365 39.494 130.995 39.89 130.995 40.628V40.808V40.952C130.995 41.582 130.743 41.708 128.979 41.924C126.927 42.176 126.603 42.266 125.973 42.752C125.397 43.184 125.091 43.85 125.091 44.66C125.091 46.244 126.225 47.252 128.007 47.252C129.303 47.252 130.257 46.928 131.085 46.208C131.193 46.91 131.661 47.252 132.489 47.252C132.831 47.252 133.173 47.198 133.731 47.054V45.704C133.533 45.74 133.443 45.74 133.317 45.74C132.867 45.74 132.813 45.614 132.813 44.498L132.885 40.556C132.885 38.936 131.625 38.072 129.267 38.072C126.909 38.072 125.631 39.062 125.469 41.006H127.269ZM130.977 43.688C130.977 44.444 130.941 44.678 130.797 44.93C130.473 45.488 129.555 45.884 128.637 45.884C127.647 45.884 127.035 45.38 127.035 44.57C127.035 44.282 127.179 43.886 127.377 43.688C127.629 43.4 128.043 43.256 128.943 43.13C130.293 42.968 130.509 42.914 130.977 42.662V43.688ZM141.675 34.994H139.749V47H141.675V34.994ZM147.875 38.072C145.139 38.072 143.411 39.854 143.411 42.662C143.411 45.452 145.139 47.234 147.821 47.234C150.521 47.234 152.195 45.488 152.195 42.662C152.195 39.872 150.503 38.072 147.875 38.072ZM147.839 39.602C149.315 39.602 150.251 40.772 150.251 42.644C150.251 44.552 149.351 45.704 147.839 45.704C146.273 45.704 145.355 44.57 145.355 42.662C145.355 40.754 146.291 39.602 147.839 39.602ZM155.861 34.994H153.935V36.812H155.861V34.994ZM155.861 38.306H153.935V47H155.861V38.306ZM169.224 40.826C169.152 40.016 168.99 39.584 168.612 39.134C168 38.432 166.974 38.072 165.588 38.072C163.356 38.072 162.042 39.026 162.042 40.646C162.042 41.456 162.42 42.14 163.086 42.5C163.59 42.788 163.842 42.86 165.57 43.274C167.244 43.652 167.658 43.922 167.658 44.57C167.658 45.326 166.92 45.812 165.786 45.812C164.454 45.812 163.806 45.326 163.68 44.21H161.844C161.952 46.208 163.266 47.234 165.75 47.234C168.09 47.234 169.548 46.136 169.548 44.39C169.548 43.67 169.224 43.004 168.684 42.626C168.144 42.248 167.46 41.996 166.164 41.726C164.292 41.33 163.95 41.132 163.95 40.484C163.95 39.854 164.526 39.476 165.516 39.476C166.704 39.476 167.262 39.872 167.388 40.826H169.224ZM178.827 38.306H176.901V42.572C176.901 43.562 176.829 44.084 176.631 44.48C176.271 45.218 175.587 45.632 174.759 45.632C174.129 45.632 173.643 45.416 173.373 45.02C173.157 44.696 173.103 44.318 173.103 43.274V38.306H171.177V43.886C171.177 45.02 171.339 45.686 171.735 46.19C172.257 46.874 173.103 47.234 174.147 47.234C175.389 47.234 176.235 46.784 177.027 45.704V47H178.827V38.306ZM186.169 38.126C186.007 38.108 185.881 38.108 185.827 38.108C184.477 38.108 183.559 38.702 182.875 40.034V38.306H181.075V47H183.001V43.508C183.001 42.338 183.091 41.69 183.325 41.222C183.703 40.448 184.513 39.926 185.359 39.926C185.701 39.926 185.863 39.944 186.169 39.98V38.126ZM193.689 34.994H191.763V47H193.689V34.994ZM201.815 44.282C201.419 45.362 200.825 45.812 199.745 45.812C198.251 45.812 197.405 44.858 197.333 43.112H203.759C203.777 42.032 203.651 41.24 203.363 40.538C202.733 38.972 201.347 38.072 199.637 38.072C197.171 38.072 195.425 40.016 195.425 42.752C195.425 45.452 197.117 47.234 199.709 47.234C201.743 47.234 203.201 46.136 203.651 44.282H201.815ZM197.369 41.834C197.567 40.304 198.341 39.494 199.619 39.494C200.897 39.494 201.725 40.376 201.851 41.834H197.369ZM218.254 42.41C218.002 44.444 216.94 45.506 215.176 45.506C213.016 45.506 211.63 43.76 211.63 40.988C211.63 39.944 211.9 38.864 212.35 38.072C212.98 37.01 213.916 36.488 215.194 36.488C216.778 36.488 217.876 37.352 218.164 38.81H220.252C220.18 37.91 219.82 37.082 219.172 36.362C218.182 35.246 216.886 34.706 215.23 34.706C211.864 34.706 209.524 37.28 209.524 40.988C209.524 44.786 211.756 47.288 215.122 47.288C216.832 47.288 218.11 46.748 219.1 45.614C219.838 44.732 220.27 43.634 220.342 42.41H218.254ZM227.45 34.706C225.74 34.706 224.372 35.264 223.238 36.398C222.158 37.496 221.6 39.08 221.6 41.006C221.6 44.75 223.922 47.288 227.36 47.288C230.798 47.288 233.12 44.732 233.12 40.988C233.12 37.298 230.78 34.706 227.45 34.706ZM227.414 36.488C229.574 36.488 231.014 38.288 231.014 40.97C231.014 43.724 229.592 45.506 227.396 45.506C225.146 45.506 223.706 43.742 223.706 40.97C223.706 38.216 225.146 36.488 227.414 36.488ZM242.602 45.29H238.336L237.346 45.308L236.824 45.326C237.112 44.624 237.922 43.868 239.38 42.932C240.658 42.086 241.144 41.708 241.594 41.222C242.278 40.502 242.62 39.62 242.62 38.63C242.62 36.488 241.09 35.066 238.786 35.066C237.472 35.066 236.392 35.552 235.708 36.434C235.078 37.226 234.844 38.108 234.844 39.53H236.698C236.77 37.496 237.364 36.686 238.75 36.686C239.938 36.686 240.676 37.46 240.676 38.702C240.676 39.278 240.478 39.836 240.154 40.268C239.848 40.646 239.344 41.024 238.066 41.888C235.438 43.616 234.628 44.768 234.538 47H242.602V45.29Z" fill="#232323"/>
</svg>
