<svg width="122" height="130" viewBox="0 0 122 130" fill="none" xmlns="http://www.w3.org/2000/svg">
<path d="M87.1105 0C87.2459 0 87.3832 0.00259015 87.5188 0.00814047C87.6417 0.0125807 87.7645 0.0188711 87.8874 0.0288617C88.1186 0.0442176 88.3445 0.069564 88.5702 0.0993508C88.6823 0.114707 88.798 0.126362 88.9064 0.145418C89.1809 0.191486 89.4501 0.245694 89.7158 0.311558C89.7628 0.322474 89.8133 0.328764 89.8603 0.33968C89.8675 0.34227 89.8747 0.346895 89.8819 0.34782C90.209 0.431815 90.5271 0.533016 90.8396 0.647723C90.9298 0.679359 91.0166 0.717287 91.1052 0.754289C91.3274 0.841059 91.5478 0.934119 91.7646 1.03532C91.8153 1.05863 91.8677 1.07676 91.9163 1.10118C92.0501 1.16705 92.1839 1.23569 92.3139 1.3071C100.137 5.56105 107.953 9.81593 115.776 14.0708C115.608 13.9805 115.437 13.8993 115.263 13.8179C115.252 13.8125 115.245 13.8107 115.234 13.8072C115.234 13.8053 115.231 13.8053 115.229 13.8035C115.231 13.8053 115.234 13.8053 115.234 13.8072C119.197 15.6608 121.883 19.8687 121.874 25.1084L121.731 103.057C121.715 110.777 115.856 117.91 108.703 118.915L36.4836 129.065C35.9199 129.144 35.3652 129.182 34.8196 129.182C32.852 129.182 31.02 128.68 29.4247 127.782C29.4663 127.809 29.5042 127.84 29.5475 127.863C21.7181 123.605 13.8867 119.345 6.05534 115.084C2.41564 113.102 -0.00990669 109.053 3.0419e-05 104.076L0.143667 26.1274C0.145473 25.6521 0.168962 25.177 0.21413 24.7036C0.229486 24.5374 0.261105 24.3729 0.282786 24.2085C0.321631 23.9051 0.355057 23.5996 0.411065 23.3015C0.4472 23.1082 0.497789 22.9221 0.54115 22.7325C0.601676 22.4614 0.655879 22.1904 0.729955 21.923C0.785061 21.7278 0.854621 21.5364 0.91605 21.3412C0.991031 21.1064 1.05788 20.8698 1.14189 20.6385C1.14912 20.6222 1.15816 20.6022 1.16538 20.5824C1.20513 20.4759 1.25211 20.3728 1.29456 20.2663C1.41471 19.9608 1.54028 19.6592 1.67759 19.3629C1.74354 19.2184 1.81671 19.0774 1.88627 18.9364C1.96938 18.7721 2.04346 18.6039 2.1311 18.4432C2.1636 18.3836 2.20245 18.3331 2.23498 18.2733C2.52497 17.7477 2.83571 17.2345 3.1772 16.7466C3.18351 16.7377 3.18893 16.725 3.19798 16.7142C3.23321 16.6635 3.27476 16.6203 3.30819 16.5714C3.59907 16.1668 3.91164 15.7746 4.23504 15.397C4.28564 15.3374 4.32719 15.2725 4.37778 15.2145C4.4392 15.1478 4.50876 15.0882 4.57109 15.0212C4.87283 14.6906 5.18539 14.3744 5.50971 14.0708C5.58107 14.0059 5.64249 13.93 5.71387 13.8649C5.74097 13.8414 5.76987 13.8234 5.79516 13.8C6.23873 13.4079 6.70125 13.0429 7.18095 12.7032C7.21978 12.676 7.25503 12.6418 7.29386 12.6146C7.4637 12.4973 7.63985 12.3961 7.81241 12.2877C7.94972 12.2 8.08251 12.1097 8.22073 12.0275C8.49536 11.8666 8.77539 11.7212 9.05816 11.5785C9.15844 11.5278 9.2569 11.4692 9.35897 11.4213C9.37523 11.4131 9.39059 11.4024 9.40866 11.3933C9.75646 11.2307 10.1115 11.0879 10.471 10.9543C10.5668 10.919 10.6662 10.8866 10.7628 10.8531C11.0573 10.7528 11.3554 10.6598 11.6572 10.5785C11.7674 10.5513 11.8776 10.5197 11.9887 10.4936C12.3807 10.3987 12.7782 10.3173 13.1793 10.2596L85.3977 0.110266C85.759 0.0595735 86.1131 0.0288617 86.4655 0.0125807C86.5793 0.00629037 86.6894 0.00629037 86.8034 0.0035152C86.9046 0.000925054 87.0093 0 87.1105 0ZM115.776 14.0708C115.789 14.0782 115.803 14.0854 115.816 14.0926C115.803 14.0854 115.789 14.0782 115.776 14.0708ZM29.5475 127.863C29.552 127.865 29.5548 127.867 29.5575 127.869C29.5548 127.867 29.5503 127.865 29.5475 127.863ZM87.1105 5.71554L86.9334 5.71831L86.7889 5.72109C86.5377 5.73089 86.3606 5.74625 86.1908 5.76974L13.9743 15.9192C13.7982 15.9444 13.5849 15.986 13.3365 16.0493L13.2435 16.0728L13.1378 16.0982C12.9598 16.1487 12.7837 16.2029 12.6102 16.2624L12.4892 16.3022C12.2877 16.3781 12.1007 16.4504 11.9173 16.5316C11.8053 16.5931 11.7141 16.6401 11.6228 16.687C11.4566 16.7684 11.2805 16.8587 11.1097 16.9581L11.0438 17.0051L10.9055 17.0935L10.6309 17.2634L10.6029 17.2815C10.5298 17.3357 10.4557 17.3899 10.3807 17.4404C10.415 17.4152 10.4503 17.3918 10.4855 17.3664C10.1603 17.5977 9.86668 17.8308 9.58662 18.0783C9.51797 18.147 9.44931 18.2138 9.37795 18.2789C9.20178 18.4432 8.99041 18.6565 8.78895 18.8787C8.74468 18.9273 8.69952 18.9743 8.65434 19.0197C8.62995 19.0504 8.60466 19.0811 8.57756 19.1118C8.34087 19.3882 8.13129 19.6537 7.95333 19.9031C7.97139 19.8759 7.99128 19.8489 8.00933 19.8217C7.93977 19.9229 7.8666 20.0222 7.79073 20.1181C7.62179 20.371 7.43569 20.6764 7.24146 21.0305C7.20624 21.0973 7.16559 21.166 7.12404 21.2346L6.99757 21.4947L6.94878 21.5924L6.87561 21.7388C6.77352 21.9591 6.69132 22.1615 6.61091 22.3639L6.50793 22.615L6.53052 22.5535C6.48806 22.6638 6.46547 22.7397 6.44379 22.8155L6.3679 23.0594L6.26944 23.3595L6.22788 23.4858C6.20801 23.5617 6.18724 23.6666 6.16465 23.7713L6.12039 23.9737L6.05173 24.2682L6.021 24.3946C6.00565 24.4795 5.99301 24.6133 5.97584 24.7452L5.95055 24.9367C5.9379 25.0469 5.91984 25.1626 5.90177 25.2782L5.90449 25.2312C5.87557 25.5455 5.85931 25.8491 5.85931 26.1472L5.71568 104.086C5.71026 106.78 6.85753 109.014 8.78623 110.063L23.56 118.1L32.1827 122.79C32.1971 122.797 32.2108 122.804 32.2234 122.812L32.2306 122.803C33.013 123.244 33.8846 123.468 34.8196 123.468C35.1042 123.468 35.395 123.446 35.6886 123.406L107.908 113.256C112.217 112.651 116.004 107.879 116.015 103.046L116.159 25.0974C116.163 22.2953 114.882 19.9519 112.813 18.9834C112.875 19.0106 112.936 19.0395 112.998 19.0665C112.988 19.0611 112.979 19.0557 112.97 19.0504L100.556 12.2977L89.5839 6.32718C89.5532 6.31183 89.526 6.29647 89.5008 6.28389C89.4466 6.25947 89.3943 6.23597 89.3417 6.21063C89.2424 6.16641 89.143 6.12312 89.0418 6.08334L88.9713 6.05707L88.8485 6.00563L88.8685 6.01192L88.8631 6.011C88.7491 5.96863 88.6426 5.93329 88.5379 5.90443C88.4799 5.89185 88.4222 5.87909 88.3662 5.86558C88.2161 5.82858 88.0897 5.80323 87.9614 5.78159L87.7971 5.7616C87.7266 5.75346 87.6182 5.73903 87.5097 5.73182L87.4718 5.72923L87.4357 5.72645L87.3236 5.71924L87.1105 5.71554Z" fill="#F5F5F5"/>
<path d="M35.368 65.7547H27.1735L26.7426 66.1846V77.3974L26.3117 77.8292H21.1362L20.7053 77.3974V48.0721L21.1362 47.6403H35.368C41.4043 47.6403 45.7178 50.6593 45.7178 56.6975C45.7178 62.7338 41.4043 65.7547 35.368 65.7547ZM35.368 52.8165H27.1735L26.7426 53.2483V60.1483L27.1735 60.5782H35.368C37.9561 60.5782 39.6808 59.7165 39.6808 56.6975C39.6808 53.6785 37.9561 52.8165 35.368 52.8165Z" fill="#F5F5F5"/>
<path d="M60.8169 78.2591C52.1923 78.2591 48.3105 73.9463 48.3105 68.3401L48.7414 67.91H53.9169L54.3478 68.3401C54.3478 71.3591 56.0732 73.0845 61.2478 73.0845C65.1295 73.0845 67.2851 71.7909 67.2851 69.2019C67.2851 66.1845 65.5613 65.3228 59.5233 64.4591C53.486 63.5973 48.7414 61.4401 48.7414 55.4038C48.7414 51.091 52.1923 47.2102 60.386 47.2102C68.5787 47.2102 72.0295 51.091 72.0295 56.2656L71.5977 56.6974H66.4231L65.9931 56.2656C65.9931 53.6784 64.6977 52.3846 59.9542 52.3846C56.0732 52.3846 54.7787 53.6784 54.7787 55.4038C54.7787 57.991 56.5041 58.8546 62.5405 59.7164C68.5787 60.5782 73.3231 63.1655 73.3231 69.2019C73.3231 73.9463 69.8741 78.2591 60.8169 78.2591Z" fill="#F5F5F5"/>
</svg>
