<svg width="770" height="533" viewBox="0 0 770 533" fill="none" xmlns="http://www.w3.org/2000/svg">
<path d="M769 494.087L769 524.848L768.316 525.531L721.833 525.531L721.15 524.848L721.15 516.645L721.833 515.961L760.114 515.961L760.797 515.278L760.797 494.087L761.481 493.403L768.316 493.403L769 494.087ZM769 454.469L769 486.597L768.316 487.281L721.833 487.281L721.15 486.597L721.15 454.469L721.833 453.786L728.669 453.786L729.353 454.469L729.353 477.027L730.036 477.711L739.606 477.711L740.29 477.027L740.29 455.836L740.973 455.153L747.809 455.153L748.493 455.836L748.493 477.027L749.176 477.711L760.114 477.711L760.797 477.027L760.797 454.469L761.481 453.786L768.316 453.786L769 454.469ZM769 403.893L769 410.045L768.316 410.728L764.899 411.412L764.899 412.096C765.218 412.415 765.65 412.893 766.197 413.531C766.744 414.169 767.291 414.989 767.838 415.992C768.339 416.949 768.772 418.134 769.137 419.547C769.501 420.914 769.684 422.532 769.684 424.4C769.684 427.818 769.091 430.917 767.906 433.697C766.676 436.476 764.967 438.846 762.779 440.806C760.592 442.765 757.994 444.292 754.987 445.386C751.979 446.434 748.675 446.958 745.075 446.958C741.475 446.958 738.171 446.434 735.163 445.386C732.155 444.292 729.558 442.742 727.37 440.737C725.183 438.732 723.497 436.294 722.312 433.423C721.082 430.552 720.466 427.317 720.466 423.716C720.466 420.299 720.899 417.382 721.765 414.967C722.585 412.506 723.679 410.478 725.046 408.883C726.413 407.242 727.963 405.966 729.695 405.055C731.381 404.143 733.09 403.528 734.821 403.209L735.505 403.893L735.505 412.096L734.821 412.779C734.138 413.098 733.431 413.508 732.702 414.01C731.973 414.465 731.312 415.103 730.72 415.924C730.127 416.744 729.649 417.792 729.284 419.068C728.874 420.299 728.669 421.848 728.669 423.716C728.669 425.949 729.079 427.909 729.9 429.595C730.72 431.281 731.859 432.717 733.317 433.902C734.73 435.041 736.439 435.907 738.444 436.499C740.449 437.092 742.66 437.388 745.075 437.388C747.445 437.388 749.655 437.092 751.706 436.499C753.711 435.907 755.442 435.041 756.901 433.902C758.313 432.717 759.43 431.281 760.25 429.595C761.071 427.909 761.481 425.949 761.481 423.716C761.481 419.934 760.569 417.177 758.746 415.445C756.924 413.668 754.645 412.779 751.911 412.779L751.227 413.463L751.227 425.084L750.544 425.767L743.708 425.767L743.024 425.084L743.024 403.893L743.708 403.209L768.316 403.209L769 403.893ZM769 353.292L769 359.444L768.316 360.128L764.899 360.812L764.899 361.495C765.218 361.814 765.65 362.293 766.197 362.931C766.744 363.569 767.291 364.389 767.838 365.392C768.339 366.349 768.772 367.533 769.137 368.946C769.501 370.313 769.684 371.931 769.684 373.8C769.684 377.217 769.091 380.316 767.906 383.096C766.676 385.876 764.967 388.246 762.779 390.205C760.592 392.165 757.994 393.691 754.987 394.785C751.979 395.833 748.675 396.357 745.075 396.357C741.475 396.357 738.171 395.833 735.163 394.785C732.155 393.691 729.558 392.142 727.37 390.137C725.183 388.132 723.497 385.694 722.312 382.823C721.082 379.952 720.466 376.716 720.466 373.116C720.466 369.698 720.899 366.781 721.765 364.366C722.585 361.905 723.679 359.877 725.046 358.282C726.413 356.642 727.963 355.366 729.695 354.454C731.381 353.543 733.09 352.928 734.821 352.609L735.505 353.292L735.505 361.495L734.821 362.179C734.138 362.498 733.431 362.908 732.702 363.409C731.973 363.865 731.312 364.503 730.72 365.323C730.127 366.143 729.649 367.192 729.284 368.468C728.874 369.698 728.669 371.247 728.669 373.116C728.669 375.349 729.079 377.309 729.9 378.995C730.72 380.681 731.859 382.116 733.317 383.301C734.73 384.44 736.439 385.306 738.444 385.899C740.449 386.491 742.66 386.787 745.075 386.787C747.445 386.787 749.655 386.491 751.706 385.899C753.711 385.306 755.442 384.44 756.901 383.301C758.313 382.116 759.43 380.681 760.25 378.995C761.071 377.309 761.481 375.349 761.481 373.116C761.481 369.333 760.569 366.576 758.746 364.845C756.924 363.067 754.645 362.179 751.911 362.179L751.227 362.862L751.227 374.483L750.544 375.167L743.708 375.167L743.024 374.483L743.024 353.292L743.708 352.609L768.316 352.609L769 353.292ZM769 310.211L769 342.339L768.316 343.023L721.833 343.023L721.15 342.339L721.15 310.211L721.833 309.528L728.669 309.528L729.353 310.211L729.353 332.769L730.036 333.453L739.606 333.453L740.29 332.769L740.29 311.578L740.973 310.895L747.809 310.895L748.493 311.578L748.493 332.769L749.176 333.453L760.114 333.453L760.797 332.769L760.797 310.211L761.481 309.528L768.316 309.528L769 310.211ZM755.329 245.963C757.197 245.963 758.997 246.328 760.729 247.057C762.46 247.786 763.987 248.948 765.309 250.543C766.63 252.093 767.701 254.121 768.522 256.627C769.296 259.133 769.684 262.187 769.684 265.787C769.684 269.205 769.296 272.167 768.522 274.673C767.701 277.134 766.585 279.185 765.172 280.826C763.759 282.466 762.096 283.674 760.182 284.448C758.268 285.223 756.194 285.611 753.961 285.611L753.278 284.927L753.278 276.724L753.961 276.041C756.331 276.041 758.177 275.243 759.498 273.648C760.82 272.053 761.481 269.205 761.481 265.103C761.481 262.004 760.979 259.635 759.977 257.994C758.929 256.354 757.379 255.533 755.329 255.533C754.144 255.533 753.141 255.738 752.321 256.149C751.501 256.513 750.817 257.174 750.27 258.131C749.723 259.042 749.268 260.296 748.903 261.891C748.493 263.44 748.128 265.422 747.809 267.838C747.445 270.207 746.943 272.44 746.305 274.537C745.667 276.633 744.802 278.456 743.708 280.005C742.614 281.509 741.224 282.717 739.538 283.628C737.852 284.494 735.824 284.927 733.454 284.927C731.722 284.927 730.082 284.585 728.532 283.902C726.983 283.172 725.616 282.056 724.431 280.552C723.201 279.048 722.244 277.134 721.56 274.81C720.831 272.486 720.466 269.706 720.466 266.47C720.466 263.235 720.831 260.455 721.56 258.131C722.289 255.807 723.292 253.893 724.568 252.389C725.844 250.885 727.37 249.791 729.148 249.108C730.879 248.379 732.771 248.014 734.821 248.014L735.505 248.698L735.505 256.9L734.821 257.584C733.773 257.584 732.885 257.744 732.155 258.063C731.381 258.336 730.743 258.837 730.241 259.566C729.695 260.296 729.307 261.275 729.079 262.506C728.806 263.736 728.669 265.286 728.669 267.154C728.669 270.207 729.125 272.349 730.036 273.58C730.948 274.765 732.087 275.357 733.454 275.357C734.457 275.357 735.323 275.175 736.052 274.81C736.781 274.4 737.396 273.739 737.897 272.828C738.399 271.871 738.832 270.595 739.196 269C739.561 267.405 739.925 265.422 740.29 263.053C740.609 260.637 741.133 258.404 741.862 256.354C742.591 254.257 743.548 252.457 744.733 250.953C745.918 249.404 747.376 248.196 749.108 247.33C750.84 246.419 752.913 245.963 755.329 245.963ZM750.544 199.47C756.741 199.47 761.481 201.11 764.762 204.391C768.043 207.673 769.684 212.412 769.684 218.61C769.684 224.807 768.043 229.547 764.762 232.828C761.481 236.109 756.741 237.75 750.544 237.75L721.833 237.75L721.15 237.066L721.15 228.863L721.833 228.18L750.544 228.18C753.961 228.18 756.65 227.451 758.61 225.992C760.524 224.488 761.481 222.028 761.481 218.61C761.481 215.192 760.524 212.754 758.61 211.295C756.65 209.792 753.961 209.04 750.544 209.04L721.833 209.04L721.15 208.356L721.15 200.153L721.833 199.47L750.544 199.47ZM769 157.107L769 187.868L768.316 188.551L721.833 188.551L721.15 187.868L721.15 179.665L721.833 178.981L760.114 178.981L760.797 178.298L760.797 157.107L761.481 156.423L768.316 156.423L769 157.107ZM761.481 114.039C761.481 111.305 760.957 109.094 759.908 107.408C758.815 105.677 757.06 104.469 754.645 103.785L753.961 103.102L753.961 94.8989L754.645 94.2154C759.476 94.8989 763.19 96.9952 765.787 100.504C768.385 104.013 769.684 108.525 769.684 114.039C769.684 117.776 769.091 121.103 767.906 124.019C766.676 126.89 764.967 129.328 762.779 131.333C760.592 133.293 757.994 134.774 754.987 135.777C751.979 136.779 748.675 137.28 745.075 137.28C741.475 137.28 738.171 136.779 735.163 135.777C732.155 134.774 729.558 133.293 727.37 131.333C725.183 129.328 723.497 126.89 722.312 124.019C721.082 121.103 720.466 117.776 720.466 114.039C720.466 111.305 720.808 108.798 721.492 106.52C722.13 104.241 723.064 102.259 724.294 100.573C725.525 98.8409 727.029 97.4282 728.806 96.3344C730.583 95.2407 732.588 94.5344 734.821 94.2154L735.505 94.8989L735.505 103.102L734.821 103.785C730.72 105.153 728.669 108.57 728.669 114.039C728.669 116.409 729.079 118.459 729.9 120.191C730.72 121.923 731.859 123.358 733.317 124.498C734.73 125.591 736.439 126.412 738.444 126.959C740.449 127.46 742.66 127.71 745.075 127.71C747.445 127.71 749.655 127.46 751.706 126.959C753.711 126.412 755.442 125.591 756.901 124.498C758.313 123.358 759.43 121.923 760.25 120.191C761.071 118.459 761.481 116.409 761.481 114.039ZM745.075 51.8365C742.66 51.8365 740.449 52.1327 738.444 52.7251C736.439 53.3176 734.73 54.2062 733.317 55.3911C731.859 56.5304 730.72 57.9431 729.9 59.6292C729.079 61.3154 728.669 63.2749 728.669 65.5079C728.669 67.741 729.079 69.7005 729.9 71.3867C730.72 73.0728 731.859 74.5083 733.317 75.6932C734.73 76.8325 736.439 77.6983 738.444 78.2908C740.449 78.8832 742.66 79.1794 745.075 79.1794C747.445 79.1794 749.655 78.8832 751.706 78.2908C753.711 77.6983 755.442 76.8325 756.901 75.6932C758.313 74.5083 759.43 73.0728 760.25 71.3867C761.071 69.7005 761.481 67.741 761.481 65.5079C761.481 63.2749 761.071 61.3154 760.25 59.6292C759.43 57.9431 758.313 56.5304 756.901 55.3911C755.442 54.2062 753.711 53.3176 751.706 52.7251C749.655 52.1327 747.445 51.8365 745.075 51.8365ZM745.075 42.2665C748.675 42.2665 751.979 42.8133 754.987 43.907C757.994 44.9552 760.592 46.4818 762.779 48.487C764.967 50.4921 766.676 52.9302 767.906 55.8012C769.091 58.6722 769.684 61.9078 769.684 65.5079C769.684 69.1081 769.091 72.3437 767.906 75.2147C766.676 78.0857 764.967 80.5238 762.779 82.5289C760.592 84.5341 757.994 86.0835 754.987 87.1772C751.979 88.2254 748.675 88.7494 745.075 88.7494C741.475 88.7494 738.171 88.2254 735.163 87.1772C732.155 86.0835 729.558 84.5341 727.37 82.5289C725.183 80.5238 723.497 78.0857 722.312 75.2147C721.082 72.3437 720.466 69.1081 720.466 65.5079C720.466 61.9078 721.082 58.6722 722.312 55.8012C723.497 52.9302 725.183 50.4921 727.37 48.487C729.558 46.4818 732.155 44.9552 735.163 43.907C738.171 42.8133 741.475 42.2665 745.075 42.2665ZM769 4.00237L769 36.1303L768.316 36.8139L760.797 36.8139L759.43 36.1303L749.176 23.826C747.445 21.7753 745.964 20.1347 744.733 18.9043C743.457 17.6283 742.318 16.6485 741.315 15.9649C740.267 15.2813 739.287 14.8256 738.376 14.5978C737.464 14.3699 736.507 14.256 735.505 14.256C733.454 14.256 731.814 14.78 730.583 15.8282C729.307 16.8308 728.669 18.3574 728.669 20.4081C728.669 23.1424 729.307 24.9653 730.583 25.8767C731.814 26.7882 733.454 27.2439 735.505 27.2439L736.188 27.9274L736.188 36.1303L735.505 36.8139C733.636 36.8139 731.814 36.5405 730.036 35.9936C728.213 35.4467 726.596 34.5353 725.183 33.2593C723.77 31.9377 722.631 30.2288 721.765 28.1325C720.899 26.0362 720.466 23.4614 720.466 20.4081C720.466 17.8561 720.876 15.6003 721.697 13.6408C722.471 11.6812 723.52 10.0406 724.841 8.71903C726.163 7.39745 727.689 6.39488 729.421 5.71131C731.153 5.02773 732.953 4.68595 734.821 4.68595C736.69 4.68595 738.399 4.9138 739.948 5.36952C741.452 5.77967 742.91 6.46324 744.323 7.42024C745.736 8.37724 747.148 9.58489 748.561 11.0432C749.974 12.5015 751.546 14.256 753.278 16.3067L760.114 24.5096L760.797 24.5096L760.797 4.00237L761.481 3.3188L768.316 3.3188L769 4.00237Z" fill="#F5F5F5"/>
<path d="M483.25 518.309C483.25 520.177 482.885 521.977 482.156 523.709C481.427 525.441 480.265 526.967 478.67 528.289C477.12 529.611 475.092 530.681 472.586 531.502C470.08 532.276 467.026 532.664 463.426 532.664C460.008 532.664 457.046 532.276 454.54 531.502C452.079 530.681 450.028 529.565 448.388 528.152C446.747 526.739 445.539 525.076 444.765 523.162C443.99 521.248 443.603 519.175 443.603 516.942L444.286 516.258H452.489L453.173 516.942C453.173 519.311 453.97 521.157 455.565 522.479C457.16 523.8 460.008 524.461 464.11 524.461C467.209 524.461 469.578 523.96 471.219 522.957C472.859 521.909 473.68 520.359 473.68 518.309C473.68 517.124 473.475 516.121 473.065 515.301C472.7 514.481 472.039 513.797 471.082 513.25C470.171 512.703 468.918 512.248 467.323 511.883C465.773 511.473 463.791 511.108 461.375 510.789C459.006 510.425 456.773 509.924 454.676 509.286C452.58 508.648 450.757 507.782 449.208 506.688C447.704 505.594 446.496 504.204 445.585 502.518C444.719 500.832 444.286 498.804 444.286 496.434C444.286 494.703 444.628 493.062 445.311 491.513C446.041 489.963 447.157 488.596 448.661 487.411C450.165 486.181 452.079 485.224 454.403 484.54C456.727 483.811 459.507 483.447 462.743 483.447C465.978 483.447 468.758 483.811 471.082 484.54C473.406 485.269 475.32 486.272 476.824 487.548C478.328 488.824 479.422 490.351 480.105 492.128C480.834 493.86 481.199 495.751 481.199 497.802L480.515 498.485H472.313L471.629 497.802C471.629 496.753 471.47 495.865 471.151 495.136C470.877 494.361 470.376 493.723 469.647 493.222C468.918 492.675 467.938 492.287 466.707 492.06C465.477 491.786 463.927 491.649 462.059 491.649C459.006 491.649 456.864 492.105 455.633 493.017C454.449 493.928 453.856 495.067 453.856 496.434C453.856 497.437 454.038 498.303 454.403 499.032C454.813 499.761 455.474 500.376 456.385 500.878C457.342 501.379 458.618 501.812 460.213 502.176C461.808 502.541 463.791 502.906 466.16 503.27C468.576 503.589 470.809 504.113 472.859 504.842C474.956 505.572 476.756 506.529 478.26 507.713C479.809 508.898 481.017 510.357 481.883 512.088C482.794 513.82 483.25 515.893 483.25 518.309ZM500.35 531.98H492.147L491.463 531.297V484.814L492.147 484.13H500.35L501.033 484.814V531.297L500.35 531.98ZM501.717 480.029H495.565L494.198 479.345L486.678 472.509V471.142L487.362 470.459H494.198L495.565 471.142L502.401 477.978V479.345L501.717 480.029ZM566.627 531.98H560.475L559.791 531.297L556.373 522.41L555.006 521.727H537.917L536.55 522.41L533.132 531.297L532.448 531.98H526.296L525.613 531.297V524.461L541.335 484.814L542.018 484.13H550.905L551.588 484.814L567.311 524.461V531.297L566.627 531.98ZM546.803 496.434H546.12L539.968 512.84L540.651 513.524H552.272L552.956 512.84L546.803 496.434ZM605.617 531.98H574.857L574.173 531.297V484.814L574.857 484.13H583.06L583.743 484.814V523.094L584.427 523.777H605.617L606.301 524.461V531.297L605.617 531.98ZM643.868 531.98H613.107L612.424 531.297V484.814L613.107 484.13H621.31L621.994 484.814V523.094L622.677 523.777H643.868L644.552 524.461V531.297L643.868 531.98ZM688.923 531.98H682.77L682.087 531.297L678.669 522.41L677.302 521.727H660.212L658.845 522.41L655.427 531.297L654.744 531.98H648.592L647.908 531.297V524.461L663.63 484.814L664.314 484.13H673.2L673.884 484.814L689.606 524.461V531.297L688.923 531.98ZM669.099 496.434H668.415L662.263 512.84L662.947 513.524H674.568L675.251 512.84L669.099 496.434Z" fill="#F5F5F5"/>
</svg>
