<svg width="770" height="533" viewBox="0 0 770 533" fill="none" xmlns="http://www.w3.org/2000/svg">
<g clip-path="url(#clip0)">
<path d="M60.7467 50H54.4673L53.7696 49.3023L53.0719 45.8137H52.3742C52.0486 46.1393 51.5602 46.5812 50.909 47.1394C50.2578 47.6975 49.4205 48.2557 48.3972 48.8139C47.4204 49.3255 46.2111 49.7674 44.7691 50.1395C43.3737 50.5117 41.7224 50.6977 39.8154 50.6977C36.3268 50.6977 33.1638 50.093 30.3265 48.8837C27.4891 47.6278 25.0704 45.8835 23.0703 43.6508C21.0702 41.4181 19.5119 38.7668 18.3956 35.6969C17.3258 32.627 16.7908 29.2547 16.7908 25.5801C16.7908 21.9054 17.3258 18.5332 18.3956 15.4632C19.5119 12.3933 21.0934 9.74199 23.14 7.50931C25.1867 5.27663 27.6752 3.55561 30.6056 2.34624C33.5359 1.09036 36.8385 0.462417 40.5131 0.462417C44.0016 0.462417 46.9785 0.904301 49.4438 1.78807C51.9556 2.62533 54.0254 3.74167 55.6534 5.13709C57.3279 6.53252 58.6303 8.114 59.5606 9.88153C60.4909 11.6026 61.1188 13.3468 61.4444 15.1144L60.7467 15.8121H52.3742L51.6765 15.1144C51.3509 14.4167 50.9322 13.6957 50.4206 12.9515C49.9554 12.2072 49.3042 11.5328 48.467 10.9281C47.6297 10.3234 46.5599 9.83502 45.2575 9.46291C44.0016 9.04428 42.4202 8.83497 40.5131 8.83497C38.2339 8.83497 36.2338 9.25359 34.5127 10.0908C32.7917 10.9281 31.3265 12.091 30.1172 13.5794C28.9543 15.0213 28.0705 16.7656 27.4658 18.8123C26.8612 20.8589 26.5588 23.1148 26.5588 25.5801C26.5588 27.9988 26.8612 30.2547 27.4658 32.3479C28.0705 34.3945 28.9543 36.162 30.1172 37.6505C31.3265 39.0924 32.7917 40.232 34.5127 41.0693C36.2338 41.9065 38.2339 42.3252 40.5131 42.3252C44.3737 42.3252 47.1879 41.3949 48.9554 39.5343C50.7694 37.6737 51.6765 35.348 51.6765 32.5572L50.9788 31.8595H39.1176L38.4199 31.1618V24.1846L39.1176 23.4869H60.7467L61.4444 24.1846V49.3023L60.7467 50ZM80.299 50H71.9265L71.2288 49.3023V1.85784L71.9265 1.16013H80.299L80.9967 1.85784V49.3023L80.299 50ZM131.218 31.1618C131.218 37.4877 129.544 42.3252 126.195 45.6742C122.846 49.0232 118.008 50.6977 111.682 50.6977C105.357 50.6977 100.519 49.0232 97.17 45.6742C93.821 42.3252 92.1465 37.4877 92.1465 31.1618V1.85784L92.8442 1.16013H101.217L101.914 1.85784V31.1618C101.914 34.6503 102.659 37.3947 104.147 39.3948C105.682 41.3484 108.194 42.3252 111.682 42.3252C115.171 42.3252 117.66 41.3484 119.148 39.3948C120.683 37.3947 121.45 34.6503 121.45 31.1618V1.85784L122.148 1.16013H130.521L131.218 1.85784V31.1618ZM180.039 36.0458C180.039 37.9528 179.667 39.7901 178.923 41.5577C178.179 43.3252 176.993 44.8834 175.365 46.2324C173.783 47.5813 171.713 48.6743 169.155 49.5116C166.597 50.3023 163.48 50.6977 159.806 50.6977C156.317 50.6977 153.294 50.3023 150.735 49.5116C148.224 48.6743 146.13 47.5347 144.456 46.0928C142.781 44.6509 141.549 42.9531 140.758 40.9995C139.967 39.0459 139.572 36.9295 139.572 34.6503L140.27 33.9526H148.642L149.34 34.6503C149.34 37.0691 150.154 38.9529 151.782 40.3018C153.41 41.6507 156.317 42.3252 160.503 42.3252C163.666 42.3252 166.085 41.8135 167.759 40.7902C169.434 39.7204 170.271 38.1389 170.271 36.0458C170.271 34.8364 170.062 33.8131 169.643 32.9758C169.271 32.1386 168.597 31.4408 167.62 30.8827C166.69 30.3245 165.41 29.8594 163.783 29.4873C162.201 29.0686 160.178 28.6965 157.712 28.3709C155.294 27.9988 153.014 27.4871 150.875 26.8359C148.735 26.1847 146.875 25.301 145.293 24.1846C143.758 23.0683 142.526 21.6496 141.595 19.9286C140.711 18.2076 140.27 16.1377 140.27 13.719C140.27 11.9514 140.618 10.2769 141.316 8.69543C142.06 7.11394 143.2 5.71852 144.735 4.50915C146.27 3.25327 148.224 2.27647 150.596 1.57876C152.968 0.834531 155.805 0.462417 159.108 0.462417C162.41 0.462417 165.248 0.834531 167.62 1.57876C169.992 2.32298 171.946 3.3463 173.481 4.64869C175.016 5.95109 176.132 7.50931 176.83 9.32337C177.574 11.0909 177.946 13.0212 177.946 15.1144L177.248 15.8121H168.876L168.178 15.1144C168.178 14.0446 168.015 13.1375 167.69 12.3933C167.411 11.6026 166.899 10.9514 166.155 10.4397C165.41 9.88153 164.41 9.48616 163.155 9.25359C161.899 8.97451 160.317 8.83497 158.41 8.83497C155.294 8.83497 153.107 9.30011 151.852 10.2304C150.642 11.1607 150.038 12.3235 150.038 13.719C150.038 14.7423 150.224 15.626 150.596 16.3703C151.014 17.1145 151.689 17.7424 152.619 18.2541C153.596 18.7657 154.898 19.2076 156.526 19.5797C158.154 19.9519 160.178 20.324 162.596 20.6961C165.062 21.0217 167.341 21.5566 169.434 22.3008C171.574 23.045 173.411 24.0218 174.946 25.2312C176.527 26.4406 177.76 27.929 178.644 29.6966C179.574 31.4641 180.039 33.5805 180.039 36.0458ZM223.325 9.53268H209.37L208.673 10.2304V49.3023L207.975 50H199.602L198.905 49.3023V10.2304L198.207 9.53268H184.253L183.555 8.83497V1.85784L184.253 1.16013H223.325L224.022 1.85784V8.83497L223.325 9.53268ZM240.078 50H231.705L231.008 49.3023V1.85784L231.705 1.16013H240.078L240.776 1.85784V49.3023L240.078 50ZM285.416 50H250.53L249.832 49.3023V41.6275L250.53 40.232L272.857 10.2304V9.53268H251.228L250.53 8.83497V1.85784L251.228 1.16013H284.02L284.718 1.85784V9.53268L284.02 10.9281L261.693 40.9297V41.6275H285.416L286.113 42.3252V49.3023L285.416 50ZM304.262 50H295.889L295.192 49.3023V1.85784L295.889 1.16013H304.262L304.96 1.85784V49.3023L304.262 50ZM353.786 50H347.507L346.809 49.3023L343.32 40.232L341.925 39.5343H324.482L323.087 40.232L319.598 49.3023L318.9 50H312.621L311.923 49.3023V42.3252L327.971 1.85784L328.668 1.16013H337.739L338.436 1.85784L354.484 42.3252V49.3023L353.786 50ZM333.552 13.719H332.855L326.575 30.4641L327.273 31.1618H339.134L339.832 30.4641L333.552 13.719ZM399.862 42.3252C402.653 42.3252 404.909 41.7903 406.63 40.7204C408.398 39.6041 409.63 37.8133 410.328 35.348L411.026 34.6503H419.398L420.096 35.348C419.398 40.2785 417.259 44.0694 413.677 46.7208C410.095 49.3721 405.49 50.6977 399.862 50.6977C396.048 50.6977 392.653 50.093 389.676 48.8837C386.745 47.6278 384.257 45.8835 382.21 43.6508C380.21 41.4181 378.698 38.7668 377.675 35.6969C376.652 32.627 376.14 29.2547 376.14 25.5801C376.14 21.9054 376.652 18.5332 377.675 15.4632C378.698 12.3933 380.21 9.74199 382.21 7.50931C384.257 5.27663 386.745 3.55561 389.676 2.34624C392.653 1.09036 396.048 0.462417 399.862 0.462417C402.653 0.462417 405.211 0.811273 407.537 1.50898C409.863 2.16018 411.886 3.11372 413.607 4.36961C415.375 5.62549 416.817 7.16046 417.933 8.97451C419.049 10.7886 419.77 12.8352 420.096 15.1144L419.398 15.8121H411.026L410.328 15.1144C408.932 10.9281 405.444 8.83497 399.862 8.83497C397.443 8.83497 395.35 9.25359 393.583 10.0908C391.815 10.9281 390.35 12.091 389.187 13.5794C388.071 15.0213 387.234 16.7656 386.675 18.8123C386.164 20.8589 385.908 23.1148 385.908 25.5801C385.908 27.9988 386.164 30.2547 386.675 32.3479C387.234 34.3945 388.071 36.162 389.187 37.6505C390.35 39.0924 391.815 40.232 393.583 41.0693C395.35 41.9065 397.443 42.3252 399.862 42.3252ZM460.56 50H429.163L428.466 49.3023V1.85784L429.163 1.16013H437.536L438.234 1.85784V40.9297L438.931 41.6275H460.56L461.258 42.3252V49.3023L460.56 50ZM476.578 50H468.205L467.508 49.3023V1.85784L468.205 1.16013H476.578L477.276 1.85784V49.3023L476.578 50ZM540.056 50H531.684L530.986 49.3023V22.0915H530.288L519.125 49.3023L518.427 50H510.752L510.054 49.3023L498.891 22.0915H498.193V49.3023L497.496 50H489.123L488.425 49.3023V1.85784L489.123 1.16013H499.589L500.286 1.85784L514.241 36.0458H514.938L528.893 1.85784L529.59 1.16013H540.056L540.754 1.85784V49.3023L540.056 50ZM589.605 50H583.325L582.627 49.3023L579.139 40.232L577.743 39.5343H560.301L558.905 40.232L555.417 49.3023L554.719 50H548.44L547.742 49.3023V42.3252L563.789 1.85784L564.487 1.16013H573.557L574.255 1.85784L590.302 42.3252V49.3023L589.605 50ZM569.371 13.719H568.673L562.394 30.4641L563.091 31.1618H574.953L575.65 30.4641L569.371 13.719ZM628.734 9.53268H614.779L614.082 10.2304V49.3023L613.384 50H605.011L604.314 49.3023V10.2304L603.616 9.53268H589.662L588.964 8.83497V1.85784L589.662 1.16013H628.734L629.431 1.85784V8.83497L628.734 9.53268ZM645.487 50H637.114L636.417 49.3023V1.85784L637.114 1.16013H645.487L646.185 1.85784V49.3023L645.487 50ZM678.266 42.3252C681.057 42.3252 683.313 41.7903 685.034 40.7204C686.801 39.6041 688.034 37.8133 688.732 35.348L689.429 34.6503H697.802L698.499 35.348C697.802 40.2785 695.662 44.0694 692.081 46.7208C688.499 49.3721 683.894 50.6977 678.266 50.6977C674.452 50.6977 671.056 50.093 668.079 48.8837C665.149 47.6278 662.66 45.8835 660.614 43.6508C658.614 41.4181 657.102 38.7668 656.079 35.6969C655.055 32.627 654.544 29.2547 654.544 25.5801C654.544 21.9054 655.055 18.5332 656.079 15.4632C657.102 12.3933 658.614 9.74199 660.614 7.50931C662.66 5.27663 665.149 3.55561 668.079 2.34624C671.056 1.09036 674.452 0.462417 678.266 0.462417C681.057 0.462417 683.615 0.811273 685.941 1.50898C688.266 2.16018 690.29 3.11372 692.011 4.36961C693.778 5.62549 695.22 7.16046 696.337 8.97451C697.453 10.7886 698.174 12.8352 698.499 15.1144L697.802 15.8121H689.429L688.732 15.1144C687.336 10.9281 683.848 8.83497 678.266 8.83497C675.847 8.83497 673.754 9.25359 671.986 10.0908C670.219 10.9281 668.754 12.091 667.591 13.5794C666.474 15.0213 665.637 16.7656 665.079 18.8123C664.567 20.8589 664.312 23.1148 664.312 25.5801C664.312 27.9988 664.567 30.2547 665.079 32.3479C665.637 34.3945 666.474 36.162 667.591 37.6505C668.754 39.0924 670.219 40.232 671.986 41.0693C673.754 41.9065 675.847 42.3252 678.266 42.3252ZM743.864 50H737.585L736.887 49.3023L733.399 40.232L732.003 39.5343H714.561L713.165 40.232L709.677 49.3023L708.979 50H702.699L702.002 49.3023V42.3252L718.049 1.85784L718.747 1.16013H727.817L728.515 1.85784L744.562 42.3252V49.3023L743.864 50ZM723.631 13.719H722.933L716.654 30.4641L717.351 31.1618H729.212L729.91 30.4641L723.631 13.719Z" fill="#F5F5F5"/>
<path d="M49.0458 293.655C39.2778 293.655 35.0915 301.33 33.6961 311.098C32.3007 320.866 30.9052 323.657 26.719 323.657C23.9281 323.657 21.835 321.564 21.835 315.284C21.835 307.609 23.9281 305.516 28.1144 305.516L28.8121 304.819L28.8121 296.446L28.1144 295.748C19.7418 295.748 13.4624 301.33 13.4624 314.587C13.4624 327.843 19.7418 333.425 26.719 333.425C36.4869 333.425 39.9755 325.75 41.3709 315.982C42.7663 306.214 44.1618 303.423 49.0458 303.423C53.232 303.423 55.3252 306.912 55.3252 313.191C55.3252 321.564 52.5343 324.355 47.6503 324.355L46.9526 325.052L46.9526 333.425L47.6503 334.123C56.7206 334.123 63.6977 327.843 63.6977 313.889C63.6977 299.237 56.7206 293.655 49.0458 293.655ZM62.3023 275.504L14.8578 275.504L14.1601 276.202L14.1601 284.574L14.8578 285.272L62.3023 285.272L63 284.574L63 276.202L62.3023 275.504ZM9.27614 274.108L7.88072 274.108L0.903594 281.086L0.205882 282.481L0.205882 289.458L0.903594 290.156L2.29902 290.156L9.27614 282.481L9.97385 281.086L9.97385 274.806L9.27614 274.108ZM62.3023 207.856L55.3252 207.856L14.8578 223.903L14.1601 224.601L14.1601 233.671L14.8578 234.369L55.3252 250.416L62.3023 250.416L63 249.718L63 243.439L62.3023 242.741L53.232 239.253L52.5343 237.857L52.5343 220.415L53.232 219.019L62.3023 215.531L63 214.833L63 208.553L62.3023 207.856ZM43.4641 222.508L44.1618 223.205L44.1618 235.066L43.4641 235.764L26.719 229.485L26.719 228.787L43.4641 222.508ZM62.3023 168.059L55.3252 168.059L54.6275 168.757L54.6275 190.386L53.9297 191.083L14.8578 191.083L14.1601 191.781L14.1601 200.154L14.8578 200.851L62.3023 200.851L63 200.154L63 168.757L62.3023 168.059ZM62.3023 129.017L55.3252 129.017L54.6275 129.715L54.6275 151.344L53.9297 152.041L14.8578 152.041L14.1601 152.739L14.1601 161.112L14.8578 161.809L62.3023 161.809L63 161.112L63 129.715L62.3023 129.017ZM62.3023 83.0306L55.3252 83.0306L14.8578 99.078L14.1601 99.7757L14.1601 108.846L14.8578 109.544L55.3252 125.591L62.3023 125.591L63 124.893L63 118.614L62.3023 117.916L53.232 114.428L52.5343 113.032L52.5343 95.5894L53.232 94.194L62.3023 90.7054L63 90.0077L63 83.7283L62.3023 83.0306ZM43.4641 97.6826L44.1618 98.3803L44.1618 110.241L43.4641 110.939L26.719 104.66L26.719 103.962L43.4641 97.6826Z" fill="#F5F5F5"/>
</g>
<defs>
<clipPath id="clip0">
<rect width="770" height="533" fill="white"/>
</clipPath>
</defs>
</svg>
