<svg width="266" height="61" viewBox="0 0 266 61" fill="none" xmlns="http://www.w3.org/2000/svg">
<path d="M84.738 17.8558C84.648 15.4438 83.01 14.0578 80.256 14.0578C77.556 14.0578 75.81 15.4438 75.81 17.5678C75.81 18.6298 76.206 19.4218 76.998 19.9618C77.52 20.3038 78.69 20.6998 80.328 21.1138C81.588 21.4198 81.75 21.4738 82.128 21.6538C82.848 21.9958 83.136 22.3918 83.136 23.0218C83.136 24.2278 82.182 24.9298 80.562 24.9298C78.564 24.9298 77.502 24.0478 77.448 22.3378H75.378C75.414 25.0198 77.286 26.6038 80.436 26.6038C83.37 26.6038 85.206 25.1458 85.206 22.8418C85.206 21.7798 84.72 20.8978 83.802 20.2858C83.19 19.8718 82.506 19.6198 80.868 19.2418C79.158 18.8278 78.834 18.7378 78.384 18.4678C78.006 18.2698 77.826 17.9098 77.826 17.4238C77.826 16.3618 78.708 15.7138 80.13 15.7138C80.886 15.7138 81.66 15.9658 82.056 16.3438C82.47 16.7038 82.65 17.1178 82.722 17.8558H84.738ZM88.8881 17.6398H86.9621V26.3338H88.8881V17.6398ZM85.5041 13.8598L87.5381 16.3978H88.7981L87.5921 13.8598H85.5041ZM97.1577 20.3398C97.3197 19.2238 97.8237 18.8278 99.1017 18.8278C100.254 18.8278 100.884 19.2238 100.884 19.9618V20.1418V20.2858C100.884 20.9158 100.632 21.0418 98.8677 21.2578C96.8157 21.5098 96.4917 21.5998 95.8617 22.0858C95.2857 22.5178 94.9797 23.1838 94.9797 23.9938C94.9797 25.5778 96.1137 26.5858 97.8957 26.5858C99.1917 26.5858 100.146 26.2618 100.974 25.5418C101.082 26.2438 101.55 26.5858 102.378 26.5858C102.72 26.5858 103.062 26.5318 103.62 26.3878V25.0378C103.422 25.0738 103.332 25.0738 103.206 25.0738C102.756 25.0738 102.702 24.9478 102.702 23.8318L102.774 19.8898C102.774 18.2698 101.514 17.4058 99.1557 17.4058C96.7977 17.4058 95.5197 18.3958 95.3577 20.3398H97.1577ZM100.866 23.0218C100.866 23.7778 100.83 24.0118 100.686 24.2638C100.362 24.8218 99.4437 25.2178 98.5257 25.2178C97.5357 25.2178 96.9237 24.7138 96.9237 23.9038C96.9237 23.6158 97.0677 23.2198 97.2657 23.0218C97.5177 22.7338 97.9317 22.5898 98.8317 22.4638C100.182 22.3018 100.398 22.2478 100.866 21.9958V23.0218ZM107.064 14.3278H105.138V26.3338H107.064V14.3278ZM111.248 14.3278H109.322V26.3338H111.248V14.3278ZM115.017 20.3398C115.179 19.2238 115.683 18.8278 116.961 18.8278C118.113 18.8278 118.743 19.2238 118.743 19.9618V20.1418V20.2858C118.743 20.9158 118.491 21.0418 116.727 21.2578C114.675 21.5098 114.351 21.5998 113.721 22.0858C113.145 22.5178 112.839 23.1838 112.839 23.9938C112.839 25.5778 113.973 26.5858 115.755 26.5858C117.051 26.5858 118.005 26.2618 118.833 25.5418C118.941 26.2438 119.409 26.5858 120.237 26.5858C120.579 26.5858 120.921 26.5318 121.479 26.3878V25.0378C121.281 25.0738 121.191 25.0738 121.065 25.0738C120.615 25.0738 120.561 24.9478 120.561 23.8318L120.633 19.8898C120.633 18.2698 119.373 17.4058 117.015 17.4058C114.657 17.4058 113.379 18.3958 113.217 20.3398H115.017ZM118.725 23.0218C118.725 23.7778 118.689 24.0118 118.545 24.2638C118.221 24.8218 117.303 25.2178 116.385 25.2178C115.395 25.2178 114.783 24.7138 114.783 23.9038C114.783 23.6158 114.927 23.2198 115.125 23.0218C115.377 22.7338 115.791 22.5898 116.691 22.4638C118.041 22.3018 118.257 22.2478 118.725 21.9958V23.0218ZM135.399 17.6398H133.599V18.8638C132.915 17.8378 132.105 17.4058 130.899 17.4058C128.559 17.4058 127.011 19.2058 127.011 21.9238C127.011 24.5698 128.469 26.2438 130.773 26.2438C132.069 26.2438 132.933 25.7938 133.545 24.7858V25.8118C133.545 27.6118 132.861 28.3678 131.259 28.3678C130.035 28.3678 129.423 27.9718 129.243 27.0718H127.299C127.533 28.8538 128.829 29.7358 131.205 29.7358C132.951 29.7358 134.175 29.1958 134.823 28.1338C135.255 27.4498 135.399 26.7478 135.399 25.3258V17.6398ZM131.277 18.9358C132.663 18.9358 133.545 20.0518 133.545 21.7978C133.545 23.5798 132.645 24.7138 131.223 24.7138C129.801 24.7138 128.955 23.6338 128.955 21.7798C128.955 19.9978 129.837 18.9358 131.277 18.9358ZM139.601 14.3278H137.675V16.1458H139.601V14.3278ZM139.601 17.6398H137.675V26.3338H139.601V17.6398ZM149.419 17.6398H147.493V21.9058C147.493 22.8958 147.421 23.4178 147.223 23.8138C146.863 24.5518 146.179 24.9658 145.351 24.9658C144.721 24.9658 144.235 24.7498 143.965 24.3538C143.749 24.0298 143.695 23.6518 143.695 22.6078V17.6398H141.769V23.2198C141.769 24.3538 141.931 25.0198 142.327 25.5238C142.849 26.2078 143.695 26.5678 144.739 26.5678C145.981 26.5678 146.827 26.1178 147.619 25.0378V26.3338H149.419V17.6398ZM158.291 20.1598C158.219 19.3498 158.057 18.9178 157.679 18.4678C157.067 17.7658 156.041 17.4058 154.655 17.4058C152.423 17.4058 151.109 18.3598 151.109 19.9798C151.109 20.7898 151.487 21.4738 152.153 21.8338C152.657 22.1218 152.909 22.1938 154.637 22.6078C156.311 22.9858 156.725 23.2558 156.725 23.9038C156.725 24.6598 155.987 25.1458 154.853 25.1458C153.521 25.1458 152.873 24.6598 152.747 23.5438H150.911C151.019 25.5418 152.333 26.5678 154.817 26.5678C157.157 26.5678 158.615 25.4698 158.615 23.7238C158.615 23.0038 158.291 22.3378 157.751 21.9598C157.211 21.5818 156.527 21.3298 155.231 21.0598C153.359 20.6638 153.017 20.4658 153.017 19.8178C153.017 19.1878 153.593 18.8098 154.583 18.8098C155.771 18.8098 156.329 19.2058 156.455 20.1598H158.291ZM164.292 17.6398H162.546V15.0298H160.62V17.6398H159.162V19.0438H160.62V23.1838C160.62 24.8578 160.656 25.1998 160.89 25.5958C161.214 26.1898 161.826 26.4238 162.996 26.4238C163.482 26.4238 163.806 26.4058 164.292 26.3518V24.8398C164.022 24.8758 163.86 24.8938 163.698 24.8938C162.654 24.8938 162.546 24.7678 162.546 23.6158V19.0438H164.292V17.6398ZM167.814 14.3278H165.888V16.1458H167.814V14.3278ZM167.814 17.6398H165.888V26.3338H167.814V17.6398ZM176.768 17.6398H169.694V19.1698H173.492C173.726 19.1698 173.924 19.1698 174.356 19.1518C173.906 19.5298 173.708 19.7278 173.366 20.1058L169.352 24.8758V26.3338H177.038V24.8038H172.898C172.682 24.8038 172.646 24.8038 171.746 24.8218C172.34 24.2278 172.466 24.1018 172.646 23.8858L176.768 18.9718V17.6398ZM180.277 14.3278H178.351V16.1458H180.277V14.3278ZM180.277 17.6398H178.351V26.3338H180.277V17.6398ZM184.046 20.3398C184.208 19.2238 184.712 18.8278 185.99 18.8278C187.142 18.8278 187.772 19.2238 187.772 19.9618V20.1418V20.2858C187.772 20.9158 187.52 21.0418 185.756 21.2578C183.704 21.5098 183.38 21.5998 182.75 22.0858C182.174 22.5178 181.868 23.1838 181.868 23.9938C181.868 25.5778 183.002 26.5858 184.784 26.5858C186.08 26.5858 187.034 26.2618 187.862 25.5418C187.97 26.2438 188.438 26.5858 189.266 26.5858C189.608 26.5858 189.95 26.5318 190.508 26.3878V25.0378C190.31 25.0738 190.22 25.0738 190.094 25.0738C189.644 25.0738 189.59 24.9478 189.59 23.8318L189.662 19.8898C189.662 18.2698 188.402 17.4058 186.044 17.4058C183.686 17.4058 182.408 18.3958 182.246 20.3398H184.046ZM187.754 23.0218C187.754 23.7778 187.718 24.0118 187.574 24.2638C187.25 24.8218 186.332 25.2178 185.414 25.2178C184.424 25.2178 183.812 24.7138 183.812 23.9038C183.812 23.6158 183.956 23.2198 184.154 23.0218C184.406 22.7338 184.82 22.5898 185.72 22.4638C187.07 22.3018 187.286 22.2478 187.754 21.9958V23.0218ZM202.377 23.0758C202.197 24.3358 201.441 25.0378 200.271 25.0378C198.813 25.0378 197.949 23.9038 197.949 21.9958C197.949 20.0878 198.849 18.9358 200.343 18.9358C201.405 18.9358 202.089 19.5118 202.305 20.5738H204.213C203.997 18.5758 202.557 17.4058 200.325 17.4058C197.679 17.4058 196.005 19.2238 196.005 22.0678C196.005 24.8218 197.661 26.5678 200.271 26.5678C202.503 26.5678 203.979 25.2718 204.267 23.0758H202.377ZM207.787 14.3278H205.861V26.3338H207.787V14.3278ZM211.97 14.3278H210.044V16.1458H211.97V14.3278ZM211.97 17.6398H210.044V26.3338H211.97V17.6398ZM216.01 17.6398H214.21V26.3338H216.136V21.6718C216.136 20.9518 216.19 20.4838 216.334 20.1418C216.64 19.4398 217.324 19.0078 218.116 19.0078C219.16 19.0078 219.556 19.5298 219.556 20.8978V26.3338H221.482V21.6718C221.482 20.8258 221.518 20.4298 221.662 20.1238C221.932 19.4218 222.58 19.0078 223.39 19.0078C224.02 19.0078 224.506 19.2598 224.722 19.6918C224.866 19.9258 224.92 20.3578 224.92 21.0058V26.3338H226.846V20.4118C226.846 19.5298 226.702 18.9898 226.378 18.5038C225.892 17.8018 225.01 17.4058 224.002 17.4058C222.796 17.4058 221.95 17.8558 221.194 18.8818C220.708 17.8738 219.952 17.4058 218.764 17.4058C217.594 17.4058 216.82 17.8018 216.01 18.8638V17.6398ZM230.576 20.3398C230.738 19.2238 231.242 18.8278 232.52 18.8278C233.672 18.8278 234.302 19.2238 234.302 19.9618V20.1418V20.2858C234.302 20.9158 234.05 21.0418 232.286 21.2578C230.234 21.5098 229.91 21.5998 229.28 22.0858C228.704 22.5178 228.398 23.1838 228.398 23.9938C228.398 25.5778 229.532 26.5858 231.314 26.5858C232.61 26.5858 233.564 26.2618 234.392 25.5418C234.5 26.2438 234.968 26.5858 235.796 26.5858C236.138 26.5858 236.48 26.5318 237.038 26.3878V25.0378C236.84 25.0738 236.75 25.0738 236.624 25.0738C236.174 25.0738 236.12 24.9478 236.12 23.8318L236.192 19.8898C236.192 18.2698 234.932 17.4058 232.574 17.4058C230.216 17.4058 228.938 18.3958 228.776 20.3398H230.576ZM234.284 23.0218C234.284 23.7778 234.248 24.0118 234.104 24.2638C233.78 24.8218 232.862 25.2178 231.944 25.2178C230.954 25.2178 230.342 24.7138 230.342 23.9038C230.342 23.6158 230.486 23.2198 230.684 23.0218C230.936 22.7338 231.35 22.5898 232.25 22.4638C233.6 22.3018 233.816 22.2478 234.284 21.9958V23.0218ZM242.48 17.6398H240.734V15.0298H238.808V17.6398H237.35V19.0438H238.808V23.1838C238.808 24.8578 238.844 25.1998 239.078 25.5958C239.402 26.1898 240.014 26.4238 241.184 26.4238C241.67 26.4238 241.994 26.4058 242.48 26.3518V24.8398C242.21 24.8758 242.048 24.8938 241.886 24.8938C240.842 24.8938 240.734 24.7678 240.734 23.6158V19.0438H242.48V17.6398ZM246.001 14.3278H244.075V16.1458H246.001V14.3278ZM246.001 17.6398H244.075V26.3338H246.001V17.6398ZM254.109 23.0758C253.929 24.3358 253.173 25.0378 252.003 25.0378C250.545 25.0378 249.681 23.9038 249.681 21.9958C249.681 20.0878 250.581 18.9358 252.075 18.9358C253.137 18.9358 253.821 19.5118 254.037 20.5738H255.945C255.729 18.5758 254.289 17.4058 252.057 17.4058C249.411 17.4058 247.737 19.2238 247.737 22.0678C247.737 24.8218 249.393 26.5678 252.003 26.5678C254.235 26.5678 255.711 25.2718 255.999 23.0758H254.109ZM259.105 20.3398C259.267 19.2238 259.771 18.8278 261.049 18.8278C262.201 18.8278 262.831 19.2238 262.831 19.9618V20.1418V20.2858C262.831 20.9158 262.579 21.0418 260.815 21.2578C258.763 21.5098 258.439 21.5998 257.809 22.0858C257.233 22.5178 256.927 23.1838 256.927 23.9938C256.927 25.5778 258.061 26.5858 259.843 26.5858C261.139 26.5858 262.093 26.2618 262.921 25.5418C263.029 26.2438 263.497 26.5858 264.325 26.5858C264.667 26.5858 265.009 26.5318 265.567 26.3878V25.0378C265.369 25.0738 265.279 25.0738 265.153 25.0738C264.703 25.0738 264.649 24.9478 264.649 23.8318L264.721 19.8898C264.721 18.2698 263.461 17.4058 261.103 17.4058C258.745 17.4058 257.467 18.3958 257.305 20.3398H259.105ZM262.813 23.0218C262.813 23.7778 262.777 24.0118 262.633 24.2638C262.309 24.8218 261.391 25.2178 260.473 25.2178C259.483 25.2178 258.871 24.7138 258.871 23.9038C258.871 23.6158 259.015 23.2198 259.213 23.0218C259.465 22.7338 259.879 22.5898 260.779 22.4638C262.129 22.3018 262.345 22.2478 262.813 21.9958V23.0218Z" fill="#F5F5F5"/>
<path d="M84.738 38.8638C84.648 36.4518 83.01 35.0658 80.256 35.0658C77.556 35.0658 75.81 36.4518 75.81 38.5758C75.81 39.6378 76.206 40.4298 76.998 40.9698C77.52 41.3118 78.69 41.7078 80.328 42.1218C81.588 42.4278 81.75 42.4818 82.128 42.6618C82.848 43.0038 83.136 43.3998 83.136 44.0298C83.136 45.2358 82.182 45.9378 80.562 45.9378C78.564 45.9378 77.502 45.0558 77.448 43.3458H75.378C75.414 46.0278 77.286 47.6118 80.436 47.6118C83.37 47.6118 85.206 46.1538 85.206 43.8498C85.206 42.7878 84.72 41.9058 83.802 41.2938C83.19 40.8798 82.506 40.6278 80.868 40.2498C79.158 39.8358 78.834 39.7458 78.384 39.4758C78.006 39.2778 77.826 38.9178 77.826 38.4318C77.826 37.3698 78.708 36.7218 80.13 36.7218C80.886 36.7218 81.66 36.9738 82.056 37.3518C82.47 37.7118 82.65 38.1258 82.722 38.8638H84.738ZM88.8881 38.6478H86.9621V47.3418H88.8881V38.6478ZM85.5041 34.8678L87.5381 37.4058H88.7981L87.5921 34.8678H85.5041ZM97.1577 41.3478C97.3197 40.2318 97.8237 39.8358 99.1017 39.8358C100.254 39.8358 100.884 40.2318 100.884 40.9698V41.1498V41.2938C100.884 41.9238 100.632 42.0498 98.8677 42.2658C96.8157 42.5178 96.4917 42.6078 95.8617 43.0938C95.2857 43.5258 94.9797 44.1918 94.9797 45.0018C94.9797 46.5858 96.1137 47.5938 97.8957 47.5938C99.1917 47.5938 100.146 47.2698 100.974 46.5498C101.082 47.2518 101.55 47.5938 102.378 47.5938C102.72 47.5938 103.062 47.5398 103.62 47.3958V46.0458C103.422 46.0818 103.332 46.0818 103.206 46.0818C102.756 46.0818 102.702 45.9558 102.702 44.8398L102.774 40.8978C102.774 39.2778 101.514 38.4138 99.1557 38.4138C96.7977 38.4138 95.5197 39.4038 95.3577 41.3478H97.1577ZM100.866 44.0298C100.866 44.7858 100.83 45.0198 100.686 45.2718C100.362 45.8298 99.4437 46.2258 98.5257 46.2258C97.5357 46.2258 96.9237 45.7218 96.9237 44.9118C96.9237 44.6238 97.0677 44.2278 97.2657 44.0298C97.5177 43.7418 97.9317 43.5978 98.8317 43.4718C100.182 43.3098 100.398 43.2558 100.866 43.0038V44.0298ZM107.064 35.3358H105.138V47.3418H107.064V35.3358ZM111.248 35.3358H109.322V47.3418H111.248V35.3358ZM115.017 41.3478C115.179 40.2318 115.683 39.8358 116.961 39.8358C118.113 39.8358 118.743 40.2318 118.743 40.9698V41.1498V41.2938C118.743 41.9238 118.491 42.0498 116.727 42.2658C114.675 42.5178 114.351 42.6078 113.721 43.0938C113.145 43.5258 112.839 44.1918 112.839 45.0018C112.839 46.5858 113.973 47.5938 115.755 47.5938C117.051 47.5938 118.005 47.2698 118.833 46.5498C118.941 47.2518 119.409 47.5938 120.237 47.5938C120.579 47.5938 120.921 47.5398 121.479 47.3958V46.0458C121.281 46.0818 121.191 46.0818 121.065 46.0818C120.615 46.0818 120.561 45.9558 120.561 44.8398L120.633 40.8978C120.633 39.2778 119.373 38.4138 117.015 38.4138C114.657 38.4138 113.379 39.4038 113.217 41.3478H115.017ZM118.725 44.0298C118.725 44.7858 118.689 45.0198 118.545 45.2718C118.221 45.8298 117.303 46.2258 116.385 46.2258C115.395 46.2258 114.783 45.7218 114.783 44.9118C114.783 44.6238 114.927 44.2278 115.125 44.0298C115.377 43.7418 115.791 43.5978 116.691 43.4718C118.041 43.3098 118.257 43.2558 118.725 43.0038V44.0298ZM135.831 45.5418H129.711V35.3358H127.605V47.3418H135.831V45.5418ZM143.244 44.6238C142.848 45.7038 142.254 46.1538 141.174 46.1538C139.68 46.1538 138.834 45.1998 138.762 43.4538H145.188C145.206 42.3738 145.08 41.5818 144.792 40.8798C144.162 39.3138 142.776 38.4138 141.066 38.4138C138.6 38.4138 136.854 40.3578 136.854 43.0938C136.854 45.7938 138.546 47.5758 141.138 47.5758C143.172 47.5758 144.63 46.4778 145.08 44.6238H143.244ZM138.798 42.1758C138.996 40.6458 139.77 39.8358 141.048 39.8358C142.326 39.8358 143.154 40.7178 143.28 42.1758H138.798ZM154.806 38.6478H153.006V39.8718C152.322 38.8458 151.512 38.4138 150.306 38.4138C147.966 38.4138 146.418 40.2138 146.418 42.9318C146.418 45.5778 147.876 47.2518 150.18 47.2518C151.476 47.2518 152.34 46.8018 152.952 45.7938V46.8198C152.952 48.6198 152.268 49.3758 150.666 49.3758C149.442 49.3758 148.83 48.9798 148.65 48.0798H146.706C146.94 49.8618 148.236 50.7438 150.612 50.7438C152.358 50.7438 153.582 50.2038 154.23 49.1418C154.662 48.4578 154.806 47.7558 154.806 46.3338V38.6478ZM150.684 39.9438C152.07 39.9438 152.952 41.0598 152.952 42.8058C152.952 44.5878 152.052 45.7218 150.63 45.7218C149.208 45.7218 148.362 44.6418 148.362 42.7878C148.362 41.0058 149.244 39.9438 150.684 39.9438ZM164.983 38.6478H163.183V39.8718C162.499 38.8458 161.689 38.4138 160.483 38.4138C158.143 38.4138 156.595 40.2138 156.595 42.9318C156.595 45.5778 158.053 47.2518 160.357 47.2518C161.653 47.2518 162.517 46.8018 163.129 45.7938V46.8198C163.129 48.6198 162.445 49.3758 160.843 49.3758C159.619 49.3758 159.007 48.9798 158.827 48.0798H156.883C157.117 49.8618 158.413 50.7438 160.789 50.7438C162.535 50.7438 163.759 50.2038 164.407 49.1418C164.839 48.4578 164.983 47.7558 164.983 46.3338V38.6478ZM160.861 39.9438C162.247 39.9438 163.129 41.0598 163.129 42.8058C163.129 44.5878 162.229 45.7218 160.807 45.7218C159.385 45.7218 158.539 44.6418 158.539 42.7878C158.539 41.0058 159.421 39.9438 160.861 39.9438ZM173.127 44.6238C172.731 45.7038 172.137 46.1538 171.057 46.1538C169.563 46.1538 168.717 45.1998 168.645 43.4538H175.071C175.089 42.3738 174.963 41.5818 174.675 40.8798C174.045 39.3138 172.659 38.4138 170.949 38.4138C168.483 38.4138 166.737 40.3578 166.737 43.0938C166.737 45.7938 168.429 47.5758 171.021 47.5758C173.055 47.5758 174.513 46.4778 174.963 44.6238H173.127ZM168.681 42.1758C168.879 40.6458 169.653 39.8358 170.931 39.8358C172.209 39.8358 173.037 40.7178 173.163 42.1758H168.681ZM187.892 41.1678C187.82 40.3578 187.658 39.9258 187.28 39.4758C186.668 38.7738 185.642 38.4138 184.256 38.4138C182.024 38.4138 180.71 39.3678 180.71 40.9878C180.71 41.7978 181.088 42.4818 181.754 42.8418C182.258 43.1298 182.51 43.2018 184.238 43.6158C185.912 43.9938 186.326 44.2638 186.326 44.9118C186.326 45.6678 185.588 46.1538 184.454 46.1538C183.122 46.1538 182.474 45.6678 182.348 44.5518H180.512C180.62 46.5498 181.934 47.5758 184.418 47.5758C186.758 47.5758 188.216 46.4778 188.216 44.7318C188.216 44.0118 187.892 43.3458 187.352 42.9678C186.812 42.5898 186.128 42.3378 184.832 42.0678C182.96 41.6718 182.618 41.4738 182.618 40.8258C182.618 40.1958 183.194 39.8178 184.184 39.8178C185.372 39.8178 185.93 40.2138 186.056 41.1678H187.892ZM197.495 38.6478H195.569V42.9138C195.569 43.9038 195.497 44.4258 195.299 44.8218C194.939 45.5598 194.255 45.9738 193.427 45.9738C192.797 45.9738 192.311 45.7578 192.041 45.3618C191.825 45.0378 191.771 44.6598 191.771 43.6158V38.6478H189.845V44.2278C189.845 45.3618 190.007 46.0278 190.403 46.5318C190.925 47.2158 191.771 47.5758 192.815 47.5758C194.057 47.5758 194.903 47.1258 195.695 46.0458V47.3418H197.495V38.6478ZM201.687 35.3358H199.761V47.3418H201.687V35.3358ZM216.725 42.7518C216.473 44.7858 215.411 45.8478 213.647 45.8478C211.487 45.8478 210.101 44.1018 210.101 41.3298C210.101 40.2858 210.371 39.2058 210.821 38.4138C211.451 37.3518 212.387 36.8298 213.665 36.8298C215.249 36.8298 216.347 37.6938 216.635 39.1518H218.723C218.651 38.2518 218.291 37.4238 217.643 36.7038C216.653 35.5878 215.357 35.0478 213.701 35.0478C210.335 35.0478 207.995 37.6218 207.995 41.3298C207.995 45.1278 210.227 47.6298 213.593 47.6298C215.303 47.6298 216.581 47.0898 217.571 45.9558C218.309 45.0738 218.741 43.9758 218.813 42.7518H216.725ZM225.921 35.0478C224.211 35.0478 222.843 35.6058 221.709 36.7398C220.629 37.8378 220.071 39.4218 220.071 41.3478C220.071 45.0918 222.393 47.6298 225.831 47.6298C229.269 47.6298 231.591 45.0738 231.591 41.3298C231.591 37.6398 229.251 35.0478 225.921 35.0478ZM225.885 36.8298C228.045 36.8298 229.485 38.6298 229.485 41.3118C229.485 44.0658 228.063 45.8478 225.867 45.8478C223.617 45.8478 222.177 44.0838 222.177 41.3118C222.177 38.5578 223.617 36.8298 225.885 36.8298ZM241.073 45.6318H236.807L235.817 45.6498L235.295 45.6678C235.583 44.9658 236.393 44.2098 237.851 43.2738C239.129 42.4278 239.615 42.0498 240.065 41.5638C240.749 40.8438 241.091 39.9618 241.091 38.9718C241.091 36.8298 239.561 35.4078 237.257 35.4078C235.943 35.4078 234.863 35.8938 234.179 36.7758C233.549 37.5678 233.315 38.4498 233.315 39.8718H235.169C235.241 37.8378 235.835 37.0278 237.221 37.0278C238.409 37.0278 239.147 37.8018 239.147 39.0438C239.147 39.6198 238.949 40.1778 238.625 40.6098C238.319 40.9878 237.815 41.3658 236.537 42.2298C233.909 43.9578 233.099 45.1098 233.009 47.3418H241.073V45.6318Z" fill="#F5F5F5"/>
<path d="M40.6809 0C40.7276 0 40.8212 0 40.8679 0C40.9147 0 40.9614 0 41.055 0C41.1485 0 41.2888 0 41.3823 0.0467596C41.429 0.0467596 41.4758 0.0467596 41.5226 0.0467596C41.6628 0.0467596 41.7564 0.0935193 41.8966 0.140279H41.9434C42.0837 0.187039 42.224 0.233798 42.411 0.280558C42.4578 0.280558 42.5045 0.327317 42.5513 0.327317C42.6448 0.374077 42.7383 0.420837 42.8786 0.467596C42.9253 0.467596 42.9253 0.467596 42.9721 0.514356C43.0189 0.561116 43.1124 0.561116 43.1591 0.607875C46.8064 2.61854 50.4537 4.58244 54.1477 6.59311C54.0541 6.54635 54.0074 6.49959 53.9139 6.45283C55.7842 7.34126 57 9.30517 57 11.7367L56.9532 48.1624C56.9532 51.7629 54.1944 55.1296 50.8745 55.5972L17.114 60.3667C16.8335 60.4135 16.5997 60.4135 16.3191 60.4135C15.3839 60.4135 14.5422 60.1797 13.7941 59.7588L13.8409 59.8056C10.1936 57.7949 6.49959 55.831 2.85234 53.8203C1.16899 52.8852 0 51.0148 0 48.6768L0.0467596 12.251C0.0467596 12.0172 0.0467596 11.7834 0.0935193 11.5964C0.0935193 11.5029 0.0935193 11.4561 0.140279 11.3626C0.140279 11.2223 0.187039 11.082 0.187039 10.9418C0.187039 10.8482 0.233798 10.7547 0.233798 10.6612C0.280558 10.5209 0.280558 10.4274 0.327317 10.2871C0.374077 10.1936 0.374077 10.1001 0.420837 10.0066C0.467596 9.91304 0.467596 9.77276 0.514356 9.67925C0.514356 9.67925 0.514356 9.67925 0.514356 9.63249C0.514356 9.58573 0.561116 9.53897 0.561116 9.49221C0.607875 9.35193 0.654635 9.21165 0.748154 9.07137C0.794914 9.02461 0.794914 8.93109 0.841673 8.88433C0.888433 8.79081 0.888433 8.69729 0.935193 8.60377C0.935193 8.55701 0.981952 8.55701 0.981952 8.51025C1.12223 8.27646 1.26251 8.04266 1.40279 7.80886C1.40279 7.7621 1.44955 7.7621 1.44955 7.7621C1.58983 7.57506 1.73011 7.38802 1.87039 7.20098C1.91715 7.15422 1.91715 7.15422 1.91715 7.10746C1.9639 7.06071 1.9639 7.06071 2.01066 7.01395C2.15094 6.87367 2.29122 6.73339 2.4315 6.54635C2.47826 6.49959 2.47826 6.49959 2.52502 6.45283C2.52502 6.45283 2.57178 6.45283 2.57178 6.40607C2.75882 6.21903 2.99262 6.03199 3.22642 5.89171L3.27317 5.84495C3.36669 5.7982 3.41345 5.75144 3.50697 5.70468C3.55373 5.65792 3.64725 5.61116 3.69401 5.5644C3.83429 5.47088 3.97457 5.42412 4.06809 5.37736C4.11485 5.3306 4.16161 5.3306 4.20837 5.28384C4.34865 5.19032 4.53568 5.14356 4.72272 5.0968C4.76948 5.0968 4.81624 5.05004 4.863 5.05004C5.00328 5.00328 5.14356 4.95652 5.28384 4.90976C5.3306 4.90976 5.37736 4.863 5.42412 4.863C5.61116 4.81624 5.79819 4.76948 5.98523 4.76948L39.886 0.0467596C40.073 0.0467596 40.2133 0 40.4003 0C40.4471 0 40.4938 0 40.5406 0C40.5874 0 40.6341 0 40.6809 0ZM13.7473 59.8056C13.7941 59.8056 13.7941 59.8056 13.7473 59.8056C13.7941 59.8056 13.7941 59.8056 13.7473 59.8056ZM40.6809 2.6653H40.5874H40.5406C40.4003 2.6653 40.3536 2.6653 40.26 2.6653L6.49959 7.43478C6.40607 7.43478 6.31255 7.48154 6.21903 7.48154H6.17227H6.12551C6.03199 7.5283 5.93847 7.5283 5.89171 7.57506H5.84495C5.75144 7.62182 5.65792 7.62182 5.5644 7.66858C5.51764 7.71534 5.47088 7.71534 5.42412 7.7621C5.3306 7.80886 5.28384 7.85562 5.19032 7.90238L5.0968 7.94914L5.05004 7.9959L4.90976 8.08942C4.863 8.13618 4.863 8.13618 4.81624 8.18294C4.81624 8.18294 4.863 8.18294 4.863 8.13618C4.72272 8.2297 4.58244 8.36998 4.44217 8.46349C4.39541 8.51025 4.39541 8.51025 4.34865 8.55701C4.25513 8.65053 4.16161 8.74405 4.06809 8.83757L4.02133 8.88433C4.02133 8.88433 4.02133 8.93109 3.97457 8.93109C3.88105 9.07137 3.78753 9.16489 3.69401 9.30517C3.69401 9.30517 3.69401 9.25841 3.74077 9.25841C3.69401 9.30517 3.69401 9.35193 3.64725 9.39869C3.55373 9.53897 3.46021 9.67925 3.41345 9.81952C3.41345 9.86628 3.36669 9.86628 3.36669 9.91304L3.22642 10.0533V10.1001L3.17966 10.1468C3.1329 10.2404 3.08614 10.3339 3.03938 10.4274L2.99262 10.5677V10.5209C2.99262 10.5677 2.94586 10.6144 2.94586 10.6612L2.8991 10.7547L2.85234 10.895V10.9418C2.85234 10.9885 2.85234 11.0353 2.80558 11.082V11.1756L2.75882 11.3158V11.3626C2.75882 11.4094 2.75882 11.4561 2.75882 11.5496V11.6431C2.75882 11.6899 2.75882 11.7367 2.75882 11.7834C2.75882 11.9237 2.75882 12.064 2.75882 12.2043L2.71206 48.63C2.71206 49.8925 3.22641 50.9212 4.16161 51.4356L11.082 55.1764L15.1034 57.3741C15.4774 57.5611 15.8983 57.7014 16.3191 57.7014C16.4594 57.7014 16.5997 57.7014 16.74 57.6546L50.5004 52.8852C52.5111 52.6046 54.2879 50.3601 54.2879 48.1157L54.3347 11.6899C54.3347 10.3806 53.7268 9.30517 52.7916 8.83757C52.8384 8.83757 52.8384 8.88433 52.8852 8.88433L47.087 5.70468L41.9434 2.8991H41.8966C41.8499 2.8991 41.8499 2.8991 41.8031 2.85234C41.7564 2.85234 41.7096 2.80558 41.6628 2.80558H41.6161H41.4758C41.429 2.80558 41.3823 2.75882 41.3355 2.75882C41.2888 2.75882 41.2888 2.75882 41.242 2.75882C41.1485 2.75882 41.1017 2.71206 41.055 2.71206H40.9614C40.9147 2.71206 40.8679 2.71206 40.8212 2.71206H40.7744L40.6809 2.6653Z" fill="#F5F5F5"/>
<path d="M16.5061 30.7678H12.6718L12.4848 30.9549V36.192L12.2977 36.379H9.86624L9.6792 36.192V22.4914L9.86624 22.3044H16.5061C19.3117 22.3044 21.3223 23.7071 21.3223 26.5595C21.3223 29.3183 19.3117 30.7678 16.5061 30.7678ZM16.5061 24.6891H12.6718L12.4848 24.8761V28.1025L12.6718 28.2896H16.5061C17.7219 28.2896 18.5168 27.8687 18.5168 26.466C18.5168 25.1099 17.7219 24.6891 16.5061 24.6891Z" fill="#F5F5F5"/>
<path d="M28.383 36.6128C24.3617 36.6128 22.5381 34.6021 22.5381 31.9836L22.7251 31.7966H25.1566L25.3437 31.9836C25.3437 33.3864 26.1386 34.1813 28.5701 34.1813C30.3937 34.1813 31.3757 33.5734 31.3757 32.3577C31.3757 30.9549 30.5807 30.5341 27.7284 30.16C24.9228 29.7391 22.6784 28.7572 22.6784 25.9048C22.6784 23.8942 24.315 22.0706 28.1025 22.0706C31.9368 22.0706 33.5266 23.8942 33.5266 26.3257L33.3396 26.5127H30.9081L30.8145 26.3257C30.8145 25.1099 30.2067 24.5021 28.009 24.5021C26.1853 24.5021 25.5775 25.1099 25.5775 25.9048C25.5775 27.1206 26.3724 27.5414 29.2247 27.9155C32.0303 28.3363 34.2748 29.5053 34.2748 32.3577C34.228 34.5554 32.6382 36.6128 28.383 36.6128Z" fill="#F5F5F5"/>
</svg>
