<svg width="266" height="61" viewBox="0 0 266 61" fill="none" xmlns="http://www.w3.org/2000/svg">
<path d="M53.8921 6.45576C53.8972 6.45827 53.9022 6.46 53.9065 6.46251C53.9951 6.50439 54.0814 6.5441 54.1659 6.59057C50.5019 4.59767 46.8381 2.60425 43.1751 0.611346C43.1134 0.577947 43.0508 0.545845 42.9891 0.515041C42.9655 0.504052 42.941 0.49514 42.9182 0.484237C42.8168 0.437339 42.7137 0.393383 42.6089 0.352802C42.5675 0.335497 42.5269 0.318191 42.4847 0.302962C42.3385 0.249315 42.1898 0.201985 42.0377 0.163134C42.0334 0.162269 42.03 0.160105 42.0258 0.158894C42.0047 0.153789 41.9811 0.15128 41.9591 0.145742C41.8348 0.114938 41.7089 0.0895855 41.5805 0.0680402C41.5298 0.0595605 41.4757 0.0536766 41.4233 0.0464948C41.3177 0.0325639 41.2112 0.0207097 41.1039 0.0135279C41.0465 0.0088554 40.989 0.00591346 40.9316 0.0038368C40.8209 -0.000835682 40.7085 -0.000835682 40.5961 0.00167361C40.5437 0.00340416 40.4913 0.00340416 40.439 0.00591346C40.2741 0.0135279 40.1077 0.0278914 39.9404 0.0516L6.16383 4.79876C5.97624 4.82532 5.79034 4.86339 5.60698 4.90778C5.55458 4.92041 5.50346 4.93478 5.45192 4.94784C5.31123 4.98548 5.17096 5.02901 5.03365 5.0759C4.9876 5.09191 4.94197 5.10671 4.89718 5.12323C4.72903 5.18614 4.56299 5.25294 4.40033 5.32856C4.39187 5.3328 4.38469 5.33782 4.37624 5.34163C4.32935 5.36404 4.2833 5.39147 4.2364 5.41518C4.10415 5.48189 3.97318 5.5499 3.84474 5.62518C3.7801 5.66403 3.718 5.70582 3.65378 5.74684C3.57266 5.79754 3.48984 5.84531 3.41168 5.89939C3.39309 5.91245 3.37661 5.92889 3.35845 5.94118C3.1341 6.10048 2.91778 6.27076 2.71033 6.45455C2.69808 6.4651 2.68499 6.4735 2.67231 6.48449C2.63893 6.51494 2.6102 6.54999 2.57683 6.58079C2.42515 6.72278 2.27897 6.87066 2.13785 7.02528C2.1087 7.0566 2.07616 7.08447 2.04744 7.1157C2.02378 7.14322 2.00435 7.17316 1.98068 7.20067C1.82858 7.37762 1.68324 7.56063 1.5472 7.75073C1.53157 7.77357 1.51213 7.79382 1.49481 7.81666C1.49185 7.82211 1.48889 7.82808 1.48594 7.83224C1.32623 8.06084 1.1809 8.30044 1.04527 8.54669C1.03006 8.57421 1.01105 8.59826 0.996266 8.62569C0.955701 8.70089 0.920632 8.77954 0.882188 8.85681C0.849657 8.92231 0.815434 8.98824 0.784169 9.05582C0.71995 9.19444 0.661645 9.33591 0.605453 9.47877C0.585596 9.52818 0.563626 9.5768 0.544614 9.62664C0.542079 9.6359 0.537431 9.64481 0.534051 9.65277C0.494758 9.76059 0.463494 9.87126 0.428426 9.98149C0.399697 10.0723 0.367164 10.1619 0.34097 10.2536C0.306747 10.3778 0.281397 10.505 0.252668 10.6322C0.23281 10.7204 0.20915 10.8075 0.192251 10.8979C0.166056 11.0377 0.150423 11.1797 0.132256 11.3221C0.122116 11.399 0.107328 11.4763 0.100146 11.5536C0.0790216 11.775 0.0680361 11.9972 0.0671916 12.2199L1.42261e-05 48.6751C-0.00463316 51.003 1.12977 52.8975 2.83202 53.8236C6.49591 55.8161 10.1594 57.8095 13.8237 59.8028C13.8013 59.791 13.7823 59.7749 13.7616 59.7623C14.7131 60.2988 15.8471 60.5329 17.063 60.3622L50.84 55.6159C54.1853 55.1452 56.9248 51.8092 56.9324 48.1985L57 11.7434C57.0042 9.29161 55.746 7.32233 53.8921 6.45576Z" fill="#E72B34"/>
<path d="M16.5412 30.7527H12.7087L12.5072 30.9538V36.1979L12.3057 36.3998H9.88516L9.68364 36.1979V22.4828L9.88516 22.2812H16.5412C19.3643 22.2812 21.3817 23.6932 21.3817 26.5168C21.3817 29.3399 19.3643 30.7527 16.5412 30.7527ZM16.5412 24.7017H12.7087L12.5072 24.9032V28.1302L12.7087 28.3318H16.5412C17.7516 28.3318 18.5582 27.9287 18.5582 26.5168C18.5582 25.1048 17.7516 24.7017 16.5412 24.7017Z" fill="#F5F5F5"/>
<path d="M28.4434 36.6009C24.4098 36.6009 22.5939 34.5847 22.5939 31.9619L22.7959 31.7608H25.2164L25.4179 31.9619C25.4179 33.3739 26.2248 34.1808 28.6449 34.1808C30.4608 34.1808 31.4693 33.5758 31.4693 32.3658C31.4693 30.9538 30.6619 30.5508 27.8384 30.1468C25.0148 29.7438 22.7959 28.7353 22.7959 25.9113C22.7959 23.8947 24.4098 22.0797 28.2419 22.0797C32.0744 22.0797 33.6883 23.8947 33.6883 26.3152L33.4855 26.5168H31.0658L30.8638 26.3152C30.8638 25.1048 30.258 24.5001 28.0399 24.5001C26.2248 24.5001 25.6194 25.1048 25.6194 25.9113C25.6194 27.1218 26.4264 27.5257 29.2499 27.9287C32.0744 28.3318 34.2933 29.5418 34.2933 32.3658C34.2933 34.5847 32.6794 36.6009 28.4434 36.6009Z" fill="#F5F5F5"/>
<path d="M84.738 17.522C84.648 15.11 83.01 13.724 80.256 13.724C77.556 13.724 75.81 15.11 75.81 17.234C75.81 18.296 76.206 19.088 76.998 19.628C77.52 19.97 78.69 20.366 80.328 20.78C81.588 21.086 81.75 21.14 82.128 21.32C82.848 21.662 83.136 22.058 83.136 22.688C83.136 23.894 82.182 24.596 80.562 24.596C78.564 24.596 77.502 23.714 77.448 22.004H75.378C75.414 24.686 77.286 26.27 80.436 26.27C83.37 26.27 85.206 24.812 85.206 22.508C85.206 21.446 84.72 20.564 83.802 19.952C83.19 19.538 82.506 19.286 80.868 18.908C79.158 18.494 78.834 18.404 78.384 18.134C78.006 17.936 77.826 17.576 77.826 17.09C77.826 16.028 78.708 15.38 80.13 15.38C80.886 15.38 81.66 15.632 82.056 16.01C82.47 16.37 82.65 16.784 82.722 17.522H84.738ZM88.8881 17.306H86.9621V26H88.8881V17.306ZM85.5041 13.526L87.5381 16.064H88.7981L87.5921 13.526H85.5041ZM97.1577 20.006C97.3197 18.89 97.8237 18.494 99.1017 18.494C100.254 18.494 100.884 18.89 100.884 19.628V19.808V19.952C100.884 20.582 100.632 20.708 98.8677 20.924C96.8157 21.176 96.4917 21.266 95.8617 21.752C95.2857 22.184 94.9797 22.85 94.9797 23.66C94.9797 25.244 96.1137 26.252 97.8957 26.252C99.1917 26.252 100.146 25.928 100.974 25.208C101.082 25.91 101.55 26.252 102.378 26.252C102.72 26.252 103.062 26.198 103.62 26.054V24.704C103.422 24.74 103.332 24.74 103.206 24.74C102.756 24.74 102.702 24.614 102.702 23.498L102.774 19.556C102.774 17.936 101.514 17.072 99.1557 17.072C96.7977 17.072 95.5197 18.062 95.3577 20.006H97.1577ZM100.866 22.688C100.866 23.444 100.83 23.678 100.686 23.93C100.362 24.488 99.4437 24.884 98.5257 24.884C97.5357 24.884 96.9237 24.38 96.9237 23.57C96.9237 23.282 97.0677 22.886 97.2657 22.688C97.5177 22.4 97.9317 22.256 98.8317 22.13C100.182 21.968 100.398 21.914 100.866 21.662V22.688ZM107.064 13.994H105.138V26H107.064V13.994ZM111.248 13.994H109.322V26H111.248V13.994ZM115.017 20.006C115.179 18.89 115.683 18.494 116.961 18.494C118.113 18.494 118.743 18.89 118.743 19.628V19.808V19.952C118.743 20.582 118.491 20.708 116.727 20.924C114.675 21.176 114.351 21.266 113.721 21.752C113.145 22.184 112.839 22.85 112.839 23.66C112.839 25.244 113.973 26.252 115.755 26.252C117.051 26.252 118.005 25.928 118.833 25.208C118.941 25.91 119.409 26.252 120.237 26.252C120.579 26.252 120.921 26.198 121.479 26.054V24.704C121.281 24.74 121.191 24.74 121.065 24.74C120.615 24.74 120.561 24.614 120.561 23.498L120.633 19.556C120.633 17.936 119.373 17.072 117.015 17.072C114.657 17.072 113.379 18.062 113.217 20.006H115.017ZM118.725 22.688C118.725 23.444 118.689 23.678 118.545 23.93C118.221 24.488 117.303 24.884 116.385 24.884C115.395 24.884 114.783 24.38 114.783 23.57C114.783 23.282 114.927 22.886 115.125 22.688C115.377 22.4 115.791 22.256 116.691 22.13C118.041 21.968 118.257 21.914 118.725 21.662V22.688ZM135.399 17.306H133.599V18.53C132.915 17.504 132.105 17.072 130.899 17.072C128.559 17.072 127.011 18.872 127.011 21.59C127.011 24.236 128.469 25.91 130.773 25.91C132.069 25.91 132.933 25.46 133.545 24.452V25.478C133.545 27.278 132.861 28.034 131.259 28.034C130.035 28.034 129.423 27.638 129.243 26.738H127.299C127.533 28.52 128.829 29.402 131.205 29.402C132.951 29.402 134.175 28.862 134.823 27.8C135.255 27.116 135.399 26.414 135.399 24.992V17.306ZM131.277 18.602C132.663 18.602 133.545 19.718 133.545 21.464C133.545 23.246 132.645 24.38 131.223 24.38C129.801 24.38 128.955 23.3 128.955 21.446C128.955 19.664 129.837 18.602 131.277 18.602ZM139.601 13.994H137.675V15.812H139.601V13.994ZM139.601 17.306H137.675V26H139.601V17.306ZM149.419 17.306H147.493V21.572C147.493 22.562 147.421 23.084 147.223 23.48C146.863 24.218 146.179 24.632 145.351 24.632C144.721 24.632 144.235 24.416 143.965 24.02C143.749 23.696 143.695 23.318 143.695 22.274V17.306H141.769V22.886C141.769 24.02 141.931 24.686 142.327 25.19C142.849 25.874 143.695 26.234 144.739 26.234C145.981 26.234 146.827 25.784 147.619 24.704V26H149.419V17.306ZM158.291 19.826C158.219 19.016 158.057 18.584 157.679 18.134C157.067 17.432 156.041 17.072 154.655 17.072C152.423 17.072 151.109 18.026 151.109 19.646C151.109 20.456 151.487 21.14 152.153 21.5C152.657 21.788 152.909 21.86 154.637 22.274C156.311 22.652 156.725 22.922 156.725 23.57C156.725 24.326 155.987 24.812 154.853 24.812C153.521 24.812 152.873 24.326 152.747 23.21H150.911C151.019 25.208 152.333 26.234 154.817 26.234C157.157 26.234 158.615 25.136 158.615 23.39C158.615 22.67 158.291 22.004 157.751 21.626C157.211 21.248 156.527 20.996 155.231 20.726C153.359 20.33 153.017 20.132 153.017 19.484C153.017 18.854 153.593 18.476 154.583 18.476C155.771 18.476 156.329 18.872 156.455 19.826H158.291ZM164.292 17.306H162.546V14.696H160.62V17.306H159.162V18.71H160.62V22.85C160.62 24.524 160.656 24.866 160.89 25.262C161.214 25.856 161.826 26.09 162.996 26.09C163.482 26.09 163.806 26.072 164.292 26.018V24.506C164.022 24.542 163.86 24.56 163.698 24.56C162.654 24.56 162.546 24.434 162.546 23.282V18.71H164.292V17.306ZM167.814 13.994H165.888V15.812H167.814V13.994ZM167.814 17.306H165.888V26H167.814V17.306ZM176.768 17.306H169.694V18.836H173.492C173.726 18.836 173.924 18.836 174.356 18.818C173.906 19.196 173.708 19.394 173.366 19.772L169.352 24.542V26H177.038V24.47H172.898C172.682 24.47 172.646 24.47 171.746 24.488C172.34 23.894 172.466 23.768 172.646 23.552L176.768 18.638V17.306ZM180.277 13.994H178.351V15.812H180.277V13.994ZM180.277 17.306H178.351V26H180.277V17.306ZM184.046 20.006C184.208 18.89 184.712 18.494 185.99 18.494C187.142 18.494 187.772 18.89 187.772 19.628V19.808V19.952C187.772 20.582 187.52 20.708 185.756 20.924C183.704 21.176 183.38 21.266 182.75 21.752C182.174 22.184 181.868 22.85 181.868 23.66C181.868 25.244 183.002 26.252 184.784 26.252C186.08 26.252 187.034 25.928 187.862 25.208C187.97 25.91 188.438 26.252 189.266 26.252C189.608 26.252 189.95 26.198 190.508 26.054V24.704C190.31 24.74 190.22 24.74 190.094 24.74C189.644 24.74 189.59 24.614 189.59 23.498L189.662 19.556C189.662 17.936 188.402 17.072 186.044 17.072C183.686 17.072 182.408 18.062 182.246 20.006H184.046ZM187.754 22.688C187.754 23.444 187.718 23.678 187.574 23.93C187.25 24.488 186.332 24.884 185.414 24.884C184.424 24.884 183.812 24.38 183.812 23.57C183.812 23.282 183.956 22.886 184.154 22.688C184.406 22.4 184.82 22.256 185.72 22.13C187.07 21.968 187.286 21.914 187.754 21.662V22.688ZM202.377 22.742C202.197 24.002 201.441 24.704 200.271 24.704C198.813 24.704 197.949 23.57 197.949 21.662C197.949 19.754 198.849 18.602 200.343 18.602C201.405 18.602 202.089 19.178 202.305 20.24H204.213C203.997 18.242 202.557 17.072 200.325 17.072C197.679 17.072 196.005 18.89 196.005 21.734C196.005 24.488 197.661 26.234 200.271 26.234C202.503 26.234 203.979 24.938 204.267 22.742H202.377ZM207.787 13.994H205.861V26H207.787V13.994ZM211.97 13.994H210.044V15.812H211.97V13.994ZM211.97 17.306H210.044V26H211.97V17.306ZM216.01 17.306H214.21V26H216.136V21.338C216.136 20.618 216.19 20.15 216.334 19.808C216.64 19.106 217.324 18.674 218.116 18.674C219.16 18.674 219.556 19.196 219.556 20.564V26H221.482V21.338C221.482 20.492 221.518 20.096 221.662 19.79C221.932 19.088 222.58 18.674 223.39 18.674C224.02 18.674 224.506 18.926 224.722 19.358C224.866 19.592 224.92 20.024 224.92 20.672V26H226.846V20.078C226.846 19.196 226.702 18.656 226.378 18.17C225.892 17.468 225.01 17.072 224.002 17.072C222.796 17.072 221.95 17.522 221.194 18.548C220.708 17.54 219.952 17.072 218.764 17.072C217.594 17.072 216.82 17.468 216.01 18.53V17.306ZM230.576 20.006C230.738 18.89 231.242 18.494 232.52 18.494C233.672 18.494 234.302 18.89 234.302 19.628V19.808V19.952C234.302 20.582 234.05 20.708 232.286 20.924C230.234 21.176 229.91 21.266 229.28 21.752C228.704 22.184 228.398 22.85 228.398 23.66C228.398 25.244 229.532 26.252 231.314 26.252C232.61 26.252 233.564 25.928 234.392 25.208C234.5 25.91 234.968 26.252 235.796 26.252C236.138 26.252 236.48 26.198 237.038 26.054V24.704C236.84 24.74 236.75 24.74 236.624 24.74C236.174 24.74 236.12 24.614 236.12 23.498L236.192 19.556C236.192 17.936 234.932 17.072 232.574 17.072C230.216 17.072 228.938 18.062 228.776 20.006H230.576ZM234.284 22.688C234.284 23.444 234.248 23.678 234.104 23.93C233.78 24.488 232.862 24.884 231.944 24.884C230.954 24.884 230.342 24.38 230.342 23.57C230.342 23.282 230.486 22.886 230.684 22.688C230.936 22.4 231.35 22.256 232.25 22.13C233.6 21.968 233.816 21.914 234.284 21.662V22.688ZM242.48 17.306H240.734V14.696H238.808V17.306H237.35V18.71H238.808V22.85C238.808 24.524 238.844 24.866 239.078 25.262C239.402 25.856 240.014 26.09 241.184 26.09C241.67 26.09 241.994 26.072 242.48 26.018V24.506C242.21 24.542 242.048 24.56 241.886 24.56C240.842 24.56 240.734 24.434 240.734 23.282V18.71H242.48V17.306ZM246.001 13.994H244.075V15.812H246.001V13.994ZM246.001 17.306H244.075V26H246.001V17.306ZM254.109 22.742C253.929 24.002 253.173 24.704 252.003 24.704C250.545 24.704 249.681 23.57 249.681 21.662C249.681 19.754 250.581 18.602 252.075 18.602C253.137 18.602 253.821 19.178 254.037 20.24H255.945C255.729 18.242 254.289 17.072 252.057 17.072C249.411 17.072 247.737 18.89 247.737 21.734C247.737 24.488 249.393 26.234 252.003 26.234C254.235 26.234 255.711 24.938 255.999 22.742H254.109ZM259.105 20.006C259.267 18.89 259.771 18.494 261.049 18.494C262.201 18.494 262.831 18.89 262.831 19.628V19.808V19.952C262.831 20.582 262.579 20.708 260.815 20.924C258.763 21.176 258.439 21.266 257.809 21.752C257.233 22.184 256.927 22.85 256.927 23.66C256.927 25.244 258.061 26.252 259.843 26.252C261.139 26.252 262.093 25.928 262.921 25.208C263.029 25.91 263.497 26.252 264.325 26.252C264.667 26.252 265.009 26.198 265.567 26.054V24.704C265.369 24.74 265.279 24.74 265.153 24.74C264.703 24.74 264.649 24.614 264.649 23.498L264.721 19.556C264.721 17.936 263.461 17.072 261.103 17.072C258.745 17.072 257.467 18.062 257.305 20.006H259.105ZM262.813 22.688C262.813 23.444 262.777 23.678 262.633 23.93C262.309 24.488 261.391 24.884 260.473 24.884C259.483 24.884 258.871 24.38 258.871 23.57C258.871 23.282 259.015 22.886 259.213 22.688C259.465 22.4 259.879 22.256 260.779 22.13C262.129 21.968 262.345 21.914 262.813 21.662V22.688Z" fill="#232323"/>
<path d="M84.738 38.522C84.648 36.11 83.01 34.724 80.256 34.724C77.556 34.724 75.81 36.11 75.81 38.234C75.81 39.296 76.206 40.088 76.998 40.628C77.52 40.97 78.69 41.366 80.328 41.78C81.588 42.086 81.75 42.14 82.128 42.32C82.848 42.662 83.136 43.058 83.136 43.688C83.136 44.894 82.182 45.596 80.562 45.596C78.564 45.596 77.502 44.714 77.448 43.004H75.378C75.414 45.686 77.286 47.27 80.436 47.27C83.37 47.27 85.206 45.812 85.206 43.508C85.206 42.446 84.72 41.564 83.802 40.952C83.19 40.538 82.506 40.286 80.868 39.908C79.158 39.494 78.834 39.404 78.384 39.134C78.006 38.936 77.826 38.576 77.826 38.09C77.826 37.028 78.708 36.38 80.13 36.38C80.886 36.38 81.66 36.632 82.056 37.01C82.47 37.37 82.65 37.784 82.722 38.522H84.738ZM88.8881 38.306H86.9621V47H88.8881V38.306ZM85.5041 34.526L87.5381 37.064H88.7981L87.5921 34.526H85.5041ZM97.1577 41.006C97.3197 39.89 97.8237 39.494 99.1017 39.494C100.254 39.494 100.884 39.89 100.884 40.628V40.808V40.952C100.884 41.582 100.632 41.708 98.8677 41.924C96.8157 42.176 96.4917 42.266 95.8617 42.752C95.2857 43.184 94.9797 43.85 94.9797 44.66C94.9797 46.244 96.1137 47.252 97.8957 47.252C99.1917 47.252 100.146 46.928 100.974 46.208C101.082 46.91 101.55 47.252 102.378 47.252C102.72 47.252 103.062 47.198 103.62 47.054V45.704C103.422 45.74 103.332 45.74 103.206 45.74C102.756 45.74 102.702 45.614 102.702 44.498L102.774 40.556C102.774 38.936 101.514 38.072 99.1557 38.072C96.7977 38.072 95.5197 39.062 95.3577 41.006H97.1577ZM100.866 43.688C100.866 44.444 100.83 44.678 100.686 44.93C100.362 45.488 99.4437 45.884 98.5257 45.884C97.5357 45.884 96.9237 45.38 96.9237 44.57C96.9237 44.282 97.0677 43.886 97.2657 43.688C97.5177 43.4 97.9317 43.256 98.8317 43.13C100.182 42.968 100.398 42.914 100.866 42.662V43.688ZM107.064 34.994H105.138V47H107.064V34.994ZM111.248 34.994H109.322V47H111.248V34.994ZM115.017 41.006C115.179 39.89 115.683 39.494 116.961 39.494C118.113 39.494 118.743 39.89 118.743 40.628V40.808V40.952C118.743 41.582 118.491 41.708 116.727 41.924C114.675 42.176 114.351 42.266 113.721 42.752C113.145 43.184 112.839 43.85 112.839 44.66C112.839 46.244 113.973 47.252 115.755 47.252C117.051 47.252 118.005 46.928 118.833 46.208C118.941 46.91 119.409 47.252 120.237 47.252C120.579 47.252 120.921 47.198 121.479 47.054V45.704C121.281 45.74 121.191 45.74 121.065 45.74C120.615 45.74 120.561 45.614 120.561 44.498L120.633 40.556C120.633 38.936 119.373 38.072 117.015 38.072C114.657 38.072 113.379 39.062 113.217 41.006H115.017ZM118.725 43.688C118.725 44.444 118.689 44.678 118.545 44.93C118.221 45.488 117.303 45.884 116.385 45.884C115.395 45.884 114.783 45.38 114.783 44.57C114.783 44.282 114.927 43.886 115.125 43.688C115.377 43.4 115.791 43.256 116.691 43.13C118.041 42.968 118.257 42.914 118.725 42.662V43.688ZM135.831 45.2H129.711V34.994H127.605V47H135.831V45.2ZM143.244 44.282C142.848 45.362 142.254 45.812 141.174 45.812C139.68 45.812 138.834 44.858 138.762 43.112H145.188C145.206 42.032 145.08 41.24 144.792 40.538C144.162 38.972 142.776 38.072 141.066 38.072C138.6 38.072 136.854 40.016 136.854 42.752C136.854 45.452 138.546 47.234 141.138 47.234C143.172 47.234 144.63 46.136 145.08 44.282H143.244ZM138.798 41.834C138.996 40.304 139.77 39.494 141.048 39.494C142.326 39.494 143.154 40.376 143.28 41.834H138.798ZM154.806 38.306H153.006V39.53C152.322 38.504 151.512 38.072 150.306 38.072C147.966 38.072 146.418 39.872 146.418 42.59C146.418 45.236 147.876 46.91 150.18 46.91C151.476 46.91 152.34 46.46 152.952 45.452V46.478C152.952 48.278 152.268 49.034 150.666 49.034C149.442 49.034 148.83 48.638 148.65 47.738H146.706C146.94 49.52 148.236 50.402 150.612 50.402C152.358 50.402 153.582 49.862 154.23 48.8C154.662 48.116 154.806 47.414 154.806 45.992V38.306ZM150.684 39.602C152.07 39.602 152.952 40.718 152.952 42.464C152.952 44.246 152.052 45.38 150.63 45.38C149.208 45.38 148.362 44.3 148.362 42.446C148.362 40.664 149.244 39.602 150.684 39.602ZM164.983 38.306H163.183V39.53C162.499 38.504 161.689 38.072 160.483 38.072C158.143 38.072 156.595 39.872 156.595 42.59C156.595 45.236 158.053 46.91 160.357 46.91C161.653 46.91 162.517 46.46 163.129 45.452V46.478C163.129 48.278 162.445 49.034 160.843 49.034C159.619 49.034 159.007 48.638 158.827 47.738H156.883C157.117 49.52 158.413 50.402 160.789 50.402C162.535 50.402 163.759 49.862 164.407 48.8C164.839 48.116 164.983 47.414 164.983 45.992V38.306ZM160.861 39.602C162.247 39.602 163.129 40.718 163.129 42.464C163.129 44.246 162.229 45.38 160.807 45.38C159.385 45.38 158.539 44.3 158.539 42.446C158.539 40.664 159.421 39.602 160.861 39.602ZM173.127 44.282C172.731 45.362 172.137 45.812 171.057 45.812C169.563 45.812 168.717 44.858 168.645 43.112H175.071C175.089 42.032 174.963 41.24 174.675 40.538C174.045 38.972 172.659 38.072 170.949 38.072C168.483 38.072 166.737 40.016 166.737 42.752C166.737 45.452 168.429 47.234 171.021 47.234C173.055 47.234 174.513 46.136 174.963 44.282H173.127ZM168.681 41.834C168.879 40.304 169.653 39.494 170.931 39.494C172.209 39.494 173.037 40.376 173.163 41.834H168.681ZM187.892 40.826C187.82 40.016 187.658 39.584 187.28 39.134C186.668 38.432 185.642 38.072 184.256 38.072C182.024 38.072 180.71 39.026 180.71 40.646C180.71 41.456 181.088 42.14 181.754 42.5C182.258 42.788 182.51 42.86 184.238 43.274C185.912 43.652 186.326 43.922 186.326 44.57C186.326 45.326 185.588 45.812 184.454 45.812C183.122 45.812 182.474 45.326 182.348 44.21H180.512C180.62 46.208 181.934 47.234 184.418 47.234C186.758 47.234 188.216 46.136 188.216 44.39C188.216 43.67 187.892 43.004 187.352 42.626C186.812 42.248 186.128 41.996 184.832 41.726C182.96 41.33 182.618 41.132 182.618 40.484C182.618 39.854 183.194 39.476 184.184 39.476C185.372 39.476 185.93 39.872 186.056 40.826H187.892ZM197.495 38.306H195.569V42.572C195.569 43.562 195.497 44.084 195.299 44.48C194.939 45.218 194.255 45.632 193.427 45.632C192.797 45.632 192.311 45.416 192.041 45.02C191.825 44.696 191.771 44.318 191.771 43.274V38.306H189.845V43.886C189.845 45.02 190.007 45.686 190.403 46.19C190.925 46.874 191.771 47.234 192.815 47.234C194.057 47.234 194.903 46.784 195.695 45.704V47H197.495V38.306ZM201.687 34.994H199.761V47H201.687V34.994ZM216.725 42.41C216.473 44.444 215.411 45.506 213.647 45.506C211.487 45.506 210.101 43.76 210.101 40.988C210.101 39.944 210.371 38.864 210.821 38.072C211.451 37.01 212.387 36.488 213.665 36.488C215.249 36.488 216.347 37.352 216.635 38.81H218.723C218.651 37.91 218.291 37.082 217.643 36.362C216.653 35.246 215.357 34.706 213.701 34.706C210.335 34.706 207.995 37.28 207.995 40.988C207.995 44.786 210.227 47.288 213.593 47.288C215.303 47.288 216.581 46.748 217.571 45.614C218.309 44.732 218.741 43.634 218.813 42.41H216.725ZM225.921 34.706C224.211 34.706 222.843 35.264 221.709 36.398C220.629 37.496 220.071 39.08 220.071 41.006C220.071 44.75 222.393 47.288 225.831 47.288C229.269 47.288 231.591 44.732 231.591 40.988C231.591 37.298 229.251 34.706 225.921 34.706ZM225.885 36.488C228.045 36.488 229.485 38.288 229.485 40.97C229.485 43.724 228.063 45.506 225.867 45.506C223.617 45.506 222.177 43.742 222.177 40.97C222.177 38.216 223.617 36.488 225.885 36.488ZM241.073 45.29H236.807L235.817 45.308L235.295 45.326C235.583 44.624 236.393 43.868 237.851 42.932C239.129 42.086 239.615 41.708 240.065 41.222C240.749 40.502 241.091 39.62 241.091 38.63C241.091 36.488 239.561 35.066 237.257 35.066C235.943 35.066 234.863 35.552 234.179 36.434C233.549 37.226 233.315 38.108 233.315 39.53H235.169C235.241 37.496 235.835 36.686 237.221 36.686C238.409 36.686 239.147 37.46 239.147 38.702C239.147 39.278 238.949 39.836 238.625 40.268C238.319 40.646 237.815 41.024 236.537 41.888C233.909 43.616 233.099 44.768 233.009 47H241.073V45.29Z" fill="#232323"/>
</svg>
