<?xml version="1.0" encoding="UTF-8"?>
<svg xmlns="http://www.w3.org/2000/svg" xmlns:xlink="http://www.w3.org/1999/xlink" version="1.2" >
<font id="Nimbus Sans Novus Bold">
<font-face  font-family="Nimbus Sans Novus" units-per-em="1000" ascent="923" descent="-250" font-style="normal" font-weight="700" font-stretch="normal" cap-height="667" x-height="483" underline-position="-58" underline-thickness="86" />
<missing-glyph  horiz-adv-x="250" d="" />
<glyph glyph-name="NULL" d="" />
<glyph glyph-name="CR" unicode="&#xd;" horiz-adv-x="250" d="" />
<glyph glyph-name="space" unicode="&#x20;" horiz-adv-x="250" d="" />
<glyph glyph-name="exclam" unicode="&#x21;" horiz-adv-x="318" d="M240 667 L100 667 L100 487 L136 203 L203 203 L240 489 L240 667 Z M242 143 L97 143 L97 0 L242 0 L242 143 Z " />
<glyph glyph-name="quotedbl" unicode="&#x22;" horiz-adv-x="378" d="M314 399 L338 667 L221 667 L245 399 L314 399 Z M133 399 L157 667 L40 667 L64 399 L133 399 Z " />
<glyph glyph-name="numbersign" unicode="&#x23;" horiz-adv-x="560" d="M386 209 L498 209 L510 290 L398 290 L409 373 L521 373 L532 454 L421 454 L443 609 L359 609 L338 454 L250 454 L271 609 L188 609 L166 454 L62 454 L51 373 L155 373 L143 290 L39 290 L28 209 L132 209 L108 40 L191 40 L215 209 L303 209 L279 40 L363 40 L386 209 Z M326 373 L315 290 L227 290 L238 373 L326 373 Z " />
<glyph glyph-name="dollar" unicode="&#x24;" horiz-adv-x="560" d="M307 563 C359 557 386 525 387 470 L510 470 C511 585 437 654 307 661 L307 743 L252 743 L252 661 C205 657 182 653 155 641 C83 611 41 549 41 474 C41 410 67 365 123 332 C153 313 170 307 252 284 L252 91 C186 98 154 137 154 210 L25 210 C26 78 113 -6 252 -10 L252 -103 L307 -103 L307 -10 C356 -8 387 -1 418 14 C490 50 532 117 532 196 C532 270 500 321 433 353 C412 363 370 376 307 393 L307 563 Z M252 406 C188 421 165 442 165 485 C165 533 194 559 252 565 L252 406 Z M307 270 L310 269 C355 256 362 253 377 241 C394 228 403 206 403 180 C403 129 371 99 307 91 L307 270 Z " />
<glyph glyph-name="percent" unicode="&#x25;" horiz-adv-x="837" d="M637 674 L555 674 L186 -25 L269 -25 L637 674 Z M650 351 C546 351 490 286 490 165 C490 49 544 -13 646 -13 C748 -13 803 52 803 175 C803 288 748 351 650 351 L650 351 Z M647 284 C689 284 707 250 707 171 C707 90 688 55 646 55 C603 55 585 87 585 167 C585 249 604 284 647 284 L647 284 Z M193 662 C91 662 33 597 33 480 C33 362 89 297 191 297 C292 297 346 363 346 485 C346 599 291 662 193 662 L193 662 Z M191 594 C232 594 251 560 251 485 C251 400 232 364 188 364 C147 364 128 399 128 475 C128 556 148 594 191 594 L191 594 Z " />
<glyph glyph-name="ampersand" unicode="&#x26;" horiz-adv-x="663" d="M470 322 C466 290 456 260 446 244 L360 349 C435 388 476 447 476 517 C476 608 402 676 302 676 C200 676 123 609 123 519 C123 475 142 432 186 381 C90 338 35 266 35 183 C35 67 125 -14 254 -14 C323 -14 391 15 440 66 L495 0 L656 0 L521 158 C554 198 579 262 585 322 L470 322 Z M295 427 C259 466 240 500 240 524 C240 555 269 582 303 582 C337 582 365 554 365 520 C365 485 342 455 295 427 L295 427 Z M369 155 C334 115 300 97 259 97 C206 97 164 137 164 187 C164 229 193 263 254 294 L369 155 Z " />
<glyph glyph-name="quotesingle" unicode="&#x27;" horiz-adv-x="197" d="M133 399 L157 667 L40 667 L64 399 L133 399 Z " />
<glyph glyph-name="parenleft" unicode="&#x28;" horiz-adv-x="313" d="M159 667 C78 539 35 396 35 253 C35 159 49 77 82 -17 C97 -61 135 -138 158 -171 L269 -171 L265 -162 C219 -71 208 -41 191 31 C172 109 165 168 165 256 C165 399 202 543 270 667 L159 667 Z " />
<glyph glyph-name="parenright" unicode="&#x29;" horiz-adv-x="313" d="M153 -171 C235 -42 277 98 277 243 C277 339 263 418 231 513 C215 557 177 634 154 667 L44 667 L48 658 C93 568 104 538 122 465 C141 386 147 331 147 240 C147 95 111 -46 42 -171 L153 -171 Z " />
<glyph glyph-name="asterisk" unicode="&#x2a;" horiz-adv-x="560" d="M450 519 L423 592 L316 551 L319 667 L241 667 L242 551 L134 592 L110 519 L219 483 L149 391 L212 345 L278 442 L347 345 L408 391 L340 483 L450 519 Z " />
<glyph glyph-name="plus" unicode="&#x2b;" horiz-adv-x="560" d="M50 282 L235 282 L235 97 L324 97 L324 282 L510 282 L510 371 L324 371 L324 557 L235 557 L235 371 L50 371 L50 282 Z " />
<glyph glyph-name="comma" unicode="&#x2c;" horiz-adv-x="278" d="M214 146 L65 146 L65 0 L132 0 C131 -47 106 -80 65 -89 L65 -156 C103 -151 135 -136 164 -111 C200 -79 214 -38 214 31 L214 146 Z " />
<glyph glyph-name="hyphen" unicode="&#x2d;" horiz-adv-x="253" d="M253 308 L0 308 L0 189 L253 189 L253 308 Z " />
<glyph glyph-name="period" unicode="&#x2e;" horiz-adv-x="278" d="M214 148 L63 148 L63 0 L214 0 L214 148 Z " />
<glyph glyph-name="slash" unicode="&#x2f;" horiz-adv-x="430" d="M398 667 L278 667 L-32 -171 L89 -171 L398 667 Z " />
<glyph glyph-name="zero" unicode="0" horiz-adv-x="560" d="M282 661 C129 661 39 536 39 324 C39 114 129 -10 282 -10 C429 -10 520 117 520 325 C520 414 502 496 470 554 C433 620 362 661 282 661 L282 661 Z M281 553 C355 553 389 481 389 326 C389 171 354 98 280 98 C205 98 170 167 170 318 C170 486 202 553 281 553 L281 553 Z " />
<glyph glyph-name="one" unicode="1" horiz-adv-x="560" d="M393 656 L289 656 C275 567 216 526 103 524 L103 429 L119 429 L165 429 L213 429 L260 429 L260 0 L393 0 L393 656 Z " />
<glyph glyph-name="two" unicode="2" horiz-adv-x="560" d="M515 115 L314 115 C278 115 253 114 202 111 C221 142 251 169 312 211 C418 282 418 282 434 295 C486 341 512 395 512 460 C512 578 420 661 289 661 C143 661 49 565 49 416 C49 415 49 408 50 402 L177 402 C180 498 215 546 284 546 C339 546 377 507 377 451 C377 401 355 369 291 326 C166 241 135 218 102 183 C61 141 34 70 35 0 L515 0 L515 115 Z " />
<glyph glyph-name="three" unicode="3" horiz-adv-x="560" d="M176 443 C178 515 213 553 276 553 C330 553 366 521 366 473 C366 417 330 391 251 391 C237 391 237 391 229 392 L229 297 C241 299 249 299 262 299 C303 299 326 293 346 278 C368 260 381 233 381 201 C381 143 337 103 273 103 C202 103 161 148 161 227 L33 227 C33 182 36 163 46 134 C78 42 161 -10 275 -10 C417 -10 519 78 519 202 C519 278 474 336 402 353 C459 368 494 418 494 483 C494 589 406 661 276 661 C140 661 54 578 49 443 L176 443 Z " />
<glyph glyph-name="four" unicode="4" horiz-adv-x="560" d="M527 261 L443 261 L443 656 L320 656 L35 273 L35 150 L313 150 L313 0 L443 0 L443 150 L527 150 L527 261 Z M316 259 L205 259 C191 259 189 259 140 258 C152 272 163 286 174 302 C184 315 194 328 204 342 L259 422 C280 453 291 469 318 515 L316 458 L316 384 L316 259 Z " />
<glyph glyph-name="five" unicode="5" horiz-adv-x="560" d="M480 651 L114 651 L50 291 L169 289 C194 328 223 344 268 344 C337 344 381 296 381 222 C381 148 335 98 268 98 C209 98 166 136 161 193 L30 193 C35 68 127 -10 268 -10 C413 -10 516 88 516 226 C516 355 433 440 306 440 C252 440 217 426 183 391 C191 420 191 424 197 456 L211 536 L480 536 L480 651 Z " />
<glyph glyph-name="six" unicode="6" horiz-adv-x="560" d="M511 485 C495 596 417 661 299 661 C140 661 43 530 43 314 C43 109 135 -10 292 -10 C426 -10 523 87 523 222 C523 348 438 438 318 438 C254 438 211 416 172 365 L173 379 C185 500 226 559 297 559 C344 559 373 534 385 485 L511 485 Z M289 339 C348 339 392 287 392 218 C392 149 348 98 288 98 C229 98 184 150 184 219 C184 288 228 339 289 339 L289 339 Z " />
<glyph glyph-name="seven" unicode="7" horiz-adv-x="560" d="M504 651 L57 651 L57 530 L279 530 C297 530 298 530 371 532 C256 414 151 163 150 0 L288 0 C300 213 355 363 471 504 C490 525 501 537 504 540 L504 651 Z " />
<glyph glyph-name="eight" unicode="8" horiz-adv-x="560" d="M156 349 C79 330 33 270 33 189 C33 69 131 -10 280 -10 C428 -10 526 71 526 194 C526 274 485 326 404 349 C466 371 500 420 500 487 C500 588 408 661 280 661 C152 661 60 587 60 485 C60 417 93 370 156 349 L156 349 Z M281 562 C340 562 379 529 379 477 C379 423 341 389 281 389 C220 389 181 423 181 477 C181 528 221 562 281 562 L281 562 Z M279 301 C347 301 393 258 393 196 C393 133 348 91 280 91 C213 91 166 134 166 197 C166 259 212 301 279 301 L279 301 Z " />
<glyph glyph-name="nine" unicode="9" horiz-adv-x="560" d="M48 166 C61 58 145 -10 265 -10 C419 -10 517 127 517 342 C517 442 499 511 459 567 C415 627 349 661 273 661 C138 661 37 561 37 428 C37 303 124 212 245 212 C306 212 346 234 386 288 C374 153 336 91 264 91 C216 91 185 117 174 166 L48 166 Z M273 553 C331 553 375 500 375 432 C375 363 331 312 272 312 C211 312 168 362 168 432 C168 503 211 553 273 553 L273 553 Z " />
<glyph glyph-name="colon" unicode="&#x3a;" horiz-adv-x="295" d="M231 483 L80 483 L80 335 L231 335 L231 483 Z M231 148 L80 148 L80 0 L231 0 L231 148 Z " />
<glyph glyph-name="semicolon" unicode="&#x3b;" horiz-adv-x="295" d="M232 146 L83 146 L83 0 L150 0 C149 -47 124 -80 83 -89 L83 -156 C121 -151 153 -136 182 -111 C218 -79 232 -38 232 31 L232 146 Z M231 483 L80 483 L80 335 L231 335 L231 483 Z " />
<glyph glyph-name="less" unicode="&#x3c;" horiz-adv-x="500" d="M466 623 L33 397 L33 277 L466 51 L466 193 L185 337 L466 480 L466 623 Z " />
<glyph glyph-name="equal" unicode="&#x3d;" horiz-adv-x="560" d="M50 366 L510 366 L510 453 L50 453 L50 366 Z M50 201 L510 201 L510 288 L50 288 L50 201 Z " />
<glyph glyph-name="greater" unicode="&#x3e;" horiz-adv-x="500" d="M34 51 L467 277 L467 397 L34 623 L34 481 L315 337 L34 194 L34 51 Z " />
<glyph glyph-name="question" unicode="&#x3f;" horiz-adv-x="539" d="M181 453 C185 534 213 566 279 568 C328 569 359 540 359 493 C359 455 348 437 303 400 C218 332 208 313 207 203 L331 203 C331 254 343 284 375 308 C477 380 503 416 503 491 C503 606 415 683 281 683 C137 683 52 601 45 453 L181 453 Z M340 143 L195 143 L195 0 L340 0 L340 143 Z " />
<glyph glyph-name="at" unicode="&#x40;" horiz-adv-x="737" d="M617 186 C567 105 479 55 386 55 C232 55 111 177 111 335 C111 493 230 614 385 614 C520 614 630 512 630 388 C630 302 564 212 501 212 C490 212 481 217 481 224 C481 228 481 228 490 255 L570 499 L470 499 L462 477 C427 507 407 515 374 515 C273 515 174 403 174 289 C174 209 229 150 302 150 C334 150 363 161 400 188 C412 167 443 152 476 152 C520 152 569 170 610 202 C669 249 702 317 702 393 C702 553 560 683 386 683 C190 683 35 529 35 334 C35 140 190 -16 383 -16 C468 -16 547 14 614 72 C654 107 674 133 698 186 L617 186 Z M399 302 C376 237 351 210 317 210 C295 210 281 230 281 261 C281 290 296 344 314 379 C336 422 368 451 396 451 C416 451 430 434 430 409 C430 396 427 384 420 364 L399 302 Z " />
<glyph glyph-name="A" unicode="A" horiz-adv-x="657" d="M404 668 L254 668 L0 0 L150 0 L204 149 L452 149 L505 0 L658 0 L404 668 Z M416 256 L239 256 L282 376 C310 456 317 479 329 521 C340 476 348 447 373 376 L416 256 Z " />
<glyph glyph-name="B" unicode="B" horiz-adv-x="662" d="M64 667 L64 0 L391 0 C451 0 494 9 531 30 C591 64 626 125 626 197 C626 257 604 304 561 335 C544 347 537 351 504 362 C562 389 594 437 594 499 C594 561 561 615 508 643 C474 660 433 667 364 667 L64 667 Z M209 552 L342 552 C419 552 451 530 451 475 C451 422 417 397 342 397 L209 397 L209 552 Z M209 298 L349 298 C386 298 415 294 431 287 C461 274 479 245 479 206 C479 176 467 150 447 134 C429 121 401 115 356 115 L209 115 L209 298 Z " />
<glyph glyph-name="C" unicode="C" horiz-adv-x="682" d="M510 257 C498 158 445 105 358 105 C250 105 182 193 182 333 C182 474 249 561 359 561 C438 561 492 519 507 443 L651 443 C640 582 518 683 362 683 C169 683 35 540 35 334 C35 123 163 -16 356 -16 C527 -16 643 90 656 257 L510 257 Z " />
<glyph glyph-name="D" unicode="D" horiz-adv-x="693" d="M64 667 L64 0 L336 0 C444 0 506 21 562 77 C625 139 656 226 656 342 C656 448 622 535 556 595 C502 645 433 667 333 667 L64 667 Z M209 544 L316 544 C444 544 509 474 509 337 C509 262 493 210 459 171 C428 136 391 123 321 123 L209 123 L209 544 Z " />
<glyph glyph-name="E" unicode="E" horiz-adv-x="611" d="M564 667 L64 667 L64 0 L571 0 L571 123 L209 123 L209 286 L535 286 L535 401 L209 401 L209 544 L564 544 L564 667 Z " />
<glyph glyph-name="F" unicode="F" horiz-adv-x="553" d="M533 667 L64 667 L64 0 L209 0 L209 274 L491 274 L491 389 L209 389 L209 544 L533 544 L533 667 Z " />
<glyph glyph-name="G" unicode="G" horiz-adv-x="712" d="M656 359 L376 359 L376 252 L524 252 C521 162 457 102 365 102 C247 102 182 184 182 331 C182 477 247 561 361 561 C439 561 492 519 506 447 L647 447 C632 586 515 683 362 683 C169 683 35 538 35 330 C35 124 163 -16 349 -16 C435 -16 497 13 548 76 L563 0 L656 0 L656 359 Z " />
<glyph glyph-name="H" unicode="H" horiz-adv-x="693" d="M628 667 L483 667 L483 413 L210 413 L210 667 L65 667 L65 0 L210 0 L210 290 L483 290 L483 0 L628 0 L628 667 Z " />
<glyph glyph-name="I" unicode="I" horiz-adv-x="275" d="M210 667 L65 667 L65 0 L210 0 L210 667 Z " />
<glyph glyph-name="J" unicode="J" horiz-adv-x="504" d="M449 667 L304 667 L304 213 C304 130 284 102 226 102 C192 102 167 115 155 139 C146 156 143 178 143 230 L143 249 L8 249 C7 191 9 160 16 132 C38 36 114 -16 230 -16 C311 -16 370 9 409 60 C439 99 449 140 449 218 L449 667 Z " />
<glyph glyph-name="K" unicode="K" horiz-adv-x="667" d="M655 667 L470 667 L264 449 C249 433 247 431 208 384 C209 451 209 451 209 468 L209 667 L64 667 L64 0 L209 0 L209 215 L293 299 L495 0 L679 0 L393 403 L655 667 Z " />
<glyph glyph-name="L" unicode="L" horiz-adv-x="561" d="M536 123 L210 123 L210 667 L65 667 L65 0 L536 0 L536 123 Z " />
<glyph glyph-name="M" unicode="M" horiz-adv-x="850" d="M784 667 L579 667 L484 379 C454 287 438 227 426 166 C412 241 395 305 371 377 L271 667 L64 667 L64 0 L202 0 L202 215 C202 333 202 345 193 535 C211 458 230 390 261 298 L368 0 L483 0 L587 304 C617 395 634 455 655 538 C649 408 646 313 646 200 L646 0 L784 0 L784 667 Z " />
<glyph glyph-name="N" unicode="N" horiz-adv-x="693" d="M628 667 L488 667 L488 389 C488 349 491 247 494 198 C479 231 450 281 407 352 L213 667 L65 667 L65 0 L205 0 L205 284 C205 353 203 426 199 471 C219 429 219 428 283 322 L482 0 L628 0 L628 667 Z " />
<glyph glyph-name="O" unicode="O" horiz-adv-x="727" d="M369 683 C166 683 35 545 35 333 C35 124 167 -16 365 -16 C560 -16 692 125 692 333 C692 539 559 683 369 683 L369 683 Z M367 562 C474 562 545 472 545 336 C545 194 475 105 366 105 C252 105 182 193 182 334 C182 475 253 562 367 562 L367 562 Z " />
<glyph glyph-name="P" unicode="P" horiz-adv-x="625" d="M64 667 L64 0 L209 0 L209 240 L359 240 C435 240 484 254 525 288 C572 328 597 384 597 453 C597 530 567 591 510 629 C468 657 423 667 332 667 L64 667 Z M209 544 L331 544 C373 544 398 539 417 526 C440 510 454 482 454 451 C454 420 442 392 422 376 C404 361 379 355 339 355 L209 355 L209 544 Z " />
<glyph glyph-name="Q" unicode="Q" horiz-adv-x="723" d="M687 9 L601 87 C658 143 691 233 691 337 C691 540 556 683 366 683 C171 683 35 539 35 334 C35 125 166 -16 359 -16 C421 -16 478 -2 520 24 L619 -65 L687 9 Z M427 247 L358 174 L425 116 C405 109 385 105 363 105 C253 105 182 194 182 334 C182 473 252 562 363 562 C474 562 544 475 544 335 C544 269 531 223 499 181 L427 247 Z " />
<glyph glyph-name="R" unicode="R" horiz-adv-x="689" d="M64 667 L64 0 L209 0 L209 262 L340 262 C394 262 426 252 444 229 C465 202 470 180 476 90 C480 37 484 17 493 0 L645 0 L639 8 C629 23 623 47 619 94 C609 248 588 292 514 315 C582 340 620 400 620 478 C620 548 590 603 533 637 C496 659 457 667 386 667 L64 667 Z M209 552 L354 552 C439 552 477 524 477 461 C477 429 465 404 442 388 C423 374 396 369 348 369 L209 369 L209 552 Z " />
<glyph glyph-name="S" unicode="S" horiz-adv-x="613" d="M556 469 C554 522 542 560 517 594 C474 652 397 683 299 683 C144 683 42 603 42 482 C42 431 60 386 94 357 C122 331 168 311 253 288 C355 259 357 259 384 248 C420 234 435 216 435 186 C435 132 387 97 313 97 C260 97 220 111 193 138 C173 159 165 181 163 223 L18 223 C22 70 126 -16 307 -16 C477 -16 582 67 582 200 C582 261 555 311 504 345 C471 368 428 383 344 404 C261 424 231 433 210 445 C193 454 182 472 182 492 C182 540 224 570 292 570 C367 570 412 534 417 469 L556 469 Z " />
<glyph glyph-name="T" unicode="T" horiz-adv-x="581" d="M565 667 L16 667 L16 544 L217 544 L217 0 L362 0 L362 544 L565 544 L565 667 Z " />
<glyph glyph-name="U" unicode="U" horiz-adv-x="680" d="M624 667 L479 667 L479 265 C479 150 441 105 343 105 C286 105 243 123 221 156 C205 181 199 209 199 265 L199 667 L54 667 L54 275 C54 182 65 134 94 88 C141 17 219 -16 340 -16 C450 -16 521 11 569 69 C610 119 624 171 624 273 L624 667 Z " />
<glyph glyph-name="V" unicode="V" horiz-adv-x="605" d="M606 667 L454 667 L368 397 C336 290 311 189 303 139 C295 193 272 289 239 397 L152 667 L0 667 L218 0 L384 0 L606 667 Z " />
<glyph glyph-name="W" unicode="W" horiz-adv-x="882" d="M881 667 L736 667 L671 398 C647 289 632 204 626 143 C618 213 614 235 581 392 L511 667 L373 667 L301 386 C278 289 261 196 256 143 C252 200 235 296 214 387 L148 667 L2 667 L180 0 L328 0 L398 289 C413 348 432 449 440 508 C453 427 467 352 482 286 L555 0 L700 0 L881 667 Z " />
<glyph glyph-name="X" unicode="X" horiz-adv-x="621" d="M609 667 L448 667 L363 531 C342 497 324 464 314 442 C305 462 294 482 263 536 L182 667 L11 667 L228 349 L-7 0 L160 0 L260 157 C285 198 300 223 309 242 C320 217 336 187 355 158 L454 0 L629 0 L395 349 L609 667 Z " />
<glyph glyph-name="Y" unicode="Y" horiz-adv-x="606" d="M623 667 L461 667 L360 496 C349 478 319 415 304 380 C295 404 269 458 251 489 L147 667 L-19 667 L230 259 L230 0 L375 0 L375 257 L623 667 Z " />
<glyph glyph-name="Z" unicode="Z" horiz-adv-x="609" d="M574 667 L47 667 L47 544 L269 544 C306 544 333 545 390 547 C354 511 342 498 329 483 L22 116 L22 0 L586 0 L586 123 L336 123 C302 123 272 122 202 119 L242 162 C254 175 265 187 276 199 L574 556 L574 667 Z " />
<glyph glyph-name="bracketleft" unicode="&#x5b;" horiz-adv-x="313" d="M282 667 L40 667 L40 -171 L282 -171 L282 -75 L163 -75 L163 571 L282 571 L282 667 Z " />
<glyph glyph-name="backslash" unicode="&#x5c;" horiz-adv-x="430" d="M32 667 L341 -171 L462 -171 L152 667 L32 667 Z " />
<glyph glyph-name="bracketright" unicode="&#x5d;" horiz-adv-x="313" d="M30 -171 L272 -171 L272 667 L30 667 L30 571 L149 571 L149 -75 L30 -75 L30 -171 Z " />
<glyph glyph-name="asciicircum" unicode="&#x5e;" horiz-adv-x="500" d="M144 352 L250 573 L356 352 L484 352 L330 670 L171 670 L17 352 L144 352 Z " />
<glyph glyph-name="underscore" unicode="&#x5f;" horiz-adv-x="500" d="M0 -58 L0 -144 L500 -144 L500 -58 L0 -58 Z " />
<glyph glyph-name="grave" unicode="&#x60;" horiz-adv-x="500" d="M98 691 L233 557 L322 557 L238 691 L98 691 Z " />
<glyph glyph-name="a" unicode="a" horiz-adv-x="521" d="M497 0 C484 32 480 60 480 130 L481 231 C483 373 483 383 472 408 C449 465 377 496 270 496 C130 496 54 442 46 335 L171 335 C180 388 204 407 266 407 C326 407 353 387 353 344 C353 306 340 299 236 286 C166 277 139 271 113 261 C56 239 25 193 25 133 C25 41 88 -13 194 -13 C261 -13 312 6 354 47 C354 30 355 22 362 0 L497 0 Z M352 181 C352 148 347 131 330 113 C306 86 275 73 235 73 C189 73 161 97 161 138 C161 181 185 199 259 210 C314 218 331 223 352 236 L352 181 Z " />
<glyph glyph-name="b" unicode="b" horiz-adv-x="582" d="M190 667 L58 667 L58 0 L184 0 L184 61 C217 11 266 -13 335 -13 C463 -13 549 91 549 247 C549 322 530 382 494 426 C457 470 400 497 343 497 C278 497 226 472 190 424 L190 667 Z M302 393 C371 393 416 334 416 245 C416 154 371 95 302 95 C230 95 185 152 185 244 C185 336 230 393 302 393 L302 393 Z " />
<glyph glyph-name="c" unicode="c" horiz-adv-x="531" d="M379 185 C369 121 334 87 276 87 C205 87 163 143 163 240 C163 339 206 396 279 396 C331 396 365 367 375 314 L505 314 C494 427 408 496 278 496 C127 496 30 394 30 237 C30 85 126 -13 276 -13 C406 -13 491 60 508 185 L379 185 Z " />
<glyph glyph-name="d" unicode="d" horiz-adv-x="582" d="M523 667 L391 667 L391 424 C360 471 307 497 244 497 C180 497 122 469 83 419 C49 374 32 317 32 244 C32 86 117 -13 251 -13 C318 -13 365 11 397 62 L397 0 L523 0 L523 667 Z M281 394 C351 394 396 335 396 244 C396 150 353 95 280 95 C208 95 165 150 165 244 C165 338 208 394 281 394 L281 394 Z " />
<glyph glyph-name="e" unicode="e" horiz-adv-x="540" d="M377 150 C356 102 327 82 278 82 C207 82 168 126 165 207 L512 207 L512 227 C512 389 417 496 273 496 C132 496 30 388 30 239 C30 87 128 -13 277 -13 C390 -13 478 50 504 150 L377 150 Z M165 292 C172 359 214 401 273 401 C332 401 369 362 377 292 L165 292 Z " />
<glyph glyph-name="f" unicode="f" horiz-adv-x="321" d="M311 667 C270 669 253 670 242 670 C184 670 140 656 113 629 C86 603 77 572 77 508 L77 483 L-2 483 L-2 394 L77 394 L77 0 L209 0 L209 394 L303 394 L303 483 L207 483 L207 521 C207 559 222 572 265 572 C273 572 287 571 311 569 L311 667 Z " />
<glyph glyph-name="g" unicode="g" horiz-adv-x="572" d="M512 483 L386 483 L386 419 C348 475 309 496 242 496 C114 496 31 400 31 252 C31 106 110 15 237 15 C303 15 350 39 384 89 L384 34 C384 -55 353 -91 276 -91 C220 -91 189 -72 180 -29 L47 -29 C60 -130 135 -180 273 -180 C372 -180 441 -150 480 -92 C504 -55 512 -16 512 60 L512 483 Z M276 393 C343 393 385 340 385 255 C385 167 343 113 274 113 C205 113 164 166 164 255 C164 342 205 393 276 393 L276 393 Z " />
<glyph glyph-name="h" unicode="h" horiz-adv-x="565" d="M190 667 L58 667 L58 0 L190 0 L190 236 C190 292 193 312 203 333 C220 369 252 388 293 388 C324 388 347 379 362 360 C374 344 378 326 378 284 L378 0 L510 0 L510 307 C510 366 503 399 485 428 C457 472 407 496 342 496 C274 496 231 473 189 417 C190 471 190 472 190 476 L190 667 Z " />
<glyph glyph-name="i" unicode="i" horiz-adv-x="249" d="M190 667 L58 667 L58 554 L190 554 L190 667 Z M190 483 L58 483 L58 0 L190 0 L190 483 Z " />
<glyph glyph-name="j" unicode="j" horiz-adv-x="249" d="M189 483 L57 483 L57 40 C57 -16 57 -22 54 -37 C50 -57 36 -67 10 -67 C-5 -67 -17 -67 -24 -66 L-24 -173 C4 -175 46 -176 66 -174 C146 -166 190 -118 190 -37 L189 0 L189 483 Z M189 667 L57 667 L57 554 L189 554 L189 667 Z " />
<glyph glyph-name="k" unicode="k" horiz-adv-x="534" d="M517 483 L360 483 L223 343 C213 333 206 324 189 302 C190 360 190 360 190 378 L190 667 L58 667 L58 0 L190 0 L190 164 L244 215 L377 0 L538 0 L335 304 L517 483 Z " />
<glyph glyph-name="l" unicode="l" horiz-adv-x="249" d="M190 667 L58 667 L58 0 L190 0 L190 667 Z " />
<glyph glyph-name="m" unicode="m" horiz-adv-x="850" d="M184 483 L58 483 L58 0 L190 0 L190 262 C190 295 193 319 200 335 C215 368 247 388 286 388 C339 388 360 362 360 294 L360 0 L492 0 L492 262 C492 303 494 321 501 337 C516 370 546 388 585 388 C642 388 663 361 663 288 L663 0 L795 0 L795 325 C795 434 736 496 632 496 C563 496 514 471 473 416 C447 471 404 496 338 496 C270 496 225 473 184 417 L184 483 Z " />
<glyph glyph-name="n" unicode="n" horiz-adv-x="565" d="M184 483 L58 483 L58 0 L190 0 L190 250 C190 292 194 315 203 335 C219 368 254 388 295 388 C331 388 360 372 370 346 C376 330 378 312 378 277 L378 0 L510 0 L510 304 C510 367 503 399 484 430 C458 472 408 496 345 496 C274 496 227 472 184 416 L184 483 Z " />
<glyph glyph-name="o" unicode="o" horiz-adv-x="560" d="M285 496 C130 496 30 396 30 241 C30 88 130 -13 281 -13 C432 -13 530 88 530 242 C530 394 432 496 285 496 L285 496 Z M281 398 C353 398 397 339 397 242 C397 143 354 85 281 85 C207 85 163 143 163 241 C163 340 207 398 281 398 L281 398 Z " />
<glyph glyph-name="p" unicode="p" horiz-adv-x="582" d="M184 483 L58 483 L58 -171 L190 -171 L190 60 C226 10 274 -13 339 -13 C467 -13 549 86 549 239 C549 394 464 496 334 496 C267 496 219 472 184 423 L184 483 Z M302 388 C373 388 416 331 416 238 C416 145 373 90 302 90 C229 90 185 146 185 239 C185 334 228 388 302 388 L302 388 Z " />
<glyph glyph-name="q" unicode="q" horiz-adv-x="582" d="M523 483 L397 483 L397 423 C365 473 317 496 248 496 C116 496 32 396 32 239 C32 85 113 -13 242 -13 C308 -13 354 9 391 61 L391 -171 L523 -171 L523 483 Z M280 388 C352 388 395 333 395 241 C395 146 352 90 279 90 C208 90 165 144 165 236 C165 332 207 388 280 388 L280 388 Z " />
<glyph glyph-name="r" unicode="r" horiz-adv-x="370" d="M370 491 C357 493 352 493 340 493 C269 493 219 461 184 394 L184 483 L58 483 L58 0 L190 0 L190 202 C190 257 195 287 208 311 C230 352 268 374 318 374 C337 374 348 373 370 369 L370 491 Z " />
<glyph glyph-name="s" unicode="s" horiz-adv-x="496" d="M448 343 C444 387 435 411 414 435 C378 476 318 496 236 496 C103 496 26 442 26 349 C26 304 48 264 85 243 C113 228 139 220 225 200 C314 180 334 169 334 136 C334 99 299 76 245 76 C180 76 149 101 143 157 L16 157 C23 44 99 -13 243 -13 C383 -13 467 48 467 149 C467 232 418 270 278 299 C201 314 182 320 170 333 C164 339 159 351 159 360 C159 389 187 407 234 407 C292 407 317 389 324 343 L448 343 Z " />
<glyph glyph-name="t" unicode="t" horiz-adv-x="323" d="M303 483 L205 483 L205 629 L73 629 L73 483 L-8 483 L-8 394 L73 394 L73 171 C73 89 76 66 92 42 C113 8 153 -7 222 -7 C246 -7 267 -6 303 -2 L303 99 C280 97 271 96 263 96 C214 96 205 107 205 166 L205 394 L303 394 L303 483 Z " />
<glyph glyph-name="u" unicode="u" horiz-adv-x="566" d="M507 483 L375 483 L375 243 C375 194 372 170 362 151 C345 114 313 95 270 95 C238 95 214 105 200 126 C189 143 186 159 186 216 L186 483 L54 483 L54 177 C54 114 63 77 84 47 C113 8 161 -13 221 -13 C291 -13 342 13 381 68 L381 0 L507 0 L507 483 Z " />
<glyph glyph-name="v" unicode="v" horiz-adv-x="470" d="M475 483 L342 483 L281 287 C255 202 247 169 238 121 C231 165 219 213 196 290 L134 483 L-5 483 L162 0 L311 0 L475 483 Z " />
<glyph glyph-name="w" unicode="w" horiz-adv-x="746" d="M748 483 L611 483 L555 281 C543 234 536 202 521 123 C509 200 504 223 489 284 L438 483 L309 483 L265 305 C246 230 242 207 228 122 C211 208 204 241 188 300 L137 483 L-3 483 L151 0 L289 0 L342 211 C355 260 360 287 372 358 C384 286 389 261 402 211 L458 0 L595 0 L748 483 Z " />
<glyph glyph-name="x" unicode="x" horiz-adv-x="483" d="M474 483 L326 483 L278 409 C268 393 260 380 241 347 C220 385 215 395 207 406 L156 483 L3 483 L164 255 L-12 0 L138 0 L206 104 C217 122 224 134 240 164 C258 128 263 118 271 105 L341 0 L494 0 L315 258 L474 483 Z " />
<glyph glyph-name="y" unicode="y" horiz-adv-x="489" d="M493 483 L356 483 L281 252 C270 220 264 196 248 134 C234 193 228 216 218 246 L138 483 L-5 483 L167 29 C170 21 171 13 171 -1 C171 -45 150 -62 96 -62 L57 -62 L42 -62 L42 -171 L96 -172 L109 -173 C112 -173 128 -173 156 -171 C184 -170 202 -164 224 -150 C262 -126 279 -97 316 2 L493 483 Z " />
<glyph glyph-name="z" unicode="z" horiz-adv-x="478" d="M451 483 L42 483 L42 380 L235 380 C251 380 262 380 284 382 C245 346 231 333 216 317 L23 100 L23 0 L468 0 L468 103 L258 103 C241 103 226 102 191 100 C225 132 238 145 253 162 L451 386 L451 483 Z " />
<glyph glyph-name="braceleft" unicode="&#x7b;" horiz-adv-x="419" d="M216 455 C216 511 220 532 234 549 C244 563 269 571 300 571 L313 571 L313 667 L308 667 C177 665 168 664 138 642 C107 620 93 585 93 528 L93 392 C93 343 76 318 37 308 L37 194 C77 185 93 159 93 103 L93 -26 C93 -86 106 -121 137 -145 C167 -168 176 -170 308 -171 L313 -171 L313 -75 L300 -75 C273 -75 247 -68 237 -59 C221 -43 216 -20 216 36 L216 126 C216 191 202 221 158 248 C203 275 216 303 216 368 L216 455 Z " />
<glyph glyph-name="bar" unicode="&#x7c;" horiz-adv-x="500" d="M178 667 L178 -167 L322 -167 L322 667 L178 667 Z " />
<glyph glyph-name="braceright" unicode="&#x7d;" horiz-adv-x="419" d="M203 41 C203 -15 199 -36 185 -53 C175 -67 150 -75 119 -75 L106 -75 L106 -171 L111 -171 C242 -169 251 -168 281 -146 C312 -124 326 -89 326 -32 L326 104 C326 153 343 178 382 188 L382 302 C342 311 326 337 326 393 L326 522 C326 582 313 617 282 641 C252 664 243 666 111 667 L106 667 L106 571 L119 571 C146 571 172 564 182 555 C198 539 203 516 203 460 L203 370 C203 305 217 275 261 248 C216 221 203 193 203 128 L203 41 Z " />
<glyph glyph-name="asciitilde" unicode="&#x7e;" horiz-adv-x="667" d="M163 555 C188 600 207 617 235 617 C253 617 274 611 309 595 C378 564 393 559 420 559 C493 559 536 596 576 691 L506 750 C482 705 461 687 432 687 C414 687 409 689 354 713 C295 738 266 747 241 747 C178 747 129 703 93 613 L163 555 Z " />
<glyph glyph-name="uni00A0" unicode="&#xa0;" horiz-adv-x="250" d="" />
<glyph glyph-name="exclamdown" unicode="&#xa1;" horiz-adv-x="318" d="M80 -183 L220 -183 L220 -3 L184 281 L117 281 L80 -5 L80 -183 Z M77 340 L222 340 L222 483 L77 483 L77 340 Z " />
<glyph glyph-name="cent" unicode="&#xa2;" horiz-adv-x="560" d="M401 282 C397 225 364 186 318 183 L318 491 C362 487 393 454 398 406 L525 406 C518 513 433 588 318 588 L318 669 L263 669 L263 588 C128 578 44 480 44 333 C44 253 68 190 117 142 C156 103 197 86 263 82 L263 -16 L318 -16 L318 82 C432 83 517 165 527 282 L401 282 Z M263 183 C204 196 175 247 175 337 C175 424 204 474 263 490 L263 183 Z " />
<glyph glyph-name="sterling" unicode="&#xa3;" horiz-adv-x="560" d="M531 449 C529 585 445 661 297 661 C161 661 69 590 69 484 C69 445 81 404 103 367 L43 367 L43 290 L135 290 C173 210 144 137 49 73 L107 -13 C145 13 174 24 206 24 C226 24 256 19 291 9 C401 -29 491 -16 555 46 L498 142 C475 117 445 103 412 103 C396 103 385 105 352 114 C325 121 307 124 287 124 C259 124 236 118 203 104 C262 155 282 188 282 238 C282 256 281 260 272 290 L371 290 L371 367 L246 367 C243 377 240 385 229 409 C220 432 212 461 212 476 C212 518 250 550 300 550 C364 550 399 515 401 449 L531 449 Z " />
<glyph glyph-name="currency" unicode="&#xa4;" horiz-adv-x="667" d="M44 162 L113 91 L174 151 C222 118 278 100 333 100 C388 100 444 118 493 152 L554 91 L623 162 L563 223 C595 270 611 323 611 378 C611 434 594 487 560 537 L621 596 L551 667 L490 606 C442 639 390 655 333 655 C276 655 223 638 175 605 L113 667 L43 596 L104 534 C72 487 56 436 56 378 C56 321 72 270 104 222 L44 162 Z M335 541 C423 541 496 467 496 378 C496 287 423 214 333 214 C243 214 170 288 170 377 C170 469 242 541 335 541 L335 541 Z " />
<glyph glyph-name="yen" unicode="&#xa5;" horiz-adv-x="560" d="M414 391 L536 651 L396 651 L327 496 C309 455 290 402 281 370 C270 407 254 453 238 489 L166 651 L23 651 L146 391 L44 391 L44 317 L182 317 L214 254 L214 234 L77 234 L77 160 L214 160 L214 0 L344 0 L344 160 L482 160 L482 234 L344 234 L344 252 L377 317 L515 317 L515 391 L414 391 Z " />
<glyph glyph-name="brokenbar" unicode="&#xa6;" horiz-adv-x="500" d="M178 667 L178 317 L322 317 L322 667 L178 667 Z M178 153 L178 -167 L322 -167 L322 153 L178 153 Z " />
<glyph glyph-name="section" unicode="&#xa7;" horiz-adv-x="560" d="M478 493 C476 598 400 667 286 667 C172 667 92 603 92 512 C92 475 104 447 131 419 C70 400 34 351 34 287 C34 255 42 229 61 202 C82 173 118 149 198 111 C333 46 354 30 354 -10 C354 -47 326 -70 281 -70 C227 -70 201 -46 194 11 L78 11 C78 -102 155 -171 282 -171 C399 -171 480 -105 480 -8 C480 35 466 64 430 96 C490 118 525 168 525 230 C525 276 508 309 470 339 C444 359 397 385 307 430 C231 468 218 480 218 513 C218 547 244 569 286 569 C332 569 358 543 361 493 L478 493 Z M196 359 C207 355 208 354 216 350 C229 343 245 335 265 325 C288 314 295 310 322 295 C334 288 345 282 356 275 C400 251 411 239 411 212 C411 185 391 161 362 152 C350 156 350 157 326 170 C316 176 304 182 292 188 C167 250 147 266 147 299 C147 328 165 350 196 359 L196 359 Z " />
<glyph glyph-name="dieresis" unicode="&#xa8;" horiz-adv-x="500" d="M410 679 L285 679 L285 570 L410 570 L410 679 Z M213 679 L89 679 L89 570 L213 570 L213 679 Z " />
<glyph glyph-name="copyright" unicode="&#xa9;" horiz-adv-x="777" d="M471 276 C467 233 435 205 391 205 C330 205 282 265 282 340 C282 414 327 467 390 467 C433 467 463 443 472 400 L555 400 C536 487 478 534 389 534 C279 534 201 453 201 339 C201 221 280 138 391 138 C480 138 545 193 554 276 L471 276 Z M387 683 C196 683 39 526 39 334 C39 140 195 -16 388 -16 C579 -16 737 140 737 329 C737 527 583 683 387 683 L387 683 Z M388 617 C545 617 668 491 668 331 C668 176 542 50 388 50 C232 50 108 176 108 334 C108 491 233 617 388 617 L388 617 Z " />
<glyph glyph-name="ordfeminine" unicode="&#xaa;" horiz-adv-x="373" d="M339 286 L339 343 L35 343 L35 286 L339 286 Z M322 400 C313 420 311 435 311 473 L311 492 L312 527 L313 565 L313 579 C313 617 307 634 288 649 C266 666 236 674 191 674 C109 674 67 644 62 581 L138 581 C142 611 154 620 188 620 C221 620 235 611 235 589 C235 570 228 567 171 560 C132 555 117 552 102 546 C69 533 51 508 51 474 C51 423 87 393 148 393 C184 393 212 402 235 422 C237 411 237 409 241 400 L322 400 Z M234 500 C234 466 211 445 171 445 C146 445 132 457 132 477 C132 499 145 508 185 514 C215 518 222 520 234 525 L234 500 Z " />
<glyph glyph-name="guillemotleft" unicode="&#xab;" horiz-adv-x="430" d="M191 427 L43 309 L43 185 L191 70 L191 181 L106 246 L191 313 L191 427 Z M374 426 L228 310 L228 187 L374 72 L374 182 L291 247 L374 312 L374 426 Z " />
<glyph glyph-name="logicalnot" unicode="&#xac;" horiz-adv-x="500" d="M326 0 L466 0 L466 290 L33 290 L33 164 L326 164 L326 0 Z " />
<glyph glyph-name="uni00AD" unicode="&#xad;" horiz-adv-x="253" d="M253 308 L0 308 L0 189 L253 189 L253 308 Z " />
<glyph glyph-name="registered" unicode="&#xae;" horiz-adv-x="777" d="M246 518 L246 146 L333 146 L333 288 L395 288 C445 288 447 284 449 209 C450 177 452 168 461 146 L564 146 C551 155 544 162 543 169 C541 177 540 186 537 230 C535 294 530 309 503 325 C534 347 544 368 544 409 C544 447 531 476 505 496 C482 513 463 518 411 518 L246 518 Z M333 441 L397 441 C445 441 457 433 457 402 C457 369 444 361 397 361 L333 361 L333 441 Z M387 683 C195 683 39 526 39 334 C39 141 195 -16 388 -16 C579 -16 737 141 737 330 C737 528 583 683 387 683 L387 683 Z M388 617 C545 617 668 492 668 331 C668 177 541 50 388 50 C233 50 108 177 108 335 C108 492 233 617 388 617 L388 617 Z " />
<glyph glyph-name="macron" unicode="&#xaf;" horiz-adv-x="500" d="M402 657 L97 657 L97 587 L402 587 L402 657 Z " />
<glyph glyph-name="degree" unicode="&#xb0;" horiz-adv-x="398" d="M200 673 C111 673 40 602 40 513 C40 425 112 354 199 354 C286 354 358 426 358 512 C358 602 288 673 200 673 L200 673 Z M198 612 C252 612 295 567 295 511 C295 460 250 415 199 415 C146 415 103 460 103 514 C103 567 147 612 198 612 L198 612 Z " />
<glyph glyph-name="plusminus" unicode="&#xb1;" horiz-adv-x="560" d="M50 282 L235 282 L235 110 L324 110 L324 282 L510 282 L510 371 L324 371 L324 557 L235 557 L235 371 L50 371 L50 282 Z M50 -13 L510 -13 L510 76 L50 76 L50 -13 Z " />
<glyph glyph-name="twosuperior" unicode="&#xb2;" horiz-adv-x="375" d="M341 341 L209 341 C189 341 173 341 144 339 C156 354 173 369 209 391 C278 434 278 434 288 442 C323 470 339 502 339 542 C339 613 278 664 193 664 C98 664 36 605 36 515 C36 514 36 509 37 504 L125 504 C126 562 147 589 189 589 C223 589 246 567 246 536 C246 509 232 491 192 465 C52 379 32 355 27 266 L341 266 L341 341 Z " />
<glyph glyph-name="threesuperior" unicode="&#xb3;" horiz-adv-x="375" d="M124 528 C126 571 146 594 185 594 C217 594 240 576 240 549 C240 522 217 504 182 504 L170 504 L160 504 L152 504 L152 441 L160 442 C168 443 173 443 176 443 L188 442 C210 440 212 440 223 434 C240 425 249 409 249 388 C249 356 223 334 183 334 C139 334 114 360 115 407 L26 407 L26 400 C26 315 88 260 185 260 C278 260 344 313 344 388 C344 432 321 463 279 478 C312 494 329 520 329 555 C329 619 270 664 186 664 C96 664 39 613 37 528 L124 528 Z " />
<glyph glyph-name="acute" unicode="&#xb4;" horiz-adv-x="500" d="M402 691 L262 691 L178 557 L267 557 L402 691 Z " />
<glyph glyph-name="mu" unicode="&#xb5;" horiz-adv-x="500" d="M33 -170 L155 -170 L155 52 C180 7 206 -10 247 -10 C294 -10 324 15 345 70 L345 0 L467 0 L467 480 L345 480 L345 231 C345 144 309 92 249 92 C219 92 195 105 176 132 C159 154 155 174 155 227 L155 480 L33 480 L33 -170 Z " />
<glyph glyph-name="paragraph" unicode="&#xb6;" horiz-adv-x="560" d="M226 -171 L306 -171 L306 606 L385 606 L385 -171 L465 -171 L465 606 L508 606 L508 667 L259 667 C191 667 155 661 120 644 C64 616 33 562 33 492 C33 390 106 320 213 320 C215 320 220 320 226 321 L226 -171 Z " />
<glyph glyph-name="periodcentered" unicode="&#xb7;" horiz-adv-x="278" d="M214 323 L63 323 L63 175 L214 175 L214 323 Z " />
<glyph glyph-name="cedilla" unicode="&#xb8;" horiz-adv-x="500" d="M272 0 L228 0 L172 -82 L192 -100 C205 -95 214 -93 225 -93 C252 -93 271 -107 271 -127 C271 -147 249 -163 221 -163 C202 -163 175 -157 149 -147 L131 -186 C168 -201 203 -208 237 -208 C306 -208 352 -173 352 -120 C352 -82 318 -55 269 -55 C254 -55 249 -55 233 -59 L272 0 Z " />
<glyph glyph-name="onesuperior" unicode="&#xb9;" horiz-adv-x="375" d="M264 661 L191 661 C183 607 146 583 72 583 L72 520 L85 520 L115 520 L145 520 L172 520 L172 267 L264 267 L264 661 Z " />
<glyph glyph-name="ordmasculine" unicode="&#xba;" horiz-adv-x="373" d="M339 286 L339 343 L35 343 L35 286 L339 286 Z M190 674 C102 674 44 618 44 534 C44 450 102 393 187 393 C273 393 330 449 330 534 C330 618 273 674 190 674 L190 674 Z M188 616 C226 616 250 585 250 534 C250 482 227 451 188 451 C148 451 124 482 124 533 C124 586 147 616 188 616 L188 616 Z " />
<glyph glyph-name="guillemotright" unicode="&#xbb;" horiz-adv-x="430" d="M239 427 L239 313 L324 246 L239 181 L239 70 L387 185 L387 309 L239 427 Z M56 426 L56 312 L139 247 L56 182 L56 72 L202 187 L202 310 L56 426 Z " />
<glyph glyph-name="onequarter" unicode="&#xbc;" horiz-adv-x="913" d="M264 661 L191 661 C183 607 146 583 72 583 L72 520 L85 520 L115 520 L145 520 L172 520 L172 267 L264 267 L264 661 Z M678 657 L602 657 L236 0 L314 0 L678 657 Z M888 161 L834 161 L834 394 L751 394 L566 166 L566 89 L746 89 L746 0 L834 0 L834 89 L888 89 L888 161 Z M749 158 L640 158 L749 300 L749 158 Z " />
<glyph glyph-name="onehalf" unicode="&#xbd;" horiz-adv-x="913" d="M264 661 L191 661 C183 607 146 583 72 583 L72 520 L85 520 L115 520 L145 520 L172 520 L172 267 L264 267 L264 661 Z M678 657 L602 657 L236 0 L314 0 L678 657 Z M879 75 L747 75 C727 75 711 75 682 73 C694 88 711 102 747 125 C810 163 815 167 826 175 C860 203 877 235 877 275 C877 347 818 396 731 396 C635 396 574 339 574 248 C574 247 574 242 575 237 L663 237 C664 296 684 321 727 321 C762 321 784 301 784 269 C784 242 770 223 730 199 C590 113 570 89 565 0 L879 0 L879 75 Z " />
<glyph glyph-name="threequarters" unicode="&#xbe;" horiz-adv-x="913" d="M124 528 C126 571 146 594 185 594 C217 594 240 576 240 549 C240 522 217 504 182 504 L170 504 L160 504 L152 504 L152 441 L160 442 C168 443 173 443 176 443 L188 442 C210 440 212 440 223 434 C240 425 249 409 249 388 C249 356 223 334 183 334 C139 334 114 360 115 407 L26 407 L26 400 C26 315 88 260 185 260 C278 260 344 313 344 388 C344 432 321 463 279 478 C312 494 329 520 329 555 C329 619 270 664 186 664 C96 664 39 613 37 528 L124 528 Z M678 657 L601 657 L235 0 L313 0 L678 657 Z M888 161 L834 161 L834 394 L751 394 L566 166 L566 89 L746 89 L746 0 L834 0 L834 89 L888 89 L888 161 Z M749 158 L640 158 L749 300 L749 158 Z " />
<glyph glyph-name="questiondown" unicode="&#xbf;" horiz-adv-x="538" d="M356 30 C353 -49 322 -85 258 -85 C210 -85 179 -56 179 -10 C179 28 190 46 235 83 C320 151 329 170 331 281 L207 281 C207 230 195 200 163 175 C61 104 35 66 35 -8 C35 -123 123 -199 257 -199 C341 -199 405 -171 447 -115 C476 -77 489 -34 492 30 L356 30 Z M198 340 L343 340 L343 483 L198 483 L198 340 Z " />
<glyph glyph-name="Agrave" unicode="&#xc0;" horiz-adv-x="657" d="M404 668 L254 668 L0 0 L150 0 L204 149 L452 149 L505 0 L658 0 L404 668 Z M416 256 L239 256 L282 376 C310 456 317 479 329 521 C340 476 348 447 373 376 L416 256 Z M174 844 L313 723 L411 723 L327 844 L174 844 Z " />
<glyph glyph-name="Aacute" unicode="&#xc1;" horiz-adv-x="657" d="M404 668 L254 668 L0 0 L150 0 L204 149 L452 149 L505 0 L658 0 L404 668 Z M416 256 L239 256 L282 376 C310 456 317 479 329 521 C340 476 348 447 373 376 L416 256 Z M484 844 L331 844 L247 723 L345 723 L484 844 Z " />
<glyph glyph-name="Acircumflex" unicode="&#xc2;" horiz-adv-x="657" d="M404 668 L254 668 L0 0 L150 0 L204 149 L452 149 L505 0 L658 0 L404 668 Z M416 256 L239 256 L282 376 C310 456 317 479 329 521 C340 476 348 447 373 376 L416 256 Z M500 725 L391 850 L266 850 L158 725 L271 725 L327 790 L381 725 L500 725 Z " />
<glyph glyph-name="Atilde" unicode="&#xc3;" horiz-adv-x="657" d="M404 668 L254 668 L0 0 L150 0 L204 149 L452 149 L505 0 L658 0 L404 668 Z M416 256 L239 256 L282 376 C310 456 317 479 329 521 C340 476 348 447 373 376 L416 256 Z M443 849 C432 821 421 812 399 812 C384 812 368 816 338 828 C303 842 290 845 271 845 C243 845 220 832 196 803 C177 781 170 764 164 727 L229 727 C234 752 248 766 268 766 C277 766 305 758 331 748 C374 731 376 730 397 730 C456 730 493 769 507 849 L443 849 Z " />
<glyph glyph-name="Adieresis" unicode="&#xc4;" horiz-adv-x="657" d="M404 668 L254 668 L0 0 L150 0 L204 149 L452 149 L505 0 L658 0 L404 668 Z M416 256 L239 256 L282 376 C310 456 317 479 329 521 C340 476 348 447 373 376 L416 256 Z M497 842 L368 842 L368 735 L497 735 L497 842 Z M290 842 L161 842 L161 735 L290 735 L290 842 Z " />
<glyph glyph-name="Aring" unicode="&#xc5;" horiz-adv-x="657" d="M404 668 L254 668 L0 0 L150 0 L204 149 L452 149 L505 0 L658 0 L404 668 Z M416 256 L239 256 L282 376 C310 456 317 479 329 521 C340 476 348 447 373 376 L416 256 Z M331 923 C269 923 218 873 218 813 C218 751 268 701 329 701 C390 701 439 751 439 812 C439 873 390 923 331 923 L331 923 Z M330 865 C358 865 381 841 381 812 C381 783 358 759 329 759 C300 759 276 783 276 812 C276 841 300 865 330 865 L330 865 Z " />
<glyph glyph-name="AE" unicode="&#xc6;" horiz-adv-x="923" d="M876 667 L308 667 L-12 0 L145 0 L212 145 L424 145 L424 0 L884 0 L884 123 L562 123 L562 286 L856 286 L856 401 L562 401 L562 544 L876 544 L876 667 Z M424 252 L258 252 L392 549 L424 549 L424 252 Z " />
<glyph glyph-name="Ccedilla" unicode="&#xc7;" horiz-adv-x="682" d="M510 257 C504 205 479 153 449 130 C429 116 389 106 351 106 C295 106 253 131 220 183 C195 221 182 275 182 336 C182 474 250 561 359 561 C440 561 493 518 505 443 L651 443 C644 501 624 545 589 586 C532 652 459 683 362 683 C168 683 35 540 35 331 C35 229 67 140 128 75 C173 26 227 -1 305 -14 L261 -80 L280 -99 C295 -93 302 -91 313 -91 C340 -91 359 -105 359 -125 C359 -146 340 -161 312 -161 C289 -161 266 -156 238 -145 L220 -185 C262 -200 291 -206 325 -206 C395 -206 441 -172 441 -120 C441 -81 406 -53 360 -53 C349 -53 341 -54 323 -58 L351 -16 C520 -21 644 91 656 257 L510 257 Z " />
<glyph glyph-name="Egrave" unicode="&#xc8;" horiz-adv-x="611" d="M564 667 L64 667 L64 0 L571 0 L571 123 L209 123 L209 286 L535 286 L535 401 L209 401 L209 544 L564 544 L564 667 Z M160 844 L299 723 L397 723 L313 844 L160 844 Z " />
<glyph glyph-name="Eacute" unicode="&#xc9;" horiz-adv-x="611" d="M564 667 L64 667 L64 0 L571 0 L571 123 L209 123 L209 286 L535 286 L535 401 L209 401 L209 544 L564 544 L564 667 Z M480 844 L327 844 L243 723 L341 723 L480 844 Z " />
<glyph glyph-name="Ecircumflex" unicode="&#xca;" horiz-adv-x="611" d="M564 667 L64 667 L64 0 L571 0 L571 123 L209 123 L209 286 L535 286 L535 401 L209 401 L209 544 L564 544 L564 667 Z M493 725 L384 850 L259 850 L151 725 L264 725 L320 790 L374 725 L493 725 Z " />
<glyph glyph-name="Edieresis" unicode="&#xcb;" horiz-adv-x="611" d="M564 667 L64 667 L64 0 L571 0 L571 123 L209 123 L209 286 L535 286 L535 401 L209 401 L209 544 L564 544 L564 667 Z M486 842 L357 842 L357 735 L486 735 L486 842 Z M279 842 L150 842 L150 735 L279 735 L279 842 Z " />
<glyph glyph-name="Igrave" unicode="&#xcc;" horiz-adv-x="275" d="M210 667 L65 667 L65 0 L210 0 L210 667 Z M-21 844 L118 723 L216 723 L132 844 L-21 844 Z " />
<glyph glyph-name="Iacute" unicode="&#xcd;" horiz-adv-x="275" d="M210 667 L65 667 L65 0 L210 0 L210 667 Z M296 844 L143 844 L59 723 L157 723 L296 844 Z " />
<glyph glyph-name="Icircumflex" unicode="&#xce;" horiz-adv-x="275" d="M210 667 L65 667 L65 0 L210 0 L210 667 Z M299 725 L201 850 L76 850 L-23 725 L90 725 L136 790 L180 725 L299 725 Z " />
<glyph glyph-name="Idieresis" unicode="&#xcf;" horiz-adv-x="275" d="M210 667 L65 667 L65 0 L210 0 L210 667 Z M277 842 L160 842 L160 735 L277 735 L277 842 Z M115 842 L-2 842 L-2 735 L115 735 L115 842 Z " />
<glyph glyph-name="Eth" unicode="&#xd0;" horiz-adv-x="693" d="M64 667 L64 394 L4 394 L4 301 L64 301 L64 0 L336 0 C444 0 507 21 562 77 C625 139 657 228 657 342 C657 446 621 536 557 595 C502 645 433 667 333 667 L64 667 Z M209 544 L316 544 C443 544 510 472 510 336 C510 265 493 209 459 171 C429 136 392 123 321 123 L209 123 L209 301 L356 301 L356 394 L209 394 L209 544 Z " />
<glyph glyph-name="Ntilde" unicode="&#xd1;" horiz-adv-x="693" d="M628 667 L488 667 L488 389 C488 349 491 247 494 198 C479 231 450 281 407 352 L213 667 L65 667 L65 0 L205 0 L205 284 C205 353 203 426 199 471 C219 429 219 428 283 322 L482 0 L628 0 L628 667 Z M464 849 C453 821 442 812 420 812 C405 812 389 816 359 828 C324 842 311 845 292 845 C264 845 241 832 217 803 C199 781 191 764 185 727 L250 727 C256 752 270 766 289 766 C298 766 326 758 352 748 C395 731 397 730 418 730 C478 730 514 769 528 849 L464 849 Z " />
<glyph glyph-name="Ograve" unicode="&#xd2;" horiz-adv-x="727" d="M369 683 C166 683 35 545 35 333 C35 124 167 -16 365 -16 C560 -16 692 125 692 333 C692 539 559 683 369 683 L369 683 Z M367 562 C474 562 545 472 545 336 C545 194 475 105 366 105 C252 105 182 193 182 334 C182 475 253 562 367 562 L367 562 Z M205 844 L344 723 L442 723 L358 844 L205 844 Z " />
<glyph glyph-name="Oacute" unicode="&#xd3;" horiz-adv-x="727" d="M369 683 C166 683 35 545 35 333 C35 124 167 -16 365 -16 C560 -16 692 125 692 333 C692 539 559 683 369 683 L369 683 Z M367 562 C474 562 545 472 545 336 C545 194 475 105 366 105 C252 105 182 193 182 334 C182 475 253 562 367 562 L367 562 Z M529 844 L376 844 L291 723 L389 723 L529 844 Z " />
<glyph glyph-name="Ocircumflex" unicode="&#xd4;" horiz-adv-x="727" d="M369 683 C166 683 35 545 35 333 C35 124 167 -16 365 -16 C560 -16 692 125 692 333 C692 539 559 683 369 683 L369 683 Z M367 562 C474 562 545 472 545 336 C545 194 475 105 366 105 C252 105 182 193 182 334 C182 475 253 562 367 562 L367 562 Z M534 725 L426 850 L301 850 L192 725 L306 725 L361 790 L416 725 L534 725 Z " />
<glyph glyph-name="Otilde" unicode="&#xd5;" horiz-adv-x="727" d="M369 683 C166 683 35 545 35 333 C35 124 167 -16 365 -16 C560 -16 692 125 692 333 C692 539 559 683 369 683 L369 683 Z M367 562 C474 562 545 472 545 336 C545 194 475 105 366 105 C252 105 182 193 182 334 C182 475 253 562 367 562 L367 562 Z M480 849 C469 821 459 812 437 812 C422 812 406 816 376 828 C341 842 327 845 309 845 C280 845 258 832 234 803 C215 781 208 764 202 727 L267 727 C272 752 286 766 306 766 C315 766 343 758 369 748 C412 731 414 730 435 730 C494 730 531 769 545 849 L480 849 Z " />
<glyph glyph-name="Odieresis" unicode="&#xd6;" horiz-adv-x="727" d="M369 683 C166 683 35 545 35 333 C35 124 167 -16 365 -16 C560 -16 692 125 692 333 C692 539 559 683 369 683 L369 683 Z M367 562 C474 562 545 472 545 336 C545 194 475 105 366 105 C252 105 182 193 182 334 C182 475 253 562 367 562 L367 562 Z M531 842 L402 842 L402 735 L531 735 L531 842 Z M324 842 L195 842 L195 735 L324 735 L324 842 Z " />
<glyph glyph-name="multiply" unicode="&#xd7;" horiz-adv-x="560" d="M135 118 L280 263 L426 118 L489 181 L344 327 L489 472 L426 535 L280 390 L135 535 L72 472 L217 327 L72 181 L135 118 Z " />
<glyph glyph-name="Oslash" unicode="&#xd8;" horiz-adv-x="727" d="M689 634 L621 690 L560 621 L550 626 C462 675 437 683 367 683 C160 683 30 548 30 333 C30 237 47 182 98 108 L31 30 L97 -30 L162 45 C206 7 283 -16 369 -16 C460 -16 546 21 599 84 C660 156 686 231 686 340 C686 428 666 495 621 558 L689 634 Z M197 215 C181 266 177 290 177 332 C177 474 247 562 361 562 C395 562 426 552 469 528 L197 215 Z M519 453 C537 398 541 378 541 331 C541 264 529 222 500 179 C466 130 419 105 362 105 C318 105 285 117 254 144 L519 453 Z " />
<glyph glyph-name="Ugrave" unicode="&#xd9;" horiz-adv-x="680" d="M624 667 L479 667 L479 265 C479 150 441 105 343 105 C286 105 243 123 221 156 C205 181 199 209 199 265 L199 667 L54 667 L54 275 C54 182 65 134 94 88 C141 17 219 -16 340 -16 C450 -16 521 11 569 69 C610 119 624 171 624 273 L624 667 Z M181 844 L321 723 L418 723 L334 844 L181 844 Z " />
<glyph glyph-name="Uacute" unicode="&#xda;" horiz-adv-x="680" d="M624 667 L479 667 L479 265 C479 150 441 105 343 105 C286 105 243 123 221 156 C205 181 199 209 199 265 L199 667 L54 667 L54 275 C54 182 65 134 94 88 C141 17 219 -16 340 -16 C450 -16 521 11 569 69 C610 119 624 171 624 273 L624 667 Z M498 844 L345 844 L261 723 L359 723 L498 844 Z " />
<glyph glyph-name="Ucircumflex" unicode="&#xdb;" horiz-adv-x="680" d="M624 667 L479 667 L479 265 C479 150 441 105 343 105 C286 105 243 123 221 156 C205 181 199 209 199 265 L199 667 L54 667 L54 275 C54 182 65 134 94 88 C141 17 219 -16 340 -16 C450 -16 521 11 569 69 C610 119 624 171 624 273 L624 667 Z M511 725 L402 850 L277 850 L169 725 L282 725 L338 790 L392 725 L511 725 Z " />
<glyph glyph-name="Udieresis" unicode="&#xdc;" horiz-adv-x="680" d="M624 667 L479 667 L479 265 C479 150 441 105 343 105 C286 105 243 123 221 156 C205 181 199 209 199 265 L199 667 L54 667 L54 275 C54 182 65 134 94 88 C141 17 219 -16 340 -16 C450 -16 521 11 569 69 C610 119 624 171 624 273 L624 667 Z M508 842 L379 842 L379 735 L508 735 L508 842 Z M301 842 L172 842 L172 735 L301 735 L301 842 Z " />
<glyph glyph-name="Yacute" unicode="&#xdd;" horiz-adv-x="606" d="M623 667 L461 667 L360 496 C349 478 319 415 304 380 C295 404 269 458 251 489 L147 667 L-19 667 L230 259 L230 0 L375 0 L375 257 L623 667 Z M462 844 L309 844 L224 723 L322 723 L462 844 Z " />
<glyph glyph-name="Thorn" unicode="&#xde;" horiz-adv-x="628" d="M64 667 L64 0 L209 0 L209 147 L359 147 C435 147 484 161 525 195 C572 235 597 291 597 359 C597 436 567 496 510 535 C468 563 423 573 332 573 L209 573 L209 667 L64 667 Z M209 450 L331 450 C374 450 398 445 417 432 C440 416 454 388 454 357 C454 327 442 298 422 283 C404 268 379 262 339 262 L209 262 L209 450 Z " />
<glyph glyph-name="germandbls" unicode="&#xdf;" horiz-adv-x="555" d="M245 -4 C271 -6 285 -7 304 -7 C366 -7 408 5 445 35 C496 77 524 135 524 204 C524 293 480 354 403 372 C456 391 490 442 490 503 C490 607 406 677 280 677 C197 677 128 646 91 591 C66 553 58 513 58 425 L58 0 L190 0 L190 450 C190 501 193 522 204 542 C216 565 243 579 276 579 C327 579 363 543 363 492 C363 437 327 407 262 407 L245 407 L245 323 C252 324 258 324 260 324 C347 324 391 286 391 212 C391 141 347 96 279 96 C270 96 263 97 245 99 L245 -4 Z " />
<glyph glyph-name="agrave" unicode="&#xe0;" horiz-adv-x="521" d="M497 0 C484 32 480 60 480 130 L481 231 C483 373 483 383 472 408 C449 465 377 496 270 496 C130 496 54 442 46 335 L171 335 C180 388 204 407 266 407 C326 407 353 387 353 344 C353 306 340 299 236 286 C166 277 139 271 113 261 C56 239 25 193 25 133 C25 41 88 -13 194 -13 C261 -13 312 6 354 47 C354 30 355 22 362 0 L497 0 Z M352 181 C352 148 347 131 330 113 C306 86 275 73 235 73 C189 73 161 97 161 138 C161 181 185 199 259 210 C314 218 331 223 352 236 L352 181 Z M115 691 L250 557 L339 557 L255 691 L115 691 Z " />
<glyph glyph-name="aacute" unicode="&#xe1;" horiz-adv-x="521" d="M497 0 C484 32 480 60 480 130 L481 231 C483 373 483 383 472 408 C449 465 377 496 270 496 C130 496 54 442 46 335 L171 335 C180 388 204 407 266 407 C326 407 353 387 353 344 C353 306 340 299 236 286 C166 277 139 271 113 261 C56 239 25 193 25 133 C25 41 88 -13 194 -13 C261 -13 312 6 354 47 C354 30 355 22 362 0 L497 0 Z M352 181 C352 148 347 131 330 113 C306 86 275 73 235 73 C189 73 161 97 161 138 C161 181 185 199 259 210 C314 218 331 223 352 236 L352 181 Z M419 691 L279 691 L195 557 L284 557 L419 691 Z " />
<glyph glyph-name="acircumflex" unicode="&#xe2;" horiz-adv-x="521" d="M497 0 C484 32 480 60 480 130 L481 231 C483 373 483 383 472 408 C449 465 377 496 270 496 C130 496 54 442 46 335 L171 335 C180 388 204 407 266 407 C326 407 353 387 353 344 C353 306 340 299 236 286 C166 277 139 271 113 261 C56 239 25 193 25 133 C25 41 88 -13 194 -13 C261 -13 312 6 354 47 C354 30 355 22 362 0 L497 0 Z M352 181 C352 148 347 131 330 113 C306 86 275 73 235 73 C189 73 161 97 161 138 C161 181 185 199 259 210 C314 218 331 223 352 236 L352 181 Z M435 557 L331 691 L210 691 L106 557 L208 557 L268 637 L327 557 L435 557 Z " />
<glyph glyph-name="atilde" unicode="&#xe3;" horiz-adv-x="521" d="M497 0 C484 32 480 60 480 130 L481 231 C483 373 483 383 472 408 C449 465 377 496 270 496 C130 496 54 442 46 335 L171 335 C180 388 204 407 266 407 C326 407 353 387 353 344 C353 306 340 299 236 286 C166 277 139 271 113 261 C56 239 25 193 25 133 C25 41 88 -13 194 -13 C261 -13 312 6 354 47 C354 30 355 22 362 0 L497 0 Z M352 181 C352 148 347 131 330 113 C306 86 275 73 235 73 C189 73 161 97 161 138 C161 181 185 199 259 210 C314 218 331 223 352 236 L352 181 Z M371 685 C361 658 351 649 333 649 C320 649 304 654 275 666 C242 680 231 683 212 683 C161 683 122 639 111 567 L171 567 C175 591 189 606 209 606 C217 606 226 604 235 600 C294 573 303 570 330 570 C385 570 418 607 431 685 L371 685 Z " />
<glyph glyph-name="adieresis" unicode="&#xe4;" horiz-adv-x="521" d="M497 0 C484 32 480 60 480 130 L481 231 C483 373 483 383 472 408 C449 465 377 496 270 496 C130 496 54 442 46 335 L171 335 C180 388 204 407 266 407 C326 407 353 387 353 344 C353 306 340 299 236 286 C166 277 139 271 113 261 C56 239 25 193 25 133 C25 41 88 -13 194 -13 C261 -13 312 6 354 47 C354 30 355 22 362 0 L497 0 Z M352 181 C352 148 347 131 330 113 C306 86 275 73 235 73 C189 73 161 97 161 138 C161 181 185 199 259 210 C314 218 331 223 352 236 L352 181 Z M430 679 L305 679 L305 570 L430 570 L430 679 Z M233 679 L109 679 L109 570 L233 570 L233 679 Z " />
<glyph glyph-name="aring" unicode="&#xe5;" horiz-adv-x="521" d="M497 0 C484 32 480 60 480 130 L481 231 C483 373 483 383 472 408 C449 465 377 496 270 496 C130 496 54 442 46 335 L171 335 C180 388 204 407 266 407 C326 407 353 387 353 344 C353 306 340 299 236 286 C166 277 139 271 113 261 C56 239 25 193 25 133 C25 41 88 -13 194 -13 C261 -13 312 6 354 47 C354 30 355 22 362 0 L497 0 Z M352 181 C352 148 347 131 330 113 C306 86 275 73 235 73 C189 73 161 97 161 138 C161 181 185 199 259 210 C314 218 331 223 352 236 L352 181 Z M269 738 C210 738 164 693 164 635 C164 577 210 530 268 530 C324 530 372 578 372 634 C372 691 325 738 269 738 L269 738 Z M268 681 C295 681 315 661 315 634 C315 608 294 587 268 587 C241 587 221 607 221 635 C221 662 240 681 268 681 L268 681 Z " />
<glyph glyph-name="ae" unicode="&#xe6;" horiz-adv-x="843" d="M682 151 C661 104 628 82 579 82 C511 82 471 130 470 211 L814 211 C815 220 815 229 815 232 C815 391 721 496 580 496 C519 496 466 474 430 432 C401 474 345 496 268 496 C200 496 139 479 99 447 C66 421 50 386 46 332 L173 332 C179 385 206 407 267 407 C324 407 353 386 353 343 C353 309 335 299 251 287 C138 271 124 267 89 248 C48 226 25 184 25 132 C25 39 90 -13 204 -13 C297 -13 359 12 407 68 C440 17 505 -13 582 -13 C696 -13 782 50 808 151 L682 151 Z M469 289 C473 322 478 339 489 355 C508 384 541 401 577 401 C639 401 679 360 684 289 L469 289 Z M353 179 C353 113 310 71 240 71 C191 71 162 96 162 139 C162 181 184 197 258 208 C320 217 332 220 353 236 L353 179 Z " />
<glyph glyph-name="ccedilla" unicode="&#xe7;" horiz-adv-x="531" d="M380 185 C370 120 336 87 279 87 C206 87 164 143 164 241 C164 339 206 396 279 396 C334 396 364 370 375 313 L507 313 C491 429 409 496 281 496 C132 496 30 392 30 240 C30 148 66 73 131 27 C160 7 178 0 228 -11 L180 -82 L199 -100 C213 -95 221 -93 233 -93 C260 -93 278 -106 278 -127 C278 -148 258 -163 229 -163 C209 -163 182 -157 156 -147 L138 -186 C175 -201 210 -208 245 -208 C313 -208 359 -173 359 -120 C359 -81 326 -55 277 -55 C262 -55 257 -55 240 -59 L270 -14 C403 -14 492 60 508 185 L380 185 Z " />
<glyph glyph-name="egrave" unicode="&#xe8;" horiz-adv-x="540" d="M377 150 C356 102 327 82 278 82 C207 82 168 126 165 207 L512 207 L512 227 C512 389 417 496 273 496 C132 496 30 388 30 239 C30 87 128 -13 277 -13 C390 -13 478 50 504 150 L377 150 Z M165 292 C172 359 214 401 273 401 C332 401 369 362 377 292 L165 292 Z M125 691 L260 557 L349 557 L264 691 L125 691 Z " />
<glyph glyph-name="eacute" unicode="&#xe9;" horiz-adv-x="540" d="M377 150 C356 102 327 82 278 82 C207 82 168 126 165 207 L512 207 L512 227 C512 389 417 496 273 496 C132 496 30 388 30 239 C30 87 128 -13 277 -13 C390 -13 478 50 504 150 L377 150 Z M165 292 C172 359 214 401 273 401 C332 401 369 362 377 292 L165 292 Z M422 691 L282 691 L198 557 L287 557 L422 691 Z " />
<glyph glyph-name="ecircumflex" unicode="&#xea;" horiz-adv-x="540" d="M377 150 C356 102 327 82 278 82 C207 82 168 126 165 207 L512 207 L512 227 C512 389 417 496 273 496 C132 496 30 388 30 239 C30 87 128 -13 277 -13 C390 -13 478 50 504 150 L377 150 Z M165 292 C172 359 214 401 273 401 C332 401 369 362 377 292 L165 292 Z M441 557 L337 691 L216 691 L112 557 L214 557 L275 637 L334 557 L441 557 Z " />
<glyph glyph-name="edieresis" unicode="&#xeb;" horiz-adv-x="540" d="M377 150 C356 102 327 82 278 82 C207 82 168 126 165 207 L512 207 L512 227 C512 389 417 496 273 496 C132 496 30 388 30 239 C30 87 128 -13 277 -13 C390 -13 478 50 504 150 L377 150 Z M165 292 C172 359 214 401 273 401 C332 401 369 362 377 292 L165 292 Z M436 679 L311 679 L311 570 L436 570 L436 679 Z M240 679 L116 679 L116 570 L240 570 L240 679 Z " />
<glyph glyph-name="igrave" unicode="&#xec;" horiz-adv-x="249" d="M190 483 L58 483 L58 0 L190 0 L190 483 Z M-21 691 L114 557 L196 557 L112 691 L-21 691 Z " />
<glyph glyph-name="iacute" unicode="&#xed;" horiz-adv-x="249" d="M190 483 L58 483 L58 0 L190 0 L190 483 Z M270 691 L137 691 L53 557 L135 557 L270 691 Z " />
<glyph glyph-name="icircumflex" unicode="&#xee;" horiz-adv-x="249" d="M190 483 L58 483 L58 0 L190 0 L190 483 Z M272 557 L185 691 L64 691 L-23 557 L72 557 L123 637 L172 557 L272 557 Z " />
<glyph glyph-name="idieresis" unicode="&#xef;" horiz-adv-x="249" d="M190 483 L58 483 L58 0 L190 0 L190 483 Z M258 679 L144 679 L144 570 L258 570 L258 679 Z M104 679 L-10 679 L-10 570 L104 570 L104 679 Z " />
<glyph glyph-name="eth" unicode="&#xf0;" horiz-adv-x="560" d="M178 590 L202 524 L278 556 L310 493 C283 496 275 497 262 497 C129 497 30 388 30 241 C30 88 131 -14 281 -14 C429 -14 530 90 530 242 C530 319 513 366 449 469 L371 594 L441 623 L410 685 L331 654 L303 703 L227 670 L251 620 L178 590 Z M281 399 C352 399 397 338 397 242 C397 144 353 84 281 84 C208 84 163 144 163 241 C163 339 208 399 281 399 L281 399 Z " />
<glyph glyph-name="ntilde" unicode="&#xf1;" horiz-adv-x="565" d="M184 483 L58 483 L58 0 L190 0 L190 250 C190 292 194 315 203 335 C219 368 254 388 295 388 C331 388 360 372 370 346 C376 330 378 312 378 277 L378 0 L510 0 L510 304 C510 367 503 399 484 430 C458 472 408 496 345 496 C274 496 227 472 184 416 L184 483 Z M388 685 C378 658 368 649 350 649 C336 649 320 654 291 666 C258 680 248 683 228 683 C177 683 138 639 127 567 L187 567 C191 591 206 606 226 606 C233 606 242 604 251 600 C311 573 319 570 346 570 C402 570 434 607 448 685 L388 685 Z " />
<glyph glyph-name="ograve" unicode="&#xf2;" horiz-adv-x="560" d="M285 496 C130 496 30 396 30 241 C30 88 130 -13 281 -13 C432 -13 530 88 530 242 C530 394 432 496 285 496 L285 496 Z M281 398 C353 398 397 339 397 242 C397 143 354 85 281 85 C207 85 163 143 163 241 C163 340 207 398 281 398 L281 398 Z M128 691 L263 557 L352 557 L268 691 L128 691 Z " />
<glyph glyph-name="oacute" unicode="&#xf3;" horiz-adv-x="560" d="M285 496 C130 496 30 396 30 241 C30 88 130 -13 281 -13 C432 -13 530 88 530 242 C530 394 432 496 285 496 L285 496 Z M281 398 C353 398 397 339 397 242 C397 143 354 85 281 85 C207 85 163 143 163 241 C163 340 207 398 281 398 L281 398 Z M432 691 L292 691 L208 557 L297 557 L432 691 Z " />
<glyph glyph-name="ocircumflex" unicode="&#xf4;" horiz-adv-x="560" d="M285 496 C130 496 30 396 30 241 C30 88 130 -13 281 -13 C432 -13 530 88 530 242 C530 394 432 496 285 496 L285 496 Z M281 398 C353 398 397 339 397 242 C397 143 354 85 281 85 C207 85 163 143 163 241 C163 340 207 398 281 398 L281 398 Z M444 557 L341 691 L220 691 L116 557 L218 557 L278 637 L337 557 L444 557 Z " />
<glyph glyph-name="otilde" unicode="&#xf5;" horiz-adv-x="560" d="M285 496 C130 496 30 396 30 241 C30 88 130 -13 281 -13 C432 -13 530 88 530 242 C530 394 432 496 285 496 L285 496 Z M281 398 C353 398 397 339 397 242 C397 143 354 85 281 85 C207 85 163 143 163 241 C163 340 207 398 281 398 L281 398 Z M384 685 C374 658 364 649 346 649 C332 649 316 654 287 666 C254 680 244 683 224 683 C173 683 134 639 123 567 L183 567 C187 591 202 606 222 606 C229 606 238 604 247 600 C307 573 315 570 342 570 C398 570 430 607 444 685 L384 685 Z " />
<glyph glyph-name="odieresis" unicode="&#xf6;" horiz-adv-x="560" d="M285 496 C130 496 30 396 30 241 C30 88 130 -13 281 -13 C432 -13 530 88 530 242 C530 394 432 496 285 496 L285 496 Z M281 398 C353 398 397 339 397 242 C397 143 354 85 281 85 C207 85 163 143 163 241 C163 340 207 398 281 398 L281 398 Z M440 679 L315 679 L315 570 L440 570 L440 679 Z M243 679 L119 679 L119 570 L243 570 L243 679 Z " />
<glyph glyph-name="divide" unicode="&#xf7;" horiz-adv-x="560" d="M281 564 C243 564 213 535 213 497 C213 459 243 429 280 429 C316 429 348 461 348 497 C348 533 317 564 281 564 L281 564 Z M281 224 C243 224 213 195 213 157 C213 119 243 89 280 89 C316 89 348 121 348 157 C348 193 317 224 281 224 L281 224 Z M50 282 L510 282 L510 371 L50 371 L50 282 Z " />
<glyph glyph-name="oslash" unicode="&#xf8;" horiz-adv-x="560" d="M527 466 L478 512 L426 456 C392 481 334 496 273 496 C134 496 30 388 30 243 C30 202 38 160 52 128 C58 115 61 110 83 73 L31 15 L80 -33 L136 26 C180 -2 223 -13 285 -13 C434 -13 530 91 530 252 C530 318 513 368 477 409 L527 466 Z M172 168 C161 204 160 210 160 253 C160 281 171 325 184 346 C204 379 238 398 277 398 C303 398 327 390 346 376 L172 168 Z M385 316 C397 281 399 270 399 240 C399 141 355 85 278 85 C250 85 240 88 213 107 L385 316 Z " />
<glyph glyph-name="ugrave" unicode="&#xf9;" horiz-adv-x="566" d="M507 483 L375 483 L375 243 C375 194 372 170 362 151 C345 114 313 95 270 95 C238 95 214 105 200 126 C189 143 186 159 186 216 L186 483 L54 483 L54 177 C54 114 63 77 84 47 C113 8 161 -13 221 -13 C291 -13 342 13 381 68 L381 0 L507 0 L507 483 Z M131 691 L266 557 L355 557 L270 691 L131 691 Z " />
<glyph glyph-name="uacute" unicode="&#xfa;" horiz-adv-x="566" d="M507 483 L375 483 L375 243 C375 194 372 170 362 151 C345 114 313 95 270 95 C238 95 214 105 200 126 C189 143 186 159 186 216 L186 483 L54 483 L54 177 C54 114 63 77 84 47 C113 8 161 -13 221 -13 C291 -13 342 13 381 68 L381 0 L507 0 L507 483 Z M435 691 L295 691 L211 557 L300 557 L435 691 Z " />
<glyph glyph-name="ucircumflex" unicode="&#xfb;" horiz-adv-x="566" d="M507 483 L375 483 L375 243 C375 194 372 170 362 151 C345 114 313 95 270 95 C238 95 214 105 200 126 C189 143 186 159 186 216 L186 483 L54 483 L54 177 C54 114 63 77 84 47 C113 8 161 -13 221 -13 C291 -13 342 13 381 68 L381 0 L507 0 L507 483 Z M447 557 L343 691 L222 691 L118 557 L220 557 L281 637 L340 557 L447 557 Z " />
<glyph glyph-name="udieresis" unicode="&#xfc;" horiz-adv-x="566" d="M507 483 L375 483 L375 243 C375 194 372 170 362 151 C345 114 313 95 270 95 C238 95 214 105 200 126 C189 143 186 159 186 216 L186 483 L54 483 L54 177 C54 114 63 77 84 47 C113 8 161 -13 221 -13 C291 -13 342 13 381 68 L381 0 L507 0 L507 483 Z M442 679 L317 679 L317 570 L442 570 L442 679 Z M246 679 L122 679 L122 570 L246 570 L246 679 Z " />
<glyph glyph-name="yacute" unicode="&#xfd;" horiz-adv-x="489" d="M493 483 L356 483 L281 252 C270 220 264 196 248 134 C234 193 228 216 218 246 L138 483 L-5 483 L167 29 C170 21 171 13 171 -1 C171 -45 150 -62 96 -62 L57 -62 L42 -62 L42 -171 L96 -172 L109 -173 C112 -173 128 -173 156 -171 C184 -170 202 -164 224 -150 C262 -126 279 -97 316 2 L493 483 Z M396 691 L256 691 L172 557 L261 557 L396 691 Z " />
<glyph glyph-name="thorn" unicode="&#xfe;" horiz-adv-x="582" d="M190 667 L58 667 L58 -171 L190 -171 L190 60 C226 10 274 -13 339 -13 C467 -13 549 86 549 239 C549 394 464 496 335 496 C270 496 224 473 190 423 L190 667 Z M302 388 C373 388 416 331 416 238 C416 145 373 90 302 90 C229 90 185 146 185 239 C185 334 228 388 302 388 L302 388 Z " />
<glyph glyph-name="ydieresis" unicode="&#xff;" horiz-adv-x="489" d="M493 483 L356 483 L281 252 C270 220 264 196 248 134 C234 193 228 216 218 246 L138 483 L-5 483 L167 29 C170 21 171 13 171 -1 C171 -45 150 -62 96 -62 L57 -62 L42 -62 L42 -171 L96 -172 L109 -173 C112 -173 128 -173 156 -171 C184 -170 202 -164 224 -150 C262 -126 279 -97 316 2 L493 483 Z M409 679 L284 679 L284 570 L409 570 L409 679 Z M212 679 L88 679 L88 570 L212 570 L212 679 Z " />
<glyph glyph-name="Amacron" unicode="&#x100;" horiz-adv-x="657" d="M404 668 L254 668 L0 0 L150 0 L204 149 L452 149 L505 0 L658 0 L404 668 Z M416 256 L239 256 L282 376 C310 456 317 479 329 521 C340 476 348 447 373 376 L416 256 Z M491 825 L166 825 L166 750 L491 750 L491 825 Z " />
<glyph glyph-name="amacron" unicode="&#x101;" horiz-adv-x="521" d="M497 0 C484 32 480 60 480 130 L481 231 C483 373 483 383 472 408 C449 465 377 496 270 496 C130 496 54 442 46 335 L171 335 C180 388 204 407 266 407 C326 407 353 387 353 344 C353 306 340 299 236 286 C166 277 139 271 113 261 C56 239 25 193 25 133 C25 41 88 -13 194 -13 C261 -13 312 6 354 47 C354 30 355 22 362 0 L497 0 Z M352 181 C352 148 347 131 330 113 C306 86 275 73 235 73 C189 73 161 97 161 138 C161 181 185 199 259 210 C314 218 331 223 352 236 L352 181 Z M420 657 L115 657 L115 587 L420 587 L420 657 Z " />
<glyph glyph-name="Abreve" unicode="&#x102;" horiz-adv-x="657" d="M404 668 L254 668 L0 0 L150 0 L204 149 L452 149 L505 0 L658 0 L404 668 Z M416 256 L239 256 L282 376 C310 456 317 479 329 521 C340 476 348 447 373 376 L416 256 Z M167 852 C171 766 228 720 329 720 C430 720 487 766 491 852 L423 852 C412 814 381 796 328 796 C276 796 246 814 235 852 L167 852 Z " />
<glyph glyph-name="abreve" unicode="&#x103;" horiz-adv-x="521" d="M497 0 C484 32 480 60 480 130 L481 231 C483 373 483 383 472 408 C449 465 377 496 270 496 C130 496 54 442 46 335 L171 335 C180 388 204 407 266 407 C326 407 353 387 353 344 C353 306 340 299 236 286 C166 277 139 271 113 261 C56 239 25 193 25 133 C25 41 88 -13 194 -13 C261 -13 312 6 354 47 C354 30 355 22 362 0 L497 0 Z M352 181 C352 148 347 131 330 113 C306 86 275 73 235 73 C189 73 161 97 161 138 C161 181 185 199 259 210 C314 218 331 223 352 236 L352 181 Z M123 690 C126 604 178 558 270 558 C362 558 414 604 418 690 L353 690 C343 650 316 631 270 631 C224 631 197 650 187 690 L123 690 Z " />
<glyph glyph-name="Aogonek" unicode="&#x104;" horiz-adv-x="657" d="M405 668 L254 668 L0 0 L150 0 L204 149 L452 149 L505 0 L590 0 C543 -36 524 -63 524 -99 C524 -151 570 -186 638 -186 C657 -186 671 -184 698 -176 L698 -121 C681 -125 673 -126 664 -126 C627 -126 604 -109 604 -80 C604 -51 618 -30 658 0 L405 668 Z M416 256 L239 256 L282 376 C310 456 318 479 329 521 C340 476 349 447 374 376 L416 256 Z " />
<glyph glyph-name="aogonek" unicode="&#x105;" horiz-adv-x="521" d="M171 335 C180 388 204 407 266 407 C326 407 353 387 353 344 C353 306 340 299 236 286 C166 277 139 271 113 261 C56 239 25 193 25 133 C25 41 88 -13 194 -13 C261 -13 312 6 354 47 C354 30 355 21 362 0 L429 0 C383 -35 363 -64 363 -99 C363 -150 410 -186 477 -186 C496 -186 511 -184 537 -176 L537 -121 C520 -125 512 -126 503 -126 C467 -126 442 -108 442 -80 C442 -54 459 -29 497 0 C482 37 480 54 480 166 C480 177 480 199 481 231 C482 323 482 323 482 328 C482 398 473 423 440 451 C403 481 347 496 270 496 C130 496 54 442 46 335 L171 335 Z M352 181 C352 148 347 131 330 113 C306 86 275 73 235 73 C189 73 161 97 161 138 C161 181 185 199 259 210 C314 218 331 223 352 236 L352 181 Z " />
<glyph glyph-name="Cacute" unicode="&#x106;" horiz-adv-x="682" d="M510 257 C498 158 445 105 358 105 C250 105 182 193 182 333 C182 474 249 561 359 561 C438 561 492 519 507 443 L651 443 C640 582 518 683 362 683 C169 683 35 540 35 334 C35 123 163 -16 356 -16 C527 -16 643 90 656 257 L510 257 Z M526 844 L373 844 L289 723 L387 723 L526 844 Z " />
<glyph glyph-name="cacute" unicode="&#x107;" horiz-adv-x="531" d="M379 185 C369 121 334 87 276 87 C205 87 163 143 163 240 C163 339 206 396 279 396 C331 396 365 367 375 314 L505 314 C494 427 408 496 278 496 C127 496 30 394 30 237 C30 85 126 -13 276 -13 C406 -13 491 60 508 185 L379 185 Z M431 691 L291 691 L207 557 L296 557 L431 691 Z " />
<glyph glyph-name="Ccircumflex" unicode="&#x108;" horiz-adv-x="682" d="M510 257 C498 158 445 105 358 105 C250 105 182 193 182 333 C182 474 249 561 359 561 C438 561 492 519 507 443 L651 443 C640 582 518 683 362 683 C169 683 35 540 35 334 C35 123 163 -16 356 -16 C527 -16 643 90 656 257 L510 257 Z M535 725 L427 850 L302 850 L193 725 L307 725 L362 790 L417 725 L535 725 Z " />
<glyph glyph-name="Cdotaccent" unicode="&#x10a;" horiz-adv-x="682" d="M510 257 C498 158 445 105 358 105 C250 105 182 193 182 333 C182 474 249 561 359 561 C438 561 492 519 507 443 L651 443 C640 582 518 683 362 683 C169 683 35 540 35 334 C35 123 163 -16 356 -16 C527 -16 643 90 656 257 L510 257 Z M429 842 L300 842 L300 735 L429 735 L429 842 Z " />
<glyph glyph-name="cdotaccent" unicode="&#x10b;" horiz-adv-x="531" d="M379 185 C369 121 334 87 276 87 C205 87 163 143 163 240 C163 339 206 396 279 396 C331 396 365 367 375 314 L505 314 C494 427 408 496 278 496 C127 496 30 394 30 237 C30 85 126 -13 276 -13 C406 -13 491 60 508 185 L379 185 Z M341 679 L217 679 L217 570 L341 570 L341 679 Z " />
<glyph glyph-name="Ccaron" unicode="&#x10c;" horiz-adv-x="682" d="M510 257 C498 158 445 105 358 105 C250 105 182 193 182 333 C182 474 249 561 359 561 C438 561 492 519 507 443 L651 443 C640 582 518 683 362 683 C169 683 35 540 35 334 C35 123 163 -16 356 -16 C527 -16 643 90 656 257 L510 257 Z M535 850 L417 850 L362 785 L307 850 L193 850 L302 725 L427 725 L535 850 Z " />
<glyph glyph-name="ccaron" unicode="&#x10d;" horiz-adv-x="531" d="M379 185 C369 121 334 87 276 87 C205 87 163 143 163 240 C163 339 206 396 279 396 C331 396 365 367 375 314 L505 314 C494 427 408 496 278 496 C127 496 30 394 30 237 C30 85 126 -13 276 -13 C406 -13 491 60 508 185 L379 185 Z M444 691 L341 691 L280 609 L220 691 L114 691 L219 557 L341 557 L444 691 Z " />
<glyph glyph-name="Dcaron" unicode="&#x10e;" horiz-adv-x="693" d="M64 667 L64 0 L336 0 C444 0 506 21 562 77 C625 139 656 226 656 342 C656 448 622 535 556 595 C502 645 433 667 333 667 L64 667 Z M209 544 L316 544 C444 544 509 474 509 337 C509 262 493 210 459 171 C428 136 391 123 321 123 L209 123 L209 544 Z M484 850 L365 850 L311 785 L255 850 L142 850 L250 725 L375 725 L484 850 Z " />
<glyph glyph-name="dcaron" unicode="&#x10f;" horiz-adv-x="708" d="M523 667 L391 667 L391 424 C360 471 307 497 244 497 C180 497 122 469 83 419 C49 374 32 317 32 244 C32 86 117 -13 251 -13 C318 -13 365 11 397 62 L397 0 L523 0 L523 667 Z M281 394 C351 394 396 335 396 244 C396 150 353 95 280 95 C208 95 165 150 165 244 C165 338 208 394 281 394 L281 394 Z M702 667 L583 667 L583 574 L651 574 C647 541 630 528 583 525 L583 482 C617 483 639 488 659 499 C692 517 702 539 702 595 L702 667 Z " />
<glyph glyph-name="Dcroat" unicode="&#x110;" horiz-adv-x="693" d="M64 667 L64 394 L4 394 L4 301 L64 301 L64 0 L336 0 C444 0 507 21 562 77 C625 139 657 228 657 342 C657 446 621 536 557 595 C502 645 433 667 333 667 L64 667 Z M209 544 L316 544 C443 544 510 472 510 336 C510 265 493 209 459 171 C429 136 392 123 321 123 L209 123 L209 301 L356 301 L356 394 L209 394 L209 544 Z " />
<glyph glyph-name="dcroat" unicode="&#x111;" horiz-adv-x="582" d="M523 532 L580 532 L580 609 L523 609 L523 667 L391 667 L391 609 L253 609 L253 532 L391 532 L391 424 C359 467 308 490 244 490 C115 490 32 393 32 243 C32 86 117 -13 251 -13 C318 -13 365 11 397 62 L397 0 L523 0 L523 532 Z M281 387 C352 387 396 331 396 242 C396 150 353 95 280 95 C208 95 165 150 165 244 C165 334 208 387 281 387 L281 387 Z " />
<glyph glyph-name="Emacron" unicode="&#x112;" horiz-adv-x="611" d="M564 667 L64 667 L64 0 L571 0 L571 123 L209 123 L209 286 L535 286 L535 401 L209 401 L209 544 L564 544 L564 667 Z M480 825 L155 825 L155 750 L480 750 L480 825 Z " />
<glyph glyph-name="emacron" unicode="&#x113;" horiz-adv-x="540" d="M377 150 C356 102 327 82 278 82 C207 82 168 126 165 207 L512 207 L512 227 C512 389 417 496 273 496 C132 496 30 388 30 239 C30 87 128 -13 277 -13 C390 -13 478 50 504 150 L377 150 Z M165 292 C172 359 214 401 273 401 C332 401 369 362 377 292 L165 292 Z M430 657 L125 657 L125 587 L430 587 L430 657 Z " />
<glyph glyph-name="Ebreve" unicode="&#x114;" horiz-adv-x="611" d="M564 667 L64 667 L64 0 L571 0 L571 123 L209 123 L209 286 L535 286 L535 401 L209 401 L209 544 L564 544 L564 667 Z M156 852 C160 766 217 720 318 720 C419 720 476 766 480 852 L412 852 C401 814 371 796 317 796 C266 796 236 814 224 852 L156 852 Z " />
<glyph glyph-name="ebreve" unicode="&#x115;" horiz-adv-x="540" d="M377 150 C356 102 327 82 278 82 C207 82 168 126 165 207 L512 207 L512 227 C512 389 417 496 273 496 C132 496 30 388 30 239 C30 87 128 -13 277 -13 C390 -13 478 50 504 150 L377 150 Z M165 292 C172 359 214 401 273 401 C332 401 369 362 377 292 L165 292 Z M122 690 C126 604 178 558 270 558 C362 558 414 604 418 690 L353 690 C343 650 316 631 270 631 C224 631 197 650 187 690 L122 690 Z " />
<glyph glyph-name="Edotaccent" unicode="&#x116;" horiz-adv-x="611" d="M564 667 L64 667 L64 0 L571 0 L571 123 L209 123 L209 286 L535 286 L535 401 L209 401 L209 544 L564 544 L564 667 Z M386 842 L257 842 L257 735 L386 735 L386 842 Z " />
<glyph glyph-name="edotaccent" unicode="&#x117;" horiz-adv-x="540" d="M377 150 C356 102 327 82 278 82 C207 82 168 126 165 207 L512 207 L512 227 C512 389 417 496 273 496 C132 496 30 388 30 239 C30 87 128 -13 277 -13 C390 -13 478 50 504 150 L377 150 Z M165 292 C172 359 214 401 273 401 C332 401 369 362 377 292 L165 292 Z M339 679 L215 679 L215 570 L339 570 L339 679 Z " />
<glyph glyph-name="Eogonek" unicode="&#x118;" horiz-adv-x="611" d="M564 667 L64 667 L64 0 L503 0 C456 -36 437 -63 437 -99 C437 -151 483 -186 551 -186 C570 -186 585 -184 611 -176 L611 -121 C594 -125 586 -126 577 -126 C540 -126 517 -108 517 -80 C517 -51 532 -29 571 0 L571 123 L209 123 L209 286 L535 286 L535 401 L209 401 L209 544 L564 544 L564 667 Z " />
<glyph glyph-name="eogonek" unicode="&#x119;" horiz-adv-x="540" d="M377 150 C356 102 327 82 278 82 C207 82 168 126 165 207 L512 207 L512 227 C512 389 417 496 273 496 C132 496 30 388 30 239 C30 92 129 -13 267 -13 C280 -13 296 -12 315 -11 C272 -41 256 -65 256 -98 C256 -151 302 -186 370 -186 C389 -186 403 -184 430 -176 L430 -121 C413 -125 405 -126 396 -126 C358 -126 335 -108 335 -77 C335 -51 346 -31 374 -4 C453 47 486 86 504 150 L377 150 Z M165 292 C172 359 214 401 273 401 C332 401 369 362 377 292 L165 292 Z " />
<glyph glyph-name="Ecaron" unicode="&#x11a;" horiz-adv-x="611" d="M564 667 L64 667 L64 0 L571 0 L571 123 L209 123 L209 286 L535 286 L535 401 L209 401 L209 544 L564 544 L564 667 Z M493 850 L374 850 L320 785 L264 850 L151 850 L259 725 L384 725 L493 850 Z " />
<glyph glyph-name="ecaron" unicode="&#x11b;" horiz-adv-x="540" d="M377 150 C356 102 327 82 278 82 C207 82 168 126 165 207 L512 207 L512 227 C512 389 417 496 273 496 C132 496 30 388 30 239 C30 87 128 -13 277 -13 C390 -13 478 50 504 150 L377 150 Z M165 292 C172 359 214 401 273 401 C332 401 369 362 377 292 L165 292 Z M442 691 L339 691 L278 609 L218 691 L112 691 L217 557 L339 557 L442 691 Z " />
<glyph glyph-name="Gcircumflex" unicode="&#x11c;" horiz-adv-x="712" d="M656 359 L376 359 L376 252 L524 252 C521 162 457 102 365 102 C247 102 182 184 182 331 C182 477 247 561 361 561 C439 561 492 519 506 447 L647 447 C632 586 515 683 362 683 C169 683 35 538 35 330 C35 124 163 -16 349 -16 C435 -16 497 13 548 76 L563 0 L656 0 L656 359 Z M537 725 L428 850 L303 850 L195 725 L308 725 L364 790 L418 725 L537 725 Z " />
<glyph glyph-name="gcircumflex" unicode="&#x11d;" horiz-adv-x="572" d="M512 483 L386 483 L386 419 C348 475 309 496 242 496 C114 496 31 400 31 252 C31 106 110 15 237 15 C303 15 350 39 384 89 L384 34 C384 -55 353 -91 276 -91 C220 -91 189 -72 180 -29 L47 -29 C60 -130 135 -180 273 -180 C372 -180 441 -150 480 -92 C504 -55 512 -16 512 60 L512 483 Z M276 393 C343 393 385 340 385 255 C385 167 343 113 274 113 C205 113 164 166 164 255 C164 342 205 393 276 393 L276 393 Z M450 557 L346 691 L225 691 L121 557 L223 557 L284 637 L343 557 L450 557 Z " />
<glyph glyph-name="Gbreve" unicode="&#x11e;" horiz-adv-x="712" d="M656 359 L376 359 L376 252 L524 252 C521 162 457 102 365 102 C247 102 182 184 182 331 C182 477 247 561 361 561 C439 561 492 519 506 447 L647 447 C632 586 515 683 362 683 C169 683 35 538 35 330 C35 124 163 -16 349 -16 C435 -16 497 13 548 76 L563 0 L656 0 L656 359 Z M203 852 C207 766 264 720 366 720 C467 720 524 766 528 852 L460 852 C448 814 418 796 365 796 C313 796 283 814 272 852 L203 852 Z " />
<glyph glyph-name="gbreve" unicode="&#x11f;" horiz-adv-x="572" d="M512 483 L386 483 L386 419 C348 475 309 496 242 496 C114 496 31 400 31 252 C31 106 110 15 237 15 C303 15 350 39 384 89 L384 34 C384 -55 353 -91 276 -91 C220 -91 189 -72 180 -29 L47 -29 C60 -130 135 -180 273 -180 C372 -180 441 -150 480 -92 C504 -55 512 -16 512 60 L512 483 Z M276 393 C343 393 385 340 385 255 C385 167 343 113 274 113 C205 113 164 166 164 255 C164 342 205 393 276 393 L276 393 Z M131 690 C135 604 187 558 279 558 C371 558 423 604 427 690 L362 690 C352 650 325 631 279 631 C233 631 206 650 196 690 L131 690 Z " />
<glyph glyph-name="Gdotaccent" unicode="&#x120;" horiz-adv-x="712" d="M656 359 L376 359 L376 252 L524 252 C521 162 457 102 365 102 C247 102 182 184 182 331 C182 477 247 561 361 561 C439 561 492 519 506 447 L647 447 C632 586 515 683 362 683 C169 683 35 538 35 330 C35 124 163 -16 349 -16 C435 -16 497 13 548 76 L563 0 L656 0 L656 359 Z M427 842 L298 842 L298 735 L427 735 L427 842 Z " />
<glyph glyph-name="gdotaccent" unicode="&#x121;" horiz-adv-x="572" d="M512 483 L386 483 L386 419 C348 475 309 496 242 496 C114 496 31 400 31 252 C31 106 110 15 237 15 C303 15 350 39 384 89 L384 34 C384 -55 353 -91 276 -91 C220 -91 189 -72 180 -29 L47 -29 C60 -130 135 -180 273 -180 C372 -180 441 -150 480 -92 C504 -55 512 -16 512 60 L512 483 Z M276 393 C343 393 385 340 385 255 C385 167 343 113 274 113 C205 113 164 166 164 255 C164 342 205 393 276 393 L276 393 Z M341 679 L217 679 L217 570 L341 570 L341 679 Z " />
<glyph glyph-name="Gcommaaccent" unicode="&#x122;" horiz-adv-x="712" d="M656 359 L376 359 L376 252 L524 252 C521 162 457 102 365 102 C247 102 182 184 182 331 C182 477 247 561 361 561 C439 561 492 519 506 447 L647 447 C632 586 515 683 362 683 C169 683 35 538 35 330 C35 124 163 -16 349 -16 C435 -16 497 13 548 76 L563 0 L656 0 L656 359 Z M415 -60 L290 -60 L290 -153 L360 -153 C356 -188 341 -198 290 -202 L290 -245 C380 -241 415 -209 415 -132 L415 -60 Z " />
<glyph glyph-name="gcommaaccent" unicode="&#x123;" horiz-adv-x="572" d="M512 483 L386 483 L386 419 C348 475 309 496 242 496 C114 496 31 400 31 252 C31 106 110 15 237 15 C303 15 350 39 384 89 L384 34 C384 -55 353 -91 276 -91 C220 -91 189 -72 180 -29 L47 -29 C60 -130 135 -180 273 -180 C372 -180 441 -150 480 -92 C504 -55 512 -16 512 60 L512 483 Z M276 393 C343 393 385 340 385 255 C385 167 343 113 274 113 C205 113 164 166 164 255 C164 342 205 393 276 393 L276 393 Z M219 566 L338 566 L338 659 L270 659 C274 692 291 705 338 708 L338 751 C304 750 282 745 262 734 C229 715 219 694 219 638 L219 566 Z " />
<glyph glyph-name="Hcircumflex" unicode="&#x124;" horiz-adv-x="693" d="M628 667 L483 667 L483 413 L210 413 L210 667 L65 667 L65 0 L210 0 L210 290 L483 290 L483 0 L628 0 L628 667 Z M518 725 L410 850 L285 850 L176 725 L289 725 L345 790 L399 725 L518 725 Z " />
<glyph glyph-name="Hbar" unicode="&#x126;" horiz-adv-x="693" d="M628 593 L628 667 L483 667 L483 593 L210 593 L210 667 L65 667 L65 593 L5 593 L5 500 L65 500 L65 0 L210 0 L210 290 L483 290 L483 0 L628 0 L628 500 L688 500 L688 593 L628 593 Z M210 500 L483 500 L483 413 L210 413 L210 500 Z " />
<glyph glyph-name="hbar" unicode="&#x127;" horiz-adv-x="565" d="M190 0 L190 236 C190 292 193 312 203 333 C220 369 252 388 293 388 C324 388 347 379 362 360 C374 344 378 326 378 284 L378 0 L510 0 L510 307 C510 366 503 399 485 428 C457 472 407 496 342 496 C275 496 231 473 189 417 C190 471 190 472 190 476 L190 532 L328 532 L328 609 L190 609 L190 667 L58 667 L58 609 L1 609 L1 532 L58 532 L58 0 L190 0 Z " />
<glyph glyph-name="Imacron" unicode="&#x12a;" horiz-adv-x="275" d="M209 667 L64 667 L64 0 L209 0 L209 667 Z M273 825 L1 825 L1 750 L273 750 L273 825 Z " />
<glyph glyph-name="imacron" unicode="&#x12b;" horiz-adv-x="249" d="M189 483 L57 483 L57 0 L189 0 L189 483 Z M250 657 L-2 657 L-2 587 L250 587 L250 657 Z " />
<glyph glyph-name="Ibreve" unicode="&#x12c;" horiz-adv-x="275" d="M210 667 L65 667 L65 0 L210 0 L210 667 Z M-11 852 C-7 766 45 720 138 720 C231 720 283 766 287 852 L219 852 C209 814 183 796 138 796 C93 796 67 814 57 852 L-11 852 Z " />
<glyph glyph-name="ibreve" unicode="&#x12d;" horiz-adv-x="249" d="M189 483 L57 483 L57 0 L189 0 L189 483 Z M-17 690 C-14 607 39 558 124 558 C209 558 261 607 265 690 L200 690 C191 653 163 631 124 631 C85 631 57 653 48 690 L-17 690 Z " />
<glyph glyph-name="Iogonek" unicode="&#x12e;" horiz-adv-x="275" d="M65 667 L65 0 L146 0 C100 -25 77 -58 77 -101 C77 -146 123 -186 176 -186 C191 -186 203 -184 231 -176 L231 -121 C218 -124 212 -125 205 -125 C177 -125 155 -106 155 -82 C155 -55 182 -15 210 0 L210 667 L65 667 Z " />
<glyph glyph-name="iogonek" unicode="&#x12f;" horiz-adv-x="249" d="M58 0 L130 0 C83 -34 63 -64 63 -99 C63 -147 108 -186 164 -186 C181 -186 194 -184 221 -176 L221 -121 C196 -126 196 -126 192 -126 C164 -126 143 -107 143 -82 C143 -55 163 -19 190 0 L190 483 L58 483 L58 0 Z M190 667 L58 667 L58 554 L190 554 L190 667 Z " />
<glyph glyph-name="Idotaccent" unicode="&#x130;" horiz-adv-x="275" d="M210 667 L65 667 L65 0 L210 0 L210 667 Z M202 842 L73 842 L73 735 L202 735 L202 842 Z " />
<glyph glyph-name="dotlessi" unicode="&#x131;" horiz-adv-x="249" d="M190 483 L58 483 L58 0 L190 0 L190 483 Z " />
<glyph glyph-name="ij" unicode="&#x133;" horiz-adv-x="499" d="M190 667 L58 667 L58 554 L190 554 L190 667 Z M190 483 L58 483 L58 0 L190 0 L190 483 Z M439 483 L307 483 L307 40 C307 -16 307 -22 304 -37 C300 -57 286 -67 260 -67 C245 -67 232 -67 225 -66 L225 -173 C254 -175 296 -176 316 -174 C396 -166 440 -118 440 -37 L439 0 L439 483 Z M439 667 L307 667 L307 554 L439 554 L439 667 Z " />
<glyph glyph-name="Kcommaaccent" unicode="&#x136;" horiz-adv-x="667" d="M655 667 L470 667 L264 449 C249 433 247 431 208 384 C209 451 209 451 209 468 L209 667 L64 667 L64 0 L209 0 L209 215 L293 299 L495 0 L679 0 L393 403 L655 667 Z M406 -60 L281 -60 L281 -153 L351 -153 C347 -188 332 -198 281 -202 L281 -245 C371 -241 406 -209 406 -132 L406 -60 Z " />
<glyph glyph-name="kcommaaccent" unicode="&#x137;" horiz-adv-x="534" d="M517 483 L360 483 L223 343 C213 333 206 324 189 302 C190 360 190 360 190 378 L190 667 L58 667 L58 0 L190 0 L190 164 L244 215 L377 0 L538 0 L335 304 L517 483 Z M348 -60 L229 -60 L229 -153 L297 -153 C293 -186 276 -199 229 -202 L229 -245 C263 -244 285 -239 305 -228 C338 -209 348 -188 348 -132 L348 -60 Z " />
<glyph glyph-name="kgreenlandic" unicode="&#x138;" horiz-adv-x="534" d="M517 483 L360 483 L223 343 C213 333 206 324 189 302 C190 360 190 360 190 378 L190 483 L58 483 L58 0 L190 0 L190 164 L244 215 L377 0 L538 0 L335 304 L517 483 Z " />
<glyph glyph-name="Lacute" unicode="&#x139;" horiz-adv-x="561" d="M536 123 L210 123 L210 667 L65 667 L65 0 L536 0 L536 123 Z M296 844 L143 844 L59 723 L157 723 L296 844 Z " />
<glyph glyph-name="lacute" unicode="&#x13a;" horiz-adv-x="249" d="M190 667 L58 667 L58 0 L190 0 L190 667 Z M289 844 L136 844 L52 723 L150 723 L289 844 Z " />
<glyph glyph-name="Lcommaaccent" unicode="&#x13b;" horiz-adv-x="561" d="M536 123 L210 123 L210 667 L65 667 L65 0 L536 0 L536 123 Z M364 -60 L239 -60 L239 -153 L309 -153 C305 -188 290 -198 239 -202 L239 -245 C329 -241 364 -209 364 -132 L364 -60 Z " />
<glyph glyph-name="lcommaaccent" unicode="&#x13c;" horiz-adv-x="249" d="M190 667 L58 667 L58 0 L190 0 L190 667 Z M184 -60 L65 -60 L65 -153 L133 -153 C129 -186 112 -199 65 -202 L65 -245 C99 -244 121 -239 141 -228 C174 -209 184 -188 184 -132 L184 -60 Z " />
<glyph glyph-name="Lcaron" unicode="&#x13d;" horiz-adv-x="561" d="M536 123 L210 123 L210 667 L65 667 L65 0 L536 0 L536 123 Z M442 667 L317 667 L317 574 L387 574 C383 539 368 529 317 525 L317 482 C407 485 442 517 442 595 L442 667 Z " />
<glyph glyph-name="lcaron" unicode="&#x13e;" horiz-adv-x="375" d="M190 667 L58 667 L58 0 L190 0 L190 667 Z M369 667 L250 667 L250 574 L318 574 C314 541 297 528 250 525 L250 482 C284 483 306 488 326 499 C359 517 369 539 369 595 L369 667 Z " />
<glyph glyph-name="Ldot" unicode="&#x13f;" horiz-adv-x="561" d="M536 123 L210 123 L210 667 L65 667 L65 0 L536 0 L536 123 Z M502 455 L335 455 L335 291 L502 291 L502 455 Z " />
<glyph glyph-name="ldot" unicode="&#x140;" horiz-adv-x="415" d="M190 667 L58 667 L58 0 L190 0 L190 667 Z M415 435 L248 435 L248 271 L415 271 L415 435 Z " />
<glyph glyph-name="Lslash" unicode="&#x141;" horiz-adv-x="561" d="M64 354 L4 309 L4 196 L64 241 L64 0 L535 0 L535 123 L209 123 L209 310 L346 405 L346 518 L209 424 L209 667 L64 667 L64 354 Z " />
<glyph glyph-name="lslash" unicode="&#x142;" horiz-adv-x="249" d="M58 361 L-2 317 L-2 224 L58 267 L58 0 L190 0 L190 331 L250 374 L250 467 L190 425 L190 667 L58 667 L58 361 Z " />
<glyph glyph-name="Nacute" unicode="&#x143;" horiz-adv-x="693" d="M628 667 L488 667 L488 389 C488 349 491 247 494 198 C479 231 450 281 407 352 L213 667 L65 667 L65 0 L205 0 L205 284 C205 353 203 426 199 471 C219 429 219 428 283 322 L482 0 L628 0 L628 667 Z M505 844 L352 844 L268 723 L366 723 L505 844 Z " />
<glyph glyph-name="nacute" unicode="&#x144;" horiz-adv-x="565" d="M184 483 L58 483 L58 0 L190 0 L190 250 C190 292 194 315 203 335 C219 368 254 388 295 388 C331 388 360 372 370 346 C376 330 378 312 378 277 L378 0 L510 0 L510 304 C510 367 503 399 484 430 C458 472 408 496 345 496 C274 496 227 472 184 416 L184 483 Z M435 691 L295 691 L211 557 L300 557 L435 691 Z " />
<glyph glyph-name="Ncommaaccent" unicode="&#x145;" horiz-adv-x="693" d="M628 667 L488 667 L488 389 C488 349 491 247 494 198 C479 231 450 281 407 352 L213 667 L65 667 L65 0 L205 0 L205 284 C205 353 203 426 199 471 C219 429 219 428 283 322 L482 0 L628 0 L628 667 Z M403 -60 L278 -60 L278 -153 L348 -153 C344 -188 329 -198 278 -202 L278 -245 C368 -241 403 -209 403 -132 L403 -60 Z " />
<glyph glyph-name="ncommaaccent" unicode="&#x146;" horiz-adv-x="565" d="M184 483 L58 483 L58 0 L190 0 L190 250 C190 292 194 315 203 335 C219 368 254 388 295 388 C331 388 360 372 370 346 C376 330 378 312 378 277 L378 0 L510 0 L510 304 C510 367 503 399 484 430 C458 472 408 496 345 496 C274 496 227 472 184 416 L184 483 Z M344 -60 L225 -60 L225 -153 L293 -153 C289 -186 272 -199 225 -202 L225 -245 C259 -244 281 -239 301 -228 C334 -209 344 -188 344 -132 L344 -60 Z " />
<glyph glyph-name="Ncaron" unicode="&#x147;" horiz-adv-x="693" d="M628 667 L488 667 L488 389 C488 349 491 247 494 198 C479 231 450 281 407 352 L213 667 L65 667 L65 0 L205 0 L205 284 C205 353 203 426 199 471 C219 429 219 428 283 322 L482 0 L628 0 L628 667 Z M518 850 L399 850 L345 785 L289 850 L176 850 L284 725 L409 725 L518 850 Z " />
<glyph glyph-name="ncaron" unicode="&#x148;" horiz-adv-x="565" d="M184 483 L58 483 L58 0 L190 0 L190 250 C190 292 194 315 203 335 C219 368 254 388 295 388 C331 388 360 372 370 346 C376 330 378 312 378 277 L378 0 L510 0 L510 304 C510 367 503 399 484 430 C458 472 408 496 345 496 C274 496 227 472 184 416 L184 483 Z M448 691 L345 691 L284 609 L224 691 L118 691 L223 557 L345 557 L448 691 Z " />
<glyph glyph-name="napostrophe" unicode="&#x149;" horiz-adv-x="756" d="M189 667 L40 667 L40 521 L107 521 C106 475 81 441 40 432 L40 366 C81 370 112 384 139 409 C174 441 189 484 189 553 L189 667 Z M375 483 L249 483 L249 0 L381 0 L381 250 C381 292 385 315 394 335 C410 368 445 388 486 388 C522 388 551 372 561 346 C567 330 569 312 569 277 L569 0 L701 0 L701 304 C701 367 694 399 675 430 C649 472 599 496 536 496 C465 496 418 472 375 416 L375 483 Z " />
<glyph glyph-name="Eng" unicode="&#x14a;" horiz-adv-x="693" d="M210 667 L65 667 L65 0 L210 0 L210 376 C210 433 215 464 229 491 C252 534 303 562 361 562 C413 562 456 540 471 504 C480 483 483 459 483 410 L483 40 C483 -16 483 -22 480 -37 C476 -58 462 -67 436 -67 C423 -67 408 -67 402 -66 L402 -173 C501 -182 565 -167 598 -129 C621 -101 628 -72 628 0 L628 443 C628 522 620 562 596 600 C563 653 500 683 422 683 C330 683 265 652 210 583 L210 667 Z " />
<glyph glyph-name="eng" unicode="&#x14b;" horiz-adv-x="565" d="M184 483 L58 483 L58 0 L190 0 L190 250 C190 292 194 315 203 335 C219 368 254 388 295 388 C332 388 360 372 370 346 C376 330 378 312 378 277 L378 40 C378 -16 378 -22 375 -37 C371 -58 357 -67 331 -67 C318 -67 303 -67 297 -66 L297 -173 C325 -175 367 -176 387 -174 C467 -166 511 -118 511 -38 L510 0 L510 304 C510 367 503 399 484 430 C458 472 408 496 345 496 C274 496 226 472 184 416 L184 483 Z " />
<glyph glyph-name="Omacron" unicode="&#x14c;" horiz-adv-x="727" d="M369 683 C166 683 35 545 35 333 C35 124 167 -16 365 -16 C560 -16 692 125 692 333 C692 539 559 683 369 683 L369 683 Z M367 562 C474 562 545 472 545 336 C545 194 475 105 366 105 C252 105 182 193 182 334 C182 475 253 562 367 562 L367 562 Z M526 825 L201 825 L201 750 L526 750 L526 825 Z " />
<glyph glyph-name="omacron" unicode="&#x14d;" horiz-adv-x="560" d="M285 496 C130 496 30 396 30 241 C30 88 130 -13 281 -13 C432 -13 530 88 530 242 C530 394 432 496 285 496 L285 496 Z M281 398 C353 398 397 339 397 242 C397 143 354 85 281 85 C207 85 163 143 163 241 C163 340 207 398 281 398 L281 398 Z M433 657 L127 657 L127 587 L433 587 L433 657 Z " />
<glyph glyph-name="Obreve" unicode="&#x14e;" horiz-adv-x="727" d="M369 683 C166 683 35 545 35 333 C35 124 167 -16 365 -16 C560 -16 692 125 692 333 C692 539 559 683 369 683 L369 683 Z M367 562 C474 562 545 472 545 336 C545 194 475 105 366 105 C252 105 182 193 182 334 C182 475 253 562 367 562 L367 562 Z M201 852 C205 766 262 720 363 720 C465 720 522 766 526 852 L457 852 C446 814 416 796 362 796 C311 796 281 814 269 852 L201 852 Z " />
<glyph glyph-name="obreve" unicode="&#x14f;" horiz-adv-x="560" d="M285 496 C130 496 30 396 30 241 C30 88 130 -13 281 -13 C432 -13 530 88 530 242 C530 394 432 496 285 496 L285 496 Z M281 398 C353 398 397 339 397 242 C397 143 354 85 281 85 C207 85 163 143 163 241 C163 340 207 398 281 398 L281 398 Z M132 690 C136 604 188 558 280 558 C372 558 424 604 428 690 L363 690 C353 650 326 631 280 631 C234 631 207 650 197 690 L132 690 Z " />
<glyph glyph-name="Ohungarumlaut" unicode="&#x150;" horiz-adv-x="727" d="M369 683 C166 683 35 545 35 333 C35 124 167 -16 365 -16 C560 -16 692 125 692 333 C692 539 559 683 369 683 L369 683 Z M367 562 C474 562 545 472 545 336 C545 194 475 105 366 105 C252 105 182 193 182 334 C182 475 253 562 367 562 L367 562 Z M589 844 L455 844 L404 723 L488 723 L589 844 Z M422 844 L289 844 L238 723 L321 723 L422 844 Z " />
<glyph glyph-name="ohungarumlaut" unicode="&#x151;" horiz-adv-x="560" d="M285 496 C130 496 30 396 30 241 C30 88 130 -13 281 -13 C432 -13 530 88 530 242 C530 394 432 496 285 496 L285 496 Z M281 398 C353 398 397 339 397 242 C397 143 354 85 281 85 C207 85 163 143 163 241 C163 340 207 398 281 398 L281 398 Z M493 691 L371 691 L320 556 L397 556 L493 691 Z M333 691 L211 691 L160 556 L237 556 L333 691 Z " />
<glyph glyph-name="OE" unicode="&#x152;" horiz-adv-x="1022" d="M976 667 L507 667 L507 619 C476 660 420 682 346 682 C165 682 35 535 35 328 C35 129 162 -15 339 -15 C410 -15 465 7 507 51 L507 0 L983 0 L983 123 L643 123 L643 286 L948 286 L948 401 L643 401 L643 544 L976 544 L976 667 Z M504 263 C504 167 446 106 356 106 C251 106 182 196 182 332 C182 472 251 560 361 560 C408 560 447 543 474 510 C497 483 504 457 504 406 L504 263 Z " />
<glyph glyph-name="oe" unicode="&#x153;" horiz-adv-x="867" d="M707 153 C683 102 655 82 607 82 C537 82 492 131 491 211 L838 211 C839 291 827 345 798 394 C760 458 688 496 604 496 C533 496 478 471 438 420 C404 470 348 496 273 496 C127 496 30 394 30 241 C30 86 122 -13 265 -13 C343 -13 394 11 433 67 C472 11 523 -13 606 -13 C721 -13 802 46 834 153 L707 153 Z M489 289 C497 361 537 401 599 401 C662 401 701 360 706 289 L489 289 Z M274 398 C339 398 376 343 376 247 C376 142 339 85 271 85 C203 85 163 142 163 242 C163 340 204 398 274 398 L274 398 Z " />
<glyph glyph-name="Racute" unicode="&#x154;" horiz-adv-x="689" d="M64 667 L64 0 L209 0 L209 262 L340 262 C394 262 426 252 444 229 C465 202 470 180 476 90 C480 37 484 17 493 0 L645 0 L639 8 C629 23 623 47 619 94 C609 248 588 292 514 315 C582 340 620 400 620 478 C620 548 590 603 533 637 C496 659 457 667 386 667 L64 667 Z M209 552 L354 552 C439 552 477 524 477 461 C477 429 465 404 442 388 C423 374 396 369 348 369 L209 369 L209 552 Z M483 844 L330 844 L246 723 L344 723 L483 844 Z " />
<glyph glyph-name="racute" unicode="&#x155;" horiz-adv-x="370" d="M370 491 C357 493 352 493 340 493 C269 493 219 461 184 394 L184 483 L58 483 L58 0 L190 0 L190 202 C190 257 195 287 208 311 C230 352 268 374 318 374 C337 374 348 373 370 369 L370 491 Z M370 691 L231 691 L147 557 L235 557 L370 691 Z " />
<glyph glyph-name="Rcommaaccent" unicode="&#x156;" horiz-adv-x="689" d="M64 667 L64 0 L209 0 L209 262 L340 262 C394 262 426 252 444 229 C465 202 470 180 476 90 C480 37 484 17 493 0 L645 0 L639 8 C629 23 623 47 619 94 C609 248 588 292 514 315 C582 340 620 400 620 478 C620 548 590 603 533 637 C496 659 457 667 386 667 L64 667 Z M209 552 L354 552 C439 552 477 524 477 461 C477 429 465 404 442 388 C423 374 396 369 348 369 L209 369 L209 552 Z M401 -60 L276 -60 L276 -153 L346 -153 C342 -188 327 -198 276 -202 L276 -245 C366 -241 401 -209 401 -132 L401 -60 Z " />
<glyph glyph-name="rcommaaccent" unicode="&#x157;" horiz-adv-x="370" d="M370 491 C357 493 352 493 340 493 C269 493 219 461 184 394 L184 483 L58 483 L58 0 L190 0 L190 202 C190 257 195 287 208 311 C230 352 268 374 318 374 C337 374 348 373 370 369 L370 491 Z M184 -60 L65 -60 L65 -153 L133 -153 C129 -186 112 -199 65 -202 L65 -245 C99 -244 121 -239 141 -228 C174 -209 184 -188 184 -132 L184 -60 Z " />
<glyph glyph-name="Rcaron" unicode="&#x158;" horiz-adv-x="689" d="M64 667 L64 0 L209 0 L209 262 L340 262 C394 262 426 252 444 229 C465 202 470 180 476 90 C480 37 484 17 493 0 L645 0 L639 8 C629 23 623 47 619 94 C609 248 588 292 514 315 C582 340 620 400 620 478 C620 548 590 603 533 637 C496 659 457 667 386 667 L64 667 Z M209 552 L354 552 C439 552 477 524 477 461 C477 429 465 404 442 388 C423 374 396 369 348 369 L209 369 L209 552 Z M496 850 L377 850 L323 785 L267 850 L154 850 L262 725 L387 725 L496 850 Z " />
<glyph glyph-name="rcaron" unicode="&#x159;" horiz-adv-x="370" d="M370 491 C357 493 352 493 340 493 C269 493 219 461 184 394 L184 483 L58 483 L58 0 L190 0 L190 202 C190 257 195 287 208 311 C230 352 268 374 318 374 C337 374 348 373 370 369 L370 491 Z M380 691 L277 691 L216 609 L156 691 L50 691 L155 557 L277 557 L380 691 Z " />
<glyph glyph-name="Sacute" unicode="&#x15a;" horiz-adv-x="613" d="M466 844 L313 844 L229 723 L326 723 L466 844 Z M556 469 C554 522 542 560 517 594 C474 652 397 683 299 683 C144 683 42 603 42 482 C42 431 60 386 94 357 C122 331 168 311 253 288 C355 259 357 259 384 248 C420 234 435 216 435 186 C435 132 387 97 313 97 C260 97 220 111 193 138 C173 159 165 181 163 223 L18 223 C22 70 126 -16 307 -16 C477 -16 582 67 582 200 C582 261 555 311 504 345 C471 368 428 383 344 404 C261 424 231 433 210 445 C193 454 182 472 182 492 C182 540 224 570 292 570 C367 570 412 534 417 469 L556 469 Z " />
<glyph glyph-name="sacute" unicode="&#x15b;" horiz-adv-x="496" d="M448 343 C444 387 435 411 414 435 C378 476 318 496 236 496 C103 496 26 442 26 349 C26 304 48 264 85 243 C113 228 139 220 225 200 C314 180 334 169 334 136 C334 99 299 76 245 76 C180 76 149 101 143 157 L16 157 C23 44 99 -13 243 -13 C383 -13 467 48 467 149 C467 232 418 270 278 299 C201 314 182 320 170 333 C164 339 159 351 159 360 C159 389 187 407 234 407 C292 407 317 389 324 343 L448 343 Z M397 691 L257 691 L173 557 L262 557 L397 691 Z " />
<glyph glyph-name="Scircumflex" unicode="&#x15c;" horiz-adv-x="613" d="M556 469 C551 606 458 683 299 683 C144 683 42 603 42 482 C42 431 60 386 94 357 C122 331 168 311 253 288 C355 259 357 259 384 248 C420 234 435 216 435 186 C435 132 387 97 313 97 C260 97 220 111 193 138 C173 159 165 181 163 223 L18 223 C21 71 126 -16 307 -16 C477 -16 582 67 582 200 C582 261 555 311 504 345 C471 368 428 383 344 404 C261 424 231 433 210 445 C193 454 182 472 182 492 C182 540 224 570 292 570 C367 570 412 534 417 469 L556 469 Z M478 725 L370 850 L245 850 L136 725 L250 725 L305 790 L360 725 L478 725 Z " />
<glyph glyph-name="scircumflex" unicode="&#x15d;" horiz-adv-x="496" d="M448 343 C444 387 435 411 414 435 C378 476 318 496 236 496 C103 496 26 442 26 349 C26 304 48 264 85 243 C113 228 139 220 225 200 C314 180 334 169 334 136 C334 99 299 76 245 76 C180 76 149 101 143 157 L16 157 C23 44 99 -13 243 -13 C383 -13 467 48 467 149 C467 232 418 270 278 299 C201 314 182 320 170 333 C164 339 159 351 159 360 C159 389 187 407 234 407 C292 407 317 389 324 343 L448 343 Z M413 557 L309 691 L188 691 L84 557 L186 557 L246 637 L305 557 L413 557 Z " />
<glyph glyph-name="Scedilla" unicode="&#x15e;" horiz-adv-x="613" d="M298 -16 L308 -16 C477 -16 582 67 582 200 C582 261 555 311 504 345 C471 368 428 383 344 404 C261 424 231 433 210 445 C193 454 182 472 182 492 C182 540 224 570 292 570 C367 570 412 534 417 469 L556 469 C554 522 542 560 517 594 C474 652 397 683 299 683 C144 683 42 603 42 482 C42 431 60 386 94 357 C122 331 168 311 253 288 C355 259 357 259 384 248 C420 234 435 216 435 186 C435 132 387 97 313 97 C260 97 220 111 193 138 C173 159 165 181 163 223 L18 223 C19 89 105 3 254 -13 L209 -80 L228 -98 C245 -93 254 -91 264 -91 C289 -91 307 -105 307 -126 C307 -148 289 -161 261 -161 C238 -161 217 -157 186 -145 L168 -184 C207 -199 241 -206 273 -206 C341 -206 389 -171 389 -121 C389 -80 357 -53 307 -53 C292 -53 286 -54 271 -57 L298 -16 Z " />
<glyph glyph-name="scedilla" unicode="&#x15f;" horiz-adv-x="496" d="M245 -14 C304 -10 329 -6 355 3 C426 28 467 81 467 149 C467 232 418 270 278 299 C201 314 182 320 170 333 C164 339 159 351 159 360 C159 389 187 407 234 407 C292 407 317 389 324 343 L448 343 C444 387 435 411 414 435 C378 476 318 496 236 496 C103 496 26 442 26 349 C26 304 48 264 85 243 C113 228 139 220 225 200 C314 180 334 169 334 136 C334 99 299 76 245 76 C180 76 149 101 143 157 L16 157 C19 59 85 -1 203 -11 L153 -82 L173 -100 C187 -95 195 -93 207 -93 C234 -93 252 -107 252 -127 C252 -148 231 -163 202 -163 C183 -163 156 -157 130 -147 L112 -186 C149 -201 184 -208 219 -208 C288 -208 333 -173 333 -121 C333 -81 300 -55 251 -55 C236 -55 231 -56 214 -59 L245 -14 Z " />
<glyph glyph-name="Scaron" unicode="&#x160;" horiz-adv-x="613" d="M475 850 L356 850 L302 785 L246 850 L133 850 L241 725 L366 725 L475 850 Z M556 469 C554 522 542 560 517 594 C474 652 397 683 299 683 C144 683 42 603 42 482 C42 431 60 386 94 357 C122 331 168 311 253 288 C355 259 357 259 384 248 C420 234 435 216 435 186 C435 132 387 97 313 97 C260 97 220 111 193 138 C173 159 165 181 163 223 L18 223 C22 70 126 -16 307 -16 C477 -16 582 67 582 200 C582 261 555 311 504 345 C471 368 428 383 344 404 C261 424 231 433 210 445 C193 454 182 472 182 492 C182 540 224 570 292 570 C367 570 412 534 417 469 L556 469 Z " />
<glyph glyph-name="scaron" unicode="&#x161;" horiz-adv-x="496" d="M448 343 C444 387 435 411 414 435 C378 476 318 496 236 496 C103 496 26 442 26 349 C26 304 48 264 85 243 C113 228 139 220 225 200 C314 180 334 169 334 136 C334 99 299 76 245 76 C180 76 149 101 143 157 L16 157 C23 44 99 -13 243 -13 C383 -13 467 48 467 149 C467 232 418 270 278 299 C201 314 182 320 170 333 C164 339 159 351 159 360 C159 389 187 407 234 407 C292 407 317 389 324 343 L448 343 Z M409 691 L306 691 L245 609 L185 691 L79 691 L184 557 L306 557 L409 691 Z " />
<glyph glyph-name="Tcommaaccent" unicode="&#x162;" horiz-adv-x="581" d="M565 667 L16 667 L16 544 L217 544 L217 0 L362 0 L362 544 L565 544 L565 667 Z M354 -60 L229 -60 L229 -153 L299 -153 C295 -188 280 -198 229 -202 L229 -245 C319 -241 354 -209 354 -132 L354 -60 Z " />
<glyph glyph-name="tcommaaccent" unicode="&#x163;" horiz-adv-x="323" d="M303 483 L205 483 L205 629 L73 629 L73 483 L-8 483 L-8 394 L73 394 L73 171 C73 89 76 66 92 42 C113 8 153 -7 222 -7 C246 -7 267 -6 303 -2 L303 99 C280 97 271 96 263 96 C214 96 205 107 205 166 L205 394 L303 394 L303 483 Z M241 -60 L122 -60 L122 -153 L190 -153 C186 -186 169 -199 122 -202 L122 -245 C156 -244 178 -239 198 -228 C231 -209 241 -188 241 -132 L241 -60 Z " />
<glyph glyph-name="Tcaron" unicode="&#x164;" horiz-adv-x="581" d="M565 667 L16 667 L16 544 L217 544 L217 0 L362 0 L362 544 L565 544 L565 667 Z M462 850 L343 850 L289 785 L233 850 L120 850 L228 725 L353 725 L462 850 Z " />
<glyph glyph-name="tcaron" unicode="&#x165;" horiz-adv-x="390" d="M303 483 L205 483 L205 629 L73 629 L73 483 L-8 483 L-8 394 L73 394 L73 171 C73 89 76 66 92 42 C113 8 153 -7 222 -7 C246 -7 267 -6 303 -2 L303 99 C280 97 271 96 263 96 C214 96 205 107 205 166 L205 394 L303 394 L303 483 Z M383 721 L264 721 L264 628 L332 628 C328 595 311 582 264 579 L264 536 C298 537 320 542 340 553 C373 572 383 593 383 649 L383 721 Z " />
<glyph glyph-name="Tbar" unicode="&#x166;" horiz-adv-x="581" d="M565 667 L16 667 L16 544 L217 544 L217 413 L64 413 L64 320 L217 320 L217 0 L362 0 L362 320 L516 320 L516 413 L362 413 L362 544 L565 544 L565 667 Z " />
<glyph glyph-name="tbar" unicode="&#x167;" horiz-adv-x="323" d="M303 483 L205 483 L205 629 L73 629 L73 483 L-8 483 L-8 394 L73 394 L73 312 L2 312 L2 235 L73 235 L73 171 C73 89 76 66 92 42 C113 8 153 -7 222 -7 C246 -7 267 -6 303 -2 L303 99 C280 97 271 96 263 96 C214 96 205 107 205 166 L205 235 L293 235 L293 312 L205 312 L205 394 L303 394 L303 483 Z " />
<glyph glyph-name="utilde" unicode="&#x169;" horiz-adv-x="566" d="M507 483 L375 483 L375 243 C375 194 372 170 362 151 C345 114 313 95 270 95 C238 95 214 105 200 126 C189 143 186 159 186 216 L186 483 L54 483 L54 177 C54 114 63 77 84 47 C113 8 161 -13 221 -13 C291 -13 342 13 381 68 L381 0 L507 0 L507 483 Z M381 685 C371 658 361 649 343 649 C329 649 313 654 284 666 C251 680 241 683 221 683 C170 683 131 639 120 567 L180 567 C184 591 199 606 219 606 C226 606 235 604 244 600 C304 573 312 570 339 570 C395 570 427 607 441 685 L381 685 Z " />
<glyph glyph-name="Umacron" unicode="&#x16a;" horiz-adv-x="680" d="M624 667 L479 667 L479 265 C479 150 441 105 343 105 C286 105 243 123 221 156 C205 181 199 209 199 265 L199 667 L54 667 L54 275 C54 182 65 134 94 88 C141 17 219 -16 340 -16 C450 -16 521 11 569 69 C610 119 624 171 624 273 L624 667 Z M502 825 L176 825 L176 750 L502 750 L502 825 Z " />
<glyph glyph-name="umacron" unicode="&#x16b;" horiz-adv-x="566" d="M507 483 L375 483 L375 243 C375 194 372 170 362 151 C345 114 313 95 270 95 C238 95 214 105 200 126 C189 143 186 159 186 216 L186 483 L54 483 L54 177 C54 114 63 77 84 47 C113 8 161 -13 221 -13 C291 -13 342 13 381 68 L381 0 L507 0 L507 483 Z M433 657 L128 657 L128 587 L433 587 L433 657 Z " />
<glyph glyph-name="Ubreve" unicode="&#x16c;" horiz-adv-x="680" d="M624 667 L479 667 L479 265 C479 150 441 105 343 105 C286 105 243 123 221 156 C205 181 199 209 199 265 L199 667 L54 667 L54 275 C54 182 65 134 94 88 C141 17 219 -16 340 -16 C450 -16 521 11 569 69 C610 119 624 171 624 273 L624 667 Z M178 852 C182 766 239 720 340 720 C441 720 498 766 502 852 L434 852 C422 814 392 796 339 796 C287 796 257 814 246 852 L178 852 Z " />
<glyph glyph-name="ubreve" unicode="&#x16d;" horiz-adv-x="566" d="M507 483 L375 483 L375 243 C375 194 372 170 362 151 C345 114 313 95 270 95 C238 95 214 105 200 126 C189 143 186 159 186 216 L186 483 L54 483 L54 177 C54 114 63 77 84 47 C113 8 161 -13 221 -13 C291 -13 342 13 381 68 L381 0 L507 0 L507 483 Z M135 690 C139 604 190 558 283 558 C375 558 427 604 430 690 L366 690 C356 650 329 631 283 631 C237 631 210 650 200 690 L135 690 Z " />
<glyph glyph-name="Uring" unicode="&#x16e;" horiz-adv-x="680" d="M624 667 L479 667 L479 265 C479 150 441 105 343 105 C286 105 243 123 221 156 C205 181 199 209 199 265 L199 667 L54 667 L54 275 C54 182 65 134 94 88 C141 17 219 -16 340 -16 C450 -16 521 11 569 69 C610 119 624 171 624 273 L624 667 Z M341 923 C279 923 229 874 229 813 C229 751 279 701 340 701 C401 701 450 751 450 812 C450 872 401 923 341 923 L341 923 Z M341 865 C369 865 392 841 392 812 C392 783 369 759 340 759 C311 759 287 783 287 812 C287 841 311 865 341 865 L341 865 Z " />
<glyph glyph-name="uring" unicode="&#x16f;" horiz-adv-x="566" d="M507 483 L375 483 L375 243 C375 194 372 170 362 151 C345 114 313 95 270 95 C238 95 214 105 200 126 C189 143 186 159 186 216 L186 483 L54 483 L54 177 C54 114 63 77 84 47 C113 8 161 -13 221 -13 C291 -13 342 13 381 68 L381 0 L507 0 L507 483 Z M282 738 C223 738 176 692 176 635 C176 578 223 530 280 530 C337 530 384 577 384 634 C384 692 338 738 282 738 L282 738 Z M281 681 C308 681 327 661 327 634 C327 607 307 587 280 587 C254 587 233 608 233 635 C233 661 253 681 281 681 L281 681 Z " />
<glyph glyph-name="Uhungarumlaut" unicode="&#x170;" horiz-adv-x="680" d="M624 667 L479 667 L479 265 C479 150 441 105 343 105 C286 105 243 123 221 156 C205 181 199 209 199 265 L199 667 L54 667 L54 275 C54 182 65 134 94 88 C141 17 219 -16 340 -16 C450 -16 521 11 569 69 C610 119 624 171 624 273 L624 667 Z M562 844 L428 844 L377 723 L461 723 L562 844 Z M395 844 L262 844 L211 723 L294 723 L395 844 Z " />
<glyph glyph-name="uhungarumlaut" unicode="&#x171;" horiz-adv-x="566" d="M507 483 L375 483 L375 243 C375 194 372 170 362 151 C345 114 313 95 270 95 C238 95 214 105 200 126 C189 143 186 159 186 216 L186 483 L54 483 L54 177 C54 114 63 77 84 47 C113 8 161 -13 221 -13 C291 -13 342 13 381 68 L381 0 L507 0 L507 483 Z M489 691 L367 691 L316 556 L393 556 L489 691 Z M329 691 L207 691 L156 556 L233 556 L329 691 Z " />
<glyph glyph-name="Uogonek" unicode="&#x172;" horiz-adv-x="680" d="M479 667 L479 265 C479 150 441 105 343 105 C286 105 243 123 221 156 C205 181 199 209 199 265 L199 667 L54 667 L54 275 C54 182 65 134 94 88 C142 16 219 -16 345 -16 C377 -16 391 -15 426 -9 C378 -38 362 -58 362 -91 C362 -144 408 -179 476 -179 C497 -179 510 -177 536 -169 L536 -114 C521 -118 513 -119 503 -119 C465 -119 442 -102 442 -74 C442 -43 457 -20 498 9 C556 51 574 70 594 108 C617 150 624 192 624 273 L624 667 L479 667 Z " />
<glyph glyph-name="uogonek" unicode="&#x173;" horiz-adv-x="566" d="M375 483 L375 243 C375 194 372 170 362 151 C345 114 313 95 270 95 C238 95 214 105 200 126 C189 143 186 159 186 216 L186 483 L54 483 L54 177 C54 114 63 77 84 47 C113 8 161 -13 221 -13 C291 -13 342 13 381 68 L381 0 L442 0 C395 -23 369 -59 369 -99 C369 -151 415 -186 483 -186 C502 -186 516 -184 543 -176 L543 -121 C526 -125 518 -126 509 -126 C472 -126 448 -108 448 -79 C448 -51 466 -27 507 0 L507 483 L375 483 Z " />
<glyph glyph-name="Wcircumflex" unicode="&#x174;" horiz-adv-x="882" d="M881 667 L736 667 L671 398 C647 289 632 204 626 143 C618 213 614 235 581 392 L511 667 L373 667 L301 386 C278 289 261 196 256 143 C252 200 235 296 214 387 L148 667 L2 667 L180 0 L328 0 L398 289 C413 348 432 449 440 508 C453 427 467 352 482 286 L555 0 L700 0 L881 667 Z M612 725 L504 850 L379 850 L270 725 L384 725 L439 790 L494 725 L612 725 Z " />
<glyph glyph-name="Ycircumflex" unicode="&#x176;" horiz-adv-x="606" d="M623 667 L461 667 L360 496 C349 478 319 415 304 380 C295 404 269 458 251 489 L147 667 L-19 667 L230 259 L230 0 L375 0 L375 257 L623 667 Z M477 725 L369 850 L244 850 L135 725 L249 725 L304 790 L359 725 L477 725 Z " />
<glyph glyph-name="ycircumflex" unicode="&#x177;" horiz-adv-x="489" d="M493 483 L356 483 L281 252 C270 220 264 196 248 134 C234 193 228 216 218 246 L138 483 L-5 483 L167 29 C170 21 171 13 171 -1 C171 -45 150 -62 96 -62 L57 -62 L42 -62 L42 -171 L96 -172 L109 -173 C112 -173 128 -173 156 -171 C184 -170 202 -164 224 -150 C262 -126 279 -97 316 2 L493 483 Z M413 557 L310 691 L189 691 L85 557 L187 557 L247 637 L306 557 L413 557 Z " />
<glyph glyph-name="Ydieresis" unicode="&#x178;" horiz-adv-x="606" d="M623 667 L461 667 L360 496 C349 478 319 415 304 380 C295 404 269 458 251 489 L147 667 L-19 667 L230 259 L230 0 L375 0 L375 257 L623 667 Z M474 842 L345 842 L345 735 L474 735 L474 842 Z M267 842 L138 842 L138 735 L267 735 L267 842 Z " />
<glyph glyph-name="Zacute" unicode="&#x179;" horiz-adv-x="609" d="M574 667 L47 667 L47 544 L269 544 C306 544 333 545 390 547 C354 511 342 498 329 483 L22 116 L22 0 L586 0 L586 123 L336 123 C302 123 272 122 202 119 L242 162 C254 175 265 187 276 199 L574 556 L574 667 Z M476 844 L323 844 L239 723 L337 723 L476 844 Z " />
<glyph glyph-name="zacute" unicode="&#x17a;" horiz-adv-x="478" d="M451 483 L42 483 L42 380 L235 380 C251 380 262 380 284 382 C245 346 231 333 216 317 L23 100 L23 0 L468 0 L468 103 L258 103 C241 103 226 102 191 100 C225 132 238 145 253 162 L451 386 L451 483 Z M401 691 L261 691 L177 557 L266 557 L401 691 Z " />
<glyph glyph-name="Zdotaccent" unicode="&#x17b;" horiz-adv-x="609" d="M574 667 L47 667 L47 544 L269 544 C306 544 333 545 390 547 C354 511 342 498 329 483 L22 116 L22 0 L586 0 L586 123 L336 123 C302 123 272 122 202 119 L242 162 C254 175 265 187 276 199 L574 556 L574 667 Z M382 842 L253 842 L253 735 L382 735 L382 842 Z " />
<glyph glyph-name="zdotaccent" unicode="&#x17c;" horiz-adv-x="478" d="M451 483 L42 483 L42 380 L235 380 C251 380 262 380 284 382 C245 346 231 333 216 317 L23 100 L23 0 L468 0 L468 103 L258 103 C241 103 226 102 191 100 C225 132 238 145 253 162 L451 386 L451 483 Z M314 679 L190 679 L190 570 L314 570 L314 679 Z " />
<glyph glyph-name="Zcaron" unicode="&#x17d;" horiz-adv-x="609" d="M574 667 L47 667 L47 544 L269 544 C306 544 333 545 390 547 C354 511 342 498 329 483 L22 116 L22 0 L586 0 L586 123 L336 123 C302 123 272 122 202 119 L242 162 C254 175 265 187 276 199 L574 556 L574 667 Z M489 850 L370 850 L316 785 L260 850 L147 850 L255 725 L380 725 L489 850 Z " />
<glyph glyph-name="zcaron" unicode="&#x17e;" horiz-adv-x="478" d="M451 483 L42 483 L42 380 L235 380 C251 380 262 380 284 382 C245 346 231 333 216 317 L23 100 L23 0 L468 0 L468 103 L258 103 C241 103 226 102 191 100 C225 132 238 145 253 162 L451 386 L451 483 Z M417 691 L314 691 L253 609 L193 691 L87 691 L192 557 L314 557 L417 691 Z " />
<glyph glyph-name="florin" unicode="&#x192;" horiz-adv-x="560" d="M467 447 L375 447 L393 549 C403 608 421 626 469 626 C473 626 481 626 493 625 L503 625 L521 724 C493 726 476 727 455 727 C335 727 282 681 261 560 L241 447 L163 447 L149 370 L227 370 L168 33 C151 -59 142 -71 82 -71 C72 -71 67 -71 55 -70 L38 -169 C64 -170 78 -171 97 -171 C173 -171 213 -158 245 -125 C273 -96 285 -65 298 14 L361 370 L454 370 L467 447 Z " />
<glyph glyph-name="uni01CD" unicode="&#x1cd;" horiz-adv-x="657" d="M404 668 L254 668 L0 0 L150 0 L204 149 L452 149 L505 0 L658 0 L404 668 Z M416 256 L239 256 L282 376 C310 456 317 479 329 521 C340 476 348 447 373 376 L416 256 Z M500 850 L381 850 L327 785 L271 850 L158 850 L266 725 L391 725 L500 850 Z " />
<glyph glyph-name="uni01CE" unicode="&#x1ce;" horiz-adv-x="521" d="M497 0 C484 32 480 60 480 130 L481 231 C483 373 483 383 472 408 C449 465 377 496 270 496 C130 496 54 442 46 335 L171 335 C180 388 204 407 266 407 C326 407 353 387 353 344 C353 306 340 299 236 286 C166 277 139 271 113 261 C56 239 25 193 25 133 C25 41 88 -13 194 -13 C261 -13 312 6 354 47 C354 30 355 22 362 0 L497 0 Z M352 181 C352 148 347 131 330 113 C306 86 275 73 235 73 C189 73 161 97 161 138 C161 181 185 199 259 210 C314 218 331 223 352 236 L352 181 Z M432 691 L329 691 L268 609 L208 691 L102 691 L207 557 L329 557 L432 691 Z " />
<glyph glyph-name="uni01D3" unicode="&#x1d3;" horiz-adv-x="680" d="M624 667 L479 667 L479 265 C479 150 441 105 343 105 C286 105 243 123 221 156 C205 181 199 209 199 265 L199 667 L54 667 L54 275 C54 182 65 134 94 88 C141 17 219 -16 340 -16 C450 -16 521 11 569 69 C610 119 624 171 624 273 L624 667 Z M511 850 L392 850 L338 785 L282 850 L169 850 L277 725 L402 725 L511 850 Z " />
<glyph glyph-name="uni01D4" unicode="&#x1d4;" horiz-adv-x="566" d="M507 483 L375 483 L375 243 C375 194 372 170 362 151 C345 114 313 95 270 95 C238 95 214 105 200 126 C189 143 186 159 186 216 L186 483 L54 483 L54 177 C54 114 63 77 84 47 C113 8 161 -13 221 -13 C291 -13 342 13 381 68 L381 0 L507 0 L507 483 Z M448 691 L345 691 L284 609 L224 691 L118 691 L223 557 L345 557 L448 691 Z " />
<glyph glyph-name="Gcaron" unicode="&#x1e6;" horiz-adv-x="712" d="M656 359 L376 359 L376 252 L524 252 C521 162 457 102 365 102 C247 102 182 184 182 331 C182 477 247 561 361 561 C439 561 492 519 506 447 L647 447 C632 586 515 683 362 683 C169 683 35 538 35 330 C35 124 163 -16 349 -16 C435 -16 497 13 548 76 L563 0 L656 0 L656 359 Z M537 850 L418 850 L364 785 L308 850 L195 850 L303 725 L428 725 L537 850 Z " />
<glyph glyph-name="gcaron" unicode="&#x1e7;" horiz-adv-x="572" d="M512 483 L386 483 L386 419 C348 475 309 496 242 496 C114 496 31 400 31 252 C31 106 110 15 237 15 C303 15 350 39 384 89 L384 34 C384 -55 353 -91 276 -91 C220 -91 189 -72 180 -29 L47 -29 C60 -130 135 -180 273 -180 C372 -180 441 -150 480 -92 C504 -55 512 -16 512 60 L512 483 Z M276 393 C343 393 385 340 385 255 C385 167 343 113 274 113 C205 113 164 166 164 255 C164 342 205 393 276 393 L276 393 Z M444 691 L341 691 L280 609 L220 691 L114 691 L219 557 L341 557 L444 691 Z " />
<glyph glyph-name="uni01F4" unicode="&#x1f4;" horiz-adv-x="712" d="M656 359 L376 359 L376 252 L524 252 C521 162 457 102 365 102 C247 102 182 184 182 331 C182 477 247 561 361 561 C439 561 492 519 506 447 L647 447 C632 586 515 683 362 683 C169 683 35 538 35 330 C35 124 163 -16 349 -16 C435 -16 497 13 548 76 L563 0 L656 0 L656 359 Z M521 844 L368 844 L284 723 L381 723 L521 844 Z " />
<glyph glyph-name="Scommaaccent" unicode="&#x218;" horiz-adv-x="613" d="M363 -60 L238 -60 L238 -153 L308 -153 C304 -188 289 -198 238 -202 L238 -245 C328 -241 363 -209 363 -132 L363 -60 Z M556 469 C554 522 542 560 517 594 C474 652 397 683 299 683 C144 683 42 603 42 482 C42 431 60 386 94 357 C122 331 168 311 253 288 C355 259 357 259 384 248 C420 234 435 216 435 186 C435 132 387 97 313 97 C260 97 220 111 193 138 C173 159 165 181 163 223 L18 223 C22 70 126 -16 307 -16 C477 -16 582 67 582 200 C582 261 555 311 504 345 C471 368 428 383 344 404 C261 424 231 433 210 445 C193 454 182 472 182 492 C182 540 224 570 292 570 C367 570 412 534 417 469 L556 469 Z " />
<glyph glyph-name="scommaaccent" unicode="&#x219;" horiz-adv-x="496" d="M448 343 C444 387 435 411 414 435 C378 476 318 496 236 496 C103 496 26 442 26 349 C26 304 48 264 85 243 C113 228 139 220 225 200 C314 180 334 169 334 136 C334 99 299 76 245 76 C180 76 149 101 143 157 L16 157 C23 44 99 -13 243 -13 C383 -13 467 48 467 149 C467 232 418 270 278 299 C201 314 182 320 170 333 C164 339 159 351 159 360 C159 389 187 407 234 407 C292 407 317 389 324 343 L448 343 Z M301 -60 L182 -60 L182 -153 L250 -153 C246 -186 229 -199 182 -202 L182 -245 C216 -244 238 -239 258 -228 C291 -209 301 -188 301 -132 L301 -60 Z " />
<glyph glyph-name="afii57929" unicode="&#x2bc;" horiz-adv-x="275" d="M212 667 L63 667 L63 521 L130 521 C129 475 104 441 63 432 L63 366 C104 370 135 384 162 409 C197 441 212 484 212 553 L212 667 Z " />
<glyph glyph-name="circumflex" unicode="&#x2c6;" horiz-adv-x="500" d="M415 557 L311 691 L190 691 L86 557 L188 557 L248 637 L307 557 L415 557 Z " />
<glyph glyph-name="caron" unicode="&#x2c7;" horiz-adv-x="500" d="M415 691 L312 691 L251 609 L191 691 L85 691 L190 557 L312 557 L415 691 Z " />
<glyph glyph-name="uni02C9" unicode="&#x2c9;" horiz-adv-x="500" d="M402 657 L97 657 L97 587 L402 587 L402 657 Z " />
<glyph glyph-name="breve" unicode="&#x2d8;" horiz-adv-x="500" d="M102 690 C106 604 157 558 250 558 C342 558 394 604 397 690 L332 690 C323 650 296 631 250 631 C204 631 177 650 167 690 L102 690 Z " />
<glyph glyph-name="dotaccent" unicode="&#x2d9;" horiz-adv-x="500" d="M312 679 L188 679 L188 570 L312 570 L312 679 Z " />
<glyph glyph-name="ring" unicode="&#x2da;" horiz-adv-x="500" d="M252 738 C193 738 146 693 146 635 C146 577 193 530 250 530 C307 530 354 577 354 634 C354 691 308 738 252 738 L252 738 Z M251 681 C277 681 297 661 297 634 C297 608 276 587 250 587 C223 587 203 608 203 635 C203 662 223 681 251 681 L251 681 Z " />
<glyph glyph-name="ogonek" unicode="&#x2db;" horiz-adv-x="500" d="M268 0 C221 -36 202 -63 202 -99 C202 -151 248 -186 316 -186 C335 -186 349 -184 376 -176 L376 -121 C359 -125 351 -126 342 -126 C305 -126 282 -109 282 -80 C282 -51 296 -30 336 0 L268 0 Z " />
<glyph glyph-name="tilde" unicode="&#x2dc;" horiz-adv-x="500" d="M350 685 C341 658 331 649 312 649 C299 649 283 654 254 666 C221 680 210 683 191 683 C140 683 101 639 90 567 L150 567 C154 591 169 606 189 606 C196 606 205 604 214 600 C274 573 282 570 309 570 C364 570 397 607 410 685 L350 685 Z " />
<glyph glyph-name="hungarumlaut" unicode="&#x2dd;" horiz-adv-x="500" d="M449 691 L328 691 L277 556 L353 556 L449 691 Z M289 691 L168 691 L117 556 L193 556 L289 691 Z " />
<glyph glyph-name="tonos" unicode="&#x384;" horiz-adv-x="278" d="M214 323 L63 323 L63 175 L214 175 L214 323 Z " />
<glyph glyph-name="dieresistonos" unicode="&#x385;" horiz-adv-x="278" d="M214 323 L63 323 L63 175 L214 175 L214 323 Z " />
<glyph glyph-name="Alphatonos" unicode="&#x386;" horiz-adv-x="278" d="M214 323 L63 323 L63 175 L214 175 L214 323 Z " />
<glyph glyph-name="anoteleia" unicode="&#x387;" horiz-adv-x="278" d="M214 323 L63 323 L63 175 L214 175 L214 323 Z " />
<glyph glyph-name="Epsilontonos" unicode="&#x388;" horiz-adv-x="278" d="M214 323 L63 323 L63 175 L214 175 L214 323 Z " />
<glyph glyph-name="Etatonos" unicode="&#x389;" horiz-adv-x="278" d="M214 323 L63 323 L63 175 L214 175 L214 323 Z " />
<glyph glyph-name="Iotatonos" unicode="&#x38a;" horiz-adv-x="278" d="M214 323 L63 323 L63 175 L214 175 L214 323 Z " />
<glyph glyph-name="Omicrontonos" unicode="&#x38c;" horiz-adv-x="278" d="M214 323 L63 323 L63 175 L214 175 L214 323 Z " />
<glyph glyph-name="Upsilontonos" unicode="&#x38e;" horiz-adv-x="278" d="M214 323 L63 323 L63 175 L214 175 L214 323 Z " />
<glyph glyph-name="Omegatonos" unicode="&#x38f;" horiz-adv-x="278" d="M214 323 L63 323 L63 175 L214 175 L214 323 Z " />
<glyph glyph-name="iotadieresistonos" unicode="&#x390;" horiz-adv-x="278" d="M214 323 L63 323 L63 175 L214 175 L214 323 Z " />
<glyph glyph-name="Alpha" unicode="&#x391;" horiz-adv-x="278" d="M214 323 L63 323 L63 175 L214 175 L214 323 Z " />
<glyph glyph-name="Beta" unicode="&#x392;" horiz-adv-x="278" d="M214 323 L63 323 L63 175 L214 175 L214 323 Z " />
<glyph glyph-name="Gamma" unicode="&#x393;" horiz-adv-x="278" d="M214 323 L63 323 L63 175 L214 175 L214 323 Z " />
<glyph glyph-name="uni0394" unicode="&#x394;" horiz-adv-x="278" d="M214 323 L63 323 L63 175 L214 175 L214 323 Z " />
<glyph glyph-name="Epsilon" unicode="&#x395;" horiz-adv-x="278" d="M214 323 L63 323 L63 175 L214 175 L214 323 Z " />
<glyph glyph-name="Zeta" unicode="&#x396;" horiz-adv-x="278" d="M214 323 L63 323 L63 175 L214 175 L214 323 Z " />
<glyph glyph-name="Eta" unicode="&#x397;" horiz-adv-x="278" d="M214 323 L63 323 L63 175 L214 175 L214 323 Z " />
<glyph glyph-name="Theta" unicode="&#x398;" horiz-adv-x="278" d="M214 323 L63 323 L63 175 L214 175 L214 323 Z " />
<glyph glyph-name="Iota" unicode="&#x399;" horiz-adv-x="278" d="M214 323 L63 323 L63 175 L214 175 L214 323 Z " />
<glyph glyph-name="Kappa" unicode="&#x39a;" horiz-adv-x="278" d="M214 323 L63 323 L63 175 L214 175 L214 323 Z " />
<glyph glyph-name="Lambda" unicode="&#x39b;" horiz-adv-x="278" d="M214 323 L63 323 L63 175 L214 175 L214 323 Z " />
<glyph glyph-name="Mu" unicode="&#x39c;" horiz-adv-x="278" d="M214 323 L63 323 L63 175 L214 175 L214 323 Z " />
<glyph glyph-name="Nu" unicode="&#x39d;" horiz-adv-x="278" d="M214 323 L63 323 L63 175 L214 175 L214 323 Z " />
<glyph glyph-name="Xi" unicode="&#x39e;" horiz-adv-x="278" d="M214 323 L63 323 L63 175 L214 175 L214 323 Z " />
<glyph glyph-name="Omicron" unicode="&#x39f;" horiz-adv-x="278" d="M214 323 L63 323 L63 175 L214 175 L214 323 Z " />
<glyph glyph-name="Pi" unicode="&#x3a0;" horiz-adv-x="278" d="M214 323 L63 323 L63 175 L214 175 L214 323 Z " />
<glyph glyph-name="Rho" unicode="&#x3a1;" horiz-adv-x="278" d="M214 323 L63 323 L63 175 L214 175 L214 323 Z " />
<glyph glyph-name="Sigma" unicode="&#x3a3;" horiz-adv-x="278" d="M214 323 L63 323 L63 175 L214 175 L214 323 Z " />
<glyph glyph-name="Tau" unicode="&#x3a4;" horiz-adv-x="278" d="M214 323 L63 323 L63 175 L214 175 L214 323 Z " />
<glyph glyph-name="Upsilon" unicode="&#x3a5;" horiz-adv-x="278" d="M214 323 L63 323 L63 175 L214 175 L214 323 Z " />
<glyph glyph-name="Phi" unicode="&#x3a6;" horiz-adv-x="278" d="M214 323 L63 323 L63 175 L214 175 L214 323 Z " />
<glyph glyph-name="Chi" unicode="&#x3a7;" horiz-adv-x="278" d="M214 323 L63 323 L63 175 L214 175 L214 323 Z " />
<glyph glyph-name="Psi" unicode="&#x3a8;" horiz-adv-x="278" d="M214 323 L63 323 L63 175 L214 175 L214 323 Z " />
<glyph glyph-name="uni03A9" unicode="&#x3a9;" horiz-adv-x="278" d="M214 323 L63 323 L63 175 L214 175 L214 323 Z " />
<glyph glyph-name="Iotadieresis" unicode="&#x3aa;" horiz-adv-x="278" d="M214 323 L63 323 L63 175 L214 175 L214 323 Z " />
<glyph glyph-name="Upsilondieresis" unicode="&#x3ab;" horiz-adv-x="278" d="M214 323 L63 323 L63 175 L214 175 L214 323 Z " />
<glyph glyph-name="alphatonos" unicode="&#x3ac;" horiz-adv-x="278" d="M214 323 L63 323 L63 175 L214 175 L214 323 Z " />
<glyph glyph-name="epsilontonos" unicode="&#x3ad;" horiz-adv-x="278" d="M214 323 L63 323 L63 175 L214 175 L214 323 Z " />
<glyph glyph-name="etatonos" unicode="&#x3ae;" horiz-adv-x="278" d="M214 323 L63 323 L63 175 L214 175 L214 323 Z " />
<glyph glyph-name="iotatonos" unicode="&#x3af;" horiz-adv-x="278" d="M214 323 L63 323 L63 175 L214 175 L214 323 Z " />
<glyph glyph-name="upsilondieresistonos" unicode="&#x3b0;" horiz-adv-x="278" d="M214 323 L63 323 L63 175 L214 175 L214 323 Z " />
<glyph glyph-name="alpha" unicode="&#x3b1;" horiz-adv-x="278" d="M214 323 L63 323 L63 175 L214 175 L214 323 Z " />
<glyph glyph-name="beta" unicode="&#x3b2;" horiz-adv-x="278" d="M214 323 L63 323 L63 175 L214 175 L214 323 Z " />
<glyph glyph-name="gamma" unicode="&#x3b3;" horiz-adv-x="278" d="M214 323 L63 323 L63 175 L214 175 L214 323 Z " />
<glyph glyph-name="delta" unicode="&#x3b4;" horiz-adv-x="278" d="M214 323 L63 323 L63 175 L214 175 L214 323 Z " />
<glyph glyph-name="epsilon" unicode="&#x3b5;" horiz-adv-x="278" d="M214 323 L63 323 L63 175 L214 175 L214 323 Z " />
<glyph glyph-name="zeta" unicode="&#x3b6;" horiz-adv-x="278" d="M214 323 L63 323 L63 175 L214 175 L214 323 Z " />
<glyph glyph-name="eta" unicode="&#x3b7;" horiz-adv-x="278" d="M214 323 L63 323 L63 175 L214 175 L214 323 Z " />
<glyph glyph-name="theta" unicode="&#x3b8;" horiz-adv-x="278" d="M214 323 L63 323 L63 175 L214 175 L214 323 Z " />
<glyph glyph-name="iota" unicode="&#x3b9;" horiz-adv-x="278" d="M214 323 L63 323 L63 175 L214 175 L214 323 Z " />
<glyph glyph-name="kappa" unicode="&#x3ba;" horiz-adv-x="278" d="M214 323 L63 323 L63 175 L214 175 L214 323 Z " />
<glyph glyph-name="lambda" unicode="&#x3bb;" horiz-adv-x="278" d="M214 323 L63 323 L63 175 L214 175 L214 323 Z " />
<glyph glyph-name="uni03BC" unicode="&#x3bc;" horiz-adv-x="278" d="M214 323 L63 323 L63 175 L214 175 L214 323 Z " />
<glyph glyph-name="nu" unicode="&#x3bd;" horiz-adv-x="278" d="M214 323 L63 323 L63 175 L214 175 L214 323 Z " />
<glyph glyph-name="xi" unicode="&#x3be;" horiz-adv-x="278" d="M214 323 L63 323 L63 175 L214 175 L214 323 Z " />
<glyph glyph-name="omicron" unicode="&#x3bf;" horiz-adv-x="278" d="M214 323 L63 323 L63 175 L214 175 L214 323 Z " />
<glyph glyph-name="pi" unicode="&#x3c0;" horiz-adv-x="278" d="M214 323 L63 323 L63 175 L214 175 L214 323 Z " />
<glyph glyph-name="rho" unicode="&#x3c1;" horiz-adv-x="278" d="M214 323 L63 323 L63 175 L214 175 L214 323 Z " />
<glyph glyph-name="uni03C2" unicode="&#x3c2;" horiz-adv-x="278" d="M214 323 L63 323 L63 175 L214 175 L214 323 Z " />
<glyph glyph-name="sigma" unicode="&#x3c3;" horiz-adv-x="278" d="M214 323 L63 323 L63 175 L214 175 L214 323 Z " />
<glyph glyph-name="tau" unicode="&#x3c4;" horiz-adv-x="278" d="M214 323 L63 323 L63 175 L214 175 L214 323 Z " />
<glyph glyph-name="upsilon" unicode="&#x3c5;" horiz-adv-x="278" d="M214 323 L63 323 L63 175 L214 175 L214 323 Z " />
<glyph glyph-name="phi" unicode="&#x3c6;" horiz-adv-x="278" d="M214 323 L63 323 L63 175 L214 175 L214 323 Z " />
<glyph glyph-name="chi" unicode="&#x3c7;" horiz-adv-x="278" d="M214 323 L63 323 L63 175 L214 175 L214 323 Z " />
<glyph glyph-name="psi" unicode="&#x3c8;" horiz-adv-x="278" d="M214 323 L63 323 L63 175 L214 175 L214 323 Z " />
<glyph glyph-name="omega" unicode="&#x3c9;" horiz-adv-x="278" d="M214 323 L63 323 L63 175 L214 175 L214 323 Z " />
<glyph glyph-name="iotadieresis" unicode="&#x3ca;" horiz-adv-x="278" d="M214 323 L63 323 L63 175 L214 175 L214 323 Z " />
<glyph glyph-name="upsilondieresis" unicode="&#x3cb;" horiz-adv-x="278" d="M214 323 L63 323 L63 175 L214 175 L214 323 Z " />
<glyph glyph-name="omicrontonos" unicode="&#x3cc;" horiz-adv-x="278" d="M214 323 L63 323 L63 175 L214 175 L214 323 Z " />
<glyph glyph-name="upsilontonos" unicode="&#x3cd;" horiz-adv-x="278" d="M214 323 L63 323 L63 175 L214 175 L214 323 Z " />
<glyph glyph-name="omegatonos" unicode="&#x3ce;" horiz-adv-x="278" d="M214 323 L63 323 L63 175 L214 175 L214 323 Z " />
<glyph glyph-name="theta1" unicode="&#x3d1;" horiz-adv-x="278" d="M214 323 L63 323 L63 175 L214 175 L214 323 Z " />
<glyph glyph-name="Upsilon1" unicode="&#x3d2;" horiz-adv-x="278" d="M214 323 L63 323 L63 175 L214 175 L214 323 Z " />
<glyph glyph-name="phi1" unicode="&#x3d5;" horiz-adv-x="278" d="M214 323 L63 323 L63 175 L214 175 L214 323 Z " />
<glyph glyph-name="omega1" unicode="&#x3d6;" horiz-adv-x="278" d="M214 323 L63 323 L63 175 L214 175 L214 323 Z " />
<glyph glyph-name="afii10023" unicode="&#x401;" horiz-adv-x="278" d="M214 323 L63 323 L63 175 L214 175 L214 323 Z " />
<glyph glyph-name="afii10051" unicode="&#x402;" horiz-adv-x="278" d="M214 323 L63 323 L63 175 L214 175 L214 323 Z " />
<glyph glyph-name="afii10052" unicode="&#x403;" horiz-adv-x="278" d="M214 323 L63 323 L63 175 L214 175 L214 323 Z " />
<glyph glyph-name="afii10053" unicode="&#x404;" horiz-adv-x="278" d="M214 323 L63 323 L63 175 L214 175 L214 323 Z " />
<glyph glyph-name="afii10054" unicode="&#x405;" horiz-adv-x="278" d="M214 323 L63 323 L63 175 L214 175 L214 323 Z " />
<glyph glyph-name="afii10055" unicode="&#x406;" horiz-adv-x="278" d="M214 323 L63 323 L63 175 L214 175 L214 323 Z " />
<glyph glyph-name="afii10056" unicode="&#x407;" horiz-adv-x="278" d="M214 323 L63 323 L63 175 L214 175 L214 323 Z " />
<glyph glyph-name="afii10057" unicode="&#x408;" horiz-adv-x="278" d="M214 323 L63 323 L63 175 L214 175 L214 323 Z " />
<glyph glyph-name="afii10058" unicode="&#x409;" horiz-adv-x="278" d="M214 323 L63 323 L63 175 L214 175 L214 323 Z " />
<glyph glyph-name="afii10059" unicode="&#x40a;" horiz-adv-x="278" d="M214 323 L63 323 L63 175 L214 175 L214 323 Z " />
<glyph glyph-name="afii10060" unicode="&#x40b;" horiz-adv-x="278" d="M214 323 L63 323 L63 175 L214 175 L214 323 Z " />
<glyph glyph-name="afii10061" unicode="&#x40c;" horiz-adv-x="278" d="M214 323 L63 323 L63 175 L214 175 L214 323 Z " />
<glyph glyph-name="afii10062" unicode="&#x40e;" horiz-adv-x="278" d="M214 323 L63 323 L63 175 L214 175 L214 323 Z " />
<glyph glyph-name="afii10145" unicode="&#x40f;" horiz-adv-x="278" d="M214 323 L63 323 L63 175 L214 175 L214 323 Z " />
<glyph glyph-name="afii10017" unicode="&#x410;" horiz-adv-x="278" d="M214 323 L63 323 L63 175 L214 175 L214 323 Z " />
<glyph glyph-name="afii10018" unicode="&#x411;" horiz-adv-x="278" d="M214 323 L63 323 L63 175 L214 175 L214 323 Z " />
<glyph glyph-name="afii10019" unicode="&#x412;" horiz-adv-x="278" d="M214 323 L63 323 L63 175 L214 175 L214 323 Z " />
<glyph glyph-name="afii10020" unicode="&#x413;" horiz-adv-x="278" d="M214 323 L63 323 L63 175 L214 175 L214 323 Z " />
<glyph glyph-name="afii10021" unicode="&#x414;" horiz-adv-x="278" d="M214 323 L63 323 L63 175 L214 175 L214 323 Z " />
<glyph glyph-name="afii10022" unicode="&#x415;" horiz-adv-x="278" d="M214 323 L63 323 L63 175 L214 175 L214 323 Z " />
<glyph glyph-name="afii10024" unicode="&#x416;" horiz-adv-x="278" d="M214 323 L63 323 L63 175 L214 175 L214 323 Z " />
<glyph glyph-name="afii10025" unicode="&#x417;" horiz-adv-x="278" d="M214 323 L63 323 L63 175 L214 175 L214 323 Z " />
<glyph glyph-name="afii10026" unicode="&#x418;" horiz-adv-x="278" d="M214 323 L63 323 L63 175 L214 175 L214 323 Z " />
<glyph glyph-name="afii10027" unicode="&#x419;" horiz-adv-x="278" d="M214 323 L63 323 L63 175 L214 175 L214 323 Z " />
<glyph glyph-name="afii10028" unicode="&#x41a;" horiz-adv-x="278" d="M214 323 L63 323 L63 175 L214 175 L214 323 Z " />
<glyph glyph-name="afii10029" unicode="&#x41b;" horiz-adv-x="278" d="M214 323 L63 323 L63 175 L214 175 L214 323 Z " />
<glyph glyph-name="afii10030" unicode="&#x41c;" horiz-adv-x="278" d="M214 323 L63 323 L63 175 L214 175 L214 323 Z " />
<glyph glyph-name="afii10031" unicode="&#x41d;" horiz-adv-x="278" d="M214 323 L63 323 L63 175 L214 175 L214 323 Z " />
<glyph glyph-name="afii10032" unicode="&#x41e;" horiz-adv-x="278" d="M214 323 L63 323 L63 175 L214 175 L214 323 Z " />
<glyph glyph-name="afii10033" unicode="&#x41f;" horiz-adv-x="278" d="M214 323 L63 323 L63 175 L214 175 L214 323 Z " />
<glyph glyph-name="afii10034" unicode="&#x420;" horiz-adv-x="278" d="M214 323 L63 323 L63 175 L214 175 L214 323 Z " />
<glyph glyph-name="afii10035" unicode="&#x421;" horiz-adv-x="278" d="M214 323 L63 323 L63 175 L214 175 L214 323 Z " />
<glyph glyph-name="afii10036" unicode="&#x422;" horiz-adv-x="278" d="M214 323 L63 323 L63 175 L214 175 L214 323 Z " />
<glyph glyph-name="afii10037" unicode="&#x423;" horiz-adv-x="278" d="M214 323 L63 323 L63 175 L214 175 L214 323 Z " />
<glyph glyph-name="afii10038" unicode="&#x424;" horiz-adv-x="278" d="M214 323 L63 323 L63 175 L214 175 L214 323 Z " />
<glyph glyph-name="afii10039" unicode="&#x425;" horiz-adv-x="278" d="M214 323 L63 323 L63 175 L214 175 L214 323 Z " />
<glyph glyph-name="afii10040" unicode="&#x426;" horiz-adv-x="278" d="M214 323 L63 323 L63 175 L214 175 L214 323 Z " />
<glyph glyph-name="afii10041" unicode="&#x427;" horiz-adv-x="278" d="M214 323 L63 323 L63 175 L214 175 L214 323 Z " />
<glyph glyph-name="afii10042" unicode="&#x428;" horiz-adv-x="278" d="M214 323 L63 323 L63 175 L214 175 L214 323 Z " />
<glyph glyph-name="afii10043" unicode="&#x429;" horiz-adv-x="278" d="M214 323 L63 323 L63 175 L214 175 L214 323 Z " />
<glyph glyph-name="afii10044" unicode="&#x42a;" horiz-adv-x="278" d="M214 323 L63 323 L63 175 L214 175 L214 323 Z " />
<glyph glyph-name="afii10045" unicode="&#x42b;" horiz-adv-x="278" d="M214 323 L63 323 L63 175 L214 175 L214 323 Z " />
<glyph glyph-name="afii10046" unicode="&#x42c;" horiz-adv-x="278" d="M214 323 L63 323 L63 175 L214 175 L214 323 Z " />
<glyph glyph-name="afii10047" unicode="&#x42d;" horiz-adv-x="278" d="M214 323 L63 323 L63 175 L214 175 L214 323 Z " />
<glyph glyph-name="afii10048" unicode="&#x42e;" horiz-adv-x="278" d="M214 323 L63 323 L63 175 L214 175 L214 323 Z " />
<glyph glyph-name="afii10049" unicode="&#x42f;" horiz-adv-x="278" d="M214 323 L63 323 L63 175 L214 175 L214 323 Z " />
<glyph glyph-name="afii10065" unicode="&#x430;" horiz-adv-x="278" d="M214 323 L63 323 L63 175 L214 175 L214 323 Z " />
<glyph glyph-name="afii10066" unicode="&#x431;" horiz-adv-x="278" d="M214 323 L63 323 L63 175 L214 175 L214 323 Z " />
<glyph glyph-name="afii10067" unicode="&#x432;" horiz-adv-x="278" d="M214 323 L63 323 L63 175 L214 175 L214 323 Z " />
<glyph glyph-name="afii10068" unicode="&#x433;" horiz-adv-x="278" d="M214 323 L63 323 L63 175 L214 175 L214 323 Z " />
<glyph glyph-name="afii10069" unicode="&#x434;" horiz-adv-x="278" d="M214 323 L63 323 L63 175 L214 175 L214 323 Z " />
<glyph glyph-name="afii10070" unicode="&#x435;" horiz-adv-x="278" d="M214 323 L63 323 L63 175 L214 175 L214 323 Z " />
<glyph glyph-name="afii10072" unicode="&#x436;" horiz-adv-x="278" d="M214 323 L63 323 L63 175 L214 175 L214 323 Z " />
<glyph glyph-name="afii10073" unicode="&#x437;" horiz-adv-x="278" d="M214 323 L63 323 L63 175 L214 175 L214 323 Z " />
<glyph glyph-name="afii10074" unicode="&#x438;" horiz-adv-x="278" d="M214 323 L63 323 L63 175 L214 175 L214 323 Z " />
<glyph glyph-name="afii10075" unicode="&#x439;" horiz-adv-x="278" d="M214 323 L63 323 L63 175 L214 175 L214 323 Z " />
<glyph glyph-name="afii10076" unicode="&#x43a;" horiz-adv-x="278" d="M214 323 L63 323 L63 175 L214 175 L214 323 Z " />
<glyph glyph-name="afii10077" unicode="&#x43b;" horiz-adv-x="278" d="M214 323 L63 323 L63 175 L214 175 L214 323 Z " />
<glyph glyph-name="afii10078" unicode="&#x43c;" horiz-adv-x="278" d="M214 323 L63 323 L63 175 L214 175 L214 323 Z " />
<glyph glyph-name="afii10079" unicode="&#x43d;" horiz-adv-x="278" d="M214 323 L63 323 L63 175 L214 175 L214 323 Z " />
<glyph glyph-name="afii10080" unicode="&#x43e;" horiz-adv-x="278" d="M214 323 L63 323 L63 175 L214 175 L214 323 Z " />
<glyph glyph-name="afii10081" unicode="&#x43f;" horiz-adv-x="278" d="M214 323 L63 323 L63 175 L214 175 L214 323 Z " />
<glyph glyph-name="afii10082" unicode="&#x440;" horiz-adv-x="278" d="M214 323 L63 323 L63 175 L214 175 L214 323 Z " />
<glyph glyph-name="afii10083" unicode="&#x441;" horiz-adv-x="278" d="M214 323 L63 323 L63 175 L214 175 L214 323 Z " />
<glyph glyph-name="afii10084" unicode="&#x442;" horiz-adv-x="278" d="M214 323 L63 323 L63 175 L214 175 L214 323 Z " />
<glyph glyph-name="afii10085" unicode="&#x443;" horiz-adv-x="278" d="M214 323 L63 323 L63 175 L214 175 L214 323 Z " />
<glyph glyph-name="afii10086" unicode="&#x444;" horiz-adv-x="278" d="M214 323 L63 323 L63 175 L214 175 L214 323 Z " />
<glyph glyph-name="afii10087" unicode="&#x445;" horiz-adv-x="278" d="M214 323 L63 323 L63 175 L214 175 L214 323 Z " />
<glyph glyph-name="afii10088" unicode="&#x446;" horiz-adv-x="278" d="M214 323 L63 323 L63 175 L214 175 L214 323 Z " />
<glyph glyph-name="afii10089" unicode="&#x447;" horiz-adv-x="278" d="M214 323 L63 323 L63 175 L214 175 L214 323 Z " />
<glyph glyph-name="afii10090" unicode="&#x448;" horiz-adv-x="278" d="M214 323 L63 323 L63 175 L214 175 L214 323 Z " />
<glyph glyph-name="afii10091" unicode="&#x449;" horiz-adv-x="278" d="M214 323 L63 323 L63 175 L214 175 L214 323 Z " />
<glyph glyph-name="afii10092" unicode="&#x44a;" horiz-adv-x="278" d="M214 323 L63 323 L63 175 L214 175 L214 323 Z " />
<glyph glyph-name="afii10093" unicode="&#x44b;" horiz-adv-x="278" d="M214 323 L63 323 L63 175 L214 175 L214 323 Z " />
<glyph glyph-name="afii10094" unicode="&#x44c;" horiz-adv-x="278" d="M214 323 L63 323 L63 175 L214 175 L214 323 Z " />
<glyph glyph-name="afii10095" unicode="&#x44d;" horiz-adv-x="278" d="M214 323 L63 323 L63 175 L214 175 L214 323 Z " />
<glyph glyph-name="afii10096" unicode="&#x44e;" horiz-adv-x="278" d="M214 323 L63 323 L63 175 L214 175 L214 323 Z " />
<glyph glyph-name="afii10097" unicode="&#x44f;" horiz-adv-x="278" d="M214 323 L63 323 L63 175 L214 175 L214 323 Z " />
<glyph glyph-name="afii10071" unicode="&#x451;" horiz-adv-x="278" d="M214 323 L63 323 L63 175 L214 175 L214 323 Z " />
<glyph glyph-name="afii10099" unicode="&#x452;" horiz-adv-x="278" d="M214 323 L63 323 L63 175 L214 175 L214 323 Z " />
<glyph glyph-name="afii10100" unicode="&#x453;" horiz-adv-x="278" d="M214 323 L63 323 L63 175 L214 175 L214 323 Z " />
<glyph glyph-name="afii10101" unicode="&#x454;" horiz-adv-x="278" d="M214 323 L63 323 L63 175 L214 175 L214 323 Z " />
<glyph glyph-name="afii10102" unicode="&#x455;" horiz-adv-x="278" d="M214 323 L63 323 L63 175 L214 175 L214 323 Z " />
<glyph glyph-name="afii10103" unicode="&#x456;" horiz-adv-x="278" d="M214 323 L63 323 L63 175 L214 175 L214 323 Z " />
<glyph glyph-name="afii10104" unicode="&#x457;" horiz-adv-x="278" d="M214 323 L63 323 L63 175 L214 175 L214 323 Z " />
<glyph glyph-name="afii10105" unicode="&#x458;" horiz-adv-x="278" d="M214 323 L63 323 L63 175 L214 175 L214 323 Z " />
<glyph glyph-name="afii10106" unicode="&#x459;" horiz-adv-x="278" d="M214 323 L63 323 L63 175 L214 175 L214 323 Z " />
<glyph glyph-name="afii10107" unicode="&#x45a;" horiz-adv-x="278" d="M214 323 L63 323 L63 175 L214 175 L214 323 Z " />
<glyph glyph-name="afii10108" unicode="&#x45b;" horiz-adv-x="278" d="M214 323 L63 323 L63 175 L214 175 L214 323 Z " />
<glyph glyph-name="afii10109" unicode="&#x45c;" horiz-adv-x="278" d="M214 323 L63 323 L63 175 L214 175 L214 323 Z " />
<glyph glyph-name="afii10110" unicode="&#x45e;" horiz-adv-x="278" d="M214 323 L63 323 L63 175 L214 175 L214 323 Z " />
<glyph glyph-name="afii10193" unicode="&#x45f;" horiz-adv-x="278" d="M214 323 L63 323 L63 175 L214 175 L214 323 Z " />
<glyph glyph-name="afii10050" unicode="&#x490;" horiz-adv-x="278" d="M214 323 L63 323 L63 175 L214 175 L214 323 Z " />
<glyph glyph-name="afii10098" unicode="&#x491;" horiz-adv-x="278" d="M214 323 L63 323 L63 175 L214 175 L214 323 Z " />
<glyph glyph-name="uni0492" unicode="&#x492;" horiz-adv-x="278" d="M214 323 L63 323 L63 175 L214 175 L214 323 Z " />
<glyph glyph-name="uni0493" unicode="&#x493;" horiz-adv-x="278" d="M214 323 L63 323 L63 175 L214 175 L214 323 Z " />
<glyph glyph-name="uni0496" unicode="&#x496;" horiz-adv-x="278" d="M214 323 L63 323 L63 175 L214 175 L214 323 Z " />
<glyph glyph-name="uni0497" unicode="&#x497;" horiz-adv-x="278" d="M214 323 L63 323 L63 175 L214 175 L214 323 Z " />
<glyph glyph-name="uni049A" unicode="&#x49a;" horiz-adv-x="278" d="M214 323 L63 323 L63 175 L214 175 L214 323 Z " />
<glyph glyph-name="uni049B" unicode="&#x49b;" horiz-adv-x="278" d="M214 323 L63 323 L63 175 L214 175 L214 323 Z " />
<glyph glyph-name="uni049C" unicode="&#x49c;" horiz-adv-x="278" d="M214 323 L63 323 L63 175 L214 175 L214 323 Z " />
<glyph glyph-name="uni049D" unicode="&#x49d;" horiz-adv-x="278" d="M214 323 L63 323 L63 175 L214 175 L214 323 Z " />
<glyph glyph-name="uni04A2" unicode="&#x4a2;" horiz-adv-x="278" d="M214 323 L63 323 L63 175 L214 175 L214 323 Z " />
<glyph glyph-name="uni04A3" unicode="&#x4a3;" horiz-adv-x="278" d="M214 323 L63 323 L63 175 L214 175 L214 323 Z " />
<glyph glyph-name="uni04AE" unicode="&#x4ae;" horiz-adv-x="278" d="M214 323 L63 323 L63 175 L214 175 L214 323 Z " />
<glyph glyph-name="uni04AF" unicode="&#x4af;" horiz-adv-x="278" d="M214 323 L63 323 L63 175 L214 175 L214 323 Z " />
<glyph glyph-name="uni04B0" unicode="&#x4b0;" horiz-adv-x="278" d="M214 323 L63 323 L63 175 L214 175 L214 323 Z " />
<glyph glyph-name="uni04B1" unicode="&#x4b1;" horiz-adv-x="278" d="M214 323 L63 323 L63 175 L214 175 L214 323 Z " />
<glyph glyph-name="uni04B2" unicode="&#x4b2;" horiz-adv-x="278" d="M214 323 L63 323 L63 175 L214 175 L214 323 Z " />
<glyph glyph-name="uni04B3" unicode="&#x4b3;" horiz-adv-x="278" d="M214 323 L63 323 L63 175 L214 175 L214 323 Z " />
<glyph glyph-name="uni04B8" unicode="&#x4b8;" horiz-adv-x="278" d="M214 323 L63 323 L63 175 L214 175 L214 323 Z " />
<glyph glyph-name="uni04B9" unicode="&#x4b9;" horiz-adv-x="278" d="M214 323 L63 323 L63 175 L214 175 L214 323 Z " />
<glyph glyph-name="uni04BA" unicode="&#x4ba;" horiz-adv-x="278" d="M214 323 L63 323 L63 175 L214 175 L214 323 Z " />
<glyph glyph-name="uni04BB" unicode="&#x4bb;" horiz-adv-x="278" d="M214 323 L63 323 L63 175 L214 175 L214 323 Z " />
<glyph glyph-name="uni04C0" unicode="&#x4c0;" horiz-adv-x="278" d="M214 323 L63 323 L63 175 L214 175 L214 323 Z " />
<glyph glyph-name="uni04D8" unicode="&#x4d8;" horiz-adv-x="278" d="M214 323 L63 323 L63 175 L214 175 L214 323 Z " />
<glyph glyph-name="afii10846" unicode="&#x4d9;" horiz-adv-x="278" d="M214 323 L63 323 L63 175 L214 175 L214 323 Z " />
<glyph glyph-name="uni04E8" unicode="&#x4e8;" horiz-adv-x="278" d="M214 323 L63 323 L63 175 L214 175 L214 323 Z " />
<glyph glyph-name="uni04E9" unicode="&#x4e9;" horiz-adv-x="278" d="M214 323 L63 323 L63 175 L214 175 L214 323 Z " />
<glyph glyph-name="Wdieresis" unicode="&#x1e84;" horiz-adv-x="882" d="M881 667 L736 667 L671 398 C647 289 632 204 626 143 C618 213 614 235 581 392 L511 667 L373 667 L301 386 C278 289 261 196 256 143 C252 200 235 296 214 387 L148 667 L2 667 L180 0 L328 0 L398 289 C413 348 432 449 440 508 C453 427 467 352 482 286 L555 0 L700 0 L881 667 Z M609 842 L480 842 L480 735 L609 735 L609 842 Z M402 842 L273 842 L273 735 L402 735 L402 842 Z " />
<glyph glyph-name="uni2002" unicode="&#x2002;" horiz-adv-x="500" d="" />
<glyph glyph-name="uni2003" unicode="&#x2003;" horiz-adv-x="1000" d="" />
<glyph glyph-name="uni2007" unicode="&#x2007;" horiz-adv-x="560" d="" />
<glyph glyph-name="uni200A" unicode="&#x200a;" horiz-adv-x="125" d="" />
<glyph glyph-name="uni2011" unicode="&#x2011;" horiz-adv-x="253" d="M253 308 L0 308 L0 189 L253 189 L253 308 Z " />
<glyph glyph-name="figuredash" unicode="&#x2012;" horiz-adv-x="560" d="M506 308 L53 308 L53 189 L506 189 L506 308 Z " />
<glyph glyph-name="endash" unicode="&#x2013;" horiz-adv-x="560" d="M506 308 L53 308 L53 189 L506 189 L506 308 Z " />
<glyph glyph-name="emdash" unicode="&#x2014;" horiz-adv-x="740" d="M740 308 L0 308 L0 189 L740 189 L740 308 Z " />
<glyph glyph-name="afii00208" unicode="&#x2015;" horiz-adv-x="740" d="M740 308 L0 308 L0 189 L740 189 L740 308 Z " />
<glyph glyph-name="quoteleft" unicode="&#x2018;" horiz-adv-x="275" d="M63 375 L212 375 L212 521 L145 521 C146 568 171 602 212 611 L212 677 C171 673 140 659 113 634 C78 601 63 558 63 489 L63 375 Z " />
<glyph glyph-name="quoteright" unicode="&#x2019;" horiz-adv-x="275" d="M212 667 L63 667 L63 521 L130 521 C129 475 104 441 63 432 L63 366 C104 370 135 384 162 409 C197 441 212 484 212 553 L212 667 Z " />
<glyph glyph-name="quotesinglbase" unicode="&#x201a;" horiz-adv-x="275" d="M212 146 L63 146 L63 0 L130 0 C129 -46 104 -80 63 -89 L63 -155 C104 -151 135 -137 162 -112 C197 -79 212 -37 212 32 L212 146 Z " />
<glyph glyph-name="quotedblleft" unicode="&#x201c;" horiz-adv-x="457" d="M63 379 L197 379 L197 523 L134 523 C135 572 156 604 197 615 L197 677 C159 670 125 651 101 623 C75 592 63 553 63 496 L63 379 Z M259 379 L393 379 L393 523 L330 523 C331 572 352 604 393 615 L393 677 C355 670 321 651 297 623 C271 592 259 553 259 496 L259 379 Z " />
<glyph glyph-name="quotedblright" unicode="&#x201d;" horiz-adv-x="457" d="M393 667 L259 667 L259 524 L322 524 C321 474 300 443 259 433 L259 370 C297 377 331 396 355 424 C381 455 393 494 393 551 L393 667 Z M197 667 L63 667 L63 524 L126 524 C125 474 104 443 63 433 L63 370 C101 377 135 396 159 424 C185 455 197 494 197 551 L197 667 Z " />
<glyph glyph-name="quotedblbase" unicode="&#x201e;" horiz-adv-x="457" d="M393 143 L259 143 L259 0 L322 0 C321 -49 300 -80 259 -91 L259 -153 C297 -147 331 -127 355 -100 C381 -69 393 -30 393 27 L393 143 Z M197 143 L63 143 L63 0 L126 0 C125 -49 104 -80 63 -91 L63 -153 C101 -147 135 -127 159 -100 C185 -69 197 -30 197 27 L197 143 Z " />
<glyph glyph-name="dagger" unicode="&#x2020;" horiz-adv-x="560" d="M518 483 L344 483 L344 667 L215 667 L215 483 L42 483 L42 369 L215 369 L215 -171 L344 -171 L344 369 L518 369 L518 483 Z " />
<glyph glyph-name="daggerdbl" unicode="&#x2021;" horiz-adv-x="560" d="M518 481 L344 481 L344 667 L215 667 L215 481 L42 481 L42 370 L215 370 L215 127 L42 127 L42 16 L215 16 L215 -171 L344 -171 L344 16 L518 16 L518 127 L344 127 L344 370 L518 370 L518 481 Z " />
<glyph glyph-name="bullet" unicode="&#x2022;" horiz-adv-x="667" d="M336 477 C292 477 264 467 237 439 C211 413 196 377 196 339 C196 263 258 200 334 200 C408 200 473 265 473 340 C473 372 456 411 430 439 C406 465 376 477 336 477 L336 477 Z " />
<glyph glyph-name="ellipsis" unicode="&#x2026;" horiz-adv-x="834" d="M214 148 L63 148 L63 0 L214 0 L214 148 Z M492 148 L341 148 L341 0 L492 0 L492 148 Z M770 148 L619 148 L619 0 L770 0 L770 148 Z " />
<glyph glyph-name="perthousand" unicode="&#x2030;" horiz-adv-x="1010" d="M583 674 L503 674 L91 -26 L172 -26 L583 674 Z M518 309 C428 309 379 252 379 147 C379 43 427 -12 516 -12 C604 -12 652 46 652 152 C652 251 602 309 518 309 L518 309 Z M516 248 C550 248 568 215 568 151 C568 83 551 49 517 49 C479 49 463 79 463 148 C463 216 480 248 516 248 L516 248 Z M843 309 C753 309 704 252 704 147 C704 42 751 -12 841 -12 C929 -12 976 46 976 152 C976 252 928 309 843 309 L843 309 Z M841 248 C876 248 892 218 892 151 C892 82 876 49 841 49 C805 49 787 82 787 147 C787 216 804 248 841 248 L841 248 Z M172 660 C81 660 33 604 33 498 C33 396 81 339 168 339 C255 339 306 399 306 500 C306 604 259 660 172 660 L172 660 Z M169 599 C205 599 221 568 221 502 C221 435 203 401 169 401 C134 401 117 432 117 495 C117 566 134 599 169 599 L169 599 Z " />
<glyph glyph-name="guilsinglleft" unicode="&#x2039;" horiz-adv-x="245" d="M190 426 L43 310 L43 185 L190 71 L190 181 L106 247 L190 313 L190 426 Z " />
<glyph glyph-name="guilsinglright" unicode="&#x203a;" horiz-adv-x="245" d="M56 426 L56 313 L140 247 L56 181 L56 71 L203 185 L203 310 L56 426 Z " />
<glyph glyph-name="uni203E" unicode="&#x203e;" horiz-adv-x="500" d="M0 874 L0 789 L500 789 L500 874 L0 874 Z " />
<glyph glyph-name="fraction" unicode="&#x2044;" horiz-adv-x="162" d="M302 657 L226 657 L-140 0 L-62 0 L302 657 Z " />
<glyph glyph-name="zerosuperior" unicode="&#x2070;" horiz-adv-x="375" d="M189 664 C90 664 30 588 30 461 C30 336 89 261 188 261 C285 261 344 337 344 462 C344 588 286 664 189 664 L189 664 Z M188 593 C233 593 254 552 254 462 C254 373 233 332 188 332 C141 332 120 372 120 458 C120 554 140 593 188 593 L188 593 Z " />
<glyph glyph-name="foursuperior" unicode="&#x2074;" horiz-adv-x="375" d="M350 427 L296 427 L296 661 L213 661 L28 432 L28 355 L208 355 L208 267 L296 267 L296 355 L350 355 L350 427 Z M211 424 L102 424 L211 566 L211 424 Z " />
<glyph glyph-name="fivesuperior" unicode="&#x2075;" horiz-adv-x="375" d="M319 657 L79 657 L37 438 L119 437 C135 460 151 469 180 469 C222 469 249 442 249 400 C249 359 220 330 180 330 C144 330 118 353 114 387 L24 387 C28 308 87 260 180 260 C273 260 342 320 342 403 C342 480 286 533 205 533 C175 533 156 527 132 510 C134 520 135 525 138 538 L146 582 L319 582 L319 657 Z " />
<glyph glyph-name="sixsuperior" unicode="&#x2076;" horiz-adv-x="375" d="M340 553 C329 624 279 664 200 664 C97 664 33 584 33 455 C33 333 94 260 196 260 C283 260 347 320 347 401 C347 477 291 532 213 532 C176 532 147 521 123 495 C130 562 157 598 199 598 C227 598 245 583 253 553 L340 553 Z M194 467 C229 467 258 436 258 399 C258 360 230 331 194 331 C158 331 130 360 130 399 C130 437 158 467 194 467 L194 467 Z " />
<glyph glyph-name="sevensuperior" unicode="&#x2077;" horiz-adv-x="375" d="M334 657 L41 657 L41 579 L187 579 C195 579 199 579 237 580 C161 501 101 362 100 267 L195 267 C203 394 237 482 312 565 C318 570 323 576 329 582 L334 587 L334 657 Z " />
<glyph glyph-name="eightsuperior" unicode="&#x2078;" horiz-adv-x="375" d="M97 476 C50 459 27 427 27 381 C27 309 92 260 188 260 C284 260 350 311 350 384 C350 429 326 459 279 476 C316 494 333 519 333 557 C333 619 272 664 189 664 C106 664 44 617 44 556 C44 520 63 492 97 476 L97 476 Z M189 598 C226 598 249 580 249 551 C249 521 225 502 189 502 C153 502 128 522 128 551 C128 579 152 598 189 598 L189 598 Z M188 443 C230 443 258 420 258 385 C258 351 230 327 188 327 C147 327 119 351 119 386 C119 421 145 443 188 443 L188 443 Z " />
<glyph glyph-name="ninesuperior" unicode="&#x2079;" horiz-adv-x="375" d="M36 371 C44 302 98 260 178 260 C278 260 342 342 342 471 C342 533 331 572 305 607 C276 643 232 664 183 664 C95 664 29 603 29 522 C29 447 87 391 165 391 C201 391 228 403 251 429 C243 360 219 327 178 327 C147 327 129 342 123 371 L36 371 Z M183 593 C218 593 245 563 245 524 C245 486 218 457 182 457 C146 457 118 486 118 525 C118 564 146 593 183 593 L183 593 Z " />
<glyph glyph-name="parenleftsuperior" unicode="&#x207d;" horiz-adv-x="217" d="M109 667 C55 587 28 505 28 419 C28 363 37 315 58 258 C68 231 93 185 109 165 L186 165 L181 175 C134 263 118 325 118 421 C118 507 142 591 188 667 L109 667 Z " />
<glyph glyph-name="parenrightsuperior" unicode="&#x207e;" horiz-adv-x="217" d="M108 165 C161 243 189 327 189 413 C189 469 180 517 159 574 C148 601 124 645 108 667 L31 667 L36 657 C83 568 99 507 99 411 C99 325 75 241 29 165 L108 165 Z " />
<glyph glyph-name="zeroinferior" unicode="&#x2080;" horiz-adv-x="375" d="M189 397 C90 397 30 321 30 194 C30 69 89 -6 188 -6 C285 -6 344 70 344 195 C344 321 286 397 189 397 L189 397 Z M188 326 C233 326 254 285 254 195 C254 106 233 65 188 65 C141 65 120 105 120 191 C120 287 140 326 188 326 L188 326 Z " />
<glyph glyph-name="oneinferior" unicode="&#x2081;" horiz-adv-x="375" d="M264 394 L191 394 C182 340 146 316 72 316 L72 253 L85 253 L115 253 L145 253 L172 253 L172 0 L264 0 L264 394 Z " />
<glyph glyph-name="twoinferior" unicode="&#x2082;" horiz-adv-x="375" d="M341 75 L209 75 C189 75 173 75 144 73 C156 88 173 102 209 125 C272 163 277 167 288 175 C322 203 339 235 339 275 C339 347 280 396 193 396 C97 396 36 339 36 248 C36 247 36 242 37 237 L125 237 C126 296 146 321 189 321 C224 321 246 301 246 269 C246 242 232 223 192 199 C52 114 32 89 27 0 L341 0 L341 75 Z " />
<glyph glyph-name="threeinferior" unicode="&#x2083;" horiz-adv-x="375" d="M124 261 C126 305 145 326 185 326 C219 326 240 309 240 282 C240 252 217 237 170 237 C163 237 160 237 152 238 L152 175 C162 177 168 177 176 177 C224 177 249 159 249 123 C249 90 223 68 183 68 C139 68 114 94 115 141 L26 141 L26 134 C26 48 88 -6 185 -6 C278 -6 344 47 344 122 C344 166 321 197 279 212 C312 228 329 253 329 288 C329 352 271 396 186 396 C95 396 39 346 37 261 L124 261 Z " />
<glyph glyph-name="fourinferior" unicode="&#x2084;" horiz-adv-x="375" d="M350 161 L296 161 L296 394 L213 394 L28 166 L28 89 L208 89 L208 0 L296 0 L296 89 L350 89 L350 161 Z M211 158 L102 158 L211 300 L211 158 Z " />
<glyph glyph-name="fiveinferior" unicode="&#x2085;" horiz-adv-x="375" d="M319 391 L79 391 L37 172 L119 171 C134 194 152 203 180 203 C222 203 249 176 249 135 C249 93 221 65 180 65 C143 65 118 86 114 121 L24 121 C28 42 86 -6 180 -6 C274 -6 342 54 342 137 C342 214 287 266 205 266 C174 266 156 261 132 244 C134 254 135 259 138 272 L146 316 L319 316 L319 391 Z " />
<glyph glyph-name="sixinferior" unicode="&#x2086;" horiz-adv-x="375" d="M340 287 C329 358 279 397 200 397 C96 397 33 318 33 189 C33 66 93 -6 196 -6 C284 -6 347 53 347 135 C347 211 291 266 213 266 C176 266 148 255 123 230 C130 297 156 330 199 330 C229 330 245 317 253 287 L340 287 Z M194 201 C229 201 258 170 258 132 C258 94 231 65 194 65 C157 65 130 94 130 133 C130 171 158 201 194 201 L194 201 Z " />
<glyph glyph-name="seveninferior" unicode="&#x2087;" horiz-adv-x="375" d="M334 391 L41 391 L41 313 L187 313 C195 313 199 313 237 314 C161 235 101 95 100 0 L195 0 C203 127 237 215 312 299 C318 304 323 310 329 316 L334 321 L334 391 Z " />
<glyph glyph-name="eightinferior" unicode="&#x2088;" horiz-adv-x="375" d="M97 210 C50 192 27 161 27 115 C27 42 91 -6 188 -6 C285 -6 350 44 350 118 C350 163 326 193 279 210 C316 227 333 253 333 291 C333 352 272 397 189 397 C106 397 44 351 44 289 C44 253 63 225 97 210 L97 210 Z M189 332 C225 332 249 313 249 285 C249 255 226 236 189 236 C152 236 128 255 128 285 C128 312 154 332 189 332 L189 332 Z M188 177 C229 177 258 153 258 119 C258 84 230 61 188 61 C147 61 119 84 119 119 C119 154 146 177 188 177 L188 177 Z " />
<glyph glyph-name="nineinferior" unicode="&#x2089;" horiz-adv-x="375" d="M36 105 C44 36 97 -6 178 -6 C279 -6 342 75 342 205 C342 267 331 306 305 340 C276 377 233 397 183 397 C95 397 29 337 29 256 C29 180 87 125 166 125 C201 125 229 137 251 163 C243 94 219 61 178 61 C147 61 129 75 123 105 L36 105 Z M183 326 C218 326 245 297 245 258 C245 219 218 191 182 191 C145 191 118 220 118 258 C118 298 145 326 183 326 L183 326 Z " />
<glyph glyph-name="franc" unicode="&#x20a3;" horiz-adv-x="645" d="M485 651 L64 651 L64 0 L194 0 L194 288 L353 288 L353 389 L194 389 L194 536 L485 536 L485 651 Z M645 396 C631 397 625 398 619 398 C560 398 518 371 485 313 L485 389 L378 389 L378 0 L491 0 L491 148 C491 195 495 221 506 242 C523 275 562 297 601 297 C610 297 616 296 645 291 L645 396 Z " />
<glyph glyph-name="lira" unicode="&#x20a4;" horiz-adv-x="560" d="M218 438 C216 448 212 468 212 476 C210 516 250 550 300 550 C364 550 399 515 401 449 L531 449 C529 585 445 661 297 661 C160 661 69 590 69 484 C69 470 70 461 74 438 L43 438 L43 361 L105 361 C115 338 123 319 138 283 L43 283 L43 206 L150 206 C142 156 111 115 49 73 L107 -13 C145 13 174 24 206 24 C226 24 256 19 291 9 C401 -29 491 -16 555 46 L498 142 C475 117 445 103 412 103 C396 103 385 105 352 114 C325 121 307 124 287 124 C259 124 236 118 203 104 C245 139 269 170 279 206 L371 206 L371 283 L274 283 C266 312 259 334 249 361 L371 361 L371 438 L218 438 Z " />
<glyph glyph-name="peseta" unicode="&#x20a7;" horiz-adv-x="941" d="M65 667 L65 0 L195 0 L195 250 L291 250 C363 250 409 264 447 297 C492 336 514 389 514 458 C514 534 486 592 433 630 C393 658 351 667 265 667 L65 667 Z M195 554 L264 554 C348 554 386 523 386 456 C386 387 350 355 272 355 L195 355 L195 554 Z M642 250 L587 250 L587 323 L502 323 L502 250 L458 250 L458 193 L502 193 L502 88 C502 45 504 34 514 20 C526 1 549 -7 589 -7 C607 -7 619 -6 642 -4 L642 59 C631 57 626 57 613 57 C588 57 587 59 587 85 L587 193 L642 193 L642 250 Z M914 167 C910 228 871 256 790 256 C714 256 669 226 669 176 C669 152 683 129 705 118 C721 110 731 107 783 96 C829 87 838 83 838 70 C838 56 820 46 795 46 C761 46 748 57 745 87 L663 87 C666 22 710 -11 794 -11 C873 -11 924 24 924 77 C924 121 895 142 815 157 C762 167 755 170 755 182 C755 193 768 200 789 200 C820 200 830 192 833 167 L914 167 Z " />
<glyph glyph-name="Euro" unicode="&#x20ac;" horiz-adv-x="560" d="M31 415 L4 341 L78 341 C77 338 77 338 77 327 C77 325 77 316 78 303 L78 300 L31 300 L4 226 L90 226 C103 171 123 128 150 90 C194 30 275 -10 352 -10 C388 -10 427 -2 503 20 L503 149 C428 113 401 105 360 105 C301 105 257 146 230 226 L404 226 L433 300 L215 300 L215 306 L214 321 C214 322 214 329 215 338 L215 341 L450 341 L476 415 L228 415 C254 503 297 547 359 547 C405 547 442 532 505 489 L548 600 C475 649 439 661 369 661 C226 661 124 572 87 415 L31 415 Z " />
<glyph glyph-name="uni2101" unicode="&#x2101;" horiz-adv-x="1023" d="M709 667 L636 667 L360 0 L433 0 L709 667 Z M283 667 L182 667 L17 267 L120 267 L155 355 L309 355 L343 267 L448 267 L283 667 Z M287 425 L177 425 L232 572 L287 425 Z M955 277 C952 363 893 410 787 410 C685 410 620 363 620 288 C620 224 652 197 757 170 C824 153 824 153 841 147 C862 139 871 129 871 113 C871 83 842 64 796 64 C734 64 705 87 703 138 L604 138 C605 43 672 -9 792 -9 C904 -9 972 41 972 122 C972 158 954 189 920 210 C899 224 872 233 817 245 C726 266 716 271 716 294 C716 320 739 336 774 336 L789 336 C809 337 836 327 847 313 C855 303 858 295 860 277 L955 277 Z " />
<glyph glyph-name="afii61352" unicode="&#x2116;" horiz-adv-x="278" d="M214 323 L63 323 L63 175 L214 175 L214 323 Z " />
<glyph glyph-name="trademark" unicode="&#x2122;" horiz-adv-x="885" d="M351 667 L10 667 L10 592 L133 592 L133 287 L228 287 L228 592 L351 592 L351 667 Z M829 667 L698 667 L639 504 C625 464 613 424 607 399 C601 430 590 467 577 503 L515 667 L383 667 L383 287 L474 287 L474 411 C474 469 473 489 470 558 C476 537 494 482 504 456 L570 287 L644 287 L708 460 C720 492 734 533 742 561 C739 511 738 453 738 402 L738 287 L829 287 L829 667 Z " />
<glyph glyph-name="uni2126" unicode="&#x2126;" horiz-adv-x="666" d="M28 0 L296 0 L296 109 C208 155 163 234 163 345 C163 468 237 563 334 563 C431 563 504 468 504 343 C504 282 490 234 457 185 C433 149 411 130 371 109 L371 0 L639 0 L639 118 L495 118 C596 181 642 258 642 368 C642 545 506 683 333 683 C161 683 25 544 25 369 C25 258 71 180 172 118 L28 118 L28 0 Z " />
<glyph glyph-name="onethird" unicode="&#x2153;" horiz-adv-x="913" d="M264 661 L191 661 C183 607 146 583 72 583 L72 520 L85 520 L115 520 L145 520 L172 520 L172 267 L264 267 L264 661 Z M678 657 L602 657 L236 0 L314 0 L678 657 Z M662 261 C664 305 683 326 723 326 C757 326 778 309 778 282 C778 252 755 237 708 237 C701 237 698 237 690 238 L690 175 C700 177 706 177 714 177 C762 177 787 159 787 123 C787 90 761 68 721 68 C677 68 652 94 653 141 L564 141 L564 134 C564 48 626 -6 723 -6 C816 -6 882 47 882 122 C882 166 859 197 817 212 C850 228 867 253 867 288 C867 352 809 396 724 396 C633 396 577 346 575 261 L662 261 Z " />
<glyph glyph-name="twothirds" unicode="&#x2154;" horiz-adv-x="913" d="M341 341 L209 341 C189 341 173 341 144 339 C156 354 173 369 209 391 C278 434 278 434 288 442 C323 470 339 502 339 542 C339 613 278 664 193 664 C98 664 36 605 36 515 C36 514 36 509 37 504 L125 504 C126 562 147 589 189 589 C223 589 246 567 246 536 C246 509 232 491 192 465 C52 379 32 355 27 266 L341 266 L341 341 Z M677 657 L601 657 L235 0 L313 0 L677 657 Z M661 261 C663 305 682 326 722 326 C756 326 777 309 777 282 C777 252 754 237 707 237 C700 237 697 237 689 238 L689 175 C699 177 705 177 713 177 C761 177 786 159 786 123 C786 90 760 68 720 68 C676 68 651 94 652 141 L563 141 L563 134 C563 48 625 -6 722 -6 C815 -6 881 47 881 122 C881 166 858 197 816 212 C849 228 866 253 866 288 C866 352 808 396 723 396 C632 396 576 346 574 261 L661 261 Z " />
<glyph glyph-name="oneeighth" unicode="&#x215b;" horiz-adv-x="913" d="M264 661 L191 661 C183 607 146 583 72 583 L72 520 L85 520 L115 520 L145 520 L172 520 L172 267 L264 267 L264 661 Z M678 657 L602 657 L236 0 L314 0 L678 657 Z M635 210 C588 192 565 161 565 115 C565 42 629 -6 726 -6 C823 -6 888 44 888 118 C888 162 864 193 817 210 C854 227 871 253 871 291 C871 352 809 397 727 397 C644 397 582 351 582 289 C582 253 601 225 635 210 L635 210 Z M727 332 C763 332 787 313 787 285 C787 255 764 236 727 236 C690 236 666 255 666 285 C666 312 691 332 727 332 L727 332 Z M726 177 C767 177 796 153 796 119 C796 84 768 61 726 61 C684 61 657 84 657 119 C657 154 684 177 726 177 L726 177 Z " />
<glyph glyph-name="threeeighths" unicode="&#x215c;" horiz-adv-x="913" d="M124 528 C126 571 146 594 185 594 C217 594 240 576 240 549 C240 522 217 504 182 504 L170 504 L160 504 L152 504 L152 441 L160 442 C168 443 173 443 176 443 L188 442 C210 440 212 440 223 434 C240 425 249 409 249 388 C249 356 223 334 183 334 C139 334 114 360 115 407 L26 407 L26 400 C26 315 88 260 185 260 C278 260 344 313 344 388 C344 432 321 463 279 478 C312 494 329 520 329 555 C329 619 270 664 186 664 C96 664 39 613 37 528 L124 528 Z M678 657 L601 657 L235 0 L313 0 L678 657 Z M635 210 C588 192 564 160 564 115 C564 43 629 -6 726 -6 C823 -6 887 43 887 118 C887 163 864 193 817 210 C854 228 870 252 870 291 C870 352 810 397 726 397 C643 397 582 351 582 289 C582 252 600 225 635 210 L635 210 Z M726 332 C763 332 786 314 786 285 C786 254 764 236 726 236 C689 236 666 255 666 285 C666 313 690 332 726 332 L726 332 Z M726 177 C767 177 795 154 795 119 C795 83 768 61 726 61 C684 61 656 85 656 119 C656 154 684 177 726 177 L726 177 Z " />
<glyph glyph-name="fiveeighths" unicode="&#x215d;" horiz-adv-x="913" d="M319 657 L79 657 L37 438 L119 437 C135 460 151 469 180 469 C222 469 249 442 249 400 C249 359 220 330 180 330 C144 330 118 353 114 387 L24 387 C28 308 87 260 180 260 C273 260 342 320 342 403 C342 480 286 533 205 533 C175 533 156 527 132 510 C134 520 135 525 138 538 L146 582 L319 582 L319 657 Z M677 657 L601 657 L235 0 L313 0 L677 657 Z M634 210 C588 192 564 161 564 115 C564 42 628 -6 725 -6 C822 -6 887 44 887 118 C887 163 864 193 816 210 C853 227 870 253 870 291 C870 352 809 397 726 397 C643 397 581 351 581 289 C581 253 600 225 634 210 L634 210 Z M726 332 C762 332 786 313 786 285 C786 254 763 236 726 236 C689 236 665 256 665 285 C665 312 691 332 726 332 L726 332 Z M725 177 C767 177 795 153 795 119 C795 84 768 61 725 61 C684 61 656 84 656 119 C656 154 683 177 725 177 L725 177 Z " />
<glyph glyph-name="seveneighths" unicode="&#x215e;" horiz-adv-x="913" d="M334 657 L41 657 L41 579 L187 579 C195 579 199 579 237 580 C161 501 101 362 100 267 L195 267 C203 394 237 482 312 565 C318 570 323 576 329 582 L334 587 L334 657 Z M677 657 L601 657 L235 0 L313 0 L677 657 Z M634 210 C587 192 564 161 564 115 C564 42 628 -6 725 -6 C822 -6 887 44 887 118 C887 162 863 193 816 210 C853 227 870 253 870 291 C870 352 808 397 726 397 C643 397 581 351 581 289 C581 253 600 225 634 210 L634 210 Z M726 332 C762 332 786 313 786 285 C786 255 763 236 726 236 C689 236 665 255 665 285 C665 312 690 332 726 332 L726 332 Z M725 177 C766 177 795 153 795 119 C795 84 767 61 725 61 C683 61 656 84 656 119 C656 154 683 177 725 177 L725 177 Z " />
<glyph glyph-name="partialdiff" unicode="&#x2202;" horiz-adv-x="500" d="M63 560 C128 553 157 546 217 520 C271 497 307 462 335 406 L348 383 C305 421 275 433 222 433 C109 433 20 339 20 218 C20 88 118 -9 248 -9 C390 -9 480 95 480 258 C480 384 438 486 355 559 C286 620 206 651 79 666 L63 560 Z M253 332 C311 332 357 281 357 217 C357 151 309 98 248 98 C191 98 140 153 140 215 C140 280 190 332 253 332 L253 332 Z " />
<glyph glyph-name="Delta" unicode="&#x2206;" horiz-adv-x="645" d="M8 0 L637 0 L392 667 L251 667 L8 0 Z M182 118 L323 523 L461 118 L182 118 Z " />
<glyph glyph-name="product" unicode="&#x220f;" horiz-adv-x="667" d="M20 750 L20 641 L93 641 L93 -141 L20 -141 L20 -250 L279 -250 L279 -141 L214 -141 L214 641 L453 641 L453 -141 L387 -141 L387 -250 L647 -250 L647 -141 L575 -141 L575 641 L647 641 L647 750 L20 750 Z " />
<glyph glyph-name="summation" unicode="&#x2211;" horiz-adv-x="667" d="M619 750 L34 750 L34 606 L268 266 L34 -106 L34 -250 L628 -250 L628 6 L499 6 L491 -125 L188 -125 L430 266 L186 625 L482 625 L496 498 L619 498 L619 750 Z " />
<glyph glyph-name="minus" unicode="&#x2212;" horiz-adv-x="560" d="M50 282 L510 282 L510 371 L50 371 L50 282 Z " />
<glyph glyph-name="radical" unicode="&#x221a;" horiz-adv-x="667" d="M667 827 L396 827 L295 443 C259 306 250 266 225 121 L218 121 C209 188 199 246 195 262 L165 373 L0 373 L0 260 L87 260 L151 0 L308 0 L496 714 L667 714 L667 827 Z " />
<glyph glyph-name="infinity" unicode="&#x221e;" horiz-adv-x="667" d="M336 277 C380 214 433 182 494 182 C585 182 649 247 649 339 C649 432 586 496 493 496 C430 496 376 464 332 402 C287 464 234 496 175 496 C83 496 18 431 18 340 C18 247 82 183 174 183 C236 183 288 213 336 277 L336 277 Z M381 339 C416 391 443 411 480 411 C522 411 551 382 551 340 C551 298 521 267 481 267 C447 267 414 290 385 333 C383 336 383 337 381 339 L381 339 Z M287 339 C252 288 224 268 187 268 C145 268 116 297 116 339 C116 381 145 411 186 411 C221 411 253 389 282 346 C285 342 285 342 287 339 L287 339 Z " />
<glyph glyph-name="integral" unicode="&#x222b;" horiz-adv-x="500" d="M52 -240 C72 -246 93 -248 123 -248 C224 -248 292 -207 312 -133 C323 -94 323 -93 323 47 L323 525 C323 561 324 575 327 585 C335 609 354 621 381 621 C397 621 407 619 424 611 L448 740 C410 748 392 750 364 750 C274 750 207 706 187 633 C178 597 178 597 177 456 L177 19 C177 -73 177 -73 173 -85 C165 -108 145 -121 117 -121 C103 -121 93 -119 76 -111 L52 -240 Z " />
<glyph glyph-name="uni2236" unicode="&#x2236;" horiz-adv-x="280" d="M141 540 C100 540 69 510 69 471 C69 431 101 399 140 399 C178 399 210 431 210 470 C210 509 180 540 141 540 L141 540 Z M141 254 C101 254 69 223 69 184 C69 144 100 113 140 113 C179 113 210 144 210 183 C210 222 179 254 141 254 L141 254 Z " />
<glyph glyph-name="approxequal" unicode="&#x2248;" horiz-adv-x="500" d="M79 348 C107 389 123 401 150 401 C169 401 191 395 225 379 C291 349 310 343 336 343 C409 343 453 380 492 475 L422 525 C392 481 378 471 348 471 C331 471 323 473 270 497 C212 522 183 531 157 531 C94 531 45 487 9 397 L79 348 Z M79 136 C107 177 123 189 150 189 C169 189 191 183 225 167 C290 137 310 131 336 131 C408 131 453 169 492 264 L422 313 C392 269 378 259 348 259 C331 259 324 261 270 285 C211 311 183 319 157 319 C94 319 45 275 9 185 L79 136 Z " />
<glyph glyph-name="notequal" unicode="&#x2260;" horiz-adv-x="500" d="M259 474 L33 474 L33 354 L210 354 L168 275 L33 275 L33 155 L124 155 L88 88 L177 41 L238 155 L466 155 L466 275 L282 275 L324 354 L467 354 L467 474 L373 474 L416 555 L327 603 L259 474 Z " />
<glyph glyph-name="lessequal" unicode="&#x2264;" horiz-adv-x="500" d="M466 640 L33 475 L33 354 L466 189 L466 323 L189 414 L466 505 L466 640 Z M466 162 L33 162 L33 36 L466 36 L466 162 Z " />
<glyph glyph-name="greaterequal" unicode="&#x2265;" horiz-adv-x="500" d="M33 189 L466 354 L466 475 L33 640 L33 505 L309 414 L33 323 L33 189 Z M33 36 L466 36 L466 162 L33 162 L33 36 Z " />
<glyph glyph-name="dotmath" unicode="&#x22c5;" horiz-adv-x="278" d="M214 323 L63 323 L63 175 L214 175 L214 323 Z " />
<glyph glyph-name="lozenge" unicode="&#x25ca;" horiz-adv-x="667" d="M334 693 L74 334 L334 -26 L593 334 L334 693 Z M334 604 L531 334 L334 63 L137 334 L334 604 Z " />
<glyph glyph-name="uniEA31" unicode="&#xea31;" horiz-adv-x="525" d="M313 536 C309 503 293 487 264 487 C229 487 207 514 207 557 C207 600 229 627 264 627 C291 627 307 614 312 589 L367 589 C364 638 323 672 265 672 C197 672 151 625 151 557 C151 487 196 441 264 441 C325 441 365 477 369 536 L313 536 Z M266 776 C142 776 43 679 43 558 C43 436 141 337 262 337 C383 337 482 436 482 557 C482 676 383 776 266 776 L266 776 Z M265 730 C358 730 436 651 436 557 C436 462 357 383 262 383 C166 383 89 461 89 558 C89 654 167 730 265 730 L265 730 Z " />
<glyph glyph-name="uniEA32" unicode="&#xea32;" horiz-adv-x="525" d="M167 667 L167 447 L223 447 L223 530 L264 530 C298 530 304 523 307 479 C309 460 310 455 314 447 L375 447 L368 455 C365 459 363 468 362 480 C359 528 354 538 333 551 C353 562 363 580 363 603 C363 645 334 667 280 667 L167 667 Z M223 624 L269 624 C296 624 308 616 308 598 C308 579 296 571 267 571 L223 571 L223 624 Z M266 776 C142 776 43 679 43 558 C43 436 141 337 262 337 C383 337 482 436 482 557 C482 676 383 776 266 776 L266 776 Z M265 730 C358 730 436 650 436 557 C436 462 357 383 262 383 C166 383 89 461 89 558 C89 654 167 730 265 730 L265 730 Z " />
<glyph glyph-name="uniEA3E" unicode="&#xea3e;" horiz-adv-x="278" d="M214 323 L63 323 L63 175 L214 175 L214 323 Z " />
<glyph glyph-name="uniEA3F" unicode="&#xea3f;" horiz-adv-x="500" d="M434 667 L315 667 L315 574 L383 574 C379 541 362 528 315 525 L315 482 C349 483 371 488 391 499 C424 517 434 539 434 595 L434 667 Z " />
<glyph glyph-name="uniEA4F" unicode="&#xea4f;" horiz-adv-x="500" d="M157 566 L276 566 L276 659 L208 659 C212 692 229 705 276 708 L276 751 C242 750 220 745 200 734 C167 715 157 694 157 638 L157 566 Z " />
<glyph glyph-name="uniEA67" unicode="&#xea67;" horiz-adv-x="500" d="M450 667 L325 667 L325 574 L395 574 C391 539 376 529 325 525 L325 482 C415 485 450 517 450 595 L450 667 Z " />
<glyph glyph-name="uniEA68" unicode="&#xea68;" horiz-adv-x="500" d="M389 842 L272 842 L272 735 L389 735 L389 842 Z M227 842 L110 842 L110 735 L227 735 L227 842 Z " />
<glyph glyph-name="uniEA6A" unicode="&#xea6a;" horiz-adv-x="500" d="M387 679 L272 679 L272 570 L387 570 L387 679 Z M227 679 L113 679 L113 570 L227 570 L227 679 Z " />
<glyph glyph-name="uniEA71" unicode="&#xea71;" horiz-adv-x="560" d="M199 224 L287 224 C361 224 409 238 449 272 C487 305 507 343 516 400 L593 400 L593 477 L516 477 C509 522 494 554 468 584 C422 634 370 651 261 651 L69 651 L69 477 L0 477 L0 400 L69 400 L69 0 L199 0 L199 224 Z M199 477 L199 533 L268 533 C336 533 369 517 383 477 L199 477 Z M199 334 L199 400 L386 400 C373 352 343 334 276 334 L199 334 Z " />
<glyph glyph-name="uniEA72" unicode="&#xea72;" horiz-adv-x="280" d="M280 347 L0 347 L0 311 L280 311 L280 347 Z M195 663 L141 663 C135 626 108 610 54 610 L54 566 L64 566 L86 566 L108 566 L127 566 L127 393 L195 393 L195 663 Z M253 51 L156 51 C141 51 134 51 109 50 C119 62 134 72 171 93 C210 116 213 118 225 129 C243 145 252 166 252 188 C252 237 208 271 144 271 C69 271 29 233 29 162 L94 162 C95 202 109 219 142 219 C167 219 183 205 183 184 C183 165 173 153 144 136 C41 78 25 60 22 0 L253 0 L253 51 Z " />
<glyph glyph-name="uniEA73" unicode="&#xea73;" horiz-adv-x="280" d="M280 347 L0 347 L0 311 L280 311 L280 347 Z M195 663 L141 663 C135 626 108 610 54 610 L54 566 L64 566 L86 566 L108 566 L127 566 L127 393 L195 393 L195 663 Z M260 110 L220 110 L220 269 L159 269 L23 112 L23 60 L156 60 L156 0 L220 0 L220 60 L260 60 L260 110 Z M159 107 L77 107 L159 207 L159 107 Z " />
<glyph glyph-name="uniEA74" unicode="&#xea74;" horiz-adv-x="280" d="M280 347 L0 347 L0 311 L280 311 L280 347 Z M94 571 C95 601 110 616 138 616 C163 616 179 604 179 586 C179 566 160 555 128 555 C127 555 124 555 120 556 L114 556 L114 513 L136 513 C168 513 185 500 185 477 C185 454 166 440 137 440 C104 440 87 457 87 490 L22 490 C21 426 64 389 138 389 C207 389 255 425 255 477 C255 507 240 527 208 538 C233 549 244 566 244 590 C244 635 201 665 139 665 C72 665 31 630 29 571 L94 571 Z M260 110 L220 110 L220 269 L159 269 L23 112 L23 60 L156 60 L156 0 L220 0 L220 60 L260 60 L260 110 Z M159 107 L77 107 L159 207 L159 107 Z " />
<glyph glyph-name="dotlessj" unicode="&#xf6be;" horiz-adv-x="249" d="M189 483 L57 483 L57 40 C57 -16 57 -22 54 -37 C50 -57 36 -67 10 -67 C-5 -67 -17 -67 -24 -66 L-24 -173 C4 -175 46 -176 66 -174 C146 -166 190 -118 190 -37 L189 0 L189 483 Z " />
<glyph glyph-name="commaaccent" unicode="&#xf6c3;" horiz-adv-x="500" d="M310 -60 L191 -60 L191 -153 L259 -153 C255 -186 238 -199 191 -202 L191 -245 C225 -244 247 -239 267 -228 C300 -209 310 -188 310 -132 L310 -60 Z " />
<glyph glyph-name="Acute" unicode="&#xf6c9;" horiz-adv-x="500" d="M415 844 L262 844 L178 723 L276 723 L415 844 Z " />
<glyph glyph-name="Caron" unicode="&#xf6ca;" horiz-adv-x="500" d="M421 850 L302 850 L248 785 L192 850 L79 850 L188 725 L313 725 L421 850 Z " />
<glyph glyph-name="Dieresis" unicode="&#xf6cb;" horiz-adv-x="500" d="M418 842 L289 842 L289 735 L418 735 L418 842 Z M211 842 L82 842 L82 735 L211 735 L211 842 Z " />
<glyph glyph-name="Grave" unicode="&#xf6ce;" horiz-adv-x="500" d="M85 844 L224 723 L322 723 L238 844 L85 844 Z " />
<glyph glyph-name="Hungarumlaut" unicode="&#xf6cf;" horiz-adv-x="500" d="M465 844 L331 844 L281 723 L364 723 L465 844 Z M298 844 L165 844 L114 723 L198 723 L298 844 Z " />
<glyph glyph-name="Macron" unicode="&#xf6d0;" horiz-adv-x="500" d="M412 825 L87 825 L87 750 L412 750 L412 825 Z " />
<glyph glyph-name="commasuperior" unicode="&#xf6e2;" horiz-adv-x="194" d="M148 367 L46 367 L46 267 L92 267 C91 235 74 212 46 206 L46 160 C72 164 94 174 114 191 C138 213 148 241 148 289 L148 367 Z " />
<glyph glyph-name="periodsuperior" unicode="&#xf6e8;" horiz-adv-x="194" d="M148 368 L45 368 L45 267 L148 267 L148 368 Z " />
<glyph glyph-name="ff" unicode="&#xfb00;" horiz-adv-x="624" d="M311 667 C270 669 253 670 242 670 C184 670 140 656 113 629 C86 603 77 572 77 508 L77 483 L-2 483 L-2 394 L77 394 L77 0 L209 0 L209 394 L379 394 L379 0 L511 0 L511 394 L606 394 L606 483 L510 483 L510 521 C510 561 522 572 568 572 C576 572 590 571 614 569 L614 667 C572 669 556 670 544 670 C487 670 442 656 415 629 C388 603 379 573 379 508 L379 483 L207 483 L207 521 C207 559 222 572 265 572 C273 572 287 571 311 569 L311 667 Z " />
<glyph glyph-name="fi" unicode="&#xfb01;" horiz-adv-x="570" d="M311 667 C270 669 253 670 242 670 C184 670 140 656 113 629 C86 603 77 572 77 508 L77 483 L-2 483 L-2 394 L77 394 L77 0 L209 0 L209 394 L303 394 L303 483 L207 483 L207 521 C207 559 222 572 265 572 C273 572 287 571 311 569 L311 667 Z M511 667 L379 667 L379 554 L511 554 L511 667 Z M511 483 L379 483 L379 0 L511 0 L511 483 Z " />
<glyph glyph-name="fl" unicode="&#xfb02;" horiz-adv-x="570" d="M311 667 C270 669 253 670 242 670 C184 670 140 656 113 629 C86 603 77 572 77 508 L77 483 L-2 483 L-2 394 L77 394 L77 0 L209 0 L209 394 L303 394 L303 483 L207 483 L207 521 C207 559 222 572 265 572 C273 572 287 571 311 569 L311 667 Z M511 667 L379 667 L379 0 L511 0 L511 667 Z " />
<glyph glyph-name="ffi" unicode="&#xfb03;" horiz-adv-x="873" d="M311 667 C270 669 253 670 242 670 C184 670 140 656 113 629 C86 603 77 572 77 508 L77 483 L-2 483 L-2 394 L77 394 L77 0 L209 0 L209 394 L379 394 L379 0 L511 0 L511 394 L606 394 L606 483 L510 483 L510 521 C510 561 522 572 568 572 C576 572 590 571 614 569 L614 667 C572 669 556 670 544 670 C487 670 442 656 415 629 C388 603 379 573 379 508 L379 483 L207 483 L207 521 C207 559 222 572 265 572 C273 572 287 571 311 569 L311 667 Z M814 667 L682 667 L682 554 L814 554 L814 667 Z M814 483 L682 483 L682 0 L814 0 L814 483 Z " />
<glyph glyph-name="ffl" unicode="&#xfb04;" horiz-adv-x="873" d="M311 667 C270 669 253 670 242 670 C184 670 140 656 113 629 C86 603 77 572 77 508 L77 483 L-2 483 L-2 394 L77 394 L77 0 L209 0 L209 394 L379 394 L379 0 L511 0 L511 394 L606 394 L606 483 L510 483 L510 521 C510 561 522 572 568 572 C576 572 590 571 614 569 L614 667 C572 669 556 670 544 670 C487 670 442 656 415 629 C388 603 379 573 379 508 L379 483 L207 483 L207 521 C207 559 222 572 265 572 C273 572 287 571 311 569 L311 667 Z M814 667 L682 667 L682 0 L814 0 L814 667 Z " />
</font>
</svg>
