<?xml version="1.0" encoding="UTF-8"?>
<svg xmlns="http://www.w3.org/2000/svg" xmlns:xlink="http://www.w3.org/1999/xlink" version="1.2" >
<font id="Nimbus Sans Novus">
<font-face  font-family="Nimbus Sans Novus" units-per-em="1000" ascent="897" descent="-250" font-style="normal" font-weight="400" font-stretch="normal" cap-height="667" x-height="481" underline-position="-75" underline-thickness="43" />
<missing-glyph  horiz-adv-x="250" d="" />
<glyph glyph-name="NULL" d="" />
<glyph glyph-name="CR" unicode="&#xd;" horiz-adv-x="250" d="" />
<glyph glyph-name="space" unicode="&#x20;" horiz-adv-x="250" d="" />
<glyph glyph-name="exclam" unicode="&#x21;" horiz-adv-x="263" d="M173 667 L110 667 L110 471 L124 167 L159 167 L173 471 L173 667 Z M177 93 L107 93 L107 0 L177 0 L177 93 Z " />
<glyph glyph-name="quotedbl" unicode="&#x22;" horiz-adv-x="284" d="M100 400 L108 667 L45 667 L54 400 L100 400 Z M230 400 L238 667 L175 667 L184 400 L230 400 Z " />
<glyph glyph-name="numbersign" unicode="&#x23;" horiz-adv-x="547" d="M360 230 L486 230 L492 273 L366 273 L381 383 L508 383 L514 426 L387 426 L413 607 L369 607 L344 426 L227 426 L253 607 L209 607 L184 426 L61 426 L55 383 L178 383 L162 273 L39 273 L33 230 L156 230 L129 33 L172 33 L200 230 L316 230 L289 33 L332 33 L360 230 Z M338 383 L322 273 L206 273 L221 383 L338 383 Z " />
<glyph glyph-name="dollar" unicode="&#x24;" horiz-adv-x="547" d="M255 742 L255 661 C139 654 68 588 68 486 C68 392 126 338 255 313 L255 33 C146 42 97 94 98 197 L40 197 C37 70 119 -12 255 -15 L255 -125 L298 -125 L298 -14 C351 -11 380 -4 407 10 C468 42 502 100 502 172 C502 276 440 333 298 359 L298 611 C384 606 428 562 430 479 L487 479 C490 586 418 656 298 661 L298 742 L255 742 Z M255 369 C215 378 197 384 181 393 C144 414 124 448 124 490 C124 563 173 609 255 612 L255 369 Z M298 305 C351 289 365 284 381 276 C424 253 445 218 445 168 C445 127 431 94 402 69 C376 47 349 38 298 34 L298 305 Z " />
<glyph glyph-name="percent" unicode="&#x25;" horiz-adv-x="788" d="M600 647 L551 647 L185 0 L233 0 L600 647 Z M602 341 C504 341 450 277 450 160 C450 48 501 -12 598 -12 C694 -12 746 52 746 171 C746 280 695 341 602 341 L602 341 Z M600 300 C661 300 695 253 695 166 C695 77 660 27 599 27 C535 27 502 74 502 162 C502 256 533 300 600 300 L600 300 Z M194 664 C97 664 41 599 41 488 C41 374 94 310 189 310 C284 310 338 376 338 492 C338 602 286 664 194 664 L194 664 Z M191 623 C254 623 287 577 287 490 C287 400 252 350 188 350 C127 350 92 399 92 484 C92 575 126 623 191 623 L191 623 Z " />
<glyph glyph-name="ampersand" unicode="&#x26;" horiz-adv-x="601" d="M454 295 C452 260 443 217 431 186 L290 359 C383 416 421 467 421 534 C421 611 361 666 276 666 C187 666 127 612 127 533 C127 486 148 445 208 371 C186 360 151 337 123 316 C70 275 43 225 43 168 C43 61 124 -13 243 -13 C326 -13 391 22 437 92 L513 0 L588 0 L469 141 C489 175 508 247 509 295 L454 295 Z M259 398 C202 465 182 500 182 534 C182 583 220 618 275 618 C327 618 366 580 366 530 C366 483 329 438 259 398 L259 398 Z M404 133 C361 66 312 36 248 36 C166 36 103 94 103 169 C103 232 138 274 240 333 L404 133 Z " />
<glyph glyph-name="quotesingle" unicode="&#x27;" horiz-adv-x="154" d="M100 400 L108 667 L45 667 L54 400 L100 400 Z " />
<glyph glyph-name="parenleft" unicode="&#x28;" horiz-adv-x="277" d="M176 667 C94 550 43 388 43 243 C43 100 82 -25 176 -179 L222 -179 C145 -53 102 98 102 241 C102 391 146 547 222 667 L176 667 Z " />
<glyph glyph-name="parenright" unicode="&#x29;" horiz-adv-x="277" d="M102 -179 C184 -63 235 101 235 245 C235 387 195 514 102 667 L56 667 C132 541 176 388 176 247 C176 99 131 -60 56 -179 L102 -179 Z " />
<glyph glyph-name="asterisk" unicode="&#x2a;" horiz-adv-x="547" d="M413 556 L400 591 L292 552 L292 667 L253 667 L253 552 L145 591 L133 556 L241 519 L172 428 L204 406 L272 499 L342 405 L371 427 L304 519 L413 556 Z " />
<glyph glyph-name="plus" unicode="&#x2b;" horiz-adv-x="547" d="M49 345 L49 302 L251 302 L251 100 L294 100 L294 302 L496 302 L496 345 L294 345 L294 547 L251 547 L251 345 L49 345 Z " />
<glyph glyph-name="comma" unicode="&#x2c;" horiz-adv-x="223" d="M150 97 L73 97 L73 0 L110 0 C109 -48 95 -79 67 -90 L67 -129 C129 -107 150 -66 150 28 L150 97 Z " />
<glyph glyph-name="hyphen" unicode="&#x2d;" horiz-adv-x="222" d="M222 273 L0 273 L0 220 L222 220 L222 273 Z " />
<glyph glyph-name="period" unicode="&#x2e;" horiz-adv-x="223" d="M150 100 L73 100 L73 0 L150 0 L150 100 Z " />
<glyph glyph-name="slash" unicode="&#x2f;" horiz-adv-x="394" d="M357 667 L309 667 L-37 -179 L13 -179 L357 667 Z " />
<glyph glyph-name="zero" unicode="0" horiz-adv-x="547" d="M276 661 C189 661 124 623 86 548 C59 494 45 417 45 315 C45 93 120 -14 274 -14 C425 -14 502 99 502 320 C502 418 489 493 462 547 C426 620 359 661 276 661 L276 661 Z M276 610 C386 610 441 514 441 322 C441 132 385 37 273 37 C161 37 106 127 106 312 C106 516 160 610 276 610 L276 610 Z " />
<glyph glyph-name="one" unicode="1" horiz-adv-x="547" d="M349 653 L302 653 C280 553 251 534 118 532 L118 487 L145 487 L198 487 L262 487 L287 487 L287 0 L349 0 L349 653 Z " />
<glyph glyph-name="two" unicode="2" horiz-adv-x="547" d="M485 53 L152 53 L120 53 C133 112 165 147 270 213 C358 269 388 292 420 327 C463 372 482 417 482 475 C482 589 404 661 281 661 C146 661 68 576 69 429 L127 429 C128 480 135 513 151 541 C176 585 221 610 278 610 C365 610 421 557 421 475 C421 397 387 355 259 270 C105 172 62 117 53 0 L485 0 L485 53 Z " />
<glyph glyph-name="three" unicode="3" horiz-adv-x="547" d="M112 446 C116 553 170 610 267 610 C352 610 405 564 405 489 C405 430 373 391 312 375 C292 370 267 368 225 369 L225 320 C237 321 245 321 255 321 C310 321 343 314 371 295 C409 271 429 231 429 183 C429 99 360 37 265 37 C161 37 97 102 98 210 L41 210 C41 155 47 122 66 88 C103 22 173 -14 264 -14 C398 -14 490 69 490 189 C490 274 442 332 355 349 C425 367 466 420 466 492 C466 594 388 661 269 661 C137 661 61 585 56 446 L112 446 Z " />
<glyph glyph-name="four" unicode="4" horiz-adv-x="547" d="M497 209 L398 209 L398 653 L348 653 L41 215 L41 160 L343 160 L343 0 L398 0 L398 160 L497 160 L497 209 Z M343 209 L154 209 L89 209 C129 262 130 264 142 282 L285 484 C295 499 305 513 314 528 C324 544 334 560 344 575 C343 530 343 512 343 467 L343 209 Z " />
<glyph glyph-name="five" unicode="5" horiz-adv-x="547" d="M460 647 L133 647 L69 310 L120 308 C156 359 203 384 266 384 C364 384 431 313 431 211 C431 109 362 35 267 35 C176 35 114 94 107 189 L50 189 C49 70 138 -14 267 -14 C397 -14 492 82 492 214 C492 343 402 435 278 435 C214 435 165 413 129 369 C131 381 134 393 136 403 C139 416 142 429 144 442 L176 594 L460 594 L460 647 Z " />
<glyph glyph-name="six" unicode="6" horiz-adv-x="547" d="M485 489 C472 599 401 661 290 661 C137 661 53 536 53 308 C53 204 66 138 98 86 C136 23 204 -14 283 -14 C409 -14 501 80 501 210 C501 336 413 426 291 426 C210 426 143 384 109 312 C112 380 117 424 128 464 C155 563 207 610 288 610 C363 610 414 565 427 489 L485 489 Z M283 375 C375 375 440 305 440 207 C440 107 375 37 282 37 C189 37 122 109 122 209 C122 307 188 375 283 375 L283 375 Z " />
<glyph glyph-name="seven" unicode="7" horiz-adv-x="547" d="M496 647 L75 647 L75 592 L371 592 C389 592 390 592 439 593 C287 443 178 206 168 0 L231 0 C247 223 343 438 496 594 L496 647 Z " />
<glyph glyph-name="eight" unicode="8" horiz-adv-x="547" d="M182 353 C98 333 49 271 49 184 C49 63 136 -14 273 -14 C413 -14 498 63 498 189 C498 246 478 290 437 322 C417 337 400 344 366 353 C435 376 472 426 472 497 C472 596 393 661 274 661 C154 661 75 594 75 494 C75 424 114 372 182 353 L182 353 Z M275 610 C361 610 413 565 413 491 C413 419 359 374 274 374 C188 374 134 419 134 491 C134 565 187 610 275 610 L275 610 Z M273 327 C374 327 437 272 437 185 C437 94 374 37 274 37 C173 37 110 94 110 185 C110 272 173 327 273 327 L273 327 Z " />
<glyph glyph-name="nine" unicode="9" horiz-adv-x="547" d="M63 157 C73 53 151 -14 261 -14 C380 -14 460 68 484 212 C497 290 498 398 485 463 C460 591 382 661 265 661 C137 661 46 568 46 438 C46 311 133 222 256 222 C342 222 400 260 436 342 C435 283 433 251 427 217 C407 99 350 37 263 37 C186 37 131 83 120 157 L63 157 Z M265 610 C355 610 423 537 423 440 C423 342 357 273 263 273 C170 273 107 341 107 440 C107 541 171 610 265 610 L265 610 Z " />
<glyph glyph-name="colon" unicode="&#x3a;" horiz-adv-x="240" d="M167 100 L90 100 L90 0 L167 0 L167 100 Z M167 481 L90 481 L90 381 L167 381 L167 481 Z " />
<glyph glyph-name="semicolon" unicode="&#x3b;" horiz-adv-x="240" d="M167 97 L90 97 L90 0 L127 0 C126 -48 112 -79 84 -90 L84 -129 C146 -107 167 -66 167 28 L167 97 Z M167 481 L90 481 L90 381 L167 381 L167 481 Z " />
<glyph glyph-name="less" unicode="&#x3c;" horiz-adv-x="500" d="M466 562 L33 362 L33 307 L466 107 L466 170 L100 334 L466 499 L466 562 Z " />
<glyph glyph-name="equal" unicode="&#x3d;" horiz-adv-x="547" d="M49 417 L49 374 L496 374 L496 417 L49 417 Z M49 273 L49 230 L496 230 L496 273 L49 273 Z " />
<glyph glyph-name="greater" unicode="&#x3e;" horiz-adv-x="500" d="M34 107 L467 307 L467 362 L34 562 L34 499 L399 335 L34 170 L34 107 Z " />
<glyph glyph-name="question" unicode="&#x3f;" horiz-adv-x="494" d="M106 460 C109 510 114 534 130 561 C155 605 200 629 256 629 C336 629 390 579 390 504 C390 460 373 425 331 384 C232 288 225 275 224 166 L280 166 C280 250 289 273 339 319 C382 360 400 378 412 393 C439 427 451 464 451 508 C451 612 373 681 257 681 C182 681 120 650 84 594 C61 559 52 521 50 460 L106 460 Z M286 93 L216 93 L216 0 L286 0 L286 93 Z " />
<glyph glyph-name="at" unicode="&#x40;" horiz-adv-x="753" d="M657 168 C606 76 501 17 391 17 C217 17 82 154 82 331 C82 511 219 651 397 651 C554 651 673 540 673 393 C673 327 651 273 605 228 C572 195 533 176 501 176 C475 176 460 189 460 212 C460 224 463 237 469 256 L554 503 L507 503 L489 453 C470 497 439 519 394 519 C294 519 198 399 198 274 C198 198 241 148 305 148 C348 148 380 164 419 204 C424 168 450 147 490 147 C529 147 577 167 617 201 C677 250 707 316 707 395 C707 557 572 682 396 682 C200 682 46 527 46 331 C46 137 198 -15 390 -15 C522 -15 644 58 693 168 L657 168 Z M433 293 C417 249 406 230 388 211 C367 190 339 177 313 177 C273 177 249 208 249 262 C249 375 327 489 405 489 C442 489 469 458 469 416 C469 399 466 386 456 359 L433 293 Z " />
<glyph glyph-name="A" unicode="A" horiz-adv-x="623" d="M349 669 L278 669 L9 0 L77 0 L159 210 L464 210 L544 0 L615 0 L349 669 Z M445 261 L178 261 L276 511 C292 553 305 586 313 609 C320 587 328 563 349 508 L445 261 Z " />
<glyph glyph-name="B" unicode="B" horiz-adv-x="644" d="M81 667 L81 0 L366 0 C422 0 463 7 495 22 C563 54 602 116 602 191 C602 250 575 300 528 329 C509 340 492 346 460 353 C531 370 576 427 576 500 C576 560 545 612 493 641 C458 660 419 667 350 667 L81 667 Z M144 612 L338 612 C390 612 420 608 444 598 C489 579 513 542 513 491 C513 443 484 401 439 384 C413 375 381 371 322 371 L144 371 L144 612 Z M144 320 L338 320 C395 320 437 314 465 302 C513 281 539 242 539 190 C539 144 519 106 484 82 C455 63 414 55 343 55 L144 55 L144 320 Z " />
<glyph glyph-name="C" unicode="C" horiz-adv-x="674" d="M575 255 C559 117 479 40 353 40 C205 40 109 155 109 333 C109 407 128 475 163 527 C208 595 270 627 355 627 C466 627 545 567 567 467 L630 467 C625 513 604 557 571 594 C518 653 448 682 357 682 C265 682 193 652 136 590 C76 523 46 437 46 332 C46 122 166 -15 351 -15 C512 -15 624 90 638 255 L575 255 Z " />
<glyph glyph-name="D" unicode="D" horiz-adv-x="666" d="M81 667 L81 0 L318 0 C416 0 473 20 526 74 C589 137 620 228 620 346 C620 454 586 543 524 600 C471 647 409 667 313 667 L81 667 Z M144 612 L313 612 C390 612 441 595 483 554 C533 506 557 436 557 342 C557 241 534 167 486 116 C444 70 397 55 303 55 L144 55 L144 612 Z " />
<glyph glyph-name="E" unicode="E" horiz-adv-x="585" d="M544 667 L81 667 L81 0 L548 0 L548 55 L144 55 L144 318 L518 318 L518 373 L144 373 L144 612 L544 612 L544 667 Z " />
<glyph glyph-name="F" unicode="F" horiz-adv-x="525" d="M507 667 L81 667 L81 0 L144 0 L144 318 L467 318 L467 373 L144 373 L144 612 L507 612 L507 667 Z " />
<glyph glyph-name="G" unicode="G" horiz-adv-x="714" d="M648 339 L364 339 L364 287 L592 287 C592 234 585 198 567 161 C530 83 457 40 362 40 C209 40 108 154 108 328 C108 406 130 482 167 532 C214 596 279 627 362 627 C436 627 491 604 533 555 C557 527 571 495 577 461 L639 461 C630 518 611 558 573 598 C520 655 452 682 362 682 C270 682 195 651 139 590 C79 525 45 430 45 327 C45 124 173 -15 359 -15 C468 -15 552 35 593 124 L606 0 L648 0 L648 339 Z " />
<glyph glyph-name="H" unicode="H" horiz-adv-x="686" d="M606 667 L543 667 L543 377 L143 377 L143 667 L80 667 L80 0 L143 0 L143 322 L543 322 L543 0 L606 0 L606 667 Z " />
<glyph glyph-name="I" unicode="I" horiz-adv-x="223" d="M143 667 L80 667 L80 0 L143 0 L143 667 Z " />
<glyph glyph-name="J" unicode="J" horiz-adv-x="464" d="M393 673 L330 673 L330 205 C330 145 324 111 308 88 C287 58 254 43 205 43 C115 43 75 88 75 188 L75 201 L75 215 L75 222 L14 222 C13 210 13 207 13 196 C13 146 19 109 31 81 C58 22 119 -12 198 -12 C226 -12 257 -8 285 -1 C325 9 342 22 363 55 C386 90 393 125 393 197 L393 673 Z " />
<glyph glyph-name="K" unicode="K" horiz-adv-x="627" d="M617 667 L532 667 L188 350 C178 341 170 333 144 308 L144 667 L81 667 L81 0 L144 0 L144 235 L272 351 L551 0 L632 0 L317 395 L617 667 Z " />
<glyph glyph-name="L" unicode="L" horiz-adv-x="536" d="M519 55 L143 55 L143 667 L80 667 L80 0 L519 0 L519 55 Z " />
<glyph glyph-name="M" unicode="M" horiz-adv-x="809" d="M730 667 L642 667 L452 190 C436 148 420 103 407 66 C396 100 392 113 362 191 L168 667 L81 667 L81 0 L142 0 L142 405 C142 454 140 526 135 609 C149 567 164 524 179 486 L379 0 L436 0 L632 492 C643 520 658 561 677 613 C672 565 669 474 669 403 L669 0 L730 0 L730 667 Z " />
<glyph glyph-name="N" unicode="N" horiz-adv-x="686" d="M606 667 L545 667 L545 251 C545 206 547 121 549 75 C528 114 495 167 462 215 L152 667 L81 667 L81 0 L142 0 L142 431 L141 526 C141 552 140 565 138 591 C155 556 163 544 226 447 L535 0 L606 0 L606 667 Z " />
<glyph glyph-name="O" unicode="O" horiz-adv-x="720" d="M364 682 C172 682 46 544 46 333 C46 125 172 -15 359 -15 C547 -15 674 124 674 332 C674 538 547 682 364 682 L364 682 Z M363 627 C510 627 611 506 611 332 C611 157 511 40 360 40 C209 40 109 157 109 335 C109 512 209 627 363 627 L363 627 Z " />
<glyph glyph-name="P" unicode="P" horiz-adv-x="606" d="M81 667 L81 0 L144 0 L144 284 L355 284 C423 284 464 295 501 321 C550 356 575 409 575 479 C575 548 549 600 499 634 C462 658 423 667 347 667 L81 667 Z M144 612 L334 612 C399 612 426 607 455 589 C492 566 512 526 512 476 C512 426 491 386 453 362 C426 345 395 339 337 339 L144 339 L144 612 Z " />
<glyph glyph-name="Q" unicode="Q" horiz-adv-x="716" d="M670 -3 L575 69 C639 133 674 227 674 335 C674 541 547 682 360 682 C173 682 46 540 46 331 C46 125 173 -15 361 -15 C427 -15 493 5 533 37 L638 -43 L670 -3 Z M429 182 L396 141 L485 75 C448 50 414 40 363 40 C209 40 109 155 109 333 C109 509 210 627 360 627 C510 627 611 509 611 335 C611 241 584 166 528 105 L429 182 Z " />
<glyph glyph-name="R" unicode="R" horiz-adv-x="660" d="M77 667 L77 0 L140 0 L140 298 L336 298 C410 298 451 288 475 262 C504 231 511 204 516 92 C518 40 523 15 533 0 L604 0 C588 18 582 45 577 113 C569 231 567 240 543 276 C520 303 496 316 456 322 C539 342 586 402 586 487 C586 554 559 605 508 637 C473 658 433 667 370 667 L77 667 Z M140 612 L350 612 C401 612 434 606 459 593 C501 572 523 533 523 483 C523 434 502 395 465 373 C434 356 396 349 328 349 L140 349 L140 612 Z " />
<glyph glyph-name="S" unicode="S" horiz-adv-x="587" d="M523 475 C517 608 431 682 281 682 C137 682 48 612 48 498 C48 446 69 402 106 376 C139 354 169 343 258 322 C349 301 376 294 405 281 C458 260 483 225 483 176 C483 90 413 38 298 38 C222 38 163 60 127 101 C101 131 90 164 88 221 L27 221 L27 214 C27 71 128 -15 293 -15 C371 -15 425 -1 468 31 C518 68 544 120 544 182 C544 243 518 289 465 320 C431 340 398 351 290 375 C206 395 178 404 151 420 C125 436 110 466 110 502 C110 562 147 606 211 622 C264 636 336 630 380 608 C432 583 456 545 462 475 L523 475 Z " />
<glyph glyph-name="T" unicode="T" horiz-adv-x="560" d="M546 667 L14 667 L14 612 L249 612 L249 0 L312 0 L312 612 L546 612 L546 667 Z " />
<glyph glyph-name="U" unicode="U" horiz-adv-x="660" d="M590 667 L527 667 L527 268 C527 189 519 146 496 110 C466 62 412 38 335 38 C253 38 198 63 165 113 C142 149 134 188 134 267 L134 667 L71 667 L71 269 C71 185 80 139 104 96 C147 21 222 -15 334 -15 C433 -15 501 15 545 77 C580 126 590 170 590 267 L590 667 Z " />
<glyph glyph-name="V" unicode="V" horiz-adv-x="589" d="M581 667 L513 667 L339 186 C325 145 311 102 297 54 C292 71 286 89 281 108 C261 167 260 171 254 187 L80 667 L9 667 L259 0 L333 0 L581 667 Z " />
<glyph glyph-name="W" unicode="W" horiz-adv-x="873" d="M860 667 L796 667 L670 197 C653 127 648 106 640 66 L633 103 C629 118 625 135 622 147 C616 171 614 180 609 198 L474 667 L401 667 L269 205 C248 125 241 95 236 66 C230 98 222 132 204 204 L81 667 L14 667 L198 0 L267 0 L401 472 C417 528 424 553 437 607 C442 577 450 548 471 470 L606 0 L675 0 L860 667 Z " />
<glyph glyph-name="X" unicode="X" horiz-adv-x="571" d="M552 667 L481 667 L329 454 C325 446 320 439 314 432 L303 413 C297 404 291 396 286 387 C270 413 256 435 244 454 L96 667 L21 667 L248 343 L6 0 L79 0 L247 240 C253 249 259 257 264 265 C269 272 274 279 279 287 L285 296 C303 268 315 249 321 239 L488 0 L565 0 L324 343 L552 667 Z " />
<glyph glyph-name="Y" unicode="Y" horiz-adv-x="579" d="M586 667 L513 667 L327 386 C320 375 304 349 292 329 C282 347 268 371 257 388 L71 667 L-6 667 L259 276 L259 0 L322 0 L322 276 L586 667 Z " />
<glyph glyph-name="Z" unicode="Z" horiz-adv-x="574" d="M540 667 L59 667 L59 612 L380 612 C399 612 409 612 468 613 C464 608 459 602 454 596 L437 576 L28 57 L28 0 L549 0 L549 55 L196 55 L139 54 L100 53 C106 62 112 69 119 77 C124 83 129 89 134 96 L540 611 L540 667 Z " />
<glyph glyph-name="bracketleft" unicode="&#x5b;" horiz-adv-x="277" d="M225 667 L74 667 L74 -179 L225 -179 L225 -132 L129 -132 L129 620 L225 620 L225 667 Z " />
<glyph glyph-name="backslash" unicode="&#x5c;" horiz-adv-x="394" d="M37 667 L381 -179 L431 -179 L85 667 L37 667 Z " />
<glyph glyph-name="bracketright" unicode="&#x5d;" horiz-adv-x="277" d="M52 -179 L203 -179 L203 667 L52 667 L52 620 L148 620 L148 -132 L52 -132 L52 -179 Z " />
<glyph glyph-name="asciicircum" unicode="&#x5e;" horiz-adv-x="500" d="M96 379 L249 625 L404 379 L465 379 L286 668 L214 668 L35 379 L96 379 Z " />
<glyph glyph-name="underscore" unicode="&#x5f;" horiz-adv-x="500" d="M0 -75 L0 -118 L500 -118 L500 -75 L0 -75 Z " />
<glyph glyph-name="grave" unicode="&#x60;" horiz-adv-x="500" d="M127 686 L245 553 L292 553 L199 686 L127 686 Z " />
<glyph glyph-name="a" unicode="a" horiz-adv-x="499" d="M481 49 C470 46 464 45 459 45 C430 45 426 54 426 113 L426 186 L426 328 C427 397 420 421 397 446 C366 477 312 495 250 495 C130 495 60 437 55 333 L112 333 C120 412 159 446 243 446 C331 446 369 415 369 341 C369 300 351 286 293 280 C166 267 162 267 128 254 C65 231 33 186 33 123 C33 37 92 -14 190 -14 C273 -14 328 16 372 84 C372 19 388 -4 434 -4 C452 -4 465 -2 481 3 L481 49 Z M369 184 C369 97 300 34 205 34 C137 34 92 72 92 128 C92 155 106 182 126 196 C148 211 183 222 236 229 C336 242 350 246 369 263 L369 184 Z " />
<glyph glyph-name="b" unicode="b" horiz-adv-x="560" d="M133 667 L74 667 L74 0 L129 0 L129 94 C160 21 217 -14 302 -14 C435 -14 520 86 520 242 C520 396 436 495 305 495 C224 495 162 458 133 391 L133 667 Z M299 446 C397 446 461 364 461 241 C461 117 396 35 297 35 C196 35 131 116 131 241 C131 368 195 446 299 446 L299 446 Z " />
<glyph glyph-name="c" unicode="c" horiz-adv-x="497" d="M407 172 C395 85 342 35 261 35 C163 35 100 115 100 240 C100 366 165 446 266 446 C341 446 388 406 403 329 L463 329 C450 434 377 495 265 495 C129 495 41 394 41 236 C41 84 128 -14 263 -14 C374 -14 450 55 466 172 L407 172 Z " />
<glyph glyph-name="d" unicode="d" horiz-adv-x="561" d="M487 667 L428 667 L428 392 C395 461 338 495 257 495 C125 495 41 396 41 241 C41 84 125 -14 259 -14 C342 -14 398 22 432 96 L432 0 L487 0 L487 667 Z M266 446 C366 446 430 365 430 240 C430 114 366 35 264 35 C163 35 100 115 100 241 C100 369 162 446 266 446 L266 446 Z " />
<glyph glyph-name="e" unicode="e" horiz-adv-x="510" d="M411 159 C391 77 341 35 263 35 C161 35 103 103 100 226 L473 226 C473 288 466 330 449 369 C415 448 345 495 261 495 C132 495 41 388 41 235 C41 84 128 -14 262 -14 C372 -14 445 48 467 159 L411 159 Z M101 275 C114 386 169 446 259 446 C349 446 408 381 413 275 L101 275 Z " />
<glyph glyph-name="f" unicode="f" horiz-adv-x="260" d="M250 668 C231 671 217 672 204 672 C154 672 121 657 100 626 C86 604 82 583 82 522 L82 481 L0 481 L0 432 L82 432 L82 0 L141 0 L141 432 L238 432 L238 481 L141 481 L141 529 C141 567 143 583 149 595 C158 613 180 622 211 622 C220 622 231 621 250 618 L250 668 Z " />
<glyph glyph-name="g" unicode="g" horiz-adv-x="548" d="M474 481 L419 481 L419 391 C381 463 330 495 255 495 C125 495 41 396 41 245 C41 99 121 7 249 7 C330 7 382 40 416 112 L416 32 C416 -89 368 -141 258 -141 C174 -141 129 -109 119 -43 L60 -43 C67 -136 139 -189 257 -189 C346 -189 412 -158 445 -102 C466 -66 474 -27 474 46 L474 481 Z M260 446 C355 446 415 371 415 252 C415 132 353 56 256 56 C160 56 100 131 100 252 C100 299 112 347 132 379 C161 425 201 446 260 446 L260 446 Z " />
<glyph glyph-name="h" unicode="h" horiz-adv-x="537" d="M133 667 L74 667 L74 0 L133 0 L133 236 C133 304 138 333 155 366 C179 416 227 444 284 444 C327 444 364 428 385 401 C402 379 408 353 408 302 L408 0 L467 0 L467 310 C467 365 461 396 443 424 C415 470 364 495 299 495 C221 495 164 459 132 391 C133 439 133 439 133 448 L133 667 Z " />
<glyph glyph-name="i" unicode="i" horiz-adv-x="205" d="M132 667 L73 667 L73 573 L132 573 L132 667 Z M132 481 L73 481 L73 0 L132 0 L132 481 Z " />
<glyph glyph-name="j" unicode="j" horiz-adv-x="206" d="M132 481 L73 481 L73 -34 C73 -119 63 -135 9 -135 C7 -135 2 -135 -3 -134 L-13 -133 L-13 -182 C0 -184 6 -185 15 -185 C60 -185 92 -173 110 -149 C127 -126 132 -101 132 -32 L132 481 Z M132 667 L73 667 L73 573 L132 573 L132 667 Z " />
<glyph glyph-name="k" unicode="k" horiz-adv-x="503" d="M480 481 L401 481 L169 280 L153 265 L133 246 L133 667 L74 667 L74 0 L133 0 L133 182 L229 264 L420 0 L494 0 L274 304 L480 481 Z " />
<glyph glyph-name="l" unicode="l" horiz-adv-x="205" d="M132 667 L73 667 L73 0 L132 0 L132 667 Z " />
<glyph glyph-name="m" unicode="m" horiz-adv-x="812" d="M129 481 L74 481 L74 0 L133 0 L133 265 C133 310 138 342 151 368 C172 415 219 444 273 444 C315 444 350 425 366 395 C375 377 379 353 379 314 L379 0 L438 0 L438 277 C438 325 442 350 455 375 C476 419 519 444 572 444 C614 444 649 427 667 400 C678 382 683 357 683 315 L683 0 L742 0 L742 331 C742 384 735 412 714 440 C687 475 642 495 588 495 C515 495 466 466 428 401 C405 465 360 495 289 495 C220 495 175 467 129 397 L129 481 Z " />
<glyph glyph-name="n" unicode="n" horiz-adv-x="536" d="M129 481 L74 481 L74 0 L133 0 L133 242 C133 305 138 337 155 369 C179 416 228 444 287 444 C329 444 366 428 386 402 C402 380 408 352 408 291 L408 0 L467 0 L467 309 C467 372 461 400 442 429 C415 471 362 495 300 495 C247 495 202 478 169 445 C155 432 146 420 129 391 L129 481 Z " />
<glyph glyph-name="o" unicode="o" horiz-adv-x="538" d="M273 495 C131 495 41 396 41 240 C41 85 131 -14 270 -14 C409 -14 497 84 497 239 C497 394 409 495 273 495 L273 495 Z M272 446 C372 446 438 364 438 240 C438 115 373 35 271 35 C166 35 101 114 101 240 C101 367 167 446 272 446 L272 446 Z " />
<glyph glyph-name="p" unicode="p" horiz-adv-x="559" d="M129 481 L74 481 L74 -179 L133 -179 L133 90 C164 22 223 -14 304 -14 C433 -14 519 87 519 239 C519 394 433 495 301 495 C221 495 167 461 129 389 L129 481 Z M297 446 C395 446 460 364 460 239 C460 116 395 35 297 35 C194 35 131 113 131 239 C131 370 192 446 297 446 L297 446 Z " />
<glyph glyph-name="q" unicode="q" horiz-adv-x="559" d="M487 481 L432 481 L432 389 C417 417 411 426 401 438 C369 475 321 495 261 495 C127 495 42 396 42 238 C42 84 125 -14 256 -14 C337 -14 396 22 428 89 L428 -179 L487 -179 L487 481 Z M268 446 C366 446 430 366 430 241 C430 115 365 35 264 35 C164 35 101 114 101 238 C101 367 164 446 268 446 L268 446 Z " />
<glyph glyph-name="r" unicode="r" horiz-adv-x="309" d="M313 488 C223 490 165 451 129 366 L129 481 L74 481 L74 0 L133 0 L133 197 C133 298 142 337 175 376 C205 410 248 429 298 429 L313 429 L313 488 Z " />
<glyph glyph-name="s" unicode="s" horiz-adv-x="449" d="M395 342 C392 389 383 414 361 439 C330 476 278 495 212 495 C104 495 37 443 37 359 C37 317 57 281 91 262 C117 249 136 242 222 222 C324 197 354 176 354 128 C354 72 302 35 222 35 C131 35 86 74 80 157 L23 157 C26 47 97 -14 221 -14 C335 -14 412 45 412 133 C412 174 393 209 362 230 C332 249 300 261 233 276 C119 302 95 318 95 365 C95 416 136 446 208 446 C291 446 330 415 337 342 L395 342 Z " />
<glyph glyph-name="t" unicode="t" horiz-adv-x="263" d="M234 481 L134 481 L134 629 L75 629 L75 481 L-9 481 L-9 432 L75 432 L75 158 C75 74 77 56 86 38 C100 9 129 -3 181 -3 C203 -3 215 -2 234 0 L234 51 C218 49 207 48 195 48 C143 48 134 60 134 128 L134 432 L234 432 L234 481 Z " />
<glyph glyph-name="u" unicode="u" horiz-adv-x="535" d="M461 481 L402 481 L402 234 C402 176 394 139 375 107 C349 63 303 37 250 37 C200 37 156 62 141 99 C132 122 129 144 129 196 L129 481 L70 481 L70 171 C70 113 79 76 101 47 C129 10 182 -14 237 -14 C313 -14 367 20 406 90 L406 0 L461 0 L461 481 Z " />
<glyph glyph-name="v" unicode="v" horiz-adv-x="432" d="M430 481 L370 481 L267 193 C251 150 241 117 222 58 C199 130 188 164 178 189 L66 481 L3 481 L189 0 L253 0 L430 481 Z " />
<glyph glyph-name="w" unicode="w" horiz-adv-x="695" d="M688 481 L627 481 L531 174 C521 141 515 119 502 64 C488 126 482 149 474 176 L383 481 L315 481 L229 190 L223 169 L213 128 L198 63 C181 127 174 153 164 188 L72 481 L8 481 L165 0 L230 0 L324 317 C331 342 336 362 348 411 C359 364 364 345 372 316 L468 0 L531 0 L688 481 Z " />
<glyph glyph-name="x" unicode="x" horiz-adv-x="450" d="M430 481 L360 481 L254 340 C247 331 241 322 223 296 L207 320 C202 326 198 333 193 340 L89 481 L14 481 L186 253 L0 0 L70 0 L198 177 C201 181 209 193 222 213 C234 194 238 188 246 176 L375 0 L449 0 L259 257 L430 481 Z " />
<glyph glyph-name="y" unicode="y" horiz-adv-x="437" d="M435 481 L375 481 L257 156 C248 132 242 113 227 65 C207 125 204 133 198 150 L68 481 L3 481 L197 3 C198 2 198 0 198 0 C198 0 198 -1 197 -3 C194 -9 191 -14 189 -20 C162 -88 161 -91 150 -105 C136 -124 118 -133 94 -133 C82 -133 72 -132 52 -127 L52 -179 L65 -180 C78 -182 91 -183 104 -183 C143 -183 173 -168 193 -138 C207 -117 218 -91 246 -19 L435 481 Z " />
<glyph glyph-name="z" unicode="z" horiz-adv-x="437" d="M413 481 L44 481 L44 432 L300 432 L320 432 L338 433 L325 416 C318 409 312 402 305 394 L23 48 L23 0 L426 0 L426 49 L145 49 L117 49 L94 49 C100 55 105 62 111 70 L126 87 L413 439 L413 481 Z " />
<glyph glyph-name="braceleft" unicode="&#x7b;" horiz-adv-x="277" d="M129 526 C129 562 134 583 148 598 C160 611 186 620 213 620 L224 620 L224 667 L213 667 C115 667 74 627 74 531 L74 360 C74 305 58 280 17 268 L17 222 C59 210 74 185 74 127 L74 -30 C74 -139 111 -179 213 -179 L224 -179 L224 -132 L213 -132 C189 -132 164 -125 152 -115 C136 -100 129 -76 129 -34 L129 127 C129 191 115 221 74 243 C115 265 129 294 129 357 L129 526 Z " />
<glyph glyph-name="bar" unicode="&#x7c;" horiz-adv-x="500" d="M219 667 L219 -167 L282 -167 L282 667 L219 667 Z " />
<glyph glyph-name="braceright" unicode="&#x7d;" horiz-adv-x="277" d="M148 -38 C148 -74 143 -94 129 -110 C118 -123 92 -132 65 -132 L54 -132 L54 -179 L65 -179 C162 -179 203 -139 203 -43 L203 128 C203 183 219 208 261 220 L261 266 C218 278 203 303 203 361 L203 518 C203 627 166 667 65 667 L54 667 L54 620 L65 620 C88 620 114 613 125 603 C141 588 148 564 148 522 L148 361 C148 297 162 267 203 245 C162 223 148 194 148 131 L148 -38 Z " />
<glyph glyph-name="asciitilde" unicode="&#x7e;" horiz-adv-x="667" d="M130 587 C161 641 190 665 225 665 C245 665 270 657 309 637 C393 594 407 589 435 589 C493 589 540 626 573 696 L538 723 C506 667 478 645 441 645 C419 645 399 652 344 680 C289 709 254 721 228 721 C174 721 129 685 95 614 L130 587 Z " />
<glyph glyph-name="uni00A0" unicode="&#xa0;" horiz-adv-x="250" d="" />
<glyph glyph-name="exclamdown" unicode="&#xa1;" horiz-adv-x="263" d="M90 -185 L153 -185 L153 10 L139 314 L104 314 L90 10 L90 -185 Z M87 388 L157 388 L157 481 L87 481 L87 388 Z " />
<glyph glyph-name="cent" unicode="&#xa2;" horiz-adv-x="547" d="M435 273 C425 196 372 141 306 138 L306 547 C371 541 421 495 430 430 L490 430 C481 525 408 592 306 596 L306 678 L263 678 L263 596 C213 588 182 575 152 552 C95 507 64 432 64 341 C64 196 138 102 263 89 L263 -11 L306 -11 L306 89 C405 93 481 169 492 273 L435 273 Z M263 138 C174 156 125 228 125 344 C125 456 175 529 263 545 L263 138 Z " />
<glyph glyph-name="sterling" unicode="&#xa3;" horiz-adv-x="547" d="M502 443 C502 584 423 664 284 664 C158 664 70 590 70 484 C70 438 79 411 118 342 L64 342 L64 299 L143 299 C161 256 166 237 166 207 C166 145 132 88 61 34 L94 -15 C138 15 165 25 198 25 C217 25 249 19 275 10 C346 -14 361 -18 390 -18 C440 -18 492 4 528 40 L498 84 C466 54 426 36 390 36 C374 36 358 39 343 44 C265 69 255 72 224 72 C190 72 171 66 121 42 C126 46 130 50 134 55 C199 115 223 160 223 218 C223 248 217 273 205 299 L335 299 L335 342 L182 342 C175 356 175 356 165 375 C139 423 131 447 131 482 C131 560 193 613 283 613 C384 613 442 552 444 443 L502 443 Z " />
<glyph glyph-name="currency" unicode="&#xa4;" horiz-adv-x="667" d="M64 119 L97 86 L189 178 C239 142 284 126 334 126 C386 126 433 143 478 179 L571 86 L605 119 L512 212 C548 260 563 301 563 355 C563 408 548 450 511 498 L604 590 L570 624 L477 532 C430 569 386 585 333 585 C280 585 236 569 187 532 L95 624 L61 590 L155 498 C118 450 103 409 103 356 C103 302 119 257 155 212 L64 119 Z M335 532 C431 532 508 453 508 355 C508 257 430 179 333 179 C236 179 158 258 158 355 C158 455 235 532 335 532 L335 532 Z " />
<glyph glyph-name="yen" unicode="&#xa5;" horiz-adv-x="547" d="M185 380 L49 380 L49 340 L208 340 L246 276 L246 227 L69 227 L69 187 L246 187 L246 0 L301 0 L301 187 L477 187 L477 227 L301 227 L301 276 L338 340 L497 340 L497 380 L362 380 L517 647 L454 647 L305 385 C298 374 284 347 275 329 C261 356 254 370 244 387 L95 647 L29 647 L185 380 Z " />
<glyph glyph-name="brokenbar" unicode="&#xa6;" horiz-adv-x="500" d="M219 667 L219 336 L282 336 L282 667 L219 667 Z M219 153 L219 -167 L282 -167 L282 153 L219 153 Z " />
<glyph glyph-name="section" unicode="&#xa7;" horiz-adv-x="547" d="M440 493 C438 599 377 659 270 659 C176 659 109 602 109 522 C109 484 123 454 156 424 C94 404 55 353 55 290 C55 226 88 183 173 133 C280 71 292 64 312 51 C366 15 384 -10 384 -47 C384 -99 340 -136 278 -136 C203 -136 161 -93 156 -12 L98 -12 C103 -124 166 -185 276 -185 C374 -185 443 -127 443 -44 C443 0 429 28 389 63 C454 88 491 138 491 198 C491 267 455 306 325 381 C227 437 226 438 213 447 C182 470 167 494 167 525 C167 575 208 610 269 610 C340 610 378 571 383 493 L440 493 Z M190 395 C201 386 207 382 230 369 C404 271 435 244 435 189 C435 146 406 111 353 92 C334 106 310 121 268 146 C182 196 168 205 149 221 C122 245 110 267 110 295 C110 339 135 370 190 395 L190 395 Z " />
<glyph glyph-name="dieresis" unicode="&#xa8;" horiz-adv-x="500" d="M364 668 L304 668 L304 573 L364 573 L364 668 Z M195 668 L135 668 L135 573 L195 573 L195 668 Z " />
<glyph glyph-name="copyright" unicode="&#xa9;" horiz-adv-x="788" d="M534 294 C524 216 478 173 404 173 C317 173 261 237 261 334 C261 430 318 494 405 494 C471 494 516 462 529 405 L574 405 C566 480 497 532 406 532 C292 532 216 452 216 333 C216 214 290 135 403 135 C502 135 571 197 579 294 L534 294 Z M399 682 C201 682 46 528 46 333 C46 141 202 -15 394 -15 C587 -15 742 141 742 333 C742 524 587 682 399 682 L399 682 Z M398 648 C566 648 704 506 704 334 C704 159 566 19 394 19 C223 19 84 160 84 333 C84 510 222 648 398 648 L398 648 Z " />
<glyph glyph-name="ordfeminine" unicode="&#xaa;" horiz-adv-x="365" d="M331 297 L331 330 L34 330 L34 297 L331 297 Z M315 434 C306 432 302 431 299 431 C284 431 284 432 284 500 L285 582 C285 616 280 634 267 647 C249 665 219 675 182 675 C112 675 73 642 70 580 L108 580 C112 623 134 642 179 642 C225 642 246 625 246 588 C246 567 237 561 206 558 C135 551 132 551 113 544 C77 531 58 505 58 469 C58 421 92 393 149 393 C193 393 225 407 248 438 C250 410 261 398 286 398 C297 398 304 399 315 403 L315 434 Z M246 503 C246 457 210 426 158 426 C119 426 98 443 98 473 C98 490 107 503 124 511 C137 518 157 522 203 527 C223 530 226 531 246 538 L246 503 Z " />
<glyph glyph-name="guillemotleft" unicode="&#xab;" horiz-adv-x="388" d="M174 100 L174 164 L86 247 L174 332 L174 393 L49 276 L49 219 L174 100 Z M325 101 L325 163 L237 247 L325 332 L325 393 L200 275 L200 218 L325 101 Z " />
<glyph glyph-name="logicalnot" unicode="&#xac;" horiz-adv-x="500" d="M405 0 L466 0 L466 274 L33 274 L33 219 L405 219 L405 0 Z " />
<glyph glyph-name="uni00AD" unicode="&#xad;" horiz-adv-x="222" d="M222 273 L0 273 L0 220 L222 220 L222 273 Z " />
<glyph glyph-name="registered" unicode="&#xae;" horiz-adv-x="788" d="M252 524 L252 143 L297 143 L297 310 L411 310 C497 310 510 295 515 198 C517 167 520 152 527 143 L580 143 C566 157 563 167 559 210 C555 292 545 312 499 328 C542 344 565 376 565 420 C565 487 518 524 431 524 L252 524 Z M297 486 L419 486 C487 486 520 464 520 417 C520 392 507 370 486 359 C469 350 446 346 406 346 L297 346 L297 486 Z M399 682 C201 682 46 528 46 333 C46 141 202 -15 394 -15 C587 -15 742 141 742 333 C742 524 587 682 399 682 L399 682 Z M398 648 C566 648 704 506 704 334 C704 159 566 19 394 19 C223 19 84 160 84 333 C84 510 222 648 398 648 L398 648 Z " />
<glyph glyph-name="macron" unicode="&#xaf;" horiz-adv-x="500" d="M382 642 L119 642 L119 600 L382 600 L382 642 Z " />
<glyph glyph-name="degree" unicode="&#xb0;" horiz-adv-x="374" d="M188 664 C108 664 45 601 45 522 C45 443 109 379 188 379 C266 379 330 443 330 521 C330 600 267 664 188 664 L188 664 Z M186 626 C245 626 291 580 291 519 C291 464 243 417 188 417 C130 417 84 464 84 522 C84 579 130 626 186 626 L186 626 Z " />
<glyph glyph-name="plusminus" unicode="&#xb1;" horiz-adv-x="547" d="M49 395 L49 352 L251 352 L251 150 L294 150 L294 352 L496 352 L496 395 L294 395 L294 597 L251 597 L251 395 L49 395 Z M49 93 L49 50 L496 50 L496 93 L49 93 Z " />
<glyph glyph-name="twosuperior" unicode="&#xb2;" horiz-adv-x="356" d="M312 305 L86 305 C95 336 115 356 177 393 C282 456 310 490 310 549 C310 618 260 663 182 663 C138 663 102 648 78 621 C59 598 49 571 47 528 L47 519 L90 519 C92 591 121 627 180 627 C231 627 266 596 266 550 C266 506 245 481 167 432 C68 373 42 340 37 267 L312 267 L312 305 Z " />
<glyph glyph-name="threesuperior" unicode="&#xb3;" horiz-adv-x="356" d="M81 529 C83 594 114 627 173 627 C223 627 256 600 256 558 C256 516 217 487 164 490 L153 491 L144 491 L144 455 L152 455 L167 455 L178 456 C230 459 271 424 271 378 C271 331 228 294 172 294 C146 294 115 305 99 320 C83 335 71 365 72 387 L72 390 L72 397 L30 397 C30 360 34 341 46 320 C69 281 115 258 171 258 C256 258 315 309 315 381 C315 428 288 463 242 476 C280 492 300 521 300 559 C300 621 250 663 175 663 C89 663 42 616 39 529 L81 529 Z " />
<glyph glyph-name="acute" unicode="&#xb4;" horiz-adv-x="500" d="M372 686 L301 686 L207 553 L254 553 L372 686 Z " />
<glyph glyph-name="mu" unicode="&#xb5;" horiz-adv-x="500" d="M55 -165 L110 -165 L110 64 C143 10 184 -14 242 -14 C311 -14 359 22 389 98 L389 0 L444 0 L444 480 L389 480 L389 214 C389 108 329 33 243 33 C210 33 174 48 149 72 C119 102 110 131 110 203 L110 480 L55 480 L55 -165 Z " />
<glyph glyph-name="paragraph" unicode="&#xb6;" horiz-adv-x="547" d="M236 -179 L293 -179 L293 622 L386 622 L386 -179 L443 -179 L443 622 L486 622 L486 667 L253 667 C199 667 159 659 128 643 C76 614 44 556 44 488 C44 386 117 313 220 313 L236 313 L236 -179 Z " />
<glyph glyph-name="periodcentered" unicode="&#xb7;" horiz-adv-x="223" d="M150 297 L73 297 L73 197 L150 197 L150 297 Z " />
<glyph glyph-name="cedilla" unicode="&#xb8;" horiz-adv-x="500" d="M277 0 L246 0 L190 -72 L204 -86 C221 -80 230 -78 243 -78 C273 -78 292 -93 292 -116 C292 -142 271 -158 236 -158 C213 -158 193 -153 169 -143 L156 -171 C192 -185 213 -190 243 -190 C303 -190 343 -160 344 -116 C345 -73 319 -49 271 -49 C258 -49 253 -50 237 -52 L277 0 Z " />
<glyph glyph-name="onesuperior" unicode="&#xb9;" horiz-adv-x="356" d="M228 659 L193 659 C180 598 164 589 78 587 L78 554 L98 554 L131 554 L171 554 L183 554 L183 267 L228 267 L228 659 Z " />
<glyph glyph-name="ordmasculine" unicode="&#xba;" horiz-adv-x="365" d="M331 297 L331 330 L34 330 L34 297 L331 297 Z M185 674 C103 674 52 620 52 534 C52 448 103 393 183 393 C263 393 314 448 314 533 C314 618 263 674 185 674 L185 674 Z M184 641 C239 641 274 599 274 533 C274 467 239 426 184 426 C126 426 92 466 92 534 C92 601 126 641 184 641 L184 641 Z " />
<glyph glyph-name="guillemotright" unicode="&#xbb;" horiz-adv-x="388" d="M213 393 L213 329 L302 246 L213 162 L213 100 L339 218 L339 274 L213 393 Z M63 392 L63 331 L151 247 L63 162 L63 101 L188 219 L188 276 L63 392 Z " />
<glyph glyph-name="onequarter" unicode="&#xbc;" horiz-adv-x="858" d="M229 659 L194 659 C181 598 165 589 78 587 L78 554 L98 554 L131 554 L172 554 L184 554 L184 267 L229 267 L229 659 Z M649 655 L606 655 L209 0 L254 0 L649 655 Z M822 130 L761 130 L761 392 L725 392 L533 132 L533 95 L720 95 L720 0 L761 0 L761 95 L822 95 L822 130 Z M720 130 L573 130 L720 332 L720 130 Z " />
<glyph glyph-name="onehalf" unicode="&#xbd;" horiz-adv-x="858" d="M229 659 L194 659 C181 598 165 589 78 587 L78 554 L98 554 L131 554 L172 554 L184 554 L184 267 L229 267 L229 659 Z M649 655 L606 655 L209 0 L254 0 L649 655 Z M815 38 L589 38 C598 69 619 89 680 126 C785 190 813 224 813 284 C813 352 763 397 685 397 C641 397 605 382 581 355 C562 332 552 304 550 262 L550 253 L593 253 C595 325 624 360 683 360 C735 360 769 330 769 283 C769 240 748 215 670 166 C572 106 546 73 540 0 L815 0 L815 38 Z " />
<glyph glyph-name="threequarters" unicode="&#xbe;" horiz-adv-x="858" d="M81 529 C83 594 114 627 173 627 C223 627 256 600 256 558 C256 516 217 487 164 490 L153 491 L144 491 L144 455 L152 455 L167 455 L178 456 C230 459 271 424 271 378 C271 331 228 294 172 294 C146 294 115 305 99 320 C83 335 71 365 72 387 L72 390 L72 397 L30 397 C30 360 34 341 46 320 C69 281 115 258 171 258 C256 258 315 309 315 381 C315 428 288 463 242 476 C280 492 300 521 300 559 C300 621 250 663 175 663 C89 663 42 616 39 529 L81 529 Z M649 655 L605 655 L209 0 L253 0 L649 655 Z M822 130 L761 130 L761 392 L725 392 L533 132 L533 95 L720 95 L720 0 L761 0 L761 95 L822 95 L822 130 Z M720 130 L573 130 L720 332 L720 130 Z " />
<glyph glyph-name="questiondown" unicode="&#xbf;" horiz-adv-x="494" d="M388 21 C385 -29 380 -53 364 -79 C339 -123 294 -148 238 -148 C159 -148 104 -97 104 -23 C104 21 121 56 163 97 C262 193 269 206 270 315 L214 315 C213 231 205 208 155 162 C112 122 93 103 82 88 C56 54 43 17 43 -27 C43 -130 122 -200 237 -200 C311 -200 375 -168 410 -113 C433 -78 442 -40 444 21 L388 21 Z M208 388 L278 388 L278 481 L208 481 L208 388 Z " />
<glyph glyph-name="Agrave" unicode="&#xc0;" horiz-adv-x="623" d="M349 669 L278 669 L9 0 L77 0 L159 210 L464 210 L544 0 L615 0 L349 669 Z M445 261 L178 261 L276 511 C292 553 305 586 313 609 C320 587 328 563 349 508 L445 261 Z M179 848 L310 722 L359 722 L256 848 L179 848 Z " />
<glyph glyph-name="Aacute" unicode="&#xc1;" horiz-adv-x="623" d="M349 669 L278 669 L9 0 L77 0 L159 210 L464 210 L544 0 L615 0 L349 669 Z M445 261 L178 261 L276 511 C292 553 305 586 313 609 C320 587 328 563 349 508 L445 261 Z M468 848 L391 848 L287 722 L336 722 L468 848 Z " />
<glyph glyph-name="Acircumflex" unicode="&#xc2;" horiz-adv-x="623" d="M349 669 L278 669 L9 0 L77 0 L159 210 L464 210 L544 0 L615 0 L349 669 Z M445 261 L178 261 L276 511 C292 553 305 586 313 609 C320 587 328 563 349 508 L445 261 Z M458 722 L342 848 L281 848 L166 722 L219 722 L310 813 L399 722 L458 722 Z " />
<glyph glyph-name="Atilde" unicode="&#xc3;" horiz-adv-x="623" d="M349 669 L278 669 L9 0 L77 0 L159 210 L464 210 L544 0 L615 0 L349 669 Z M445 261 L178 261 L276 511 C292 553 305 586 313 609 C320 587 328 563 349 508 L445 261 Z M430 831 C422 800 407 785 385 785 C369 785 362 788 319 809 C294 822 276 827 257 827 C211 827 181 796 171 737 L206 737 C215 770 228 783 253 783 C270 783 275 781 320 759 C345 747 366 741 385 741 C428 741 455 771 466 831 L430 831 Z " />
<glyph glyph-name="Adieresis" unicode="&#xc4;" horiz-adv-x="623" d="M349 669 L278 669 L9 0 L77 0 L159 210 L464 210 L544 0 L615 0 L349 669 Z M445 261 L178 261 L276 511 C292 553 305 586 313 609 C320 587 328 563 349 508 L445 261 Z M445 830 L382 830 L382 737 L445 737 L445 830 Z M242 830 L179 830 L179 737 L242 737 L242 830 Z " />
<glyph glyph-name="Aring" unicode="&#xc5;" horiz-adv-x="623" d="M349 669 L278 669 L9 0 L77 0 L159 210 L464 210 L544 0 L615 0 L349 669 Z M445 261 L178 261 L276 511 C292 553 305 586 313 609 C320 587 328 563 349 508 L445 261 Z M314 897 C260 897 215 853 215 801 C215 747 259 703 312 703 C365 703 409 747 409 800 C409 852 365 897 314 897 L314 897 Z M313 858 C344 858 370 832 370 800 C370 768 344 742 312 742 C280 742 254 768 254 800 C254 832 280 858 313 858 L313 858 Z " />
<glyph glyph-name="AE" unicode="&#xc6;" horiz-adv-x="874" d="M831 667 L349 667 L1 0 L74 0 L185 218 L424 218 L424 0 L835 0 L835 55 L487 55 L487 318 L808 318 L808 373 L487 373 L487 612 L831 612 L831 667 Z M424 271 L211 271 L385 612 L424 612 L424 271 Z " />
<glyph glyph-name="Ccedilla" unicode="&#xc7;" horiz-adv-x="674" d="M575 255 C566 126 476 39 352 39 C205 39 109 156 109 333 C109 510 208 627 356 627 C428 627 482 604 522 555 C546 526 559 501 566 467 L629 467 C607 599 502 682 357 682 C262 682 188 650 130 582 C73 516 46 435 46 331 C46 133 153 -1 320 -13 L273 -76 L288 -90 C308 -83 318 -81 328 -81 C354 -81 376 -98 376 -118 C376 -143 353 -161 320 -161 C298 -161 277 -156 252 -146 L239 -174 C275 -188 299 -193 327 -193 C387 -193 429 -160 429 -113 C429 -79 397 -52 356 -52 C348 -52 341 -53 322 -56 L353 -15 C512 -15 624 91 638 255 L575 255 Z " />
<glyph glyph-name="Egrave" unicode="&#xc8;" horiz-adv-x="585" d="M544 667 L81 667 L81 0 L548 0 L548 55 L144 55 L144 318 L518 318 L518 373 L144 373 L144 612 L544 612 L544 667 Z M195 848 L327 722 L376 722 L272 848 L195 848 Z " />
<glyph glyph-name="Eacute" unicode="&#xc9;" horiz-adv-x="585" d="M544 667 L81 667 L81 0 L548 0 L548 55 L144 55 L144 318 L518 318 L518 373 L144 373 L144 612 L544 612 L544 667 Z M451 848 L374 848 L271 722 L320 722 L451 848 Z " />
<glyph glyph-name="Ecircumflex" unicode="&#xca;" horiz-adv-x="585" d="M544 667 L81 667 L81 0 L548 0 L548 55 L144 55 L144 318 L518 318 L518 373 L144 373 L144 612 L544 612 L544 667 Z M460 722 L344 848 L283 848 L168 722 L222 722 L312 813 L401 722 L460 722 Z " />
<glyph glyph-name="Edieresis" unicode="&#xcb;" horiz-adv-x="585" d="M544 667 L81 667 L81 0 L548 0 L548 55 L144 55 L144 318 L518 318 L518 373 L144 373 L144 612 L544 612 L544 667 Z M445 830 L382 830 L382 737 L445 737 L445 830 Z M243 830 L180 830 L180 737 L243 737 L243 830 Z " />
<glyph glyph-name="Igrave" unicode="&#xcc;" horiz-adv-x="223" d="M144 667 L81 667 L81 0 L144 0 L144 667 Z M-5 848 L110 722 L155 722 L68 848 L-5 848 Z " />
<glyph glyph-name="Iacute" unicode="&#xcd;" horiz-adv-x="223" d="M143 667 L80 667 L80 0 L143 0 L143 667 Z M252 848 L179 848 L92 722 L137 722 L252 848 Z " />
<glyph glyph-name="Icircumflex" unicode="&#xce;" horiz-adv-x="223" d="M143 667 L80 667 L80 0 L143 0 L143 667 Z M235 722 L142 848 L81 848 L-14 722 L39 722 L110 813 L179 722 L235 722 Z " />
<glyph glyph-name="Idieresis" unicode="&#xcf;" horiz-adv-x="223" d="M143 667 L80 667 L80 0 L143 0 L143 667 Z M204 830 L141 830 L141 737 L204 737 L204 830 Z M82 830 L19 830 L19 737 L82 737 L82 830 Z " />
<glyph glyph-name="Eth" unicode="&#xd0;" horiz-adv-x="666" d="M81 667 L81 377 L11 377 L11 324 L81 324 L81 0 L318 0 C416 0 473 20 526 74 C588 137 620 228 620 346 C620 454 586 543 524 600 C471 647 410 667 313 667 L81 667 Z M144 612 L313 612 C390 612 441 595 483 554 C532 506 557 436 557 343 C557 242 534 167 486 116 C444 70 397 55 303 55 L144 55 L144 324 L344 324 L344 377 L144 377 L144 612 Z " />
<glyph glyph-name="Ntilde" unicode="&#xd1;" horiz-adv-x="686" d="M606 667 L545 667 L545 251 C545 206 547 121 549 75 C528 114 495 167 462 215 L152 667 L81 667 L81 0 L142 0 L142 431 L141 526 C141 552 140 565 138 591 C155 556 163 544 226 447 L535 0 L606 0 L606 667 Z M464 831 C456 800 441 785 419 785 C404 785 396 788 353 809 C328 822 311 827 291 827 C245 827 216 796 205 737 L241 737 C249 770 262 783 287 783 C304 783 310 781 354 759 C379 747 400 741 419 741 C462 741 489 771 500 831 L464 831 Z " />
<glyph glyph-name="Ograve" unicode="&#xd2;" horiz-adv-x="720" d="M364 682 C172 682 46 544 46 333 C46 125 172 -15 359 -15 C547 -15 674 124 674 332 C674 538 547 682 364 682 L364 682 Z M363 627 C510 627 611 506 611 332 C611 157 511 40 360 40 C209 40 109 157 109 335 C109 512 209 627 363 627 L363 627 Z M236 848 L368 722 L417 722 L313 848 L236 848 Z " />
<glyph glyph-name="Oacute" unicode="&#xd3;" horiz-adv-x="720" d="M364 682 C172 682 46 544 46 333 C46 125 172 -15 359 -15 C547 -15 674 124 674 332 C674 538 547 682 364 682 L364 682 Z M363 627 C510 627 611 506 611 332 C611 157 511 40 360 40 C209 40 109 157 109 335 C109 512 209 627 363 627 L363 627 Z M497 848 L420 848 L316 722 L365 722 L497 848 Z " />
<glyph glyph-name="Ocircumflex" unicode="&#xd4;" horiz-adv-x="720" d="M364 682 C172 682 46 544 46 333 C46 125 172 -15 359 -15 C547 -15 674 124 674 332 C674 538 547 682 364 682 L364 682 Z M363 627 C510 627 611 506 611 332 C611 157 511 40 360 40 C209 40 109 157 109 335 C109 512 209 627 363 627 L363 627 Z M506 722 L390 848 L329 848 L214 722 L267 722 L358 813 L447 722 L506 722 Z " />
<glyph glyph-name="Otilde" unicode="&#xd5;" horiz-adv-x="720" d="M364 682 C172 682 46 544 46 333 C46 125 172 -15 359 -15 C547 -15 674 124 674 332 C674 538 547 682 364 682 L364 682 Z M363 627 C510 627 611 506 611 332 C611 157 511 40 360 40 C209 40 109 157 109 335 C109 512 209 627 363 627 L363 627 Z M481 831 C473 800 458 785 436 785 C421 785 413 788 370 809 C345 822 328 827 308 827 C262 827 233 796 222 737 L258 737 C266 770 279 783 304 783 C321 783 327 781 371 759 C396 747 417 741 436 741 C479 741 506 771 517 831 L481 831 Z " />
<glyph glyph-name="Odieresis" unicode="&#xd6;" horiz-adv-x="720" d="M364 682 C172 682 46 544 46 333 C46 125 172 -15 359 -15 C547 -15 674 124 674 332 C674 538 547 682 364 682 L364 682 Z M363 627 C510 627 611 506 611 332 C611 157 511 40 360 40 C209 40 109 157 109 335 C109 512 209 627 363 627 L363 627 Z M493 830 L430 830 L430 737 L493 737 L493 830 Z M290 830 L227 830 L227 737 L290 737 L290 830 Z " />
<glyph glyph-name="multiply" unicode="&#xd7;" horiz-adv-x="547" d="M83 164 L114 133 L273 293 L432 133 L463 164 L304 323 L463 483 L432 513 L273 354 L114 513 L83 483 L242 323 L83 164 Z " />
<glyph glyph-name="Oslash" unicode="&#xd8;" horiz-adv-x="720" d="M673 647 L639 678 L571 601 C515 655 444 682 359 682 C172 682 46 541 46 333 C46 239 69 165 118 99 L46 19 L80 -11 L150 64 C208 10 274 -15 359 -15 C548 -15 674 124 674 332 C674 425 651 501 602 566 L673 647 Z M557 525 C594 471 611 409 611 332 C611 157 510 40 360 40 C294 40 248 58 192 105 L557 525 Z M162 143 C126 196 109 259 109 336 C109 510 210 627 360 627 C428 627 476 608 529 560 L162 143 Z " />
<glyph glyph-name="Ugrave" unicode="&#xd9;" horiz-adv-x="660" d="M590 667 L527 667 L527 268 C527 189 519 146 496 110 C466 62 412 38 335 38 C253 38 198 63 165 113 C142 149 134 188 134 267 L134 667 L71 667 L71 269 C71 185 80 139 104 96 C147 21 222 -15 334 -15 C433 -15 501 15 545 77 C580 126 590 170 590 267 L590 667 Z M206 848 L338 722 L387 722 L283 848 L206 848 Z " />
<glyph glyph-name="Uacute" unicode="&#xda;" horiz-adv-x="660" d="M590 667 L527 667 L527 268 C527 189 519 146 496 110 C466 62 412 38 335 38 C253 38 198 63 165 113 C142 149 134 188 134 267 L134 667 L71 667 L71 269 C71 185 80 139 104 96 C147 21 222 -15 334 -15 C433 -15 501 15 545 77 C580 126 590 170 590 267 L590 667 Z M475 848 L399 848 L295 722 L344 722 L475 848 Z " />
<glyph glyph-name="Ucircumflex" unicode="&#xdb;" horiz-adv-x="660" d="M590 667 L527 667 L527 268 C527 189 519 146 496 110 C466 62 412 38 335 38 C253 38 198 63 165 113 C142 149 134 188 134 267 L134 667 L71 667 L71 269 C71 185 80 139 104 96 C147 21 222 -15 334 -15 C433 -15 501 15 545 77 C580 126 590 170 590 267 L590 667 Z M477 722 L361 848 L300 848 L185 722 L238 722 L329 813 L417 722 L477 722 Z " />
<glyph glyph-name="Udieresis" unicode="&#xdc;" horiz-adv-x="660" d="M590 667 L527 667 L527 268 C527 189 519 146 496 110 C466 62 412 38 335 38 C253 38 198 63 165 113 C142 149 134 188 134 267 L134 667 L71 667 L71 269 C71 185 80 139 104 96 C147 21 222 -15 334 -15 C433 -15 501 15 545 77 C580 126 590 170 590 267 L590 667 Z M463 830 L400 830 L400 737 L463 737 L463 830 Z M260 830 L197 830 L197 737 L260 737 L260 830 Z " />
<glyph glyph-name="Yacute" unicode="&#xdd;" horiz-adv-x="579" d="M586 667 L513 667 L327 386 C320 375 304 349 292 329 C282 347 268 371 257 388 L71 667 L-6 667 L259 276 L259 0 L322 0 L322 276 L586 667 Z M428 848 L351 848 L247 722 L296 722 L428 848 Z " />
<glyph glyph-name="Thorn" unicode="&#xde;" horiz-adv-x="609" d="M81 667 L81 0 L144 0 L144 184 L354 184 C422 184 463 194 501 221 C549 255 575 310 575 379 C575 446 548 501 499 534 C462 558 422 567 347 567 L144 567 L144 667 L81 667 Z M144 512 L333 512 C399 512 426 507 454 489 C490 467 512 424 512 376 C512 328 490 286 452 262 C425 245 394 239 337 239 L144 239 L144 512 Z " />
<glyph glyph-name="germandbls" unicode="&#xdf;" horiz-adv-x="518" d="M223 -5 L243 -6 C255 -7 264 -7 268 -7 C394 -7 477 76 477 201 C477 299 426 363 338 375 C405 392 444 444 444 516 C444 616 371 680 259 680 C188 680 130 653 100 606 C79 575 74 544 74 457 L74 0 L133 0 L133 476 C133 535 139 564 157 589 C176 616 212 631 257 631 C332 631 385 583 385 514 C385 466 362 428 323 410 C296 397 280 395 223 394 L223 346 C229 347 234 347 235 347 C360 347 418 300 418 199 C418 99 359 41 257 41 C249 41 241 42 223 43 L223 -5 Z " />
<glyph glyph-name="agrave" unicode="&#xe0;" horiz-adv-x="499" d="M481 49 C470 46 464 45 459 45 C430 45 426 54 426 113 L426 186 L426 328 C427 397 420 421 397 446 C366 477 312 495 250 495 C130 495 60 437 55 333 L112 333 C120 412 159 446 243 446 C331 446 369 415 369 341 C369 300 351 286 293 280 C166 267 162 267 128 254 C65 231 33 186 33 123 C33 37 92 -14 190 -14 C273 -14 328 16 372 84 C372 19 388 -4 434 -4 C452 -4 465 -2 481 3 L481 49 Z M369 184 C369 97 300 34 205 34 C137 34 92 72 92 128 C92 155 106 182 126 196 C148 211 183 222 236 229 C336 242 350 246 369 263 L369 184 Z M144 686 L262 553 L309 553 L215 686 L144 686 Z " />
<glyph glyph-name="aacute" unicode="&#xe1;" horiz-adv-x="499" d="M481 49 C470 46 464 45 459 45 C430 45 426 54 426 113 L426 186 L426 328 C427 397 420 421 397 446 C366 477 312 495 250 495 C130 495 60 437 55 333 L112 333 C120 412 159 446 243 446 C331 446 369 415 369 341 C369 300 351 286 293 280 C166 267 162 267 128 254 C65 231 33 186 33 123 C33 37 92 -14 190 -14 C273 -14 328 16 372 84 C372 19 388 -4 434 -4 C452 -4 465 -2 481 3 L481 49 Z M369 184 C369 97 300 34 205 34 C137 34 92 72 92 128 C92 155 106 182 126 196 C148 211 183 222 236 229 C336 242 350 246 369 263 L369 184 Z M386 686 L315 686 L221 553 L268 553 L386 686 Z " />
<glyph glyph-name="acircumflex" unicode="&#xe2;" horiz-adv-x="499" d="M481 49 C470 46 464 45 459 45 C430 45 426 54 426 113 L426 186 L426 328 C427 397 420 421 397 446 C366 477 312 495 250 495 C130 495 60 437 55 333 L112 333 C120 412 159 446 243 446 C331 446 369 415 369 341 C369 300 351 286 293 280 C166 267 162 267 128 254 C65 231 33 186 33 123 C33 37 92 -14 190 -14 C273 -14 328 16 372 84 C372 19 388 -4 434 -4 C452 -4 465 -2 481 3 L481 49 Z M369 184 C369 97 300 34 205 34 C137 34 92 72 92 128 C92 155 106 182 126 196 C148 211 183 222 236 229 C336 242 350 246 369 263 L369 184 Z M379 553 L279 686 L220 686 L121 553 L173 553 L248 652 L321 553 L379 553 Z " />
<glyph glyph-name="atilde" unicode="&#xe3;" horiz-adv-x="499" d="M481 49 C470 46 464 45 459 45 C430 45 426 54 426 113 L426 186 L426 328 C427 397 420 421 397 446 C366 477 312 495 250 495 C130 495 60 437 55 333 L112 333 C120 412 159 446 243 446 C331 446 369 415 369 341 C369 300 351 286 293 280 C166 267 162 267 128 254 C65 231 33 186 33 123 C33 37 92 -14 190 -14 C273 -14 328 16 372 84 C372 19 388 -4 434 -4 C452 -4 465 -2 481 3 L481 49 Z M369 184 C369 97 300 34 205 34 C137 34 92 72 92 128 C92 155 106 182 126 196 C148 211 183 222 236 229 C336 242 350 246 369 263 L369 184 Z M347 668 C341 636 329 622 310 622 C295 622 290 624 250 647 C229 658 209 665 194 665 C154 665 126 632 117 573 L152 573 C159 606 170 620 191 620 C200 620 212 617 221 612 C278 581 288 577 309 577 C348 577 372 607 383 668 L347 668 Z " />
<glyph glyph-name="adieresis" unicode="&#xe4;" horiz-adv-x="499" d="M481 49 C470 46 464 45 459 45 C430 45 426 54 426 113 L426 186 L426 328 C427 397 420 421 397 446 C366 477 312 495 250 495 C130 495 60 437 55 333 L112 333 C120 412 159 446 243 446 C331 446 369 415 369 341 C369 300 351 286 293 280 C166 267 162 267 128 254 C65 231 33 186 33 123 C33 37 92 -14 190 -14 C273 -14 328 16 372 84 C372 19 388 -4 434 -4 C452 -4 465 -2 481 3 L481 49 Z M369 184 C369 97 300 34 205 34 C137 34 92 72 92 128 C92 155 106 182 126 196 C148 211 183 222 236 229 C336 242 350 246 369 263 L369 184 Z M365 668 L305 668 L305 573 L365 573 L365 668 Z M195 668 L135 668 L135 573 L195 573 L195 668 Z " />
<glyph glyph-name="aring" unicode="&#xe5;" horiz-adv-x="499" d="M481 49 C470 46 464 45 459 45 C430 45 426 54 426 113 L426 186 L426 328 C427 397 420 421 397 446 C366 477 312 495 250 495 C130 495 60 437 55 333 L112 333 C120 412 159 446 243 446 C331 446 369 415 369 341 C369 300 351 286 293 280 C166 267 162 267 128 254 C65 231 33 186 33 123 C33 37 92 -14 190 -14 C273 -14 328 16 372 84 C372 19 388 -4 434 -4 C452 -4 465 -2 481 3 L481 49 Z M369 184 C369 97 300 34 205 34 C137 34 92 72 92 128 C92 155 106 182 126 196 C148 211 183 222 236 229 C336 242 350 246 369 263 L369 184 Z M258 720 C205 720 163 679 163 628 C163 575 204 534 256 534 C308 534 350 576 350 627 C350 678 308 720 258 720 L258 720 Z M257 681 C287 681 311 657 311 627 C311 596 287 573 256 573 C225 573 202 596 202 627 C202 659 225 681 257 681 L257 681 Z " />
<glyph glyph-name="ae" unicode="&#xe6;" horiz-adv-x="824" d="M725 157 C705 73 659 35 580 35 C477 35 422 102 422 226 L787 226 C787 310 781 345 759 387 C723 457 658 495 576 495 C497 495 439 461 409 396 C400 428 392 442 376 456 C350 481 303 495 246 495 C129 495 62 439 52 331 L108 331 C115 411 157 446 244 446 C329 446 368 413 368 341 C368 293 355 287 225 274 C153 268 111 256 84 236 C52 212 32 171 32 128 C32 43 96 -16 189 -16 C284 -16 365 33 395 107 C424 27 485 -14 574 -14 C684 -14 760 48 782 157 L725 157 Z M421 275 C425 319 431 346 444 370 C469 418 518 446 575 446 C667 446 726 380 728 275 L421 275 Z M367 204 C367 147 358 116 332 86 C301 50 255 30 205 30 C136 30 92 68 92 130 C92 172 112 199 153 215 C174 223 217 230 281 236 C334 241 350 246 367 261 L367 204 Z " />
<glyph glyph-name="ccedilla" unicode="&#xe7;" horiz-adv-x="497" d="M257 -14 C367 -19 452 56 466 172 L407 172 C395 85 342 35 261 35 C163 35 100 115 100 240 C100 366 165 446 266 446 C341 446 388 406 403 329 L463 329 C450 434 377 495 265 495 C129 495 41 394 41 236 C41 100 114 3 227 -12 L181 -72 L195 -86 C211 -80 221 -78 233 -78 C263 -78 283 -93 283 -116 C283 -141 261 -158 226 -158 C203 -158 183 -153 159 -143 L146 -171 C182 -185 204 -190 233 -190 C295 -190 335 -159 335 -110 C335 -73 306 -49 261 -49 C248 -49 243 -50 228 -52 L257 -14 Z " />
<glyph glyph-name="egrave" unicode="&#xe8;" horiz-adv-x="510" d="M411 159 C391 77 341 35 263 35 C161 35 103 103 100 226 L473 226 C473 288 466 330 449 369 C415 448 345 495 261 495 C132 495 41 388 41 235 C41 84 128 -14 262 -14 C372 -14 445 48 467 159 L411 159 Z M101 275 C114 386 169 446 259 446 C349 446 408 381 413 275 L101 275 Z M156 686 L274 553 L322 553 L228 686 L156 686 Z " />
<glyph glyph-name="eacute" unicode="&#xe9;" horiz-adv-x="510" d="M411 159 C391 77 341 35 263 35 C161 35 103 103 100 226 L473 226 C473 288 466 330 449 369 C415 448 345 495 261 495 C132 495 41 388 41 235 C41 84 128 -14 262 -14 C372 -14 445 48 467 159 L411 159 Z M101 275 C114 386 169 446 259 446 C349 446 408 381 413 275 L101 275 Z M407 686 L335 686 L242 553 L289 553 L407 686 Z " />
<glyph glyph-name="ecircumflex" unicode="&#xea;" horiz-adv-x="510" d="M411 159 C391 77 341 35 263 35 C161 35 103 103 100 226 L473 226 C473 288 466 330 449 369 C415 448 345 495 261 495 C132 495 41 388 41 235 C41 84 128 -14 262 -14 C372 -14 445 48 467 159 L411 159 Z M101 275 C114 386 169 446 259 446 C349 446 408 381 413 275 L101 275 Z M394 553 L294 686 L235 686 L136 553 L188 553 L263 652 L336 553 L394 553 Z " />
<glyph glyph-name="edieresis" unicode="&#xeb;" horiz-adv-x="510" d="M411 159 C391 77 341 35 263 35 C161 35 103 103 100 226 L473 226 C473 288 466 330 449 369 C415 448 345 495 261 495 C132 495 41 388 41 235 C41 84 128 -14 262 -14 C372 -14 445 48 467 159 L411 159 Z M101 275 C114 386 169 446 259 446 C349 446 408 381 413 275 L101 275 Z M376 668 L316 668 L316 573 L376 573 L376 668 Z M207 668 L147 668 L147 573 L207 573 L207 668 Z " />
<glyph glyph-name="igrave" unicode="&#xec;" horiz-adv-x="205" d="M132 481 L73 481 L73 0 L132 0 L132 481 Z M-3 686 L95 553 L142 553 L65 686 L-3 686 Z " />
<glyph glyph-name="iacute" unicode="&#xed;" horiz-adv-x="205" d="M132 481 L73 481 L73 0 L132 0 L132 481 Z M232 686 L164 686 L87 553 L134 553 L232 686 Z " />
<glyph glyph-name="icircumflex" unicode="&#xee;" horiz-adv-x="205" d="M133 481 L74 481 L74 0 L133 0 L133 481 Z M210 553 L133 686 L74 686 L-5 553 L47 553 L102 649 L155 553 L210 553 Z " />
<glyph glyph-name="idieresis" unicode="&#xef;" horiz-adv-x="205" d="M132 481 L73 481 L73 0 L132 0 L132 481 Z M190 668 L130 668 L130 573 L190 573 L190 668 Z M75 668 L15 668 L15 573 L75 573 L75 668 Z " />
<glyph glyph-name="eth" unicode="&#xf0;" horiz-adv-x="538" d="M203 566 L223 531 L297 567 C323 528 335 510 359 466 C322 490 306 495 266 495 C132 495 41 392 41 241 C41 86 131 -14 270 -14 C408 -14 497 85 497 239 C497 337 455 434 344 591 L414 627 L391 662 L318 626 L265 689 L229 666 L274 604 L203 566 Z M272 446 C372 446 438 364 438 240 C438 115 373 35 271 35 C166 35 101 114 101 240 C101 367 167 446 272 446 L272 446 Z " />
<glyph glyph-name="ntilde" unicode="&#xf1;" horiz-adv-x="536" d="M129 481 L74 481 L74 0 L133 0 L133 242 C133 305 138 337 155 369 C179 416 228 444 287 444 C329 444 366 428 386 402 C402 380 408 352 408 291 L408 0 L467 0 L467 309 C467 372 461 400 442 429 C415 471 362 495 300 495 C247 495 202 478 169 445 C155 432 146 420 129 391 L129 481 Z M378 668 C371 636 360 622 340 622 C326 622 321 624 281 647 C260 658 240 665 225 665 C185 665 157 632 148 573 L182 573 C190 606 201 620 222 620 C231 620 243 617 252 612 C309 581 318 577 340 577 C378 577 403 607 413 668 L378 668 Z " />
<glyph glyph-name="ograve" unicode="&#xf2;" horiz-adv-x="538" d="M273 495 C131 495 41 396 41 240 C41 85 131 -14 270 -14 C409 -14 497 84 497 239 C497 394 409 495 273 495 L273 495 Z M272 446 C372 446 438 364 438 240 C438 115 373 35 271 35 C166 35 101 114 101 240 C101 367 167 446 272 446 L272 446 Z M162 686 L280 553 L328 553 L234 686 L162 686 Z " />
<glyph glyph-name="oacute" unicode="&#xf3;" horiz-adv-x="538" d="M273 495 C131 495 41 396 41 240 C41 85 131 -14 270 -14 C409 -14 497 84 497 239 C497 394 409 495 273 495 L273 495 Z M272 446 C372 446 438 364 438 240 C438 115 373 35 271 35 C166 35 101 114 101 240 C101 367 167 446 272 446 L272 446 Z M407 686 L335 686 L242 553 L289 553 L407 686 Z " />
<glyph glyph-name="ocircumflex" unicode="&#xf4;" horiz-adv-x="538" d="M273 495 C131 495 41 396 41 240 C41 85 131 -14 270 -14 C409 -14 497 84 497 239 C497 394 409 495 273 495 L273 495 Z M272 446 C372 446 438 364 438 240 C438 115 373 35 271 35 C166 35 101 114 101 240 C101 367 167 446 272 446 L272 446 Z M404 553 L304 686 L245 686 L146 553 L198 553 L273 652 L346 553 L404 553 Z " />
<glyph glyph-name="otilde" unicode="&#xf5;" horiz-adv-x="538" d="M273 495 C131 495 41 396 41 240 C41 85 131 -14 270 -14 C409 -14 497 84 497 239 C497 394 409 495 273 495 L273 495 Z M272 446 C372 446 438 364 438 240 C438 115 373 35 271 35 C166 35 101 114 101 240 C101 367 167 446 272 446 L272 446 Z M373 668 C366 636 355 622 335 622 C321 622 316 624 276 647 C255 658 235 665 220 665 C179 665 152 632 143 573 L177 573 C184 606 196 620 217 620 C226 620 238 617 247 612 C304 581 313 577 335 577 C373 577 398 607 408 668 L373 668 Z " />
<glyph glyph-name="odieresis" unicode="&#xf6;" horiz-adv-x="538" d="M273 495 C131 495 41 396 41 240 C41 85 131 -14 270 -14 C409 -14 497 84 497 239 C497 394 409 495 273 495 L273 495 Z M272 446 C372 446 438 364 438 240 C438 115 373 35 271 35 C166 35 101 114 101 240 C101 367 167 446 272 446 L272 446 Z M384 668 L324 668 L324 573 L384 573 L384 668 Z M214 668 L154 668 L154 573 L214 573 L214 668 Z " />
<glyph glyph-name="divide" unicode="&#xf7;" horiz-adv-x="547" d="M49 345 L49 302 L496 302 L496 345 L49 345 Z M274 513 C249 513 229 493 229 469 C229 444 248 425 273 425 C298 425 317 444 317 469 C317 492 297 513 274 513 L274 513 Z M274 222 C249 222 229 203 229 178 C229 154 249 134 273 134 C297 134 317 154 317 178 C317 202 297 222 274 222 L274 222 Z " />
<glyph glyph-name="oslash" unicode="&#xf8;" horiz-adv-x="538" d="M506 464 L475 492 L424 437 C383 476 333 495 269 495 C131 495 41 395 41 241 C41 174 55 124 88 74 L31 13 L62 -15 L115 42 C159 3 207 -14 270 -14 C409 -14 497 84 497 240 C497 306 484 352 452 405 L506 464 Z M409 364 C430 325 438 288 438 240 C438 115 373 35 271 35 C224 35 191 48 154 81 L409 364 Z M129 115 C109 150 100 191 100 243 C100 365 167 446 269 446 C316 446 351 432 386 399 L129 115 Z " />
<glyph glyph-name="ugrave" unicode="&#xf9;" horiz-adv-x="535" d="M461 481 L402 481 L402 234 C402 176 394 139 375 107 C349 63 303 37 250 37 C200 37 156 62 141 99 C132 122 129 144 129 196 L129 481 L70 481 L70 171 C70 113 79 76 101 47 C129 10 182 -14 237 -14 C313 -14 367 20 406 90 L406 0 L461 0 L461 481 Z M154 686 L272 553 L319 553 L226 686 L154 686 Z " />
<glyph glyph-name="uacute" unicode="&#xfa;" horiz-adv-x="535" d="M461 481 L402 481 L402 234 C402 176 394 139 375 107 C349 63 303 37 250 37 C200 37 156 62 141 99 C132 122 129 144 129 196 L129 481 L70 481 L70 171 C70 113 79 76 101 47 C129 10 182 -14 237 -14 C313 -14 367 20 406 90 L406 0 L461 0 L461 481 Z M394 686 L323 686 L229 553 L276 553 L394 686 Z " />
<glyph glyph-name="ucircumflex" unicode="&#xfb;" horiz-adv-x="535" d="M461 481 L402 481 L402 234 C402 176 394 139 375 107 C349 63 303 37 250 37 C200 37 156 62 141 99 C132 122 129 144 129 196 L129 481 L70 481 L70 171 C70 113 79 76 101 47 C129 10 182 -14 237 -14 C313 -14 367 20 406 90 L406 0 L461 0 L461 481 Z M399 553 L299 686 L240 686 L141 553 L193 553 L268 652 L340 553 L399 553 Z " />
<glyph glyph-name="udieresis" unicode="&#xfc;" horiz-adv-x="535" d="M461 481 L402 481 L402 234 C402 176 394 139 375 107 C349 63 303 37 250 37 C200 37 156 62 141 99 C132 122 129 144 129 196 L129 481 L70 481 L70 171 C70 113 79 76 101 47 C129 10 182 -14 237 -14 C313 -14 367 20 406 90 L406 0 L461 0 L461 481 Z M385 668 L325 668 L325 573 L385 573 L385 668 Z M216 668 L156 668 L156 573 L216 573 L216 668 Z " />
<glyph glyph-name="yacute" unicode="&#xfd;" horiz-adv-x="437" d="M435 481 L375 481 L257 156 C248 132 242 113 227 65 C207 125 204 133 198 150 L68 481 L3 481 L197 3 C198 2 198 0 198 0 C198 0 198 -1 197 -3 C194 -9 191 -14 189 -20 C162 -88 161 -91 150 -105 C136 -124 118 -133 94 -133 C82 -133 72 -132 52 -127 L52 -179 L65 -180 C78 -182 91 -183 104 -183 C143 -183 173 -168 193 -138 C207 -117 218 -91 246 -19 L435 481 Z M351 686 L279 686 L185 553 L233 553 L351 686 Z " />
<glyph glyph-name="thorn" unicode="&#xfe;" horiz-adv-x="560" d="M133 667 L74 667 L74 -179 L133 -179 L133 96 C162 25 224 -14 305 -14 C435 -14 520 88 520 243 C520 396 435 495 305 495 C224 495 162 458 133 391 L133 667 Z M299 446 C397 446 461 364 461 241 C461 117 396 35 297 35 C195 35 132 114 132 241 C132 369 194 446 299 446 L299 446 Z " />
<glyph glyph-name="ydieresis" unicode="&#xff;" horiz-adv-x="437" d="M435 481 L375 481 L257 156 C248 132 242 113 227 65 C207 125 204 133 198 150 L68 481 L3 481 L197 3 C198 2 198 0 198 0 C198 0 198 -1 197 -3 C194 -9 191 -14 189 -20 C162 -88 161 -91 150 -105 C136 -124 118 -133 94 -133 C82 -133 72 -132 52 -127 L52 -179 L65 -180 C78 -182 91 -183 104 -183 C143 -183 173 -168 193 -138 C207 -117 218 -91 246 -19 L435 481 Z M334 668 L274 668 L274 573 L334 573 L334 668 Z M164 668 L104 668 L104 573 L164 573 L164 668 Z " />
<glyph glyph-name="Amacron" unicode="&#x100;" horiz-adv-x="623" d="M349 669 L278 669 L9 0 L77 0 L159 210 L464 210 L544 0 L615 0 L349 669 Z M445 261 L178 261 L276 511 C292 553 305 586 313 609 C320 587 328 563 349 508 L445 261 Z M463 802 L161 802 L161 760 L463 760 L463 802 Z " />
<glyph glyph-name="amacron" unicode="&#x101;" horiz-adv-x="499" d="M481 49 C470 46 464 45 459 45 C430 45 426 54 426 113 L426 186 L426 328 C427 397 420 421 397 446 C366 477 312 495 250 495 C130 495 60 437 55 333 L112 333 C120 412 159 446 243 446 C331 446 369 415 369 341 C369 300 351 286 293 280 C166 267 162 267 128 254 C65 231 33 186 33 123 C33 37 92 -14 190 -14 C273 -14 328 16 372 84 C372 19 388 -4 434 -4 C452 -4 465 -2 481 3 L481 49 Z M369 184 C369 97 300 34 205 34 C137 34 92 72 92 128 C92 155 106 182 126 196 C148 211 183 222 236 229 C336 242 350 246 369 263 L369 184 Z M381 642 L119 642 L119 600 L381 600 L381 642 Z " />
<glyph glyph-name="Abreve" unicode="&#x102;" horiz-adv-x="623" d="M349 669 L278 669 L9 0 L77 0 L159 210 L464 210 L544 0 L615 0 L349 669 Z M445 261 L178 261 L276 511 C292 553 305 586 313 609 C320 587 328 563 349 508 L445 261 Z M411 848 C398 793 367 768 313 768 C259 768 225 796 214 848 L177 848 C182 773 234 725 311 725 C387 725 435 769 447 848 L411 848 Z " />
<glyph glyph-name="abreve" unicode="&#x103;" horiz-adv-x="499" d="M481 49 C470 46 464 45 459 45 C430 45 426 54 426 113 L426 186 L426 328 C427 397 420 421 397 446 C366 477 312 495 250 495 C130 495 60 437 55 333 L112 333 C120 412 159 446 243 446 C331 446 369 415 369 341 C369 300 351 286 293 280 C166 267 162 267 128 254 C65 231 33 186 33 123 C33 37 92 -14 190 -14 C273 -14 328 16 372 84 C372 19 388 -4 434 -4 C452 -4 465 -2 481 3 L481 49 Z M369 184 C369 97 300 34 205 34 C137 34 92 72 92 128 C92 155 106 182 126 196 C148 211 183 222 236 229 C336 242 350 246 369 263 L369 184 Z M339 684 C327 629 300 603 255 603 C207 603 178 630 168 684 L132 684 C137 608 183 560 252 560 C320 560 363 604 374 684 L339 684 Z " />
<glyph glyph-name="Aogonek" unicode="&#x104;" horiz-adv-x="623" d="M349 669 L278 669 L9 0 L77 0 L159 210 L464 210 L544 0 L574 0 C523 -29 498 -61 498 -97 C498 -142 537 -172 594 -172 C614 -172 626 -170 650 -162 L650 -127 C628 -133 620 -135 609 -135 C598 -135 583 -131 572 -127 C555 -119 548 -109 548 -90 C548 -57 575 -21 615 0 L349 669 Z M445 261 L178 261 L276 511 C292 553 305 586 313 609 C320 587 328 563 349 508 L445 261 Z " />
<glyph glyph-name="aogonek" unicode="&#x105;" horiz-adv-x="499" d="M507 -127 C485 -133 477 -135 465 -135 C429 -135 404 -117 404 -90 C404 -53 432 -20 481 3 L481 49 C470 46 464 45 459 45 C430 45 426 54 426 113 L426 186 L426 328 C427 397 420 421 397 446 C366 477 312 495 250 495 C130 495 60 437 55 333 L112 333 C120 412 159 446 243 446 C331 446 369 415 369 341 C369 300 351 286 293 280 C166 267 162 267 128 254 C65 231 33 186 33 123 C33 37 92 -14 190 -14 C273 -14 328 16 372 84 C370 25 386 0 428 -4 C379 -29 354 -61 354 -97 C354 -141 394 -172 451 -172 C470 -172 483 -170 507 -162 L507 -127 Z M369 184 C369 97 300 34 205 34 C137 34 92 72 92 128 C92 155 106 182 126 196 C148 211 183 222 236 229 C336 242 350 246 369 263 L369 184 Z " />
<glyph glyph-name="Cacute" unicode="&#x106;" horiz-adv-x="674" d="M575 255 C559 117 479 40 353 40 C205 40 109 155 109 333 C109 407 128 475 163 527 C208 595 270 627 355 627 C466 627 545 567 567 467 L630 467 C625 513 604 557 571 594 C518 653 448 682 357 682 C265 682 193 652 136 590 C76 523 46 437 46 332 C46 122 166 -15 351 -15 C512 -15 624 90 638 255 L575 255 Z M503 848 L427 848 L323 722 L372 722 L503 848 Z " />
<glyph glyph-name="cacute" unicode="&#x107;" horiz-adv-x="497" d="M407 172 C395 85 342 35 261 35 C163 35 100 115 100 240 C100 366 165 446 266 446 C341 446 388 406 403 329 L463 329 C450 434 377 495 265 495 C129 495 41 394 41 236 C41 84 128 -14 263 -14 C374 -14 450 55 466 172 L407 172 Z M400 686 L329 686 L235 553 L282 553 L400 686 Z " />
<glyph glyph-name="Ccircumflex" unicode="&#x108;" horiz-adv-x="674" d="M575 255 C559 117 479 40 353 40 C205 40 109 155 109 333 C109 407 128 475 163 527 C208 595 270 627 355 627 C466 627 545 567 567 467 L630 467 C625 513 604 557 571 594 C518 653 448 682 357 682 C265 682 193 652 136 590 C76 523 46 437 46 332 C46 122 166 -15 351 -15 C512 -15 624 90 638 255 L575 255 Z M508 722 L392 848 L331 848 L216 722 L269 722 L360 813 L449 722 L508 722 Z " />
<glyph glyph-name="Cdotaccent" unicode="&#x10a;" horiz-adv-x="674" d="M575 255 C559 117 479 40 353 40 C205 40 109 155 109 333 C109 407 128 475 163 527 C208 595 270 627 355 627 C466 627 545 567 567 467 L630 467 C625 513 604 557 571 594 C518 653 448 682 357 682 C265 682 193 652 136 590 C76 523 46 437 46 332 C46 122 166 -15 351 -15 C512 -15 624 90 638 255 L575 255 Z M391 830 L328 830 L328 737 L391 737 L391 830 Z " />
<glyph glyph-name="cdotaccent" unicode="&#x10b;" horiz-adv-x="497" d="M407 172 C395 85 342 35 261 35 C163 35 100 115 100 240 C100 366 165 446 266 446 C341 446 388 406 403 329 L463 329 C450 434 377 495 265 495 C129 495 41 394 41 236 C41 84 128 -14 263 -14 C374 -14 450 55 466 172 L407 172 Z M298 668 L238 668 L238 573 L298 573 L298 668 Z " />
<glyph glyph-name="Ccaron" unicode="&#x10c;" horiz-adv-x="674" d="M575 255 C559 117 479 40 353 40 C205 40 109 155 109 333 C109 407 128 475 163 527 C208 595 270 627 355 627 C466 627 545 567 567 467 L630 467 C625 513 604 557 571 594 C518 653 448 682 357 682 C265 682 193 652 136 590 C76 523 46 437 46 332 C46 122 166 -15 351 -15 C512 -15 624 90 638 255 L575 255 Z M216 848 L332 722 L393 722 L508 848 L455 848 L364 757 L275 848 L216 848 Z " />
<glyph glyph-name="ccaron" unicode="&#x10d;" horiz-adv-x="497" d="M407 172 C395 85 342 35 261 35 C163 35 100 115 100 240 C100 366 165 446 266 446 C341 446 388 406 403 329 L463 329 C450 434 377 495 265 495 C129 495 41 394 41 236 C41 84 128 -14 263 -14 C374 -14 450 55 466 172 L407 172 Z M142 686 L242 553 L301 553 L400 686 L348 686 L274 587 L201 686 L142 686 Z " />
<glyph glyph-name="Dcaron" unicode="&#x10e;" horiz-adv-x="666" d="M81 667 L81 0 L318 0 C416 0 473 20 526 74 C589 137 620 228 620 346 C620 454 586 543 524 600 C471 647 409 667 313 667 L81 667 Z M144 612 L313 612 C390 612 441 595 483 554 C533 506 557 436 557 342 C557 241 534 167 486 116 C444 70 397 55 303 55 L144 55 L144 612 Z M160 848 L276 722 L337 722 L452 848 L399 848 L308 757 L220 848 L160 848 Z " />
<glyph glyph-name="dcaron" unicode="&#x10f;" horiz-adv-x="611" d="M487 667 L428 667 L428 392 C395 461 338 495 257 495 C125 495 41 396 41 241 C41 84 125 -14 259 -14 C342 -14 398 22 432 96 L432 0 L487 0 L487 667 Z M266 446 C366 446 430 365 430 240 C430 114 366 35 264 35 C163 35 100 115 100 241 C100 369 162 446 266 446 L266 446 Z M618 667 L554 667 L554 592 L585 592 C583 557 572 539 547 527 L547 497 C596 509 618 542 618 606 L618 667 Z " />
<glyph glyph-name="Dcroat" unicode="&#x110;" horiz-adv-x="666" d="M81 667 L81 377 L11 377 L11 324 L81 324 L81 0 L318 0 C416 0 473 20 526 74 C588 137 620 228 620 346 C620 454 586 543 524 600 C471 647 410 667 313 667 L81 667 Z M144 612 L313 612 C390 612 441 595 483 554 C532 506 557 436 557 343 C557 242 534 167 486 116 C444 70 397 55 303 55 L144 55 L144 324 L344 324 L344 377 L144 377 L144 612 Z " />
<glyph glyph-name="dcroat" unicode="&#x111;" horiz-adv-x="561" d="M428 600 L268 600 L268 553 L428 553 L428 392 C395 461 338 495 257 495 C125 495 41 396 41 241 C41 84 125 -14 259 -14 C342 -14 398 22 432 96 L432 0 L487 0 L487 553 L554 553 L554 600 L487 600 L487 667 L428 667 L428 600 Z M265 446 C366 446 430 366 430 240 C430 114 366 35 264 35 C163 35 100 115 100 241 C100 369 162 446 265 446 L265 446 Z " />
<glyph glyph-name="Emacron" unicode="&#x112;" horiz-adv-x="585" d="M544 667 L81 667 L81 0 L548 0 L548 55 L144 55 L144 318 L518 318 L518 373 L144 373 L144 612 L544 612 L544 667 Z M464 802 L161 802 L161 760 L464 760 L464 802 Z " />
<glyph glyph-name="emacron" unicode="&#x113;" horiz-adv-x="510" d="M411 159 C391 77 341 35 263 35 C161 35 103 103 100 226 L473 226 C473 288 466 330 449 369 C415 448 345 495 261 495 C132 495 41 388 41 235 C41 84 128 -14 262 -14 C372 -14 445 48 467 159 L411 159 Z M101 275 C114 386 169 446 259 446 C349 446 408 381 413 275 L101 275 Z M393 642 L130 642 L130 600 L393 600 L393 642 Z " />
<glyph glyph-name="Ebreve" unicode="&#x114;" horiz-adv-x="585" d="M544 667 L81 667 L81 0 L548 0 L548 55 L144 55 L144 318 L518 318 L518 373 L144 373 L144 612 L544 612 L544 667 Z M411 848 C399 793 368 768 313 768 C259 768 225 796 214 848 L178 848 C183 773 235 725 311 725 C387 725 436 769 448 848 L411 848 Z " />
<glyph glyph-name="ebreve" unicode="&#x115;" horiz-adv-x="510" d="M411 159 C391 77 341 35 263 35 C161 35 103 103 100 226 L473 226 C473 288 466 330 449 369 C415 448 345 495 261 495 C132 495 41 388 41 235 C41 84 128 -14 262 -14 C372 -14 445 48 467 159 L411 159 Z M101 275 C114 386 169 446 259 446 C349 446 408 381 413 275 L101 275 Z M347 684 C336 629 309 603 264 603 C216 603 186 630 176 684 L140 684 C145 608 192 560 260 560 C329 560 372 604 383 684 L347 684 Z " />
<glyph glyph-name="Edotaccent" unicode="&#x116;" horiz-adv-x="585" d="M544 667 L81 667 L81 0 L548 0 L548 55 L144 55 L144 318 L518 318 L518 373 L144 373 L144 612 L544 612 L544 667 Z M348 830 L285 830 L285 737 L348 737 L348 830 Z " />
<glyph glyph-name="edotaccent" unicode="&#x117;" horiz-adv-x="510" d="M411 159 C391 77 341 35 263 35 C161 35 103 103 100 226 L473 226 C473 288 466 330 449 369 C415 448 345 495 261 495 C132 495 41 388 41 235 C41 84 128 -14 262 -14 C372 -14 445 48 467 159 L411 159 Z M101 275 C114 386 169 446 259 446 C349 446 408 381 413 275 L101 275 Z M296 668 L236 668 L236 573 L296 573 L296 668 Z " />
<glyph glyph-name="Eogonek" unicode="&#x118;" horiz-adv-x="585" d="M548 55 L144 55 L144 318 L518 318 L518 373 L144 373 L144 612 L544 612 L544 667 L81 667 L81 0 L506 0 C455 -29 430 -61 430 -97 C430 -142 469 -172 527 -172 C546 -172 559 -170 582 -162 L582 -127 C561 -133 553 -135 541 -135 C531 -135 515 -131 504 -127 C487 -119 480 -109 480 -90 C480 -57 507 -21 548 0 L548 55 Z " />
<glyph glyph-name="eogonek" unicode="&#x119;" horiz-adv-x="510" d="M420 -127 C398 -133 390 -135 379 -135 C368 -135 353 -131 342 -127 C325 -119 318 -109 318 -91 C318 -65 333 -38 366 -3 C442 74 453 92 468 159 L411 159 C391 77 341 35 264 35 C162 35 103 103 101 226 L473 226 C473 288 466 330 450 369 C415 448 345 495 261 495 C132 495 41 387 41 235 C41 83 128 -14 266 -14 C294 -14 308 -12 341 -2 C285 -39 268 -61 268 -97 C268 -142 307 -172 364 -172 C384 -172 396 -170 420 -162 L420 -127 Z M101 275 C115 386 170 446 259 446 C349 446 408 381 413 275 L101 275 Z " />
<glyph glyph-name="Ecaron" unicode="&#x11a;" horiz-adv-x="585" d="M544 667 L81 667 L81 0 L548 0 L548 55 L144 55 L144 318 L518 318 L518 373 L144 373 L144 612 L544 612 L544 667 Z M173 848 L289 722 L350 722 L465 848 L411 848 L321 757 L232 848 L173 848 Z " />
<glyph glyph-name="ecaron" unicode="&#x11b;" horiz-adv-x="510" d="M411 159 C391 77 341 35 263 35 C161 35 103 103 100 226 L473 226 C473 288 466 330 449 369 C415 448 345 495 261 495 C132 495 41 388 41 235 C41 84 128 -14 262 -14 C372 -14 445 48 467 159 L411 159 Z M101 275 C114 386 169 446 259 446 C349 446 408 381 413 275 L101 275 Z M138 686 L238 553 L297 553 L397 686 L344 686 L270 587 L197 686 L138 686 Z " />
<glyph glyph-name="Gcircumflex" unicode="&#x11c;" horiz-adv-x="714" d="M648 339 L364 339 L364 287 L592 287 C592 234 585 198 567 161 C530 83 457 40 362 40 C209 40 108 154 108 328 C108 406 130 482 167 532 C214 596 279 627 362 627 C436 627 491 604 533 555 C557 527 571 495 577 461 L639 461 C630 518 611 558 573 598 C520 655 452 682 362 682 C270 682 195 651 139 590 C79 525 45 430 45 327 C45 124 173 -15 359 -15 C468 -15 552 35 593 124 L606 0 L648 0 L648 339 Z M518 722 L402 848 L341 848 L226 722 L279 722 L370 813 L458 722 L518 722 Z " />
<glyph glyph-name="gcircumflex" unicode="&#x11d;" horiz-adv-x="548" d="M474 481 L419 481 L419 391 C381 463 330 495 255 495 C125 495 41 396 41 245 C41 99 121 7 249 7 C330 7 382 40 416 112 L416 32 C416 -89 368 -141 258 -141 C174 -141 129 -109 119 -43 L60 -43 C67 -136 139 -189 257 -189 C346 -189 412 -158 445 -102 C466 -66 474 -27 474 46 L474 481 Z M260 446 C355 446 415 371 415 252 C415 132 353 56 256 56 C160 56 100 131 100 252 C100 299 112 347 132 379 C161 425 201 446 260 446 L260 446 Z M403 553 L303 686 L244 686 L145 553 L197 553 L272 652 L345 553 L403 553 Z " />
<glyph glyph-name="Gbreve" unicode="&#x11e;" horiz-adv-x="714" d="M648 339 L364 339 L364 287 L592 287 C592 234 585 198 567 161 C530 83 457 40 362 40 C209 40 108 154 108 328 C108 406 130 482 167 532 C214 596 279 627 362 627 C436 627 491 604 533 555 C557 527 571 495 577 461 L639 461 C630 518 611 558 573 598 C520 655 452 682 362 682 C270 682 195 651 139 590 C79 525 45 430 45 327 C45 124 173 -15 359 -15 C468 -15 552 35 593 124 L606 0 L648 0 L648 339 Z M464 848 C452 793 421 768 366 768 C312 768 278 796 267 848 L231 848 C236 773 288 725 364 725 C440 725 489 769 501 848 L464 848 Z " />
<glyph glyph-name="gbreve" unicode="&#x11f;" horiz-adv-x="548" d="M474 481 L419 481 L419 391 C381 463 330 495 255 495 C125 495 41 396 41 245 C41 99 121 7 249 7 C330 7 382 40 416 112 L416 32 C416 -89 368 -141 258 -141 C174 -141 129 -109 119 -43 L60 -43 C67 -136 139 -189 257 -189 C346 -189 412 -158 445 -102 C466 -66 474 -27 474 46 L474 481 Z M260 446 C355 446 415 371 415 252 C415 132 353 56 256 56 C160 56 100 131 100 252 C100 299 112 347 132 379 C161 425 201 446 260 446 L260 446 Z M359 684 C348 629 321 603 276 603 C228 603 199 630 188 684 L152 684 C157 608 204 560 273 560 C341 560 384 604 395 684 L359 684 Z " />
<glyph glyph-name="Gdotaccent" unicode="&#x120;" horiz-adv-x="714" d="M648 339 L364 339 L364 287 L592 287 C592 234 585 198 567 161 C530 83 457 40 362 40 C209 40 108 154 108 328 C108 406 130 482 167 532 C214 596 279 627 362 627 C436 627 491 604 533 555 C557 527 571 495 577 461 L639 461 C630 518 611 558 573 598 C520 655 452 682 362 682 C270 682 195 651 139 590 C79 525 45 430 45 327 C45 124 173 -15 359 -15 C468 -15 552 35 593 124 L606 0 L648 0 L648 339 Z M395 830 L332 830 L332 737 L395 737 L395 830 Z " />
<glyph glyph-name="gdotaccent" unicode="&#x121;" horiz-adv-x="548" d="M474 481 L419 481 L419 391 C381 463 330 495 255 495 C125 495 41 396 41 245 C41 99 121 7 249 7 C330 7 382 40 416 112 L416 32 C416 -89 368 -141 258 -141 C174 -141 129 -109 119 -43 L60 -43 C67 -136 139 -189 257 -189 C346 -189 412 -158 445 -102 C466 -66 474 -27 474 46 L474 481 Z M260 446 C355 446 415 371 415 252 C415 132 353 56 256 56 C160 56 100 131 100 252 C100 299 112 347 132 379 C161 425 201 446 260 446 L260 446 Z M304 668 L244 668 L244 573 L304 573 L304 668 Z " />
<glyph glyph-name="Gcommaaccent" unicode="&#x122;" horiz-adv-x="714" d="M648 339 L364 339 L364 287 L592 287 C592 234 585 198 567 161 C530 83 457 40 362 40 C209 40 108 154 108 328 C108 406 130 482 167 532 C214 596 279 627 362 627 C436 627 491 604 533 555 C557 527 571 495 577 461 L639 461 C630 518 611 558 573 598 C520 655 452 682 362 682 C270 682 195 651 139 590 C79 525 45 430 45 327 C45 124 173 -15 359 -15 C468 -15 552 35 593 124 L606 0 L648 0 L648 339 Z M395 -56 L331 -56 L331 -131 L362 -131 C359 -166 351 -182 325 -196 L325 -226 C374 -213 395 -180 395 -117 L395 -56 Z " />
<glyph glyph-name="gcommaaccent" unicode="&#x123;" horiz-adv-x="548" d="M474 481 L419 481 L419 391 C381 463 330 495 255 495 C125 495 41 396 41 245 C41 99 121 7 249 7 C330 7 382 40 416 112 L416 32 C416 -89 368 -141 258 -141 C174 -141 129 -109 119 -43 L60 -43 C67 -136 139 -189 257 -189 C346 -189 412 -158 445 -102 C466 -66 474 -27 474 46 L474 481 Z M260 446 C355 446 415 371 415 252 C415 132 353 56 256 56 C160 56 100 131 100 252 C100 299 112 347 132 379 C161 425 201 446 260 446 L260 446 Z M239 553 L303 553 L303 628 L272 628 C275 663 283 679 309 693 L309 723 C260 710 239 677 239 614 L239 553 Z " />
<glyph glyph-name="Hcircumflex" unicode="&#x124;" horiz-adv-x="686" d="M606 667 L543 667 L543 377 L143 377 L143 667 L80 667 L80 0 L143 0 L143 322 L543 322 L543 0 L606 0 L606 667 Z M489 722 L373 848 L312 848 L197 722 L250 722 L341 813 L430 722 L489 722 Z " />
<glyph glyph-name="Hbar" unicode="&#x126;" horiz-adv-x="686" d="M606 558 L606 667 L543 667 L543 558 L143 558 L143 667 L80 667 L80 558 L10 558 L10 505 L80 505 L80 0 L143 0 L143 322 L543 322 L543 0 L606 0 L606 505 L676 505 L676 558 L606 558 Z M143 505 L543 505 L543 377 L143 377 L143 505 Z " />
<glyph glyph-name="hbar" unicode="&#x127;" horiz-adv-x="537" d="M133 0 L133 236 C133 304 138 334 154 366 C179 416 226 444 284 444 C326 444 363 428 385 401 C402 379 408 353 408 302 L408 0 L467 0 L467 310 C467 365 461 396 443 424 C415 470 364 495 298 495 C221 495 164 459 132 391 C133 439 133 439 133 448 L133 553 L292 553 L292 600 L133 600 L133 667 L74 667 L74 600 L7 600 L7 553 L74 553 L74 0 L133 0 Z " />
<glyph glyph-name="Imacron" unicode="&#x12a;" horiz-adv-x="223" d="M143 667 L80 667 L80 0 L143 0 L143 667 Z M213 802 L10 802 L10 760 L213 760 L213 802 Z " />
<glyph glyph-name="imacron" unicode="&#x12b;" horiz-adv-x="205" d="M133 481 L74 481 L74 0 L133 0 L133 481 Z M201 642 L5 642 L5 600 L201 600 L201 642 Z " />
<glyph glyph-name="Ibreve" unicode="&#x12c;" horiz-adv-x="223" d="M143 667 L80 667 L80 0 L143 0 L143 667 Z M197 848 C189 795 161 768 112 768 C64 768 34 796 27 848 L-10 848 C-7 773 40 725 110 725 C180 725 226 770 233 848 L197 848 Z " />
<glyph glyph-name="ibreve" unicode="&#x12d;" horiz-adv-x="205" d="M133 481 L74 481 L74 0 L133 0 L133 481 Z M175 681 C164 627 144 607 106 607 C64 607 41 629 31 681 L-5 681 C0 610 42 564 102 564 C162 564 201 606 211 681 L175 681 Z " />
<glyph glyph-name="Iogonek" unicode="&#x12e;" horiz-adv-x="223" d="M143 667 L80 667 L80 0 L115 0 C77 -28 52 -68 52 -100 C52 -141 86 -172 130 -172 C145 -172 155 -170 175 -162 L175 -127 C157 -133 149 -135 142 -135 C117 -135 102 -117 102 -88 C102 -62 109 -48 143 0 L143 667 Z " />
<glyph glyph-name="iogonek" unicode="&#x12f;" horiz-adv-x="205" d="M133 481 L74 481 L74 0 L104 0 C63 -40 45 -70 45 -101 C45 -141 78 -172 119 -172 C134 -172 142 -170 161 -162 L161 -128 C146 -133 142 -134 131 -134 C109 -134 95 -117 95 -90 C95 -63 107 -34 133 0 L133 481 Z M133 667 L74 667 L74 573 L133 573 L133 667 Z " />
<glyph glyph-name="Idotaccent" unicode="&#x130;" horiz-adv-x="223" d="M143 667 L80 667 L80 0 L143 0 L143 667 Z M142 830 L79 830 L79 737 L142 737 L142 830 Z " />
<glyph glyph-name="dotlessi" unicode="&#x131;" horiz-adv-x="205" d="M132 481 L73 481 L73 0 L132 0 L132 481 Z " />
<glyph glyph-name="ij" unicode="&#x133;" horiz-adv-x="405" d="M132 667 L73 667 L73 573 L132 573 L132 667 Z M132 481 L73 481 L73 0 L132 0 L132 481 Z M331 481 L272 481 L272 -34 C272 -119 262 -135 208 -135 C206 -135 201 -135 196 -134 L186 -133 L186 -182 C199 -184 205 -185 214 -185 C259 -185 291 -173 309 -149 C326 -126 331 -101 331 -32 L331 481 Z M331 667 L272 667 L272 573 L331 573 L331 667 Z " />
<glyph glyph-name="Kcommaaccent" unicode="&#x136;" horiz-adv-x="627" d="M617 667 L532 667 L188 350 C178 341 170 333 144 308 L144 667 L81 667 L81 0 L144 0 L144 235 L272 351 L551 0 L632 0 L317 395 L617 667 Z M356 -56 L292 -56 L292 -131 L323 -131 C321 -166 310 -184 285 -196 L285 -226 C334 -214 356 -181 356 -117 L356 -56 Z " />
<glyph glyph-name="kcommaaccent" unicode="&#x137;" horiz-adv-x="503" d="M480 481 L401 481 L169 280 L153 265 L133 246 L133 667 L74 667 L74 0 L133 0 L133 182 L229 264 L420 0 L494 0 L274 304 L480 481 Z M293 -56 L229 -56 L229 -131 L260 -131 C257 -166 249 -182 223 -196 L223 -226 C272 -213 293 -180 293 -117 L293 -56 Z " />
<glyph glyph-name="kgreenlandic" unicode="&#x138;" horiz-adv-x="503" d="M480 481 L401 481 L169 280 L153 265 L133 246 L133 481 L74 481 L74 0 L133 0 L133 182 L229 264 L420 0 L494 0 L274 304 L480 481 Z " />
<glyph glyph-name="Lacute" unicode="&#x139;" horiz-adv-x="536" d="M519 55 L143 55 L143 667 L80 667 L80 0 L519 0 L519 55 Z M278 848 L201 848 L98 722 L147 722 L278 848 Z " />
<glyph glyph-name="lacute" unicode="&#x13a;" horiz-adv-x="205" d="M132 667 L73 667 L73 0 L132 0 L132 667 Z M233 848 L163 848 L76 722 L122 722 L233 848 Z " />
<glyph glyph-name="Lcommaaccent" unicode="&#x13b;" horiz-adv-x="536" d="M519 55 L143 55 L143 667 L80 667 L80 0 L519 0 L519 55 Z M327 -56 L263 -56 L263 -131 L294 -131 C292 -166 281 -184 256 -196 L256 -226 C305 -214 327 -181 327 -117 L327 -56 Z " />
<glyph glyph-name="lcommaaccent" unicode="&#x13c;" horiz-adv-x="205" d="M133 667 L74 667 L74 0 L133 0 L133 667 Z M137 -56 L73 -56 L73 -131 L104 -131 C102 -166 91 -184 66 -196 L66 -226 C115 -214 137 -181 137 -117 L137 -56 Z " />
<glyph glyph-name="Lcaron" unicode="&#x13d;" horiz-adv-x="536" d="M519 55 L143 55 L143 667 L80 667 L80 0 L519 0 L519 55 Z M313 667 L249 667 L249 592 L280 592 C277 557 268 541 243 527 L243 497 C292 510 313 543 313 606 L313 667 Z " />
<glyph glyph-name="lcaron" unicode="&#x13e;" horiz-adv-x="244" d="M132 667 L73 667 L73 0 L132 0 L132 667 Z M250 667 L186 667 L186 592 L217 592 C214 557 205 541 180 527 L180 497 C229 510 250 543 250 606 L250 667 Z " />
<glyph glyph-name="Ldot" unicode="&#x13f;" horiz-adv-x="536" d="M519 55 L143 55 L143 667 L80 667 L80 0 L519 0 L519 55 Z M350 391 L290 391 L290 296 L350 296 L350 391 Z " />
<glyph glyph-name="ldot" unicode="&#x140;" horiz-adv-x="264" d="M132 667 L73 667 L73 0 L132 0 L132 667 Z M264 384 L204 384 L204 289 L264 289 L264 384 Z " />
<glyph glyph-name="Lslash" unicode="&#x141;" horiz-adv-x="536" d="M80 332 L10 280 L10 217 L80 269 L80 0 L519 0 L519 55 L143 55 L143 300 L299 417 L299 480 L143 363 L143 667 L80 667 L80 332 Z " />
<glyph glyph-name="lslash" unicode="&#x142;" horiz-adv-x="205" d="M73 367 L10 319 L10 263 L73 311 L73 0 L132 0 L132 341 L195 389 L195 444 L132 396 L132 667 L73 667 L73 367 Z " />
<glyph glyph-name="Nacute" unicode="&#x143;" horiz-adv-x="686" d="M606 667 L545 667 L545 251 C545 206 547 121 549 75 C528 114 495 167 462 215 L152 667 L81 667 L81 0 L142 0 L142 431 L141 526 C141 552 140 565 138 591 C155 556 163 544 226 447 L535 0 L606 0 L606 667 Z M486 848 L409 848 L305 722 L354 722 L486 848 Z " />
<glyph glyph-name="nacute" unicode="&#x144;" horiz-adv-x="536" d="M129 481 L74 481 L74 0 L133 0 L133 242 C133 305 138 337 155 369 C179 416 228 444 287 444 C329 444 366 428 386 402 C402 380 408 352 408 291 L408 0 L467 0 L467 309 C467 372 461 400 442 429 C415 471 362 495 300 495 C247 495 202 478 169 445 C155 432 146 420 129 391 L129 481 Z M403 686 L331 686 L237 553 L284 553 L403 686 Z " />
<glyph glyph-name="Ncommaaccent" unicode="&#x145;" horiz-adv-x="686" d="M606 667 L545 667 L545 251 C545 206 547 121 549 75 C528 114 495 167 462 215 L152 667 L81 667 L81 0 L142 0 L142 431 L141 526 C141 552 140 565 138 591 C155 556 163 544 226 447 L535 0 L606 0 L606 667 Z M360 -56 L296 -56 L296 -131 L327 -131 C325 -166 314 -184 289 -196 L289 -226 C338 -214 360 -181 360 -117 L360 -56 Z " />
<glyph glyph-name="ncommaaccent" unicode="&#x146;" horiz-adv-x="536" d="M129 481 L74 481 L74 0 L133 0 L133 242 C133 305 138 337 155 369 C179 416 228 444 287 444 C329 444 366 428 386 402 C402 380 408 352 408 291 L408 0 L467 0 L467 309 C467 372 461 400 442 429 C415 471 362 495 300 495 C247 495 202 478 169 445 C155 432 146 420 129 391 L129 481 Z M303 -56 L239 -56 L239 -131 L270 -131 C267 -166 259 -182 233 -196 L233 -226 C282 -213 303 -180 303 -117 L303 -56 Z " />
<glyph glyph-name="Ncaron" unicode="&#x147;" horiz-adv-x="686" d="M606 667 L545 667 L545 251 C545 206 547 121 549 75 C528 114 495 167 462 215 L152 667 L81 667 L81 0 L142 0 L142 431 L141 526 C141 552 140 565 138 591 C155 556 163 544 226 447 L535 0 L606 0 L606 667 Z M201 848 L317 722 L378 722 L493 848 L439 848 L349 757 L260 848 L201 848 Z " />
<glyph glyph-name="ncaron" unicode="&#x148;" horiz-adv-x="536" d="M129 481 L74 481 L74 0 L133 0 L133 242 C133 305 138 337 155 369 C179 416 228 444 287 444 C329 444 366 428 386 402 C402 380 408 352 408 291 L408 0 L467 0 L467 309 C467 372 461 400 442 429 C415 471 362 495 300 495 C247 495 202 478 169 445 C155 432 146 420 129 391 L129 481 Z M153 686 L253 553 L312 553 L411 686 L359 686 L284 587 L211 686 L153 686 Z " />
<glyph glyph-name="napostrophe" unicode="&#x149;" horiz-adv-x="660" d="M150 667 L73 667 L73 570 L109 570 C108 522 96 496 67 481 L67 441 C125 459 150 506 150 592 L150 667 Z M252 481 L197 481 L197 0 L256 0 L256 242 C256 305 261 337 278 369 C302 416 351 444 410 444 C452 444 489 428 509 402 C525 380 531 352 531 291 L531 0 L590 0 L590 309 C590 372 584 400 565 429 C538 471 485 495 423 495 C370 495 325 478 292 445 C278 432 269 420 252 391 L252 481 Z " />
<glyph glyph-name="Eng" unicode="&#x14a;" horiz-adv-x="686" d="M143 667 L80 667 L80 0 L143 0 L143 346 C143 435 151 480 174 524 C209 590 280 629 365 629 C428 629 481 607 511 570 C535 538 543 499 543 412 L543 -34 C543 -119 533 -135 479 -135 C476 -135 472 -135 466 -134 L456 -133 L456 -182 C469 -184 475 -185 484 -185 C532 -185 565 -173 583 -149 C601 -126 606 -101 606 -32 L606 437 C606 519 598 557 573 596 C537 650 467 682 381 682 C307 682 245 660 198 617 C177 598 165 582 143 546 L143 667 Z " />
<glyph glyph-name="eng" unicode="&#x14b;" horiz-adv-x="536" d="M129 481 L74 481 L74 0 L133 0 L133 242 C133 305 138 337 154 369 C179 416 228 444 286 444 C329 444 366 428 386 402 C402 380 408 352 408 291 L408 -34 C408 -119 398 -135 344 -135 C341 -135 337 -135 331 -134 L321 -133 L321 -182 C334 -184 340 -185 349 -185 C395 -185 427 -173 445 -149 C462 -126 467 -101 467 -32 L467 309 C467 372 461 400 442 429 C415 471 362 495 300 495 C220 495 174 466 129 391 L129 481 Z " />
<glyph glyph-name="Omacron" unicode="&#x14c;" horiz-adv-x="720" d="M364 682 C172 682 46 544 46 333 C46 125 172 -15 359 -15 C547 -15 674 124 674 332 C674 538 547 682 364 682 L364 682 Z M363 627 C510 627 611 506 611 332 C611 157 511 40 360 40 C209 40 109 157 109 335 C109 512 209 627 363 627 L363 627 Z M511 802 L209 802 L209 760 L511 760 L511 802 Z " />
<glyph glyph-name="omacron" unicode="&#x14d;" horiz-adv-x="538" d="M273 495 C131 495 41 396 41 240 C41 85 131 -14 270 -14 C409 -14 497 84 497 239 C497 394 409 495 273 495 L273 495 Z M272 446 C372 446 438 364 438 240 C438 115 373 35 271 35 C166 35 101 114 101 240 C101 367 167 446 272 446 L272 446 Z M400 642 L138 642 L138 600 L400 600 L400 642 Z " />
<glyph glyph-name="Obreve" unicode="&#x14e;" horiz-adv-x="720" d="M364 682 C172 682 46 544 46 333 C46 125 172 -15 359 -15 C547 -15 674 124 674 332 C674 538 547 682 364 682 L364 682 Z M363 627 C510 627 611 506 611 332 C611 157 511 40 360 40 C209 40 109 157 109 335 C109 512 209 627 363 627 L363 627 Z M458 848 C446 793 415 768 360 768 C307 768 273 796 262 848 L225 848 C230 773 282 725 358 725 C435 725 483 769 495 848 L458 848 Z " />
<glyph glyph-name="obreve" unicode="&#x14f;" horiz-adv-x="538" d="M273 495 C131 495 41 396 41 240 C41 85 131 -14 270 -14 C409 -14 497 84 497 239 C497 394 409 495 273 495 L273 495 Z M272 446 C372 446 438 364 438 240 C438 115 373 35 271 35 C166 35 101 114 101 240 C101 367 167 446 272 446 L272 446 Z M355 684 C343 629 316 603 271 603 C223 603 194 630 184 684 L148 684 C153 608 199 560 268 560 C336 560 379 604 390 684 L355 684 Z " />
<glyph glyph-name="Ohungarumlaut" unicode="&#x150;" horiz-adv-x="720" d="M364 682 C172 682 46 544 46 333 C46 125 172 -15 359 -15 C547 -15 674 124 674 332 C674 538 547 682 364 682 L364 682 Z M363 627 C510 627 611 506 611 332 C611 157 511 40 360 40 C209 40 109 157 109 335 C109 512 209 627 363 627 L363 627 Z M565 848 L492 848 L412 722 L457 722 L565 848 Z M411 848 L339 848 L259 722 L303 722 L411 848 Z " />
<glyph glyph-name="ohungarumlaut" unicode="&#x151;" horiz-adv-x="538" d="M273 495 C131 495 41 396 41 240 C41 85 131 -14 270 -14 C409 -14 497 84 497 239 C497 394 409 495 273 495 L273 495 Z M272 446 C372 446 438 364 438 240 C438 115 373 35 271 35 C166 35 101 114 101 240 C101 367 167 446 272 446 L272 446 Z M448 686 L380 686 L308 553 L352 553 L448 686 Z M322 686 L253 686 L181 553 L225 553 L322 686 Z " />
<glyph glyph-name="OE" unicode="&#x152;" horiz-adv-x="1029" d="M987 667 L548 667 L548 612 L538 619 C505 647 504 648 480 659 C445 675 407 682 362 682 C175 682 46 538 46 330 C46 128 174 -15 355 -15 C435 -15 493 10 548 68 L548 0 L991 0 L991 55 L607 55 L607 318 L952 318 L952 373 L607 373 L607 612 L987 612 L987 667 Z M544 160 C544 141 534 120 516 101 C478 61 426 40 361 40 C212 40 109 159 109 331 C109 508 213 627 368 627 C424 627 467 612 504 580 C533 555 544 537 544 510 L544 160 Z " />
<glyph glyph-name="oe" unicode="&#x153;" horiz-adv-x="854" d="M755 157 C731 74 684 35 609 35 C518 35 455 107 455 211 L455 226 L816 226 L816 241 L816 248 C816 402 737 495 607 495 C521 495 465 458 430 378 C401 457 344 495 256 495 C124 495 41 396 41 239 C41 84 123 -14 251 -14 C340 -14 402 29 428 109 C455 26 513 -14 605 -14 C713 -14 786 47 812 157 L755 157 Z M454 275 C456 318 462 342 475 368 C500 418 548 446 605 446 C657 446 701 423 729 382 C747 355 754 328 757 275 L454 275 Z M257 446 C351 446 404 373 404 244 C404 110 351 35 256 35 C159 35 100 112 100 238 C100 369 158 446 257 446 L257 446 Z " />
<glyph glyph-name="Racute" unicode="&#x154;" horiz-adv-x="660" d="M77 667 L77 0 L140 0 L140 298 L336 298 C410 298 451 288 475 262 C504 231 511 204 516 92 C518 40 523 15 533 0 L604 0 C588 18 582 45 577 113 C569 231 567 240 543 276 C520 303 496 316 456 322 C539 342 586 402 586 487 C586 554 559 605 508 637 C473 658 433 667 370 667 L77 667 Z M140 612 L350 612 C401 612 434 606 459 593 C501 572 523 533 523 483 C523 434 502 395 465 373 C434 356 396 349 328 349 L140 349 L140 612 Z M444 848 L367 848 L263 722 L312 722 L444 848 Z " />
<glyph glyph-name="racute" unicode="&#x155;" horiz-adv-x="309" d="M313 488 C223 490 165 451 129 366 L129 481 L74 481 L74 0 L133 0 L133 197 C133 298 142 337 175 376 C205 410 248 429 298 429 L313 429 L313 488 Z M312 686 L240 686 L147 553 L194 553 L312 686 Z " />
<glyph glyph-name="Rcommaaccent" unicode="&#x156;" horiz-adv-x="660" d="M77 667 L77 0 L140 0 L140 298 L336 298 C410 298 451 288 475 262 C504 231 511 204 516 92 C518 40 523 15 533 0 L604 0 C588 18 582 45 577 113 C569 231 567 240 543 276 C520 303 496 316 456 322 C539 342 586 402 586 487 C586 554 559 605 508 637 C473 658 433 667 370 667 L77 667 Z M140 612 L350 612 C401 612 434 606 459 593 C501 572 523 533 523 483 C523 434 502 395 465 373 C434 356 396 349 328 349 L140 349 L140 612 Z M352 -56 L288 -56 L288 -131 L319 -131 C317 -166 306 -184 281 -196 L281 -226 C330 -214 352 -181 352 -117 L352 -56 Z " />
<glyph glyph-name="rcommaaccent" unicode="&#x157;" horiz-adv-x="309" d="M314 488 C223 490 165 451 129 366 L129 481 L74 481 L74 0 L133 0 L133 197 C133 298 142 337 175 376 C206 410 249 429 299 429 L314 429 L314 488 Z M137 -56 L73 -56 L73 -131 L104 -131 C102 -166 91 -184 66 -196 L66 -226 C115 -214 137 -181 137 -117 L137 -56 Z " />
<glyph glyph-name="Rcaron" unicode="&#x158;" horiz-adv-x="660" d="M77 667 L77 0 L140 0 L140 298 L336 298 C410 298 451 288 475 262 C504 231 511 204 516 92 C518 40 523 15 533 0 L604 0 C588 18 582 45 577 113 C569 231 567 240 543 276 C520 303 496 316 456 322 C539 342 586 402 586 487 C586 554 559 605 508 637 C473 658 433 667 370 667 L77 667 Z M140 612 L350 612 C401 612 434 606 459 593 C501 572 523 533 523 483 C523 434 502 395 465 373 C434 356 396 349 328 349 L140 349 L140 612 Z M164 848 L280 722 L341 722 L456 848 L403 848 L312 757 L223 848 L164 848 Z " />
<glyph glyph-name="rcaron" unicode="&#x159;" horiz-adv-x="309" d="M313 488 C223 490 165 451 129 366 L129 481 L74 481 L74 0 L133 0 L133 197 C133 298 142 337 175 376 C205 410 248 429 298 429 L313 429 L313 488 Z M52 686 L152 553 L211 553 L310 686 L258 686 L183 587 L110 686 L52 686 Z " />
<glyph glyph-name="Sacute" unicode="&#x15a;" horiz-adv-x="587" d="M523 475 C517 608 431 682 281 682 C137 682 48 612 48 498 C48 446 69 402 106 376 C139 354 169 343 258 322 C349 301 376 294 405 281 C458 260 483 225 483 176 C483 90 413 38 298 38 C222 38 163 60 127 101 C101 131 90 164 88 221 L27 221 L27 214 C27 71 128 -15 293 -15 C371 -15 425 -1 468 31 C518 68 544 120 544 182 C544 243 518 289 465 320 C431 340 398 351 290 375 C206 395 178 404 151 420 C125 436 110 466 110 502 C110 562 147 606 211 622 C264 636 336 630 380 608 C432 583 456 545 462 475 L523 475 Z M417 848 L340 848 L237 722 L286 722 L417 848 Z " />
<glyph glyph-name="sacute" unicode="&#x15b;" horiz-adv-x="449" d="M395 342 C392 389 383 414 361 439 C330 476 278 495 212 495 C104 495 37 443 37 359 C37 317 57 281 91 262 C117 249 136 242 222 222 C324 197 354 176 354 128 C354 72 302 35 222 35 C131 35 86 74 80 157 L23 157 C26 47 97 -14 221 -14 C335 -14 412 45 412 133 C412 174 393 209 362 230 C332 249 300 261 233 276 C119 302 95 318 95 365 C95 416 136 446 208 446 C291 446 330 415 337 342 L395 342 Z M353 686 L281 686 L188 553 L235 553 L353 686 Z " />
<glyph glyph-name="Scircumflex" unicode="&#x15c;" horiz-adv-x="587" d="M523 475 C517 608 431 682 281 682 C137 682 48 612 48 498 C48 446 69 402 106 376 C139 354 169 343 258 322 C349 301 376 294 405 281 C458 260 483 225 483 176 C483 90 413 38 298 38 C222 38 163 60 127 101 C101 131 90 164 88 221 L27 221 L27 214 C27 71 128 -15 293 -15 C371 -15 425 -1 468 31 C518 68 544 120 544 182 C544 243 518 289 465 320 C431 340 398 351 290 375 C206 395 178 404 151 420 C125 436 110 466 110 502 C110 562 147 606 211 622 C264 636 336 630 380 608 C432 583 456 545 462 475 L523 475 Z M443 722 L327 848 L266 848 L151 722 L205 722 L295 813 L384 722 L443 722 Z " />
<glyph glyph-name="scircumflex" unicode="&#x15d;" horiz-adv-x="449" d="M395 342 C392 389 383 414 361 439 C330 476 278 495 212 495 C104 495 37 443 37 359 C37 317 57 281 91 262 C117 249 136 242 222 222 C324 197 354 176 354 128 C354 72 302 35 222 35 C131 35 86 74 80 157 L23 157 C26 47 97 -14 221 -14 C335 -14 412 45 412 133 C412 174 393 209 362 230 C332 249 300 261 233 276 C119 302 95 318 95 365 C95 416 136 446 208 446 C291 446 330 415 337 342 L395 342 Z M353 553 L253 686 L194 686 L95 553 L148 553 L222 652 L295 553 L353 553 Z " />
<glyph glyph-name="Scedilla" unicode="&#x15e;" horiz-adv-x="587" d="M285 -16 C355 -15 402 -6 442 14 C507 49 544 109 544 182 C544 243 518 289 465 320 C431 340 398 351 290 375 C206 395 178 404 151 420 C125 436 110 466 110 502 C110 562 147 606 211 622 C264 636 336 630 380 608 C432 583 456 545 462 475 L523 475 C517 608 431 682 281 682 C137 682 48 612 48 498 C48 446 69 402 106 376 C139 354 169 343 258 322 C349 301 376 294 405 281 C458 260 483 225 483 176 C483 90 413 38 298 38 C222 38 163 60 127 101 C101 131 90 164 88 221 L27 221 L27 214 C27 146 53 84 98 45 C134 14 177 -3 252 -15 L207 -75 L221 -90 C241 -83 251 -81 262 -81 C287 -81 310 -98 310 -118 C310 -124 303 -139 298 -145 C289 -156 274 -161 254 -161 C232 -161 210 -156 185 -146 L173 -174 C208 -188 232 -193 260 -193 C320 -193 363 -160 363 -113 C363 -79 331 -52 289 -52 C281 -52 273 -53 255 -56 L285 -16 Z " />
<glyph glyph-name="scedilla" unicode="&#x15f;" horiz-adv-x="449" d="M209 -14 C253 -14 282 -10 310 0 C374 23 412 73 412 133 C412 174 393 209 362 230 C332 249 300 261 233 276 C119 302 95 318 95 365 C95 416 136 446 208 446 C291 446 330 415 337 342 L395 342 C392 389 383 414 361 439 C330 476 278 495 212 495 C104 495 37 443 37 359 C37 317 57 281 91 262 C117 249 136 242 222 222 C324 197 354 176 354 128 C354 72 302 35 222 35 C131 35 86 74 80 157 L23 157 C23 70 74 9 162 -8 L179 -12 L133 -72 L147 -86 C164 -80 173 -78 186 -78 C216 -78 235 -93 235 -116 C235 -142 214 -158 179 -158 C156 -158 136 -153 112 -143 L99 -171 C134 -185 156 -190 186 -190 C249 -190 287 -160 287 -110 C287 -72 259 -49 214 -49 C201 -49 195 -50 180 -52 L209 -14 Z " />
<glyph glyph-name="Scaron" unicode="&#x160;" horiz-adv-x="587" d="M523 475 C517 608 431 682 281 682 C137 682 48 612 48 498 C48 446 69 402 106 376 C139 354 169 343 258 322 C349 301 376 294 405 281 C458 260 483 225 483 176 C483 90 413 38 298 38 C222 38 163 60 127 101 C101 131 90 164 88 221 L27 221 L27 214 C27 71 128 -15 293 -15 C371 -15 425 -1 468 31 C518 68 544 120 544 182 C544 243 518 289 465 320 C431 340 398 351 290 375 C206 395 178 404 151 420 C125 436 110 466 110 502 C110 562 147 606 211 622 C264 636 336 630 380 608 C432 583 456 545 462 475 L523 475 Z M146 848 L262 722 L323 722 L438 848 L385 848 L294 757 L206 848 L146 848 Z " />
<glyph glyph-name="scaron" unicode="&#x161;" horiz-adv-x="449" d="M395 342 C392 389 383 414 361 439 C330 476 278 495 212 495 C104 495 37 443 37 359 C37 317 57 281 91 262 C117 249 136 242 222 222 C324 197 354 176 354 128 C354 72 302 35 222 35 C131 35 86 74 80 157 L23 157 C26 47 97 -14 221 -14 C335 -14 412 45 412 133 C412 174 393 209 362 230 C332 249 300 261 233 276 C119 302 95 318 95 365 C95 416 136 446 208 446 C291 446 330 415 337 342 L395 342 Z M90 686 L190 553 L249 553 L348 686 L296 686 L221 587 L149 686 L90 686 Z " />
<glyph glyph-name="Tcommaaccent" unicode="&#x162;" horiz-adv-x="560" d="M546 667 L14 667 L14 612 L249 612 L249 0 L312 0 L312 612 L546 612 L546 667 Z M315 -56 L251 -56 L251 -131 L282 -131 C279 -166 271 -182 245 -196 L245 -226 C294 -213 315 -180 315 -117 L315 -56 Z " />
<glyph glyph-name="tcommaaccent" unicode="&#x163;" horiz-adv-x="263" d="M234 481 L134 481 L134 629 L75 629 L75 481 L-9 481 L-9 432 L75 432 L75 158 C75 74 77 56 86 38 C100 9 129 -3 181 -3 C203 -3 215 -2 234 0 L234 51 C218 49 207 48 195 48 C143 48 134 60 134 128 L134 432 L234 432 L234 481 Z M175 -56 L111 -56 L111 -131 L142 -131 C140 -166 129 -184 104 -196 L104 -226 C153 -214 175 -181 175 -117 L175 -56 Z " />
<glyph glyph-name="Tcaron" unicode="&#x164;" horiz-adv-x="560" d="M546 667 L14 667 L14 612 L249 612 L249 0 L312 0 L312 612 L546 612 L546 667 Z M134 848 L250 722 L311 722 L426 848 L373 848 L282 757 L193 848 L134 848 Z " />
<glyph glyph-name="tcaron" unicode="&#x165;" horiz-adv-x="258" d="M234 481 L134 481 L134 629 L75 629 L75 481 L-9 481 L-9 432 L75 432 L75 158 C75 74 77 56 86 38 C100 9 129 -3 181 -3 C203 -3 215 -2 234 0 L234 51 C218 49 207 48 195 48 C143 48 134 60 134 128 L134 432 L234 432 L234 481 Z M264 711 L200 711 L200 636 L231 636 C228 601 220 585 194 571 L194 541 C243 554 264 587 264 650 L264 711 Z " />
<glyph glyph-name="Tbar" unicode="&#x166;" horiz-adv-x="560" d="M546 667 L14 667 L14 612 L249 612 L249 400 L82 400 L82 347 L249 347 L249 0 L312 0 L312 347 L479 347 L479 400 L312 400 L312 612 L546 612 L546 667 Z " />
<glyph glyph-name="tbar" unicode="&#x167;" horiz-adv-x="263" d="M234 481 L134 481 L134 629 L75 629 L75 481 L-9 481 L-9 432 L75 432 L75 339 L1 339 L1 292 L75 292 L75 158 C75 75 77 56 86 38 C100 9 128 -3 181 -3 C203 -3 215 -2 234 0 L234 51 C218 49 207 48 195 48 C143 48 134 61 134 129 L134 292 L224 292 L224 339 L134 339 L134 432 L234 432 L234 481 Z " />
<glyph glyph-name="utilde" unicode="&#x169;" horiz-adv-x="535" d="M461 481 L402 481 L402 234 C402 176 394 139 375 107 C349 63 303 37 250 37 C200 37 156 62 141 99 C132 122 129 144 129 196 L129 481 L70 481 L70 171 C70 113 79 76 101 47 C129 10 182 -14 237 -14 C313 -14 367 20 406 90 L406 0 L461 0 L461 481 Z M365 668 C358 636 346 622 327 622 C312 622 307 624 267 647 C247 658 226 665 212 665 C171 665 144 632 135 573 L169 573 C176 606 188 620 208 620 C217 620 229 617 239 612 C296 581 305 577 327 577 C365 577 390 607 400 668 L365 668 Z " />
<glyph glyph-name="Umacron" unicode="&#x16a;" horiz-adv-x="660" d="M590 667 L527 667 L527 268 C527 189 519 146 496 110 C466 62 412 38 335 38 C253 38 198 63 165 113 C142 149 134 188 134 267 L134 667 L71 667 L71 269 C71 185 80 139 104 96 C147 21 222 -15 334 -15 C433 -15 501 15 545 77 C580 126 590 170 590 267 L590 667 Z M481 802 L179 802 L179 760 L481 760 L481 802 Z " />
<glyph glyph-name="umacron" unicode="&#x16b;" horiz-adv-x="535" d="M461 481 L402 481 L402 234 C402 176 394 139 375 107 C349 63 303 37 250 37 C200 37 156 62 141 99 C132 122 129 144 129 196 L129 481 L70 481 L70 171 C70 113 79 76 101 47 C129 10 182 -14 237 -14 C313 -14 367 20 406 90 L406 0 L461 0 L461 481 Z M397 642 L134 642 L134 600 L397 600 L397 642 Z " />
<glyph glyph-name="Ubreve" unicode="&#x16c;" horiz-adv-x="660" d="M590 667 L527 667 L527 268 C527 189 519 146 496 110 C466 62 412 38 335 38 C253 38 198 63 165 113 C142 149 134 188 134 267 L134 667 L71 667 L71 269 C71 185 80 139 104 96 C147 21 222 -15 334 -15 C433 -15 501 15 545 77 C580 126 590 170 590 267 L590 667 Z M428 848 C416 793 385 768 330 768 C277 768 243 796 232 848 L195 848 C200 773 252 725 328 725 C376 725 420 747 441 782 C452 800 458 817 465 848 L428 848 Z " />
<glyph glyph-name="ubreve" unicode="&#x16d;" horiz-adv-x="535" d="M461 481 L402 481 L402 234 C402 176 394 139 375 107 C349 63 303 37 250 37 C200 37 156 62 141 99 C132 122 129 144 129 196 L129 481 L70 481 L70 171 C70 113 79 76 101 47 C129 10 182 -14 237 -14 C313 -14 367 20 406 90 L406 0 L461 0 L461 481 Z M353 684 C341 629 314 603 269 603 C221 603 192 630 182 684 L146 684 C151 608 197 560 266 560 C334 560 378 604 389 684 L353 684 Z " />
<glyph glyph-name="Uring" unicode="&#x16e;" horiz-adv-x="660" d="M590 667 L527 667 L527 268 C527 189 519 146 496 110 C466 62 412 38 335 38 C253 38 198 63 165 113 C142 149 134 188 134 267 L134 667 L71 667 L71 269 C71 185 80 139 104 96 C147 21 222 -15 334 -15 C433 -15 501 15 545 77 C580 126 590 170 590 267 L590 667 Z M332 897 C278 897 234 854 234 801 C234 747 277 703 331 703 C384 703 427 746 427 800 C427 853 384 897 332 897 L332 897 Z M332 858 C363 858 388 832 388 800 C388 767 363 742 331 742 C298 742 273 767 273 800 C273 833 298 858 332 858 L332 858 Z " />
<glyph glyph-name="uring" unicode="&#x16f;" horiz-adv-x="535" d="M461 481 L402 481 L402 234 C402 176 394 139 375 107 C349 63 303 37 250 37 C200 37 156 62 141 99 C132 122 129 144 129 196 L129 481 L70 481 L70 171 C70 113 79 76 101 47 C129 10 182 -14 237 -14 C313 -14 367 20 406 90 L406 0 L461 0 L461 481 Z M273 720 C220 720 178 679 178 628 C178 576 220 534 272 534 C323 534 365 575 365 627 C365 678 323 720 273 720 L273 720 Z M272 681 C303 681 326 657 326 627 C326 596 303 573 272 573 C240 573 217 596 217 627 C217 658 241 681 272 681 L272 681 Z " />
<glyph glyph-name="Uhungarumlaut" unicode="&#x170;" horiz-adv-x="660" d="M590 667 L527 667 L527 268 C527 189 519 146 496 110 C466 62 412 38 335 38 C253 38 198 63 165 113 C142 149 134 188 134 267 L134 667 L71 667 L71 269 C71 185 80 139 104 96 C147 21 222 -15 334 -15 C433 -15 501 15 545 77 C580 126 590 170 590 267 L590 667 Z M529 848 L456 848 L376 722 L421 722 L529 848 Z M375 848 L303 848 L223 722 L267 722 L375 848 Z " />
<glyph glyph-name="uhungarumlaut" unicode="&#x171;" horiz-adv-x="535" d="M461 481 L402 481 L402 234 C402 176 394 139 375 107 C349 63 303 37 250 37 C200 37 156 62 141 99 C132 122 129 144 129 196 L129 481 L70 481 L70 171 C70 113 79 76 101 47 C129 10 182 -14 237 -14 C313 -14 367 20 406 90 L406 0 L461 0 L461 481 Z M440 686 L371 686 L300 553 L344 553 L440 686 Z M313 686 L245 686 L173 553 L217 553 L313 686 Z " />
<glyph glyph-name="Uogonek" unicode="&#x172;" horiz-adv-x="660" d="M514 -127 C492 -133 484 -135 473 -135 C436 -135 410 -116 410 -89 C410 -59 435 -25 496 27 C542 66 560 91 575 137 C587 173 590 199 590 267 L590 667 L527 667 L527 268 C527 188 519 146 497 110 C467 62 412 38 335 38 C254 38 198 63 165 113 C142 149 134 188 134 267 L134 667 L71 667 L71 269 C71 185 80 139 104 96 C146 22 222 -15 332 -15 C367 -15 387 -13 431 -3 C384 -34 361 -64 361 -97 C361 -141 401 -172 458 -172 C477 -172 490 -170 514 -162 L514 -127 Z " />
<glyph glyph-name="uogonek" unicode="&#x173;" horiz-adv-x="535" d="M461 481 L402 481 L402 234 C402 176 394 139 375 107 C349 63 303 37 250 37 C200 37 156 62 141 99 C132 122 129 144 129 196 L129 481 L70 481 L70 171 C70 113 79 76 101 47 C129 10 182 -14 237 -14 C313 -14 367 20 406 90 L406 0 L426 0 C367 -30 343 -58 343 -97 C343 -141 383 -172 440 -172 C459 -172 472 -170 496 -162 L496 -127 C474 -133 466 -135 454 -135 C444 -135 429 -131 418 -127 C400 -119 393 -109 393 -90 C393 -57 417 -26 461 0 L461 481 Z " />
<glyph glyph-name="Wcircumflex" unicode="&#x174;" horiz-adv-x="873" d="M860 667 L796 667 L670 197 C653 127 648 106 640 66 L633 103 C629 118 625 135 622 147 C616 171 614 180 609 198 L474 667 L401 667 L269 205 C248 125 241 95 236 66 C230 98 222 132 204 204 L81 667 L14 667 L198 0 L267 0 L401 472 C417 528 424 553 437 607 C442 577 450 548 471 470 L606 0 L675 0 L860 667 Z M583 722 L467 848 L406 848 L291 722 L344 722 L435 813 L524 722 L583 722 Z " />
<glyph glyph-name="Ycircumflex" unicode="&#x176;" horiz-adv-x="579" d="M586 667 L513 667 L327 386 C320 375 304 349 292 329 C282 347 268 371 257 388 L71 667 L-6 667 L259 276 L259 0 L322 0 L322 276 L586 667 Z M436 722 L320 848 L259 848 L144 722 L197 722 L288 813 L377 722 L436 722 Z " />
<glyph glyph-name="ycircumflex" unicode="&#x177;" horiz-adv-x="437" d="M435 481 L375 481 L257 156 C248 132 242 113 227 65 C207 125 204 133 198 150 L68 481 L3 481 L197 3 C198 2 198 0 198 0 C198 0 198 -1 197 -3 C194 -9 191 -14 189 -20 C162 -88 161 -91 150 -105 C136 -124 118 -133 94 -133 C82 -133 72 -132 52 -127 L52 -179 L65 -180 C78 -182 91 -183 104 -183 C143 -183 173 -168 193 -138 C207 -117 218 -91 246 -19 L435 481 Z M348 553 L248 686 L189 686 L90 553 L142 553 L217 652 L290 553 L348 553 Z " />
<glyph glyph-name="Ydieresis" unicode="&#x178;" horiz-adv-x="579" d="M586 667 L513 667 L327 386 C320 375 304 349 292 329 C282 347 268 371 257 388 L71 667 L-6 667 L259 276 L259 0 L322 0 L322 276 L586 667 Z M422 830 L359 830 L359 737 L422 737 L422 830 Z M220 830 L157 830 L157 737 L220 737 L220 830 Z " />
<glyph glyph-name="Zacute" unicode="&#x179;" horiz-adv-x="574" d="M540 667 L59 667 L59 612 L380 612 C399 612 409 612 468 613 C464 608 459 602 454 596 L437 576 L28 57 L28 0 L549 0 L549 55 L196 55 L139 54 L100 53 C106 62 112 69 119 77 C124 83 129 89 134 96 L540 611 L540 667 Z M435 848 L358 848 L255 722 L304 722 L435 848 Z " />
<glyph glyph-name="zacute" unicode="&#x17a;" horiz-adv-x="437" d="M413 481 L44 481 L44 432 L300 432 L320 432 L338 433 L325 416 C318 409 312 402 305 394 L23 48 L23 0 L426 0 L426 49 L145 49 L117 49 L94 49 C100 55 105 62 111 70 L126 87 L413 439 L413 481 Z M350 686 L278 686 L184 553 L231 553 L350 686 Z " />
<glyph glyph-name="Zdotaccent" unicode="&#x17b;" horiz-adv-x="574" d="M540 667 L59 667 L59 612 L380 612 C399 612 409 612 468 613 C464 608 459 602 454 596 L437 576 L28 57 L28 0 L549 0 L549 55 L196 55 L139 54 L100 53 C106 62 112 69 119 77 C124 83 129 89 134 96 L540 611 L540 667 Z M327 830 L264 830 L264 737 L327 737 L327 830 Z " />
<glyph glyph-name="zdotaccent" unicode="&#x17c;" horiz-adv-x="437" d="M413 481 L44 481 L44 432 L300 432 L320 432 L338 433 L325 416 C318 409 312 402 305 394 L23 48 L23 0 L426 0 L426 49 L145 49 L117 49 L94 49 C100 55 105 62 111 70 L126 87 L413 439 L413 481 Z M262 668 L202 668 L202 573 L262 573 L262 668 Z " />
<glyph glyph-name="Zcaron" unicode="&#x17d;" horiz-adv-x="574" d="M540 667 L59 667 L59 612 L380 612 C399 612 409 612 468 613 C464 608 459 602 454 596 L437 576 L28 57 L28 0 L549 0 L549 55 L196 55 L139 54 L100 53 C106 62 112 69 119 77 C124 83 129 89 134 96 L540 611 L540 667 Z M153 848 L269 722 L330 722 L445 848 L391 848 L301 757 L212 848 L153 848 Z " />
<glyph glyph-name="zcaron" unicode="&#x17e;" horiz-adv-x="437" d="M413 481 L44 481 L44 432 L300 432 L320 432 L338 433 L325 416 C318 409 312 402 305 394 L23 48 L23 0 L426 0 L426 49 L145 49 L117 49 L94 49 C100 55 105 62 111 70 L126 87 L413 439 L413 481 Z M106 686 L206 553 L265 553 L364 686 L312 686 L237 587 L164 686 L106 686 Z " />
<glyph glyph-name="florin" unicode="&#x192;" horiz-adv-x="547" d="M439 456 L333 456 L354 571 C368 648 394 677 450 677 C465 677 476 676 494 673 L504 724 C480 727 464 728 448 728 C397 728 359 712 334 680 C316 656 306 628 295 571 L274 456 L180 456 L171 409 L266 409 L194 13 C171 -114 148 -136 54 -124 L45 -175 C67 -178 79 -179 97 -179 C144 -179 174 -167 199 -139 C225 -110 238 -74 252 5 L325 409 L430 409 L439 456 Z " />
<glyph glyph-name="uni01CD" unicode="&#x1cd;" horiz-adv-x="623" d="M349 669 L278 669 L9 0 L77 0 L159 210 L464 210 L544 0 L615 0 L349 669 Z M445 261 L178 261 L276 511 C292 553 305 586 313 609 C320 587 328 563 349 508 L445 261 Z M166 848 L282 722 L343 722 L458 848 L405 848 L314 757 L225 848 L166 848 Z " />
<glyph glyph-name="uni01CE" unicode="&#x1ce;" horiz-adv-x="499" d="M481 49 C470 46 464 45 459 45 C430 45 426 54 426 113 L426 186 L426 328 C427 397 420 421 397 446 C366 477 312 495 250 495 C130 495 60 437 55 333 L112 333 C120 412 159 446 243 446 C331 446 369 415 369 341 C369 300 351 286 293 280 C166 267 162 267 128 254 C65 231 33 186 33 123 C33 37 92 -14 190 -14 C273 -14 328 16 372 84 C372 19 388 -4 434 -4 C452 -4 465 -2 481 3 L481 49 Z M369 184 C369 97 300 34 205 34 C137 34 92 72 92 128 C92 155 106 182 126 196 C148 211 183 222 236 229 C336 242 350 246 369 263 L369 184 Z M118 686 L218 553 L277 553 L376 686 L323 686 L249 587 L176 686 L118 686 Z " />
<glyph glyph-name="uni01D3" unicode="&#x1d3;" horiz-adv-x="660" d="M590 667 L527 667 L527 268 C527 189 519 146 496 110 C466 62 412 38 335 38 C253 38 198 63 165 113 C142 149 134 188 134 267 L134 667 L71 667 L71 269 C71 185 80 139 104 96 C147 21 222 -15 334 -15 C433 -15 501 15 545 77 C580 126 590 170 590 267 L590 667 Z M185 848 L301 722 L362 722 L477 848 L423 848 L333 757 L244 848 L185 848 Z " />
<glyph glyph-name="uni01D4" unicode="&#x1d4;" horiz-adv-x="535" d="M461 481 L402 481 L402 234 C402 176 394 139 375 107 C349 63 303 37 250 37 C200 37 156 62 141 99 C132 122 129 144 129 196 L129 481 L70 481 L70 171 C70 113 79 76 101 47 C129 10 182 -14 237 -14 C313 -14 367 20 406 90 L406 0 L461 0 L461 481 Z M136 686 L236 553 L295 553 L394 686 L342 686 L267 587 L195 686 L136 686 Z " />
<glyph glyph-name="Gcaron" unicode="&#x1e6;" horiz-adv-x="714" d="M648 339 L364 339 L364 287 L592 287 C592 234 585 198 567 161 C530 83 457 40 362 40 C209 40 108 154 108 328 C108 406 130 482 167 532 C214 596 279 627 362 627 C436 627 491 604 533 555 C557 527 571 495 577 461 L639 461 C630 518 611 558 573 598 C520 655 452 682 362 682 C270 682 195 651 139 590 C79 525 45 430 45 327 C45 124 173 -15 359 -15 C468 -15 552 35 593 124 L606 0 L648 0 L648 339 Z M212 848 L328 722 L389 722 L504 848 L451 848 L360 757 L271 848 L212 848 Z " />
<glyph glyph-name="gcaron" unicode="&#x1e7;" horiz-adv-x="548" d="M474 481 L419 481 L419 391 C381 463 330 495 255 495 C125 495 41 396 41 245 C41 99 121 7 249 7 C330 7 382 40 416 112 L416 32 C416 -89 368 -141 258 -141 C174 -141 129 -109 119 -43 L60 -43 C67 -136 139 -189 257 -189 C346 -189 412 -158 445 -102 C466 -66 474 -27 474 46 L474 481 Z M260 446 C355 446 415 371 415 252 C415 132 353 56 256 56 C160 56 100 131 100 252 C100 299 112 347 132 379 C161 425 201 446 260 446 L260 446 Z M143 686 L243 553 L302 553 L401 686 L349 686 L274 587 L201 686 L143 686 Z " />
<glyph glyph-name="uni01F4" unicode="&#x1f4;" horiz-adv-x="714" d="M648 339 L364 339 L364 287 L592 287 C592 234 585 198 567 161 C530 83 457 40 362 40 C209 40 108 154 108 328 C108 406 130 482 167 532 C214 596 279 627 362 627 C436 627 491 604 533 555 C557 527 571 495 577 461 L639 461 C630 518 611 558 573 598 C520 655 452 682 362 682 C270 682 195 651 139 590 C79 525 45 430 45 327 C45 124 173 -15 359 -15 C468 -15 552 35 593 124 L606 0 L648 0 L648 339 Z M501 848 L425 848 L321 722 L370 722 L501 848 Z " />
<glyph glyph-name="Scommaaccent" unicode="&#x218;" horiz-adv-x="587" d="M523 475 C517 608 431 682 281 682 C137 682 48 612 48 498 C48 446 69 402 106 376 C139 354 169 343 258 322 C349 301 376 294 405 281 C458 260 483 225 483 176 C483 90 413 38 298 38 C222 38 163 60 127 101 C101 131 90 164 88 221 L27 221 L27 214 C27 71 128 -15 293 -15 C371 -15 425 -1 468 31 C518 68 544 120 544 182 C544 243 518 289 465 320 C431 340 398 351 290 375 C206 395 178 404 151 420 C125 436 110 466 110 502 C110 562 147 606 211 622 C264 636 336 630 380 608 C432 583 456 545 462 475 L523 475 Z M312 -56 L248 -56 L248 -131 L279 -131 C276 -166 268 -182 242 -196 L242 -226 C291 -213 312 -180 312 -117 L312 -56 Z " />
<glyph glyph-name="scommaaccent" unicode="&#x219;" horiz-adv-x="449" d="M395 342 C392 389 383 414 361 439 C330 476 278 495 212 495 C104 495 37 443 37 359 C37 317 57 281 91 262 C117 249 136 242 222 222 C324 197 354 176 354 128 C354 72 302 35 222 35 C131 35 86 74 80 157 L23 157 C26 47 97 -14 221 -14 C335 -14 412 45 412 133 C412 174 393 209 362 230 C332 249 300 261 233 276 C119 302 95 318 95 365 C95 416 136 446 208 446 C291 446 330 415 337 342 L395 342 Z M241 -56 L177 -56 L177 -131 L208 -131 C205 -166 197 -182 171 -196 L171 -226 C220 -213 241 -180 241 -117 L241 -56 Z " />
<glyph glyph-name="afii57929" unicode="&#x2bc;" horiz-adv-x="223" d="M150 667 L73 667 L73 570 L109 570 C108 522 96 496 67 481 L67 441 C125 459 150 506 150 592 L150 667 Z " />
<glyph glyph-name="circumflex" unicode="&#x2c6;" horiz-adv-x="500" d="M379 553 L279 686 L220 686 L121 553 L173 553 L248 652 L321 553 L379 553 Z " />
<glyph glyph-name="caron" unicode="&#x2c7;" horiz-adv-x="500" d="M121 686 L221 553 L280 553 L379 686 L327 686 L252 587 L179 686 L121 686 Z " />
<glyph glyph-name="uni02C9" unicode="&#x2c9;" horiz-adv-x="500" d="M382 642 L119 642 L119 600 L382 600 L382 642 Z " />
<glyph glyph-name="breve" unicode="&#x2d8;" horiz-adv-x="500" d="M336 684 C324 629 298 603 253 603 C205 603 175 630 165 684 L129 684 C134 608 181 560 249 560 C317 560 361 604 372 684 L336 684 Z " />
<glyph glyph-name="dotaccent" unicode="&#x2d9;" horiz-adv-x="500" d="M280 668 L220 668 L220 573 L280 573 L280 668 Z " />
<glyph glyph-name="ring" unicode="&#x2da;" horiz-adv-x="500" d="M252 720 C199 720 157 679 157 628 C157 575 198 534 250 534 C302 534 344 576 344 627 C344 678 302 720 252 720 L252 720 Z M251 681 C281 681 305 657 305 627 C305 596 281 573 250 573 C219 573 196 596 196 627 C196 658 219 681 251 681 L251 681 Z " />
<glyph glyph-name="ogonek" unicode="&#x2db;" horiz-adv-x="500" d="M444 0 C393 -29 368 -61 368 -97 C368 -142 407 -172 464 -172 C484 -172 496 -170 520 -162 L520 -127 C498 -133 490 -135 479 -135 C468 -135 453 -131 442 -127 C425 -119 418 -109 418 -90 C418 -56 437 -30 485 0 L444 0 Z " />
<glyph glyph-name="tilde" unicode="&#x2dc;" horiz-adv-x="500" d="M347 668 C340 636 329 622 310 622 C295 622 290 624 250 647 C229 658 209 665 194 665 C154 665 126 632 117 573 L151 573 C159 606 170 620 191 620 C200 620 212 617 221 612 C278 581 287 577 309 577 C348 577 372 607 383 668 L347 668 Z " />
<glyph glyph-name="hungarumlaut" unicode="&#x2dd;" horiz-adv-x="500" d="M423 686 L354 686 L283 553 L327 553 L423 686 Z M296 686 L228 686 L156 553 L200 553 L296 686 Z " />
<glyph glyph-name="tonos" unicode="&#x384;" horiz-adv-x="223" d="M150 297 L73 297 L73 197 L150 197 L150 297 Z " />
<glyph glyph-name="dieresistonos" unicode="&#x385;" horiz-adv-x="223" d="M150 297 L73 297 L73 197 L150 197 L150 297 Z " />
<glyph glyph-name="Alphatonos" unicode="&#x386;" horiz-adv-x="223" d="M150 297 L73 297 L73 197 L150 197 L150 297 Z " />
<glyph glyph-name="anoteleia" unicode="&#x387;" horiz-adv-x="223" d="M150 297 L73 297 L73 197 L150 197 L150 297 Z " />
<glyph glyph-name="Epsilontonos" unicode="&#x388;" horiz-adv-x="223" d="M150 297 L73 297 L73 197 L150 197 L150 297 Z " />
<glyph glyph-name="Etatonos" unicode="&#x389;" horiz-adv-x="223" d="M150 297 L73 297 L73 197 L150 197 L150 297 Z " />
<glyph glyph-name="Iotatonos" unicode="&#x38a;" horiz-adv-x="223" d="M150 297 L73 297 L73 197 L150 197 L150 297 Z " />
<glyph glyph-name="Omicrontonos" unicode="&#x38c;" horiz-adv-x="223" d="M150 297 L73 297 L73 197 L150 197 L150 297 Z " />
<glyph glyph-name="Upsilontonos" unicode="&#x38e;" horiz-adv-x="223" d="M150 297 L73 297 L73 197 L150 197 L150 297 Z " />
<glyph glyph-name="Omegatonos" unicode="&#x38f;" horiz-adv-x="223" d="M150 297 L73 297 L73 197 L150 197 L150 297 Z " />
<glyph glyph-name="iotadieresistonos" unicode="&#x390;" horiz-adv-x="223" d="M150 297 L73 297 L73 197 L150 197 L150 297 Z " />
<glyph glyph-name="Alpha" unicode="&#x391;" horiz-adv-x="223" d="M150 297 L73 297 L73 197 L150 197 L150 297 Z " />
<glyph glyph-name="Beta" unicode="&#x392;" horiz-adv-x="223" d="M150 297 L73 297 L73 197 L150 197 L150 297 Z " />
<glyph glyph-name="Gamma" unicode="&#x393;" horiz-adv-x="223" d="M150 297 L73 297 L73 197 L150 197 L150 297 Z " />
<glyph glyph-name="uni0394" unicode="&#x394;" horiz-adv-x="223" d="M150 297 L73 297 L73 197 L150 197 L150 297 Z " />
<glyph glyph-name="Epsilon" unicode="&#x395;" horiz-adv-x="223" d="M150 297 L73 297 L73 197 L150 197 L150 297 Z " />
<glyph glyph-name="Zeta" unicode="&#x396;" horiz-adv-x="223" d="M150 297 L73 297 L73 197 L150 197 L150 297 Z " />
<glyph glyph-name="Eta" unicode="&#x397;" horiz-adv-x="223" d="M150 297 L73 297 L73 197 L150 197 L150 297 Z " />
<glyph glyph-name="Theta" unicode="&#x398;" horiz-adv-x="223" d="M150 297 L73 297 L73 197 L150 197 L150 297 Z " />
<glyph glyph-name="Iota" unicode="&#x399;" horiz-adv-x="223" d="M150 297 L73 297 L73 197 L150 197 L150 297 Z " />
<glyph glyph-name="Kappa" unicode="&#x39a;" horiz-adv-x="223" d="M150 297 L73 297 L73 197 L150 197 L150 297 Z " />
<glyph glyph-name="Lambda" unicode="&#x39b;" horiz-adv-x="223" d="M150 297 L73 297 L73 197 L150 197 L150 297 Z " />
<glyph glyph-name="Mu" unicode="&#x39c;" horiz-adv-x="223" d="M150 297 L73 297 L73 197 L150 197 L150 297 Z " />
<glyph glyph-name="Nu" unicode="&#x39d;" horiz-adv-x="223" d="M150 297 L73 297 L73 197 L150 197 L150 297 Z " />
<glyph glyph-name="Xi" unicode="&#x39e;" horiz-adv-x="223" d="M150 297 L73 297 L73 197 L150 197 L150 297 Z " />
<glyph glyph-name="Omicron" unicode="&#x39f;" horiz-adv-x="223" d="M150 297 L73 297 L73 197 L150 197 L150 297 Z " />
<glyph glyph-name="Pi" unicode="&#x3a0;" horiz-adv-x="223" d="M150 297 L73 297 L73 197 L150 197 L150 297 Z " />
<glyph glyph-name="Rho" unicode="&#x3a1;" horiz-adv-x="223" d="M150 297 L73 297 L73 197 L150 197 L150 297 Z " />
<glyph glyph-name="Sigma" unicode="&#x3a3;" horiz-adv-x="223" d="M150 297 L73 297 L73 197 L150 197 L150 297 Z " />
<glyph glyph-name="Tau" unicode="&#x3a4;" horiz-adv-x="223" d="M150 297 L73 297 L73 197 L150 197 L150 297 Z " />
<glyph glyph-name="Upsilon" unicode="&#x3a5;" horiz-adv-x="223" d="M150 297 L73 297 L73 197 L150 197 L150 297 Z " />
<glyph glyph-name="Phi" unicode="&#x3a6;" horiz-adv-x="223" d="M150 297 L73 297 L73 197 L150 197 L150 297 Z " />
<glyph glyph-name="Chi" unicode="&#x3a7;" horiz-adv-x="223" d="M150 297 L73 297 L73 197 L150 197 L150 297 Z " />
<glyph glyph-name="Psi" unicode="&#x3a8;" horiz-adv-x="223" d="M150 297 L73 297 L73 197 L150 197 L150 297 Z " />
<glyph glyph-name="uni03A9" unicode="&#x3a9;" horiz-adv-x="223" d="M150 297 L73 297 L73 197 L150 197 L150 297 Z " />
<glyph glyph-name="Iotadieresis" unicode="&#x3aa;" horiz-adv-x="223" d="M150 297 L73 297 L73 197 L150 197 L150 297 Z " />
<glyph glyph-name="Upsilondieresis" unicode="&#x3ab;" horiz-adv-x="223" d="M150 297 L73 297 L73 197 L150 197 L150 297 Z " />
<glyph glyph-name="alphatonos" unicode="&#x3ac;" horiz-adv-x="223" d="M150 297 L73 297 L73 197 L150 197 L150 297 Z " />
<glyph glyph-name="epsilontonos" unicode="&#x3ad;" horiz-adv-x="223" d="M150 297 L73 297 L73 197 L150 197 L150 297 Z " />
<glyph glyph-name="etatonos" unicode="&#x3ae;" horiz-adv-x="223" d="M150 297 L73 297 L73 197 L150 197 L150 297 Z " />
<glyph glyph-name="iotatonos" unicode="&#x3af;" horiz-adv-x="223" d="M150 297 L73 297 L73 197 L150 197 L150 297 Z " />
<glyph glyph-name="upsilondieresistonos" unicode="&#x3b0;" horiz-adv-x="223" d="M150 297 L73 297 L73 197 L150 197 L150 297 Z " />
<glyph glyph-name="alpha" unicode="&#x3b1;" horiz-adv-x="223" d="M150 297 L73 297 L73 197 L150 197 L150 297 Z " />
<glyph glyph-name="beta" unicode="&#x3b2;" horiz-adv-x="223" d="M150 297 L73 297 L73 197 L150 197 L150 297 Z " />
<glyph glyph-name="gamma" unicode="&#x3b3;" horiz-adv-x="223" d="M150 297 L73 297 L73 197 L150 197 L150 297 Z " />
<glyph glyph-name="delta" unicode="&#x3b4;" horiz-adv-x="223" d="M150 297 L73 297 L73 197 L150 197 L150 297 Z " />
<glyph glyph-name="epsilon" unicode="&#x3b5;" horiz-adv-x="223" d="M150 297 L73 297 L73 197 L150 197 L150 297 Z " />
<glyph glyph-name="zeta" unicode="&#x3b6;" horiz-adv-x="223" d="M150 297 L73 297 L73 197 L150 197 L150 297 Z " />
<glyph glyph-name="eta" unicode="&#x3b7;" horiz-adv-x="223" d="M150 297 L73 297 L73 197 L150 197 L150 297 Z " />
<glyph glyph-name="theta" unicode="&#x3b8;" horiz-adv-x="223" d="M150 297 L73 297 L73 197 L150 197 L150 297 Z " />
<glyph glyph-name="iota" unicode="&#x3b9;" horiz-adv-x="223" d="M150 297 L73 297 L73 197 L150 197 L150 297 Z " />
<glyph glyph-name="kappa" unicode="&#x3ba;" horiz-adv-x="223" d="M150 297 L73 297 L73 197 L150 197 L150 297 Z " />
<glyph glyph-name="lambda" unicode="&#x3bb;" horiz-adv-x="223" d="M150 297 L73 297 L73 197 L150 197 L150 297 Z " />
<glyph glyph-name="uni03BC" unicode="&#x3bc;" horiz-adv-x="223" d="M150 297 L73 297 L73 197 L150 197 L150 297 Z " />
<glyph glyph-name="nu" unicode="&#x3bd;" horiz-adv-x="223" d="M150 297 L73 297 L73 197 L150 197 L150 297 Z " />
<glyph glyph-name="xi" unicode="&#x3be;" horiz-adv-x="223" d="M150 297 L73 297 L73 197 L150 197 L150 297 Z " />
<glyph glyph-name="omicron" unicode="&#x3bf;" horiz-adv-x="223" d="M150 297 L73 297 L73 197 L150 197 L150 297 Z " />
<glyph glyph-name="pi" unicode="&#x3c0;" horiz-adv-x="223" d="M150 297 L73 297 L73 197 L150 197 L150 297 Z " />
<glyph glyph-name="rho" unicode="&#x3c1;" horiz-adv-x="223" d="M150 297 L73 297 L73 197 L150 197 L150 297 Z " />
<glyph glyph-name="uni03C2" unicode="&#x3c2;" horiz-adv-x="223" d="M150 297 L73 297 L73 197 L150 197 L150 297 Z " />
<glyph glyph-name="sigma" unicode="&#x3c3;" horiz-adv-x="223" d="M150 297 L73 297 L73 197 L150 197 L150 297 Z " />
<glyph glyph-name="tau" unicode="&#x3c4;" horiz-adv-x="223" d="M150 297 L73 297 L73 197 L150 197 L150 297 Z " />
<glyph glyph-name="upsilon" unicode="&#x3c5;" horiz-adv-x="223" d="M150 297 L73 297 L73 197 L150 197 L150 297 Z " />
<glyph glyph-name="phi" unicode="&#x3c6;" horiz-adv-x="223" d="M150 297 L73 297 L73 197 L150 197 L150 297 Z " />
<glyph glyph-name="chi" unicode="&#x3c7;" horiz-adv-x="223" d="M150 297 L73 297 L73 197 L150 197 L150 297 Z " />
<glyph glyph-name="psi" unicode="&#x3c8;" horiz-adv-x="223" d="M150 297 L73 297 L73 197 L150 197 L150 297 Z " />
<glyph glyph-name="omega" unicode="&#x3c9;" horiz-adv-x="223" d="M150 297 L73 297 L73 197 L150 197 L150 297 Z " />
<glyph glyph-name="iotadieresis" unicode="&#x3ca;" horiz-adv-x="223" d="M150 297 L73 297 L73 197 L150 197 L150 297 Z " />
<glyph glyph-name="upsilondieresis" unicode="&#x3cb;" horiz-adv-x="223" d="M150 297 L73 297 L73 197 L150 197 L150 297 Z " />
<glyph glyph-name="omicrontonos" unicode="&#x3cc;" horiz-adv-x="223" d="M150 297 L73 297 L73 197 L150 197 L150 297 Z " />
<glyph glyph-name="upsilontonos" unicode="&#x3cd;" horiz-adv-x="223" d="M150 297 L73 297 L73 197 L150 197 L150 297 Z " />
<glyph glyph-name="omegatonos" unicode="&#x3ce;" horiz-adv-x="223" d="M150 297 L73 297 L73 197 L150 197 L150 297 Z " />
<glyph glyph-name="theta1" unicode="&#x3d1;" horiz-adv-x="223" d="M150 297 L73 297 L73 197 L150 197 L150 297 Z " />
<glyph glyph-name="Upsilon1" unicode="&#x3d2;" horiz-adv-x="223" d="M150 297 L73 297 L73 197 L150 197 L150 297 Z " />
<glyph glyph-name="phi1" unicode="&#x3d5;" horiz-adv-x="223" d="M150 297 L73 297 L73 197 L150 197 L150 297 Z " />
<glyph glyph-name="omega1" unicode="&#x3d6;" horiz-adv-x="223" d="M150 297 L73 297 L73 197 L150 197 L150 297 Z " />
<glyph glyph-name="afii10023" unicode="&#x401;" horiz-adv-x="223" d="M150 297 L73 297 L73 197 L150 197 L150 297 Z " />
<glyph glyph-name="afii10051" unicode="&#x402;" horiz-adv-x="223" d="M150 297 L73 297 L73 197 L150 197 L150 297 Z " />
<glyph glyph-name="afii10052" unicode="&#x403;" horiz-adv-x="223" d="M150 297 L73 297 L73 197 L150 197 L150 297 Z " />
<glyph glyph-name="afii10053" unicode="&#x404;" horiz-adv-x="223" d="M150 297 L73 297 L73 197 L150 197 L150 297 Z " />
<glyph glyph-name="afii10054" unicode="&#x405;" horiz-adv-x="223" d="M150 297 L73 297 L73 197 L150 197 L150 297 Z " />
<glyph glyph-name="afii10055" unicode="&#x406;" horiz-adv-x="223" d="M150 297 L73 297 L73 197 L150 197 L150 297 Z " />
<glyph glyph-name="afii10056" unicode="&#x407;" horiz-adv-x="223" d="M150 297 L73 297 L73 197 L150 197 L150 297 Z " />
<glyph glyph-name="afii10057" unicode="&#x408;" horiz-adv-x="223" d="M150 297 L73 297 L73 197 L150 197 L150 297 Z " />
<glyph glyph-name="afii10058" unicode="&#x409;" horiz-adv-x="223" d="M150 297 L73 297 L73 197 L150 197 L150 297 Z " />
<glyph glyph-name="afii10059" unicode="&#x40a;" horiz-adv-x="223" d="M150 297 L73 297 L73 197 L150 197 L150 297 Z " />
<glyph glyph-name="afii10060" unicode="&#x40b;" horiz-adv-x="223" d="M150 297 L73 297 L73 197 L150 197 L150 297 Z " />
<glyph glyph-name="afii10061" unicode="&#x40c;" horiz-adv-x="223" d="M150 297 L73 297 L73 197 L150 197 L150 297 Z " />
<glyph glyph-name="afii10062" unicode="&#x40e;" horiz-adv-x="223" d="M150 297 L73 297 L73 197 L150 197 L150 297 Z " />
<glyph glyph-name="afii10145" unicode="&#x40f;" horiz-adv-x="223" d="M150 297 L73 297 L73 197 L150 197 L150 297 Z " />
<glyph glyph-name="afii10017" unicode="&#x410;" horiz-adv-x="223" d="M150 297 L73 297 L73 197 L150 197 L150 297 Z " />
<glyph glyph-name="afii10018" unicode="&#x411;" horiz-adv-x="223" d="M150 297 L73 297 L73 197 L150 197 L150 297 Z " />
<glyph glyph-name="afii10019" unicode="&#x412;" horiz-adv-x="223" d="M150 297 L73 297 L73 197 L150 197 L150 297 Z " />
<glyph glyph-name="afii10020" unicode="&#x413;" horiz-adv-x="223" d="M150 297 L73 297 L73 197 L150 197 L150 297 Z " />
<glyph glyph-name="afii10021" unicode="&#x414;" horiz-adv-x="223" d="M150 297 L73 297 L73 197 L150 197 L150 297 Z " />
<glyph glyph-name="afii10022" unicode="&#x415;" horiz-adv-x="223" d="M150 297 L73 297 L73 197 L150 197 L150 297 Z " />
<glyph glyph-name="afii10024" unicode="&#x416;" horiz-adv-x="223" d="M150 297 L73 297 L73 197 L150 197 L150 297 Z " />
<glyph glyph-name="afii10025" unicode="&#x417;" horiz-adv-x="223" d="M150 297 L73 297 L73 197 L150 197 L150 297 Z " />
<glyph glyph-name="afii10026" unicode="&#x418;" horiz-adv-x="223" d="M150 297 L73 297 L73 197 L150 197 L150 297 Z " />
<glyph glyph-name="afii10027" unicode="&#x419;" horiz-adv-x="223" d="M150 297 L73 297 L73 197 L150 197 L150 297 Z " />
<glyph glyph-name="afii10028" unicode="&#x41a;" horiz-adv-x="223" d="M150 297 L73 297 L73 197 L150 197 L150 297 Z " />
<glyph glyph-name="afii10029" unicode="&#x41b;" horiz-adv-x="223" d="M150 297 L73 297 L73 197 L150 197 L150 297 Z " />
<glyph glyph-name="afii10030" unicode="&#x41c;" horiz-adv-x="223" d="M150 297 L73 297 L73 197 L150 197 L150 297 Z " />
<glyph glyph-name="afii10031" unicode="&#x41d;" horiz-adv-x="223" d="M150 297 L73 297 L73 197 L150 197 L150 297 Z " />
<glyph glyph-name="afii10032" unicode="&#x41e;" horiz-adv-x="223" d="M150 297 L73 297 L73 197 L150 197 L150 297 Z " />
<glyph glyph-name="afii10033" unicode="&#x41f;" horiz-adv-x="223" d="M150 297 L73 297 L73 197 L150 197 L150 297 Z " />
<glyph glyph-name="afii10034" unicode="&#x420;" horiz-adv-x="223" d="M150 297 L73 297 L73 197 L150 197 L150 297 Z " />
<glyph glyph-name="afii10035" unicode="&#x421;" horiz-adv-x="223" d="M150 297 L73 297 L73 197 L150 197 L150 297 Z " />
<glyph glyph-name="afii10036" unicode="&#x422;" horiz-adv-x="223" d="M150 297 L73 297 L73 197 L150 197 L150 297 Z " />
<glyph glyph-name="afii10037" unicode="&#x423;" horiz-adv-x="223" d="M150 297 L73 297 L73 197 L150 197 L150 297 Z " />
<glyph glyph-name="afii10038" unicode="&#x424;" horiz-adv-x="223" d="M150 297 L73 297 L73 197 L150 197 L150 297 Z " />
<glyph glyph-name="afii10039" unicode="&#x425;" horiz-adv-x="223" d="M150 297 L73 297 L73 197 L150 197 L150 297 Z " />
<glyph glyph-name="afii10040" unicode="&#x426;" horiz-adv-x="223" d="M150 297 L73 297 L73 197 L150 197 L150 297 Z " />
<glyph glyph-name="afii10041" unicode="&#x427;" horiz-adv-x="223" d="M150 297 L73 297 L73 197 L150 197 L150 297 Z " />
<glyph glyph-name="afii10042" unicode="&#x428;" horiz-adv-x="223" d="M150 297 L73 297 L73 197 L150 197 L150 297 Z " />
<glyph glyph-name="afii10043" unicode="&#x429;" horiz-adv-x="223" d="M150 297 L73 297 L73 197 L150 197 L150 297 Z " />
<glyph glyph-name="afii10044" unicode="&#x42a;" horiz-adv-x="223" d="M150 297 L73 297 L73 197 L150 197 L150 297 Z " />
<glyph glyph-name="afii10045" unicode="&#x42b;" horiz-adv-x="223" d="M150 297 L73 297 L73 197 L150 197 L150 297 Z " />
<glyph glyph-name="afii10046" unicode="&#x42c;" horiz-adv-x="223" d="M150 297 L73 297 L73 197 L150 197 L150 297 Z " />
<glyph glyph-name="afii10047" unicode="&#x42d;" horiz-adv-x="223" d="M150 297 L73 297 L73 197 L150 197 L150 297 Z " />
<glyph glyph-name="afii10048" unicode="&#x42e;" horiz-adv-x="223" d="M150 297 L73 297 L73 197 L150 197 L150 297 Z " />
<glyph glyph-name="afii10049" unicode="&#x42f;" horiz-adv-x="223" d="M150 297 L73 297 L73 197 L150 197 L150 297 Z " />
<glyph glyph-name="afii10065" unicode="&#x430;" horiz-adv-x="223" d="M150 297 L73 297 L73 197 L150 197 L150 297 Z " />
<glyph glyph-name="afii10066" unicode="&#x431;" horiz-adv-x="223" d="M150 297 L73 297 L73 197 L150 197 L150 297 Z " />
<glyph glyph-name="afii10067" unicode="&#x432;" horiz-adv-x="223" d="M150 297 L73 297 L73 197 L150 197 L150 297 Z " />
<glyph glyph-name="afii10068" unicode="&#x433;" horiz-adv-x="223" d="M150 297 L73 297 L73 197 L150 197 L150 297 Z " />
<glyph glyph-name="afii10069" unicode="&#x434;" horiz-adv-x="223" d="M150 297 L73 297 L73 197 L150 197 L150 297 Z " />
<glyph glyph-name="afii10070" unicode="&#x435;" horiz-adv-x="223" d="M150 297 L73 297 L73 197 L150 197 L150 297 Z " />
<glyph glyph-name="afii10072" unicode="&#x436;" horiz-adv-x="223" d="M150 297 L73 297 L73 197 L150 197 L150 297 Z " />
<glyph glyph-name="afii10073" unicode="&#x437;" horiz-adv-x="223" d="M150 297 L73 297 L73 197 L150 197 L150 297 Z " />
<glyph glyph-name="afii10074" unicode="&#x438;" horiz-adv-x="223" d="M150 297 L73 297 L73 197 L150 197 L150 297 Z " />
<glyph glyph-name="afii10075" unicode="&#x439;" horiz-adv-x="223" d="M150 297 L73 297 L73 197 L150 197 L150 297 Z " />
<glyph glyph-name="afii10076" unicode="&#x43a;" horiz-adv-x="223" d="M150 297 L73 297 L73 197 L150 197 L150 297 Z " />
<glyph glyph-name="afii10077" unicode="&#x43b;" horiz-adv-x="223" d="M150 297 L73 297 L73 197 L150 197 L150 297 Z " />
<glyph glyph-name="afii10078" unicode="&#x43c;" horiz-adv-x="223" d="M150 297 L73 297 L73 197 L150 197 L150 297 Z " />
<glyph glyph-name="afii10079" unicode="&#x43d;" horiz-adv-x="223" d="M150 297 L73 297 L73 197 L150 197 L150 297 Z " />
<glyph glyph-name="afii10080" unicode="&#x43e;" horiz-adv-x="223" d="M150 297 L73 297 L73 197 L150 197 L150 297 Z " />
<glyph glyph-name="afii10081" unicode="&#x43f;" horiz-adv-x="223" d="M150 297 L73 297 L73 197 L150 197 L150 297 Z " />
<glyph glyph-name="afii10082" unicode="&#x440;" horiz-adv-x="223" d="M150 297 L73 297 L73 197 L150 197 L150 297 Z " />
<glyph glyph-name="afii10083" unicode="&#x441;" horiz-adv-x="223" d="M150 297 L73 297 L73 197 L150 197 L150 297 Z " />
<glyph glyph-name="afii10084" unicode="&#x442;" horiz-adv-x="223" d="M150 297 L73 297 L73 197 L150 197 L150 297 Z " />
<glyph glyph-name="afii10085" unicode="&#x443;" horiz-adv-x="223" d="M150 297 L73 297 L73 197 L150 197 L150 297 Z " />
<glyph glyph-name="afii10086" unicode="&#x444;" horiz-adv-x="223" d="M150 297 L73 297 L73 197 L150 197 L150 297 Z " />
<glyph glyph-name="afii10087" unicode="&#x445;" horiz-adv-x="223" d="M150 297 L73 297 L73 197 L150 197 L150 297 Z " />
<glyph glyph-name="afii10088" unicode="&#x446;" horiz-adv-x="223" d="M150 297 L73 297 L73 197 L150 197 L150 297 Z " />
<glyph glyph-name="afii10089" unicode="&#x447;" horiz-adv-x="223" d="M150 297 L73 297 L73 197 L150 197 L150 297 Z " />
<glyph glyph-name="afii10090" unicode="&#x448;" horiz-adv-x="223" d="M150 297 L73 297 L73 197 L150 197 L150 297 Z " />
<glyph glyph-name="afii10091" unicode="&#x449;" horiz-adv-x="223" d="M150 297 L73 297 L73 197 L150 197 L150 297 Z " />
<glyph glyph-name="afii10092" unicode="&#x44a;" horiz-adv-x="223" d="M150 297 L73 297 L73 197 L150 197 L150 297 Z " />
<glyph glyph-name="afii10093" unicode="&#x44b;" horiz-adv-x="223" d="M150 297 L73 297 L73 197 L150 197 L150 297 Z " />
<glyph glyph-name="afii10094" unicode="&#x44c;" horiz-adv-x="223" d="M150 297 L73 297 L73 197 L150 197 L150 297 Z " />
<glyph glyph-name="afii10095" unicode="&#x44d;" horiz-adv-x="223" d="M150 297 L73 297 L73 197 L150 197 L150 297 Z " />
<glyph glyph-name="afii10096" unicode="&#x44e;" horiz-adv-x="223" d="M150 297 L73 297 L73 197 L150 197 L150 297 Z " />
<glyph glyph-name="afii10097" unicode="&#x44f;" horiz-adv-x="223" d="M150 297 L73 297 L73 197 L150 197 L150 297 Z " />
<glyph glyph-name="afii10071" unicode="&#x451;" horiz-adv-x="223" d="M150 297 L73 297 L73 197 L150 197 L150 297 Z " />
<glyph glyph-name="afii10099" unicode="&#x452;" horiz-adv-x="223" d="M150 297 L73 297 L73 197 L150 197 L150 297 Z " />
<glyph glyph-name="afii10100" unicode="&#x453;" horiz-adv-x="223" d="M150 297 L73 297 L73 197 L150 197 L150 297 Z " />
<glyph glyph-name="afii10101" unicode="&#x454;" horiz-adv-x="223" d="M150 297 L73 297 L73 197 L150 197 L150 297 Z " />
<glyph glyph-name="afii10102" unicode="&#x455;" horiz-adv-x="223" d="M150 297 L73 297 L73 197 L150 197 L150 297 Z " />
<glyph glyph-name="afii10103" unicode="&#x456;" horiz-adv-x="223" d="M150 297 L73 297 L73 197 L150 197 L150 297 Z " />
<glyph glyph-name="afii10104" unicode="&#x457;" horiz-adv-x="223" d="M150 297 L73 297 L73 197 L150 197 L150 297 Z " />
<glyph glyph-name="afii10105" unicode="&#x458;" horiz-adv-x="223" d="M150 297 L73 297 L73 197 L150 197 L150 297 Z " />
<glyph glyph-name="afii10106" unicode="&#x459;" horiz-adv-x="223" d="M150 297 L73 297 L73 197 L150 197 L150 297 Z " />
<glyph glyph-name="afii10107" unicode="&#x45a;" horiz-adv-x="223" d="M150 297 L73 297 L73 197 L150 197 L150 297 Z " />
<glyph glyph-name="afii10108" unicode="&#x45b;" horiz-adv-x="223" d="M150 297 L73 297 L73 197 L150 197 L150 297 Z " />
<glyph glyph-name="afii10109" unicode="&#x45c;" horiz-adv-x="223" d="M150 297 L73 297 L73 197 L150 197 L150 297 Z " />
<glyph glyph-name="afii10110" unicode="&#x45e;" horiz-adv-x="223" d="M150 297 L73 297 L73 197 L150 197 L150 297 Z " />
<glyph glyph-name="afii10193" unicode="&#x45f;" horiz-adv-x="223" d="M150 297 L73 297 L73 197 L150 197 L150 297 Z " />
<glyph glyph-name="afii10050" unicode="&#x490;" horiz-adv-x="223" d="M150 297 L73 297 L73 197 L150 197 L150 297 Z " />
<glyph glyph-name="afii10098" unicode="&#x491;" horiz-adv-x="223" d="M150 297 L73 297 L73 197 L150 197 L150 297 Z " />
<glyph glyph-name="uni0492" unicode="&#x492;" horiz-adv-x="223" d="M150 297 L73 297 L73 197 L150 197 L150 297 Z " />
<glyph glyph-name="uni0493" unicode="&#x493;" horiz-adv-x="223" d="M150 297 L73 297 L73 197 L150 197 L150 297 Z " />
<glyph glyph-name="uni0496" unicode="&#x496;" horiz-adv-x="223" d="M150 297 L73 297 L73 197 L150 197 L150 297 Z " />
<glyph glyph-name="uni0497" unicode="&#x497;" horiz-adv-x="223" d="M150 297 L73 297 L73 197 L150 197 L150 297 Z " />
<glyph glyph-name="uni049A" unicode="&#x49a;" horiz-adv-x="223" d="M150 297 L73 297 L73 197 L150 197 L150 297 Z " />
<glyph glyph-name="uni049B" unicode="&#x49b;" horiz-adv-x="223" d="M150 297 L73 297 L73 197 L150 197 L150 297 Z " />
<glyph glyph-name="uni049C" unicode="&#x49c;" horiz-adv-x="223" d="M150 297 L73 297 L73 197 L150 197 L150 297 Z " />
<glyph glyph-name="uni049D" unicode="&#x49d;" horiz-adv-x="223" d="M150 297 L73 297 L73 197 L150 197 L150 297 Z " />
<glyph glyph-name="uni04A2" unicode="&#x4a2;" horiz-adv-x="223" d="M150 297 L73 297 L73 197 L150 197 L150 297 Z " />
<glyph glyph-name="uni04A3" unicode="&#x4a3;" horiz-adv-x="223" d="M150 297 L73 297 L73 197 L150 197 L150 297 Z " />
<glyph glyph-name="uni04AE" unicode="&#x4ae;" horiz-adv-x="223" d="M150 297 L73 297 L73 197 L150 197 L150 297 Z " />
<glyph glyph-name="uni04AF" unicode="&#x4af;" horiz-adv-x="223" d="M150 297 L73 297 L73 197 L150 197 L150 297 Z " />
<glyph glyph-name="uni04B0" unicode="&#x4b0;" horiz-adv-x="223" d="M150 297 L73 297 L73 197 L150 197 L150 297 Z " />
<glyph glyph-name="uni04B1" unicode="&#x4b1;" horiz-adv-x="223" d="M150 297 L73 297 L73 197 L150 197 L150 297 Z " />
<glyph glyph-name="uni04B2" unicode="&#x4b2;" horiz-adv-x="223" d="M150 297 L73 297 L73 197 L150 197 L150 297 Z " />
<glyph glyph-name="uni04B3" unicode="&#x4b3;" horiz-adv-x="223" d="M150 297 L73 297 L73 197 L150 197 L150 297 Z " />
<glyph glyph-name="uni04B8" unicode="&#x4b8;" horiz-adv-x="223" d="M150 297 L73 297 L73 197 L150 197 L150 297 Z " />
<glyph glyph-name="uni04B9" unicode="&#x4b9;" horiz-adv-x="223" d="M150 297 L73 297 L73 197 L150 197 L150 297 Z " />
<glyph glyph-name="uni04BA" unicode="&#x4ba;" horiz-adv-x="223" d="M150 297 L73 297 L73 197 L150 197 L150 297 Z " />
<glyph glyph-name="uni04BB" unicode="&#x4bb;" horiz-adv-x="223" d="M150 297 L73 297 L73 197 L150 197 L150 297 Z " />
<glyph glyph-name="uni04C0" unicode="&#x4c0;" horiz-adv-x="223" d="M150 297 L73 297 L73 197 L150 197 L150 297 Z " />
<glyph glyph-name="uni04D8" unicode="&#x4d8;" horiz-adv-x="223" d="M150 297 L73 297 L73 197 L150 197 L150 297 Z " />
<glyph glyph-name="afii10846" unicode="&#x4d9;" horiz-adv-x="223" d="M150 297 L73 297 L73 197 L150 197 L150 297 Z " />
<glyph glyph-name="uni04E8" unicode="&#x4e8;" horiz-adv-x="223" d="M150 297 L73 297 L73 197 L150 197 L150 297 Z " />
<glyph glyph-name="uni04E9" unicode="&#x4e9;" horiz-adv-x="223" d="M150 297 L73 297 L73 197 L150 197 L150 297 Z " />
<glyph glyph-name="Wdieresis" unicode="&#x1e84;" horiz-adv-x="873" d="M860 667 L796 667 L670 197 C653 127 648 106 640 66 L633 103 C629 118 625 135 622 147 C616 171 614 180 609 198 L474 667 L401 667 L269 205 C248 125 241 95 236 66 C230 98 222 132 204 204 L81 667 L14 667 L198 0 L267 0 L401 472 C417 528 424 553 437 607 C442 577 450 548 471 470 L606 0 L675 0 L860 667 Z M570 830 L507 830 L507 737 L570 737 L570 830 Z M367 830 L304 830 L304 737 L367 737 L367 830 Z " />
<glyph glyph-name="uni2002" unicode="&#x2002;" horiz-adv-x="500" d="" />
<glyph glyph-name="uni2003" unicode="&#x2003;" horiz-adv-x="1000" d="" />
<glyph glyph-name="uni2007" unicode="&#x2007;" horiz-adv-x="547" d="" />
<glyph glyph-name="uni200A" unicode="&#x200a;" horiz-adv-x="125" d="" />
<glyph glyph-name="uni2011" unicode="&#x2011;" horiz-adv-x="222" d="M222 273 L0 273 L0 220 L222 220 L222 273 Z " />
<glyph glyph-name="figuredash" unicode="&#x2012;" horiz-adv-x="547" d="M483 273 L63 273 L63 220 L483 220 L483 273 Z " />
<glyph glyph-name="endash" unicode="&#x2013;" horiz-adv-x="547" d="M483 273 L63 273 L63 220 L483 220 L483 273 Z " />
<glyph glyph-name="emdash" unicode="&#x2014;" horiz-adv-x="667" d="M667 273 L0 273 L0 220 L667 220 L667 273 Z " />
<glyph glyph-name="afii00208" unicode="&#x2015;" horiz-adv-x="667" d="M667 273 L0 273 L0 220 L667 220 L667 273 Z " />
<glyph glyph-name="quoteleft" unicode="&#x2018;" horiz-adv-x="223" d="M73 450 L150 450 L150 547 L114 547 C115 596 127 621 156 637 L156 677 C98 658 73 612 73 526 L73 450 Z " />
<glyph glyph-name="quoteright" unicode="&#x2019;" horiz-adv-x="223" d="M150 667 L73 667 L73 570 L109 570 C108 522 96 496 67 481 L67 441 C125 459 150 506 150 592 L150 667 Z " />
<glyph glyph-name="quotesinglbase" unicode="&#x201a;" horiz-adv-x="223" d="M150 97 L73 97 L73 0 L109 0 C108 -48 96 -74 67 -90 L67 -129 C125 -111 150 -65 150 21 L150 97 Z " />
<glyph glyph-name="quotedblleft" unicode="&#x201c;" horiz-adv-x="363" d="M217 454 L290 454 L290 548 L255 548 C255 595 266 620 296 639 L296 677 C244 658 217 608 217 534 L217 454 Z M73 454 L146 454 L146 548 L111 548 C111 595 122 620 152 639 L152 677 C100 658 73 608 73 534 L73 454 Z " />
<glyph glyph-name="quotedblright" unicode="&#x201d;" horiz-adv-x="363" d="M146 667 L73 667 L73 573 L108 573 C108 526 97 501 67 482 L67 444 C119 464 146 513 146 587 L146 667 Z M290 667 L217 667 L217 573 L252 573 C252 526 239 498 210 482 L210 444 C261 460 290 513 290 587 L290 667 Z " />
<glyph glyph-name="quotedblbase" unicode="&#x201e;" horiz-adv-x="363" d="M146 94 L73 94 L73 0 L108 0 C108 -47 97 -72 67 -91 L67 -129 C119 -109 146 -60 146 14 L146 94 Z M290 94 L217 94 L217 0 L252 0 C252 -47 239 -75 210 -91 L210 -129 C261 -113 290 -60 290 14 L290 94 Z " />
<glyph glyph-name="dagger" unicode="&#x2020;" horiz-adv-x="547" d="M488 461 L299 461 L299 667 L244 667 L244 461 L57 461 L57 411 L244 411 L244 -179 L299 -179 L299 411 L488 411 L488 461 Z " />
<glyph glyph-name="daggerdbl" unicode="&#x2021;" horiz-adv-x="547" d="M489 469 L300 469 L300 667 L245 667 L245 469 L58 469 L58 419 L245 419 L245 82 L58 82 L58 32 L245 32 L245 -179 L300 -179 L300 32 L489 32 L489 82 L300 82 L300 419 L489 419 L489 469 Z " />
<glyph glyph-name="bullet" unicode="&#x2022;" horiz-adv-x="667" d="M335 477 C291 477 265 467 237 439 C211 413 196 377 196 339 C196 263 258 200 334 200 C371 200 405 215 431 241 C455 266 473 308 473 340 C473 372 456 411 430 439 C406 465 377 477 335 477 L335 477 Z " />
<glyph glyph-name="ellipsis" unicode="&#x2026;" horiz-adv-x="670" d="M150 100 L73 100 L73 0 L150 0 L150 100 Z M373 100 L296 100 L296 0 L373 0 L373 100 Z M596 100 L519 100 L519 0 L596 0 L596 100 Z " />
<glyph glyph-name="perthousand" unicode="&#x2030;" horiz-adv-x="1051" d="M535 306 C443 306 394 250 394 147 C394 43 442 -10 535 -10 C624 -10 673 48 673 153 C673 249 622 306 535 306 L535 306 Z M535 267 C591 267 622 226 622 150 C622 70 592 29 534 29 C474 29 445 67 445 144 C445 228 473 267 535 267 L535 267 Z M871 307 C780 307 730 250 730 146 C730 44 779 -10 871 -10 C958 -10 1010 50 1010 151 C1010 249 958 307 871 307 L871 307 Z M870 268 C926 268 958 225 958 149 C958 72 927 29 870 29 C811 29 779 71 779 147 C779 225 811 268 870 268 L870 268 Z M183 663 C92 663 41 606 41 504 C41 403 90 346 180 346 C268 346 321 406 321 506 C321 605 270 663 183 663 L183 663 Z M182 624 C237 624 270 579 270 504 C270 428 238 386 180 386 C121 386 92 424 92 502 C92 580 124 624 182 624 L182 624 Z M564 647 L515 647 L149 0 L198 0 L564 647 Z " />
<glyph glyph-name="guilsinglleft" unicode="&#x2039;" horiz-adv-x="237" d="M174 101 L174 162 L86 246 L174 331 L174 392 L49 275 L49 218 L174 101 Z " />
<glyph glyph-name="guilsinglright" unicode="&#x203a;" horiz-adv-x="237" d="M63 392 L63 331 L151 247 L63 162 L63 101 L188 219 L188 276 L63 392 Z " />
<glyph glyph-name="uni203E" unicode="&#x203e;" horiz-adv-x="500" d="M0 848 L0 807 L500 807 L500 848 L0 848 Z " />
<glyph glyph-name="fraction" unicode="&#x2044;" horiz-adv-x="147" d="M293 655 L250 655 L-147 0 L-102 0 L293 655 Z " />
<glyph glyph-name="zerosuperior" unicode="&#x2070;" horiz-adv-x="356" d="M181 664 C82 664 34 595 34 456 C34 324 82 259 179 259 C275 259 324 326 324 460 C324 519 316 562 299 594 C276 638 233 664 181 664 L181 664 Z M181 627 C247 627 280 571 280 461 C280 350 247 296 180 296 C111 296 79 347 79 455 C79 573 111 627 181 627 L181 627 Z " />
<glyph glyph-name="foursuperior" unicode="&#x2074;" horiz-adv-x="356" d="M320 397 L259 397 L259 659 L223 659 L31 399 L31 362 L218 362 L218 267 L259 267 L259 362 L320 362 L320 397 Z M218 397 L71 397 L218 599 L218 397 Z " />
<glyph glyph-name="fivesuperior" unicode="&#x2075;" horiz-adv-x="356" d="M297 655 L88 655 L47 449 L85 448 C107 479 135 493 174 493 C232 493 273 452 273 394 C273 337 231 295 175 295 C117 295 82 328 78 385 L36 385 C36 309 90 259 174 259 C257 259 317 317 317 396 C317 474 260 530 181 530 C145 530 120 521 95 499 L120 618 L297 618 L297 655 Z " />
<glyph glyph-name="sixsuperior" unicode="&#x2076;" horiz-adv-x="356" d="M310 555 C302 625 257 664 186 664 C124 664 77 631 54 572 C37 530 31 460 38 400 C48 310 100 258 181 258 C261 258 320 316 320 394 C320 470 264 524 186 524 C138 524 105 507 77 468 C84 578 117 627 184 627 C230 627 260 601 267 555 L310 555 Z M181 487 C237 487 275 448 275 392 C275 335 235 294 180 294 C126 294 84 337 84 393 C84 449 124 487 181 487 L181 487 Z " />
<glyph glyph-name="sevensuperior" unicode="&#x2077;" horiz-adv-x="355" d="M319 655 L51 655 L51 616 L272 616 C180 528 113 386 108 267 L154 267 C164 399 223 526 319 619 L319 655 Z " />
<glyph glyph-name="eightsuperior" unicode="&#x2078;" horiz-adv-x="355" d="M107 478 C59 461 34 427 34 378 C34 306 90 258 176 258 C264 258 319 305 319 381 C319 430 295 462 245 478 C283 495 303 524 303 563 C303 623 252 664 177 664 C101 664 50 622 50 561 C50 522 68 495 107 478 L107 478 Z M177 627 C228 627 260 601 260 560 C260 520 228 494 177 494 C126 494 93 519 93 560 C93 601 126 627 177 627 L177 627 Z M176 460 C236 460 274 428 274 379 C274 327 236 294 176 294 C117 294 78 328 78 379 C78 428 117 460 176 460 L176 460 Z " />
<glyph glyph-name="ninesuperior" unicode="&#x2079;" horiz-adv-x="356" d="M43 366 C49 300 97 259 170 259 C266 259 318 334 318 472 C318 598 268 664 172 664 C92 664 33 607 33 529 C33 452 89 397 166 397 C214 397 254 419 275 457 C273 351 237 295 171 295 C123 295 91 321 85 366 L43 366 Z M173 627 C227 627 267 585 267 530 C267 474 227 434 171 434 C116 434 78 473 78 530 C78 587 117 627 173 627 L173 627 Z " />
<glyph glyph-name="parenleftsuperior" unicode="&#x207d;" horiz-adv-x="189" d="M115 667 C63 596 31 501 31 413 C31 328 55 255 115 161 L151 161 C100 241 74 327 74 412 C74 502 102 593 151 667 L115 667 Z " />
<glyph glyph-name="parenrightsuperior" unicode="&#x207e;" horiz-adv-x="189" d="M74 161 C126 232 157 325 157 414 C157 503 134 572 74 667 L37 667 C88 588 114 503 114 416 C114 324 88 237 37 161 L74 161 Z " />
<glyph glyph-name="zeroinferior" unicode="&#x2080;" horiz-adv-x="356" d="M181 397 C82 397 34 328 34 189 C34 57 82 -8 179 -8 C275 -8 324 59 324 193 C324 252 316 295 299 327 C276 371 233 397 181 397 L181 397 Z M181 360 C247 360 280 304 280 194 C280 83 247 29 180 29 C111 29 79 80 79 188 C79 306 111 360 181 360 L181 360 Z " />
<glyph glyph-name="oneinferior" unicode="&#x2081;" horiz-adv-x="356" d="M228 392 L193 392 C179 331 164 322 78 320 L78 287 L98 287 L131 287 L171 287 L183 287 L183 0 L228 0 L228 392 Z " />
<glyph glyph-name="twoinferior" unicode="&#x2082;" horiz-adv-x="356" d="M312 38 L86 38 C95 69 116 89 177 126 C282 190 310 224 310 284 C310 352 260 397 182 397 C138 397 102 382 78 355 C59 332 49 304 47 262 L47 253 L90 253 C92 325 121 360 180 360 C232 360 266 330 266 283 C266 240 245 215 167 166 C69 106 43 73 37 0 L312 0 L312 38 Z " />
<glyph glyph-name="threeinferior" unicode="&#x2083;" horiz-adv-x="356" d="M81 263 C83 328 114 360 173 360 C224 360 256 334 256 292 C256 250 218 222 164 224 L153 224 L144 225 L144 189 C178 190 193 189 207 186 C247 177 271 149 271 111 C271 64 228 28 172 28 C114 28 69 69 72 121 L72 124 L72 131 L30 131 C30 94 34 75 46 54 C69 14 114 -8 171 -8 C256 -8 315 42 315 115 C315 162 289 196 242 210 C280 226 300 255 300 293 C300 355 250 396 175 396 C89 396 42 350 39 263 L81 263 Z " />
<glyph glyph-name="fourinferior" unicode="&#x2084;" horiz-adv-x="356" d="M320 130 L259 130 L259 392 L223 392 L31 132 L31 95 L218 95 L218 0 L259 0 L259 95 L320 95 L320 130 Z M218 130 L71 130 L218 332 L218 130 Z " />
<glyph glyph-name="fiveinferior" unicode="&#x2085;" horiz-adv-x="356" d="M297 388 L88 388 L47 183 L85 181 C106 211 137 227 174 227 C231 227 273 185 273 127 C273 70 231 27 174 27 C118 27 82 61 78 118 L36 118 C36 42 90 -8 174 -8 C257 -8 317 50 317 130 C317 207 259 264 181 264 C147 264 120 254 95 233 L120 351 L297 351 L297 388 Z " />
<glyph glyph-name="sixinferior" unicode="&#x2086;" horiz-adv-x="356" d="M310 289 C302 359 257 397 186 397 C123 397 78 365 54 305 C37 264 31 194 38 134 C48 43 100 -8 181 -8 C261 -8 320 50 320 128 C320 204 264 258 186 258 C138 258 105 241 77 202 C84 313 116 360 184 360 C231 360 260 335 267 289 L310 289 Z M181 221 C237 221 275 182 275 125 C275 69 235 28 180 28 C125 28 84 70 84 127 C84 182 124 221 181 221 L181 221 Z " />
<glyph glyph-name="seveninferior" unicode="&#x2087;" horiz-adv-x="355" d="M319 388 L51 388 L51 349 L272 349 C180 261 113 119 108 0 L154 0 C164 132 223 260 319 352 L319 388 Z " />
<glyph glyph-name="eightinferior" unicode="&#x2088;" horiz-adv-x="355" d="M107 212 C59 195 34 161 34 112 C34 39 90 -8 176 -8 C265 -8 319 39 319 115 C319 164 295 196 245 212 C283 229 303 258 303 296 C303 356 252 397 177 397 C101 397 50 356 50 294 C50 256 68 229 107 212 L107 212 Z M177 360 C228 360 260 334 260 293 C260 254 226 227 177 227 C127 227 93 254 93 293 C93 334 126 360 177 360 L177 360 Z M176 193 C237 193 274 163 274 112 C274 60 237 28 176 28 C117 28 78 61 78 113 C78 162 116 193 176 193 L176 193 Z " />
<glyph glyph-name="nineinferior" unicode="&#x2089;" horiz-adv-x="356" d="M43 99 C49 33 98 -8 170 -8 C266 -8 318 67 318 205 C318 332 269 396 172 396 C91 396 33 340 33 261 C33 185 89 130 166 130 C214 130 253 152 275 190 C273 84 237 28 171 28 C124 28 91 55 85 99 L43 99 Z M173 359 C227 359 267 319 267 262 C267 206 228 167 171 167 C116 167 78 206 78 263 C78 321 116 359 173 359 L173 359 Z " />
<glyph glyph-name="franc" unicode="&#x20a3;" horiz-adv-x="593" d="M434 647 L81 647 L81 0 L140 0 L140 300 L354 300 L354 353 L140 353 L140 594 L434 594 L434 647 Z M597 360 C516 362 458 323 432 249 L432 353 L382 353 L382 0 L434 0 L434 97 C434 188 443 224 472 258 C500 289 538 306 583 306 L597 306 L597 360 Z " />
<glyph glyph-name="lira" unicode="&#x20a4;" horiz-adv-x="547" d="M149 405 C136 433 131 455 131 482 C131 560 193 613 283 613 C384 613 442 552 444 443 L502 443 C502 584 423 664 284 664 C158 664 70 590 70 484 C70 458 75 435 86 405 L64 405 L64 362 L107 362 C134 314 144 296 152 279 L64 279 L64 236 L164 236 C166 223 166 219 166 208 C166 145 133 90 61 34 L94 -15 C138 15 165 25 198 25 C217 25 249 19 275 10 C346 -14 361 -18 390 -18 C440 -18 493 5 528 40 L498 85 C467 54 426 36 390 36 C375 36 358 39 343 44 C264 70 256 72 224 72 C190 72 171 67 121 42 C125 46 130 50 134 55 C198 114 223 160 223 215 C223 221 223 225 222 236 L335 236 L335 279 L214 279 C209 292 201 308 175 355 L172 362 L335 362 L335 405 L149 405 Z " />
<glyph glyph-name="peseta" unicode="&#x20a7;" horiz-adv-x="935" d="M81 647 L81 0 L140 0 L140 264 L279 264 C346 264 387 274 424 301 C473 336 497 388 497 459 C497 528 472 580 422 614 C386 638 346 647 272 647 L81 647 Z M140 594 L261 594 C326 594 353 589 381 571 C419 547 438 509 438 456 C438 403 419 365 379 340 C352 323 322 317 264 317 L140 317 L140 594 Z M621 291 L559 291 L559 377 L516 377 L516 291 L464 291 L464 256 L516 256 L516 97 C516 46 517 36 523 24 C532 6 552 -2 585 -2 C597 -2 606 -1 621 1 L621 37 C602 35 598 35 593 35 C564 35 559 42 559 79 L559 256 L621 256 L621 291 Z M897 201 C893 267 855 298 779 298 C710 298 667 266 667 214 C667 189 681 166 703 155 C719 146 732 142 785 130 C847 116 864 105 864 78 C864 47 832 26 786 26 C731 26 704 49 701 99 L659 99 C660 30 706 -9 785 -9 C857 -9 907 28 907 81 C907 128 878 150 793 169 C724 184 710 193 710 218 C710 246 736 263 777 263 C828 263 850 245 855 201 L897 201 Z " />
<glyph glyph-name="Euro" unicode="&#x20ac;" horiz-adv-x="547" d="M26 406 L10 366 L90 366 L89 361 C88 347 88 338 88 327 L88 310 L88 294 L88 292 L88 287 L26 287 L10 247 L91 247 C114 72 192 -14 328 -14 C391 -14 445 0 498 31 L498 91 C418 47 386 36 334 36 C231 36 167 108 148 247 L373 247 L389 287 L145 287 C144 301 144 301 144 317 C144 337 144 348 146 366 L423 366 L439 406 L151 406 C174 546 233 613 331 613 C387 613 426 598 502 547 L524 596 C472 637 401 661 332 661 C201 661 123 577 94 406 L26 406 Z " />
<glyph glyph-name="uni2101" unicode="&#x2101;" horiz-adv-x="959" d="M657 667 L614 667 L316 0 L359 0 L657 667 Z M241 668 L193 668 L23 267 L72 267 L123 390 L308 390 L358 267 L409 267 L241 668 Z M293 427 L138 427 L197 570 C205 591 212 608 216 620 C219 613 229 583 235 568 L293 427 Z M887 280 C884 364 830 409 733 409 C641 409 586 367 586 297 C586 264 599 239 623 223 C643 209 663 203 718 190 C778 177 791 174 809 166 C840 154 855 135 855 108 C855 58 815 30 744 30 C659 30 619 64 617 137 L572 137 L572 130 C572 44 636 -9 741 -9 C839 -9 900 36 900 111 C900 147 882 176 849 195 C828 207 805 214 739 228 C648 248 631 259 631 299 C631 348 666 371 738 371 C773 371 807 357 824 336 C835 322 840 308 842 280 L887 280 Z " />
<glyph glyph-name="afii61352" unicode="&#x2116;" horiz-adv-x="223" d="M150 297 L73 297 L73 197 L150 197 L150 297 Z " />
<glyph glyph-name="trademark" unicode="&#x2122;" horiz-adv-x="815" d="M331 667 L10 667 L10 630 L148 630 L148 287 L192 287 L192 630 L331 630 L331 667 Z M749 667 L691 667 L578 398 C574 388 560 352 555 337 C551 349 549 356 531 399 L416 667 L359 667 L359 287 L402 287 L402 517 C402 538 401 561 399 608 L417 561 L536 287 L574 287 L691 564 C695 574 695 574 709 610 C707 578 706 537 706 516 L706 287 L749 287 L749 667 Z " />
<glyph glyph-name="uni2126" unicode="&#x2126;" horiz-adv-x="666" d="M28 0 L286 0 L286 50 C244 73 222 88 197 112 C125 177 88 260 88 354 C88 509 195 630 334 630 C471 630 578 509 578 354 C578 273 552 204 496 140 C464 104 434 80 380 50 L380 0 L638 0 L638 53 L445 53 C572 126 639 232 639 362 C639 542 505 683 333 683 C161 683 27 542 27 362 C27 232 93 126 221 53 L28 53 L28 0 Z " />
<glyph glyph-name="onethird" unicode="&#x2153;" horiz-adv-x="858" d="M229 659 L194 659 C181 598 165 589 78 587 L78 554 L98 554 L131 554 L172 554 L184 554 L184 267 L229 267 L229 659 Z M649 655 L606 655 L209 0 L254 0 L649 655 Z M584 263 C586 328 617 360 676 360 C727 360 759 334 759 292 C759 250 721 222 667 224 L656 224 L647 225 L647 189 C681 190 696 189 710 186 C750 177 774 149 774 111 C774 64 731 28 675 28 C617 28 572 69 575 121 L575 124 L575 131 L533 131 C533 94 537 75 549 54 C572 14 617 -8 674 -8 C759 -8 818 42 818 115 C818 162 792 196 745 210 C783 226 803 255 803 293 C803 355 753 396 678 396 C592 396 545 350 542 263 L584 263 Z " />
<glyph glyph-name="twothirds" unicode="&#x2154;" horiz-adv-x="858" d="M312 305 L86 305 C95 336 115 356 177 393 C282 456 310 490 310 549 C310 618 260 663 182 663 C138 663 102 648 78 621 C59 598 49 571 47 528 L47 519 L90 519 C92 591 121 627 180 627 C231 627 266 596 266 550 C266 506 245 481 167 432 C68 373 42 340 37 267 L312 267 L312 305 Z M649 655 L605 655 L209 0 L253 0 L649 655 Z M584 263 C586 328 617 360 676 360 C727 360 759 334 759 292 C759 250 721 222 667 224 L656 224 L647 225 L647 189 C681 190 696 189 710 186 C750 177 774 149 774 111 C774 64 731 28 675 28 C617 28 572 69 575 121 L575 124 L575 131 L533 131 C533 94 537 75 549 54 C572 14 617 -8 674 -8 C759 -8 818 42 818 115 C818 162 792 196 745 210 C783 226 803 255 803 293 C803 355 753 396 678 396 C592 396 545 350 542 263 L584 263 Z " />
<glyph glyph-name="oneeighth" unicode="&#x215b;" horiz-adv-x="858" d="M229 659 L194 659 C181 598 165 589 78 587 L78 554 L98 554 L131 554 L172 554 L184 554 L184 267 L229 267 L229 659 Z M649 655 L606 655 L209 0 L254 0 L649 655 Z M610 212 C562 195 537 161 537 112 C537 39 593 -8 679 -8 C768 -8 822 39 822 115 C822 164 798 196 748 212 C786 229 806 258 806 296 C806 356 755 397 680 397 C604 397 553 356 553 294 C553 255 571 229 610 212 L610 212 Z M680 360 C731 360 763 334 763 293 C763 254 729 227 680 227 C630 227 596 253 596 293 C596 334 629 360 680 360 L680 360 Z M679 193 C740 193 777 163 777 112 C777 60 740 28 679 28 C620 28 581 61 581 113 C581 162 619 193 679 193 L679 193 Z " />
<glyph glyph-name="threeeighths" unicode="&#x215c;" horiz-adv-x="858" d="M81 529 C83 594 114 627 173 627 C223 627 256 600 256 558 C256 516 217 487 164 490 L153 491 L144 491 L144 455 L152 455 L167 455 L178 456 C230 459 271 424 271 378 C271 331 228 294 172 294 C146 294 115 305 99 320 C83 335 71 365 72 387 L72 390 L72 397 L30 397 C30 360 34 341 46 320 C69 281 115 258 171 258 C256 258 315 309 315 381 C315 428 288 463 242 476 C280 492 300 521 300 559 C300 621 250 663 175 663 C89 663 42 616 39 529 L81 529 Z M649 655 L605 655 L209 0 L253 0 L649 655 Z M610 212 C561 194 537 161 537 112 C537 38 592 -8 679 -8 C767 -8 822 39 822 115 C822 163 797 196 748 212 C787 229 805 256 805 296 C805 357 755 397 679 397 C603 397 553 356 553 294 C553 255 571 229 610 212 L610 212 Z M680 360 C731 360 762 335 762 293 C762 253 730 227 679 227 C629 227 596 253 596 293 C596 334 628 360 680 360 L680 360 Z M679 193 C739 193 777 162 777 112 C777 61 739 28 679 28 C619 28 581 61 581 113 C581 162 618 193 679 193 L679 193 Z " />
<glyph glyph-name="fiveeighths" unicode="&#x215d;" horiz-adv-x="858" d="M297 655 L88 655 L47 449 L85 448 C107 479 135 493 174 493 C232 493 273 452 273 394 C273 337 231 295 175 295 C117 295 82 328 78 385 L36 385 C36 309 90 259 174 259 C257 259 317 317 317 396 C317 474 260 530 181 530 C145 530 120 521 95 499 L120 618 L297 618 L297 655 Z M649 655 L605 655 L209 0 L253 0 L649 655 Z M610 212 C561 194 537 161 537 112 C537 38 592 -8 679 -8 C767 -8 822 39 822 115 C822 163 797 196 748 212 C787 229 805 256 805 296 C805 357 755 397 679 397 C603 397 553 356 553 294 C553 255 571 229 610 212 L610 212 Z M680 360 C731 360 762 335 762 293 C762 253 730 227 679 227 C629 227 596 253 596 293 C596 334 628 360 680 360 L680 360 Z M679 193 C739 193 777 162 777 112 C777 61 739 28 679 28 C619 28 581 61 581 113 C581 162 618 193 679 193 L679 193 Z " />
<glyph glyph-name="seveneighths" unicode="&#x215e;" horiz-adv-x="858" d="M319 655 L51 655 L51 616 L272 616 C180 528 113 386 108 267 L154 267 C164 399 223 526 319 619 L319 655 Z M649 655 L605 655 L209 0 L253 0 L649 655 Z M609 212 C561 194 537 161 537 112 C537 38 592 -8 679 -8 C767 -8 822 39 822 115 C822 163 797 196 748 212 C787 229 805 256 805 296 C805 357 755 397 679 397 C603 397 553 356 553 294 C553 255 570 229 609 212 L609 212 Z M680 360 C731 360 762 335 762 293 C762 253 730 227 679 227 C629 227 596 253 596 293 C596 334 628 360 680 360 L680 360 Z M679 193 C739 193 777 162 777 112 C777 61 739 28 679 28 C619 28 581 61 581 113 C581 163 618 193 679 193 L679 193 Z " />
<glyph glyph-name="partialdiff" unicode="&#x2202;" horiz-adv-x="500" d="M92 623 C217 607 319 537 367 434 L393 367 L399 353 C377 382 368 392 356 402 C329 422 285 436 244 436 C128 436 36 337 36 213 C36 89 133 -12 252 -12 C321 -12 388 25 427 85 C454 126 465 171 465 235 C465 366 418 488 335 567 C273 627 206 657 99 672 L92 623 Z M258 389 C346 389 410 316 410 217 C410 115 342 37 251 37 C164 37 91 116 91 212 C91 313 163 389 258 389 L258 389 Z " />
<glyph glyph-name="Delta" unicode="&#x2206;" horiz-adv-x="616" d="M6 0 L610 0 L339 667 L277 667 L6 0 Z M85 53 L308 602 L531 53 L85 53 Z " />
<glyph glyph-name="product" unicode="&#x220f;" horiz-adv-x="667" d="M29 750 L29 700 L104 700 L104 -200 L29 -200 L29 -250 L236 -250 L236 -200 L159 -200 L159 700 L509 700 L509 -200 L430 -200 L430 -250 L638 -250 L638 -200 L564 -200 L564 700 L638 700 L638 750 L29 750 Z " />
<glyph glyph-name="summation" unicode="&#x2211;" horiz-adv-x="667" d="M591 750 L34 750 L34 688 L280 270 L34 -186 L34 -250 L601 -250 L601 -28 L543 -28 L540 -195 L101 -195 L351 270 L100 694 L531 694 L536 527 L591 527 L591 750 Z " />
<glyph glyph-name="minus" unicode="&#x2212;" horiz-adv-x="547" d="M49 345 L49 302 L496 302 L496 345 L49 345 Z " />
<glyph glyph-name="radical" unicode="&#x221a;" horiz-adv-x="667" d="M667 827 L424 827 L306 439 C284 372 263 302 243 231 C231 186 218 141 205 95 L199 72 L196 72 C185 116 173 160 160 206 L114 354 L0 354 L0 303 L78 303 L169 0 L232 0 L468 776 L667 776 L667 827 Z " />
<glyph glyph-name="infinity" unicode="&#x221e;" horiz-adv-x="667" d="M334 308 C387 225 437 191 503 191 C588 191 647 252 647 339 C647 428 588 489 503 489 C436 489 387 455 332 372 C280 453 228 489 166 489 C80 489 19 428 19 342 C19 253 79 191 165 191 C229 191 279 226 334 308 L334 308 Z M356 340 C409 420 446 448 498 448 C557 448 600 403 600 340 C600 277 558 232 499 232 C447 232 405 264 356 340 L356 340 Z M310 340 C257 260 220 232 168 232 C109 232 66 277 66 340 C66 403 108 448 167 448 C220 448 261 417 310 340 L310 340 Z " />
<glyph glyph-name="integral" unicode="&#x222b;" horiz-adv-x="500" d="M110 -239 C128 -247 137 -249 154 -249 C203 -249 246 -230 265 -201 C280 -177 282 -158 282 -63 L282 589 C282 626 283 647 286 657 C293 681 311 693 338 693 C353 693 361 691 377 683 L391 739 C365 747 352 750 333 750 C281 750 240 724 227 682 C220 660 220 660 219 564 L219 -74 C218 -142 218 -146 215 -158 C208 -181 189 -194 163 -194 C150 -194 141 -192 124 -184 L110 -239 Z " />
<glyph glyph-name="uni2236" unicode="&#x2236;" horiz-adv-x="273" d="M138 512 C108 512 86 491 86 462 C86 434 109 411 137 411 C165 411 187 434 187 462 C187 490 166 512 138 512 L138 512 Z M137 235 C108 235 86 213 86 185 C86 157 109 134 137 134 C165 134 187 156 187 185 C187 213 165 235 137 235 L137 235 Z " />
<glyph glyph-name="uni2243" unicode="&#x2243;" horiz-adv-x="500" d="M46 347 C79 401 106 423 141 423 C161 423 186 415 225 395 C313 351 322 347 351 347 C409 347 456 383 489 454 L454 477 C418 421 395 403 357 403 C334 403 316 410 260 438 C205 467 170 479 144 479 C91 479 45 442 11 371 L46 347 Z M489 293 L11 293 L11 244 L489 244 L489 293 Z " />
<glyph glyph-name="approxequal" unicode="&#x2248;" horiz-adv-x="500" d="M46 347 C79 401 106 423 141 423 C161 423 186 415 225 395 C313 351 322 347 351 347 C409 347 456 383 489 454 L454 477 C418 421 395 403 357 403 C334 403 316 410 260 438 C205 467 170 479 144 479 C91 479 45 442 11 371 L46 347 Z M46 187 C80 242 105 262 141 262 C162 262 187 254 225 234 C309 191 321 187 351 187 C410 187 455 222 489 293 L454 317 C419 260 396 243 357 243 C332 243 318 248 260 278 C203 307 172 318 144 318 C90 318 46 282 11 211 L46 187 Z " />
<glyph glyph-name="notequal" unicode="&#x2260;" horiz-adv-x="500" d="M274 431 L33 431 L33 379 L251 379 L201 275 L33 275 L33 223 L180 223 L128 114 L173 97 L234 223 L467 223 L467 275 L255 275 L304 379 L467 379 L467 431 L327 431 L378 536 L333 552 L274 431 Z " />
<glyph glyph-name="lessequal" unicode="&#x2264;" horiz-adv-x="500" d="M466 584 L33 405 L33 350 L466 171 L466 231 L102 377 L466 524 L466 584 Z M466 141 L33 141 L33 86 L466 86 L466 141 Z " />
<glyph glyph-name="greaterequal" unicode="&#x2265;" horiz-adv-x="500" d="M33 171 L466 350 L466 405 L33 584 L33 524 L397 377 L33 231 L33 171 Z M33 86 L466 86 L466 141 L33 141 L33 86 Z " />
<glyph glyph-name="dotmath" unicode="&#x22c5;" horiz-adv-x="223" d="M150 297 L73 297 L73 197 L150 197 L150 297 Z " />
<glyph glyph-name="lozenge" unicode="&#x25ca;" horiz-adv-x="667" d="M334 693 L74 334 L334 -26 L593 334 L334 693 Z M334 569 L505 334 L334 98 L162 334 L334 569 Z " />
<glyph glyph-name="uniEA31" unicode="&#xea31;" horiz-adv-x="525" d="M331 537 C326 491 302 469 259 469 C211 469 181 502 181 557 C181 609 213 645 260 645 C297 645 321 627 328 594 L359 594 C354 640 314 672 260 672 C196 672 150 624 150 557 C150 488 193 442 259 442 C319 442 357 477 361 537 L331 537 Z M266 766 C148 766 53 674 53 558 C53 441 146 347 262 347 C377 347 472 442 472 557 C472 670 378 766 266 766 L266 766 Z M265 739 C363 739 445 656 445 557 C445 456 363 374 262 374 C161 374 80 455 80 558 C80 660 161 739 265 739 L265 739 Z " />
<glyph glyph-name="uniEA32" unicode="&#xea32;" horiz-adv-x="526" d="M176 667 L176 447 L207 447 L207 541 L269 541 C316 541 323 534 325 481 C326 461 328 454 333 447 L371 447 C359 458 358 462 356 488 C353 532 349 542 326 554 C349 565 359 581 359 605 C359 645 331 667 281 667 L176 667 Z M207 640 L274 640 C311 640 328 628 328 604 C328 577 310 566 266 566 L207 566 L207 640 Z M266 766 C148 766 53 674 53 558 C53 441 146 347 263 347 C378 347 472 441 472 557 C472 671 379 766 266 766 L266 766 Z M266 739 C364 739 445 657 445 557 C445 455 364 374 263 374 C161 374 80 455 80 558 C80 660 161 739 266 739 L266 739 Z " />
<glyph glyph-name="uniEA3E" unicode="&#xea3e;" horiz-adv-x="223" d="M150 297 L73 297 L73 197 L150 197 L150 297 Z " />
<glyph glyph-name="uniEA3F" unicode="&#xea3f;" horiz-adv-x="500" d="M386 667 L322 667 L322 592 L353 592 C351 557 340 539 315 527 L315 497 C364 509 386 542 386 606 L386 667 Z " />
<glyph glyph-name="uniEA4F" unicode="&#xea4f;" horiz-adv-x="500" d="M215 553 L279 553 L279 628 L248 628 C250 663 261 681 286 693 L286 723 C237 711 215 678 215 614 L215 553 Z " />
<glyph glyph-name="uniEA67" unicode="&#xea67;" horiz-adv-x="500" d="M389 667 L325 667 L325 592 L356 592 C354 557 343 539 318 527 L318 497 C367 509 389 542 389 606 L389 667 Z " />
<glyph glyph-name="uniEA68" unicode="&#xea68;" horiz-adv-x="500" d="M342 830 L279 830 L279 737 L342 737 L342 830 Z M220 830 L157 830 L157 737 L220 737 L220 830 Z " />
<glyph glyph-name="uniEA6A" unicode="&#xea6a;" horiz-adv-x="500" d="M338 668 L278 668 L278 573 L338 573 L338 668 Z M222 668 L162 668 L162 573 L222 573 L222 668 Z " />
<glyph glyph-name="uniEA71" unicode="&#xea71;" horiz-adv-x="547" d="M489 475 C486 522 472 556 446 586 C406 631 359 647 264 647 L74 647 L74 475 L10 475 L10 432 L74 432 L74 0 L133 0 L133 264 L272 264 C348 264 394 278 433 314 C465 344 483 382 488 432 L543 432 L543 475 L489 475 Z M133 475 L133 594 L253 594 C327 594 356 587 386 562 C411 541 425 515 430 475 L133 475 Z M430 432 C422 388 405 361 372 340 C345 323 314 317 257 317 L133 317 L133 432 L430 432 Z " />
<glyph glyph-name="uniEA72" unicode="&#xea72;" horiz-adv-x="268" d="M268 341 L0 341 L0 313 L268 313 L268 341 Z M173 661 L143 661 C133 619 124 614 57 613 L57 586 L74 586 L99 586 L128 586 L135 586 L135 393 L173 393 L173 661 Z M236 30 L70 30 C78 50 90 60 135 85 C214 129 235 152 235 193 C235 241 197 271 138 271 C74 271 35 236 35 177 L35 170 L71 170 C72 220 92 242 136 242 C173 242 198 222 198 193 C198 165 181 148 125 116 C51 75 31 52 28 0 L236 0 L236 30 Z " />
<glyph glyph-name="uniEA73" unicode="&#xea73;" horiz-adv-x="268" d="M268 341 L0 341 L0 313 L268 313 L268 341 Z M173 661 L143 661 C133 619 124 614 57 613 L57 586 L74 586 L99 586 L128 586 L135 586 L135 393 L173 393 L173 661 Z M241 92 L196 92 L196 268 L167 268 L23 92 L23 63 L162 63 L162 0 L196 0 L196 63 L241 63 L241 92 Z M162 92 L60 92 L162 218 L162 92 Z " />
<glyph glyph-name="uniEA74" unicode="&#xea74;" horiz-adv-x="268" d="M268 341 L0 341 L0 313 L268 313 L268 341 Z M64 570 C66 615 86 635 131 635 C168 635 190 619 190 592 C190 562 168 549 116 549 L107 549 L107 520 C116 521 120 521 124 521 C175 521 201 504 201 471 C201 440 171 417 130 417 C88 417 58 442 58 477 L58 480 L58 486 L23 486 C22 482 22 478 22 476 C22 422 64 388 130 388 C194 388 238 423 238 473 C238 504 222 524 189 537 C216 551 227 568 227 593 C227 636 189 665 132 665 C66 665 31 632 29 570 L64 570 Z M241 92 L196 92 L196 268 L167 268 L23 92 L23 63 L162 63 L162 0 L196 0 L196 63 L241 63 L241 92 Z M162 92 L60 92 L162 218 L162 92 Z " />
<glyph glyph-name="dotlessj" unicode="&#xf6be;" horiz-adv-x="206" d="M132 481 L73 481 L73 -34 C73 -119 63 -135 9 -135 C7 -135 2 -135 -3 -134 L-13 -133 L-13 -182 C0 -184 6 -185 15 -185 C60 -185 92 -173 110 -149 C127 -126 132 -101 132 -32 L132 481 Z " />
<glyph glyph-name="commaaccent" unicode="&#xf6c3;" horiz-adv-x="500" d="M286 -56 L222 -56 L222 -131 L253 -131 C251 -166 240 -184 215 -196 L215 -226 C264 -214 286 -181 286 -117 L286 -56 Z " />
<glyph glyph-name="Acute" unicode="&#xf6c9;" horiz-adv-x="500" d="M386 848 L310 848 L206 722 L255 722 L386 848 Z " />
<glyph glyph-name="Caron" unicode="&#xf6ca;" horiz-adv-x="500" d="M104 848 L220 722 L281 722 L396 848 L343 848 L252 757 L163 848 L104 848 Z " />
<glyph glyph-name="Dieresis" unicode="&#xf6cb;" horiz-adv-x="500" d="M382 830 L319 830 L319 737 L382 737 L382 830 Z M180 830 L117 830 L117 737 L180 737 L180 830 Z " />
<glyph glyph-name="Grave" unicode="&#xf6ce;" horiz-adv-x="500" d="M113 848 L244 722 L293 722 L190 848 L113 848 Z " />
<glyph glyph-name="Hungarumlaut" unicode="&#xf6cf;" horiz-adv-x="500" d="M448 848 L376 848 L295 722 L340 722 L448 848 Z M295 848 L222 848 L142 722 L187 722 L295 848 Z " />
<glyph glyph-name="Macron" unicode="&#xf6d0;" horiz-adv-x="500" d="M402 802 L99 802 L99 760 L402 760 L402 802 Z " />
<glyph glyph-name="commasuperior" unicode="&#xf6e2;" horiz-adv-x="155" d="M105 330 L50 330 L50 266 L73 266 C72 240 64 225 47 218 L47 188 C92 205 105 227 105 286 L105 330 Z " />
<glyph glyph-name="periodsuperior" unicode="&#xf6e8;" horiz-adv-x="155" d="M105 332 L50 332 L50 267 L105 267 L105 332 Z " />
<glyph glyph-name="ff" unicode="&#xfb00;" horiz-adv-x="511" d="M250 668 C231 671 217 672 204 672 C154 672 121 657 100 626 C86 604 82 583 82 522 L82 481 L0 481 L0 432 L82 432 L82 0 L141 0 L141 432 L238 432 L238 481 L141 481 L141 529 C141 567 143 583 149 595 C158 613 180 622 211 622 C220 622 231 621 250 618 L250 668 Z M501 668 C482 671 468 672 455 672 C405 672 372 657 351 626 C337 604 333 583 333 522 L333 481 L251 481 L251 432 L333 432 L333 0 L392 0 L392 432 L489 432 L489 481 L392 481 L392 529 C392 567 394 583 400 595 C409 613 431 622 462 622 C471 622 482 621 501 618 L501 668 Z " />
<glyph glyph-name="fi" unicode="&#xfb01;" horiz-adv-x="465" d="M250 668 C231 671 217 672 204 672 C154 672 121 657 100 626 C86 604 82 583 82 522 L82 481 L0 481 L0 432 L82 432 L82 0 L141 0 L141 432 L238 432 L238 481 L141 481 L141 529 C141 567 143 583 149 595 C158 613 180 622 211 622 C220 622 231 621 250 618 L250 668 Z M392 667 L333 667 L333 573 L392 573 L392 667 Z M392 481 L333 481 L333 0 L392 0 L392 481 Z " />
<glyph glyph-name="fl" unicode="&#xfb02;" horiz-adv-x="465" d="M250 668 C231 671 217 672 204 672 C154 672 121 657 100 626 C86 604 82 583 82 522 L82 481 L0 481 L0 432 L82 432 L82 0 L141 0 L141 432 L238 432 L238 481 L141 481 L141 529 C141 567 143 583 149 595 C158 613 180 622 211 622 C220 622 231 621 250 618 L250 668 Z M392 667 L333 667 L333 0 L392 0 L392 667 Z " />
<glyph glyph-name="ffi" unicode="&#xfb03;" horiz-adv-x="717" d="M250 668 C231 671 217 672 204 672 C154 672 121 657 100 626 C86 604 82 583 82 522 L82 481 L0 481 L0 432 L82 432 L82 0 L141 0 L141 432 L238 432 L238 481 L141 481 L141 529 C141 567 143 583 149 595 C158 613 180 622 211 622 C220 622 231 621 250 618 L250 668 Z M501 668 C482 671 468 672 455 672 C405 672 372 657 351 626 C337 604 333 583 333 522 L333 481 L251 481 L251 432 L333 432 L333 0 L392 0 L392 432 L489 432 L489 481 L392 481 L392 529 C392 567 394 583 400 595 C409 613 431 622 462 622 C471 622 482 621 501 618 L501 668 Z M643 667 L584 667 L584 573 L643 573 L643 667 Z M643 481 L584 481 L584 0 L643 0 L643 481 Z " />
<glyph glyph-name="ffl" unicode="&#xfb04;" horiz-adv-x="717" d="M250 668 C231 671 217 672 204 672 C154 672 121 657 100 626 C86 604 82 583 82 522 L82 481 L0 481 L0 432 L82 432 L82 0 L141 0 L141 432 L238 432 L238 481 L141 481 L141 529 C141 567 143 583 149 595 C158 613 180 622 211 622 C220 622 231 621 250 618 L250 668 Z M501 668 C482 671 468 672 455 672 C405 672 372 657 351 626 C337 604 333 583 333 522 L333 481 L251 481 L251 432 L333 432 L333 0 L392 0 L392 432 L489 432 L489 481 L392 481 L392 529 C392 567 394 583 400 595 C409 613 431 622 462 622 C471 622 482 621 501 618 L501 668 Z M643 667 L584 667 L584 0 L643 0 L643 667 Z " />
</font>
</svg>
